<svg width="26" height="24" viewBox="0 0 26 24" fill="none" xmlns="http://www.w3.org/2000/svg">
<path d="M25.0008 13.5938V6H17.8008" stroke="#273266" stroke-width="2" stroke-linecap="round" stroke-linejoin="round"/>
<path d="M25 6L16.5317 14.9314C16.3831 15.0882 16.2067 15.2126 16.0125 15.2975C15.8183 15.3823 15.6102 15.426 15.4 15.426C15.1898 15.426 14.9817 15.3823 14.7875 15.2975C14.5933 15.2126 14.4169 15.0882 14.2683 14.9314L10.9317 11.4124C10.7831 11.2556 10.6067 11.1312 10.4125 11.0463C10.2183 10.9614 10.0102 10.9177 9.8 10.9177C9.5898 10.9177 9.38166 10.9614 9.18747 11.0463C8.99328 11.1312 8.81685 11.2556 8.66827 11.4124L1 19.5" stroke="#273266" stroke-width="2" stroke-linecap="round" stroke-linejoin="round"/>
</svg>
