<svg width="26" height="24" viewBox="0 0 26 24" fill="none" xmlns="http://www.w3.org/2000/svg">
<path d="M23.4018 18.2857V21.4286C23.4018 21.8453 23.2332 22.245 22.9331 22.5397C22.633 22.8344 22.226 23 21.8017 23H3.40019C2.76362 23 2.15312 22.7517 1.703 22.3096C1.25288 21.8676 1 21.268 1 20.6429V3.35714C1 2.73199 1.25288 2.13244 1.703 1.69039C2.15312 1.24834 2.76362 1 3.40019 1H20.2015C20.6259 1 21.0329 1.16556 21.333 1.46026C21.6331 1.75496 21.8017 2.15466 21.8017 2.57143V4.92857" stroke="#273266" stroke-width="2" stroke-linecap="round" stroke-linejoin="round"/>
<path d="M23.3991 18.2852C23.8235 18.2852 24.2305 18.1197 24.5305 17.825C24.8306 17.5303 24.9992 17.1306 24.9992 16.7138V11.9995C24.9992 11.5827 24.8306 11.183 24.5305 10.8883C24.2305 10.5936 23.8235 10.4281 23.3991 10.4281H19.3988C18.3378 10.4281 17.3203 10.842 16.5701 11.5787C15.8199 12.3155 15.3984 13.3147 15.3984 14.3566C15.3984 15.3986 15.8199 16.3978 16.5701 17.1346C17.3203 17.8713 18.3378 18.2852 19.3988 18.2852H23.3991Z" stroke="#273266" stroke-width="2" stroke-linecap="round" stroke-linejoin="round"/>
<path d="M19.4 13.9643C19.4792 13.9643 19.5565 13.9873 19.6223 14.0305C19.6881 14.0737 19.7393 14.135 19.7696 14.2068C19.7999 14.2786 19.8078 14.3576 19.7924 14.4338C19.7769 14.51 19.7388 14.58 19.6829 14.6349C19.627 14.6899 19.5557 14.7273 19.4781 14.7425C19.4005 14.7576 19.32 14.7498 19.2469 14.7201C19.1738 14.6904 19.1114 14.64 19.0674 14.5754C19.0235 14.5108 19 14.4349 19 14.3572C19 14.253 19.0421 14.153 19.1172 14.0794C19.1922 14.0057 19.2939 13.9643 19.4 13.9643Z" fill="#273266" stroke="#273266" stroke-width="2" stroke-linecap="round" stroke-linejoin="round"/>
<path d="M23.3997 10.4286V6.49998C23.3997 6.08322 23.2311 5.68352 22.931 5.38882C22.6309 5.09412 22.2239 4.92856 21.7995 4.92856H6.1983C5.85098 4.94459 5.50597 4.86538 5.20189 4.69979C4.89781 4.53419 4.64666 4.28875 4.47656 3.99094" stroke="#273266" stroke-width="2" stroke-linecap="round" stroke-linejoin="round"/>
</svg>
