<svg width="26" height="24" viewBox="0 0 26 24" fill="none" xmlns="http://www.w3.org/2000/svg">
<path fill-rule="evenodd" clip-rule="evenodd" d="M8.20039 10.8001C5.54942 10.8001 3.40039 8.65107 3.40039 6.0001C3.40039 3.34914 5.54942 1.2001 8.20039 1.2001C10.8514 1.2001 13.0004 3.34914 13.0004 6.0001C13.0004 8.65107 10.8514 10.8001 8.20039 10.8001Z" stroke="#273266" stroke-width="2" stroke-linecap="round" stroke-linejoin="round"/>
<path fill-rule="evenodd" clip-rule="evenodd" d="M17.8 22.8001C15.149 22.8001 13 20.6511 13 18.0001C13 15.3491 15.149 13.2001 17.8 13.2001C20.451 13.2001 22.6 15.3491 22.6 18.0001C22.6 20.6511 20.451 22.8001 17.8 22.8001Z" stroke="#273266" stroke-width="2" stroke-linecap="round" stroke-linejoin="round"/>
<path d="M13.0038 18H1M1 6H3.4H1ZM12.9962 6H25H12.9962ZM25 18H22.6H25Z" stroke="#273266" stroke-width="2" stroke-linecap="round" stroke-linejoin="round"/>
</svg>
