<svg width="26" height="24" viewBox="0 0 26 24" fill="none" xmlns="http://www.w3.org/2000/svg">
<path d="M13.0038 17.9999H1M1 5.99991H3.4H1ZM12.9962 5.99991H25H12.9962ZM25 17.9999H22.6H25Z" stroke="#273266" stroke-width="2" stroke-linecap="round" stroke-linejoin="round"/>
<path fill-rule="evenodd" clip-rule="evenodd" d="M17.8 22.4002C15.149 22.4002 13 20.2512 13 17.6002C13 14.9492 15.149 12.8002 17.8 12.8002C20.451 12.8002 22.6 14.9492 22.6 17.6002C22.6 20.2512 20.451 22.4002 17.8 22.4002Z" fill="white" stroke="#315EFD" stroke-width="2" stroke-linecap="round" stroke-linejoin="round"/>
<path fill-rule="evenodd" clip-rule="evenodd" d="M8.8 10.8001C6.14903 10.8001 4 8.65107 4 6.0001C4 3.34914 6.14903 1.2001 8.8 1.2001C11.451 1.2001 13.6 3.34914 13.6 6.0001C13.6 8.65107 11.451 10.8001 8.8 10.8001Z" fill="#315EFD" stroke="#315EFD" stroke-width="2" stroke-linecap="round" stroke-linejoin="round"/>
</svg>
