<svg width="26" height="26" viewBox="0 0 26 26" fill="none" xmlns="http://www.w3.org/2000/svg">
<path fill-rule="evenodd" clip-rule="evenodd" d="M3.76933 16.1754L1.79329 15.5406C1.32058 15.3887 1 14.949 1 14.4525V11.5475C1 11.051 1.32058 10.6113 1.79329 10.4594L3.76933 9.8246C4.37026 9.63154 4.70091 8.98788 4.50785 8.38695C4.46917 8.26655 4.41077 8.1534 4.33503 8.05211L3.49119 6.92362C3.15097 6.46864 3.19662 5.83282 3.59834 5.4311L5.4311 3.59834C5.83282 3.19662 6.46864 3.15097 6.92362 3.49119L8.05211 4.33503C8.5576 4.71302 9.2738 4.60965 9.65178 4.10416C9.72752 4.00288 9.78592 3.88973 9.8246 3.76933L10.4594 1.79329C10.6113 1.32058 11.051 1 11.5475 1H14.4525C14.949 1 15.3887 1.32058 15.5406 1.79329L16.1754 3.76933C16.3685 4.37026 17.0121 4.70091 17.613 4.50785C17.7335 4.46917 17.8466 4.41077 17.9479 4.33503L19.0764 3.49119C19.5314 3.15097 20.1672 3.19662 20.5689 3.59834L22.4017 5.4311C22.8034 5.83282 22.849 6.46864 22.5088 6.92362L21.665 8.05211C21.287 8.5576 21.3903 9.2738 21.8958 9.65178C21.9971 9.72752 22.1103 9.78592 22.2307 9.8246L24.2067 10.4594C24.6794 10.6113 25 11.051 25 11.5475V14.4525C25 14.949 24.6794 15.3887 24.2067 15.5406L22.2307 16.1754C21.6297 16.3685 21.2991 17.0121 21.4922 17.613C21.5308 17.7335 21.5892 17.8466 21.665 17.9479L22.5088 19.0764C22.849 19.5314 22.8034 20.1672 22.4017 20.5689L20.5689 22.4017C20.1672 22.8034 19.5314 22.849 19.0764 22.5088L17.9479 21.665C17.4424 21.287 16.7262 21.3903 16.3482 21.8958C16.2725 21.9971 16.2141 22.1103 16.1754 22.2307L15.5406 24.2067C15.3887 24.6794 14.949 25 14.4525 25H11.5475C11.051 25 10.6113 24.6794 10.4594 24.2067L9.8246 22.2307C9.63154 21.6297 8.98788 21.2991 8.38695 21.4922C8.26655 21.5308 8.1534 21.5892 8.05211 21.665L6.92362 22.5088C6.46864 22.849 5.83282 22.8034 5.4311 22.4017L3.59834 20.5689C3.19662 20.1672 3.15097 19.5314 3.49119 19.0764L4.33503 17.9479C4.71302 17.4424 4.60965 16.7262 4.10416 16.3482C4.00288 16.2725 3.88973 16.2141 3.76933 16.1754ZM15.4244 10.5756C14.0854 9.23669 11.9146 9.23669 10.5756 10.5756C9.23669 11.9146 9.23669 14.0854 10.5756 15.4244C11.9146 16.7633 14.0854 16.7633 15.4244 15.4244C16.7633 14.0854 16.7633 11.9146 15.4244 10.5756Z" stroke="#273266" stroke-width="2" stroke-linecap="round" stroke-linejoin="round"/>
</svg>
