<svg width="26" height="26" viewBox="0 0 26 26" fill="none" xmlns="http://www.w3.org/2000/svg">
<path d="M5 19.4H4.2C3.35131 19.4 2.53737 19.0629 1.93726 18.4628C1.33714 17.8626 1 17.0487 1 16.2V13C1 12.1513 1.33714 11.3374 1.93726 10.7373C2.53737 10.1372 3.35131 9.80002 4.2 9.80002H5C5.21217 9.80002 5.41566 9.8843 5.56569 10.0343C5.71571 10.1844 5.8 10.3878 5.8 10.6V18.6C5.8 18.8122 5.71571 19.0157 5.56569 19.1657C5.41566 19.3157 5.21217 19.4 5 19.4Z" stroke="#273266" stroke-width="2" stroke-linecap="round" stroke-linejoin="round"/>
<path d="M21.7992 19.4H20.9992C20.787 19.4 20.5836 19.3157 20.4335 19.1657C20.2835 19.0157 20.1992 18.8122 20.1992 18.6V10.6C20.1992 10.3878 20.2835 10.1844 20.4335 10.0343C20.5836 9.8843 20.787 9.80002 20.9992 9.80002H21.7992C22.6479 9.80002 23.4618 10.1372 24.062 10.7373C24.6621 11.3374 24.9992 12.1513 24.9992 13V16.2C24.9992 17.0487 24.6621 17.8626 24.062 18.4628C23.4618 19.0629 22.6479 19.4 21.7992 19.4Z" stroke="#273266" stroke-width="2" stroke-linecap="round" stroke-linejoin="round"/>
<path d="M4.19922 9.8C4.19922 7.4661 5.12636 5.22778 6.77668 3.57746C8.427 1.92714 10.6653 1 12.9992 1C15.3331 1 17.5714 1.92714 19.2218 3.57746C20.8721 5.22778 21.7992 7.4661 21.7992 9.8" stroke="#273266" stroke-width="2" stroke-linecap="round" stroke-linejoin="round"/>
<path d="M16.1992 23.4H18.5992C19.4479 23.4 20.2618 23.0628 20.862 22.4627C21.4621 21.8626 21.7992 21.0487 21.7992 20.2V19.4" stroke="#273266" stroke-width="2" stroke-linecap="round" stroke-linejoin="round"/>
<path d="M14.6004 25H13.0004C12.576 25 12.1691 24.8314 11.869 24.5314C11.569 24.2313 11.4004 23.8244 11.4004 23.4C11.4004 22.9757 11.569 22.5687 11.869 22.2686C12.1691 21.9686 12.576 21.8 13.0004 21.8H14.6004C15.0247 21.8 15.4317 21.9686 15.7318 22.2686C16.0318 22.5687 16.2004 22.9757 16.2004 23.4C16.2004 23.8244 16.0318 24.2313 15.7318 24.5314C15.4317 24.8314 15.0247 25 14.6004 25Z" stroke="#273266" stroke-width="2" stroke-linecap="round" stroke-linejoin="round"/>
<path d="M9.80078 9C9.80089 8.41337 9.96226 7.83805 10.2673 7.33693C10.5723 6.83581 11.0091 6.42817 11.5301 6.15857C12.0512 5.88897 12.6363 5.76777 13.2215 5.80824C13.8067 5.8487 14.3696 6.04926 14.8486 6.388C15.3275 6.72674 15.7041 7.19063 15.9373 7.72895C16.1704 8.26728 16.251 8.85933 16.1704 9.4404C16.0898 10.0215 15.851 10.5692 15.4801 11.0237C15.1092 11.4782 14.6205 11.8221 14.0674 12.0176C13.7554 12.1279 13.4852 12.3324 13.2941 12.6027C13.1031 12.873 13.0006 13.1959 13.0008 13.5269V13.8" stroke="#273266" stroke-width="2" stroke-linecap="round" stroke-linejoin="round"/>
<path d="M12.9996 17.7999C12.8935 17.7999 12.7918 17.7578 12.7168 17.6828C12.6418 17.6077 12.5996 17.506 12.5996 17.3999C12.5996 17.2938 12.6418 17.1921 12.7168 17.1171C12.7918 17.0421 12.8935 16.9999 12.9996 16.9999" stroke="#273266" stroke-width="2"/>
<path d="M13 17.7999C13.1061 17.7999 13.2078 17.7578 13.2828 17.6828C13.3579 17.6077 13.4 17.506 13.4 17.3999C13.4 17.2938 13.3579 17.1921 13.2828 17.1171C13.2078 17.0421 13.1061 16.9999 13 16.9999" stroke="#273266" stroke-width="2"/>
</svg>
