<svg width="26" height="26" viewBox="0 0 26 26" fill="none" xmlns="http://www.w3.org/2000/svg">
<path fill-rule="evenodd" clip-rule="evenodd" d="M23.2361 22.294C23.0021 24.0954 21.7986 25 19.6589 25H8.46322C6.94206 25 5.70508 23.8358 5.70508 22.4041V10.5637C9.25557 10.2177 11.0308 8.97819 11.0308 5.64529L11.0308 4.04812C11.0308 2.36469 12.4637 1 14.2314 1C14.9049 1 15.5614 1.2024 16.1071 1.57839C16.8594 2.09757 17.3387 3.08086 17.3387 4.4968V9.12004C17.3387 9.51335 18.0044 9.83587 18.6701 9.83587H22.2415C23.746 9.83587 24.9662 10.9686 24.9997 12.3767C25.022 13.3154 24.4341 16.2212 23.2361 22.294Z" stroke="#273266" stroke-width="2" stroke-linecap="round" stroke-linejoin="round"/>
<path fill-rule="evenodd" clip-rule="evenodd" d="M2.00802 10.5461H5.70538V24.9997H2.00802C1.45131 24.9997 1 24.5699 1 24.0397V11.5062C1 10.976 1.45131 10.5461 2.00802 10.5461Z" fill="#315EFD" stroke="#315EFD" stroke-width="2" stroke-linecap="round" stroke-linejoin="round"/>
</svg>
