<svg width="26" height="26" viewBox="0 0 26 26" fill="none" xmlns="http://www.w3.org/2000/svg">
<path d="M13.0012 20.2001C15.6521 20.2001 17.8012 18.0511 17.8012 15.4001C17.8012 12.7491 15.6521 10.6001 13.0012 10.6001C10.3502 10.6001 8.20117 12.7491 8.20117 15.4001C8.20117 18.0511 10.3502 20.2001 13.0012 20.2001Z" fill="#315EFD" stroke="#315EFD" stroke-width="2" stroke-linecap="round" stroke-linejoin="round"/>
<path fill-rule="evenodd" clip-rule="evenodd" d="M5.80078 24.9714C5.94478 23.0366 8.69096 20.2002 13.0059 20.2002C17.3208 20.2002 20.2008 23.0366 20.2008 25.0002" stroke="#315EFD" stroke-width="2" stroke-linecap="round" stroke-linejoin="round"/>
<path fill-rule="evenodd" clip-rule="evenodd" d="M4.07666 4.60007H21.9233C22.9932 4.60007 23.3811 4.69973 23.7722 4.88688C24.1633 5.07403 24.4703 5.34867 24.6794 5.69861C24.8886 6.04855 25 6.39566 25 7.35287V22.2473C25 23.2045 24.8886 23.5516 24.6794 23.9015C24.4703 24.2515 24.1633 24.5261 23.7722 24.7132C23.3811 24.9004 22.9932 25.0001 21.9233 25.0001H4.07666C3.00684 25.0001 2.6189 24.9004 2.22779 24.7132C1.83667 24.5261 1.52973 24.2515 1.32056 23.9015C1.11139 23.5516 1 23.2045 1 22.2473V7.35287C1 6.39566 1.11139 6.04855 1.32056 5.69861C1.52973 5.34867 1.83667 5.07403 2.22779 4.88688C2.6189 4.69973 3.00684 4.60007 4.07666 4.60007Z" stroke="#273266" stroke-width="2" stroke-linecap="round" stroke-linejoin="round"/>
<path d="M19 1V4.6" stroke="#273266" stroke-width="2" stroke-linecap="round" stroke-linejoin="round"/>
<path d="M7 1V4.6" stroke="#273266" stroke-width="2" stroke-linecap="round" stroke-linejoin="round"/>
</svg>
