<svg width="26" height="26" viewBox="0 0 26 26" fill="none" xmlns="http://www.w3.org/2000/svg">
<path fill-rule="evenodd" clip-rule="evenodd" d="M4.07666 4.60005H21.9233C22.9932 4.60005 23.3811 4.69972 23.7722 4.88687C24.1633 5.07402 24.4703 5.34866 24.6794 5.6986C24.8886 6.04854 25 6.39565 25 7.35285V22.2472C25 23.2045 24.8886 23.5516 24.6794 23.9015C24.4703 24.2514 24.1633 24.5261 23.7722 24.7132C23.3811 24.9004 22.9932 25.0001 21.9233 25.0001H4.07666C3.00684 25.0001 2.6189 24.9004 2.22779 24.7132C1.83667 24.5261 1.52973 24.2514 1.32056 23.9015C1.11139 23.5516 1 23.2045 1 22.2472V7.35285C1 6.39565 1.11139 6.04854 1.32056 5.6986C1.52973 5.34866 1.83667 5.07402 2.22779 4.88687C2.6189 4.69972 3.00684 4.60005 4.07666 4.60005Z" stroke="#273266" stroke-width="2" stroke-linecap="round" stroke-linejoin="round"/>
<path d="M19 1V4.6" stroke="#273266" stroke-width="2" stroke-linecap="round" stroke-linejoin="round"/>
<path d="M7 1V4.6" stroke="#273266" stroke-width="2" stroke-linecap="round" stroke-linejoin="round"/>
<path d="M12.9992 20.2001C15.6502 20.2001 17.7992 18.051 17.7992 15.4001C17.7992 12.7491 15.6502 10.6001 12.9992 10.6001C10.3483 10.6001 8.19922 12.7491 8.19922 15.4001C8.19922 18.051 10.3483 20.2001 12.9992 20.2001Z" stroke="#273266" stroke-width="2" stroke-linecap="round" stroke-linejoin="round"/>
<path d="M5.80078 24.9714C5.94478 23.0365 8.69096 20.2001 13.0059 20.2001C17.3208 20.2001 20.2008 23.0365 20.2008 25.0001" stroke="#273266" stroke-width="2" stroke-linecap="round" stroke-linejoin="round"/>
</svg>
