<svg width="26" height="26" viewBox="0 0 26 26" fill="none" xmlns="http://www.w3.org/2000/svg">
<path d="M3.40039 11.4V24.1995H9.80013V18.5997C9.80013 17.751 10.1373 16.9371 10.7374 16.337C11.3374 15.7369 12.1513 15.3998 13 15.3998C13.8487 15.3998 14.6626 15.7369 15.2627 16.337C15.8627 16.9371 16.1999 17.751 16.1999 18.5997V24.1995H22.5996V11.4" stroke="#273266" stroke-width="2" stroke-linecap="round" stroke-linejoin="round"/>
<path d="M1 24.1996H24.999" stroke="#273266" stroke-width="2" stroke-linecap="round" stroke-linejoin="round"/>
<path d="M4.20117 5.00026V3.40032C4.20117 2.97599 4.36974 2.56904 4.66978 2.26899C4.96983 1.96895 5.37678 1.80038 5.80111 1.80038H20.2005C20.6249 1.80038 21.0318 1.96895 21.3319 2.26899C21.6319 2.56904 21.8005 2.97599 21.8005 3.40032V5.00026" stroke="#273266" stroke-width="2" stroke-linecap="round" stroke-linejoin="round"/>
<path d="M1.16901 9.0842C1.04698 9.32816 0.989361 9.59927 1.00162 9.87177C1.01387 10.1443 1.09559 10.4091 1.23902 10.6411C1.38245 10.8732 1.58282 11.0647 1.82109 11.1975C2.05937 11.3303 2.32764 11.3999 2.60042 11.3998H23.3996C23.6724 11.3999 23.9406 11.3303 24.1789 11.1975C24.4172 11.0647 24.6176 10.8732 24.761 10.6411C24.9044 10.4091 24.9861 10.1443 24.9984 9.87177C25.0106 9.59927 24.953 9.32816 24.831 9.0842L21.7996 5.00009H4.20035L1.16901 9.0842Z" fill="#315EFD" stroke="#315EFD" stroke-width="2" stroke-linecap="round" stroke-linejoin="round"/>
</svg>
