<svg width="26" height="26" viewBox="0 0 26 26" fill="none" xmlns="http://www.w3.org/2000/svg">
<path d="M3.40039 11.4V24.1995H9.80013V18.5997C9.80013 17.751 10.1373 16.9371 10.7374 16.337C11.3374 15.737 12.1513 15.3998 13 15.3998C13.8487 15.3998 14.6626 15.737 15.2627 16.337C15.8627 16.9371 16.1999 17.751 16.1999 18.5997V24.1995H22.5996V11.4" stroke="#273266" stroke-width="2" stroke-linecap="round" stroke-linejoin="round"/>
<path d="M1 24.1996H24.999" stroke="#273266" stroke-width="2" stroke-linecap="round" stroke-linejoin="round"/>
<path d="M1.16901 9.08428C1.04698 9.32824 0.989361 9.59935 1.00162 9.87185C1.01387 10.1444 1.09559 10.4092 1.23902 10.6412C1.38245 10.8733 1.58282 11.0648 1.82109 11.1975C2.05937 11.3303 2.32764 11.4 2.60042 11.3999H23.3996C23.6724 11.4 23.9406 11.3303 24.1789 11.1975C24.4172 11.0648 24.6176 10.8733 24.761 10.6412C24.9044 10.4092 24.9861 10.1444 24.9984 9.87185C25.0106 9.59935 24.953 9.32824 24.831 9.08428L21.7996 5.00017H4.20035L1.16901 9.08428Z" stroke="#273266" stroke-width="2" stroke-linecap="round" stroke-linejoin="round"/>
<path d="M4.20117 5.00026V3.40032C4.20117 2.97599 4.36974 2.56905 4.66978 2.269C4.96983 1.96895 5.37678 1.80039 5.80111 1.80039H20.2005C20.6249 1.80039 21.0318 1.96895 21.3319 2.269C21.6319 2.56905 21.8005 2.97599 21.8005 3.40032V5.00026" stroke="#273266" stroke-width="2" stroke-linecap="round" stroke-linejoin="round"/>
</svg>
