<svg width="63" height="62" viewBox="0 0 63 62" fill="none" xmlns="http://www.w3.org/2000/svg">
<path d="M7.66749 6.71863C2.21648 12.288 0.312956 25.6958 0.8321 35.8032C1.12051 41.461 2.41837 51.6568 7.84054 56.1065C12.6282 60.0846 22.2612 62 31.75 62C41.2388 62 50.8718 60.0257 55.6595 56.1065C61.0816 51.6568 62.3795 41.3726 62.6679 35.8032C63.187 25.6958 61.2835 12.2291 55.8325 6.71863C47.0647 -2.23954 16.4353 -2.23954 7.66749 6.71863Z" fill="#315EFD"/>
<g clip-path="url(#clip0_1523_9936)">
<path d="M48 36.3333V47H37.3333C35.4628 46.9981 33.6257 46.5043 32.0062 45.5682C30.3867 44.6321 29.0419 43.2866 28.1067 41.6667C29.1118 41.6595 30.1136 41.5487 31.096 41.336C31.8442 42.2715 32.7933 43.0267 33.8731 43.5456C34.9528 44.0644 36.1354 44.3337 37.3333 44.3333H45.3333V36.3333C45.333 35.135 45.063 33.9521 44.5432 32.8723C44.0234 31.7926 43.2672 30.8437 42.3307 30.096C42.5451 29.1138 42.6577 28.112 42.6667 27.1067C44.2866 28.0419 45.6321 29.3867 46.5682 31.0062C47.5043 32.6257 47.9981 34.4628 48 36.3333ZM40 27C40 23.8174 38.7357 20.7652 36.4853 18.5147C34.2348 16.2643 31.1826 15 28 15C24.8174 15 21.7652 16.2643 19.5147 18.5147C17.2643 20.7652 16 23.8174 16 27V39H28C31.1815 38.9965 34.2317 37.7311 36.4814 35.4814C38.7311 33.2317 39.9965 30.1815 40 27ZM18.6667 27C18.6667 25.154 19.2141 23.3495 20.2396 21.8147C21.2652 20.2798 22.7228 19.0835 24.4283 18.3771C26.1337 17.6707 28.0104 17.4859 29.8208 17.846C31.6313 18.2061 33.2944 19.095 34.5997 20.4003C35.905 21.7056 36.7939 23.3687 37.154 25.1792C37.5141 26.9896 37.3293 28.8663 36.6229 30.5717C35.9165 32.2772 34.7202 33.7348 33.1853 34.7604C31.6505 35.7859 29.846 36.3333 28 36.3333H18.6667V27Z" fill="white"/>
<path d="M24 30.6667C24 29.9303 24.597 29.3333 25.3333 29.3333H28C28.7364 29.3333 29.3333 29.9303 29.3333 30.6667C29.3333 31.403 28.7364 32 28 32H25.3333C24.597 32 24 31.403 24 30.6667ZM24 25.3333C24 26.0697 24.597 26.6667 25.3333 26.6667H30.6667C31.403 26.6667 32 26.0697 32 25.3333C32 24.597 31.403 24 30.6667 24H25.3333C24.597 24 24 24.597 24 25.3333Z" fill="white"/>
</g>
<defs>
<linearGradient id="paint0_linear_1523_9936" x1="62.75" y1="62" x2="62.75" y2="0" gradientUnits="userSpaceOnUse">
<stop stop-color="#909ABA"/>
<stop offset="1" stop-color="#AAB5CF"/>
</linearGradient>
<clipPath id="clip0_1523_9936">
<rect width="32" height="32" fill="white" transform="translate(16 15)"/>
</clipPath>
</defs>
</svg>
