<svg width="63" height="62" viewBox="0 0 63 62" fill="none" xmlns="http://www.w3.org/2000/svg">
<path d="M7.66749 6.71863C2.21648 12.288 0.312956 25.6958 0.8321 35.8032C1.12051 41.461 2.41837 51.6568 7.84054 56.1065C12.6282 60.0846 22.2612 62 31.75 62C41.2388 62 50.8718 60.0257 55.6595 56.1065C61.0816 51.6568 62.3795 41.3726 62.6679 35.8032C63.187 25.6958 61.2835 12.2291 55.8325 6.71863C47.0647 -2.23954 16.4353 -2.23954 7.66749 6.71863Z" fill="url(#paint0_linear_1523_10030)"/>
<g clip-path="url(#clip0_1523_10030)">
<path d="M46.356 26.1893L36.7133 16.952C35.4666 15.7056 33.777 15.0038 32.0141 15C30.2513 14.9963 28.5587 15.6909 27.3067 16.932L17.644 26.1893C17.1254 26.6878 16.7126 27.2857 16.4301 27.9473C16.1477 28.6089 16.0014 29.3206 16 30.04V47H48V30.04C47.9986 29.3206 47.8523 28.6089 47.5699 27.9473C47.2874 27.2857 46.8746 26.6878 46.356 26.1893ZM29.172 18.8373C29.9363 18.1039 30.9557 17.6961 32.015 17.7001C33.0743 17.7041 34.0905 18.1195 34.8493 18.8586L43.8467 27.4773L34.828 36.496C34.0658 37.2226 33.0531 37.6279 32 37.6279C30.9469 37.6279 29.9342 37.2226 29.172 36.496L20.1533 27.4773L29.172 18.8373ZM45.3333 44.3333H18.6667V30.04C18.6667 29.9546 18.684 29.872 18.692 29.7866L27.2867 38.3813C28.5369 39.6311 30.2322 40.3332 32 40.3332C33.7678 40.3332 35.4632 39.6311 36.7133 38.3813L45.308 29.7866C45.316 29.872 45.3333 29.9546 45.3333 30.04V44.3333Z" fill="white"/>
</g>
<defs>
<linearGradient id="paint0_linear_1523_10030" x1="62.75" y1="62" x2="62.75" y2="0" gradientUnits="userSpaceOnUse">
<stop stop-color="#909ABA"/>
<stop offset="1" stop-color="#AAB5CF"/>
</linearGradient>
<clipPath id="clip0_1523_10030">
<rect width="32" height="32" fill="white" transform="translate(16 15)"/>
</clipPath>
</defs>
</svg>
