<svg width="63" height="62" viewBox="0 0 63 62" fill="none" xmlns="http://www.w3.org/2000/svg">
<path d="M7.16749 6.71863C1.71648 12.288 -0.187044 25.6958 0.3321 35.8032C0.620513 41.461 1.91837 51.6568 7.34054 56.1065C12.1282 60.0846 21.7612 62 31.25 62C40.7388 62 50.3718 60.0257 55.1595 56.1065C60.5816 51.6568 61.8795 41.3726 62.1679 35.8032C62.687 25.6958 60.7835 12.2291 55.3325 6.71863C46.5647 -2.23954 15.9353 -2.23954 7.16749 6.71863Z" fill="url(#paint0_linear_1523_10059)"/>
<path d="M42.9996 31.5654V29.6667C42.9996 26.4841 41.7353 23.4319 39.4849 21.1815C37.2345 18.931 34.1822 17.6667 30.9996 17.6667C27.817 17.6667 24.7648 18.931 22.5143 21.1815C20.2639 23.4319 18.9996 26.4841 18.9996 29.6667V31.5654C17.6012 32.1812 16.4567 33.2587 15.7578 34.6175C15.0589 35.9763 14.848 37.534 15.1604 39.0297C15.4727 40.5255 16.2895 41.8685 17.4738 42.834C18.6582 43.7995 20.1383 44.3288 21.6663 44.3334C22.3735 44.3334 23.0518 44.0525 23.5519 43.5524C24.052 43.0523 24.3329 42.374 24.3329 41.6667V33.6667C24.3329 32.9595 24.052 32.2812 23.5519 31.7811C23.0518 31.281 22.3735 31.0001 21.6663 31.0001V29.6667C21.6663 27.1914 22.6496 24.8174 24.3999 23.0671C26.1503 21.3167 28.5243 20.3334 30.9996 20.3334C33.475 20.3334 35.8489 21.3167 37.5993 23.0671C39.3496 24.8174 40.3329 27.1914 40.3329 29.6667V31.0001C39.6257 31.0001 38.9474 31.281 38.4473 31.7811C37.9472 32.2812 37.6663 32.9595 37.6663 33.6667V41.6667H33.6663C33.3127 41.6667 32.9735 41.8072 32.7235 42.0573C32.4734 42.3073 32.3329 42.6465 32.3329 43.0001C32.3329 43.3537 32.4734 43.6928 32.7235 43.9429C32.9735 44.1929 33.3127 44.3334 33.6663 44.3334H40.3329C41.861 44.3288 43.341 43.7995 44.5254 42.834C45.7097 41.8685 46.5265 40.5255 46.8389 39.0297C47.1513 37.534 46.9403 35.9763 46.2414 34.6175C45.5425 33.2587 44.3981 32.1812 42.9996 31.5654ZM21.6663 41.6667C20.6054 41.6667 19.588 41.2453 18.8378 40.4952C18.0877 39.745 17.6663 38.7276 17.6663 37.6667C17.6663 36.6059 18.0877 35.5885 18.8378 34.8383C19.588 34.0882 20.6054 33.6667 21.6663 33.6667V41.6667ZM40.3329 41.6667V33.6667C41.3938 33.6667 42.4112 34.0882 43.1614 34.8383C43.9115 35.5885 44.3329 36.6059 44.3329 37.6667C44.3329 38.7276 43.9115 39.745 43.1614 40.4952C42.4112 41.2453 41.3938 41.6667 40.3329 41.6667Z" fill="white"/>
<defs>
<linearGradient id="paint0_linear_1523_10059" x1="62.25" y1="62" x2="62.25" y2="0" gradientUnits="userSpaceOnUse">
<stop stop-color="#909ABA"/>
<stop offset="1" stop-color="#AAB5CF"/>
</linearGradient>
</defs>
</svg>
