<svg width="63" height="62" viewBox="0 0 63 62" fill="none" xmlns="http://www.w3.org/2000/svg">
<path d="M7.16749 6.71863C1.71648 12.288 -0.187044 25.6958 0.3321 35.8032C0.620513 41.461 1.91837 51.6568 7.34054 56.1065C12.1282 60.0846 21.7612 62 31.25 62C40.7388 62 50.3718 60.0257 55.1595 56.1065C60.5816 51.6568 61.8795 41.3726 62.1679 35.8032C62.687 25.6958 60.7835 12.2291 55.3325 6.71863C46.5647 -2.23954 15.9353 -2.23954 7.16749 6.71863Z" fill="#315EFD"/>
<g clip-path="url(#clip0_1523_10001)">
<path d="M32.334 16.3333C32.334 15.9796 32.4744 15.6405 32.7245 15.3905C32.9745 15.1404 33.3137 14.9999 33.6673 14.9999C37.2023 15.0038 40.5915 16.4098 43.0911 18.9095C45.5907 21.4091 46.9967 24.7982 47.0006 28.3333C47.0006 28.6869 46.8602 29.026 46.6101 29.2761C46.3601 29.5261 46.0209 29.6666 45.6673 29.6666C45.3137 29.6666 44.9745 29.5261 44.7245 29.2761C44.4744 29.026 44.334 28.6869 44.334 28.3333C44.3308 25.5053 43.206 22.794 41.2063 20.7943C39.2066 18.7946 36.4953 17.6698 33.6673 17.6666C33.3137 17.6666 32.9745 17.5261 32.7245 17.2761C32.4744 17.026 32.334 16.6869 32.334 16.3333ZM33.6673 22.9999C35.0818 22.9999 36.4383 23.5618 37.4385 24.562C38.4387 25.5622 39.0006 26.9188 39.0006 28.3333C39.0006 28.6869 39.1411 29.026 39.3912 29.2761C39.6412 29.5261 39.9803 29.6666 40.334 29.6666C40.6876 29.6666 41.0267 29.5261 41.2768 29.2761C41.5268 29.026 41.6673 28.6869 41.6673 28.3333C41.6652 26.2122 40.8216 24.1786 39.3218 22.6788C37.822 21.1789 35.7884 20.3354 33.6673 20.3333C33.3137 20.3333 32.9745 20.4737 32.7245 20.7238C32.4744 20.9738 32.334 21.313 32.334 21.6666C32.334 22.0202 32.4744 22.3594 32.7245 22.6094C32.9745 22.8595 33.3137 22.9999 33.6673 22.9999ZM45.7913 37.3186C46.564 38.0934 46.9979 39.143 46.9979 40.2373C46.9979 41.3315 46.564 42.3811 45.7913 43.1559L44.578 44.5546C33.658 55.0093 7.08463 28.4426 17.378 17.4879L18.9113 16.1546C19.687 15.4035 20.7272 14.988 21.8069 14.998C22.8866 15.008 23.919 15.4426 24.6806 16.2079C24.722 16.2493 27.1926 19.4586 27.1926 19.4586C27.9257 20.2288 28.3338 21.2518 28.3321 22.3151C28.3304 23.3784 27.9189 24.4002 27.1833 25.1679L25.6393 27.1093C26.4938 29.1854 27.75 31.0723 29.336 32.6614C30.9219 34.2505 32.8062 35.5106 34.8806 36.3693L36.834 34.8159C37.6018 34.0809 38.6234 33.6699 39.6864 33.6684C40.7493 33.6669 41.772 34.075 42.542 34.8079C42.542 34.8079 45.75 37.2773 45.7913 37.3186ZM43.9566 39.2573C43.9566 39.2573 40.766 36.8026 40.7246 36.7613C40.4499 36.4889 40.0788 36.3361 39.692 36.3361C39.3051 36.3361 38.934 36.4889 38.6593 36.7613C38.6233 36.7986 35.934 38.9413 35.934 38.9413C35.7527 39.0855 35.5371 39.1801 35.3082 39.2156C35.0793 39.2512 34.8451 39.2264 34.6286 39.1439C31.9412 38.1434 29.5003 36.5769 27.4711 34.5507C25.4419 32.5245 23.8718 30.0858 22.8673 27.3999C22.7782 27.1805 22.7492 26.9414 22.7832 26.7071C22.8171 26.4727 22.9129 26.2517 23.0606 26.0666C23.0606 26.0666 25.2033 23.3759 25.2393 23.3413C25.5117 23.0666 25.6645 22.6954 25.6645 22.3086C25.6645 21.9218 25.5117 21.5506 25.2393 21.2759C25.198 21.2359 22.7433 18.0426 22.7433 18.0426C22.4645 17.7926 22.1006 17.6587 21.7263 17.6684C21.352 17.6781 20.9955 17.8305 20.73 18.0946L19.1966 19.4279C11.674 28.4733 34.702 50.2239 42.6286 42.7333L43.8433 41.3333C44.1279 41.0696 44.2989 40.7056 44.3201 40.3182C44.3412 39.9308 44.2109 39.5503 43.9566 39.2573Z" fill="white"/>
</g>
<defs>
<linearGradient id="paint0_linear_1523_10001" x1="62.25" y1="62" x2="62.25" y2="0" gradientUnits="userSpaceOnUse">
<stop stop-color="#909ABA"/>
<stop offset="1" stop-color="#AAB5CF"/>
</linearGradient>
<clipPath id="clip0_1523_10001">
<rect width="32" height="32" fill="white" transform="translate(15 15)"/>
</clipPath>
</defs>
</svg>
