<svg width="59" height="58" fill="none" xmlns="http://www.w3.org/2000/svg"><rect x=".5" width="58" height="58" rx="8" fill="#F7F9FC"/><path fill-rule="evenodd" clip-rule="evenodd" d="M30.16 19.294a9.346 9.346 0 016.63 2.746 9.346 9.346 0 012.746 6.63 9.346 9.346 0 01-2.746 6.628 9.346 9.346 0 01-6.63 2.746 9.346 9.346 0 01-6.628-2.745 9.346 9.346 0 01-2.746-6.63 9.346 9.346 0 012.746-6.629 9.346 9.346 0 016.629-2.746z" fill="#092DAA"/><path fill-rule="evenodd" clip-rule="evenodd" d="M30.16 21.729c1.917 0 3.652.777 4.908 2.033a6.919 6.919 0 012.033 4.907 6.919 6.919 0 01-2.033 4.908 6.919 6.919 0 01-4.907 2.032 6.919 6.919 0 01-4.908-2.032 6.918 6.918 0 01-2.032-4.908c0-1.916.776-3.651 2.032-4.907a6.919 6.919 0 014.908-2.033z" fill="#305DFC"/><path d="M24.635 28.087v-1.278h1.524c.322-1.06.893-1.911 1.715-2.555a4.412 4.412 0 012.798-.965c1.553 0 2.784.57 3.692 1.708l-1.04 1.337c-.43-.465-.838-.793-1.223-.98-.386-.188-.863-.283-1.429-.283-.567 0-1.078.151-1.53.453-.455.302-.795.73-1.02 1.285h3.488v1.278h-3.796c-.01.118-.015.299-.015.542 0 .242.015.472.045.69h3.765v1.277h-3.37c.528 1.03 1.324 1.545 2.39 1.545.526 0 .978-.101 1.354-.304.377-.203.775-.523 1.195-.958l1.04 1.277c-.91 1.14-2.105 1.709-3.59 1.709-1.016 0-1.917-.296-2.703-.885-.787-.588-1.351-1.383-1.694-2.383h-1.596v-1.278h1.319a5.717 5.717 0 01-.045-.713c0-.237.005-.41.015-.52h-1.29z" fill="#fff"/><path d="M40.075 42.55H20.52l1.516 1.515L21.1 45l-2.644-2.644-.467-.467.467-.467 2.644-2.644.935.934-1.516 1.516h19.555v1.322zM18.924 15.45H38.48l-1.516-1.515.934-.935 2.644 2.644.468.467-.468.467-2.644 2.644-.934-.934 1.516-1.516H18.924V15.45z" fill="#305DFC"/></svg>