<svg width="50" height="50" viewBox="0 0 50 50" fill="none" xmlns="http://www.w3.org/2000/svg">
<rect x="0.5" y="0.5" width="49" height="49" rx="4.5" fill="white"/>
<rect x="0.5" y="0.5" width="49" height="49" rx="4.5" stroke="#E1E2E8"/>
<path d="M33.6636 17.0518C32.0702 16.3207 30.3615 15.782 28.5749 15.4735C28.5424 15.4675 28.5099 15.4824 28.4932 15.5121C28.2734 15.903 28.03 16.4129 27.8595 16.8136C25.938 16.526 24.0263 16.526 22.1441 16.8136C21.9736 16.404 21.7214 15.903 21.5006 15.5121C21.4839 15.4834 21.4514 15.4685 21.4188 15.4735C19.6333 15.781 17.9246 16.3197 16.3302 17.0518C16.3163 17.0577 16.3045 17.0677 16.2967 17.0805C13.0557 21.9226 12.1678 26.6456 12.6033 31.3101C12.6053 31.3329 12.6181 31.3547 12.6358 31.3686C14.7742 32.9389 16.8455 33.8923 18.8784 34.5242C18.9109 34.5341 18.9454 34.5222 18.9661 34.4954C19.447 33.8387 19.8756 33.1463 20.2432 32.4181C20.2648 32.3755 20.2441 32.3249 20.1998 32.308C19.5199 32.0501 18.8724 31.7356 18.2496 31.3785C18.2004 31.3498 18.1964 31.2793 18.2418 31.2456C18.3728 31.1474 18.5039 31.0452 18.6291 30.942C18.6517 30.9232 18.6833 30.9192 18.7099 30.9311C22.8013 32.7991 27.2308 32.7991 31.2739 30.9311C31.3005 30.9182 31.332 30.9222 31.3557 30.941C31.4808 31.0442 31.6119 31.1473 31.7439 31.2455C31.7892 31.2793 31.7863 31.3497 31.7371 31.3785C31.1142 31.7426 30.4668 32.0501 29.7859 32.307C29.7416 32.3239 29.7219 32.3755 29.7436 32.4181C30.119 33.1452 30.5477 33.8377 31.0197 34.4944C31.0394 34.5222 31.0748 34.5341 31.1074 34.5241C33.1501 33.8923 35.2215 32.9389 37.3598 31.3685C37.3786 31.3547 37.3904 31.3338 37.3923 31.311C37.9136 25.9184 36.5192 21.2341 33.696 17.0815C33.6892 17.0677 33.6774 17.0577 33.6636 17.0518ZM20.8542 28.4699C19.6224 28.4699 18.6075 27.339 18.6075 25.9502C18.6075 24.5613 19.6027 23.4304 20.8542 23.4304C22.1155 23.4304 23.1207 24.5713 23.101 25.9502C23.101 27.339 22.1057 28.4699 20.8542 28.4699ZM29.1612 28.4699C27.9295 28.4699 26.9145 27.339 26.9145 25.9502C26.9145 24.5613 27.9098 23.4304 29.1612 23.4304C30.4225 23.4304 31.4277 24.5713 31.408 25.9502C31.408 27.339 30.4226 28.4699 29.1612 28.4699Z" fill="#2A2B2D"/>
</svg>
