<svg width="50" height="50" viewBox="0 0 50 50" fill="none" xmlns="http://www.w3.org/2000/svg">
<rect x="0.5" y="0.5" width="49" height="49" rx="4.5" fill="white"/>
<rect x="0.5" y="0.5" width="49" height="49" rx="4.5" stroke="#E1E2E8"/>
<path d="M25 12.5C23.3585 12.5 21.733 12.8233 20.2165 13.4515C18.6999 14.0797 17.3219 15.0004 16.1612 16.1612C13.817 18.5054 12.5 21.6848 12.5 25C12.5 30.525 16.0875 35.2125 21.05 36.875C21.675 36.975 21.875 36.5875 21.875 36.25C21.875 35.9625 21.875 35.175 21.875 34.1375C18.4125 34.8875 17.675 32.4625 17.675 32.4625C17.1 31.0125 16.2875 30.625 16.2875 30.625C15.15 29.85 16.375 29.875 16.375 29.875C17.625 29.9625 18.2875 31.1625 18.2875 31.1625C19.375 33.0625 21.2125 32.5 21.925 32.2C22.0375 31.3875 22.3625 30.8375 22.7125 30.525C19.9375 30.2125 17.025 29.1375 17.025 24.375C17.025 22.9875 17.5 21.875 18.3125 20.9875C18.1875 20.675 17.75 19.375 18.4375 17.6875C18.4375 17.6875 19.4875 17.35 21.875 18.9625C22.8625 18.6875 23.9375 18.55 25 18.55C26.0625 18.55 27.1375 18.6875 28.125 18.9625C30.5125 17.35 31.5625 17.6875 31.5625 17.6875C32.25 19.375 31.8125 20.675 31.6875 20.9875C32.5 21.875 32.975 22.9875 32.975 24.375C32.975 29.15 30.05 30.2 27.2625 30.5125C27.7125 30.9 28.125 31.6625 28.125 32.825C28.125 34.5 28.125 35.85 28.125 36.25C28.125 36.5875 28.325 36.9875 28.9625 36.875C33.925 35.2 37.5 30.525 37.5 25C37.5 23.3585 37.1767 21.733 36.5485 20.2165C35.9203 18.6999 34.9996 17.3219 33.8388 16.1612C32.6781 15.0004 31.3001 14.0797 29.7835 13.4515C28.267 12.8233 26.6415 12.5 25 12.5Z" fill="#2A2B2D"/>
</svg>
