<svg width="50" height="50" viewBox="0 0 50 50" fill="none" xmlns="http://www.w3.org/2000/svg">
<rect x="0.5" y="0.5" width="49" height="49" rx="4.5" fill="white"/>
<rect x="0.5" y="0.5" width="49" height="49" rx="4.5" stroke="#E1E2E8"/>
<path d="M33.75 13.75C34.413 13.75 35.0489 14.0134 35.5178 14.4822C35.9866 14.9511 36.25 15.587 36.25 16.25V33.75C36.25 34.413 35.9866 35.0489 35.5178 35.5178C35.0489 35.9866 34.413 36.25 33.75 36.25H16.25C15.587 36.25 14.9511 35.9866 14.4822 35.5178C14.0134 35.0489 13.75 34.413 13.75 33.75V16.25C13.75 15.587 14.0134 14.9511 14.4822 14.4822C14.9511 14.0134 15.587 13.75 16.25 13.75H33.75ZM33.125 33.125V26.5C33.125 25.4192 32.6957 24.3828 31.9315 23.6185C31.1672 22.8543 30.1308 22.425 29.05 22.425C27.9875 22.425 26.75 23.075 26.15 24.05V22.6625H22.6625V33.125H26.15V26.9625C26.15 26 26.925 25.2125 27.8875 25.2125C28.3516 25.2125 28.7967 25.3969 29.1249 25.7251C29.4531 26.0533 29.6375 26.4984 29.6375 26.9625V33.125H33.125ZM18.6 20.7C19.157 20.7 19.6911 20.4788 20.0849 20.0849C20.4788 19.6911 20.7 19.157 20.7 18.6C20.7 17.4375 19.7625 16.4875 18.6 16.4875C18.0397 16.4875 17.5024 16.7101 17.1062 17.1062C16.7101 17.5024 16.4875 18.0397 16.4875 18.6C16.4875 19.7625 17.4375 20.7 18.6 20.7ZM20.3375 33.125V22.6625H16.875V33.125H20.3375Z" fill="#2A2B2D"/>
</svg>
