<svg width="59" height="58" fill="none" xmlns="http://www.w3.org/2000/svg"><rect x=".5" width="58" height="58" rx="8" fill="#F7F9FC"/><path d="M41.455 29c0-.47-.027-.935-.08-1.392a1.802 1.802 0 01.608-1.559l1.83-1.604a1.7 1.7 0 00.33-2.162l-1.956-3.212a1.7 1.7 0 00-2.073-.698l-2.28.895a1.8 1.8 0 01-1.664-.19 11.938 11.938 0 00-1.67-.94 1.798 1.798 0 01-1.024-1.32l-.422-2.41A1.7 1.7 0 0031.38 13h-3.76a1.7 1.7 0 00-1.675 1.407l-.421 2.41a1.798 1.798 0 01-1.024 1.32c-.584.27-1.142.585-1.67.94a1.8 1.8 0 01-1.664.191l-2.28-.895a1.7 1.7 0 00-2.073.698l-1.956 3.212a1.7 1.7 0 00.33 2.162l1.83 1.604c.444.39.677.972.608 1.56a12.022 12.022 0 000 2.783 1.802 1.802 0 01-.608 1.559l-1.83 1.604a1.7 1.7 0 00-.33 2.162l1.956 3.212a1.7 1.7 0 002.073.698l2.28-.895a1.8 1.8 0 011.663.19c.529.356 1.087.67 1.67.94.537.248.923.737 1.025 1.32l.421 2.41c.142.814.849 1.157 1.675 1.157h3.76c.826 0 1.532-.343 1.674-1.156l.422-2.41a1.798 1.798 0 011.024-1.32c.584-.27 1.142-.585 1.67-.94a1.8 1.8 0 011.664-.191l2.28.895a1.7 1.7 0 002.073-.698l1.956-3.212a1.7 1.7 0 00-.331-2.162l-1.829-1.604a1.802 1.802 0 01-.608-1.56c.053-.456.08-.92.08-1.391z" fill="#0A33C1"/><path d="M29.5 38.773c5.397 0 9.773-4.376 9.773-9.773 0-5.397-4.376-9.773-9.773-9.773-5.397 0-9.773 4.376-9.773 9.773 0 5.397 4.376 9.773 9.773 9.773z" fill="#305DFC"/><path opacity=".3" d="M31.38 45a1.7 1.7 0 001.674-1.407l.422-2.41a1.798 1.798 0 011.024-1.32c.584-.27 1.142-.585 1.67-.94a1.8 1.8 0 011.664-.191l2.28.895a1.7 1.7 0 002.073-.698l1.956-3.212a1.7 1.7 0 00-.331-2.162l-1.83-1.604a1.802 1.802 0 01-.608-1.56c.032-.273.054-.55.067-.829l-6.024-6.023a8.1 8.1 0 00-1.24-1.095.551.551 0 00-.87.45v5.316c0 .549-.25 1.062-.669 1.402-.078-.075-7.012-6.997-7.07-7.067-.174-.21-.495-.154-.749.027-2.046 1.464-3.251 3.735-3.246 6.443.004 2.33.87 4.426 2.451 5.892l1.732 1.738.063 4.044c0 .973-.041 1.945.126 2.904A1.7 1.7 0 0027.62 45h3.76z" fill="url(#prefix__paint0_linear_1299_102820)"/><path opacity=".3" d="M44.143 35.717l-1.956 3.212c-.43.705-1.304 1-2.073.698l-2.28-.896a1.8 1.8 0 00-1.664.191 11.97 11.97 0 01-1.67.94 1.797 1.797 0 00-1.024 1.32l-.422 2.411c-.142.813-.848 1.218-1.674 1.218h-3.76c-.414 0-.796-.148-1.094-.398-.151-.127-.28-.093-.38-.267.25.145.54.226.846.226h3.76a1.7 1.7 0 001.675-1.406 17.028 17.028 0 00.252-2.905V35.47a8.052 8.052 0 004.246-7.098 8.02 8.02 0 00-2.048-5.366c.188.168.368.346.54.532l6.024 6.024c-.013.28-.035.556-.067.83a1.804 1.804 0 00.609 1.559l1.829 1.604a1.7 1.7 0 01.33 2.162z" fill="url(#prefix__paint1_linear_1299_102820)"/><path d="M33.054 43.593c.168-.959.252-1.93.252-2.904V34.04h-7.613v6.648c0 .973.085 1.945.252 2.904A1.7 1.7 0 0027.62 45h3.76a1.7 1.7 0 001.674-1.407z" fill="#E6ECFF"/><path opacity=".3" d="M25.693 36.1l7.38 7.38a16.86 16.86 0 00.233-2.791V34.04h-7.613v2.06z" fill="url(#prefix__paint2_linear_1299_102820)"/><path d="M37.553 29a8.053 8.053 0 01-8.053 8.053 8.045 8.045 0 01-8.053-8.038 8.042 8.042 0 013.372-6.568.552.552 0 01.874.447v5.316c0 .646.345 1.243.905 1.566l1.997 1.154a1.81 1.81 0 001.81 0l1.997-1.154c.56-.323.905-.92.905-1.567v-5.315c0-.447.506-.71.87-.45A8.042 8.042 0 0137.552 29z" fill="#E6ECFF"/><path opacity=".7" d="M23.54 29.678c0 1.012.54 1.947 1.417 2.453l3.127 1.806a2.832 2.832 0 002.832 0l3.127-1.806a2.833 2.833 0 001.416-2.453v-6.093a8.105 8.105 0 00-1.283-1.141.551.551 0 00-.87.45v5.316a1.81 1.81 0 01-.904 1.566l-1.997 1.154a1.81 1.81 0 01-1.81 0l-1.997-1.154a1.81 1.81 0 01-.905-1.567v-5.315c0-.45-.508-.709-.874-.447a8.098 8.098 0 00-1.278 1.138v6.093z" fill="#C4D1FF"/><defs><linearGradient id="prefix__paint0_linear_1299_102820" x1="32.982" y1="22.341" x2="32.982" y2="45" gradientUnits="userSpaceOnUse"><stop stop-color="#0A33C1"/><stop offset="1" stop-color="#0A33C1" stop-opacity="0"/></linearGradient><linearGradient id="prefix__paint1_linear_1299_102820" x1="35.268" y1="23.006" x2="35.268" y2="44.812" gradientUnits="userSpaceOnUse"><stop stop-color="#0A33C1"/><stop offset="1" stop-color="#0A33C1" stop-opacity="0"/></linearGradient><linearGradient id="prefix__paint2_linear_1299_102820" x1="29.5" y1="34.041" x2="29.5" y2="43.48" gradientUnits="userSpaceOnUse"><stop stop-color="#0A33C1"/><stop offset="1" stop-color="#0A33C1" stop-opacity="0"/></linearGradient></defs></svg>