<svg width="59" height="58" fill="none" xmlns="http://www.w3.org/2000/svg"><rect x=".5" width="58" height="58" rx="8" fill="#F7F9FC"/><path d="M19.567 35.4c0-2.867 2.066-5.133 4.666-5.133h1.134c-1.334-.6-2.4-1.734-3-3.134h-5.4c-1.734 0-3.134 1.534-3.134 3.467v8.2c1.8.6 3.667.933 5.734 1.067V35.4z" fill="#305DFC"/><path d="M22.167 23.534v-.267c0-2.667 1.4-5 3.466-6.133-.533-2.2-2.333-3.8-4.533-3.8-2.6 0-4.667 2.333-4.667 5.2 0 2.866 2.067 5.2 4.667 5.2.4-.067.733-.067 1.067-.2z" fill="#769AF7"/><path d="M33.033 31.867h-7.066c-1.734 0-3.134 1.533-3.134 3.466v8.2a21.922 21.922 0 006.734 1.067c2.4 0 4.6-.4 6.733-1.067V35.4c-.067-1.933-1.533-3.533-3.267-3.533z" fill="#092DAA"/><path d="M29.5 29.133c2.577 0 4.667-2.328 4.667-5.2 0-2.872-2.09-5.2-4.667-5.2s-4.667 2.328-4.667 5.2c0 2.872 2.09 5.2 4.667 5.2zM42.033 27.067h-5.266c-.667 1.4-1.734 2.533-3 3.133h1.066c2.534 0 4.667 2.334 4.667 5.134V39.8c2-.066 3.933-.466 5.733-1.066V30.6c-.066-1.933-1.466-3.533-3.2-3.533z" fill="#305DFC"/><path d="M37.9 13.334c-2.133 0-4 1.6-4.533 3.8 2.066 1.133 3.466 3.466 3.466 6.133v.267c.334.066.667.133 1.067.133 2.6 0 4.667-2.334 4.667-5.2 0-2.8-2.134-5.133-4.667-5.133z" fill="#769AF7"/></svg>