<svg width="59" height="58" fill="none" xmlns="http://www.w3.org/2000/svg"><rect x=".5" width="58" height="58" rx="8" fill="#F7F9FC"/><path fill-rule="evenodd" clip-rule="evenodd" d="M30.16 19.294a9.346 9.346 0 016.63 2.746 9.346 9.346 0 012.746 6.63 9.346 9.346 0 01-2.746 6.628 9.346 9.346 0 01-6.63 2.746 9.346 9.346 0 01-6.628-2.745 9.346 9.346 0 01-2.746-6.63 9.346 9.346 0 012.746-6.629 9.346 9.346 0 016.629-2.746z" fill="#092DAA"/><path fill-rule="evenodd" clip-rule="evenodd" d="M30.16 21.729c1.917 0 3.652.777 4.908 2.033a6.919 6.919 0 012.033 4.907 6.919 6.919 0 01-2.033 4.908 6.919 6.919 0 01-4.907 2.032 6.919 6.919 0 01-4.908-2.032 6.918 6.918 0 01-2.032-4.908c0-1.916.776-3.651 2.032-4.907a6.919 6.919 0 014.908-2.033z" fill="#305DFC"/><path d="M24.635 28.087v-1.278h1.524c.322-1.06.893-1.911 1.715-2.555a4.412 4.412 0 012.799-.965c1.552 0 2.783.57 3.692 1.708l-1.04 1.337c-.43-.465-.839-.793-1.224-.98-.386-.188-.862-.283-1.428-.283-.568 0-1.078.151-1.531.453-.455.302-.794.73-1.019 1.285h3.487v1.278h-3.796c-.01.118-.014.299-.014.542 0 .242.014.472.044.69h3.766v1.277h-3.37c.527 1.03 1.324 1.545 2.389 1.545.527 0 .979-.101 1.354-.304.377-.203.775-.523 1.195-.958l1.04 1.277c-.909 1.14-2.105 1.709-3.59 1.709-1.015 0-1.917-.296-2.703-.885-.787-.588-1.35-1.383-1.693-2.383h-1.597v-1.278h1.32a5.717 5.717 0 01-.045-.713c0-.237.005-.41.014-.52h-1.289z" fill="#fff"/><path d="M40.075 42.55H20.52l1.516 1.515L21.1 45l-2.644-2.644-.467-.467.467-.467 2.644-2.644.935.934-1.516 1.516h19.555v1.322zM18.925 15.45H38.48l-1.516-1.515L37.9 13l2.644 2.644.467.467-.467.467-2.644 2.644-.935-.934 1.516-1.516H18.925V15.45z" fill="#305DFC"/></svg>