<svg width="59" height="58" fill="none" xmlns="http://www.w3.org/2000/svg"><rect x=".5" width="58" height="58" rx="8" fill="#F7F9FC"/><path opacity=".08" d="M29.5 45c8.692 0 15.738-7.046 15.738-15.738S38.192 13.524 29.5 13.524 13.762 20.57 13.762 29.262 20.808 45 29.5 45z" fill="#000"/><path d="M29.5 44.475c8.692 0 15.738-7.046 15.738-15.737C45.238 20.046 38.192 13 29.5 13s-15.738 7.046-15.738 15.738c0 8.691 7.046 15.737 15.738 15.737z" fill="#0A33C1"/><path d="M29.5 42.188c7.421 0 13.438-6.017 13.438-13.438S36.92 15.312 29.5 15.312 16.062 21.33 16.062 28.75 22.08 42.188 29.5 42.188z" fill="#315EFD"/><path opacity=".16" d="M29.5 13c-8.692 0-15.738 7.046-15.738 15.738S20.808 44.475 29.5 44.475s15.738-7.045 15.738-15.737S38.192 13 29.5 13zm0 30.426c-8.112 0-14.689-6.576-14.689-14.688 0-8.113 6.577-14.689 14.689-14.689s14.688 6.576 14.688 14.689c-.009 8.108-6.58 14.68-14.688 14.688z" fill="url(#prefix__paint0_linear_1299_102826)"/><path d="M29.5 42.902c-7.823 0-14.164-6.342-14.164-14.164 0-7.823 6.341-14.164 14.164-14.164 7.823 0 14.164 6.341 14.164 14.164-.01 7.819-6.345 14.155-14.164 14.164zm0-27.28c-7.243 0-13.115 5.873-13.115 13.116 0 7.243 5.872 13.114 13.115 13.114s13.115-5.871 13.115-13.114c-.009-7.24-5.875-13.107-13.115-13.115z" fill="#fff"/><path d="M36.605 24.768c.004.391-.27.73-.654.806-.834.183-2.518.614-3.543.85a1.044 1.044 0 00-.813 1.023c.004 1.099.018 2.916.065 3.4.056.71.15 1.415.281 2.114.127.703.288 1.401.483 2.09.188.682.413 1.352.674 2.01l.014.033a.786.786 0 01-1.44.631 20.53 20.53 0 01-.875-2.164 24.178 24.178 0 01-.816-2.944.26.26 0 00-.255-.207h-.452a.261.261 0 00-.256.208 23.867 23.867 0 01-.816 2.944c-.25.737-.543 1.46-.875 2.164a.786.786 0 01-1.44-.631l.014-.034a22.303 22.303 0 001.157-4.1c.13-.699.225-1.404.282-2.113.046-.484.06-2.302.064-3.401a1.045 1.045 0 00-.813-1.022c-1.025-.237-2.709-.668-3.543-.85a.812.812 0 01-.654-.806.786.786 0 01.953-.74l.048.011c2 .48 4.047.737 6.104.764a27.695 27.695 0 006.104-.764l.048-.01a.786.786 0 01.954.738zM29.5 23.492a2.098 2.098 0 100-4.197 2.098 2.098 0 000 4.197z" fill="#fff"/><path opacity=".16" d="M29.5 13c-8.692 0-15.738 7.046-15.738 15.738S20.808 44.475 29.5 44.475s15.738-7.045 15.738-15.737S38.192 13 29.5 13zm0 30.95c-8.402 0-15.213-6.81-15.213-15.212 0-8.402 6.811-15.213 15.213-15.213s15.213 6.81 15.213 15.213c0 8.402-6.811 15.213-15.213 15.213z" fill="#000"/><defs><linearGradient id="prefix__paint0_linear_1299_102826" x1="29.5" y1="44.477" x2="29.5" y2="13.002" gradientUnits="userSpaceOnUse"><stop/><stop offset=".36" stop-opacity="0"/></linearGradient></defs></svg>