<svg width="28" height="28" viewBox="0 0 28 28" fill="none" xmlns="http://www.w3.org/2000/svg">
<g clip-path="url(#clip0_1896_21242)">
<path d="M5.83333 28L12.8333 28L12.8333 31.5C12.8333 31.8094 12.9563 32.1062 13.175 32.325C13.3938 32.5438 13.6906 32.6667 14 32.6667C14.3094 32.6667 14.6062 32.5438 14.825 32.325C15.0438 32.1062 15.1667 31.8094 15.1667 31.5L15.1667 28L22.1667 28C23.7132 27.9982 25.1958 27.383 26.2894 26.2894C27.383 25.1959 27.9981 23.7132 28 22.1667L28 17.5C27.9981 15.9535 27.383 14.4708 26.2894 13.3773C25.1959 12.2837 23.7132 11.6685 22.1667 11.6667L5.83334 11.6667C4.28681 11.6685 2.80415 12.2837 1.71059 13.3773C0.617031 14.4708 0.0018554 15.9535 1.32591e-06 17.5L9.17939e-07 22.1667C0.00185473 23.7132 0.61703 25.1959 1.71059 26.2894C2.80415 27.383 4.28681 27.9982 5.83333 28ZM2.33334 17.5C2.33334 16.5718 2.70209 15.6815 3.35846 15.0251C4.01484 14.3688 4.90508 14 5.83334 14L22.1667 14C23.0949 14 23.9852 14.3688 24.6415 15.0251C25.2979 15.6815 25.6667 16.5718 25.6667 17.5L25.6667 22.1667C25.6667 23.0949 25.2979 23.9852 24.6415 24.6416C23.9852 25.2979 23.0949 25.6667 22.1667 25.6667L5.83333 25.6667C4.90508 25.6667 4.01484 25.2979 3.35846 24.6416C2.70208 23.9852 2.33333 23.0949 2.33333 22.1667L2.33334 17.5Z" fill="#273266"/>
<path d="M10.4993 18.6667L17.4993 18.6667C17.8088 18.6667 18.1055 18.5438 18.3243 18.325C18.5431 18.1062 18.666 17.8094 18.666 17.5C18.666 17.1906 18.5431 16.8939 18.3243 16.6751C18.1055 16.4563 17.8088 16.3334 17.4993 16.3334L10.4993 16.3334C10.1899 16.3334 9.89318 16.4563 9.67439 16.6751C9.4556 16.8939 9.33268 17.1906 9.33268 17.5C9.33268 17.8094 9.4556 18.1062 9.67439 18.325C9.89318 18.5438 10.1899 18.6667 10.4993 18.6667Z" fill="#273266"/>
<path d="M16.3333 21L15.1667 21C14.8572 21 14.5605 21.123 14.3417 21.3417C14.1229 21.5605 14 21.8573 14 22.1667C14 22.4761 14.1229 22.7729 14.3417 22.9917C14.5605 23.2105 14.8572 23.3334 15.1667 23.3334L16.3333 23.3334C16.6428 23.3334 16.9395 23.2105 17.1583 22.9917C17.3771 22.7729 17.5 22.4761 17.5 22.1667C17.5 21.8573 17.3771 21.5605 17.1583 21.3417C16.9395 21.123 16.6428 21 16.3333 21Z" fill="#273266"/>
<path d="M5.83268 23.3334L10.4993 23.3334C10.8088 23.3334 11.1055 23.2105 11.3243 22.9917C11.5431 22.7729 11.666 22.4761 11.666 22.1667C11.666 21.8573 11.5431 21.5605 11.3243 21.3417C11.1055 21.123 10.8088 21 10.4993 21L5.83268 21C5.52326 21 5.22652 21.123 5.00772 21.3417C4.78893 21.5605 4.66602 21.8573 4.66602 22.1667C4.66602 22.4761 4.78893 22.7729 5.00772 22.9917C5.22652 23.2105 5.52326 23.3334 5.83268 23.3334Z" fill="#273266"/>
<path d="M21.0007 23.3334L22.1673 23.3334C22.4767 23.3334 22.7735 23.2105 22.9923 22.9917C23.2111 22.7729 23.334 22.4761 23.334 22.1667C23.334 21.8573 23.2111 21.5605 22.9923 21.3417C22.7735 21.123 22.4767 21 22.1673 21L21.0007 21C20.6912 21 20.3945 21.123 20.1757 21.3417C19.9569 21.5605 19.834 21.8573 19.834 22.1667C19.834 22.4761 19.9569 22.7729 20.1757 22.9917C20.3945 23.2105 20.6912 23.3334 21.0007 23.3334Z" fill="#273266"/>
<path d="M22.1673 16.3334C21.523 16.3334 21.0007 16.8557 21.0007 17.5C21.0007 18.1444 21.523 18.6667 22.1673 18.6667C22.8116 18.6667 23.334 18.1444 23.334 17.5C23.334 16.8557 22.8117 16.3334 22.1673 16.3334Z" fill="#273266"/>
<path d="M5.83333 16.3334C5.189 16.3334 4.66667 16.8557 4.66667 17.5C4.66667 18.1444 5.189 18.6667 5.83333 18.6667C6.47767 18.6667 7 18.1444 7 17.5C7 16.8557 6.47767 16.3334 5.83333 16.3334Z" fill="#273266"/>
<path d="M16.1794 7.30147C16.1794 7.53094 16.1028 7.751 15.9666 7.91326C15.8304 8.07551 15.6456 8.16667 15.4529 8.16667H12.5471C12.3544 8.16667 12.1696 8.07551 12.0334 7.91326C11.8972 7.751 11.8206 7.53094 11.8206 7.30147C11.8206 7.07201 11.8972 6.85194 12.0334 6.68969C12.1696 6.52743 12.3544 6.43628 12.5471 6.43628H15.4529C15.6456 6.43628 15.8304 6.52743 15.9666 6.68969C16.1028 6.85194 16.1794 7.07201 16.1794 7.30147ZM15.9665 0.264134C15.8303 0.101935 15.6456 0.0108165 15.4529 0.0108165C15.2603 0.0108165 15.0755 0.101935 14.9393 0.264134L14 1.38283L13.0607 0.264134C12.9937 0.181499 12.9135 0.115586 12.8249 0.0702425C12.7362 0.0248985 12.6409 0.00103094 12.5445 3.26672e-05C12.448 -0.000965609 12.3523 0.0209251 12.2631 0.0644279C12.1738 0.107931 12.0927 0.172174 12.0245 0.25341C11.9563 0.334645 11.9023 0.431246 11.8658 0.537575C11.8293 0.643905 11.8109 0.757833 11.8117 0.872713C11.8126 0.987593 11.8326 1.10112 11.8707 1.20668C11.9087 1.31224 11.9641 1.40771 12.0335 1.48752L12.9728 2.60622L12.0335 3.72491C11.9641 3.80473 11.9087 3.9002 11.8707 4.00575C11.8326 4.11131 11.8126 4.22484 11.8117 4.33972C11.8109 4.4546 11.8293 4.56853 11.8658 4.67486C11.9023 4.78119 11.9563 4.87779 12.0245 4.95902C12.0927 5.04026 12.1738 5.1045 12.2631 5.14801C12.3523 5.19151 12.448 5.2134 12.5445 5.2124C12.6409 5.2114 12.7362 5.18754 12.8249 5.14219C12.9135 5.09685 12.9937 5.03094 13.0607 4.9483L14 3.8296L14.9393 4.9483C15.0763 5.1059 15.2598 5.19311 15.4503 5.19114C15.6408 5.18917 15.823 5.09818 15.9577 4.93776C16.0924 4.77735 16.1688 4.56034 16.1704 4.33349C16.1721 4.10664 16.0989 3.88809 15.9665 3.72491L15.0272 2.60622L15.9665 1.48752C16.1027 1.32527 16.1792 1.10525 16.1792 0.875827C16.1792 0.646408 16.1027 0.426382 15.9665 0.264134ZM21.2646 6.43628H18.3588C18.1661 6.43628 17.9813 6.52743 17.8451 6.68969C17.7088 6.85194 17.6323 7.07201 17.6323 7.30147C17.6323 7.53094 17.7088 7.751 17.8451 7.91326C17.9813 8.07551 18.1661 8.16667 18.3588 8.16667H21.2646C21.4573 8.16667 21.6421 8.07551 21.7783 7.91326C21.9145 7.751 21.9911 7.53094 21.9911 7.30147C21.9911 7.07201 21.9145 6.85194 21.7783 6.68969C21.6421 6.52743 21.4573 6.43628 21.2646 6.43628ZM20.8389 2.60622L21.7782 1.48752C21.8476 1.40771 21.9029 1.31224 21.941 1.20668C21.9791 1.10112 21.9991 0.987593 22 0.872713C22.0008 0.757833 21.9824 0.643905 21.9459 0.537575C21.9094 0.431246 21.8554 0.334645 21.7872 0.25341C21.719 0.172174 21.6379 0.107931 21.5486 0.0644279C21.4593 0.0209251 21.3637 -0.000965609 21.2672 3.26672e-05C21.1708 0.00103094 21.0754 0.0248985 20.9868 0.0702425C20.8982 0.115586 20.818 0.181499 20.751 0.264134L19.8117 1.38283L18.8724 0.264134C18.8054 0.181499 18.7252 0.115586 18.6366 0.0702425C18.5479 0.0248985 18.4526 0.00103094 18.3562 3.26672e-05C18.2597 -0.000965609 18.164 0.0209251 18.0748 0.0644279C17.9855 0.107931 17.9044 0.172174 17.8362 0.25341C17.7679 0.334645 17.714 0.431246 17.6775 0.537575C17.6409 0.643905 17.6226 0.757833 17.6234 0.872713C17.6242 0.987593 17.6443 1.10112 17.6824 1.20668C17.7204 1.31224 17.7758 1.40771 17.8452 1.48752L18.7845 2.60622L17.8452 3.72491C17.7758 3.80473 17.7204 3.9002 17.6824 4.00575C17.6443 4.11131 17.6242 4.22484 17.6234 4.33972C17.6226 4.4546 17.6409 4.56853 17.6775 4.67486C17.714 4.78119 17.7679 4.87779 17.8362 4.95902C17.9044 5.04026 17.9855 5.1045 18.0748 5.14801C18.164 5.19151 18.2597 5.2134 18.3562 5.2124C18.4526 5.2114 18.5479 5.18754 18.6366 5.14219C18.7252 5.09685 18.8054 5.03094 18.8724 4.9483L19.8117 3.8296L20.751 4.9483C20.888 5.1059 21.0715 5.19311 21.262 5.19114C21.4525 5.18917 21.6347 5.09818 21.7694 4.93776C21.9041 4.77735 21.9805 4.56034 21.9821 4.33349C21.9838 4.10664 21.9106 3.88809 21.7782 3.72491L20.8389 2.60622ZM9.64123 6.43628H6.73539C6.54272 6.43628 6.35794 6.52743 6.2217 6.68969C6.08546 6.85194 6.00893 7.07201 6.00893 7.30147C6.00893 7.53094 6.08546 7.751 6.2217 7.91326C6.35794 8.07551 6.54272 8.16667 6.73539 8.16667H9.64123C9.8339 8.16667 10.0187 8.07551 10.1549 7.91326C10.2912 7.751 10.3677 7.53094 10.3677 7.30147C10.3677 7.07201 10.2912 6.85194 10.1549 6.68969C10.0187 6.52743 9.8339 6.43628 9.64123 6.43628ZM10.1548 0.264134C10.0186 0.101935 9.83386 0.0108165 9.64123 0.0108165C9.4486 0.0108165 9.26386 0.101935 9.12762 0.264134L8.18831 1.38283L7.249 0.264134C7.18198 0.181499 7.10182 0.115586 7.01319 0.0702425C6.92456 0.0248985 6.82923 0.00103094 6.73277 3.26672e-05C6.63631 -0.000965609 6.54065 0.0209251 6.45138 0.0644279C6.3621 0.107931 6.28098 0.172174 6.21278 0.25341C6.14457 0.334645 6.09062 0.431246 6.0541 0.537575C6.01757 0.643905 5.99919 0.757833 6.00003 0.872713C6.00087 0.987593 6.02091 1.10112 6.05898 1.20668C6.09705 1.31224 6.1524 1.40771 6.22178 1.48752L7.16109 2.60622L6.22178 3.72491C6.1524 3.80473 6.09705 3.9002 6.05898 4.00575C6.02091 4.11131 6.00087 4.22484 6.00003 4.33972C5.99919 4.4546 6.01757 4.56853 6.0541 4.67486C6.09062 4.78119 6.14457 4.87779 6.21278 4.95902C6.28098 5.04026 6.3621 5.1045 6.45138 5.14801C6.54065 5.19151 6.63631 5.2134 6.73277 5.2124C6.82923 5.2114 6.92456 5.18754 7.01319 5.14219C7.10182 5.09685 7.18198 5.03094 7.249 4.9483L8.18831 3.8296L9.12762 4.9483C9.19464 5.03094 9.2748 5.09685 9.36343 5.14219C9.45206 5.18754 9.54739 5.2114 9.64385 5.2124C9.74031 5.2134 9.83597 5.19151 9.92525 5.14801C10.0145 5.1045 10.0956 5.04026 10.1638 4.95902C10.2321 4.87779 10.286 4.78119 10.3225 4.67486C10.3591 4.56853 10.3774 4.4546 10.3766 4.33972C10.3758 4.22484 10.3557 4.11131 10.3176 4.00575C10.2796 3.9002 10.2242 3.80473 10.1548 3.72491L9.21553 2.60622L10.1548 1.48752C10.291 1.32527 10.3675 1.10525 10.3675 0.875827C10.3675 0.646408 10.291 0.426382 10.1548 0.264134Z" fill="#273266"/>
</g>
<defs>
<clipPath id="clip0_1896_21242">
<rect width="28" height="28" fill="white"/>
</clipPath>
</defs>
</svg>
