<svg width="76" height="76" viewBox="0 0 76 76" fill="none" xmlns="http://www.w3.org/2000/svg">
<g clip-path="url(#clip0_1896_21031)">
<path d="M8.47951 8.23574C1.79763 15.0627 -0.535732 31.4981 0.100638 43.8878C0.454177 50.8232 2.0451 63.3213 8.69163 68.7757C14.5604 73.6521 26.3686 76 38 76C49.6314 76 61.4396 73.5798 67.3084 68.7757C73.9549 63.3213 75.5458 50.7148 75.8994 43.8878C76.5357 31.4981 74.2024 14.9905 67.5205 8.23574C56.7729 -2.74525 19.2271 -2.74525 8.47951 8.23574Z" fill="#001480"/>
<g clip-path="url(#clip1_1896_21031)">
<path d="M61.7242 45.6995C61.7242 46.3766 61.1976 46.9283 60.4954 46.9534H56.8341C55.505 46.9534 54.3012 45.9754 54.2009 44.6713C54.1257 43.8939 54.4266 43.1667 54.9282 42.6651C55.3796 42.1887 56.0065 41.9379 56.6836 41.9379H60.4703C61.1976 41.963 61.7242 42.5147 61.7242 43.1918V45.6995Z" fill="#2CB8B8"/>
<path d="M51.6905 45.7748C52.3426 48.107 54.6246 49.5866 57.0321 49.5866H59.2138C60.5931 49.5866 61.7216 50.7151 61.7216 52.0943V52.5708C61.7216 57.7619 57.4835 62 52.2924 62H23.5034C18.3123 62 14.0742 57.7619 14.0742 52.5708V35.6936C14.0742 32.6091 15.5538 29.8756 17.8359 28.1704C19.4157 26.9666 21.3718 26.2645 23.5034 26.2645H52.2924C57.4835 26.2645 61.7216 30.5026 61.7216 35.6936V36.797C61.7216 38.1763 60.5931 39.3048 59.2138 39.3048H56.6559C55.2516 39.3048 53.9726 39.8565 53.0447 40.8094C51.7909 42.0382 51.189 43.8689 51.6905 45.7748Z" fill="white"/>
<path d="M47.7033 22.8022L28.4438 22.7771C27.3404 22.7771 26.7636 21.423 27.5661 20.6456L31.6286 16.5579C35.0642 13.1474 40.6315 13.1474 44.0671 16.5579L48.4557 20.9966C48.4807 21.0217 48.5309 21.0468 48.556 21.0719C49.2331 21.749 48.6563 22.8022 47.7033 22.8022Z" fill="#18E3E2"/>
<path d="M39.7846 47.5714H36.9275C36.7302 47.5714 36.5703 47.7312 36.5703 47.9285V50.7856C36.5703 50.9829 36.7302 51.1428 36.9275 51.1428H39.7846C39.9818 51.1428 40.1417 50.9829 40.1417 50.7856V47.9285C40.1417 47.7312 39.9818 47.5714 39.7846 47.5714Z" fill="#001480"/>
<path d="M36.2148 44.7143H34.072C33.8747 44.7143 33.7148 44.8742 33.7148 45.0714V47.2143C33.7148 47.4115 33.8747 47.5714 34.072 47.5714H36.2148C36.4121 47.5714 36.572 47.4115 36.572 47.2143V45.0714C36.572 44.8742 36.4121 44.7143 36.2148 44.7143Z" fill="#001480"/>
<path d="M42.6445 51.1429H40.5017C40.3044 51.1429 40.1445 51.3028 40.1445 51.5001V53.6429C40.1445 53.8402 40.3044 54.0001 40.5017 54.0001H42.6445C42.8418 54.0001 43.0017 53.8402 43.0017 53.6429V51.5001C43.0017 51.3028 42.8418 51.1429 42.6445 51.1429Z" fill="#001480"/>
<path d="M42.6431 44.7143H41.2146C41.0173 44.7143 40.8574 44.8742 40.8574 45.0714V46.5C40.8574 46.6972 41.0173 46.8571 41.2146 46.8571H42.6431C42.8404 46.8571 43.0003 46.6972 43.0003 46.5V45.0714C43.0003 44.8742 42.8404 44.7143 42.6431 44.7143Z" fill="#001480"/>
<path d="M35.5006 51.857H34.072C33.8747 51.857 33.7148 52.0169 33.7148 52.2142V53.6427C33.7148 53.84 33.8747 53.9999 34.072 53.9999H35.5006C35.6978 53.9999 35.8577 53.84 35.8577 53.6427V52.2142C35.8577 52.0169 35.6978 51.857 35.5006 51.857Z" fill="#001480"/>
<path d="M41.572 34H35.1434C34.7645 34 34.4012 34.1505 34.1333 34.4184C33.8654 34.6863 33.7148 35.0497 33.7148 35.4286V41.8571C33.7148 42.236 33.8654 42.5994 34.1333 42.8673C34.4012 43.1352 34.7645 43.2857 35.1434 43.2857H41.572C41.9508 43.2857 42.3142 43.1352 42.5821 42.8673C42.85 42.5994 43.0005 42.236 43.0005 41.8571V35.4286C43.0005 35.0497 42.85 34.6863 42.5821 34.4184C42.3142 34.1505 41.9508 34 41.572 34ZM40.1434 40.0714C40.1434 40.1661 40.1058 40.257 40.0388 40.324C39.9718 40.3909 39.881 40.4286 39.7863 40.4286H36.9291C36.8344 40.4286 36.7436 40.3909 36.6766 40.324C36.6096 40.257 36.572 40.1661 36.572 40.0714V37.2143C36.572 37.1196 36.6096 37.0287 36.6766 36.9617C36.7436 36.8948 36.8344 36.8571 36.9291 36.8571H39.7863C39.881 36.8571 39.9718 36.8948 40.0388 36.9617C40.1058 37.0287 40.1434 37.1196 40.1434 37.2143V40.0714Z" fill="#001480"/>
<path d="M30.8571 34H24.4286C24.0497 34 23.6863 34.1505 23.4184 34.4184C23.1505 34.6863 23 35.0497 23 35.4286V41.8571C23 42.236 23.1505 42.5994 23.4184 42.8673C23.6863 43.1352 24.0497 43.2857 24.4286 43.2857H30.8571C31.236 43.2857 31.5994 43.1352 31.8673 42.8673C32.1352 42.5994 32.2857 42.236 32.2857 41.8571V35.4286C32.2857 35.0497 32.1352 34.6863 31.8673 34.4184C31.5994 34.1505 31.236 34 30.8571 34ZM29.4286 40.0714C29.4286 40.1661 29.3909 40.257 29.324 40.324C29.257 40.3909 29.1661 40.4286 29.0714 40.4286H26.2143C26.1196 40.4286 26.0287 40.3909 25.9617 40.324C25.8948 40.257 25.8571 40.1661 25.8571 40.0714V37.2143C25.8571 37.1196 25.8948 37.0287 25.9617 36.9617C26.0287 36.8948 26.1196 36.8571 26.2143 36.8571H29.0714C29.1661 36.8571 29.257 36.8948 29.324 36.9617C29.3909 37.0287 29.4286 37.1196 29.4286 37.2143V40.0714Z" fill="#001480"/>
<path d="M30.8571 44.7143H24.4286C24.0497 44.7143 23.6863 44.8648 23.4184 45.1327C23.1505 45.4006 23 45.764 23 46.1429V52.5714C23 52.9503 23.1505 53.3137 23.4184 53.5816C23.6863 53.8495 24.0497 54 24.4286 54H30.8571C31.236 54 31.5994 53.8495 31.8673 53.5816C32.1352 53.3137 32.2857 52.9503 32.2857 52.5714V46.1429C32.2857 45.764 32.1352 45.4006 31.8673 45.1327C31.5994 44.8648 31.236 44.7143 30.8571 44.7143ZM29.4286 50.7857C29.4286 50.8804 29.3909 50.9713 29.324 51.0382C29.257 51.1052 29.1661 51.1429 29.0714 51.1429H26.2143C26.1196 51.1429 26.0287 51.1052 25.9617 51.0382C25.8948 50.9713 25.8571 50.8804 25.8571 50.7857V47.9286C25.8571 47.8339 25.8948 47.743 25.9617 47.676C26.0287 47.6091 26.1196 47.5714 26.2143 47.5714H29.0714C29.1661 47.5714 29.257 47.6091 29.324 47.676C29.3909 47.743 29.4286 47.8339 29.4286 47.9286V50.7857Z" fill="#001480"/>
</g>
</g>
<defs>
<clipPath id="clip0_1896_21031">
<rect width="76" height="76" rx="20" fill="white"/>
</clipPath>
<clipPath id="clip1_1896_21031">
<rect width="48" height="48" fill="white" transform="translate(14 14)"/>
</clipPath>
</defs>
</svg>
