<svg width="28" height="28" viewBox="0 0 28 28" fill="none" xmlns="http://www.w3.org/2000/svg">
<g clip-path="url(#clip0_1896_21279)">
<path d="M19.1497 0H3.5C1.57033 0 0 1.57033 0 3.5V28H28V8.85033L19.1497 0ZM19.8333 3.983L24.017 8.16667H19.8333V3.983ZM25.6667 25.6667H2.33333V3.5C2.33333 2.85717 2.85717 2.33333 3.5 2.33333H17.5V10.5H25.6667V25.6667Z" fill="#273266"/>
<path d="M15.166 10.5C15.166 11.1444 14.6437 11.6667 13.9993 11.6667H5.83268C5.18835 11.6667 4.66602 11.1444 4.66602 10.5C4.66602 9.85569 5.18835 9.33335 5.83268 9.33335H13.9993C14.6437 9.33335 15.166 9.85569 15.166 10.5ZM15.166 5.83335C15.166 6.47769 14.6437 7.00002 13.9993 7.00002H5.83268C5.18835 7.00002 4.66602 6.47769 4.66602 5.83335C4.66602 5.18902 5.18835 4.66669 5.83268 4.66669H13.9993C14.6437 4.66669 15.166 5.18902 15.166 5.83335Z" fill="#273266"/>
<path d="M16.542 22.4682C16.542 22.6976 16.4527 22.9177 16.2937 23.0799C16.1348 23.2422 15.9192 23.3334 15.6944 23.3334H12.3043C12.0795 23.3334 11.8639 23.2422 11.705 23.0799C11.546 22.9177 11.4567 22.6976 11.4567 22.4682C11.4567 22.2387 11.546 22.0186 11.705 21.8564C11.8639 21.6941 12.0795 21.603 12.3043 21.603H15.6944C15.9192 21.603 16.1348 21.6941 16.2937 21.8564C16.4527 22.0186 16.542 22.2387 16.542 22.4682ZM16.2936 15.4308C16.1347 15.2686 15.9192 15.1775 15.6944 15.1775C15.4697 15.1775 15.2542 15.2686 15.0952 15.4308L13.9993 16.5495L12.9035 15.4308C12.8253 15.3482 12.7318 15.2823 12.6284 15.2369C12.525 15.1916 12.4138 15.1677 12.3012 15.1667C12.1887 15.1657 12.0771 15.1876 11.9729 15.2311C11.8688 15.2746 11.7741 15.3389 11.6946 15.4201C11.615 15.5013 11.552 15.5979 11.5094 15.7043C11.4668 15.8106 11.4454 15.9245 11.4464 16.0394C11.4473 16.1543 11.4707 16.2678 11.5151 16.3734C11.5595 16.4789 11.6241 16.5744 11.7051 16.6542L12.8009 17.7729L11.7051 18.8916C11.6241 18.9714 11.5595 19.0669 11.5151 19.1724C11.4707 19.278 11.4473 19.3915 11.4464 19.5064C11.4454 19.6213 11.4668 19.7352 11.5094 19.8415C11.552 19.9479 11.615 20.0445 11.6946 20.1257C11.7741 20.2069 11.8688 20.2712 11.9729 20.3147C12.0771 20.3582 12.1887 20.3801 12.3012 20.3791C12.4138 20.3781 12.525 20.3542 12.6284 20.3089C12.7318 20.2635 12.8253 20.1976 12.9035 20.115L13.9993 18.9963L15.0952 20.115C15.2551 20.2726 15.4692 20.3598 15.6914 20.3578C15.9136 20.3559 16.1262 20.2649 16.2833 20.1044C16.4404 19.944 16.5296 19.727 16.5315 19.5002C16.5334 19.2733 16.448 19.0548 16.2936 18.8916L15.1978 17.7729L16.2936 16.6542C16.4525 16.492 16.5418 16.2719 16.5418 16.0425C16.5418 15.8131 16.4525 15.5931 16.2936 15.4308ZM22.4747 21.603H19.0846C18.8598 21.603 18.6442 21.6941 18.4853 21.8564C18.3263 22.0186 18.237 22.2387 18.237 22.4682C18.237 22.6976 18.3263 22.9177 18.4853 23.0799C18.6442 23.2422 18.8598 23.3334 19.0846 23.3334H22.4747C22.6995 23.3334 22.9151 23.2422 23.074 23.0799C23.233 22.9177 23.3223 22.6976 23.3223 22.4682C23.3223 22.2387 23.233 22.0186 23.074 21.8564C22.9151 21.6941 22.6995 21.603 22.4747 21.603ZM21.9781 17.7729L23.0739 16.6542C23.1549 16.5744 23.2195 16.4789 23.2639 16.3734C23.3083 16.2678 23.3317 16.1543 23.3326 16.0394C23.3336 15.9245 23.3122 15.8106 23.2696 15.7043C23.227 15.5979 23.164 15.5013 23.0844 15.4201C23.0049 15.3389 22.9102 15.2746 22.8061 15.2311C22.7019 15.1876 22.5903 15.1657 22.4778 15.1667C22.3652 15.1677 22.254 15.1916 22.1506 15.2369C22.0472 15.2823 21.9537 15.3482 21.8755 15.4308L20.7797 16.5495L19.6838 15.4308C19.6056 15.3482 19.5121 15.2823 19.4087 15.2369C19.3053 15.1916 19.1941 15.1677 19.0815 15.1667C18.969 15.1657 18.8574 15.1876 18.7532 15.2311C18.6491 15.2746 18.5544 15.3389 18.4749 15.4201C18.3953 15.5013 18.3324 15.5979 18.2897 15.7043C18.2471 15.8106 18.2257 15.9245 18.2267 16.0394C18.2276 16.1543 18.251 16.2678 18.2954 16.3734C18.3399 16.4789 18.4044 16.5744 18.4854 16.6542L19.5812 17.7729L18.4854 18.8916C18.4044 18.9714 18.3399 19.0669 18.2954 19.1724C18.251 19.278 18.2276 19.3915 18.2267 19.5064C18.2257 19.6213 18.2471 19.7352 18.2897 19.8415C18.3324 19.9479 18.3953 20.0445 18.4749 20.1257C18.5544 20.2069 18.6491 20.2712 18.7532 20.3147C18.8574 20.3582 18.969 20.3801 19.0815 20.3791C19.1941 20.3781 19.3053 20.3542 19.4087 20.3089C19.5121 20.2635 19.6056 20.1976 19.6838 20.115L20.7797 18.9963L21.8755 20.115C22.0354 20.2726 22.2495 20.3598 22.4717 20.3578C22.6939 20.3559 22.9065 20.2649 23.0636 20.1044C23.2208 19.944 23.3099 19.727 23.3118 19.5002C23.3138 19.2733 23.2283 19.0548 23.0739 18.8916L21.9781 17.7729ZM8.91412 21.603H5.52397C5.29919 21.603 5.08361 21.6941 4.92467 21.8564C4.76572 22.0186 4.67643 22.2387 4.67643 22.4682C4.67643 22.6976 4.76572 22.9177 4.92467 23.0799C5.08361 23.2422 5.29919 23.3334 5.52397 23.3334H8.91412C9.1389 23.3334 9.35448 23.2422 9.51342 23.0799C9.67236 22.9177 9.76166 22.6976 9.76166 22.4682C9.76166 22.2387 9.67236 22.0186 9.51342 21.8564C9.35448 21.6941 9.1389 21.603 8.91412 21.603ZM9.51333 15.4308C9.35439 15.2686 9.13886 15.1775 8.91412 15.1775C8.68938 15.1775 8.47385 15.2686 8.31491 15.4308L7.21904 16.5495L6.12318 15.4308C6.045 15.3482 5.95147 15.2823 5.84807 15.2369C5.74467 15.1916 5.63345 15.1677 5.52092 15.1667C5.40838 15.1657 5.29678 15.1876 5.19262 15.2311C5.08846 15.2746 4.99383 15.3389 4.91425 15.4201C4.83468 15.5013 4.77174 15.5979 4.72913 15.7043C4.68651 15.8106 4.66507 15.9245 4.66605 16.0394C4.66703 16.1543 4.69041 16.2678 4.73482 16.3734C4.77924 16.4789 4.84381 16.5744 4.92476 16.6542L6.02063 17.7729L4.92476 18.8916C4.84381 18.9714 4.77924 19.0669 4.73482 19.1724C4.69041 19.278 4.66703 19.3915 4.66605 19.5064C4.66507 19.6213 4.68651 19.7352 4.72913 19.8415C4.77174 19.9479 4.83468 20.0445 4.91425 20.1257C4.99383 20.2069 5.08846 20.2712 5.19262 20.3147C5.29678 20.3582 5.40838 20.3801 5.52092 20.3791C5.63345 20.3781 5.74467 20.3542 5.84807 20.3089C5.95147 20.2635 6.045 20.1976 6.12318 20.115L7.21904 18.9963L8.31491 20.115C8.39309 20.1976 8.48661 20.2635 8.59002 20.3089C8.69342 20.3542 8.80464 20.3781 8.91717 20.3791C9.02971 20.3801 9.14131 20.3582 9.24547 20.3147C9.34963 20.2712 9.44426 20.2069 9.52383 20.1257C9.60341 20.0445 9.66635 19.9479 9.70896 19.8415C9.75157 19.7352 9.77302 19.6213 9.77204 19.5064C9.77106 19.3915 9.74768 19.278 9.70326 19.1724C9.65885 19.0669 9.59428 18.9714 9.51333 18.8916L8.41746 17.7729L9.51333 16.6542C9.67222 16.492 9.76148 16.2719 9.76148 16.0425C9.76148 15.8131 9.67222 15.5931 9.51333 15.4308Z" fill="#273266"/>
</g>
<defs>
<clipPath id="clip0_1896_21279">
<rect width="28" height="28" fill="white"/>
</clipPath>
</defs>
</svg>
