<svg width="28" height="28" viewBox="0 0 28 28" fill="none" xmlns="http://www.w3.org/2000/svg">
<g clip-path="url(#clip0_1896_21206)">
<path d="M16.817 0H5.83398C3.90432 0 2.33398 1.57033 2.33398 3.5V28H25.6673V8.85033L16.817 0ZM17.5007 3.983L21.6843 8.16667H17.5007V3.983ZM23.334 25.6667H4.66732V3.5C4.66732 2.85717 5.19115 2.33333 5.83398 2.33333H15.1673V10.5H23.334V25.6667ZM7.00065 23.3333H21.0007V15.1667H7.00065V23.3333ZM9.33398 17.5H18.6673V21H9.33398V17.5ZM12.834 12.8333H7.00065V10.5H12.834V12.8333ZM12.834 8.16667H7.00065V5.83333H12.834V8.16667Z" fill="#273266"/>
</g>
<defs>
<clipPath id="clip0_1896_21206">
<rect width="28" height="28" fill="white"/>
</clipPath>
</defs>
</svg>
