<svg width="76" height="76" viewBox="0 0 76 76" fill="none" xmlns="http://www.w3.org/2000/svg">
<g clip-path="url(#clip0_1896_21064)">
<path d="M8.47951 8.23574C1.79763 15.0627 -0.535732 31.4981 0.100638 43.8878C0.454177 50.8232 2.0451 63.3213 8.69163 68.7757C14.5604 73.6521 26.3686 76 38 76C49.6314 76 61.4396 73.5798 67.3084 68.7757C73.9549 63.3213 75.5458 50.7148 75.8994 43.8878C76.5357 31.4981 74.2024 14.9905 67.5205 8.23574C56.7729 -2.74525 19.2271 -2.74525 8.47951 8.23574Z" fill="#9A169C"/>
<path d="M18.4375 27.2664V35.6753L46.7346 27.0602V18.3534C46.7346 15.8559 44.6724 14 42.3812 14C41.8771 14 41.3501 14.0917 40.846 14.275L22.6534 21.1487C20.1101 22.1111 18.4375 24.5398 18.4375 27.2664Z" fill="#650049"/>
<rect x="16.4863" y="45" width="16" height="16" rx="8" fill="white"/>
<rect x="28.4863" y="32" width="21" height="9" rx="4.5" fill="#9A169C"/>
<path fill-rule="evenodd" clip-rule="evenodd" d="M59.6802 38.9729C60.9403 38.9729 61.9714 37.9418 61.9714 36.6816V35.6735C61.9714 30.9306 58.0992 27.0583 53.3563 27.0583H27.0526C25.1051 27.0583 23.3179 27.6999 21.8744 28.7997C19.7893 30.3578 18.4375 32.8552 18.4375 35.6735V39.7519C18.4375 40.6226 19.354 41.1725 20.1789 40.8976C21.462 40.4622 22.8138 40.2331 24.1656 40.2331C31.1082 40.2331 36.7676 45.8925 36.7676 52.835C36.7676 54.4847 36.3322 56.2948 35.6449 57.8987C35.2783 58.7236 35.8511 59.7088 36.7447 59.7088H53.3563C58.0992 59.7088 61.9714 55.8366 61.9714 51.0937V50.6583C61.9714 49.3981 60.9403 48.3671 59.6802 48.3671H57.6868C55.4872 48.3671 53.3792 47.0152 52.8064 44.8843C52.3481 43.143 52.898 41.4475 54.0437 40.3477C54.8914 39.477 56.06 38.9729 57.3431 38.9729H59.6802ZM33.3307 38.5146C32.3913 38.5146 31.6122 37.7356 31.6122 36.7962C31.6122 35.8568 32.3913 35.0778 33.3307 35.0778H44.787C45.7264 35.0778 46.5054 35.8568 46.5054 36.7962C46.5054 37.7356 45.7264 38.5146 44.787 38.5146H33.3307Z" fill="white"/>
<path fill-rule="evenodd" clip-rule="evenodd" d="M18.4369 45.6863C16.3289 47.3589 15 49.948 15 52.835C15 54.5534 15.4812 56.1802 16.3289 57.555C17.9099 60.2128 20.8198 62 24.165 62C26.4792 62 28.5872 61.1523 30.191 59.7088C30.9013 59.113 31.52 58.3798 32.0011 57.555C32.8489 56.1802 33.3301 54.5534 33.3301 52.835C33.3301 47.7713 29.2287 43.67 24.165 43.67C22.0113 43.67 20.0179 44.4261 18.4369 45.6863ZM24.0276 56.3635C23.7068 56.6614 23.2714 56.8218 22.859 56.8218C22.4237 56.8218 21.9883 56.6614 21.6447 56.3177L19.3763 54.0494C18.7118 53.3849 18.7118 52.2851 19.3763 51.6206C20.0408 50.9562 21.1406 50.9562 21.805 51.6206L22.9048 52.7204L26.5709 49.3294C27.2582 48.6878 28.358 48.7336 28.9996 49.421C29.6411 50.1084 29.5953 51.2082 28.9079 51.8497L24.0276 56.3635Z" fill="#FA9454"/>
<path d="M46.7345 27.0602H43.2977V18.3534C43.2977 17.7348 42.7478 17.4369 42.3812 17.4369C42.2666 17.4369 42.152 17.4598 42.0375 17.5056L23.8678 24.3565C22.6534 24.8147 21.8744 25.9604 21.8744 27.2664V28.8015C19.7893 30.3596 18.4375 32.8571 18.4375 35.6753V27.2664C18.4375 24.5398 20.1101 22.1111 22.6534 21.1487L40.846 14.275C41.3501 14.0917 41.8771 14 42.3812 14C44.6724 14 46.7345 15.8559 46.7345 18.3534V27.0602Z" fill="#FFF5EB"/>
<path d="M61.9721 44.8156C61.9721 45.4343 61.491 45.9383 60.8494 45.9612H57.5042C56.2898 45.9612 55.19 45.0677 55.0984 43.8762C55.0296 43.1659 55.3046 42.5014 55.7628 42.0432C56.1753 41.6078 56.7481 41.3787 57.3667 41.3787H60.8265C61.491 41.4016 61.9721 41.9057 61.9721 42.5244V44.8156Z" fill="white"/>
</g>
<defs>
<clipPath id="clip0_1896_21064">
<rect width="76" height="76" rx="20" fill="white"/>
</clipPath>
</defs>
</svg>
