<svg width="76" height="76" viewBox="0 0 76 76" fill="none" xmlns="http://www.w3.org/2000/svg">
<g clip-path="url(#clip0_1896_21048)">
<path d="M8.47951 8.23574C1.79763 15.0627 -0.535732 31.4981 0.100638 43.8878C0.454177 50.8232 2.0451 63.3213 8.69163 68.7757C14.5604 73.6521 26.3686 76 38 76C49.6314 76 61.4396 73.5798 67.3084 68.7757C73.9549 63.3213 75.5458 50.7148 75.8994 43.8878C76.5357 31.4981 74.2024 14.9905 67.5205 8.23574C56.7729 -2.74525 19.2271 -2.74525 8.47951 8.23574Z" fill="#FFDA17"/>
<path fill-rule="evenodd" clip-rule="evenodd" d="M46.5803 17.6345C44.1111 15.1618 40.7062 13.8343 37.2233 14.0165L24.2274 14.6412C19.029 14.8755 14.8963 19.014 14.6364 24.1937L14.0126 37.2079C13.8566 40.6957 15.1562 44.1054 17.6254 46.5781L29.3997 58.369C34.2342 63.2103 42.0838 63.2103 46.9442 58.369L58.3546 46.9425C63.2151 42.1273 63.2151 34.2667 58.3546 29.4254L46.5803 17.6345ZM20.8487 25.5073C20.8487 22.9265 22.9366 20.8326 25.5102 20.8326C28.0837 20.8326 30.1716 22.9265 30.1716 25.5073C30.1716 28.088 28.0837 30.1819 25.5102 30.1819C22.9366 30.1819 20.8487 28.088 20.8487 25.5073Z" fill="black"/>
<path d="M47.8233 38.1943L45.7963 40.2213C45.6564 40.3612 45.6564 40.5881 45.7963 40.728L47.8233 42.755C47.9632 42.895 48.1901 42.895 48.3301 42.755L50.357 40.728C50.497 40.5881 50.497 40.3612 50.357 40.2213L48.3301 38.1943C48.1901 38.0544 47.9632 38.0544 47.8233 38.1943Z" fill="white"/>
<path d="M43.2638 38.7009L41.7436 40.2211C41.6037 40.361 41.6037 40.5879 41.7436 40.7279L43.2638 42.2481C43.4038 42.388 43.6306 42.388 43.7706 42.2481L45.2908 40.7279C45.4307 40.5879 45.4307 40.361 45.2908 40.2211L43.7706 38.7009C43.6306 38.561 43.4038 38.561 43.2638 38.7009Z" fill="white"/>
<path d="M52.3849 38.7016L50.8647 40.2218C50.7248 40.3618 50.7248 40.5887 50.8647 40.7286L52.3849 42.2488C52.5249 42.3888 52.7517 42.3888 52.8917 42.2488L54.4119 40.7286C54.5518 40.5887 54.5518 40.3618 54.4119 40.2218L52.8917 38.7016C52.7517 38.5617 52.5249 38.5617 52.3849 38.7016Z" fill="white"/>
<path d="M47.8215 34.1419L46.8081 35.1554C46.6681 35.2953 46.6681 35.5222 46.8081 35.6621L47.8215 36.6756C47.9615 36.8155 48.1884 36.8155 48.3283 36.6756L49.3418 35.6621C49.4817 35.5222 49.4817 35.2953 49.3418 35.1554L48.3283 34.1419C48.1884 34.002 47.9615 34.002 47.8215 34.1419Z" fill="white"/>
<path d="M47.8235 44.275L46.81 45.2885C46.6701 45.4285 46.6701 45.6553 46.81 45.7953L47.8235 46.8088C47.9634 46.9487 48.1903 46.9487 48.3302 46.8088L49.3437 45.7953C49.4837 45.6553 49.4837 45.4285 49.3437 45.2885L48.3302 44.275C48.1903 44.1351 47.9634 44.1351 47.8235 44.275Z" fill="white"/>
<path d="M39.4629 27.2991L34.9022 31.8598C34.6334 32.1286 34.4824 32.4932 34.4824 32.8733C34.4824 33.2535 34.6334 33.618 34.9022 33.8868L39.4629 38.4475C39.7316 38.7163 40.0962 38.8673 40.4763 38.8673C40.8565 38.8673 41.221 38.7163 41.4898 38.4475L46.0505 33.8868C46.3193 33.618 46.4703 33.2535 46.4703 32.8733C46.4703 32.4932 46.3193 32.1286 46.0505 31.8598L41.4898 27.2991C41.221 27.0303 40.8565 26.8793 40.4763 26.8793C40.0962 26.8793 39.7316 27.0303 39.4629 27.2991ZM42.7567 32.6199C42.8239 32.6871 42.8616 32.7783 42.8616 32.8733C42.8616 32.9684 42.8239 33.0595 42.7567 33.1267L40.7297 35.1537C40.6625 35.2209 40.5714 35.2586 40.4763 35.2586C40.3813 35.2586 40.2902 35.2209 40.223 35.1537L38.196 33.1267C38.1288 33.0595 38.091 32.9684 38.091 32.8733C38.091 32.7783 38.1288 32.6871 38.196 32.6199L40.223 30.593C40.2902 30.5258 40.3813 30.488 40.4763 30.488C40.5714 30.488 40.6625 30.5258 40.7297 30.593L42.7567 32.6199Z" fill="white"/>
<path d="M31.8613 34.9006L27.3006 39.4613C27.0318 39.7301 26.8808 40.0947 26.8808 40.4748C26.8808 40.8549 27.0318 41.2195 27.3006 41.4883L31.8613 46.049C32.1301 46.3178 32.4946 46.4688 32.8748 46.4688C33.2549 46.4688 33.6195 46.3178 33.8883 46.049L38.449 41.4883C38.7177 41.2195 38.8688 40.8549 38.8688 40.4748C38.8688 40.0947 38.7177 39.7301 38.449 39.4613L33.8883 34.9006C33.6195 34.6318 33.2549 34.4808 32.8748 34.4808C32.4946 34.4808 32.1301 34.6318 31.8613 34.9006ZM35.1551 40.2214C35.2223 40.2886 35.2601 40.3798 35.2601 40.4748C35.2601 40.5698 35.2223 40.661 35.1551 40.7282L33.1281 42.7551C33.0609 42.8223 32.9698 42.8601 32.8748 42.8601C32.7797 42.8601 32.6886 42.8223 32.6214 42.7551L30.5944 40.7282C30.5272 40.661 30.4895 40.5698 30.4895 40.4748C30.4895 40.3798 30.5272 40.2886 30.5944 40.2214L32.6214 38.1944C32.6886 38.1272 32.7797 38.0895 32.8748 38.0895C32.9698 38.0895 33.0609 38.1272 33.1281 38.1944L35.1551 40.2214Z" fill="white"/>
<path d="M39.4629 42.5017L34.9022 47.0624C34.6334 47.3312 34.4824 47.6958 34.4824 48.0759C34.4824 48.4561 34.6334 48.8206 34.9022 49.0894L39.4629 53.6501C39.7316 53.9189 40.0962 54.0699 40.4763 54.0699C40.8565 54.0699 41.221 53.9189 41.4898 53.6501L46.0505 49.0894C46.3193 48.8206 46.4703 48.4561 46.4703 48.0759C46.4703 47.6958 46.3193 47.3312 46.0505 47.0624L41.4898 42.5017C41.221 42.233 40.8565 42.0819 40.4763 42.0819C40.0962 42.0819 39.7316 42.233 39.4629 42.5017ZM42.7567 47.8226C42.8239 47.8898 42.8616 47.9809 42.8616 48.0759C42.8616 48.171 42.8239 48.2621 42.7567 48.3293L40.7297 50.3563C40.6625 50.4235 40.5714 50.4612 40.4763 50.4612C40.3813 50.4612 40.2902 50.4235 40.223 50.3563L38.196 48.3293C38.1288 48.2621 38.091 48.171 38.091 48.0759C38.091 47.9809 38.1288 47.8898 38.196 47.8226L40.223 45.7956C40.2902 45.7284 40.3813 45.6906 40.4763 45.6906C40.5714 45.6906 40.6625 45.7284 40.7297 45.7956L42.7567 47.8226Z" fill="white"/>
</g>
<defs>
<clipPath id="clip0_1896_21048">
<rect width="76" height="76" rx="20" fill="white"/>
</clipPath>
</defs>
</svg>
