<svg width="28" height="28" viewBox="0 0 28 28" fill="none" xmlns="http://www.w3.org/2000/svg">
<g clip-path="url(#clip0_1896_21312)">
<path d="M13.646 13.671L11.4737 15.7768C11.1027 16.1478 10.6103 16.3345 10.1168 16.3345C9.61865 16.3345 9.11815 16.1443 8.73665 15.764L7.94215 15.001C7.47782 14.5542 7.46265 13.8157 7.90948 13.3513C8.35632 12.887 9.09598 12.873 9.55915 13.3187L10.111 13.8495L12.022 11.9968C12.484 11.55 13.2225 11.5593 13.6717 12.0225C14.1197 12.4845 14.1092 13.2218 13.646 13.671ZM18.6673 19.8333H15.1673C14.5233 19.8333 14.0007 20.356 14.0007 21C14.0007 21.644 14.5233 22.1667 15.1673 22.1667H18.6673C19.3113 22.1667 19.834 21.644 19.834 21C19.834 20.356 19.3113 19.8333 18.6673 19.8333ZM18.6673 5.83333H15.1673C14.5233 5.83333 14.0007 6.356 14.0007 7C14.0007 7.644 14.5233 8.16667 15.1673 8.16667H18.6673C19.3113 8.16667 19.834 7.644 19.834 7C19.834 6.356 19.3113 5.83333 18.6673 5.83333ZM18.6673 12.8333H16.334C15.69 12.8333 15.1673 13.356 15.1673 14C15.1673 14.644 15.69 15.1667 16.334 15.1667H18.6673C19.3113 15.1667 19.834 14.644 19.834 14C19.834 13.356 19.3113 12.8333 18.6673 12.8333ZM9.91732 19.25C8.95132 19.25 8.16732 20.034 8.16732 21C8.16732 21.966 8.95132 22.75 9.91732 22.75C10.8833 22.75 11.6673 21.966 11.6673 21C11.6673 20.034 10.8833 19.25 9.91732 19.25ZM9.91732 8.75C10.8833 8.75 11.6673 7.966 11.6673 7C11.6673 6.034 10.8833 5.25 9.91732 5.25C8.95132 5.25 8.16732 6.034 8.16732 7C8.16732 7.966 8.95132 8.75 9.91732 8.75ZM25.6673 5.83333V22.1667C25.6673 25.3832 23.0505 28 19.834 28H8.16732C4.95082 28 2.33398 25.3832 2.33398 22.1667V5.83333C2.33398 2.61683 4.95082 0 8.16732 0H19.834C23.0505 0 25.6673 2.61683 25.6673 5.83333ZM23.334 5.83333C23.334 3.90367 21.7637 2.33333 19.834 2.33333H8.16732C6.23765 2.33333 4.66732 3.90367 4.66732 5.83333V22.1667C4.66732 24.0963 6.23765 25.6667 8.16732 25.6667H19.834C21.7637 25.6667 23.334 24.0963 23.334 22.1667V5.83333Z" fill="#273266"/>
</g>
<defs>
<clipPath id="clip0_1896_21312">
<rect width="28" height="28" fill="white"/>
</clipPath>
</defs>
</svg>
