<svg width="150" height="46" fill="none" xmlns="http://www.w3.org/2000/svg"><path d="M35.35 28.273h4.1c2.38 0 3.444.174 4.355.768 1.115.694 1.722 1.881 1.722 3.417 0 2.08-1.266 3.565-3.518 4.158 2.632.322 4.152 1.883 4.152 4.284 0 1.857-.938 3.442-2.533 4.21-1.013.493-1.974.643-4.303.643H35.35v-17.48Zm4 7.7c2.507 0 3.772-1.09 3.772-3.268 0-2.203-1.089-3.046-3.924-3.046h-1.62v6.314h1.772Zm0 8.393c1.747 0 2.532-.172 3.265-.743.709-.57 1.14-1.584 1.14-2.796 0-2.403-1.216-3.443-4.1-3.443h-2.077v6.982h1.772ZM59.272 45.282c-2.201.496-3.467.694-4.378.694-3.823 0-5.9-2.155-5.9-6.14 0-4.308 2.178-6.883 5.772-6.883 2.506 0 4.151 1.164 4.76 3.416.228.768.303 1.511.33 3.096h-8.532a.564.564 0 0 1 .024.173v.445c.052 2.97 1.47 4.283 4.635 4.283.858 0 1.796-.074 3.29-.271v1.187Zm-1.797-7.079c0-2.824-.835-3.939-2.91-3.939-2.077 0-3.217 1.387-3.24 3.939h6.15ZM65.526 33.176v.94c1.847-.793 2.785-1.114 3.29-1.114.533 0 .963.1 1.368.321v2.006c-.683-.346-1.544-.52-2.582-.52-.583 0-1.366.1-2.024.248v10.695h-2.152V33.176h2.1ZM72.813 26.59h2.153v19.163h-2.153V26.589Zm2.43 12.18 5.444-5.594h2.58l-5.619 5.349 5.619 7.228h-2.809l-5.215-6.982ZM94.74 45.282c-2.204.496-3.47.694-4.38.694-3.824 0-5.9-2.155-5.9-6.14 0-4.308 2.177-6.883 5.772-6.883 2.507 0 4.153 1.164 4.76 3.416.227.768.303 1.511.329 3.096H86.79a.547.547 0 0 1 .024.173v.445c.05 2.97 1.468 4.283 4.633 4.283.861 0 1.797-.074 3.293-.271v1.187Zm-1.799-7.079c0-2.824-.836-3.939-2.912-3.939s-3.214 1.387-3.24 3.939h6.152ZM98.889 26.59h2.152v19.163h-2.152V26.589ZM105.396 26.59h2.152v19.163h-2.152V26.589ZM118.612 45.753v-.767c-.103.024-.179.05-.229.073-2.607.867-2.633.867-3.443.867-2.304 0-3.823-1.41-3.823-3.54s1.266-3.343 3.747-3.59c1.215-.123 1.797-.149 3.67-.149v-1.759c0-1.656-.683-2.302-2.43-2.302-1.064 0-2.356.15-3.848.397v-1.237c2.481-.593 3.622-.793 4.608-.793 1.315 0 2.355.347 2.988 1.014.631.67.835 1.412.835 3.269v8.517h-2.075Zm-.077-5.942c-1.747.075-1.924.075-2.759.199-1.595.198-2.355.916-2.355 2.203 0 1.41.937 2.128 2.759 2.128.759 0 1.47-.073 2.355-.272v-4.258ZM124.988 33.176h2.101v.79c2.38-.864 3.165-1.064 4.228-1.064 1.24 0 2.454.496 3.088 1.239.634.769.886 1.734.886 3.565v8.047h-2.151v-7.601c0-2.773-.71-3.615-3.014-3.615-.911 0-1.898.124-2.985.396v10.82h-2.153V33.176ZM147.85 45.753v-.743c-.101.025-.176.05-.228.074-2.024.719-2.785.916-3.544.916-3.215 0-5.342-2.476-5.342-6.19 0-3.862 2.683-6.783 6.228-6.783.988 0 1.95.2 2.886.618v-7.056h2.152v19.164h-2.152Zm0-10.993a10.097 10.097 0 0 0-2.177-.247c-2.912 0-4.583 1.856-4.583 5.1 0 3.02 1.545 4.753 4.203 4.753.912 0 1.771-.099 2.557-.297V34.76Z" fill="#004A93"/><path d="m13.997 40.41-2.2.363-2.352-1.11-2.491.36L0 37.16l6.284-.787 7.713 4.036ZM15.763 31.986l-2.478.546-2.755-2.517-3.38.45-4.713-3.693 7.713-1.523 5.613 6.737ZM12.832 21.523l3.433-.877 2.07 2.403 1.981-.697-4.661-7.585-8.382 1.87 5.56 4.886ZM20.716 14.903l4.18-1.17 1.645 3.045 2.572-.576-4.61-9.774-8.212 2.112 4.425 6.363ZM29.696 9.343l4.715-.837.837 2.122 2.632-.273-2.586-9.101-7.778 1.372 2.18 6.717ZM39.028 7.347l4.18.008.092 1.243 3.316.303L46.28 0l-7.453.202.2 7.145ZM49.374 2.646l-.11 4.049 1.494.372.02 1.334 4.068 1.524 1.822-8.087-7.294.808ZM58.555 8.592l7.14-.377-4.412 6.573-4.011-3.359 1.283-2.837ZM63.184 17.395l2.72 3.38 5.791-4.727-6.858-1.35-1.653 2.697Z" fill="#E68000"/></svg>