<svg width="60" height="72" fill="none" xmlns="http://www.w3.org/2000/svg"><g clip-path="url(#a)"><path d="M7.97 72 3.47 69.405c9.077-15.794 20.073-13.051 28.93-10.9 7.232 1.78 12.989 3.188 18.375-3.04l3.911 3.41c-7.453 8.602-15.94 6.526-23.468 4.672-4.28-1.038-8.414-2.076-12.178-1.26C14.76 63.176 11.217 66.29 7.97 72Z" fill="#84BD00"/><path d="m7.528 58.505-3.985-3.263c8.265-10.233 19.336-8.527 29.004-7.044 7.527 1.111 13.948 2.15 18.671-1.78l3.321 4.004c-6.494 5.339-14.76 4.152-22.73 2.892-9.152-1.408-17.86-2.67-24.28 5.191Z" fill="#84BD00"/><path d="M56.826 40.04h-2.508l-.444 1.262h-1.55l2.362-6.23h1.697l2.362 6.23h-1.55l-.369-1.261Zm-.517-1.334-.737-2.076-.738 2.076h1.475Zm-4.058-2.224h-1.919v4.82h-1.476v-4.82H47.01v-1.41h5.24v1.41Zm-5.314 3.485v1.41h-4.501v-6.23h1.476v4.82h3.025Zm-6.052 0v1.41h-4.723v-6.23h4.65v1.41h-3.174v1.038h3.026v1.334h-3.026v1.112h3.247v-.074Zm-6.2-1.706c.075 1.706-1.254 3.04-2.951 3.114h-2.805v-6.228h2.51c1.696-.148 3.099 1.111 3.247 2.817v.297Zm-1.549 0c.074-.89-.59-1.631-1.476-1.705h-1.255v3.486h1.033a1.661 1.661 0 0 0 1.209-.491 1.677 1.677 0 0 0 .488-1.214l.001-.076ZM22.14 40.634l.664-1.186a3.833 3.833 0 0 0 2.14.667c.516 0 .886-.222.886-.593 0-.37-.369-.445-1.033-.593-1.846-.445-2.51-.741-2.51-1.854 0-1.705 1.477-2.077 2.658-2.077.812 0 1.624.223 2.287.668l-.664 1.187c-.516-.371-1.107-.52-1.771-.52-.665 0-.96.223-.96.594 0 .37.296.445 1.107.593.812.148 2.436.519 2.436 1.928 0 1.26-1.107 2.002-2.583 2.002-.96 0-1.846-.296-2.657-.816Zm-1.476.742h-1.476v-4.3l-1.255 3.633h-1.624l-1.255-3.633v4.3h-1.476v-6.229h2.14l1.328 4.079 1.328-4.079h2.14v6.23h.15Zm-8.56-1.409v1.41H7.38v-6.23h4.65v1.41H8.856v1.038h3.026v1.334H8.856v1.112h3.248v-.074Zm-6.348 0v1.41H1.033v-6.23h4.65v1.41H2.509v1.038h3.026v1.334H2.509v1.112h3.247v-.074Zm41.992-7.044v.667h-3.026v-4.152h2.952v.668H45.46v1.038h2.14v.668h-2.14v1.038l2.288.073Zm-4.058-2.818h-1.328v3.485h-.738v-3.485h-1.328v-.668h3.395l-.001.668Zm-4.428-.668v4.153h-.665l-2.067-2.818v2.818h-.738v-4.153h.665l2.067 2.818v-2.818h.737Zm-4.724 3.486v.667h-3.026v-4.152h2.952v.668H32.25v1.038h2.14v.668h-2.14v1.038l2.288.073Zm-4.28 0v.667h-3.026v-4.152h2.952v.668H27.97v1.038h2.14v.668h-2.14v1.038l2.288.073Zm-4.428.667h-.738v-3.188l-1.106 2.743h-.812l-1.107-2.743v3.188h-.738v-4.152h1.107l1.18 2.892 1.181-2.892h1.107l-.074 4.152Zm-5.756-.667v.667h-3.026v-4.152H20v.668h-2.215v1.038h2.14v.668h-2.14v1.038l2.289.073Zm-6.274.741c-1.107.075-2.067-.816-2.14-2.002v-.148c0-1.186.886-2.15 2.067-2.15h.074c.664-.075 1.255.222 1.624.74l-.59.52c-.296-.297-.665-.52-1.107-.52-.738 0-1.403.594-1.403 1.335v.075c-.074.741.517 1.409 1.255 1.483h.148c.59 0 1.18-.445 1.255-1.038h-1.181v-.668h1.992v.297c.148 1.039-.59 1.928-1.623 2.077l-.37-.001Z" fill="#E03C31"/><path d="M48.781 24.84c-7.306-7.86-13.58-5.784-20.811-3.337-6.938 2.299-14.76 4.968-22.583-2.965l3.69-3.634c5.534 5.636 10.7 3.93 17.269 1.705 7.38-2.52 16.604-5.561 26.199 4.745L48.78 24.84Z" fill="#004680"/><path d="M56.384 14.756c-7.085-6.6-14.54-5.043-23.173-3.188C22.878 13.718 11.217 16.239 0 3.41L3.911 0c9.226 10.53 18.45 8.527 28.266 6.451C41.403 4.524 50.923 2.447 60 10.974l-3.616 3.782Z" fill="#004680"/></g><defs><clipPath id="a"><path fill="#fff" d="M0 0h60v72H0z"/></clipPath></defs></svg>