<svg width="150" height="68" fill="none" xmlns="http://www.w3.org/2000/svg"><path d="m51.732 54.798.226 1.129.301-1.08 1.657-5.401h.602l1.632 5.4.276 1.105.276-1.153 1.38-5.352h.653l-1.958 7.32h-.627l-1.732-5.736-.201-.72-.2.72-1.783 5.737h-.602l-1.958-7.321h.652l1.406 5.352ZM63.328 51.726c-.477 0-.879.168-1.205.504-.326.336-.527.768-.603 1.344h3.414v-.072c-.025-.528-.176-.96-.477-1.272-.25-.336-.652-.504-1.13-.504Zm.125 5.16c-.477 0-.929-.12-1.305-.335a2.265 2.265 0 0 1-.904-.96c-.226-.408-.326-.864-.326-1.369v-.216c0-.528.1-1.008.326-1.416.201-.432.502-.744.879-.984.376-.24.803-.36 1.23-.36.702 0 1.23.216 1.656.672.402.456.603 1.08.603 1.848v.336h-4.066v.12c0 .624.175 1.129.552 1.537.376.408.828.624 1.405.624.327 0 .628-.048.904-.168.25-.12.502-.312.703-.576l.401.288c-.502.624-1.18.96-2.058.96ZM70.858 51.822c-.125-.024-.276-.024-.427-.024-.401 0-.727.096-1.004.312a1.59 1.59 0 0 0-.577.912v3.745h-.627v-5.449h.627v.864c.327-.648.879-.96 1.607-.96.175 0 .326.024.426.072l-.025.528ZM74.623 54.03l-.728.672v2.065h-.627v-7.73h.627v4.945l.603-.6 2.183-2.064h.778l-2.41 2.304 2.636 3.145h-.753l-2.309-2.737ZM80.797 49.038h-.627v7.753h.627v-7.753ZM85.869 51.726c-.477 0-.879.168-1.205.504-.326.336-.527.768-.603 1.344h3.414v-.072c-.025-.528-.176-.96-.477-1.272-.25-.336-.653-.504-1.13-.504Zm.125 5.16c-.477 0-.929-.12-1.305-.335a2.265 2.265 0 0 1-.904-.96c-.226-.408-.326-.864-.326-1.369v-.216c0-.528.1-1.008.326-1.416.201-.432.502-.744.879-.984.376-.24.803-.36 1.23-.36.703 0 1.23.216 1.656.672.402.456.603 1.08.603 1.848v.336H84.06v.12c0 .624.176 1.129.553 1.537.376.408.828.624 1.405.624.326 0 .628-.048.904-.168.25-.12.502-.312.703-.576l.401.288c-.477.624-1.154.96-2.033.96ZM92.847 51.726c-.477 0-.878.168-1.205.504-.326.336-.527.768-.602 1.344h3.414v-.072c-.025-.528-.176-.96-.477-1.272-.251-.336-.653-.504-1.13-.504Zm.126 5.16c-.477 0-.93-.12-1.306-.335a2.265 2.265 0 0 1-.903-.96c-.226-.408-.326-.864-.326-1.369v-.216c0-.528.1-1.008.326-1.416.2-.432.502-.744.878-.984.377-.24.803-.36 1.23-.36.703 0 1.23.216 1.657.672.401.456.602 1.08.602 1.848v.336h-4.066v.12c0 .624.176 1.129.552 1.537.377.408.828.624 1.406.624.326 0 .627-.048.904-.168.25-.12.501-.312.702-.576l.402.288c-.502.624-1.18.96-2.058.96ZM100.376 51.822c-.126-.024-.276-.024-.427-.024-.401 0-.728.096-1.004.312a1.59 1.59 0 0 0-.577.912v3.745h-.628v-5.449h.628v.864c.326-.648.878-.96 1.606-.96.176 0 .326.024.427.072l-.025.528ZM106.728 54.007c0-.72-.151-1.273-.427-1.657-.301-.384-.703-.576-1.23-.576-.402 0-.753.096-1.029.288a1.6 1.6 0 0 0-.628.84v2.449c.327.696.879 1.032 1.682 1.032.527 0 .929-.192 1.23-.6.276-.408.402-1.008.402-1.776Zm.652.096c0 .84-.201 1.536-.602 2.016-.402.504-.929.744-1.582.744-.803 0-1.405-.288-1.807-.84l-.025.744h-.602v-7.753h.627v3.072c.402-.6 1.004-.888 1.782-.888.678 0 1.205.24 1.607.744.401.504.577 1.176.577 2.065v.096h.025ZM112.249 51.726c-.476 0-.878.168-1.204.504-.327.336-.527.768-.603 1.344h3.414v-.072c-.025-.528-.176-.96-.477-1.272-.251-.336-.653-.504-1.13-.504Zm.126 5.16c-.477 0-.929-.12-1.305-.335a2.265 2.265 0 0 1-.904-.96c-.226-.408-.326-.864-.326-1.369v-.216c0-.528.1-1.008.326-1.416.201-.432.502-.744.879-.984.376-.24.803-.36 1.23-.36.702 0 1.229.216 1.656.672.402.456.603 1.08.603 1.848v.336h-4.067v.12c0 .624.176 1.129.553 1.537.376.408.828.624 1.405.624.326 0 .628-.048.904-.168.251-.12.502-.312.703-.576l.401.288c-.502.624-1.18.96-2.058.96ZM117.52 54.102c0 .697.151 1.248.427 1.657.301.408.703.6 1.23.6.778 0 1.33-.336 1.656-.985v-2.568c-.326-.72-.878-1.056-1.656-1.056-.527 0-.954.192-1.23.6-.276.384-.427.984-.427 1.752Zm-.627-.096c0-.84.2-1.512.602-2.016.402-.504.929-.744 1.606-.744.779 0 1.356.288 1.757.864v-3.048h.628v7.753h-.602l-.026-.72c-.401.552-1.004.816-1.782.816-.652 0-1.179-.264-1.581-.768-.402-.504-.602-1.2-.602-2.04v-.097ZM127.184 51.822c-.125-.024-.276-.024-.426-.024-.402 0-.728.096-1.004.312a1.594 1.594 0 0 0-.578.912v3.745h-.627v-5.449h.627v.864c.327-.648.879-.96 1.607-.96.175 0 .326.024.426.072l-.025.528ZM130.296 56.767h-.628v-5.449h.628v5.449Zm-.753-7.033c0-.12.05-.216.125-.288a.447.447 0 0 1 .327-.12c.15 0 .251.048.326.12a.391.391 0 0 1 0 .576.444.444 0 0 1-.326.12.447.447 0 0 1-.327-.12.39.39 0 0 1-.125-.288ZM133.784 49.35c.126 0 .251.048.327.12a.39.39 0 0 1 .125.288.39.39 0 0 1-.125.288.447.447 0 0 1-.327.12.425.425 0 0 1-.301-.12.39.39 0 0 1-.125-.288c0-.12.05-.216.125-.288.05-.096.151-.12.301-.12Zm.302 1.968v6.097c0 .504-.126.888-.377 1.152-.251.264-.627.408-1.129.408a1.41 1.41 0 0 1-.553-.096v-.504c.151.048.302.072.477.072.628 0 .929-.336.929-1.032v-6.097h.653ZM137.725 56.767v-4.969h-.954v-.504h.954v-.648c0-.552.151-.984.452-1.296.301-.312.703-.456 1.23-.456.251 0 .452.024.678.096l-.05.504a2.238 2.238 0 0 0-.578-.072c-.351 0-.627.096-.803.312-.201.216-.301.504-.301.888v.672h1.355v.504h-1.355v4.969h-.628ZM55.346 63.8c0-.889-.201-1.585-.628-2.089-.426-.504-.979-.744-1.707-.744-.702 0-1.28.24-1.706.744-.427.504-.628 1.2-.628 2.113v.768c0 .864.2 1.56.628 2.064.426.504 1.004.768 1.706.768.728 0 1.306-.24 1.707-.744.402-.504.628-1.2.628-2.088V63.8Zm.627.816c0 .672-.125 1.272-.376 1.776s-.603.912-1.054 1.176a3.083 3.083 0 0 1-1.582.408c-.903 0-1.631-.312-2.183-.912-.553-.624-.829-1.44-.829-2.472v-.768c0-.672.126-1.273.377-1.777a2.806 2.806 0 0 1 1.054-1.2c.452-.288.979-.408 1.556-.408a2.99 2.99 0 0 1 1.556.408c.452.264.804.648 1.055 1.152.25.505.376 1.08.376 1.729v.888h.05ZM59.163 65.24c0 .648.175 1.176.527 1.608.351.408.828.624 1.38.624.578 0 1.03-.216 1.38-.624.352-.408.528-.96.528-1.656v-.12c0-.408-.075-.792-.251-1.152-.15-.336-.377-.624-.678-.792a1.81 1.81 0 0 0-1.004-.288c-.552 0-1.029.216-1.38.624-.352.432-.527.984-.527 1.656v.12h.025Zm-.628-.168c0-.528.1-.984.327-1.416.2-.408.502-.744.903-.984.377-.24.828-.36 1.33-.36.753 0 1.38.264 1.858.768.477.504.703 1.176.703 2.016v.12c0 .528-.1 1.008-.327 1.416-.2.432-.502.744-.903.984-.377.24-.829.336-1.33.336-.754 0-1.381-.264-1.833-.768-.477-.504-.703-1.176-.703-2.016v-.096h-.025ZM69.729 66.488c0-.288-.126-.528-.377-.72-.25-.192-.627-.312-1.13-.432-.501-.096-.903-.216-1.179-.36s-.477-.288-.627-.48a1.27 1.27 0 0 1-.201-.696c0-.432.175-.792.552-1.056.377-.288.853-.432 1.456-.432.627 0 1.154.144 1.53.456.377.312.578.696.578 1.176h-.627c0-.312-.15-.576-.427-.792-.276-.216-.627-.312-1.054-.312-.427 0-.753.096-1.004.264a.803.803 0 0 0-.377.696c0 .264.1.48.327.624.2.144.602.288 1.154.408.552.12.98.264 1.255.408.276.144.477.312.603.504.125.192.2.432.2.72 0 .456-.2.84-.577 1.104-.376.264-.904.408-1.531.408-.653 0-1.205-.144-1.606-.456-.402-.312-.628-.696-.628-1.176h.628c.025.36.175.624.477.816.276.192.652.288 1.129.288.452 0 .803-.096 1.054-.288a.715.715 0 0 0 .402-.672ZM74.172 61.015v1.392h1.18v.504h-1.18v3.649c0 .312.05.528.175.672.126.144.302.216.578.216.1 0 .276-.024.502-.048l.025.48a2.52 2.52 0 0 1-.678.096c-.427 0-.753-.12-.954-.36-.2-.24-.3-.6-.3-1.056V62.91h-1.055v-.504h1.054v-1.392h.653ZM80.045 64.376H77.51v.504h2.535v-.504ZM85.115 61.303l1.531 4.009h-3.087l1.556-4.009Zm-.326-.768-2.912 7.345h.678l.778-2.064h3.489l.803 2.064h.678l-2.887-7.345h-.627ZM92.821 67.472c.452 0 .803-.12 1.105-.36.3-.24.451-.552.477-.912h.602a1.685 1.685 0 0 1-.326.912c-.201.264-.477.48-.804.648-.326.144-.677.24-1.079.24-.753 0-1.33-.24-1.782-.744-.427-.504-.653-1.176-.653-2.016v-.192c0-.528.1-1.008.301-1.416.201-.408.477-.744.854-.96a2.533 2.533 0 0 1 1.28-.337c.628 0 1.13.169 1.556.529.402.36.628.816.653 1.416h-.602a1.499 1.499 0 0 0-.477-1.032c-.302-.264-.653-.384-1.105-.384-.577 0-1.004.192-1.33.6-.326.384-.477.936-.477 1.656v.168c0 .696.15 1.248.477 1.632.301.36.753.552 1.33.552ZM98.293 63.343c.201-.336.477-.576.803-.768a2.28 2.28 0 0 1 1.055-.264c.602 0 1.079.168 1.355.504.301.337.452.817.452 1.489v3.576h-.628v-3.576c0-.48-.1-.84-.326-1.08-.201-.24-.552-.36-1.029-.36-.402 0-.728.12-1.03.36-.3.24-.526.552-.677.936v3.744h-.627v-7.753h.627v3.192h.025ZM105.974 61.015v1.392h1.18v.504h-1.18v3.649c0 .312.051.528.176.672.126.144.301.216.577.216.101 0 .277-.024.502-.048l.026.48a2.525 2.525 0 0 1-.678.096c-.427 0-.753-.12-.954-.36-.201-.24-.301-.6-.301-1.056V62.91h-1.054v-.504h1.054v-1.392h.652ZM111.974 62.84c-.477 0-.879.167-1.205.504-.326.336-.527.768-.602 1.344h3.413v-.072c-.025-.528-.175-.96-.477-1.272-.276-.337-.652-.505-1.129-.505Zm.1 5.136c-.477 0-.929-.12-1.305-.336a2.138 2.138 0 0 1-.904-.96c-.226-.408-.326-.864-.326-1.368v-.216c0-.528.1-1.008.326-1.416.201-.432.502-.745.879-.984.376-.24.778-.36 1.23-.36.703 0 1.23.215 1.656.672.402.456.603 1.08.603 1.848v.336h-4.066v.12c0 .624.175 1.128.552 1.536.376.408.828.624 1.405.624.327 0 .628-.048.904-.168.251-.12.502-.312.703-.576l.401.288c-.502.648-1.154.96-2.058.96ZM119.503 62.935c-.126-.024-.276-.024-.427-.024-.402 0-.728.096-1.004.313a1.588 1.588 0 0 0-.577.912v3.744h-.628v-5.448h.628v.864c.326-.648.878-.96 1.606-.96.176 0 .326.023.427.072l-.025.527ZM122.516 63.343c.201-.336.477-.576.803-.768a2.28 2.28 0 0 1 1.054-.264c.603 0 1.08.168 1.356.504.301.337.452.817.452 1.489v3.576h-.628v-3.576c0-.48-.1-.84-.326-1.08-.201-.24-.552-.36-1.029-.36-.402 0-.728.12-1.029.36-.302.24-.528.552-.678.936v3.744h-.628v-7.753h.628v3.192h.025ZM129.493 65.24c0 .648.175 1.176.527 1.608.351.408.828.624 1.38.624.578 0 1.029-.216 1.381-.624.351-.408.527-.96.527-1.656v-.12c0-.408-.075-.792-.251-1.152-.151-.336-.376-.624-.678-.792a1.808 1.808 0 0 0-1.004-.288c-.552 0-1.029.216-1.38.624-.352.432-.527.984-.527 1.656v.12h.025Zm-.628-.168c0-.528.101-.984.327-1.416.2-.408.502-.744.903-.984.377-.24.828-.36 1.33-.36.753 0 1.381.264 1.858.768.477.504.703 1.176.703 2.016v.12c0 .528-.101 1.008-.327 1.416-.2.432-.502.744-.903.984-.377.24-.829.336-1.331.336-.753 0-1.38-.264-1.832-.768-.477-.504-.703-1.176-.703-2.016v-.096h-.025ZM138.755 62.84a1.61 1.61 0 0 0-1.204.504c-.327.336-.528.768-.603 1.344h3.414v-.072c-.025-.528-.176-.96-.477-1.272-.251-.337-.653-.505-1.13-.505Zm.126 5.136c-.477 0-.929-.12-1.305-.336a2.138 2.138 0 0 1-.904-.96c-.226-.408-.326-.864-.326-1.368v-.216c0-.528.1-1.008.326-1.416.201-.432.502-.745.879-.984.376-.24.803-.36 1.229-.36.703 0 1.23.215 1.657.672.402.456.602 1.08.602 1.848v.336h-4.066v.12c0 .624.176 1.128.552 1.536.377.408.829.624 1.406.624.326 0 .628-.048.904-.168.251-.12.502-.312.702-.576l.402.288c-.502.648-1.18.96-2.058.96ZM143.65 60.127v7.753h.628v-2.088l.728-.672 2.309 2.76h.753l-2.635-3.168 2.434-2.28h-.803l-2.184 2.04-.602.624v-4.969h-.628Z" fill="#596582"/><path d="M20.633 28.467v13.106h7.078V28.467c0-1.872-1.581-3.384-3.54-3.384-1.957 0-3.538 1.512-3.538 3.384Zm91.591-11.233c-3.74 0-6.777 2.904-6.777 6.48V35.069c.025 3.577 3.037 6.457 6.777 6.457h13.755v-6.073h-13.303a.44.44 0 0 1-.452-.432v-2.136h7.605c1.808 0 3.489-1.416 3.539-3.144.051-1.825-1.48-3.337-3.388-3.337h-7.756v-2.28a.44.44 0 0 1 .452-.432h10.441c1.908 0 3.439-1.488 3.389-3.336-.05-1.729-1.732-3.145-3.539-3.145h-10.743v.024Zm31.225-.12c-5.522 0-10.065 4.08-10.517 9.241-.025.168-.05.336-.05.504v14.642h6.877v-14.33c.025-1.92 1.657-3.48 3.69-3.48h3.112c1.883 0 3.414-1.464 3.439-3.264v-.121c-.05-1.752-1.757-3.192-3.589-3.192h-2.962ZM35.843 16.73v23.835c0 5.497-4.668 9.961-10.416 9.961h-.05c-1.908 0-3.54 1.392-3.64 3.216-.1 1.92 1.531 3.529 3.514 3.529h.577c9.413 0 17.018-7.297 17.018-16.274V16.754h-7.003v-.024Zm-15.236 3.288c0 1.92 1.632 3.505 3.665 3.505 2.033 0 3.665-1.56 3.665-3.505 0-1.92-1.632-3.504-3.665-3.504-2.033 0-3.665 1.584-3.665 3.504Zm39.91-3.48c-.326 0-.653.024-.979.048-5.472.48-9.588 5.04-9.588 10.297V41.55h6.852V26.763c0-1.68 1.155-3.216 2.862-3.552 2.384-.48 4.493 1.248 4.493 3.432V38.55c0 1.824 1.53 3.288 3.438 3.288 1.908 0 3.44-1.464 3.44-3.288V26.643c.024-5.593-4.695-10.105-10.518-10.105Zm24.147 15.146v-5.04c0-1.993 1.656-3.577 3.74-3.577 1.983 0 3.64 1.584 3.64 3.576v5.04c0 1.993-1.657 3.577-3.64 3.577-2.084-.024-3.74-1.584-3.74-3.576Zm7.354-20.619V17.162a11.444 11.444 0 0 0-5.07-.528c-5.271.624-9.137 5.16-9.137 10.297v4.729c0 5.784 5.17 10.513 11.22 10.105 5.597-.312 9.89-5.04 9.89-10.417V11.042h-6.903v.023ZM22.641 0C12.977 0 5.146 7.465 5.095 16.706H0v6.625h5.095v18.242h7.029V23.499h.05c1.958 0 3.664-1.44 3.765-3.337.1-2.016-1.582-3.672-3.665-3.672h-.15c.225-5.4 4.844-9.745 10.542-9.77 1.932-.023 3.514-1.463 3.514-3.336C26.23 1.512 24.624 0 22.64 0Z" fill="url(#a)"/><defs><linearGradient id="a" x1=".016" y1="28.618" x2="149.989" y2="28.618" gradientUnits="userSpaceOnUse"><stop stop-color="#EA5156"/><stop offset=".154" stop-color="#EA5656"/><stop offset=".339" stop-color="#EC6454"/><stop offset=".539" stop-color="#EF7A4E"/><stop offset=".75" stop-color="#F4953F"/><stop offset=".968" stop-color="#FAB519"/><stop offset="1" stop-color="#FBBA09"/></linearGradient></defs></svg>