<svg width="150" height="38" fill="none" xmlns="http://www.w3.org/2000/svg"><g clip-path="url(#a)"><path d="M42.98 9.394a4.415 4.415 0 0 1-1.298.852 5.303 5.303 0 0 1-2.22.402 4.288 4.288 0 0 1-1.797-.333 4.21 4.21 0 0 1-1.482-1.048 5.106 5.106 0 0 1-1.27-3.586v-.16a5.109 5.109 0 0 1 1.259-3.592A4.251 4.251 0 0 1 37.68.878a4.33 4.33 0 0 1 1.821-.324 5.151 5.151 0 0 1 1.954.341 4.31 4.31 0 0 1 1.42.9v1.78h-.946l-.33-1.356a2.952 2.952 0 0 0-.818-.446 3.347 3.347 0 0 0-1.15-.185 3.06 3.06 0 0 0-1.385.248c-.435.19-.818.477-1.117.84a4.371 4.371 0 0 0-.866 2.831v.174a4.477 4.477 0 0 0 .848 2.843c.27.354.626.638 1.034.827.408.19.857.279 1.308.26.453.013.905-.043 1.34-.166a3.74 3.74 0 0 0 .84-.363v-2.16l-1.643-.07v-.975h2.997l-.008 3.517ZM48.575 10.652c-.463.02-.925-.061-1.352-.236a3.142 3.142 0 0 1-1.12-.78 3.773 3.773 0 0 1-.918-2.632v-.293a3.696 3.696 0 0 1 .944-2.585 2.91 2.91 0 0 1 1.002-.761c.387-.179.809-.272 1.237-.273.423-.028.847.037 1.24.191.394.154.748.392 1.035.698.546.667.828 1.505.792 2.36v.83h-4.81l-.022.033a2.86 2.86 0 0 0 .544 1.73c.17.222.395.4.653.518.259.118.542.171.827.156.41.008.819-.056 1.206-.189a2.81 2.81 0 0 0 .862-.53l.53.864c-.308.274-.666.49-1.055.634-.51.188-1.051.278-1.595.265Zm-.207-6.526a1.505 1.505 0 0 0-.647.15 1.475 1.475 0 0 0-.515.412 2.669 2.669 0 0 0-.592 1.41v.036h3.43v-.177a1.999 1.999 0 0 0-.426-1.306 1.516 1.516 0 0 0-.561-.408 1.545 1.545 0 0 0-.69-.117ZM52.99 9.658l1.11-.192V4.26l-1.11-.189v-.855h2.335l.093.95c.231-.34.549-.617.921-.802a2.869 2.869 0 0 1 1.306-.282c.45-.012.892.105 1.273.337.372.243.654.598.803 1.011.22-.4.54-.739.93-.986a2.465 2.465 0 0 1 1.346-.362c.34-.017.68.044.992.176.313.133.59.334.81.589.44.507.659 1.276.659 2.298v3.321l1.11.192v.849h-3.604v-.849l1.11-.192V6.134c0-.725-.126-1.229-.37-1.526a1.39 1.39 0 0 0-1.11-.45 1.45 1.45 0 0 0-1.136.49 2.08 2.08 0 0 0-.511 1.229v3.59l1.11.191v.849H57.46v-.849l1.11-.192V6.134a2.359 2.359 0 0 0-.37-1.5 1.383 1.383 0 0 0-1.11-.475 1.88 1.88 0 0 0-1.017.25c-.27.169-.482.412-.61.7v4.35l1.11.192v.856H52.99v-.849ZM70.397 10.652a3.207 3.207 0 0 1-1.352-.237 3.149 3.149 0 0 1-1.12-.778 3.772 3.772 0 0 1-.917-2.633v-.293a3.682 3.682 0 0 1 .947-2.585 2.904 2.904 0 0 1 1.002-.762c.387-.178.809-.271 1.237-.272a2.88 2.88 0 0 1 1.239.191 2.83 2.83 0 0 1 1.033.698c.541.672.816 1.515.773 2.37v.82h-4.81l-.019.033a2.834 2.834 0 0 0 .54 1.73c.172.222.397.4.655.517.258.117.541.171.825.157.41.008.82-.056 1.207-.189.33-.12.636-.299.899-.53l.53.864c-.309.274-.666.49-1.056.634a4.29 4.29 0 0 1-1.613.265Zm-.203-6.526c-.225 0-.448.051-.65.149a1.474 1.474 0 0 0-.516.413 2.635 2.635 0 0 0-.57 1.41v.036h3.434v-.177a2 2 0 0 0-.43-1.306 1.504 1.504 0 0 0-.569-.413c-.22-.092-.46-.13-.7-.112ZM78.475 10.652a3.206 3.206 0 0 1-1.351-.237 3.149 3.149 0 0 1-1.12-.778 3.773 3.773 0 0 1-.918-2.632V6.71a3.682 3.682 0 0 1 .947-2.585c.27-.32.61-.58.993-.758a2.959 2.959 0 0 1 1.227-.276c.423-.028.847.037 1.241.19.394.155.748.393 1.035.699.542.673.817 1.515.773 2.37v.82h-4.814v.033a2.835 2.835 0 0 0 .54 1.73c.172.222.396.4.654.518.259.117.542.17.827.156.41.008.819-.056 1.206-.189.331-.12.636-.299.9-.53l.528.864c-.307.274-.665.49-1.054.634-.515.19-1.063.28-1.614.265Zm-.207-6.526a1.505 1.505 0 0 0-.647.15 1.475 1.475 0 0 0-.515.412 2.636 2.636 0 0 0-.588 1.41v.036h3.434v-.177a2 2 0 0 0-.43-1.306 1.504 1.504 0 0 0-.563-.41 1.534 1.534 0 0 0-.691-.115ZM82.957 9.658l1.11-.192V4.26l-1.11-.189v-.855h2.33l.097 1.087c.231-.37.551-.68.933-.903.388-.217.829-.327 1.276-.319.34-.019.681.032 1 .151.32.119.609.302.85.538.44.46.66 1.17.663 2.132v3.564l1.11.192v.849h-3.597v-.849l1.11-.192V5.938a1.94 1.94 0 0 0-.388-1.366 1.556 1.556 0 0 0-1.188-.407 1.958 1.958 0 0 0-1.033.276 2.05 2.05 0 0 0-.721.758v4.267l1.11.192v.849h-3.597l.044-.849ZM95.101 1.457v1.759h1.41v.982h-1.41v4.427a.98.98 0 0 0 .215.725.795.795 0 0 0 .574.21c.135 0 .27-.011.403-.032.148-.018.274-.04.37-.062l.189.91a1.793 1.793 0 0 1-.567.196 3.46 3.46 0 0 1-.74.08 1.777 1.777 0 0 1-1.31-.49 2.096 2.096 0 0 1-.488-1.533v-4.43H92.57v-.983h1.177V1.457h1.354ZM101.788 10.652c-.463.02-.925-.061-1.352-.236a3.137 3.137 0 0 1-1.12-.78 3.773 3.773 0 0 1-.918-2.632v-.293a3.682 3.682 0 0 1 .948-2.585c.27-.321.61-.58.993-.758a2.955 2.955 0 0 1 1.227-.276c.423-.028.847.037 1.241.191a2.85 2.85 0 0 1 1.035.698c.541.672.816 1.515.773 2.37v.82h-4.814l-.019.033a2.837 2.837 0 0 0 .54 1.73 1.764 1.764 0 0 0 1.481.674c.41.008.819-.056 1.206-.189.331-.12.636-.299.899-.53l.529.864a3.31 3.31 0 0 1-1.054.634 4.296 4.296 0 0 1-1.595.265Zm-.207-6.526a1.51 1.51 0 0 0-.648.15 1.47 1.47 0 0 0-.514.412 2.636 2.636 0 0 0-.589 1.41v.036h3.434v-.177a1.997 1.997 0 0 0-.429-1.306 1.506 1.506 0 0 0-.563-.409 1.542 1.542 0 0 0-.691-.116ZM43.206 22.921a4.523 4.523 0 0 1-1.421.852 6.34 6.34 0 0 1-2.368.363 4.41 4.41 0 0 1-1.797-.317 4.336 4.336 0 0 1-1.504-1.014 4.804 4.804 0 0 1-1.27-3.452v-.337a5.119 5.119 0 0 1 1.255-3.582 4.176 4.176 0 0 1 1.48-1.05 4.254 4.254 0 0 1 1.795-.331 6.082 6.082 0 0 1 2.15.362 4.72 4.72 0 0 1 1.62.994v1.987h-1.48l-.288-1.306a2.137 2.137 0 0 0-.74-.362 3.573 3.573 0 0 0-1.036-.138 2.455 2.455 0 0 0-1.142.226 2.403 2.403 0 0 0-.9.724 3.98 3.98 0 0 0-.74 2.487v.363a3.71 3.71 0 0 0 .717 2.389c.246.299.562.536.92.69.359.156.75.225 1.141.202.33.009.66-.026.98-.102.208-.049.406-.128.59-.235V20.64l-1.433-.106v-1.381h3.445l.026 3.767ZM48.328 24.154a3.413 3.413 0 0 1-1.397-.233 3.356 3.356 0 0 1-1.175-.779 3.583 3.583 0 0 1-.962-2.567v-.268c-.04-.97.285-1.922.91-2.676a3.432 3.432 0 0 1 2.36-1.042c.896-.03 1.768.29 2.425.887.583.668.88 1.53.833 2.407v1.07h-4.44v.04c.017.437.188.856.484 1.185.152.157.337.28.542.36.205.08.425.115.646.104.374.01.748-.035 1.11-.13.334-.105.657-.244.962-.414l.544 1.211c-.366.267-.777.47-1.214.602a5.274 5.274 0 0 1-1.628.243Zm-.178-6.051a1.061 1.061 0 0 0-.88.417c-.23.32-.368.696-.4 1.087l.022.033h2.461v-.174a1.558 1.558 0 0 0-.3-1 1.093 1.093 0 0 0-.903-.363ZM56.34 24.154a3.39 3.39 0 0 1-1.399-.231 3.334 3.334 0 0 1-1.173-.78 3.583 3.583 0 0 1-.966-2.568v-.268a3.936 3.936 0 0 1 .914-2.676 3.428 3.428 0 0 1 2.358-1.042c.895-.03 1.766.29 2.423.886.582.669.88 1.53.832 2.408v1.07h-4.44v.04c.018.439.192.858.492 1.185a1.546 1.546 0 0 0 1.184.464c.375.01.749-.035 1.11-.13.336-.105.66-.244.966-.414l.54 1.211c-.359.266-.762.47-1.191.602-.533.168-1.09.25-1.65.243Zm-.182-6.051a1.07 1.07 0 0 0-.88.417c-.23.32-.367.696-.396 1.087l.018.033h2.457v-.174a1.58 1.58 0 0 0-.296-1 1.1 1.1 0 0 0-.903-.363ZM60.936 22.83l.962-.199V18.11l-1.066-.207v-1.182h2.938l.089 1.066a2.31 2.31 0 0 1 .673-.884c.272-.21.61-.321.955-.316.113 0 .225.008.337.022.098.014.196.034.292.058l-.214 1.79-.826-.017a1.43 1.43 0 0 0-.74.167c-.192.112-.346.279-.44.478v3.532l.962.199v1.182h-3.922V22.83ZM70.348 14.934v1.787h1.306v1.382h-1.306v3.712a.843.843 0 0 0 .177.606.646.646 0 0 0 .481.181c.124.006.247.006.37 0 .104 0 .219-.032.348-.058l.17 1.421a5.847 5.847 0 0 1-.665.153 4.913 4.913 0 0 1-.718.05 2.18 2.18 0 0 1-1.599-.562c-.375-.37-.561-.96-.559-1.769v-3.734h-1.091V16.72h1.091v-1.787h1.995ZM73.293 22.83l.966-.199V18.11l-1.066-.207v-1.182h2.935l.089 1.066a2.31 2.31 0 0 1 .673-.884c.273-.21.612-.32.959-.316.21 0 .42.026.625.08l-.215 1.79-.825-.017a1.43 1.43 0 0 0-.74.167c-.193.112-.346.279-.44.478v3.532l.962.199v1.182h-3.923V22.83ZM84.783 23.088c-.224.33-.528.6-.884.787-.37.19-.782.285-1.2.279a2.374 2.374 0 0 1-1.007-.16 2.334 2.334 0 0 1-.842-.565c-.444-.484-.667-1.249-.667-2.295v-3.01l-.81-.22V16.72h2.823v4.413c-.033.4.063.799.274 1.142a.971.971 0 0 0 .807.363 2.02 2.02 0 0 0 .822-.153c.224-.095.419-.244.566-.435V18.11l-.877-.207v-1.182h2.886v5.895l.903.2v1.182h-2.664l-.13-.91ZM88.81 22.83l.97-.199V18.11l-1.073-.203V16.72h3.079v5.896l.962.2v1.181H88.81v-1.167Zm2.961-7.853h-2.006v-1.475h2.006v1.475ZM98.761 23.12a2.43 2.43 0 0 1-.829.77c-.334.178-.71.269-1.091.264a2.56 2.56 0 0 1-1.191-.233 2.507 2.507 0 0 1-.94-.753 4.137 4.137 0 0 1-.763-2.6v-.127a4.641 4.641 0 0 1 .762-2.78c.237-.341.558-.617.933-.802a2.517 2.517 0 0 1 1.214-.257c.35-.006.694.076 1.002.239.31.166.578.398.785.678V14.89l-1.073-.203v-1.185h3.082v9.115l.962.2v1.181h-2.701l-.152-.877Zm-2.805-2.537c-.027.52.085 1.04.326 1.504.11.177.27.32.458.413.189.094.4.134.611.117.265.006.528-.054.763-.174.219-.12.401-.296.529-.508V18.85a1.402 1.402 0 0 0-1.266-.732 1.128 1.128 0 0 0-.637.155 1.096 1.096 0 0 0-.436.482 3.562 3.562 0 0 0-.337 1.672l-.01.156ZM106.324 24.154a3.393 3.393 0 0 1-1.399-.231 3.336 3.336 0 0 1-1.173-.78 3.584 3.584 0 0 1-.966-2.568v-.268a3.94 3.94 0 0 1 .914-2.676 3.43 3.43 0 0 1 2.358-1.042c.895-.03 1.766.29 2.423.886.582.669.881 1.53.833 2.408v1.07h-4.441v.04c.019.439.193.858.492 1.185a1.532 1.532 0 0 0 1.185.464c.374.01.748-.035 1.11-.13.334-.105.657-.243.962-.414l.54 1.211c-.359.266-.762.47-1.191.602a5.236 5.236 0 0 1-1.647.243Zm-.181-6.051a1.068 1.068 0 0 0-.881.417c-.23.32-.367.696-.396 1.087l.018.033h2.461v-.174a1.576 1.576 0 0 0-.296-1 1.098 1.098 0 0 0-.906-.363ZM110.66 22.83l.962-.199V18.11l-1.065-.207v-1.182h2.934l.089 1.044a2.7 2.7 0 0 1 .918-.87c.37-.209.79-.315 1.217-.308a2.277 2.277 0 0 1 1.758.692c.422.465.632 1.19.632 2.176v3.162l.963.199v1.182h-3.838V22.83l.862-.199v-3.169a1.464 1.464 0 0 0-.303-1.04 1.227 1.227 0 0 0-.914-.305 1.565 1.565 0 0 0-.714.156c-.211.107-.394.26-.533.45v3.893l.814.2v1.182h-3.782V22.83ZM127.409 20.568c.05.925-.21 1.84-.74 2.607a2.498 2.498 0 0 1-.948.753c-.374.17-.786.248-1.198.226a2.215 2.215 0 0 1-1.117-.26 2.161 2.161 0 0 1-.826-.78l-.144.898H120.7V14.89l-1.065-.203v-1.185h3.067v3.988c.2-.28.463-.511.77-.674.32-.162.676-.243 1.036-.236.421-.021.841.064 1.219.248.377.183.701.459.939.8.533.834.791 1.808.74 2.791l.003.15Zm-2.002-.127a3.735 3.735 0 0 0-.318-1.686 1.096 1.096 0 0 0-.454-.484 1.13 1.13 0 0 0-.656-.14 1.506 1.506 0 0 0-.792.193c-.219.13-.395.32-.507.547v3.079c.128.215.317.389.544.5.249.123.525.183.803.174.215.02.431-.02.623-.115a1.13 1.13 0 0 0 .465-.422c.23-.473.336-.995.307-1.519l-.015-.127ZM132.404 24.154a3.41 3.41 0 0 1-1.397-.233 3.361 3.361 0 0 1-1.175-.779 3.587 3.587 0 0 1-.962-2.567v-.268a3.938 3.938 0 0 1 .911-2.676 3.43 3.43 0 0 1 2.359-1.042 3.44 3.44 0 0 1 2.425.887c.583.668.881 1.53.833 2.407v1.07h-4.441v.04c.017.438.19.858.489 1.185a1.56 1.56 0 0 0 1.188.464c.374.01.748-.035 1.11-.13.334-.105.657-.244.962-.414l.544 1.211c-.359.266-.762.47-1.192.602a5.24 5.24 0 0 1-1.654.243Zm-.177-6.051a1.06 1.06 0 0 0-.863.417 2.18 2.18 0 0 0-.399 1.087l.022.033h2.461v-.174a1.559 1.559 0 0 0-.3-1 1.094 1.094 0 0 0-.921-.363ZM137.005 22.83l.962-.199V18.11l-1.051-.207v-1.182h2.938l.089 1.066a2.31 2.31 0 0 1 .673-.884c.272-.21.609-.322.955-.316a2.513 2.513 0 0 1 .625.08l-.21 1.791-.826-.018a1.425 1.425 0 0 0-.74.167 1.1 1.1 0 0 0-.44.478v3.532l.962.199v1.182h-3.937V22.83ZM143.281 20.441a4.637 4.637 0 0 1 .766-2.78c.237-.341.559-.617.935-.802a2.525 2.525 0 0 1 1.215-.257c.388-.01.772.083 1.11.271.33.194.609.461.814.78l.144-.917h1.747v7.059a2.994 2.994 0 0 1-.925 2.302c-.7.608-1.616.92-2.55.87a5.123 5.123 0 0 1-1.195-.152 5.777 5.777 0 0 1-1.17-.413l.371-1.382c.312.13.633.237.962.32.333.08.674.118 1.017.116a1.37 1.37 0 0 0 1.11-.436c.264-.353.394-.785.37-1.221v-.49a2.16 2.16 0 0 1-.777.627c-.319.15-.67.225-1.025.218a2.573 2.573 0 0 1-1.192-.236 2.523 2.523 0 0 1-.943-.754 4.117 4.117 0 0 1-.766-2.596l-.018-.127Zm2.009.142c-.028.52.085 1.04.329 1.504.109.181.267.329.457.426.189.097.403.14.616.125.271.009.539-.049.781-.167.214-.109.392-.276.511-.482v-3.18a1.339 1.339 0 0 0-.511-.51 1.503 1.503 0 0 0-.766-.182 1.127 1.127 0 0 0-.639.155 1.096 1.096 0 0 0-.438.483 3.538 3.538 0 0 0-.34 1.672v.156Z" fill="#20201E"/><path d="M20.46 22.715a11.346 11.346 0 0 1-2.72 2.077 5.044 5.044 0 0 1 1.27 1.652 4.95 4.95 0 0 1 .484 2.014c0 3.237-3.571 5.87-7.956 5.87s-7.956-2.647-7.956-5.881a5.019 5.019 0 0 1 .535-2.113 5.12 5.12 0 0 1 1.386-1.701c1.276-1.088 3.104-1.773 5.154-1.944.496-.025.607-.029.925-.029 4.77 0 8.652-3.067 8.652-6.838v-.519c0-.09-.019-.184-.033-.279-.015-.094 0-.083 0-.126l-.056-.28c0-.032 0-.069-.026-.105a8.047 8.047 0 0 0-.1-.362 8.247 8.247 0 0 0-.14-.392 5.645 5.645 0 0 0-.185-.424 4.948 4.948 0 0 0-.167-.308.392.392 0 0 0-.03-.055 7.502 7.502 0 0 0-2.59-2.567 5.331 5.331 0 0 0 1.504-1.802 5.22 5.22 0 0 0 .572-2.258 4.874 4.874 0 0 0-.836-2.698h4.918V.537H12.389C12.123.5 11.841.5 11.582.5 7.538.5 4.248 3.114 4.248 6.33c.019.786.215 1.557.574 2.26.36.702.874 1.317 1.506 1.8a8.312 8.312 0 0 0 5.254 1.774c2.028 0 3.778.866 4.585 2.114.073.108.137.222.192.34v.026a3.707 3.707 0 0 1 .152.388l.034.116c.022.094.044.185.059.279v.058c0 .112.022.221.022.337 0 2.016-2.272 3.658-5.066 3.658s-5.047-1.642-5.047-3.658c.006-.55.173-1.085.48-1.544a11.5 11.5 0 0 1-3.052-1.665 5.719 5.719 0 0 0-1.01 3.21c0 1.917 1.003 3.65 2.62 4.894a11.457 11.457 0 0 0-2.713 1.813C1.073 24.103 0 26.177 0 28.447c0 4.992 5.18 9.064 11.538 9.064 6.357 0 11.538-4.06 11.538-9.064a7.864 7.864 0 0 0-.71-3.128 8.004 8.004 0 0 0-1.906-2.604ZM11.579 8.98C9.51 8.98 7.83 7.791 7.83 6.33c0-1.461 1.68-2.647 3.749-2.647 2.068 0 3.748 1.186 3.748 2.647 0 1.461-1.68 2.65-3.745 2.65h-.003Z" fill="#EE8016"/></g><defs><clipPath id="a"><path fill="#fff" d="M0 .5h150v37H0z"/></clipPath></defs></svg>