<svg width="150" height="28" fill="none" xmlns="http://www.w3.org/2000/svg"><mask id="a" style="mask-type:alpha" maskUnits="userSpaceOnUse" x="0" y="0" width="28" height="17"><path fill-rule="evenodd" clip-rule="evenodd" d="M15.304 1.357C8.23 2.012 1.038 5.155 1.248 9.282c.17 3.293 4.92 5.508 11.825 5.508.993 0 2.016-.05 3.041-.145a31.442 31.442 0 0 0 3.351-.496c.067.444.174.883.319 1.317a34.016 34.016 0 0 1-6.776.683C5.43 16.15.206 13.55.005 9.683-.244 4.758 7.653 1.355 15.21.655V.65C16.288.55 17.366.5 18.413.5c3.747 0 6.918.635 9.19 1.745a29.519 29.519 0 0 0-1.975.022c-1.946-.675-4.43-1.053-7.282-1.053-.992 0-2.02.048-3.042.143Z" fill="#000"/></mask><g mask="url(#a)"><path d="M7.734-13.104-7.121 12.237l30.806 17.52L38.54 4.413 7.734-13.105Z" fill="url(#b)"/></g><mask id="c" style="mask-type:alpha" maskUnits="userSpaceOnUse" x="2" y="1" width="57" height="27"><path fill-rule="evenodd" clip-rule="evenodd" d="M2.938 9.01c-.35-3.083 5.029-6.122 12.284-6.917l-.003-.003a30.7 30.7 0 0 1 3.281-.18c1.852 0 3.566.18 5.04.516 5.402-.583 10.338.176 13.769 2.424 1.828.22 3.764.507 5.62 1.029 10.78 3.036 16.82 9.447 15.123 14.93-1.777 5.746-12.38 8.506-23.5 5.394-5.192-1.455-9.213-3.746-11.821-6.305-2.297-2.253-3.496-4.723-3.336-7.33-.931.202-1.908.364-2.916.486-4.543.538-7.543.119-9.844-.712-2.689-.97-3.58-2.303-3.697-3.332Zm30.628-2.209c.225.405 1.088.643 1.678.643l.005-.002a18.532 18.532 0 0 1 3.965.419c6.131 1.328 10.56 5.01 9.774 8.517-.744 3.32-6.392 5.14-12.866 3.72-6.129-1.343-10.227-5.065-9.46-8.463l.006-.023c.007-.03.015-.058.02-.087.094-.423-.02-.548-.17-.713l-.004-.003c-.16-.174-.512-.417-1.129-.5-1.363-.217-2.067-.42-2.889-.884-.638-.328-1.646-.302-2.64.02-.957.285-2.02.509-3.247.63-3.742.37-6.774-.576-7.023-2.214-.236-1.572 2.399-3.22 6.122-3.744 2.328-.328 4.55-.147 5.928.46.67.317 1.656.21 2.292.04 1.585-.397 4.042-.443 5.9-.028 1.248.278 2.832.836 3.738 2.212Z" fill="#000"/></mask><g mask="url(#c)"><path d="m9.274-16.251-15.65 42.354 59.44 21.31L68.715 5.059 9.274-16.251Z" fill="url(#d)"/></g><path fill-rule="evenodd" clip-rule="evenodd" d="M33.567 6.801c.225.405 1.088.643 1.678.643l.005-.002a18.532 18.532 0 0 1 3.965.419c6.13 1.329 10.56 5.01 9.774 8.518-.745 3.319-6.392 5.138-12.866 3.72-6.13-1.344-10.227-5.066-9.46-8.464l.005-.023.021-.087c.094-.423-.02-.548-.171-.713l-.003-.003c-.16-.174-.512-.417-1.129-.5-1.363-.217-2.067-.42-2.889-.884-.638-.328-1.646-.302-2.64.02-.957.285-2.021.509-3.247.63-3.742.37-6.774-.576-7.023-2.214-.237-1.572 2.398-3.22 6.121-3.744 2.329-.328 4.55-.147 5.928.46.67.317 1.656.21 2.292.04 1.586-.397 4.042-.442 5.901-.028 1.248.279 2.831.836 3.738 2.212Zm-17.394-1.65c2.434-.283 4.622.293 4.726 1.324v-.002c.102.971-1.78 1.938-4.216 2.212-2.435.276-4.526-.343-4.642-1.32-.114-.938 1.622-1.921 4.132-2.214Zm10.906.243c2.381.057 4.286.928 4.262 1.943-.027 1.017-1.975 1.793-4.354 1.733-2.38-.06-4.286-.93-4.26-1.945.024-1.014 1.975-1.79 4.352-1.731Zm17.957 9.051c.36-2.174-2.838-4.615-7.064-5.315-4.226-.704-8.053.41-8.404 2.586-.357 2.227 2.962 4.592 7.057 5.282 4.299.724 8.063-.452 8.411-2.553Z" fill="#231F20"/><path d="M67.795 8.814a1.341 1.341 0 0 1-.653.176c-.548-.005-.974-.42-.974-1.117 0-.771.546-1.119 1.206-1.105.307.005.605.081.89.198v2.081c0 .734-.474 1.055-1.037 1.06a1.935 1.935 0 0 1-.907-.236l.073-.388c.275.133.57.224.822.221.333-.004.58-.171.58-.664v-.226Zm-.01-1.567a1.397 1.397 0 0 0-.457-.079c-.41 0-.67.229-.677.705 0 .462.266.698.6.705a.947.947 0 0 0 .532-.167V7.25l.002-.002ZM70.868 7.942h-1.59c0 .385.307.616.7.616.27.012.528-.023.784-.133l.063.355a2.057 2.057 0 0 1-.812.18c-.711.015-1.233-.435-1.212-1.152.015-.71.532-1.064 1.117-1.064.752 0 1.095.493.95 1.198Zm-1.583-.34h1.19c.014-.32-.254-.489-.564-.489-.31 0-.558.155-.626.488ZM74.359 8.916v-1.24c.005-.317-.13-.544-.416-.539-.3.005-.503.217-.505.55v1.229h-.479V7.687c0-.328-.14-.55-.443-.545-.302.005-.524.217-.524.55v1.224h-.486v-1.52c0-.245-.014-.326-.23-.311l-.004-.298c.285-.067.688-.09.674.353.118-.26.438-.391.733-.391.374 0 .568.14.652.4.121-.283.455-.4.788-.4.59 0 .74.414.728.924v1.24h-.49l.002.003ZM77.437 7.942H75.85c0 .385.307.616.7.616.267.012.528-.023.782-.133l.063.355c-.252.112-.54.18-.813.18-.713.015-1.233-.435-1.213-1.152.014-.71.532-1.064 1.12-1.064.753 0 1.092.493.95 1.198Zm-1.58-.34h1.189c.012-.32-.257-.489-.564-.489-.307 0-.56.155-.626.488ZM79.945 7.942h-1.59c0 .385.309.616.703.616.268.012.527-.023.78-.133l.064.355c-.252.112-.54.18-.813.18-.71.015-1.235-.435-1.213-1.152.014-.71.534-1.064 1.117-1.064.756 0 1.095.493.952 1.198Zm-1.581-.34h1.19c.011-.32-.254-.489-.566-.489-.312 0-.559.155-.624.488ZM82.134 8.916V7.671c.005-.329-.215-.534-.505-.539-.302 0-.544.234-.544.577v1.207h-.493V7.411c0-.25-.007-.321-.225-.31v-.314c.314-.057.675-.071.675.334.12-.267.454-.37.735-.37.587 0 .853.396.853.92v1.245h-.496ZM83.94 6.796h.745v.343h-.745v.955c0 .54.341.577.784.422l.05.362c-.737.221-1.313.057-1.313-.779v-.962l-.44-.029v-.312h.44l.049-.654h.43v.654ZM87.158 7.942h-1.59c0 .385.306.616.7.616.269.012.527-.023.781-.133l.063.355a2.056 2.056 0 0 1-.812.18c-.713.015-1.233-.435-1.212-1.152.015-.71.532-1.064 1.118-1.064.754 0 1.095.493.95 1.198m-1.584-.34h1.19c.014-.32-.254-.489-.564-.489-.31 0-.558.155-.626.488ZM69.016 11.24c1.187 0 2.376.564 2.717 1.938h-1.257c-.297-.574-.776-.8-1.46-.8-1.12 0-1.753.834-1.753 1.886 0 1.12.684 1.877 1.753 1.877.822 0 1.419-.246 1.675-1.13h-1.634V13.95h2.804c.034.564.017 1.112-.179 1.65-.452 1.188-1.52 1.684-2.666 1.684-1.581 0-3.051-1.07-3.051-3.022 0-1.953 1.48-3.024 3.05-3.024M74.776 17.296c-1.095 0-2.198-.708-2.198-2.132 0-1.424 1.078-2.121 2.162-2.131 1.104-.007 2.207.698 2.207 2.131 0 1.434-1.086 2.132-2.171 2.132Zm-.025-1.03c.506.01 1.009-.361 1.009-1.102 0-.74-.479-1.095-.984-1.095-.506 0-1.008.362-1.008 1.095 0 .734.488 1.103.983 1.103ZM81.64 15.424h-2.797c.043.63.522.876 1.095.919.171.01.367.017.549-.007.367-.04.735-.136.984-.245l.135.86a3.84 3.84 0 0 1-1.598.361c-1.385.024-2.36-.81-2.36-2.181.027-1.415 1.069-2.079 2.162-2.079 1.504 0 2.144.993 1.83 2.374m-2.788-.76h1.811c.024-.528-.41-.714-.856-.714-.445 0-.863.245-.957.714M90.306 15.424H87.51c.041.63.522.876 1.095.919.172.01.365.017.547-.007.367-.04.735-.136.984-.245l.138.86a3.843 3.843 0 0 1-1.601.361c-1.383.024-2.36-.81-2.36-2.181.025-1.415 1.069-2.079 2.164-2.079 1.504 0 2.145.993 1.83 2.374m-2.787-.76h1.813c.027-.528-.411-.714-.856-.714s-.863.245-.957.714ZM95.09 15.424h-2.796c.044.63.52.876 1.096.919.169.01.365.017.546-.007.367-.04.735-.136.984-.245l.138.86a3.851 3.851 0 0 1-1.6.361c-1.386.024-2.36-.81-2.36-2.181.026-1.415 1.068-2.079 2.161-2.079 1.506 0 2.147.993 1.83 2.374m-2.787-.76h1.813c.024-.528-.411-.714-.856-.714s-.863.245-.957.714ZM103.063 17.32c-1.6 0-3.043-1.062-3.043-3.048s1.481-3.039 3.07-3.039c1.588 0 3.044 1.06 3.044 3.039 0 1.793-1.258 3.048-3.068 3.048m.017-1.155c.933 0 1.779-.605 1.779-1.896 0-1.29-.839-1.876-1.77-1.876-.93 0-1.779.63-1.779 1.876s.812 1.896 1.77 1.896ZM108.67 17.267l-2.025-3.984v-.133h1.281l.486 1.102.498 1.298h.017l.505-1.298.486-1.102h1.274v.133l-2.026 3.984h-.496ZM115.516 15.433h-2.797c.044.631.522.874 1.095.917.17.007.368.017.547-.007.367-.043.735-.136.984-.245l.138.86a3.834 3.834 0 0 1-1.599.361c-1.385.026-2.357-.807-2.357-2.181.025-1.417 1.066-2.081 2.162-2.081 1.503 0 2.146.993 1.83 2.376m-2.788-.76h1.813c.025-.53-.411-.716-.855-.716-.445 0-.863.243-.958.716ZM119.002 13.033c.316-.008.64.083.88.26l-.264.985a1.308 1.308 0 0 0-.771-.217c-.522 0-.967.336-.967.96v2.19h-1.17v-2.854c0-.338-.036-.558-.411-.498v-.724c.599-.133 1.479-.133 1.547.59.172-.461.65-.69 1.156-.69M85.125 13.033c.316-.008.64.083.88.26l-.264.985a1.31 1.31 0 0 0-.771-.217c-.522 0-.967.336-.967.96v2.19h-1.17v-2.854c0-.338-.036-.558-.411-.498v-.724c.6-.133 1.48-.133 1.547.59.172-.461.65-.69 1.156-.69M125.344 11.054v4.622c0 .624.246.75.819.658l.044.883c-1.274.226-2.043-.083-2.043-1.54v-4.623h1.18ZM128.137 17.293c-.769 0-1.47-.488-1.496-1.272-.044-.995.684-1.464 1.598-1.464.367 0 .785.066 1.095.26v-.277c0-.495-.617-.58-1.025-.58-.438 0-.839.05-1.19.242l-.152-.84c.435-.203.991-.305 1.547-.305 1.059 0 1.966.345 1.966 1.516v1.465c0 .345-.008.548.384.524l.007.657c-.623.136-1.305.102-1.305-.624-.249.505-.9.7-1.429.7m1.17-1.743c-.239-.16-.556-.236-.856-.236-.377.027-.684.236-.64.634.024.293.29.436.563.436.394 0 .887-.193.933-.622v-.212ZM133.221 14.65c.95 0 1.187-.664 1.187-1.5h1.129c.027.86-.169 1.583-.981 2.005l1.18 1.936v.119h-1.207l-.981-1.686c-.104.036-.213.05-.344.05h-.273v1.634h-1.187v-6.146h1.187v3.586h.29v.002ZM138.095 14.65c.95 0 1.189-.664 1.189-1.5h1.127c.026.86-.169 1.583-.984 2.005l1.18 1.936v.119H139.4l-.981-1.686a1.04 1.04 0 0 1-.344.05h-.273v1.634h-1.187v-6.146h1.187v3.586h.29l.003.002ZM145.136 15.433h-2.795c.041.631.522.874 1.095.917.172.007.367.017.546-.007a3.62 3.62 0 0 0 .984-.245l.138.86a3.835 3.835 0 0 1-1.6.361c-1.383.026-2.358-.807-2.358-2.181.025-1.417 1.069-2.081 2.164-2.081 1.504 0 2.147.993 1.828 2.376m-2.788-.76h1.814c.026-.53-.411-.716-.854-.716-.442 0-.863.243-.957.716M149.921 15.433h-2.792c.043.631.522.874 1.093.917.171.007.367.017.546-.007.367-.043.735-.136.984-.245l.138.86a3.853 3.853 0 0 1-1.601.361c-1.385.026-2.359-.807-2.359-2.181.024-1.417 1.068-2.081 2.163-2.081 1.504 0 2.147.993 1.828 2.376Zm-2.785-.76h1.813c.024-.53-.411-.716-.856-.716-.444 0-.863.243-.957.716ZM120.984 13.983h-.761v-.834h.776l.009-.514c0-1.657 1.301-1.86 2.65-1.457l-.118.876c-.617-.228-1.393-.262-1.393.605v.488h1.298v.834h-1.298v3.229h-1.16v-3.23l-.003.003ZM98.86 14.378h-2.588v1.048h2.589v-1.048Z" fill="#231F20"/><defs><linearGradient id="b" x1="15.098" y1="2.542" x2="38.572" y2="16.302" gradientUnits="userSpaceOnUse"><stop stop-color="#00BDF2"/><stop offset=".1" stop-color="#00BDF2"/><stop offset=".11" stop-color="#05BEF2"/><stop offset=".33" stop-color="#6ED9F7"/><stop offset=".51" stop-color="#BCEDFB"/><stop offset=".64" stop-color="#ECFAFE"/><stop offset=".7" stop-color="#fff"/><stop offset="1" stop-color="#fff"/></linearGradient><linearGradient id="d" x1="-12.954" y1="7.549" x2="39.645" y2="26.985" gradientUnits="userSpaceOnUse"><stop stop-color="#00BDF2"/><stop offset=".1" stop-color="#00BDF2"/><stop offset=".27" stop-color="#25C0C8"/><stop offset=".6" stop-color="#6AC77B"/><stop offset=".83" stop-color="#95CC4B"/><stop offset=".95" stop-color="#A6CE39"/><stop offset="1" stop-color="#A6CE39"/></linearGradient></defs></svg>