<svg width="125" height="72" fill="none" xmlns="http://www.w3.org/2000/svg"><path d="M15.685 5.503A309.933 309.933 0 0 0 10.52.14L5.232 5.51 0 .14v12.03h20.994V.14s-3.552 3.597-5.31 5.364ZM23.97.14h1.07c1.656 1.546 3.202 3.204 4.825 4.784 1.627-1.58 3.17-3.252 4.845-4.784h.689c1.672 1.56 3.24 3.232 4.873 4.833C41.913 3.375 43.473 1.696 45.15.14h.984c.337 3.158.067 6.336.172 9.504-.077.794.193 1.746-.355 2.417-2.185.263-4.395.042-6.591.109-1.613-.053-3.254.172-4.846-.162-.586-.527-.168-1.637.654-1.49 3.152-.062 6.303.008 9.455-.017V3c-1.465 1.398-2.772 2.979-4.434 4.159-1.771-1.591-3.394-3.333-5.098-4.998-1.304 1.282-2.576 2.595-3.869 3.888-.467.38-.924 1.043-1.616.84-1.374-1.005-2.425-2.375-3.675-3.516-.858-.938-2.302-1.756-1.96-3.232ZM0 50.891c1.16 0 2.319 0 3.478-.003.137 3.368 1.02 6.743 2.927 9.557 3.145 4.857 8.816 7.892 14.596 7.888-.01 1.194-.007 2.392-.014 3.59-5.358-.05-10.692-2.115-14.554-5.855C2.695 62.556.397 57.614 0 52.51v-1.62Z" fill="#22398E"/><path d="M6.895 50.895c1.194-.007 2.389-.004 3.587-.01.07 3.23 1.585 6.44 4.22 8.358 1.799 1.388 4.05 2.048 6.3 2.154-.01 1.194-.007 2.384-.018 3.578-3.696-.101-7.393-1.503-9.99-4.183-2.624-2.588-4.026-6.237-4.1-9.897Z" fill="#22398E"/><path d="M13.896 50.899c1.163-.011 2.323-.008 3.482-.014.264.923.482 1.949 1.255 2.599.64.61 1.539.772 2.361 1.011 0 1.16.003 2.322-.01 3.484-3.802.074-7.182-3.266-7.088-7.08Z" fill="#22398E"/><rect y="14.659" width="3.467" height="3.462" rx="1.731" fill="#22398E"/><rect x="5.824" y="14.659" width="3.467" height="3.462" rx="1.731" fill="#22398E"/><rect x="11.65" y="14.659" width="3.467" height="3.462" rx="1.731" fill="#22398E"/><rect x="17.475" y="14.659" width="3.467" height="3.462" rx="1.731" fill="#22398E"/><rect y="20.475" width="3.467" height="3.462" rx="1.731" fill="#22398E"/><rect x="5.824" y="20.475" width="3.467" height="3.462" rx="1.731" fill="#22398E"/><rect x="11.65" y="20.475" width="3.467" height="3.462" rx="1.731" fill="#22398E"/><rect x="17.475" y="20.475" width="3.467" height="3.462" rx="1.731" fill="#22398E"/><path fill-rule="evenodd" clip-rule="evenodd" d="M21.034 71.86C9.413 71.834 0 62.418 0 50.807h3.514c0 9.69 7.865 17.544 17.568 17.544v3.509h-.048ZM7.027 50.807c0 7.752 6.293 14.035 14.055 14.035v-3.508c-5.822 0-10.541-4.713-10.541-10.527H7.027Zm7.027 0c0 3.876 3.147 7.018 7.028 7.018v-3.51a3.511 3.511 0 0 1-3.514-3.508h-3.514ZM46.38 50.879a1.054 1.054 0 1 0-2.108 0v.069h2.108-2.108c0 10.464-8.51 18.947-18.974 18.947h-.071a1.053 1.053 0 1 0 0 2.105h.131c11.582-.032 20.992-9.416 21.022-20.998v-.123Z" fill="#22398E"/><path fill="#22398E" d="M0 26.947h7.027v7.018H0zM7.027 33.965h7.027v7.018H7.027zM0 40.982h7.027V48H0zM14.055 26.947h7.027v7.018h-7.027zM14.055 40.982h7.027V48h-7.027z"/><path fill-rule="evenodd" clip-rule="evenodd" d="M46.239.914a.914.914 0 0 0-1.62-.58l-4.454 4.23L35.748.369a.889.889 0 0 0-.676-.3.91.91 0 0 0-.688.3l-4.417 4.195-4.475-4.25a.92.92 0 0 0-1.254 0 .812.812 0 0 0 0 1.192l5.047 4.792a.909.909 0 0 0 .688.3.908.908 0 0 0 .675-.3l4.418-4.195 4.417 4.195a.909.909 0 0 0 .688.3.909.909 0 0 0 .675-.3l3.566-3.385v7.613H34.15a.842.842 0 1 0 0 1.684H45.397a.842.842 0 0 0 .841-.876V.914Z" fill="#22398E"/><path d="M94.427 15.51c.583-.004 1.17-.004 1.753-.004l.003 2.898h2.196c0 .439-.003.878 0 1.317h-2.196c.05 1.89-.105 3.786.067 5.668.243 1.145 1.655.773 2.498.78.088.481.18.962.267 1.444-1.496.186-3.63.375-4.31-1.346-.563-2.135-.159-4.393-.278-6.578-.471-.053-.939-.109-1.41-.161.004-.281.004-.84.004-1.12.467-.004.938-.004 1.406-.008v-2.89ZM33.993 18.32c1.314-.513 2.646.108 3.746.807.014-.179.035-.544.05-.723.491 0 .983 0 1.475.003-.021 3.273.038 6.55-.021 9.827.014 1.138-.65 2.287-1.771 2.638-1.258.323-2.576.137-3.858.176l-.232-1.497c1.124-.014 2.263.106 3.373-.09 1.023-.461.678-1.775.808-2.656-1.377.787-3.24 1.113-4.557.035-1.402-1.205-1.223-3.256-1.195-4.924-.007-1.465.619-3.186 2.182-3.597Zm.527 1.524c-1.11.607-.938 2.072-.987 3.147.025 1.025-.021 2.451 1.128 2.904 1.012.457 1.996-.242 2.853-.713-.01-1.528-.01-3.055-.004-4.583-.878-.538-1.935-1.345-2.99-.755ZM42.267 19.538c1.392-1.924 4.698-1.847 5.984.162.787 1.053.671 2.437.664 3.677-1.925.053-3.851.025-5.776.035.14.963.196 2.192 1.23 2.648 1.233.425 2.543 0 3.77-.256.119.47.235.945.354 1.415-1.887.513-4.3 1.04-5.87-.474-.97-.853-1.136-2.212-1.094-3.428.007-1.278-.102-2.707.738-3.779Zm.843 2.543c1.388.014 2.776.018 4.164-.003 0-1.265-.875-2.701-2.319-2.424-1.265.084-1.655 1.391-1.844 2.427ZM52.63 19.127c1.476-1.183 3.728-1.394 5.067.127.99-.671 2.143-1.346 3.39-1.05 1.343.126 2.298 1.383 2.295 2.69.091 2.202.05 4.415-.01 6.62-.57.01-1.139.018-1.708.025-.025-2.11.038-4.222-.014-6.333.02-.61-.27-1.299-.917-1.457-.977-.415-1.866.365-2.674.811.172 2.322.063 4.65.091 6.976h-1.756c-.078-2.319.158-4.658-.113-6.962-.611-1.598-2.547-.78-3.486.039-.007 2.307-.003 4.615-.003 6.922h-1.669v-9.131h1.427l.08.723ZM66.915 18.93c1.578-1.26 4.171-.994 5.359.678.832 1.064.72 2.483.72 3.755-1.936.08-3.876.017-5.811.074.193.976.26 2.304 1.39 2.68 1.213.319 2.46-.05 3.648-.32.112.477.225.955.34 1.433-1.865.484-4.216 1.022-5.8-.418-1.41-1.23-1.16-3.263-1.145-4.938-.011-1.107.428-2.241 1.3-2.944Zm.267 3.144c1.388.024 2.773.024 4.16 0 .029-1.335-.99-2.8-2.473-2.389-1.195.162-1.465 1.416-1.686 2.389ZM75.602 19.5c1.377-1.837 4.49-1.792 5.847.045.882 1.071.787 2.525.755 3.828-1.918.064-3.84.022-5.762.043.172.969.207 2.276 1.3 2.676 1.23.369 2.508-.032 3.717-.299.113.475.228.949.348 1.423-1.637.439-3.464.857-5.08.123-1.206-.611-1.895-1.967-1.884-3.291-.004-1.524-.239-3.26.759-4.548Zm.826 2.581c1.402.014 2.8.014 4.202 0-.162-1.082-.615-2.42-1.936-2.444-1.444-.19-2.154 1.229-2.266 2.444ZM85.918 19.166c1.11-.703 2.442-1.363 3.777-.86 1.195.287 1.852 1.492 1.89 2.65.064 2.192.07 4.395-.042 6.586l-1.683-.01c-.014-2.006.021-4.011 0-6.013.014-.703-.162-1.626-.98-1.788-.991-.351-1.887.383-2.713.822.007 2.329 0 4.654.004 6.982h-1.757v-9.128c.485-.003.97-.003 1.458-.003.01.19.035.572.046.762ZM100.941 19.545c1.388-1.932 4.712-1.85 5.991.162.776 1.06.675 2.43.661 3.67-1.926.053-3.848.025-5.773.035.123.966.182 2.185 1.215 2.645 1.234.432 2.551.003 3.781-.253l.351 1.401c-1.813.517-4.079 1.012-5.681-.291-.973-.762-1.328-2.034-1.272-3.224.014-1.395-.183-2.965.727-4.145Zm.847 2.536c1.388.014 2.779.018 4.167-.003-.021-1.254-.854-2.68-2.294-2.427-1.279.063-1.701 1.383-1.873 2.43ZM47.785 32.273c.73.004 1.465.004 2.196.004v6.585h6.588v-6.585h2.108c-.01 5.128.017 10.256-.014 15.383-.7.032-1.395.06-2.087.106-.014-2.353-.004-4.707-.007-7.06-2.196 0-4.392.004-6.585-.003-.007 2.342-.003 4.685-.003 7.028h-2.196c0-5.153-.004-10.305 0-15.458ZM62.693 37.879c1.634-2.487 5.826-2.48 7.488-.028.99 1.313.892 3.034.906 4.587-2.396.228-4.803.063-7.206.115.133 1.114.12 2.505 1.216 3.162 1.553.895 3.4.186 5.01-.166.14.584.281 1.166.425 1.75-1.996.562-4.234 1.138-6.205.193-1.56-.717-2.456-2.417-2.466-4.095-.022-1.844-.278-3.91.832-5.518Zm1.89.829c-.534.625-.537 1.496-.716 2.258 1.725.007 3.45.01 5.175-.004-.13-.628-.172-1.289-.442-1.879-.71-1.471-3.026-1.63-4.016-.375ZM87.85 37.32c1.732-1.605 4.736-1.85 6.292.123 1.153-.822 2.47-1.626 3.953-1.39 1.662.024 3.099 1.453 3.141 3.111.102 2.827.021 5.662.028 8.49-.695.034-1.395.07-2.087.115-.024-2.543.014-5.086-.007-7.628-.014-.742-.133-1.651-.868-2.03-1.219-.584-2.86 0-3.59 1.064-.07 2.848.006 5.704-.022 8.555h-2.108c-.014-2.525.021-5.05-.007-7.572.004-.878-.242-1.995-1.247-2.21-1.237-.357-2.326.419-3.24 1.142.028 2.88.007 5.76.01 8.64h-2.104V36.312c.583.004 1.17.007 1.753.014.025.25.078.745.102.994ZM104.898 37.875c1.637-2.469 5.772-2.476 7.459-.052 1.072 1.327.899 3.115.819 4.706-2.344.042-4.688.007-7.031.024.039 1.177.116 2.666 1.321 3.274 1.553.723 3.296.06 4.863-.281.13.583.263 1.166.4 1.749-1.932.572-4.075 1.085-6.022.291-1.669-.663-2.667-2.458-2.614-4.214.035-1.837-.32-3.892.805-5.497Zm2.041.64c-.657.635-.661 1.608-.829 2.444 1.693.017 3.39.014 5.087.007-.119-.73-.094-1.542-.565-2.16-.801-1.173-2.695-1.236-3.693-.291ZM117.904 37.303c1.49-1.124 3.549-1.742 5.309-.864 1.388.653 1.799 2.3 1.782 3.709-.004 2.5.024 5.005-.035 7.505-.692.042-1.381.074-2.07.11-.024-2.533.032-5.066-.017-7.598-.053-.786-.18-1.794-1.019-2.125-1.339-.548-2.678.278-3.721 1.065.024 2.876.003 5.749.01 8.626h-2.108V36.316h1.767c.025.246.078.74.102.987ZM73.75 36.354c.685-.024 1.37-.038 2.055-.049.007 2.35-.017 4.696 0 7.046.057.892.011 2.068.924 2.56 1.353.67 2.762-.193 3.834-.99-.032-2.87-.004-5.736-.014-8.605h2.108c0 3.814.004 7.628-.004 11.446-.576-.021-1.152-.021-1.725-.091l-.193-.96c-1.36 1.012-3.138 1.687-4.81 1.047-1.451-.432-2.193-1.966-2.193-3.392-.066-2.67-.063-5.342.018-8.012Z" fill="#22398E"/></svg>