<svg width="129" height="82" fill="none" xmlns="http://www.w3.org/2000/svg"><g clip-path="url(#a)"><path d="m75.7 24.823-5.622-5.755 5.621 5.755ZM57.096 32.267l5.62 5.727 1.713-1.718-5.621-5.726-1.712 1.717ZM86.941 13.342l-5.62-5.726 5.62 5.726ZM94.446 5.726 88.796 0l-1.855 1.89 5.65 5.726 1.855-1.89Z" fill="#20B6EA"/><path d="m92.591 19.069-5.65-5.727 5.65 5.726ZM81.32 30.55l-5.62-5.727 5.62 5.726Z" fill="#F281B1"/><path d="m70.08 42.002-1.713 1.747 5.621 5.726 1.712-1.747-5.62-5.726ZM105.689 17.207l-5.621-5.754-1.855 1.89 5.621 5.726 1.855-1.861ZM98.213 24.823l-5.621-5.726 5.62 5.726ZM81.32 30.55l5.621 5.726h.029l-5.65-5.726Z" fill="#F7EC33"/><path d="m109.484 24.823 1.854-1.89-5.649-5.726-1.855 1.89 5.65 5.726ZM98.213 24.823l5.621 5.726-5.621-5.726Z" fill="#8DC640"/><path d="M103.834 19.069v.028l1.855-1.89-1.855 1.862ZM75.7 47.728l-1.712 1.747 1.712-1.747Z" fill="#8DC640"/><path d="m79.61 55.201 5.649 5.726 1.683-1.746-5.62-5.726-1.713 1.746ZM109.482 24.823l5.622 5.726 1.854-1.89-5.621-5.725-1.855 1.89ZM92.592 42.002l5.62 5.726-5.62-5.726ZM103.834 30.55l5.65 5.726-5.65-5.726Z" fill="#059960"/><path d="M81.321 53.455 79.61 55.2l1.712-1.746ZM109.482 24.823l1.855-1.89-1.855 1.89Z" fill="#059960"/><path d="m103.834 42.002-5.621 5.726 1.312 1.317.428.459 5.622-5.727-.571-.6-1.17-1.175ZM73.873 11.51l-5.621 5.726.6.601 1.226 1.231 5.621-5.726-1.826-1.832ZM86.941 24.823l-5.62 5.726 5.62-5.726ZM81.32 19.097l-4.507 4.581 4.508-4.58Z" fill="#F281B1"/><path d="m81.32 19.069-5.62-5.727-5.622 5.726 5.621 5.755 5.621-5.755Z" fill="#20B6EA"/><path d="m75.7 13.342-5.622 5.726 4.194 4.324 1.427 1.431 1.113-1.145 4.508-4.58-5.62-5.756Z" fill="#6966AC"/><path d="m86.941 24.823-5.62-5.755-5.622 5.755 5.621 5.726 5.621-5.726Z" fill="#F281B1"/><path d="m81.32 19.097-5.62 5.726 5.62 5.727 5.621-5.727-5.62-5.726Z" fill="#EB4A97"/><path d="m81.32 30.55 5.65 5.726 5.621-5.727-5.65-5.726-5.62 5.726Z" fill="#F7EC33"/><path d="m86.941 24.823-5.62 5.726 5.62 5.727h.029l4.194-4.295 1.427-1.432-5.65-5.726Z" fill="#E77B35"/><path d="m86.97 36.276 5.622 5.726 5.62-5.726-5.62-5.726-5.621 5.726Z" fill="#8DC640"/><path d="m92.592 30.55-5.621 5.726 5.62 5.726 5.622-5.726-5.621-5.726Z" fill="#936D3A"/><path d="M86.941 36.276h.029l5.621-5.726-5.65 5.726Z" fill="#8DC640"/><path d="m92.592 30.55-1.427 1.431-4.194 4.295 5.62-5.726Z" fill="#936D3A"/><path d="m98.213 36.276-5.621 5.726 5.62 5.726 5.622-5.726-5.621-5.726Z" fill="#059960"/><path d="m98.213 36.276-3.766 3.808-1.855 1.918 2.796 2.863 2.825 2.863 5.621-5.726-5.621-5.726Z" fill="#4C5C4E"/><path d="m92.592 42.002 5.62-5.726-5.62 5.726Z" fill="#059960"/><path d="m98.213 36.276-5.621 5.726 5.62-5.726Z" fill="#4C5C4E"/><path d="m75.7 24.823-5.622 5.726 5.621-5.726ZM98.213 47.728l-3.766 3.808-1.855 1.919.856.887.884.888h-.028l5.65-5.727-.429-.458-1.312-1.317ZM81.32 30.55l-5.62 5.726 5.62-5.726ZM68.251 17.236l-5.65 5.726h.03l1.797 1.833 1.683-1.718 3.966-4.009-1.227-1.23-.599-.602Z" fill="#F9ED32"/><path d="m68.252 17.236.6.601-.6-.6Z" fill="#E77B35"/><path d="m70.077 30.55 5.621-5.727-5.62-5.755-5.65 5.727 5.65 5.754Z" fill="#20B6EA"/><path d="m70.077 19.068-3.966 4.009-1.683 1.718 1.54 1.574 4.11 4.18 5.62-5.726-1.426-1.431-4.195-4.324Z" fill="#59AD55"/><path d="m75.7 24.823-5.622 5.726 5.621 5.727 5.621-5.727-5.62-5.726Z" fill="#F281B1"/><path d="m75.7 24.823-5.622 5.726 2.996 3.035 2.625 2.692 5.621-5.727-5.62-5.726Z" fill="#E77B35"/><path d="m59.293 41.458-5.764 5.784 5.764 5.783 5.764-5.783-5.764-5.784Z" fill="#F9ED32"/><path d="m81.32 30.55-5.62 5.726 5.62 5.726 5.621-5.726-5.62-5.726Z" fill="#F7EC33"/><path d="m81.32 30.55-5.62 5.726 4.222 4.294 1.398 1.432 5.621-5.726-5.62-5.726Z" fill="#EBE415"/><path d="m81.32 42.002 5.65 5.726 5.621-5.726-5.621-5.726-5.65 5.726Z" fill="#8DC640"/><path d="m86.97 36.276-5.65 5.726 5.65 5.726 5.621-5.726-5.621-5.726Z" fill="#86C240"/><path d="m86.941 36.276-5.62 5.726 5.649-5.726h-.029Z" fill="#8DC640"/><path d="m86.941 36.276-5.62 5.726 5.649-5.726h-.029Z" fill="#86C240"/><path d="m86.97 47.728 5.622 5.727 5.62-5.727-5.62-5.726-5.621 5.726Z" fill="#8DC640"/><path d="M86.941 47.728h.029l5.621-5.726-5.65 5.726Z" fill="#059960"/><path d="m92.592 42.002-5.621 5.726 5.62-5.726Z" fill="#0F974A"/><path d="m79.61 5.87-1.827-1.833-5.62 5.726 1.825 1.833L79.61 5.87Z" fill="#20B6EA"/><path d="m109.455 36.276-5.621 5.726 1.741 1.775 5.621-5.726-1.741-1.775ZM86.142 14.173l-1.997 2.032-2.825 2.864 4.823-4.896ZM92.592 19.097l-2.825 2.863-2.796 2.863 5.62-5.726Z" fill="#F9ED32"/><path d="m81.32 19.069 5.621-5.727-5.62-5.726-5.622 5.726 5.621 5.726Z" fill="#20B6EA"/><path d="m81.32 7.616-5.62 5.726 5.62 5.726 4.823-4.896.798-.83-2.796-2.863-2.825-2.863Z" fill="#59AD55"/><path d="m92.591 19.069-5.65-5.727-5.62 5.726 5.62 5.755 5.65-5.755Z" fill="#F281B1"/><path d="m86.941 13.342-.799.83-4.822 4.896 5.621 5.755 5.65-5.726-5.65-5.755Z" fill="#E77B35"/><path d="m92.592 30.55 5.62-5.727-5.62-5.726-5.621 5.726 5.62 5.727Z" fill="#F7EC33"/><path d="m92.592 19.097-5.621 5.726 5.62 5.727 5.622-5.727-3.766-3.836-1.855-1.89Z" fill="#EBE415"/><path d="m92.592 30.55 5.62-5.727-5.62 5.726Z" fill="#8DC640"/><path d="m98.213 24.823-5.621 5.726 5.62-5.726Z" fill="#86C240"/><path d="m98.213 36.276 5.621 5.726 5.621-5.726-5.621-5.726-5.621 5.726Z" fill="#059960"/><path d="m114.847 41.744-5.65 5.727 5.65 5.726 5.621-5.726-5.621-5.727Z" fill="#F9ED32"/><path d="m98.213 36.276 5.621-5.726-5.621 5.726Z" fill="#059960"/><path d="m103.834 30.55-5.621 5.726 5.621-5.726Z" fill="#0F974A"/><path d="m103.834 42.002 1.17 1.174.571.601-1.741-1.775Z" fill="#E77B35"/><path d="m103.834 42.002 1.17 1.174-1.17-1.174Z" fill="#E34B32"/><path d="m103.834 42.002 1.741 1.775-1.741-1.775Z" fill="#DE7929"/><path d="m73.873 11.51 1.826 1.832-1.826-1.832Z" fill="#E77B35"/><path d="m75.7 13.342 5.62 5.755v-.029l-5.62-5.726Z" fill="#20B6EA"/><path d="m75.7 13.342 5.62 5.755v-.029l-5.62-5.726Z" fill="#706546"/><path d="m86.941 24.823-5.62-5.755 5.62 5.755Z" fill="#F281B1"/><path d="m81.32 19.068 5.621 5.755-5.62-5.755Z" fill="#E34B32"/><path d="m92.591 30.55-5.621-5.727h-.029l5.65 5.726Z" fill="#F7EC33"/><path d="M86.97 24.823h-.029l5.65 5.726-5.621-5.726Z" fill="#DE7929"/><path d="m92.592 30.55 5.62 5.726-5.62-5.726Z" fill="#8DC640"/><path d="m92.592 30.55 5.62 5.726-5.62-5.726Z" fill="#8F6C39"/><path d="m103.834 42.002-5.621-5.726 5.621 5.726Z" fill="#059960"/><path d="m98.213 36.276 5.621 5.726-5.621-5.726Z" fill="#4B5B3E"/><path d="M92.592 53.455 86.97 59.18l1.712 1.775 5.62-5.726-.855-.888-.856-.887ZM62.602 22.962 56.98 28.69l1.826 1.86 5.62-5.726-1.825-1.86ZM70.077 30.55l-3.595 3.636-2.054 2.09 5.65-5.726ZM75.7 36.276l-5.622 5.726 5.621-5.726Z" fill="#8AC641"/><path d="m64.428 24.823-5.621 5.726 5.62 5.727 5.65-5.727-5.65-5.726Z" fill="#20B6EA"/><path d="m64.428 24.823-5.621 5.726 5.62 5.727 5.65-5.727-5.65-5.726Z" fill="#00A44C"/><path d="m81.32 42.002-5.62-5.726-5.622 5.726 5.621 5.726 5.621-5.726Z" fill="#F7EC33"/><path d="m75.7 36.276-5.622 5.726 5.621 5.726 5.621-5.726-5.62-5.726Z" fill="#86C240"/><path d="m81.32 42.002-5.62 5.726 5.62 5.727 5.621-5.727-5.62-5.726Z" fill="#8DC640"/><path d="m81.32 42.002-5.62 5.726 5.62 5.727 5.621-5.727-5.62-5.726Z" fill="#36B24A"/><path d="m81.32 42.002-5.62 5.726 5.62-5.726Z" fill="#8DC640"/><path d="m81.32 42.002-5.62 5.726 5.62-5.726Z" fill="#36B24A"/><path d="m86.941 47.728-5.62 5.727 5.62 5.726 5.65-5.726-5.65-5.727Z" fill="#059960"/><path d="m86.941 47.728-5.62 5.727 5.62 5.726 5.65-5.726-5.65-5.727Z" fill="#00944A"/><path d="m81.32 53.455 5.621-5.727-5.62 5.727Z" fill="#059960"/><path d="m86.941 47.728-5.62 5.727 5.62-5.727Z" fill="#00944A"/><path d="m92.592 53.455.856.887.856.888h.028l-.884-.888-.856-.887Z" fill="#86C240"/><path d="m92.592 53.455.856.887-.856-.887Z" fill="#30B14A"/><path d="M62.63 22.962h-.028l1.826 1.861v-.028l-1.798-1.833Z" fill="#86C240"/><path d="M62.63 22.962h-.028.028l1.798 1.833-1.798-1.833Z" fill="#7EC042"/><path d="m62.602 22.962 1.826 1.861-1.826-1.86Z" fill="#30B14A"/><path d="M64.428 24.795v.028l5.65 5.727-5.65-5.755Z" fill="#20B6EA"/><path d="M64.428 24.795v.028l5.65 5.727-4.11-4.18-1.54-1.575Z" fill="#00A44B"/><path d="m70.078 30.55 5.621 5.726-5.62-5.726Z" fill="#F281B1"/><path d="m70.078 30.55 5.621 5.726-2.625-2.692-2.996-3.034Z" fill="#8F6C39"/><path d="m75.7 36.276 5.62 5.726-5.62-5.726Z" fill="#F7EC33"/><path d="m75.7 36.276 4.222 4.295-4.223-4.295Z" fill="#7EC042"/><path d="m75.7 36.276 4.222 4.295-4.223-4.295Z" fill="#79BC43"/><path d="m75.7 36.276 5.62 5.726-1.398-1.431-4.223-4.295Z" fill="#7EC042"/><path d="m81.32 42.002 5.621 5.726h.029l-5.65-5.726Z" fill="#8DC640"/><path d="m81.32 42.002 5.621 5.726h.029-.029l-5.62-5.726Z" fill="#30B14A"/><path d="m92.591 53.455-5.621-5.727h-.029l5.65 5.727Z" fill="#059960"/><path d="M86.97 47.728h-.029l5.65 5.727-5.621-5.727Z" fill="#00934A"/><path d="m115.104 30.55-5.622 5.726 1.712 1.775 5.65-5.755-1.74-1.746ZM92.591 7.616l-5.65 5.726 5.65-5.726ZM98.213 13.342l-5.621 5.755 5.62-5.755ZM85.144.029l-5.65 5.726 1.826 1.86 5.621-5.725L85.144.029Z" fill="#8AC641"/><path d="m92.591 7.616-5.65-5.726-5.62 5.726 5.62 5.726 5.65-5.726Z" fill="#20B6EA"/><path d="m86.941 1.89-5.62 5.726 5.62 5.726 5.65-5.726-5.65-5.726Z" fill="#00A44C"/><path d="m92.591 19.069 5.621-5.727-5.621-5.726-5.65 5.726 5.65 5.726Z" fill="#F281B1"/><path d="M99.867.2 98.27 1.832l5.622 5.727 1.598-1.604v-.028L99.867.2Z" fill="#8AC641"/><path d="m98.213 24.823 5.621-5.755-5.621-5.726-5.621 5.755 5.62 5.726Z" fill="#F7EC33"/><path d="m98.213 13.342-5.621 5.755 5.62 5.726 1.884-1.918 3.738-3.808v-.029.03-.03l-5.621-5.726Z" fill="#86C240"/><path d="m103.834 30.55 5.65-5.727-5.65-5.726-5.621 5.726 5.621 5.727Z" fill="#8DC640"/><path d="m103.834 19.097-4.052 4.123-1.57 1.603 5.622 5.727 5.65-5.727-5.65-5.726Z" fill="#36B24A"/><path d="m115.989 6.728-5.649 5.726 5.621 5.727 5.65-5.727-5.622-5.726Z" fill="#8AC641"/><path d="M103.834 19.097v-.029l-5.621 5.755 5.621-5.726Z" fill="#8DC640"/><path d="m103.834 19.097-5.621 5.726 5.621-5.726Z" fill="#36B24A"/><path d="m109.484 24.823-5.65 5.726 5.65 5.727 5.621-5.727-5.621-5.726Z" fill="#059960"/><path d="m109.484 24.823-5.65 5.726 5.65 5.727 5.621-5.727-5.621-5.726Z" fill="#45A357"/><path d="m103.834 30.55 5.65-5.727-5.65 5.726Z" fill="#059960"/><path d="m109.484 24.823-5.65 5.726 5.65-5.726Z" fill="#00944A"/><path d="m92.592 42.002-5.621 5.726 5.62 5.727 5.622-5.727-2.825-2.863-2.796-2.863Z" fill="#36B24A"/><path d="m92.592 42.002-5.621 5.726 5.62-5.726Z" fill="#00934A"/><path d="M13.44 75.787h-.058V81.8l-.057.085c-.142 0-.428-.028-.57-.028-.143 0-.4.028-.571.028l-.057-.085v-8.218l.057-.085c.143.028.428.057.542.057.114 0 .371-.029.514-.057l.085.057 4.138 5.984h.057V73.61l.057-.086c.142.029.428.057.542.057.143 0 .428 0 .57-.057l.058.086v8.217l-.086.086c-.143 0-.37-.029-.485-.029-.114 0-.342.03-.456.03l-.115-.087-4.165-6.04ZM27.136 77.963c0-2.29-1.17-3.436-2.768-3.436-1.627 0-2.625 1.432-2.625 2.92 0 2.205 1.113 3.408 2.796 3.408 1.512.028 2.596-1.203 2.596-2.892Zm1.37-.172c0 2.405-1.57 4.209-4.053 4.209-2.425 0-4.08-1.718-4.08-4.209 0-2.605 1.683-4.352 4.08-4.352 2.426 0 4.052 1.747 4.052 4.352ZM36.61 77.963c0-2.29-1.17-3.436-2.768-3.436-1.627 0-2.625 1.432-2.625 2.92 0 2.205 1.112 3.408 2.796 3.408 1.483.028 2.596-1.203 2.596-2.892Zm1.34-.172C37.95 80.196 36.381 82 33.9 82c-2.426 0-4.08-1.718-4.08-4.209 0-2.605 1.683-4.352 4.08-4.352 2.425 0 4.051 1.747 4.051 4.352ZM41.802 77.419c.856 0 1.626-.4 1.626-1.517 0-1.06-.799-1.432-1.54-1.432-.286 0-.828 0-1.028.057v2.835c.285.028.657.057.942.057Zm-.942 4.41-.057.085c-.114 0-.485-.029-.628-.029-.142 0-.428.03-.542.03l-.057-.087v-8.217l.057-.086a46.553 46.553 0 0 1 2.283-.086c1.912 0 2.882.916 2.882 2.463 0 1.173-.714 1.89-1.484 2.233l2.226 3.693-.057.086c-.143 0-.542-.029-.714-.029-.142 0-.485.03-.627.03l-.086-.087-1.997-3.464c-.114.028-.343.028-.457.028-.2 0-.57-.028-.713-.057v3.493h-.029ZM47.852 74.585v6.241c.314.058.941.086 1.284.086 1.626 0 2.91-.945 2.91-3.264 0-2.29-1.198-3.12-2.853-3.12-.4 0-.999 0-1.341.057Zm-1.313 7.243v-8.217l.057-.086a94.64 94.64 0 0 1 2.597-.057c2.91 0 4.223 1.69 4.223 4.266 0 2.262-1.17 4.295-4.195 4.295-.513 0-1.712-.029-2.625-.086l-.057-.115ZM61.518 77.963c0-2.29-1.17-3.436-2.767-3.436-1.627 0-2.625 1.432-2.625 2.92 0 2.205 1.112 3.408 2.796 3.408 1.512.028 2.596-1.203 2.596-2.892Zm1.37-.172c0 2.405-1.57 4.209-4.052 4.209-2.425 0-4.08-1.718-4.08-4.209 0-2.605 1.683-4.352 4.08-4.352 2.425 0 4.052 1.747 4.052 4.352ZM70.993 77.963c0-2.29-1.17-3.436-2.768-3.436-1.626 0-2.625 1.432-2.625 2.92 0 2.205 1.113 3.408 2.796 3.408 1.484.028 2.597-1.203 2.597-2.892Zm1.37-.172c0 2.405-1.57 4.209-4.052 4.209-2.426 0-4.08-1.718-4.08-4.209 0-2.605 1.683-4.352 4.08-4.352 2.425 0 4.051 1.747 4.051 4.352ZM78.269 75.157l-.114.029c-.543-.487-1.256-.687-1.912-.687-.8 0-1.37.43-1.37 1.088 0 .773.485 1.088 1.512 1.403 1.456.43 2.454.973 2.454 2.577 0 1.288-.913 2.433-2.739 2.433-1.027 0-2.054-.286-2.796-.859l-.029-.114.428-1.031.114-.029c.6.573 1.456.974 2.283.974.913 0 1.427-.573 1.427-1.203 0-.887-.542-1.202-1.684-1.517-1.34-.372-2.254-.974-2.254-2.377 0-1.46 1.256-2.376 2.682-2.376.828 0 1.57.172 2.369.687l.028.086-.4.916ZM85.63 73.497l.086.085-.114 1.146-.086.057c-.37-.143-.998-.172-1.426-.172h-.942V81.8l-.057.085c-.114 0-.428-.028-.6-.028-.142 0-.484.028-.57.028l-.057-.085v-7.187h-.856c-.456 0-1.141.058-1.512.172l-.086-.057.086-1.145.085-.086c.742.028 2.369.057 2.91.057.714 0 2.255 0 3.14-.057ZM89.112 77.59c.884 0 1.569-.543 1.569-1.603 0-.973-.57-1.546-1.57-1.546-.256 0-.741 0-.941.058v2.977c.228.058.628.115.942.115Zm-2.255 4.238v-8.217l.058-.086a46.678 46.678 0 0 1 2.254-.086c1.797 0 2.825.945 2.825 2.548 0 1.289-.742 2.549-2.854 2.549-.342 0-.742-.058-.999-.115V81.8l-.057.086c-.085 0-.428-.028-.627-.028-.114 0-.457.028-.571.028l-.029-.057ZM99.755 77.963c0-2.29-1.17-3.436-2.768-3.436-1.626 0-2.625 1.432-2.625 2.92 0 2.205 1.113 3.408 2.796 3.408 1.484.028 2.597-1.203 2.597-2.892Zm1.369-.172c0 2.405-1.57 4.209-4.051 4.209-2.426 0-4.08-1.718-4.08-4.209 0-2.605 1.683-4.352 4.08-4.352 2.425 0 4.051 1.747 4.051 4.352ZM104.005 80.826h1.055c1.085 0 1.655 0 2.112-.172l.086.058-.086 1.116-.086.086c-.684-.029-1.626-.029-2.311-.029-.485 0-1.855.03-1.997.03l-.057-.087v-8.217l.057-.086c.142.029.399.057.57.057.2 0 .457-.028.6-.057l.057.086v7.215ZM109.826 74.585v6.241c.314.058.942.086 1.284.086 1.627 0 2.939-.945 2.939-3.264 0-2.29-1.198-3.12-2.853-3.12-.4 0-1.027 0-1.37.057Zm-1.312 7.243v-8.217l.057-.086a94.66 94.66 0 0 1 2.596-.057c2.911 0 4.223 1.69 4.223 4.266 0 2.262-1.17 4.295-4.194 4.295-.514 0-1.712-.029-2.625-.086l-.057-.115ZM121.554 81.914c-.657-.029-1.57-.029-2.312-.029-.57 0-1.797.03-2.168.03l-.086-.087v-8.217l.086-.086c.285 0 1.655.057 1.997.057.457 0 1.712-.028 2.426-.057l.057.086-.086 1.145-.086.058c-.513-.144-1.055-.172-1.854-.172h-1.227v2.348h2.711l.085.085-.057 1.002-.086.086a14.282 14.282 0 0 0-1.54-.085h-1.113v2.777h1.17c1.17 0 1.683-.029 2.168-.172l.057.057-.085 1.117-.057.057ZM125.321 77.419c.856 0 1.626-.4 1.626-1.517 0-1.06-.799-1.432-1.541-1.432-.257 0-.827 0-1.027.057v2.835c.285.028.656.057.942.057Zm-.971 4.41-.057.085c-.114 0-.485-.029-.627-.029-.143 0-.428.03-.543.03l-.057-.087v-8.217l.057-.086a46.577 46.577 0 0 1 2.283-.086c1.883 0 2.882.916 2.882 2.463 0 1.173-.713 1.89-1.484 2.233l2.226 3.693-.057.086c-.143 0-.542-.029-.713-.029-.143 0-.486.03-.628.03l-.086-.087-1.997-3.464c-.114.028-.343.028-.457.028a5.16 5.16 0 0 1-.713-.057v3.493h-.029Z" fill="#636466"/><path d="M1.114 66.997c0 .63.342 1.146.941 1.146.428 0 .742-.2 1.027-.487l.514-2.434c-.171-.172-.457-.286-.77-.286-.742-.029-1.712.515-1.712 2.061Zm1.655-2.52c.428 0 .77.173.913.316l.057-.23.057-.057c.142 0 .37 0 .513-.028l.029.028-.942 4.553c-.2 1.002-.827 1.517-1.854 1.517-.742 0-1.256-.286-1.513-.486v-.058l.229-.4.057-.03c.285.23.656.459 1.255.459.685 0 1.084-.344 1.227-1.06l.2-.916h-.029c-.2.23-.627.401-1.084.401-.913 0-1.398-.802-1.398-1.517 0-1.69 1.198-2.491 2.283-2.491ZM8.703 65.966l.028-.057c.029-.086.029-.286.029-.315 0-.458-.257-.716-.685-.716-.685 0-1.341.544-1.484 1.375.685-.029 1.598-.143 2.112-.287Zm.313 2.005-.028.057c-.371.258-.885.515-1.54.515-1.057 0-1.542-.773-1.542-1.66 0-1.46.999-2.434 2.254-2.434.8 0 1.199.544 1.199 1.174 0 .172-.029.43-.143.63l-.057.057c-.713.172-1.74.315-2.596.344-.029.057-.029.171-.029.257 0 .687.37 1.145 1.056 1.145.57 0 .97-.257 1.255-.458h.057l.114.373ZM16.066 67.713l.37-1.804c.03-.143.03-.258.03-.372 0-.372-.172-.601-.657-.601-.457 0-.884.2-1.255.458 0 .143-.029.286-.058.43l-.57 2.633-.057.058c-.143 0-.371 0-.514.028l-.028-.028.542-2.577c.028-.143.057-.287.057-.372 0-.344-.2-.573-.685-.573-.457 0-.884.229-1.227.458l-.628 3.064-.057.057c-.142 0-.37 0-.513.028l-.029-.028.685-3.321c0-.086.028-.172.028-.23a.467.467 0 0 0-.142-.314l.028-.058c.114 0 .371-.057.514-.085.114.057.171.286.171.458h.029c.428-.23.856-.459 1.455-.459.428 0 .799.144.941.516.543-.344.97-.515 1.598-.515.543 0 .999.229.999.887 0 .143-.029.286-.057.458l-.4 1.947a1.452 1.452 0 0 0-.057.372c0 .143.029.258.086.344l-.028.057h-.086c-.143 0-.314 0-.4.029-.085-.058-.142-.2-.142-.373 0-.257.057-.486.057-.572ZM21.687 65.966l.028-.057c.029-.086.029-.286.029-.315 0-.458-.257-.716-.685-.716-.685 0-1.34.544-1.484 1.375.685-.029 1.598-.143 2.112-.287ZM22 67.971l-.029.057c-.37.258-.884.515-1.54.515-1.056 0-1.541-.773-1.541-1.66 0-1.46.998-2.434 2.254-2.434.799 0 1.198.544 1.198 1.174 0 .172-.028.43-.142.63l-.058.057c-.713.172-1.74.315-2.596.344-.029.057-.029.171-.029.257 0 .687.371 1.145 1.056 1.145.57 0 .97-.257 1.256-.458h.057l.114.373ZM26.822 65.966l.028-.057c.029-.086.029-.286.029-.315 0-.458-.257-.716-.685-.716-.685 0-1.341.544-1.484 1.375.685-.029 1.57-.143 2.112-.287Zm.314 2.005-.029.057c-.37.258-.884.515-1.54.515-1.056 0-1.542-.773-1.542-1.66 0-1.46 1-2.434 2.255-2.434.798 0 1.198.544 1.198 1.174 0 .172-.029.43-.143.63l-.057.057c-.713.172-1.74.315-2.596.344-.029.057-.029.171-.029.257 0 .687.371 1.145 1.056 1.145.57 0 .97-.257 1.255-.458h.057l.114.373ZM31.73 67.713l.37-1.804c.03-.143.03-.258.03-.372 0-.372-.172-.601-.657-.601-.485 0-.913.2-1.313.458l-.627 3.063-.057.058c-.143 0-.371 0-.514.028l-.028-.057.684-3.293.029-.229a.64.64 0 0 0-.143-.372l.029-.057c.114 0 .37-.057.513-.086.114.057.172.315.172.458h.028c.428-.258.913-.458 1.54-.458.572 0 1 .229 1 .888 0 .143-.029.286-.058.458l-.399 1.947a1.971 1.971 0 0 0-.057.372c0 .143.029.257.086.315l-.029.057h-.114c-.143 0-.314 0-.4.029-.085-.058-.142-.2-.142-.373 0-.114.028-.343.057-.43ZM35.982 64.506h1.113l.029.058-.143.372-.057.028c-.114-.028-.314-.028-.428-.028h-.628l-.57 2.433c-.03.115-.03.23-.03.315 0 .258.115.401.343.401.257 0 .514-.114.628-.2l.057.028.114.373-.028.057c-.143.086-.457.229-1 .229-.513 0-.74-.286-.74-.687 0-.115.028-.287.056-.43l.57-2.49h-.37c-.086 0-.228 0-.286.028l-.028-.057.143-.344.057-.028h.599l.114-.458c0-.058.029-.23.029-.287 0-.086 0-.2-.029-.315l.029-.057c.114 0 .342-.029.456-.086h.057c.029.057.057.23.057.372 0 .086-.028.315-.057.401l-.057.372ZM40.831 65.966l.029-.057c.029-.086.029-.286.029-.315 0-.458-.257-.716-.685-.716-.685 0-1.341.544-1.484 1.375.685-.029 1.598-.143 2.111-.287Zm.314 2.005-.028.057c-.371.258-.885.515-1.541.515-1.056 0-1.54-.773-1.54-1.66 0-1.46.998-2.434 2.253-2.434.8 0 1.199.544 1.199 1.174 0 .172-.029.43-.143.63l-.057.057c-.713.172-1.74.315-2.597.344-.028.057-.028.171-.028.257 0 .687.37 1.145 1.056 1.145.57 0 .97-.257 1.255-.458h.057l.114.373Z" fill="#0072BC"/></g><defs><clipPath id="a"><path fill="#fff" d="M0 0h129v82H0z"/></clipPath></defs></svg>