<svg width="150" height="62" fill="none" xmlns="http://www.w3.org/2000/svg"><path d="M33.851 52.852c0 3.516 2.042 6.425 5.315 6.425 3.275 0 5.317-2.936 5.317-6.425 0-3.49-2.042-6.452-5.317-6.452-3.299 0-5.315 2.803-5.315 6.452Zm14.534 0c0 5.553-4.347 9.148-9.219 9.148-5.106 0-9.217-3.543-9.217-9.148 0-5.237 4.06-9.176 9.217-9.176 5.474 0 9.219 3.808 9.219 9.176ZM53.96 55.84c0 1.982.889 3.78 2.958 3.78 1.728 0 2.907-1.797 2.907-3.78 0-2.01-1.179-3.782-2.907-3.782-2.07 0-2.959 1.772-2.959 3.782Zm9.557 0c0 3.728-3.09 6.08-6.599 6.08-3.51 0-6.6-2.352-6.6-6.08 0-3.729 3.09-6.082 6.6-6.082s6.599 2.353 6.599 6.082ZM69.423 59.753c.654 0 1.257-.318 1.257-.899 0-.82-1.257-1.322-2.33-1.851-1.049-.503-2.882-1.56-2.882-3.623 0-2.169 1.677-3.622 4.19-3.622 2.043 0 3.09.476 3.85.82l-.864 2.009c-.63-.264-1.65-.687-2.698-.687-.68 0-1.361.264-1.361.846 0 .793 1.152 1.216 2.304 1.771.944.424 3.012 1.56 3.012 3.517 0 2.379-2.383 3.888-4.53 3.888-2.41 0-3.72-.715-4.4-1.032l.864-2.062c.655.317 2.174.925 3.588.925ZM80.932 61.92c-2.173 0-4.11-.765-4.085-3.41v-6.452h-1.859v-2.036h1.86l1.281-4.786h2.044l.13 4.786h3.118v2.036h-3.118v5.712c-.026 1.27.499 1.745 1.572 1.956.759.133 1.492.106 1.963.106l.158 1.825c-.733.132-1.519.264-3.064.264ZM100.565 62c-5.317 0-9.506-3.595-9.506-9.148 0-5.606 4.216-9.176 9.506-9.176 3.352 0 5.002.846 5.866 1.243l-1.101 2.565c-.523-.238-2.224-.978-4.608-.978-2.828 0-5.76 2.38-5.76 6.346s2.853 6.319 5.916 6.319c1.468 0 1.964-.106 2.621-.343v-4.76h3.534v6.664c-.89.396-3.143 1.268-6.468 1.268ZM114.86 52.058c-1.31 0-1.886 1.031-2.07 2.327h4.165c-.209-1.48-.759-2.327-2.095-2.327Zm1.519 7.59c1.676 0 2.514-.398 2.985-.556l.68 1.93c-.784.318-1.701.899-4.923.899-3.562 0-5.996-2.3-5.996-6.028 0-3.782 2.749-6.135 5.892-6.135 2.933 0 5.604 1.957 5.604 6.61h-7.882c0 1.852 1.074 3.28 3.64 3.28ZM123.01 43.333l3.458-.371v18.694h-3.458V43.334ZM129.779 61.657V50.023h3.247l.105 1.745c.392-.503 1.624-2.01 3.142-2.01 1.022 0 1.703.37 2.042.607l-1.23 2.434c-.261-.159-.786-.344-1.492-.344-.995 0-1.939.82-2.383 1.19v8.011h-3.431ZM144.237 52.058c-1.309 0-1.885 1.031-2.069 2.327h4.165c-.21-1.48-.76-2.327-2.096-2.327Zm1.519 7.59c1.676 0 2.514-.398 2.985-.556l.682 1.93c-.786.318-1.703.899-4.925.899-3.561 0-5.996-2.3-5.996-6.028 0-3.782 2.749-6.135 5.892-6.135 2.933 0 5.605 1.957 5.605 6.61h-7.884c0 1.852 1.075 3.28 3.641 3.28ZM51.245 32.14c0 .573.403 1.082 1.135 1.082.769 0 1.148-.509 1.148-1.081 0-.51-.342-1.108-1.148-1.108-.733 0-1.135.598-1.135 1.108Zm-.77 5.322c.026.586.72.917 1.79.917.846 0 2.056-.51 2.132-1.3.076-.8-.542-1.004-1.16-1.004H51.56c-.303.165-1.11.623-1.084 1.387Zm1.438-3.552c-.39 0-1.072.115-1.072.624 0 .548.618.624 1.047.624h1.64c1.235 0 2.054.815 1.853 1.973-.265 1.49-1.93 2-3.039 2-1.009 0-2.787-.14-2.799-1.541 0-.904.693-1.388 1.096-1.592-.24-.114-.731-.42-.731-1.184 0-.827.731-1.274 1.01-1.35-.266-.152-.682-.483-.682-1.323 0-.917.668-1.796 2.018-1.796.605 0 .782.077.996.128h2.106v.675h-1.21c.125.14.402.483.402.993 0 1.056-.957 1.769-2.093 1.769h-.542ZM59.833 31.058c-.82 0-1.273.688-1.361 1.515h2.66c-.038-.967-.593-1.515-1.299-1.515Zm.378 4.393c.921 0 1.312-.191 1.602-.332l.279.587c-.28.152-.897.496-2.095.496-1.702 0-2.684-1.108-2.684-2.904 0-1.59 1.058-2.952 2.52-2.952 1.324 0 2.409.89 2.409 2.952h-3.795c0 1.414.642 2.153 1.764 2.153ZM69.024 36.075h-1.009v-3.782c0-.585-.064-1.108-.757-1.108-.479 0-1.097.472-1.362.676v4.214H64.85v-5.603h.996l.025.624c.265-.203.833-.751 1.665-.751.706 0 1.072.242 1.35.777.301-.23.958-.777 1.764-.777 1.135 0 1.55.777 1.55 1.719v4.011h-1.046v-3.782c0-.585-.113-1.108-.756-1.108-.554 0-1.084.447-1.374.65v4.24ZM77.28 31.058c-.817 0-1.27.688-1.359 1.515h2.658c-.038-.967-.593-1.515-1.299-1.515Zm.378 4.393c.92 0 1.311-.191 1.601-.332l.278.587c-.278.152-.896.496-2.093.496-1.7 0-2.682-1.108-2.682-2.904 0-1.59 1.058-2.952 2.518-2.952 1.324 0 2.409.89 2.409 2.952h-3.794c0 1.414.643 2.153 1.763 2.153ZM84.48 31.058c-.82 0-1.273.688-1.361 1.515h2.66c-.038-.967-.593-1.515-1.299-1.515Zm.378 4.393c.921 0 1.311-.191 1.602-.332l.277.587c-.277.152-.894.496-2.092.496-1.704 0-2.686-1.108-2.686-2.904 0-1.59 1.059-2.952 2.521-2.952 1.325 0 2.408.89 2.408 2.952h-3.794c0 1.414.643 2.153 1.764 2.153ZM93.129 36.075v-3.782c0-.585-.202-1.095-.882-1.095-.732 0-1.425.484-1.702.663v4.214h-1.047v-5.603h.996l.025.624c.277-.178.959-.751 2.068-.751 1.085 0 1.602.675 1.589 1.719v4.011h-1.047ZM99.03 36.202c-1.034 0-1.35-.675-1.35-1.553v-3.502h-1.096v-.675h1.097l.365-2.305h.63l.04 2.305h1.462v.675h-1.463v3.17c0 .726.176 1.006.744 1.121.341.064.705.026.958-.013l.088.65c-.353.064-.694.127-1.475.127ZM104.566 31.058c-.821 0-1.275.688-1.363 1.515h2.661c-.037-.967-.592-1.515-1.298-1.515Zm.377 4.393c.921 0 1.312-.191 1.602-.332l.277.587c-.277.152-.895.496-2.093.496-1.701 0-2.686-1.108-2.686-2.904 0-1.59 1.06-2.952 2.523-2.952 1.323 0 2.408.89 2.408 2.952h-3.796c0 1.414.643 2.153 1.765 2.153Z" fill="#E81D25"/><path d="M24.73 5.7c-2.967 7.92.904 16.17 4.725 19.839 5.135 4.932 6.167 8.08 5.092 14.022-1.525-6.009-2.663-8.175-5.324-11.285-3.672-4.289-9.185-13.51-4.493-22.576Z" fill="#5C2870"/><path d="M11.383 15.472c2.728-.242 9.04.24 10.92 1.332 0 0 .289 1.327.539 1.734 0 0-7.637-3.209-11.46-3.066ZM16.56 21.224c-.014.011-.306.24-.306 1.055 0 .101.01.22.02.34-.625-.95-1.51-1.135-1.52-1.136a.212.212 0 0 0-.161.2c-.002.055-.003.108-.003.165 0 .89.277 1.94.35 2.089.005.01.011.027.014.028.029-.009.04-.018.04-.04 0-.014-.005-.033-.012-.062-.126-.526-.144-1.313-.144-1.713 0-.152.003-.247.003-.252.003.024.51.012 1.168 1.015.16.241.292.526.42.83-.256-.295-.638-.607-1.195-.938a.03.03 0 0 0-.037.007.031.031 0 0 0 .003.038c.485.465 1.278 1.88 1.286 1.893a.038.038 0 0 0 .024.017c.009.001.022 0 .028-.006.258-.269.483-.381.485-.383-.291-1.021-.517-1.875-.418-3.122a.027.027 0 0 0-.015-.027c-.009-.006-.02-.004-.03.002ZM30.857 36.529l-.009-1.052a.74.74 0 0 0 .631-.74l-.09-1.006-1.31.002-.074 1.018a.74.74 0 0 0 .615.725l.008 1.06-.714.107v.208l.846-.01.846.006.001-.22-.75-.098Z" fill="#5C2870"/><path d="m29.294 32.653-.579.742a.694.694 0 0 0 .1.878l-.496.759-.673-.324-.109.178.655.434.652.44.108-.179-.467-.417.505-.771a.676.676 0 0 0 .864-.237l.451-.827-1.011-.676ZM22.886 20.663c-.253-.085-.384-.32-.582-.49-.017-.017.07-.091.132-.124.031-.019.099-.066.043-.107-.01-.011-.058-.03-.074 0a.115.115 0 0 1-.105.072c-.02-.002-.035-.017-.053-.023.04-.05.114-.06.13-.13-.143.041-.29.05-.426.123-.06.032-.018.155-.077.155-.075 0-.14-.134-.237-.075-.023.014-.028.046-.044.074-.055-.038-.12-.032-.185-.043-.322-.064-.635.052-.96-.01-.085-.018-.18.02-.255.053-.382.164-.766.301-1.164.417-.34.102-.675.223-1.023.308-.246.058-.496.068-.725.195-.133.07-.275.163-.27.334.027.64.348 1.169.44 1.805.027.18-.073.443.13.533.018.008.023-.014.032-.027.013-.016.031-.006.04.006.01.01.01.028.016.038.01.012.031.02.042.005a.214.214 0 0 0 .046-.163c-.121-.563-.352-1.087-.511-1.634.023-.004.015-.085.045-.033.343.627.44 1.283.756 1.915.024.049.105.035.142.084.014.018.298-.042.531-.148l.011-.006a.132.132 0 0 1-.08-.07c-.056-.043-.117-.048-.168-.093-.125-.115-.199-.26-.296-.39-.047-.063-.1-.201.01-.218.067-.013.107.141.177.09.03-.025.024-.085.012-.134.065.032.104.048.143-.03.016-.027.059.075.124.037.081-.047.061-.357.167-.372.396-.061.804-.135 1.09-.425.014-.014.041-.044.058-.03.099.069.143.172.173.286.027.104.114.2.136.317.02.092.016.186.066.268.015.027.078.071.081.082 0 0 .038.058.029.073a.038.038 0 0 0-.005.02c.102-.036.178-.072.362-.129h-.006c-.064-.046-.124-.11-.19-.15-.065-.037-.086-.113-.109-.183a.864.864 0 0 1-.045-.266c.005-.122-.063-.239-.053-.35.007-.04.086-.059.112-.027.109.116.122.281.184.428.056.136.09.283.18.402.025.03.063.072.113.074l.004.014c.165-.046.395-.107.344-.12-.067-.016-.12-.032-.184-.049-.06-.018-.144-.058-.154-.11a11.15 11.15 0 0 1-.133-.84c.187-.163.34-.352.511-.543.163-.183.367-.341.6-.35.128-.006.266.004.401-.013.037-.004.089.044.127.043.172-.01.422-.137.374-.346ZM6.433 32.478a.53.53 0 0 0 .737.153.538.538 0 0 0 .151-.743.527.527 0 0 0-.735-.154.54.54 0 0 0-.153.744Z" fill="#5C2870"/><path d="M7.992 31.556c-.281.693-.73 1.395-2.104 1.833a.262.262 0 0 0 .156.5c1.583-.506 2.115-1.363 2.427-2.135a.261.261 0 0 0-.141-.341.258.258 0 0 0-.338.143Z" fill="#5C2870"/><path d="M7.49 32.77c-.334.314-.285.823.273 2.013l.56.11c-.616-1.314-.482-1.738-.48-1.74.078-.074.42-.02 1.602.653l.222.126.251-.459-.22-.124c-.865-.491-1.76-1-2.208-.579ZM7.494 29.238a.53.53 0 0 1 .712.245.539.539 0 0 1-.243.718.529.529 0 0 1-.711-.244.54.54 0 0 1 .242-.719Z" fill="#5C2870"/><path d="M7.586 27.888a.264.264 0 0 0-.02.37c.954 1.067.876 1.893.65 2.628a.262.262 0 0 0 .17.326.258.258 0 0 0 .325-.171c.244-.79.38-1.86-.76-3.134a.258.258 0 0 0-.365-.019Z" fill="#5C2870"/><path d="M8.434 29.35c.165.9 1.85 1.49 2.713 1.514l.014-.523c-.82-.022-2.127-.597-2.217-1.086-.04-.222.253-.482.805-.712l-.197-.483c-.835.347-1.211.78-1.118 1.29ZM6.032 27.68a.54.54 0 0 0-.236-.72.531.531 0 0 0-.714.238.54.54 0 0 0 .236.72.528.528 0 0 0 .714-.237Z" fill="#5C2870"/><path d="M3.94 26.2a.26.26 0 0 0-.22.295.26.26 0 0 0 .293.223c1.222-.175 1.99.095 3.042 1.067.106.097.27.09.366-.016a.263.263 0 0 0-.016-.37c-1.158-1.07-2.097-1.395-3.466-1.198ZM2.7 27.585a.528.528 0 0 0-.736-.154.54.54 0 0 0-.152.743.528.528 0 0 0 .736.154.538.538 0 0 0 .152-.743Z" fill="#5C2870"/><path d="m.087 29.8.084.017c.062-.92 1.412-2.633 3.05-2.98.388-.1.41-.536-.089-.447-1.86.292-3.077 2.102-3.045 3.41ZM1.161 30.272a.537.537 0 0 0 .061 1.073.536.536 0 0 0 .5-.567.534.534 0 0 0-.56-.506ZM6.304 26.34c-.152-.04-.372-.723-.383-1.357l-.495.264c.015.874.306 1.483.746 1.6.559.147 1.211-.428 2.017-1.816l-.468-.21c-.972 1.67-1.371 1.532-1.417 1.52Z" fill="#5C2870"/><path d="M5.387 34.538c-.116.025-.264-.206-.332-.515-.068-.312-.029-.584.087-.61.116-.026.266.204.332.516.068.31.029.583-.087.609Zm-.135-1.235a.334.334 0 0 0-.287.027c-.003 0-.033.02-.037.02-.189.254-.19.986.208 1.292.112.03.172.03.27.022.426-.034.262-1.128-.154-1.361Zm-.462.054c-.707.016-4.102-.27-4.642-3.096 0 0-.064-.057-.124.14-.124.417.05 3.721 4.903 4.227-.393-.253-.353-1.109-.137-1.27ZM24.862 26.036l.015-.014s.383-.382.412-.382c0 0 .31.32.31.347 0 0-.384.382-.412.382l-.325-.333Zm-.29.973-.015-.015s-.31-.317-.31-.346c0 0 .385-.38.413-.38 0 0 .31.317.31.346l-.398.395Zm-.63.627-.014-.015s-.31-.319-.31-.347c0 0 .384-.381.412-.381 0 0 .31.318.31.346l-.398.396Zm-.63.626-.014-.014s-.31-.32-.31-.348c0 0 .384-.38.413-.38 0 0 .31.317.31.346l-.399.396Zm-1.66.69-.013-.014s-.235-.239-.235-.267c0 0 .624-.62.652-.62 0 0 .235.24.234.268l-.637.634Zm-.692-.703.013-.014s.625-.622.652-.62c0 0 .235.24.235.268 0 0-.624.62-.652.619l-.248-.253Zm-.426-.431.014-.015s.624-.62.652-.62c0 0 .235.24.234.269 0 0-.623.62-.652.62l-.248-.254Zm4.236-3.098-.023-.022-.01.03-.531 1.452c-.002-.039-.433-.48-.433-.48-.033.008-.487 1.381-.492 1.4-.003-.04-.439-.486-.439-.486-.032.008-.509 1.423-.51 1.43-.002-.04-1.136-1.204-1.136-1.204-.028 0-1.007.973-1.007.973 0 .028 2.285 2.372 2.285 2.372.028 0 3.86-3.81 3.86-3.81 0-.03-1.564-1.655-1.564-1.655ZM24.252 23.576a.286.286 0 0 0-.11-.085.41.41 0 0 0-.036-.43.455.455 0 0 0-.42-.137c-.195.046-.323.179-.444.317-.072.093-.144.187-.214.283l-.044-.028c.09-.25.291-.492.21-.775a.625.625 0 0 0-.307-.405.366.366 0 0 0-.394.071.294.294 0 0 0-.085.11.394.394 0 0 0-.424.038.46.46 0 0 0-.137.424c.046.196.178.324.314.447.172.137.348.276.534.395l.011.015c-.087-.044-.18-.098-.275-.142-.256-.088-.498-.303-.785-.22a.618.618 0 0 0-.401.311.374.374 0 0 0 .07.397.297.297 0 0 0 .11.086.411.411 0 0 0 .037.43c.092.108.268.17.42.137a.73.73 0 0 0 .355-.222c-.139.204-.27.387-.364.5-.115.139-.47.648-.603.763-.004.01-.008.02.001.03a.89.89 0 0 1 .287.219c.016.008.027.005.038-.009l.392-.767.248-.52c.063-.124.2-.35.346-.582l-.005.01c-.087.259-.3.503-.218.792.047.186.156.32.309.407a.367.367 0 0 0 .393-.073.296.296 0 0 0 .085-.11.4.4 0 0 0 .426-.037.463.463 0 0 0 .135-.423c-.046-.197-.178-.326-.314-.449-.172-.136-.33-.28-.516-.401l-.016-.02c.087.043.18.098.276.141.255.09.497.303.784.221a.625.625 0 0 0 .402-.312.376.376 0 0 0-.07-.397ZM11.134 28.93c.014-.378-.037-1.026-.078-1.675.455.092.861.2 1.32.293l.114-.944c-.421-.026-.869-.024-1.298-.044-.018.017-.037-.004-.055-.005.08-.34.167-.664.237-1.002l-.93-.114-.009.012.014 1.013-.015.01c-.436-.097-.876-.19-1.329-.288l-.11.938c.47.011.916.032 1.367.05-.11.535-.107.838-.217 1.38.256.016.79.212.99.377ZM23.94 36.566c-.119-.22-.176-.4-.202-.748-.017-.222.032-.536.003-.546.05-.127.06-.191.152-.264.088-.07.155-.21.298-.154.04.014.06.13.089.154a.546.546 0 0 0 .318.125.516.516 0 0 0 .387-.094c.038-.024.03-.098.067-.125.04-.024.095.032.137 0 .047-.037.012-.214 0-.248.344 0 .88.047.726-.562-.08-.323-.38-.16-.658-.218-.046-.007-.075-.076-.158-.184.15 0 .182-.059.318-.127.139-.07-.02-.462-.138-.591-.11-.124-.23-.04-.385-.094-.08-.027-.038-.105-.09-.183-.047-.077-.111-.045-.184-.065.041-.05.13-.13.117-.125.046-.02.085.027.111-.03.104-.21.027-.385-.044-.529-.095-.194-.32-.113-.546-.219-.046-.021-.09-.14-.114-.187.065-.007.19-.012.136-.124-.041-.095-.146-.105-.226-.155-.083-.052-.16-.176-.25-.218-.078-.035-.177.03-.251 0-.09-.037-.075-.253-.18-.248-.325.023-.361.363-.546.53-.073.067-.143.025-.25.062-.104.034-.127.114-.226.153-.131.054-.216.136-.136.28-.277 0-.552.013-.659.187-.048.081-.022.168-.046.282-.022.12-.11.292.046.341-.155.086-.317.067-.294.342-.129.016-.228.019-.275.156-.023.081-.04.314-.02.406.038.169.327.148.43.218-.069.063.009.343.069.404-.08.091-.172.057-.296.126-.063.031-.075.112-.136.154-.027.02-.097-.025-.114.064-.053.339.265.387.432.342.032.126.085.218.182.246.173.055.285-.108.455-.028.084.04.114.142.226.186.27.1.38-.064.568-.093.19-.032.249.039.463.039.01.397.115.665.014 1.114a.727.727 0 0 1-.163.262l.843-.014Z" fill="#5C2870"/><path d="M11.54 23.645c-.008.067-.041.139-.066.194.066 0 .145.04.186.092.004-.062-.009-.127.01-.189-.057-.02-.093-.063-.13-.097Zm.393-.16c0 .054 0 .107-.018.158.029.041.08.068.107.11a.271.271 0 0 1 .075-.16.438.438 0 0 1-.164-.108Zm1.96-1.448a.2.2 0 0 1 .094.11c.029.121-.089.204-.157.278-.124.082-.225.193-.333.293l-.48.505c-.008.008-.005.016-.002.026.05.001.1-.03.145-.05a4.02 4.02 0 0 1 .805-.397c.118-.028.263-.061.348.044.078.125-.046.242-.11.334-.197.237-.422.44-.649.641-.327.237-.795.434-1.196.338a.605.605 0 0 1-.263-.157c.025.085-.022.171.017.256.164.232.225.541.33.812l.224.628c.064.182.137.362.192.549 0 .044.002.091-.029.128-.027.035-.08.039-.12.03a.122.122 0 0 1-.073-.058c-.181-.359-.27-.757-.43-1.132-.068-.196-.146-.395-.22-.597-.058-.132-.035-.297-.141-.391a.337.337 0 0 1-.104-.093.666.666 0 0 1-.27.505c-.334.246-.782.326-1.177.366-.22.02-.44.03-.654-.024-.083-.034-.17-.076-.199-.164a.28.28 0 0 1 .051-.257c.158-.164.427-.197.64-.24.134-.014.268-.023.401-.06.015-.005.043-.023.02-.037-.17-.04-.34-.023-.511-.05a3.584 3.584 0 0 0-.647-.002c-.09-.002-.212-.025-.255-.12a.287.287 0 0 1 .06-.272c.251-.208.611-.268.923-.319.348-.029.686-.099 1.033-.13.108.008.23.057.314.13 0-.05.016-.102.02-.152a.401.401 0 0 1-.345-.146c-.043-.064-.058-.148-.014-.218.037-.043.112-.075.168-.064.063 0 .124.04.185.063.056-.109.12-.21.238-.25.034 0 .077-.005.102.028.087.122.022.26-.02.387-.002.04-.074.091-.017.119.043.03.069.078.097.122.051-.42.47-.542.743-.766a5.99 5.99 0 0 1 .65-.443c.178-.071.367-.119.547-.12l.07.017ZM13.6 28.568c-.058-.212-.188-.28-.29-.252-.104.03-.18.155-.123.367.038.141.213.416.287.452l.055.027.045-.047c.054-.064.063-.414.026-.547Zm-.528.308c-.104.03-.181.155-.123.367.039.141.213.416.286.45l.054.028.046-.046c.054-.062.064-.412.027-.547-.059-.212-.188-.28-.29-.252Zm-.227.552-.11.089c-.039.07-.044.168-.013.277.038.141.212.416.286.451l.054.027.046-.045c.054-.063.064-.413.027-.547-.058-.213-.188-.28-.29-.252Zm-.233.566c-.104.03-.18.153-.123.366.038.14.212.415.287.453l.054.026.046-.045c.053-.064.063-.414.027-.549-.058-.212-.188-.28-.29-.252Zm-.245.598c-.1.029-.182.155-.123.367.037.14.212.415.286.451l.055.028.046-.046c.052-.063.062-.414.025-.547-.059-.213-.187-.28-.289-.253Zm.628-1.976c.193-.104.228-.25.179-.342-.051-.095-.188-.144-.38-.04-.123.067-.366.315-.376.397l-.007.062.064.024c.077.03.393-.031.52-.1Zm-.23.563c.192-.105.228-.248.177-.343-.051-.095-.189-.143-.38-.038-.122.065-.367.313-.375.397l-.006.06.062.026c.076.03.394-.033.521-.102Zm-.234.549c.191-.104.226-.25.18-.342-.053-.095-.19-.144-.383-.04-.121.067-.366.314-.374.397l-.006.061.062.026c.077.028.394-.033.521-.102Zm-.239.562c.192-.104.228-.245.178-.341l-.108-.087c-.076-.024-.172-.007-.273.047-.123.068-.367.317-.374.398l-.005.06.06.025c.077.03.394-.032.522-.102Zm-.074.255c-.052-.095-.189-.143-.381-.04-.122.067-.367.315-.375.398l-.005.06.061.026c.077.03.394-.033.521-.103.192-.104.229-.247.18-.341Zm-.111.471c-.098-.043-.236.005-.324.207-.056.127-.095.476-.052.546l.033.052.065-.02c.078-.024.29-.27.347-.404.087-.204.028-.338-.07-.381ZM13.412 28.21l-.22-.088 1.192-3.013.22.088-1.192 3.013ZM15.246 26.305l-.234-.03.122-.94.233.03-.12.94ZM15.55 26.612c-.11-.189-.253-.22-.345-.167-.092.056-.135.197-.025.386.074.127.312.347.392.362l.06.012.033-.058c.032-.07-.04-.405-.115-.535Zm-.432.436c-.092.056-.135.197-.024.386.071.126.309.345.39.362l.06.012.033-.056c.035-.076-.045-.417-.114-.536-.11-.19-.253-.222-.345-.168Zm-.078.592c-.09.054-.136.197-.026.386.073.127.312.346.393.362l.06.01.03-.054c.036-.073-.045-.419-.113-.536-.11-.19-.252-.22-.344-.168Zm-.081.607c-.092.056-.134.197-.025.387.073.126.312.346.393.361l.059.012.032-.056c.036-.075-.044-.415-.114-.536-.11-.19-.252-.222-.345-.168Zm-.085.643c-.091.056-.134.197-.024.387.071.124.309.343.39.36l.061.014.033-.057c.036-.075-.044-.416-.115-.536-.11-.19-.252-.221-.345-.168Zm-.373-1.84c.082.008.372-.134.477-.233.16-.151.158-.299.085-.378-.072-.078-.218-.089-.378.06-.102.098-.273.402-.26.483l.01.06.066.008Zm-.08.605c.081.008.372-.135.478-.235.159-.152.157-.298.085-.377-.075-.078-.22-.09-.38.061-.1.096-.273.4-.26.483l.011.058.066.01Zm-.085.59c.083.008.372-.134.478-.234.158-.15.156-.297.085-.376-.073-.079-.22-.09-.379.06-.099.094-.273.401-.26.481l.01.061.066.009Zm-.088.607c.082.007.373-.134.477-.234.16-.151.159-.299.087-.377l-.128-.057c-.08-.002-.17.04-.251.118-.101.095-.274.4-.261.48l.01.061.066.009Zm.47.03c-.073-.077-.218-.09-.377.06-.103.098-.275.403-.26.485l.011.058.063.008c.083.009.373-.133.478-.234.16-.152.158-.298.086-.377Zm.014.485c-.106-.017-.227.065-.26.283-.021.139.03.486.091.541l.044.042.056-.035c.074-.046.212-.347.233-.481.033-.22-.059-.334-.164-.35ZM12.763 33.303c.023-.005.176-.033.316-.069.14-.036.554.086.554.086s-.052.22-.085.277c-.034.056-.17.318-.193.355a.053.053 0 0 0-.008.016 8.685 8.685 0 0 0-.379-.26.75.75 0 0 1-.034-.126c-.031-.15-.193-.273-.17-.279ZM8.5 35.63c1.752.658 3.118 1.5 4.4 2.297l.108-.66-.88-.571c.446 0 1.05.125 1.45-.508.401-.637.568-1.055.45-1.446a.803.803 0 0 0-.091-.195.275.275 0 0 1 .023-.05c.044-.069.014-.23.014-.23s.384-.31.62-.52a4.64 4.64 0 0 0 .507-.57l-.242-.24s.03-.045.065-.055c.036-.009.116-.12.14-.16.027-.042.168-.077.209-.105.045-.03.129-.13.162-.11.033.019.195.088.217.085 0 0 .106.006.135-.12.012-.055.058-.086.101-.098.035-.012-.015-.032-.017-.06l-.1-.113a.03.03 0 0 1-.016-.002c-.042-.025.126-.266.164-.277.03-.009.072.031.09.05.046.022.116.049.186.073a.264.264 0 0 0 .071-.03c.02-.01.007-.047.025-.052.125-.038.102-.105.069-.179-.048-.107-.177-.171-.143-.219.052-.075-.053-.12-.062-.159-.009-.039.084-.026.061-.126-.026-.1-.039-.107-.077-.263-.037-.155-.086-.11-.126-.133-.04-.023-.077-.103-.136-.137-.061-.036-.224.016-.336-.018-.137-.042-.122-.053-.197-.03a.405.405 0 0 0-.206.022c-.21.098-.16.119-.16.148 0 .03-.251.108-.329.19-.077.081.055.099.024.13-.03.032-.111.104-.195.193-.085.089-.033.138-.033.138a.292.292 0 0 0-.038.053c-.013.024-.004.037-.035.06a1.548 1.548 0 0 1-.45.175s-.466.038-.642.096c-.285.093-.643.232-.919.303-.276.07-.474.231-.714.415-.167.128-.21.326-.23.47a.478.478 0 0 0-.116.013s-.17-.056-.46.25c-.25.262-.464.604-.735 1.048-.3.488.377 1.214.377 1.214l-.817-.484c-.332.336-1.166.497-1.166.497ZM18.14 24.453a.185.185 0 0 1 .093.245.183.183 0 0 1-.242.094.188.188 0 0 1-.095-.246.185.185 0 0 1 .245-.093ZM20.158 24.456a.187.187 0 0 1 .094.246.185.185 0 1 1-.094-.246Z" fill="#5C2870"/><path d="M17.317 30.193c-.035-.017-.242-.284-.175-.531.037-.139.166-.175.272-.181.063-.308.132-.85.498-1.333l.085.039c-.124-.052-.62-.384-.86-1.077-.289-.832.32-1.621.32-1.621.101.53.277.897.594 1.143.347.27.737.303.744.304.056-.068.726-.934.976-1.38-.158-.11-.22-.108-.269-.42-.081-.531.51-.524.4-.577-.536-.256-.901-.126-1.215.268-.295.372-.433 1.144-.433 1.144s-.115-.09-.21-.24c-.256-.4-.16-.821-.132-.99.01-.057-.056-.055-.056-.055s-.487.188-.906.712a2.2 2.2 0 0 0-.508 1.475c.016.493.497 1.127.497 1.127s-.176.127-.25.25c-.11.183-.2.284-.237.723-.036.438.169.727.382.93.264.249.462.324.462.324l.068.144.544.33.162-.329-.602-.205-.151.026Zm2.843-4.675c-.008-.073-.164-.225-.165-.226 0 .003.01.034-.06.2-.232.562-.482.892-.737 1.312-.084.139-.2.299-.326.462a8.81 8.81 0 0 1-.326.394l-.29.364-.102.13a1.78 1.78 0 0 0-.156.267 3.916 3.916 0 0 0-.367.88c-.02.059-.037.11-.045.14-.05.18-.071.389.079.311.356-.185.937.16.937.16s.334-.46.618-.973c.284-.513.79-2.147.855-2.555.04-.254.113-.601.085-.866ZM26.3 28.141c-.082.265-.38.99-1.459 1.2l-.464.47c.987-.062 1.92-.459 2.237-1.57.103-.364.557-.36.858-.32l-.243-.329c-.273-.035-.73-.094-.93.55Z" fill="#5C2870"/><path d="M25.925 27.567c-.175.423-.164.822-.82.946l-.449.464c.837-.036 1.326-.352 1.583-1.311.098-.365.487-.417.884-.347l-.269-.302c-.273-.036-.67-.072-.929.55ZM31.201 38.335c-.572 0-1.037.469-1.037 1.047s.465 1.047 1.037 1.047c.573 0 1.038-.469 1.038-1.047s-.465-1.047-1.037-1.047Zm1.284 1.047c0 .715-.574 1.295-1.284 1.295a1.29 1.29 0 0 1-1.283-1.295 1.29 1.29 0 0 1 1.284-1.297c.709 0 1.283.58 1.283 1.297ZM28.153 39.677c-.574 0-1.039.468-1.039 1.047 0 .578.465 1.047 1.039 1.047.572 0 1.037-.469 1.037-1.047 0-.579-.465-1.047-1.037-1.047Zm1.283 1.047a1.29 1.29 0 0 1-1.283 1.296 1.29 1.29 0 0 1-1.284-1.297 1.29 1.29 0 0 1 1.284-1.295c.708 0 1.283.58 1.283 1.296Z" fill="#5C2870"/><path d="M31.438 39.382c0 .133-.106.24-.237.24a.238.238 0 0 1-.236-.24c0-.132.106-.239.236-.239s.237.107.237.24ZM28.387 40.723a.237.237 0 1 1-.473 0 .237.237 0 1 1 .473 0ZM3.053 31.613c.178.149.386.267.621.34.183.06.37.087.552.087a3.483 3.483 0 0 1-.473-.363 2.998 2.998 0 0 1-.7-.064Zm3.029-1.575c-.298.573-.93 1.449-2.04 1.613.15.122.323.24.528.356a1.863 1.863 0 0 0 1.433-1.283c.071-.23.094-.461.079-.686Zm-2.903.87a3.15 3.15 0 0 1-.694-.102c.068.188.167.365.29.521.277.084.532.128.769.139a2.174 2.174 0 0 1-.365-.558Zm.23-.003c.094.188.23.375.417.557 1.339-.094 1.985-1.28 2.198-1.779a1.873 1.873 0 0 0-.27-.59c-.267.58-.969 1.732-2.346 1.812Zm.079-2.408.031-.068a1.874 1.874 0 0 0-1.101 2.146c.244.07.47.108.682.12-.256-.837.133-1.658.388-2.198Zm-.168 2.201c1.404-.045 2.075-1.28 2.292-1.786a1.837 1.837 0 0 0-1.831-.568l-.109.242c-.26.55-.629 1.328-.352 2.112ZM26.918 36c.363-.352.7-.36 1.084.327l.183.122-.563.348-.282-.24-.087-.286-.335-.27Z" fill="#5C2870"/><path d="m28.033 36.55 1.233.719s.057.04.178.111c.152.089.3.22.304.469 0 0 .177-.113.263-.18 0 0 .192.07.012.484l-.306.145 1.465.933-.133.06-1.537-.849-.026.44.53.433-.011.357s-.136.143-.388-.043l-.168-.133-.07 1.142-.147.146c-.138.007-.247-.047-.246-.297l.007-1.334-.311-.234-.695.296c.183.348.383.973.328 1.358l-.166-.03c-.035-.297.047-.572-.48-1.357l-.454-.297c-.08-.053-.253-.18-.055-.29l.37-.164c.012.083.124.13.236.122l-.41.178.563.34.645-.257c-.055-.12-.012-.17.026-.25l.254-.494c-.02-.186-.042-.352-.311-.432 0 0-.452.588-.535.716-.126.193-.469.108-.27-.24l.377-.549c-.204-.037-.29-.16-.214-.45l.142-.57ZM21.058 36.14l-.009-.027-.024.014-2.976 1.634 3.931 1.719-.922-3.34Zm.544 4.67-.134.32-.405-.177.133-.32a.166.166 0 0 1 .218-.087l.102.045a.167.167 0 0 1 .086.219Zm-3.733-1.533-.135.32-.405-.178.134-.32a.164.164 0 0 1 .217-.086l.102.044a.168.168 0 0 1 .087.22Zm4.244.683-.047-.17-4.297-1.876-.1.054-1.269.403v.005c0 .046.12.228.12.228.02.008.164-.035.226-.053l-.39.883c.004.012.985.45 2.125.954l.34-.789a.631.631 0 0 1 .833-.333l.388.17c.32.142.469.518.328.844l-.34.792 1.933.851c.025-.01.334-.726.411-.904.033.054.128.218.128.218.031.007.199-.11.199-.11.006-.029-.588-1.167-.588-1.167ZM23.259 38.535a.318.318 0 0 1-.317-.32c0-.176.142-.32.317-.32.175 0 .317.144.317.32 0 .177-.142.32-.317.32Zm1.163-.277-.014-.013s-.313-.246-.541-.254c.165-.17.225-.578.225-.578h-.018s-.395.05-.562.208c-.002-.24-.245-.57-.245-.57l-.013.013s-.244.317-.252.547c-.168-.167-.571-.227-.571-.227v.019s.048.398.205.566c-.237.002-.564.247-.564.247l.012.014s.314.246.543.254c-.165.17-.226.577-.226.577h.019s.394-.049.561-.207c.001.24.246.57.246.57l.012-.013s.244-.317.252-.547c.169.167.572.227.572.227v-.02s-.05-.397-.205-.565c.235-.003.564-.248.564-.248ZM25.565 37.305a.316.316 0 0 1-.388-.228.317.317 0 1 1 .613-.163.321.321 0 0 1-.225.391Zm1.053-.568-.015-.01s-.366-.157-.59-.106c.117-.207.073-.616.073-.616l-.019.005s-.368.15-.489.346c-.062-.23-.382-.488-.382-.488l-.009.016s-.156.37-.104.593c-.206-.117-.61-.072-.61-.072l.003.019s.15.372.343.495c-.228.063-.483.384-.483.384l.015.01s.367.157.59.105c-.117.208-.072.618-.072.618l.017-.005s.369-.15.49-.346c.062.23.382.487.382.487l.01-.015s.155-.37.104-.595c.205.119.61.073.61.073l-.004-.019s-.148-.372-.342-.494c.227-.063.482-.385.482-.385ZM25.33 39.913a.32.32 0 0 1 .181-.613c.168.052.263.23.213.398a.316.316 0 0 1-.395.215Zm1.192.072-.009-.016s-.23-.327-.447-.4c.207-.116.381-.489.381-.489l-.018-.005s-.392-.066-.596.036c.066-.23-.073-.617-.073-.617l-.016.008s-.324.234-.398.451c-.113-.208-.482-.383-.482-.383l-.006.017s-.065.397.036.603c-.226-.066-.61.073-.61.073l.008.017s.23.327.447.4c-.208.116-.38.489-.38.489l.017.004s.392.068.597-.035c-.066.229.073.617.073.617l.015-.008s.325-.233.398-.452c.113.21.483.384.483.384l.005-.018s.066-.396-.035-.602c.226.066.61-.074.61-.074ZM27.024 29.957 26 30.781c-.172.155-.294.168-.379.056l-.147-.181-.54.23.48.357.198-.14c.173-.097.273.05.38.192l.747.992c.185.229.046.354.046.354l-.177.184.187.48.331-.444c-.252-.3-.017-.47-.017-.47l1.128-.903c.127-.11.157-.132.301.027l.157.163.54-.274-.485-.335c-.253.208-.431.167-.55.012l-.823-1.089c-.11-.161-.1-.24-.004-.315l.193-.147-.27-.572-.331.504.103.167c.098.175.11.214-.044.328Zm2.767 1.23c-.28-.188-1.4-1.023-1.4-1.023s-.611-1.522-.695-1.722c-.084-.204-.379-.347-.572-.093-.264.348-1.06 1.421-1.06 1.421s-1.314.534-1.662.73c-.348.194-.293.395-.026.605.223.175 1.035.82 1.3 1.03l.387-.297-.38-.505-.282.216-.927-.748 1.062-.464.22.278 1.107-.886-.225-.3.708-.933.49 1.098-.26.245.856 1.134.298-.194.957.666-1.077.522-.223-.264-1.14.9.185.247-.678.911-.454-1.019.264-.238-.37-.491-.39.3c.134.32.517 1.243.652 1.5.164.314.416.279.646-.009.23-.286 1-1.318 1-1.318s1.324-.608 1.635-.725c.31-.117.302-.41.054-.575ZM20.84 29.485c-.327-.3-.633-.497-.68-.443-.022.023-.014.104.054.198l-.398.44-.712.793L16.21 33.7c-.166.196-.355.343-.158.572.198.229.47.449.47.449s.21.233.642-.246l.107-.119a1.74 1.74 0 0 1-.074-.482c0-.972.782-1.762 1.747-1.762.106 0 .209.014.31.032l.75-.837.709-.79.404-.451c.115.073.203.084.226.059.048-.055-.178-.339-.505-.64Zm-3.333 4.39c0 .067.01.132.02.197L19 32.43c-.018 0-.037-.006-.055-.006-.795 0-1.438.65-1.438 1.451ZM19.451 32.325l.712-.793.269.244-2.925 3.273s.406.77-.788 2.117c-.914 1.034-1.225 1.884-1.225 1.884l-.342-.158s.18-.72 1.169-1.855c1.343-1.541.697-1.998.697-1.998l.48-.536 1.953-2.178ZM16.022 34.43c-.199.244.087.545.327.299l-.327-.3Z" fill="#5C2870"/><path d="M18.945 35.175a1.295 1.295 0 0 1-1.289-1.3c0-.72.577-1.302 1.289-1.302s1.289.582 1.289 1.301c0 .718-.577 1.301-1.29 1.301Zm0-2.88c-.865 0-1.566.707-1.566 1.58 0 .872.701 1.58 1.566 1.58.864 0 1.565-.708 1.565-1.58 0-.873-.7-1.58-1.566-1.58Z" fill="#5C2870"/><path d="M20.199 33.313a.096.096 0 0 0-.013-.076l-.066-.106a.096.096 0 0 0-.134-.028l-.666.449a.49.49 0 0 0-.335-.173l-.148-.81a.1.1 0 0 0-.043-.065.093.093 0 0 0-.074-.012l-.122.032a.095.095 0 0 0-.058.045.095.095 0 0 0-.01.075l.217.774a.498.498 0 0 0-.26.273l-.815-.11a.094.094 0 0 0-.073.021.101.101 0 0 0-.035.069l-.007.126a.093.093 0 0 0 .024.07c.017.02.04.031.067.032l.809.031a.5.5 0 0 0 .17.323l-.36.76a.1.1 0 0 0-.003.077c.01.025.028.044.053.054l.117.047a.1.1 0 0 0 .075-.002c.021-.01.04-.03.049-.054l.282-.773a.47.47 0 0 0 .355-.058l.603.58c.02.02.046.028.073.028a.099.099 0 0 0 .067-.035l.08-.098a.098.098 0 0 0-.015-.137l-.638-.507a.494.494 0 0 0 .064-.366l.723-.396a.097.097 0 0 0 .047-.06ZM28.909 13.253c.001.01.01.02.02.022 1.203.297 1.935.784 2.804 1.385.001-.002.178-.183.511-.345.008-.004.014-.016.015-.025a.037.037 0 0 0-.008-.029c-.011-.01-1.09-1.217-1.375-1.828-.006-.013-.02-.019-.034-.015a.03.03 0 0 0-.019.034c.136.637.31 1.1.505 1.44a5.192 5.192 0 0 1-.647-.664c-.734-.947-.564-1.429-.586-1.439.005 0 .094.029.238.076.376.126 1.11.392 1.565.678a.27.27 0 0 0 .054.03c.021.008.032 0 .05-.024 0-.004-.014-.016-.022-.023h.001-.001c-.117-.117-1.016-.713-1.853-.993a2.683 2.683 0 0 0-.156-.05.21.21 0 0 0-.24.09c0 .01-.105.918.59 1.815a4.568 4.568 0 0 0-.313-.124c-.767-.258-1.074-.05-1.089-.04a.03.03 0 0 0-.01.03ZM38.802 31.747l-.987-.341a.73.73 0 0 1-.893.372l-.918-.402.415-1.256.98.25a.742.742 0 0 1 .488.818l.993.342.325-.65.195.064-.275.808-.262.812-.206-.067.145-.75Z" fill="#5C2870"/><path d="m35.65 29.03.881-.321a.679.679 0 0 1 .793.373l.87-.238-.092-.746.201-.049.202.765.208.763-.203.048-.245-.58-.883.241a.687.687 0 0 1-.495.753l-.92.172-.317-1.182ZM26.399 19.108c0-.269-.18-.468-.278-.71-.01-.023-.107.037-.157.087-.028.023-.093.074-.115.007-.007-.013-.009-.065.023-.07.052-.006.083-.034.101-.08.005-.017-.004-.04-.005-.058-.059.022-.093.093-.161.085.082-.125.138-.262.248-.37.05-.047.152.032.17-.024.024-.073-.08-.177.005-.251.02-.018.052-.012.083-.02-.02-.064.007-.125.018-.19.04-.33.248-.591.294-.922.008-.088.074-.168.128-.23.275-.314.526-.638.76-.982.202-.295.421-.577.612-.886.13-.215.22-.452.41-.631.11-.106.24-.213.4-.153.594.227.99.7 1.558.99.161.082.44.07.46.292.003.02-.02.017-.035.022-.02.008-.015.029-.008.042.006.01.025.017.031.026.009.014.01.036-.007.041a.208.208 0 0 1-.169-.007c-.49-.294-.91-.68-1.375-1.004-.01.02-.085-.012-.044.032.481.526 1.066.828 1.562 1.329.037.037-.001.111.033.162.01.02-.134.272-.307.462l-.008.009a.13.13 0 0 0-.04-.098c-.023-.067-.009-.13-.035-.191-.069-.156-.182-.273-.273-.406-.045-.066-.158-.16-.21-.06-.031.06.1.147.03.198-.033.022-.087-.003-.13-.03.011.072.013.115-.074.127-.03.007.052.08-.003.13-.069.063-.354-.053-.402.043-.183.361-.38.728-.743.912-.018.009-.054.024-.048.044a.48.48 0 0 0 .215.257c.09.06.153.172.256.23.08.047.17.074.23.148.021.023.043.097.053.104 0 0 .042.054.058.05a.036.036 0 0 1 .022.003c-.067.085-.124.146-.235.304 0-.001.002-.004 0-.005-.022-.076-.065-.153-.078-.23-.017-.073-.082-.117-.14-.16-.072-.05-.147-.103-.237-.128-.115-.034-.204-.136-.312-.162-.04-.006-.082.064-.06.099.074.141.226.207.344.311.11.097.238.176.322.3.02.034.047.083.034.13l.012.009c-.095.144-.226.345-.222.292.006-.068.007-.126.012-.191.003-.064-.01-.156-.056-.183-.246-.143-.493-.27-.747-.392-.212.128-.437.215-.671.319-.223.099-.437.244-.517.465-.048.12-.081.256-.139.38-.016.033.012.098 0 .136-.063.161-.262.36-.443.247ZM42.69 7.067a.54.54 0 0 1-.09.754.528.528 0 0 1-.745-.088.541.541 0 0 1 .087-.754.53.53 0 0 1 .748.088Z" fill="#5C2870"/><path d="M41.332 8.269c.74-.05 1.542-.259 2.386-1.438a.258.258 0 0 1 .362-.058.262.262 0 0 1 .058.365c-.973 1.358-1.947 1.597-2.771 1.653a.262.262 0 0 1-.035-.522Z" fill="#5C2870"/><path d="M42.633 8.172c.4-.222.861-.014 1.805.895l-.073.573c-1.042-1.006-1.482-1.011-1.485-1.01-.092.052-.15.396.108 1.74l.05.253-.51.097-.047-.25c-.19-.985-.387-2.003.152-2.298ZM39.312 7.062a.54.54 0 0 0 .005.76c.21.207.545.205.751-.006a.54.54 0 0 0-.005-.76.528.528 0 0 0-.752.006Z" fill="#5C2870"/><path d="M38.012 6.725a.259.259 0 0 1 .353.098c.703 1.251 1.504 1.436 2.265 1.45a.26.26 0 0 1 .254.266.26.26 0 0 1-.264.257c-.819-.015-1.866-.222-2.705-1.715a.262.262 0 0 1 .097-.356Z" fill="#5C2870"/><path d="M39.12 7.997c.794.442.819 2.244.567 3.078l-.495-.152c.239-.793.11-2.227-.322-2.468-.197-.109-.533.092-.922.55l-.393-.343c.589-.69 1.115-.915 1.565-.665ZM38.306 5.172a.538.538 0 0 1-.154-1.063c.292-.042.561.16.603.453a.536.536 0 0 1-.449.61Z" fill="#5C2870"/><path d="M37.575 2.699a.257.257 0 0 1 .347-.118c.13.065.181.222.117.351-.55 1.116-.539 1.937.044 3.252a.263.263 0 0 1-.131.345.258.258 0 0 1-.343-.132c-.64-1.447-.65-2.449-.034-3.698ZM39.267 1.947a.541.541 0 0 1 .087-.754.53.53 0 0 1 .748.089.54.54 0 0 1-.089.754.53.53 0 0 1-.746-.089Z" fill="#5C2870"/><path d="m42.172.14-.01.088c-.884-.23-2.919.522-3.761 1.983-.217.34-.634.224-.393-.226C38.868.295 40.953-.3 42.172.14ZM42.278 1.32a.531.531 0 0 1 .691-.302c.273.11.406.423.297.698a.53.53 0 0 1-.69.3.54.54 0 0 1-.298-.697ZM36.963 5.01c.01-.16-.563-.585-1.157-.796l.405-.391c.817.29 1.298.76 1.269 1.22-.038.581-.784 1.025-2.342 1.36l-.05-.516c1.877-.404 1.871-.83 1.875-.878Z" fill="#5C2870"/><path d="M44.355 6.605c-.27-.163-.441-.379-.38-.48.06-.103.33-.055.6.107.27.163.44.38.38.483-.062.102-.33.053-.6-.11Zm.713.166a.686.686 0 0 0 .063-.266c-.161-.476-.849-.706-1.147-.607-.002.004-.03.027-.032.03a.345.345 0 0 0-.116.266c.09.473 1.067.974 1.232.577Zm.117-.47C46.239 1.49 43.188.284 42.757.27c-.205-.005-.171.074-.171.074 2.486 1.408 1.686 4.752 1.446 5.424.222-.156 1.039.075 1.153.532ZM33.605 20.642c.008-.027.789-.429.789-.429.026.008.177.31.177.31l.01.017-.798.41c-.027-.008-.178-.308-.178-.308Zm-.096-.241c-.027-.009-.179-.31-.179-.31.01-.027.79-.428.79-.428l.017-.01.159.318c-.008.027-.787.43-.787.43Zm-.45-.853c.01-.026.788-.43.788-.43l.018-.009.161.32c-.009.026-.788.428-.788.428-.027-.01-.178-.31-.178-.31Zm-.149 2.62c-.027-.008-.229-.406-.229-.406.01-.027.49-.274.49-.274.026.01.227.407.227.407l.01.017-.498.256Zm-.787.407c-.027-.01-.228-.407-.228-.407.009-.027.488-.274.488-.274.027.008.228.407.228.407l.01.017-.498.257Zm-.788.406c-.026-.009-.227-.406-.227-.406.01-.028.488-.274.488-.274.027.007.228.406.228.406l.009.017-.498.257Zm-.785.406c-.027-.009-.229-.406-.229-.406.009-.028.488-.274.488-.274l.017-.01.212.416c-.01.027-.488.274-.488.274Zm3.42-4.61s-1.222.633-1.232.66c0 0 .736 1.452.775 1.466-.008 0-1.489.01-1.506.04 0 0 .282.558.32.572-.02 0-1.455.003-1.473.032 0 0 .28.552.315.565l-1.533.052h-.03l.013.03s1.036 2.01 1.062 2.02c0 0 4.789-2.472 4.798-2.499 0 0-1.483-2.928-1.51-2.937ZM28.707 21.337a.299.299 0 0 1-.047-.132.4.4 0 0 1-.392-.171.466.466 0 0 1 .004-.445c.106-.173.27-.253.438-.325.11-.04.22-.08.333-.118l-.011-.05c-.266.008-.555.125-.796-.042a.629.629 0 0 1-.284-.422.372.372 0 0 1 .191-.356.288.288 0 0 1 .13-.046.406.406 0 0 1 .17-.396.451.451 0 0 1 .441.003c.17.107.25.273.32.442.077.209.151.42.206.636l.008.016c-.012-.097-.035-.204-.045-.31-.003-.271-.127-.571.04-.82a.615.615 0 0 1 .42-.287.366.366 0 0 1 .35.193c.026.037.04.083.046.132a.399.399 0 0 1 .393.171.465.465 0 0 1-.004.446.744.744 0 0 1-.32.271c.235-.07.448-.138.586-.192.164-.066.755-.246.906-.338.01 0 .021 0 .026.011a.883.883 0 0 0 .117.344c.002.017-.005.027-.02.034l-.846.134-.567.073c-.136.02-.392.081-.657.149l.012-.002c.271-.002.567-.129.814.04.16.104.251.25.284.424a.37.37 0 0 1-.19.354.304.304 0 0 1-.131.048.405.405 0 0 1-.17.395.452.452 0 0 1-.44-.003c-.17-.107-.25-.274-.322-.443-.074-.208-.161-.405-.215-.622l-.013-.02c.012.098.034.205.045.309.004.273.129.572-.04.82a.614.614 0 0 1-.42.287.365.365 0 0 1-.35-.192ZM37.873 10.454c-.36-.105-.953-.359-1.55-.603-.056.464-.083.887-.14 1.358l-.924-.19c.11-.412.252-.84.368-1.257.022-.01.008-.035.011-.055-.343-.03-.676-.049-1.015-.088l.187-.928.014-.003c.32.112.635.22.946.331l.015-.01c.047-.45.098-.9.148-1.365l.919.19c-.14.453-.261.888-.387 1.326.538.063.821.162 1.367.226-.066.251-.05.824.04 1.068ZM41.014 25.13c-.169-.182-.322-.293-.64-.428-.202-.087-.513-.139-.513-.17-.136.01-.199-.002-.297.064-.094.06-.245.083-.24.235.002.045.105.1.118.135.047.127.043.21.017.345a.525.525 0 0 1-.209.34c-.035.03-.102-.001-.14.026-.035.03.001.101-.042.13-.05.035-.204-.056-.233-.077-.108.33-.233.857-.757.519-.279-.18-.03-.414.002-.7.008-.046-.047-.097-.123-.21-.048.144-.112.157-.22.264-.108.112-.427-.163-.512-.318-.081-.143.034-.232.034-.397 0-.086-.089-.071-.146-.145-.056-.07-.005-.12-.002-.197-.06.024-.163.085-.153.073-.033.038-.002.09-.064.099-.23.032-.37-.098-.483-.21-.153-.152-.006-.343-.034-.593-.005-.05-.103-.13-.139-.168-.028.06-.072.178-.161.09-.077-.069-.053-.172-.074-.264-.022-.095-.116-.21-.127-.31-.007-.085.084-.16.08-.239-.007-.097-.214-.152-.176-.25.123-.305.455-.233.67-.357.086-.048.068-.13.136-.22.066-.09.15-.086.218-.168.091-.109.194-.166.304-.043.088-.265.186-.524.383-.572.092-.021.164.031.28.045.12.018.31-.013.307.151.13-.121.162-.283.412-.173.057-.12.09-.213.234-.214.083.002.309.059.389.106.146.092.036.362.068.483.083-.047.321.117.359.193.11-.048.107-.146.211-.244.05-.051.13-.036.188-.082.027-.019.008-.101.096-.09.335.056.28.377.185.522.11.071.178.151.175.254-.004.182-.191.238-.17.425.012.095.097.155.103.276.01.29-.18.345-.267.516-.09.171-.041.248-.108.454.37.137.588.32 1.042.365a.725.725 0 0 0 .298-.073l-.279.803Z" fill="#5C2870"/><path d="M32.83 9.332c.062.003.12.035.179.05a.271.271 0 0 1-.028-.207c-.06.006-.137.015-.202.003.02.045.049.094.05.154Zm-.276.363a.258.258 0 0 1 .174-.02c-.03-.04-.04-.099-.07-.14a.437.437 0 0 1-.154-.031.446.446 0 0 1 .05.19Zm-2.023 1.159c.058-.172.163-.339.285-.487.2-.17.403-.34.621-.482.297-.192.544-.555.954-.47-.033-.042-.07-.082-.084-.133-.007-.063-.078-.01-.117-.021-.132 0-.283.02-.37-.103-.022-.033-.006-.073.006-.106.074-.1.19-.129.31-.15-.003-.065-.02-.136-.002-.197a.203.203 0 0 1 .115-.14c.078-.02.152.019.2.082a.407.407 0 0 1 .027.377c.05.012.103.012.151.028a.574.574 0 0 1-.024-.34c.14-.325.311-.627.448-.951.146-.283.316-.609.59-.785a.286.286 0 0 1 .276.03c.075.071.058.195.032.28a3.632 3.632 0 0 0-.202.623c-.029.172-.099.33-.114.504.005.027.03.006.041-.006.075-.117.127-.241.183-.365.107-.192.223-.44.427-.538a.272.272 0 0 1 .256.032c.075.055.088.152.093.242-.018.222-.095.43-.183.634-.163.366-.379.77-.716 1.012-.149.11-.381.162-.559.1a.372.372 0 0 1 .054.128c.056.132.218.162.323.259.166.134.33.273.491.4.302.271.65.482.93.768.023.022.031.055.031.089-.004.04-.025.089-.066.105-.044.017-.088.002-.13-.013-.157-.11-.304-.237-.456-.357l-.518-.412c-.222-.187-.492-.343-.66-.572-.068-.064-.162-.046-.235-.098a.61.61 0 0 1 .065.302c-.036.416-.37.802-.695 1.041a6.139 6.139 0 0 1-.807.419c-.106.032-.255.115-.348 0-.072-.116.004-.242.068-.348.188-.242.4-.46.626-.645.035-.038.078-.075.094-.124-.009-.006-.016-.011-.026-.007l-.626.302c-.127.072-.264.133-.38.227-.091.04-.206.128-.312.061a.2.2 0 0 1-.073-.124l.006-.071ZM37.279 12.851l.058-.029-.008-.061c-.01-.082-.213-.336-.334-.418-.182-.121-.323-.087-.384.003-.058.09-.036.235.145.357.114.077.445.178.523.148Zm.08-.2c.114.078.445.179.522.147l.056-.03-.007-.06c-.01-.082-.214-.335-.334-.417-.182-.122-.323-.087-.383.003-.059.089-.037.233.145.357Zm.589-.043c.115.077.447.178.523.146l.056-.03-.007-.06c-.01-.082-.213-.335-.334-.416-.093-.063-.188-.09-.266-.076l-.117.078c-.058.09-.036.236.145.358Zm.605-.045c.114.077.447.178.523.147l.058-.03-.009-.06c-.011-.083-.214-.336-.334-.417-.182-.122-.323-.087-.384.003-.059.089-.035.235.146.357Zm.64-.047c.115.078.447.179.523.148l.057-.03-.008-.061c-.01-.082-.214-.335-.334-.416-.18-.122-.325-.085-.383.002-.058.088-.037.234.145.357Zm-1.941-.845-.005-.068-.06-.012c-.08-.018-.389.138-.49.234-.158.152-.156.299-.082.377.07.075.218.088.376-.063.106-.1.265-.384.26-.467Zm.602-.045-.004-.066-.06-.014c-.08-.018-.391.138-.49.235-.159.15-.156.297-.084.377.073.078.218.089.378-.063.105-.101.264-.385.26-.469Zm.59-.049-.005-.069-.059-.011c-.08-.018-.39.138-.491.233-.159.15-.158.298-.083.377.072.075.22.087.378-.062.104-.1.262-.385.26-.468Zm.604-.052-.005-.067-.058-.013c-.08-.02-.39.136-.492.233-.082.08-.129.166-.13.246l.048.132c.073.078.218.088.376-.064.106-.1.264-.384.261-.467Zm.378.414c.106-.101.265-.385.262-.468l-.005-.067-.058-.014c-.08-.018-.392.138-.492.235-.158.15-.156.297-.083.377.074.077.218.087.376-.063Zm.438.29c.143-.013.442-.137.49-.204l.039-.056-.039-.047c-.052-.065-.393-.136-.53-.123-.217.02-.305.137-.297.245.01.106.118.206.337.186ZM36.478 12.409l-.013-.239-3.21.193.016.239 3.207-.193ZM34.112 13.566l.044-.234-.92-.18-.046.234.922.18ZM34.77 14.234l.065-.013.007-.062c.01-.083-.121-.38-.216-.49-.144-.165-.29-.168-.371-.097-.08.07-.095.217.048.382.099.113.39.288.467.28Zm.128-.173c.091.105.386.289.468.278l.063-.014.008-.06c.01-.083-.121-.38-.217-.49-.143-.165-.29-.168-.37-.097-.08.072-.096.218.048.383Zm.581.112c.09.101.389.287.469.277l.062-.014.008-.06c.012-.082-.12-.38-.216-.489-.144-.166-.293-.167-.372-.098-.078.071-.093.219.05.384Zm.596.114c.092.105.388.29.468.278l.063-.014.008-.06c.01-.083-.12-.38-.216-.49-.144-.165-.29-.168-.371-.098-.08.073-.096.218.048.384Zm.63.12c.093.107.388.29.47.28l.062-.014.008-.062c.01-.083-.122-.38-.217-.488-.143-.164-.288-.169-.37-.098-.08.071-.096.217.047.383Zm-1.646-1.386-.054-.028c-.071-.04-.412.031-.534.097-.193.106-.227.25-.177.344.052.094.19.142.381.037.127-.07.352-.302.37-.384l.014-.066Zm.593.114-.053-.028c-.072-.04-.413.03-.535.097-.191.104-.227.247-.177.343.05.094.189.142.381.038.127-.07.353-.303.37-.384l.014-.066Zm.583.104-.056-.029c-.07-.036-.415.034-.532.098-.193.107-.228.25-.177.345.052.093.19.141.38.036.127-.068.352-.3.371-.383l.014-.067Zm.596.107-.053-.028c-.072-.038-.412.031-.534.098-.1.054-.167.127-.19.203l.013.14c.052.094.19.142.381.037.127-.069.353-.302.37-.384l.013-.066Zm.248.565c.128-.07.353-.303.372-.385l.012-.064-.052-.028c-.071-.04-.413.029-.536.096-.19.106-.226.248-.176.343.05.094.188.142.38.038Zm.349.395c.132.022.458-.015.526-.071l.05-.043-.025-.056c-.033-.076-.344-.234-.48-.257-.217-.037-.33.054-.35.16-.017.105.062.23.279.267ZM41.678 13.643c.052.03.086.054.108.072.037.144.078.296.125.446-.005 0-.011 0-.017.002-.043.01-.332.058-.395.074-.064.014-.287-.007-.287-.007s.015-.434.094-.558c.078-.123.153-.26.165-.28.012-.019.078.175.207.25ZM44.166 11l.198.934s-.47-.876-1.022-.743c-.504.12-.892.218-1.218.373-.378.182-.379.364-.379.364a.487.487 0 0 0-.048.107c-.142-.027-.342-.049-.515.071-.248.172-.462.312-.615.554-.154.243-.397.54-.574.784-.11.152-.293.585-.293.585-.09.144-.199.293-.307.377-.03.023-.04.01-.068.015a.318.318 0 0 0-.06.02s-.03-.066-.14-.013c-.11.053-.204.108-.243.127-.04.02-.015-.113-.116-.064-.101.048-.254.265-.281.255-.028-.01-.031-.065-.19.107a.411.411 0 0 0-.086.19c-.045.065-.03.053-.033.198-.003.119-.103.258-.089.328.014.068.077.127.086.174.01.046-.05.078.085.163.133.085.137.1.223.155.086.055.104-.039.138-.017.033.02.042.135.13.108.055-.017.074.128.16.207.06.055.115.1.19-.01.01-.016.04.008.058-.007a.233.233 0 0 0 .05-.06c-.001-.074-.005-.15-.01-.2-.013-.023-.037-.077-.02-.102.023-.033.302-.118.313-.07l-.003.015.074.132c.027.01.03.065.05.035.027-.037.07-.073.126-.066.127.013.155-.092.155-.092.01-.019-.005-.196-.013-.233-.008-.04.114-.088.155-.121.04-.032.117-.156.164-.166.047-.012.176-.054.195-.085.02-.033.073-.044.073-.044l.15.306s.422-.144.695-.305c.271-.16.683-.431.683-.431s.143.078.223.06a.204.204 0 0 1 .053-.008c.048.059.098.11.155.15.33.236.775.207 1.499.024.723-.184.795-.802.936-1.229l.26 1.023.652.105c-.343-1.48-.704-3.055-.77-4.941 0 0-.415.75-.836.961ZM31.456 15.756a.184.184 0 1 0 .367-.037.185.185 0 0 0-.202-.167.185.185 0 0 0-.165.204ZM30.825 17.69a.184.184 0 1 0 .366-.037.184.184 0 0 0-.2-.167.185.185 0 0 0-.166.204Z" fill="#5C2870"/><path d="m37.038 16.913.004.642.36-.052-.138-.625-.115-.11s-.007-.214-.159-.546c-.122-.267-.329-.557-.753-.66-.424-.102-.549-.047-.755 0a1.09 1.09 0 0 0-.314.162s-.444-.662-.903-.832c-.527-.194-1.042-.167-1.545.022-.625.236-.954.645-.954.645s-.024.06.032.07c.168.027.596.066.89.438.11.138.16.278.16.278s-.77-.112-1.212.054c-.47.177-.706.485-.635 1.079.014.122.194-.446.668-.201.277.144.256.204.31.39.499-.1 1.524-.469 1.605-.5a1.6 1.6 0 0 0-.05-.809c-.132-.382-.422-.666-.89-.928 0 0 .934-.336 1.626.202.575.449.731 1.03.74 1.164l-.008-.094c.57-.198 1.101-.093 1.41-.057.038-.1.113-.212.255-.203.253.014.44.295.444.335l-.072.136Zm-4.376 1.306c.403.067 2.1.097 2.67-.014.572-.111 1.11-.286 1.11-.286s-.142-.666.145-.948c.121-.119-.083-.166-.268-.174h-.146a3.812 3.812 0 0 0-.943.074 1.75 1.75 0 0 0-.452.123l-.435.162c-.159.07-.316.129-.474.188a5.25 5.25 0 0 1-.536.167c-.475.112-.864.248-1.466.294-.177.013-.203-.005-.207-.007.002.002.095.199.162.23.239.11.588.15.84.191ZM32.353 24.737c.274.006 1.047-.051 1.587-1.018l.588-.298c-.37.925-1.036 1.695-2.182 1.648-.374-.015-.512.42-.57.721l-.233-.335c.053-.273.142-.731.81-.718Z" fill="#5C2870"/><path d="M31.93 24.198c.454-.036.825.102 1.148-.487l.578-.285c-.298.792-.75 1.16-1.73 1.103-.375-.02-.546.337-.606.74l-.199-.354c.053-.272.144-.666.81-.717ZM41.047 33.97a1.035 1.035 0 0 0 1.312-.663 1.05 1.05 0 0 0-.658-1.324 1.035 1.035 0 0 0-1.312.664c-.18.55.114 1.142.658 1.324Zm-.892-1.402a1.282 1.282 0 0 1 1.623-.82 1.3 1.3 0 0 1 .814 1.637 1.28 1.28 0 0 1-1.623.822 1.3 1.3 0 0 1-.814-1.639ZM43.27 31.47a1.034 1.034 0 0 0 1.31-.663 1.05 1.05 0 0 0-.657-1.324 1.036 1.036 0 0 0-1.311.664 1.05 1.05 0 0 0 .657 1.323Zm-.892-1.401a1.28 1.28 0 0 1 1.623-.822c.673.226 1.037.96.814 1.639a1.28 1.28 0 0 1-1.623.821 1.299 1.299 0 0 1-.814-1.638Z" fill="#5C2870"/><path d="M41.3 33.203a.235.235 0 0 0 .297-.15.24.24 0 0 0-.149-.302.236.236 0 0 0-.3.151.24.24 0 0 0 .151.301ZM43.521 30.703a.235.235 0 0 0 .299-.151.238.238 0 0 0-.15-.301.235.235 0 0 0-.298.15.24.24 0 0 0 .15.302ZM42.781 4.245c.073.168.14.356.192.568a1.865 1.865 0 0 0-.032-1.258c-.03.255-.085.484-.16.69Zm-1.605 1.856a1.859 1.859 0 0 0 1.659-.968 3.967 3.967 0 0 0-.17-.62c-.503 1.013-1.525 1.342-2.158 1.447.207.085.432.136.669.14Zm1.473-2.123c.064-.23.104-.49.111-.78a1.847 1.847 0 0 0-.398-.442 3.18 3.18 0 0 1-.123.697 2.2 2.2 0 0 1 .41.525Zm-2.928 1.37c.13.174.29.325.471.444.536-.046 1.855-.292 2.364-1.545a2.094 2.094 0 0 0-.393-.576c-.509 1.294-1.811 1.604-2.442 1.678Zm2.343-2.038c.056-.207.092-.436.103-.691a1.836 1.836 0 0 0-2.364.378l.073-.008c.588-.075 1.483-.188 2.188.32Zm-2.163-.117-.261.029a1.879 1.879 0 0 0-.044 1.932c.545-.047 1.917-.3 2.402-1.632-.65-.511-1.497-.405-2.097-.329ZM39.546 27.805c-.446.238-.56.558-.035 1.143l.056.214.504-.43-.137-.348-.24-.171-.148-.408Z" fill="#5C2870"/><path d="m39.71 29.047.288 1.408s.02.066.048.206c.036.173.112.356.345.438 0 0-.161.134-.253.195 0 0 .007.206.452.165l.232-.248.416 1.699.099-.11-.314-1.74.423.113.238.644.34.103s.176-.086.082-.386l-.072-.201 1.095.29.183-.093c.05-.13.035-.251-.202-.33l-1.255-.413-.122-.373.497-.572c.27.286.794.674 1.174.743l.023-.169c-.268-.126-.552-.134-1.123-.887L42.166 29c-.024-.094-.088-.299-.254-.145l-.271.304c.075.038.083.16.04.265l.296-.338.142.648-.443.536c-.096-.09-.157-.065-.244-.053l-.544.087c-.168-.078-.317-.15-.308-.435 0 0 .695-.246.842-.286.22-.06.248-.415-.141-.334l-.635.188c.03-.207-.06-.33-.357-.347l-.578-.043ZM44.372 24.171l-.377-4.308-2.475 2.336-.02.02.023.016 2.849 1.936Zm1.19-.095-.01-.11a.166.166 0 0 1 .15-.182l.343-.027.04.443-.344.028a.167.167 0 0 1-.18-.152Zm-.265-4.061-.01-.111a.166.166 0 0 1 .15-.181l.343-.028.04.444-.343.028a.166.166 0 0 1-.18-.152Zm.396 5.365s.161-.122.165-.155l-.164-.191c.192-.017.961-.088.979-.11l-.19-2.12-.852.077a.637.637 0 0 1-.69-.58l-.038-.425a.64.64 0 0 1 .576-.696l.85-.076c-.116-1.25-.218-2.33-.228-2.338l-.954.097a1.15 1.15 0 0 0 .121-.2s-.133-.172-.175-.186l-.005-.001-.778 1.089-.083.077.41 4.709.144.099s.883.928.912.93ZM42.68 25.302a.322.322 0 0 1-.2-.404.318.318 0 0 1 .4-.203.321.321 0 0 1 .201.404.318.318 0 0 1-.4.203Zm.185.361c.108.203.467.377.467.377l.018.005s.07-.406-.033-.62c.22.065.594-.068.594-.068l.016-.01s-.236-.337-.458-.414c.2-.11.373-.471.373-.471l.004-.02s-.402-.069-.613.035c.064-.221-.069-.6-.069-.6l-.009-.016s-.333.237-.41.462c-.108-.202-.467-.376-.467-.376l-.018-.005s-.07.406.033.62c-.218-.065-.593.07-.593.07l-.016.008s.235.337.458.413c-.202.11-.372.472-.372.472l-.006.02s.401.07.614-.035c-.064.221.068.6.068.6l.007.015s.335-.236.412-.462ZM40.759 27.013a.322.322 0 0 1-.092-.442.315.315 0 0 1 .438-.093.322.322 0 0 1 .092.443.315.315 0 0 1-.438.092Zm.085.398c.054.224.357.484.357.484l.017.01s.17-.374.124-.608c.196.12.592.087.592.087l.017-.004s-.141-.386-.338-.518c.223-.055.48-.362.48-.362l.01-.016s-.37-.171-.602-.125c.118-.197.085-.598.085-.598l-.004-.018s-.382.144-.513.341c-.053-.223-.357-.484-.357-.484l-.015-.009s-.171.373-.125.607c-.196-.119-.592-.087-.592-.087l-.018.005s.142.387.34.519c-.224.054-.48.36-.48.36l-.012.016s.371.172.603.126c-.118.197-.085.597-.085.597l.003.018s.383-.143.513-.341ZM43.397 27.827a.32.32 0 0 1 .018-.639.319.319 0 0 1 .308.329.318.318 0 0 1-.326.31Zm.278.293c.163.163.556.224.556.224h.019s-.049-.408-.21-.584c.23-.001.55-.237.55-.237l.013-.013s-.321-.255-.556-.265c.16-.164.222-.56.222-.56v-.019s-.405.05-.579.211c-.001-.23-.235-.554-.235-.554l-.014-.014s-.252.324-.26.563c-.163-.163-.556-.225-.556-.225h-.018s.048.409.209.584c-.229.001-.55.238-.55.238l-.012.014s.32.255.556.262c-.16.165-.221.56-.221.56l-.001.02s.405-.048.578-.211c.002.23.236.555.236.555l.012.014s.252-.325.261-.563ZM33.509 25.943l-.126-.152-.577.16.453.437.199-.137c.1-.07.178-.055.294.103l.763 1.131c.11.163.091.347-.182.524l.16.57.428-.431-.102-.202c-.106-.188-.075-.21.068-.297l1.205-.796s.234-.174.436.165l.522-.178-.392-.332-.229.113s-.162.094-.318-.155l-.698-1.03c-.1-.147-.205-.29-.06-.424l.194-.146-.185-.571-.385.444.123.198c.078.116.027.23-.17.345l-1.1.723c-.156.11-.188.087-.321-.062Zm1.162 3.23c.208-.261 1.197-1.34 1.197-1.34s1.212-.411 1.554-.542c.344-.13.456-.36.212-.616-.199-.21-.945-.868-1.205-1.097l-.404.279.345.509.306-.178.815.756-1.07.363-.173-.255-1.207.808.18.298-.83.868-.326-1.128.277-.225-.796-1.176-.312.17-.877-.815 1.1-.384.21.31 1.18-.781-.19-.3.77-.87.412 1.122-.292.202.355.524.402-.276c-.115-.32-.465-1.302-.559-1.571-.113-.321-.285-.438-.578-.165-.293.272-1.21 1.363-1.21 1.363s-1.26.424-1.67.567c-.299.105-.257.433-.093.577.161.144 1.4 1.21 1.4 1.21s.433 1.337.519 1.663c.078.29.35.39.558.13ZM35.78 20.614c.03-.014.048-.102.015-.236l.552-.244.966-.43 1.023-.455a1.744 1.744 0 0 1 2.275-1.428c.158.054.299.133.43.224l.145-.065c.585-.265.432-.538.432-.538s-.12-.33-.273-.592c-.153-.261-.351-.127-.587-.027l-3.945 1.754-.969.432-.54.243c-.066-.095-.14-.128-.17-.115-.065.03.025.385.203.791.18.41.376.715.442.686Zm2.917-1.575c-.007.018-.008.036-.013.055l2.009-.894c-.058-.029-.115-.06-.18-.081a1.434 1.434 0 0 0-1.816.92ZM38.443 19.492l-.968.431.143.336 4-1.771s.594.63 2.237-.088c1.26-.55 2.157-.58 2.157-.58l-.041-.378s-.733-.055-2.112.535c-1.872.8-2.099.038-2.099.038l-.654.291-2.663 1.186ZM41.504 16.87c.293-.114.484.255.178.407l-.178-.408Z" fill="#5C2870"/><path d="M39.654 20.732a1.305 1.305 0 0 1-.818-1.646 1.286 1.286 0 0 1 1.63-.824c.675.226 1.041.963.816 1.643a1.285 1.285 0 0 1-1.628.827Zm-.087.264a1.562 1.562 0 0 0 1.979-1.001 1.585 1.585 0 0 0-.992-2 1.562 1.562 0 0 0-1.98 1.003 1.583 1.583 0 0 0 .993 1.998Z" fill="#5C2870"/><path d="M39.138 20.52a.1.1 0 0 1-.068-.035l-.079-.098a.096.096 0 0 1 .016-.137l.632-.497a.5.5 0 0 1-.058-.375l-.715-.398a.095.095 0 0 1-.034-.135l.068-.107a.093.093 0 0 1 .06-.043.1.1 0 0 1 .074.015l.66.452a.496.496 0 0 1 .338-.164l.153-.815a.095.095 0 0 1 .044-.063.092.092 0 0 1 .074-.012l.122.033a.097.097 0 0 1 .067.119l-.226.785a.49.49 0 0 1 .25.265l.828-.106a.103.103 0 0 1 .074.021c.02.018.031.042.033.07l.007.125a.101.101 0 0 1-.024.07.098.098 0 0 1-.067.032l-.816.027a.499.499 0 0 1-.166.322l.355.76a.098.098 0 0 1 .003.078.094.094 0 0 1-.054.054l-.116.046a.093.093 0 0 1-.075-.003.094.094 0 0 1-.05-.054l-.276-.771a.487.487 0 0 1-.364-.056l-.6.569a.092.092 0 0 1-.07.026Z" fill="#5C2870"/></svg>