<svg width="236" height="89" viewBox="0 0 236 89" fill="none" xmlns="http://www.w3.org/2000/svg">
<g clip-path="url(#clip0_3615_26514)">
<path d="M120.714 41.8451C120.72 42.1196 120.732 42.3275 120.732 42.4792C120.732 44.4105 119.564 45.5014 117.58 45.5014C117.094 45.5277 116.608 45.4534 116.152 45.2832C115.696 45.113 115.281 44.8507 114.933 44.5127C114.269 43.8205 113.908 42.8946 113.93 41.938C113.917 41.4623 114.002 40.989 114.181 40.5475C114.359 40.106 114.627 39.7058 114.968 39.3718C115.675 38.7131 116.612 38.355 117.58 38.3738C118.074 38.3576 118.564 38.4572 119.012 38.6644C119.46 38.8717 119.853 39.1809 120.158 39.567L119.347 40.1747C119.135 39.9187 118.868 39.7142 118.564 39.5767C118.261 39.4392 117.93 39.3723 117.597 39.3812C116.914 39.3826 116.259 39.6541 115.776 40.136C115.294 40.6178 115.024 41.2707 115.025 41.9508C115.027 42.631 115.299 43.2827 115.784 43.7627C116.268 44.2427 116.924 44.5115 117.607 44.5102C118.887 44.5102 119.649 43.8735 119.649 42.8662V42.7724H118.01V41.8451H120.714ZM122.471 38.5264H126.281V39.4681H123.58V41.1693H126.281V42.1392H123.58V44.3321H126.281V45.3198H122.471V38.5264ZM133.573 41.0338C133.511 41.3599 133.403 41.6756 133.252 41.9713L131.47 45.5917L129.681 41.8963C129.543 41.6183 129.432 41.3281 129.348 41.0295C129.336 41.3453 129.294 41.6592 129.222 41.967L128.489 45.3113H127.462L129.077 38.252L131.095 42.521C131.149 42.642 131.275 42.9471 131.467 43.4397C131.602 43.0571 131.755 42.7579 131.859 42.521L133.829 38.252L135.477 45.3113H134.45L133.697 41.9585C133.668 41.8366 133.639 41.5323 133.575 41.0252M136.94 38.5264H140.752V39.4681H138.049V41.1693H140.752V42.1392H138.049V44.3321H140.752V45.3198H136.94V38.5264ZM142.599 38.5264H146.412V39.4681H143.706V41.1693H146.412V42.1392H143.706V44.3321H146.412V45.3198H142.599V38.5264ZM148.254 38.2605L152.59 42.4127C152.856 42.6723 153.104 42.9484 153.335 43.2394V38.5289H154.358V45.59L149.935 41.3593C149.69 41.1287 149.469 40.8746 149.275 40.6008V45.3224H148.254V38.2605ZM158.704 45.3198H157.593V39.4681H155.78V38.5264H160.51V39.4681H158.704V45.3198ZM161.935 38.5264H165.745V39.4681H163.042V41.1693H165.745V42.1392H163.042V44.3321H165.745V45.3198H161.935V38.5264ZM85.1312 46.5718C84.8533 45.9519 84.3972 45.4278 83.8203 45.0656C83.2434 44.7034 82.5717 44.5193 81.8898 44.5366C81.099 44.5012 80.3264 44.7799 79.742 45.3113C79.1576 45.8427 78.8092 46.5834 78.7734 47.3704V47.4403C78.7734 49.0494 80.4459 49.796 81.7151 50.367L82.9646 50.9142C85.4061 51.9821 87.482 53.1965 87.482 56.1744C87.4549 57.6415 86.8805 59.0462 85.8705 60.1152C84.8605 61.1842 83.487 61.8411 82.0173 61.9583C80.5475 62.0754 79.0865 61.6443 77.9184 60.7489C76.7503 59.8535 75.9586 58.5577 75.6973 57.1136L77.7526 56.54C77.8457 57.4775 78.2803 58.3486 78.9745 58.9891C79.6686 59.6295 80.5744 59.995 81.5207 60.0164C82.5193 60.0396 83.4866 59.6687 84.2113 58.9846C84.936 58.3005 85.3594 57.3589 85.389 56.3653C85.389 54.1852 83.6925 53.4164 81.9224 52.646L80.7739 52.1491C78.5542 51.1835 76.683 50.0389 76.683 47.361C76.683 44.459 79.1519 42.5968 81.9463 42.5968C82.9482 42.5835 83.934 42.8481 84.7933 43.3609C85.6526 43.8738 86.3515 44.6147 86.8115 45.5005L85.1312 46.5718ZM99.2522 53.4411H99.2051C98.7984 52.8491 98.2555 52.3623 97.6215 52.0214C96.9875 51.6804 96.2808 51.4951 95.5603 51.4809C95.0092 51.4876 94.4648 51.6023 93.9581 51.8184C93.4515 52.0345 92.9927 52.3478 92.6078 52.7404C92.2228 53.1331 91.9194 53.5973 91.7149 54.1067C91.5103 54.6161 91.4085 55.1605 91.4154 55.709V55.8011C91.3859 56.3375 91.4629 56.8745 91.642 57.3813C91.821 57.8882 92.0986 58.355 92.459 58.755C92.8193 59.1551 93.2553 59.4806 93.742 59.713C94.2287 59.9453 94.7567 60.08 95.2957 60.1093C95.3497 60.1093 95.4045 60.1144 95.4593 60.1153C96.2129 60.1209 96.9561 59.9405 97.6224 59.59C98.2887 59.2396 98.8572 58.7302 99.2771 58.1073H99.3267V60.7622C98.2428 61.5351 96.9435 61.9522 95.61 61.9553C94.0001 61.9991 92.4386 61.4047 91.2689 60.3029C90.0993 59.201 89.4173 57.682 89.3729 56.0798V55.8036C89.3725 54.9952 89.5321 54.1945 89.8426 53.4474C90.1531 52.7003 90.6084 52.0214 91.1826 51.4494C91.7567 50.8775 92.4385 50.4237 93.1889 50.1139C93.9393 49.8042 94.7437 49.6446 95.5561 49.6443H95.6374C96.9339 49.6553 98.1955 50.0636 99.2505 50.8136L99.2522 53.4411ZM104.193 41.1633V51.3352L104.243 51.3863C104.609 50.8412 105.107 50.3961 105.69 50.0918C106.274 49.7874 106.925 49.6336 107.583 49.6443C110.829 49.6443 111.577 51.9821 111.577 54.7093V61.6349H109.583V55.0536C109.583 53.1684 109.433 51.4835 107.11 51.4835C104.37 51.4835 104.192 54.0156 104.192 56.0968V61.6366H102.198V41.1633H104.193ZM116.191 55.6801C116.191 57.9607 117.542 60.1178 120.036 60.1178C122.605 60.1178 123.952 58.0605 123.952 55.7005C123.952 53.3661 122.479 51.4835 120.013 51.4835C118.959 51.5232 117.964 51.9778 117.247 52.7474C116.53 53.517 116.15 54.5385 116.19 55.5872L116.195 55.6801M125.844 61.6306H123.847V60.0207H123.796C123.326 60.6379 122.714 61.135 122.013 61.4712C121.311 61.8074 120.539 61.9731 119.761 61.9545C116.317 61.9545 114.147 59.0568 114.147 55.8249C114.147 52.5011 116.269 49.6443 119.784 49.6443C120.562 49.6463 121.329 49.8268 122.026 50.1716C122.722 50.5164 123.33 51.0164 123.801 51.6326H123.851V49.9698H125.844V61.6306ZM130.464 55.6801C130.464 57.9607 131.813 60.1178 134.307 60.1178C136.876 60.1178 138.223 58.0613 138.223 55.7005C138.223 53.3661 136.751 51.4835 134.284 51.4835C133.754 51.5029 133.233 51.6277 132.753 51.8505C132.272 52.0732 131.841 52.3895 131.485 52.7806C131.129 53.1716 130.855 53.6296 130.68 54.1276C130.505 54.6256 130.431 55.1534 130.464 55.6801ZM140.118 61.0622C140.118 62.9252 140.118 64.5352 138.919 66.0727C138.37 66.7367 137.675 67.2674 136.889 67.6244C136.102 67.9815 135.245 68.1556 134.38 68.1335C131.109 68.1335 128.696 66.0727 128.62 62.7735H130.613C130.605 63.2287 130.686 63.681 130.853 64.1047C131.021 64.5285 131.27 64.9153 131.587 65.2431C131.905 65.5709 132.284 65.8333 132.703 66.0152C133.123 66.1972 133.574 66.2952 134.031 66.3036C134.139 66.3036 134.248 66.3036 134.356 66.2951C137.45 66.2951 138.124 64.0374 138.124 61.4082V60.0207H138.071C137.584 60.6258 136.965 61.114 136.262 61.4489C135.558 61.7838 134.788 61.9569 134.009 61.9553C130.591 61.9553 128.419 59.1002 128.419 55.8522C128.419 52.5769 130.614 49.6443 134.083 49.6443C134.859 49.6365 135.625 49.8128 136.319 50.1586C137.013 50.5044 137.613 51.0097 138.071 51.6326H138.124V49.9698H140.119L140.118 61.0622ZM151.992 54.5355C151.872 53.7037 151.461 52.941 150.83 52.3822C150.2 51.8234 149.391 51.5044 148.547 51.4818C147.689 51.5014 146.865 51.8163 146.215 52.3728C145.564 52.9293 145.127 53.6929 144.979 54.5338L151.992 54.5355ZM144.884 56.2238C144.869 56.7196 144.951 57.2136 145.128 57.6776C145.304 58.1416 145.57 58.5665 145.912 58.928C146.253 59.2895 146.662 59.5806 147.117 59.7846C147.571 59.9886 148.061 60.1016 148.56 60.117H148.722C149.486 60.0955 150.227 59.8572 150.86 59.4302C151.492 59.0032 151.989 58.4053 152.292 57.7068L153.989 58.6775C153.492 59.6783 152.719 60.5178 151.761 61.098C150.802 61.6782 149.698 61.9753 148.576 61.9545C145.083 61.9545 142.838 59.2988 142.838 55.9494C142.838 52.5011 144.858 49.6426 148.526 49.6426C152.294 49.6426 154.289 52.7465 154.087 56.2221L144.884 56.2238ZM158.576 51.3863H158.628C158.994 50.8412 159.492 50.3961 160.075 50.0918C160.659 49.7874 161.309 49.6336 161.968 49.6443C165.213 49.6443 165.96 51.9821 165.96 54.7093V61.6306H163.967V55.0536C163.967 53.1693 163.817 51.4835 161.498 51.4835C158.752 51.4835 158.577 54.0156 158.577 56.0968V61.6366H156.581V49.9698H158.577L158.576 51.3863Z" fill="#0071B8"/>
<path d="M43.6693 81.9999C40.1462 81.9999 36.1179 80.8314 32.7621 80.8314C29.2391 80.8314 25.2944 81.9999 21.7714 81.9999C11.6189 81.9999 11.6189 72.3768 8.09413 66.6828C5.49391 62.0771 0.0390625 58.3067 0.0390625 52.4507C0.0390625 46.5947 5.49391 42.9053 8.09413 38.303C11.4507 32.5254 11.7034 22.9817 21.7714 22.9817C25.7135 22.9817 29.2391 24.07 32.7621 24.07C36.706 24.07 40.1462 22.9817 43.6693 22.9817C53.4905 22.9817 54.3254 32.6124 57.3474 38.303C60.0304 42.6564 65.4016 46.6783 65.4016 52.4507C65.4016 58.143 60.0304 62.4138 57.3474 66.6837C53.9899 72.6249 53.4871 81.9999 43.6701 81.9999" fill="#77B431"/>
<path d="M22.7275 81.9734C25.9978 81.8029 29.5567 80.8314 32.7621 80.8314C35.8174 80.8314 39.4309 81.7995 42.7123 81.9734H44.5528C53.5221 81.4245 54.0958 72.4441 57.3474 66.6819C60.0304 62.4146 65.4016 58.143 65.4016 52.449C65.4016 46.6731 60.0304 42.6479 57.3474 38.3013C54.3254 32.6072 53.4871 22.9783 43.6693 22.9783C40.1462 22.9783 36.706 24.0675 32.7621 24.0675C29.2391 24.0675 25.7144 22.9783 21.7714 22.9783C11.7034 22.9783 11.4507 32.5237 8.09413 38.3004C5.49391 42.9035 0.0390625 46.5888 0.0390625 52.4507C0.0390625 58.3126 5.49391 62.0814 8.09413 66.6836C11.5087 72.2055 11.6146 81.4194 20.8716 81.9751L22.7275 81.9734ZM9.94144 65.5919C7.50938 61.1558 2.22271 57.4731 2.22271 52.4507C2.22271 47.5075 7.50938 43.657 9.94144 39.3035C13.7189 33.1075 13.298 25.1558 21.7739 25.1558C25.2133 25.1558 29.0727 26.2433 32.7647 26.2433C36.2877 26.2433 40.2325 25.1558 43.6718 25.1558C52.1469 25.1558 52.1469 33.8626 55.5018 39.3035C57.9355 43.657 63.2213 47.5067 63.2213 52.4507C63.2213 57.4731 57.9355 61.1558 55.5018 65.5919C51.8106 71.6217 52.0632 79.8248 43.6718 79.8248C40.2325 79.8248 36.2877 78.6538 32.7647 78.6538C29.0727 78.6538 25.1288 79.8248 21.7739 79.8248C13.3791 79.8248 13.4636 71.3686 9.94144 65.5919Z" fill="url(#paint0_linear_3615_26514)"/>
<path d="M36.0247 48.7C31.1964 47.1361 24.3416 44.8265 24.3416 40.75C24.3416 36.8347 27.7263 35.7216 30.8225 35.7216C35.5697 35.7216 42.1762 39.7998 44.7764 45.3625H46.0979L45.5191 38.4821C43.9919 36.3387 40.5679 34.4032 38.2127 33.7035C35.8336 33.0403 33.3745 32.7073 30.9045 32.714C24.0932 32.714 19.2214 36.7921 19.2214 43.5481C19.2214 49.9333 24.876 52.8983 32.1423 55.3316C36.8075 56.9006 43.6598 58.9571 43.6598 64.15C43.6598 66.9233 41.6324 68.5384 38.8213 69.1247C36.8359 68.4155 35.0667 67.208 33.684 65.6185C32.5584 64.3376 31.5181 62.9844 30.5699 61.5676H26.369C25.7504 60.7801 25.1705 59.9827 24.6293 59.1753H20.4464C20.1903 58.8259 19.9529 58.4799 19.7199 58.1373H18.3984L19.142 69.6284C20.9184 70.0017 23.3531 70.4943 25.7074 71.1139C28.5459 71.8864 31.4728 72.2875 34.4147 72.3071C41.5991 72.3071 48.9064 70.3324 48.9064 61.1424C48.9064 54.55 42.6295 50.8827 36.0256 48.6992" fill="white"/>
<path d="M20.4492 59.1755C22.108 61.5775 24.1028 63.7301 26.3727 65.5676C28.3819 67.2563 30.7584 68.4529 33.3129 69.0619C33.3197 69.0619 33.3215 69.0619 33.3129 69.0568C30.8467 67.8942 28.6145 66.2905 26.727 64.325C25.1886 62.7424 23.8048 61.0169 22.5944 59.1721L20.4492 59.1755ZM26.365 61.5653C27.7336 63.3466 29.3065 64.9615 31.0516 66.3772C32.2886 67.3976 33.6488 68.2592 35.1005 68.9417C35.109 68.9417 35.1099 68.9417 35.1005 68.9366C34.1985 68.2629 33.3503 67.5203 32.5634 66.7156C31.0321 65.139 29.6623 63.4137 28.4744 61.5653H26.365Z" fill="#0071B8"/>
<path d="M10.5397 49.2574C9.96463 48.8374 9.3053 48.5467 8.60701 48.4052C7.80156 48.634 7.08717 49.1069 6.56251 49.7586C6.91438 49.589 7.28772 49.468 7.67226 49.3989C8.50116 49.243 9.14994 49.7219 9.94298 50.1771C10.6487 50.6384 11.4665 50.9002 12.3093 50.9347C12.7829 50.9278 13.248 50.808 13.6658 50.5853C13.4959 50.2898 13.2956 50.0127 13.0682 49.7586C12.8182 49.8685 12.5484 49.9265 12.2752 49.929C11.6477 49.8684 11.0493 49.636 10.5457 49.2574M14.0772 52.0137C13.587 52.4713 12.954 52.7466 12.2846 52.7935C11.6531 52.732 11.0506 52.4991 10.5422 52.1202C9.78018 51.581 8.88139 51.267 7.94884 51.2143C7.80001 51.2108 7.65112 51.2177 7.50324 51.2347C7.03543 51.2961 6.19458 51.6762 5.66702 51.7606C5.58428 51.978 5.54738 52.2101 5.55861 52.4424V52.8685C6.08702 52.7739 6.99787 52.4646 7.50324 52.3657C7.67195 52.3328 7.84353 52.3168 8.01543 52.318C8.71008 52.3602 9.37769 52.602 9.93786 53.0143C10.6402 53.4851 11.459 53.7535 12.3042 53.7898C12.9095 53.7933 13.501 53.61 13.9978 53.2648C14.0609 52.9941 14.085 52.7157 14.0695 52.4381L14.0772 52.0137ZM10.5457 54.9626C9.79913 54.441 8.92173 54.1376 8.01201 54.0864C7.84296 54.0873 7.67413 54.0992 7.50665 54.1222C7.00628 54.1886 6.51996 54.3354 6.06654 54.5569C6.25521 54.8621 6.48501 55.14 6.74946 55.3827C7.12565 55.2813 7.51241 55.2241 7.90189 55.2123C8.62854 55.2592 9.33126 55.49 9.94384 55.883C10.3395 56.1301 10.7626 56.3304 11.2047 56.4796C11.7636 56.2891 12.284 56.0005 12.7413 55.6273C12.6107 55.6498 12.4785 55.6603 12.346 55.6589C11.6949 55.5814 11.0744 55.3394 10.5431 54.9558M55.5273 51.5671V50.4592H51.9915C51.7907 50.8054 51.6407 51.1785 51.5458 51.5671H55.5273ZM52.7546 54.0379C52.9003 54.0382 53.0428 53.9954 53.1641 53.9149C53.2854 53.8344 53.3801 53.7198 53.4362 53.5856C53.4923 53.4514 53.5073 53.3036 53.4793 53.1608C53.4512 53.0181 53.3815 52.8869 53.2788 52.7838C53.1761 52.6806 53.045 52.6102 52.9022 52.5814C52.7595 52.5526 52.6113 52.5667 52.4766 52.6219C52.3418 52.6771 52.2265 52.771 52.1452 52.8917C52.0638 53.0123 52.0201 53.1544 52.0196 53.2998C52.0196 53.4946 52.097 53.6814 52.2348 53.8193C52.3726 53.9572 52.5595 54.0348 52.7546 54.0353M58.8608 55.2873C59.5317 54.5283 59.9019 53.5509 59.9019 52.5387C59.9019 51.5265 59.5317 50.5491 58.8608 49.7901V55.2873ZM56.6866 56.6271C57.077 56.5298 57.451 56.3756 57.7963 56.1694V48.9029C57.4508 48.6978 57.0769 48.5447 56.6866 48.4486V56.6271ZM55.663 55.4092C55.6625 55.2143 55.5844 55.0276 55.4461 54.8901C55.3078 54.7526 55.1205 54.6755 54.9253 54.6758C54.7301 54.6761 54.5429 54.7537 54.405 54.8916C54.2671 55.0295 54.1896 55.2164 54.1896 55.4113C54.1896 55.6062 54.2671 55.7931 54.405 55.931C54.5429 56.0689 54.7301 56.1465 54.9253 56.1468C55.1205 56.1471 55.3078 56.07 55.4461 55.9325C55.5844 55.795 55.6625 55.6083 55.663 55.4134V55.4092ZM55.5273 49.3955V48.3208C54.5355 48.3518 53.5868 48.7326 52.8494 49.3955H55.5273ZM53.2071 55.9776C53.2888 55.9147 53.3562 55.8352 53.4047 55.7444C53.4533 55.6535 53.482 55.5533 53.4888 55.4506C53.4956 55.3478 53.4805 55.2447 53.4444 55.1483C53.4082 55.0518 53.352 54.9641 53.2793 54.891C53.2066 54.8179 53.1192 54.761 53.0228 54.7242C52.9265 54.6875 52.8234 54.6716 52.7204 54.6776C52.6174 54.6836 52.5169 54.7115 52.4255 54.7593C52.3341 54.8071 52.254 54.8738 52.1904 54.9549C52.4692 55.3505 52.813 55.6962 53.2071 55.9776ZM54.9297 52.5668C54.784 52.567 54.6417 52.6103 54.5206 52.6913C54.3995 52.7722 54.3052 52.8872 54.2496 53.0217C54.194 53.1561 54.1796 53.304 54.2082 53.4467C54.2368 53.5893 54.3071 53.7203 54.4103 53.823C54.5134 53.9258 54.6448 53.9957 54.7877 54.0239C54.9306 54.0521 55.0788 54.0374 55.2133 53.9815C55.3479 53.9257 55.4628 53.8313 55.5436 53.7103C55.6244 53.5892 55.6675 53.447 55.6673 53.3015C55.6672 53.2049 55.648 53.1093 55.6109 53.0201C55.5738 52.9309 55.5194 52.8499 55.4509 52.7817C55.3824 52.7134 55.3012 52.6593 55.2117 52.6225C55.1223 52.5856 55.0265 52.5667 54.9297 52.5668Z" fill="white"/>
<path d="M32.7556 19.1653C35.7963 19.1653 41.351 20.1692 42.2064 20.1692C42.6642 20.109 43.0846 19.8852 43.3897 19.5392C43.6949 19.1932 43.864 18.7484 43.8659 18.2874C43.8746 17.8843 43.7906 17.4846 43.6202 17.1191C43.4499 16.7535 43.1978 16.4318 42.8833 16.1789L34.3126 7.62633C33.8935 7.22444 33.335 7 32.7539 7C32.1728 7 31.6142 7.22444 31.1951 7.62633C31.1951 7.62633 22.9001 15.9045 22.6236 16.1789C22.3096 16.4321 22.0582 16.7539 21.8885 17.1194C21.7189 17.485 21.6357 17.8846 21.6453 18.2874C21.6463 18.7483 21.8148 19.193 22.1196 19.5392C22.4243 19.8853 22.8446 20.1092 23.3022 20.1692C24.1559 20.1692 29.7123 19.1653 32.7556 19.1653Z" fill="#E72F36"/>
</g>
<defs>
<linearGradient id="paint0_linear_3615_26514" x1="28.6778" y1="45.7971" x2="45.9843" y2="74.6878" gradientUnits="userSpaceOnUse">
<stop stop-color="#76B828"/>
<stop offset="0.127" stop-color="#6FB430"/>
<stop offset="0.326" stop-color="#5EA946"/>
<stop offset="0.571" stop-color="#40976A"/>
<stop offset="0.85" stop-color="#187F9C"/>
<stop offset="1" stop-color="#0070BA"/>
</linearGradient>
<clipPath id="clip0_3615_26514">
<rect width="166" height="75" fill="white" transform="translate(0 7)"/>
</clipPath>
</defs>
</svg>
