<svg width="200" height="46" fill="none" xmlns="http://www.w3.org/2000/svg"><path d="M53.537 18.984c.441-.216 1.2-.18 1.384.383.166.775-.153 1.826-1.022 1.949-1.166.008-1.138-1.81-.362-2.332ZM59.093 18.957c.443-.164 1.122-.152 1.297.401.215.848-.29 2.18-1.323 1.925-1.052-.249-.808-1.929.026-2.326ZM39.234 19.815c1.099-.013 2.197-.006 3.295-.006 1.442 3.544 2.912 7.075 4.348 10.622.408-3.041.814-6.082 1.227-9.123-.471-.142-.938-.288-1.408-.432l.078-.967c1.428.007 2.858-.002 4.288.007-.06.32-.115.643-.17.968-.498.14-.993.28-1.489.426-.559 4.056-1.102 8.116-1.66 12.172h-1.45c-1.544-3.73-3.06-7.474-4.61-11.202-.445 3.255-.873 6.512-1.307 9.767.442.148.885.292 1.329.436-.064.337-.123.674-.185 1.012-1.37-.089-2.745-.04-4.116-.128l.185-.98c.496-.136.993-.276 1.488-.414.488-3.586 1-7.168 1.478-10.754-.47-.142-.939-.284-1.408-.428.03-.324.058-.65.087-.976ZM78.181 25.105c.665-1.19 1.757-2.24 3.118-2.434.865-.111 1.901-.074 2.516.662.634.818.61 2.021.219 2.949-.392.902-1.311 1.369-2.179 1.645-.98.33-2.02.324-3.041.322-.1.96-.177 1.985.21 2.891.208.523.749.841 1.288.81.909.035 1.687-.52 2.413-1.015.26.33.52.664.778 1.001-1.103 1.294-2.909 2.038-4.55 1.56-1.082-.347-1.679-1.513-1.778-2.617-.144-1.963.032-4.04 1.006-5.774Zm2.183-.797c-.784.734-1.06 1.838-1.307 2.86.986-.015 2.078.051 2.93-.56.636-.46.847-1.424.56-2.152-.473-.761-1.583-.726-2.183-.148ZM96.074 25.122c.664-1.197 1.758-2.258 3.129-2.45.863-.112 1.904-.075 2.518.665.629.817.607 2.01.219 2.933-.39.915-1.319 1.383-2.194 1.66-.979.328-2.015.322-3.03.32-.099.964-.179 1.996.22 2.907.208.512.743.823 1.272.794.911.037 1.693-.52 2.419-1.016.261.331.521.664.778 1.001-1.102 1.294-2.904 2.034-4.545 1.563-1.076-.345-1.677-1.501-1.78-2.601-.148-1.962.025-4.038.994-5.776Zm2.33-.87c-.828.726-1.105 1.872-1.357 2.916.964-.014 2.023.053 2.868-.52.657-.44.901-1.361.657-2.112-.406-.818-1.54-.822-2.169-.284ZM51.253 23.222c1.099-.136 2.194-.288 3.29-.432-.453 3.035-.942 6.064-1.402 9.097.55.002 1.098.002 1.647.006-.055.325-.11.65-.163.977-.963.207-2.013.962-2.982.487-.294-.968-.012-2.005.118-2.983.304-1.964.598-3.93.897-5.896-.495-.113-.99-.228-1.484-.345l.08-.91Z" fill="#A80A2D"/><path d="M56.472 23.228c1.098-.142 2.194-.298 3.294-.432-.368 3.02-.762 6.04-1.136 9.06-.197 1.48-.402 2.981-.939 4.38-.273.742-.79 1.427-1.526 1.717a4.845 4.845 0 0 1-3.507-.007c.086-.68.173-1.36.257-2.041l1.122-.013c.145.418.29.835.433 1.255.512-.118 1.075-.255 1.395-.728.565-.823.692-1.86.85-2.828.365-3.04.783-6.076 1.165-9.115-.495-.113-.989-.226-1.482-.337.026-.304.05-.609.074-.91ZM86.384 24.164c1.21-1.742 3.829-1.867 5.43-.648.999-.637 2.183-.851 3.34-.68a67.563 67.563 0 0 1-.24 1.546c-.86.004-1.72.006-2.576-.008.658 1.52.372 3.532-.955 4.57-.77.644-1.802.683-2.745.698-.293.419-.561.88-.623 1.404.326.516.949.633 1.488.75 1.174.21 2.423.344 3.435 1.043.726.584.744 1.676.49 2.513-.424 1.295-1.598 2.155-2.793 2.617-1.528.54-3.273.563-4.764-.109-.987-.444-1.827-1.497-1.602-2.667.221-1.26 1.416-1.939 2.403-2.514-.205-.3-.507-.589-.437-.992-.002-.982.785-1.681 1.456-2.257-2.013-.755-2.52-3.584-1.307-5.266Zm2.39-.165c-.8.354-1.139 1.292-1.22 2.127-.088.752.011 1.653.644 2.138.782.421 1.864.158 2.31-.654.51-.966.69-2.278.083-3.243-.392-.59-1.227-.58-1.816-.368Zm-2.553 10.269c-.456.7-.347 1.78.378 2.243.956.65 2.206.613 3.274.315.87-.278 1.816-.88 1.983-1.88.141-.744-.607-1.217-1.191-1.408-1.007-.27-2.045-.403-3.058-.658-.485.436-1.018.837-1.386 1.388ZM103.304 23.224c1.1-.138 2.198-.29 3.298-.432-.082.543-.157 1.086-.237 1.63.987-.805 2.121-1.523 3.404-1.626.622-.055 1.382.118 1.685.749.276.61.23 1.314.143 1.963-.342 2.127-.688 4.25-1.015 6.379l1.646.004c-.058.327-.112.656-.166.983-.891.248-1.766.625-2.695.66-.535.04-.656-.59-.575-1.012.33-2.208.7-4.412 1.035-6.62.037-.387.101-.807-.06-1.173-.269-.388-.786-.23-1.16-.144-.849.268-1.621.728-2.433 1.092-.348 2.568-.72 5.132-1.07 7.7-.573.003-1.146.003-1.719.003.442-2.972.888-5.94 1.325-8.91-.489-.082-.978-.16-1.466-.242.016-.336.038-.669.06-1.004ZM61.449 23.31c1.096-.14 2.19-.285 3.286-.431-.076.524-.151 1.048-.229 1.573 1.172-.981 2.684-1.808 4.23-1.357.606.185.837.824.966 1.4 1.062-.825 2.312-1.557 3.682-1.507.517-.002 1.108.195 1.345.713.286.631.177 1.36.13 2.032-.285 2.105-.617 4.205-.91 6.312.55-.002 1.1-.002 1.651-.002-.057.333-.111.668-.165 1.004-1.02.203-2.079.935-3.119.528-.25-.428-.131-.954-.084-1.419.295-1.789.561-3.582.856-5.368.077-.556.185-1.121.103-1.68-.018-.412-.481-.508-.8-.457-1.04.154-1.939.76-2.844 1.27-.388 2.606-.774 5.213-1.164 7.818-.57 0-1.142 0-1.712-.006.44-2.54.89-5.076 1.346-7.612.06-.456.16-.95-.022-1.392-.274-.38-.795-.244-1.171-.15-.812.284-1.558.734-2.338 1.094-.382 2.603-.774 5.204-1.16 7.807-.57.002-1.141.002-1.712.005.44-2.974.883-5.947 1.327-8.92-.526-.113-1.05-.23-1.574-.348.026-.302.054-.604.082-.906ZM9.037 4.778c.994-.787 2.305-1.347 3.556-.917 1.296.413 1.926 1.8 2.3 3.037.406-1.234 1.056-2.552 2.31-3.04 1.25-.511 2.568.161 3.566.932.937.017 2.065-.102 2.77.677.526.6.35 1.472.144 2.171-.421-.205-.84-.42-1.257-.633.02-.278.042-.553.064-.83-.736-.124-1.484-.095-2.22.016-.66-.568-1.432-1.302-2.363-1.107-.967.44-1.327 1.582-1.6 2.55-.724 2.984-.535 6.093-.582 9.142h-1.443c-.04-2.947.183-5.938-.47-8.833-.266-1.018-.598-2.22-1.573-2.741-.97-.32-1.854.479-2.55 1.081-.738-.123-1.492-.131-2.224.035l.078.788c-.42.21-.838.425-1.261.629-.183-.68-.402-1.518.083-2.122.647-.802 1.757-.753 2.672-.835ZM.049 4.126C1.075 5.434 2.673 5.975 3.87 7.07c1.13.98 1.973 2.255 2.715 3.559 1.136 1.937 2.694 3.732 4.773 4.581-.173.477-.349.952-.527 1.425-2.354-.86-4.084-2.883-5.367-5.021-.695-1.228-1.44-2.464-2.507-3.387C2.08 7.44.986 6.988.061 6.273a96.53 96.53 0 0 0-.012-2.147ZM25.91 7.305c1.208-1.236 2.965-1.741 4.005-3.172-.018.711-.018 1.42-.016 2.132-1.056.847-2.33 1.388-3.266 2.393-.927.94-1.566 2.118-2.238 3.253-1.258 2.02-2.944 3.905-5.186 4.725-.18-.477-.35-.956-.525-1.435 1.153-.47 2.182-1.228 3.023-2.165 1.645-1.72 2.43-4.125 4.203-5.73Z" fill="#A80A2D"/><path d="M18.256 7.422c.372.266.746.53 1.116.798-.722 1.662-.396 3.53.105 5.204-.461.152-.923.3-1.386.443-.633-2.071-.993-4.491.165-6.445ZM10.662 8.222c.378-.269.756-.538 1.14-.797 1.175 1.914.664 4.328.066 6.355a94.169 94.169 0 0 1-1.31-.353c.62-1.652.874-3.556.104-5.205ZM30 9.513c0 .572-.004 1.144-.012 1.713-1.36.588-2.788 1.01-4.255 1.193a32.234 32.234 0 0 0-.06-1.583c1.509-.17 2.947-.693 4.327-1.323ZM.055 9.52c1.376.633 2.816 1.145 4.32 1.32-.032.526-.051 1.054-.083 1.58a15.466 15.466 0 0 1-4.231-1.2c-.002-.566-.002-1.133-.006-1.7ZM.063 14.592c1.48-.201 2.985-.54 4.249-1.404.095.522.21 1.038.328 1.554-1.412.79-2.986 1.232-4.585 1.35.004-.5.006-1 .008-1.5ZM25.742 13.13c1.24.847 2.692 1.271 4.154 1.458.002.5.004 1.002.008 1.501-1.602-.117-3.181-.557-4.593-1.353.15-.532.298-1.067.431-1.606ZM.002 19.412c1.987-.851 3.232-2.733 4.925-4.008.249.463.514.917.802 1.355-1.16.81-1.97 2.024-3.085 2.887-.778.65-1.687 1.102-2.626 1.446-.008-.56-.01-1.12-.016-1.68ZM25.12 15.404c1.663 1.281 2.92 3.124 4.877 3.983 0 .566 0 1.131-.006 1.697-.85-.32-1.686-.71-2.404-1.288-1.192-.892-2.073-2.14-3.257-3.039.275-.442.537-.894.79-1.353ZM2.785 21.836c.764-1.74 1.922-3.277 3.31-4.532.372.362.752.718 1.136 1.068-1.379 1.168-2.507 2.664-3.183 4.375-.75 1.822-2.112 3.477-4.022 4.012-.012-.524-.018-1.05-.026-1.575 1.377-.623 2.188-1.993 2.785-3.348ZM22.727 18.372c.383-.35.761-.706 1.135-1.068 1.39 1.255 2.549 2.795 3.313 4.536.592 1.327 1.408 2.647 2.725 3.303-.002.534-.004 1.069-.01 1.605-1.132-.38-2.176-1.067-2.88-2.068-.96-1.217-1.318-2.796-2.229-4.043a11.785 11.785 0 0 0-2.054-2.265ZM7.779 18.733c.549.163 1.05.455 1.583.656-.624.436-1.235.93-1.643 1.598-1.239 1.974-1.336 4.513-2.789 6.37-.374.496-.885.847-1.384 1.197-.235-.442-.464-.886-.7-1.324 1.058-.747 1.629-1.972 2.007-3.198.626-1.928 1.31-4.003 2.926-5.299ZM20.645 19.402a13.973 13.973 0 0 0 1.593-.73c1.086.958 1.866 2.233 2.345 3.616.67 1.734 1.003 3.81 2.602 4.94-.229.444-.46.886-.692 1.328-.597-.405-1.18-.86-1.585-1.477-1.262-1.856-1.423-4.246-2.614-6.137-.4-.665-1.009-1.146-1.65-1.54ZM8.947 21.02c.78-.858 1.971-1.01 3.045-1.088.002.442.002.884.006 1.326-.815.097-1.788.192-2.26.994-.564.982-.447 2.204-.942 3.224-.378-.292-.75-.59-1.116-.899.268-1.225.374-2.611 1.267-3.557ZM18.014 19.934c1.07.07 2.248.21 3.043 1.038.921.952 1.04 2.367 1.303 3.613-.374.302-.75.603-1.13.895-.467-1.04-.366-2.27-.947-3.26-.485-.793-1.462-.859-2.273-.958l.004-1.328ZM9.59 25.889c.752.421 1.537.769 2.353 1.04-.76 1.246-1.424 2.601-1.536 4.096-.46-.008-.919-.012-1.378-.016.093-1.306.503-2.56 1.086-3.716-.885.903-1.93 1.633-3.088 2.104-.183-.42-.362-.841-.545-1.259 1.17-.534 2.187-1.342 3.108-2.25ZM18.094 26.927c.82-.271 1.615-.614 2.37-1.042.902.92 1.925 1.717 3.084 2.257-.175.418-.348.837-.52 1.255a11.14 11.14 0 0 1-3.08-2.063c.553 1.135.97 2.355 1.05 3.632-.451-.003-.905-.003-1.357-.003-.16-1.463-.773-2.816-1.547-4.036ZM12.518 27.081c.47.089.939.175 1.41.258.239 1.681.511 3.536-.31 5.099-.764 1.254-2.375 1.248-3.43 2.114.155.606.388 1.186.659 1.745-.468.107-.935.222-1.399.346-.41-.88-.879-1.97-.328-2.9.75-1.287 2.554-1.077 3.384-2.237.595-1.377.465-3.02.014-4.425ZM15.943 27.25c.49-.084.979-.173 1.466-.265-.199 1.503-.539 3.175.155 4.593.882 1.045 2.543.917 3.32 2.112.585.93.13 2.069-.3 2.959a55.519 55.519 0 0 0-1.392-.358c.234-.588.84-1.384.274-1.96-.748-.618-1.774-.69-2.548-1.27-.63-.417-.953-1.168-1.086-1.904-.247-1.296-.06-2.616.111-3.907ZM1.656 29.53c.665-.17 1.385-.35 2.05-.078.711.239 1.16.889 1.618 1.458-.45.148-.877.354-1.275.617-.467-.545-1.048-1.11-1.822-.884a52.379 52.379 0 0 1-.57-1.113ZM24.697 30.92c.486-.594.973-1.274 1.733-1.499.642-.226 1.317-.053 1.95.116-.19.378-.383.754-.578 1.13-.763-.26-1.344.32-1.806.864a5.17 5.17 0 0 0-1.299-.61Z" fill="#A80A2D"/><path d="M5.781 31.073c.56-.504 1.106-1.018 1.66-1.526l1.044.9-1.721 1.524a4.453 4.453 0 0 0-.983-.898ZM21.55 30.448c.355-.303.709-.605 1.063-.903.541.514 1.088 1.022 1.64 1.528-.357.269-.685.571-.991.9a75.741 75.741 0 0 0-1.711-1.525ZM1.203 34.134c.185-1.375 1.474-2.183 2.702-2.395-.036.477-.044.956-.02 1.435-.452.208-1.01.37-1.222.884-.258.533-.091 1.135-.046 1.697-.497-.513-1.09-.963-1.414-1.62ZM26.127 31.83c1.323.197 2.513 1.12 2.849 2.494-.43.581-.925 1.102-1.456 1.585.008-.617.165-1.308-.203-1.855-.267-.442-.768-.61-1.215-.785.101-.475.095-.96.025-1.44ZM6.156 33.848c.253-.374.482-.762.702-1.155.418.417.9.843 1.035 1.458.175.582-.008 1.18-.135 1.752-.432-.169-.862-.344-1.291-.519.099-.544.055-1.102-.31-1.536ZM22.177 34.04c.157-.568.622-.944 1.024-1.329.213.393.436.78.678 1.154-.346.434-.433.977-.298 1.513a69.84 69.84 0 0 1-1.29.514c-.156-.6-.311-1.244-.114-1.852ZM4.103 36.244c-.48-.822-.36-1.838-.07-2.706.416.216.844.407 1.29.55-.038.47-.207.994.065 1.426.235.39.645.61.993.878-.17.44-.338.882-.513 1.32-.689-.333-1.409-.736-1.765-1.468ZM24.7 34.073a5.047 5.047 0 0 0 1.329-.523c.255.928.274 1.99-.249 2.826-.374.655-1.048 1.02-1.69 1.336-.176-.44-.347-.884-.516-1.326.424-.303.955-.545 1.156-1.074.161-.4.026-.83-.03-1.24ZM12.455 36.85c.462-.055.923-.115 1.387-.174.165 1.137.479 2.276 1.217 3.168.752-.886 1.106-2.025 1.245-3.178.518.07 1.033.131 1.55.197-.197 1.156-.394 2.377-1.112 3.327-.543.701-1.108 1.384-1.596 2.13-.457-.695-.976-1.339-1.49-1.986-.757-.993-1-2.266-1.2-3.483Z" fill="#A80A2D"/><path d="M119.314 22.79h.945v10.693c-.316 0-.63 0-.945.002V22.79ZM166.964 23.064c.667-.082 1.337-.148 2.003-.239 0 2.774.002 5.548-.002 8.322l.878.179v.643c-.661.103-1.323.195-1.988.27l.004-.449c-.704.342-1.499.695-2.285.43-1.017-.276-1.572-1.357-1.681-2.369-.197-1.41.157-3.074 1.382-3.892.758-.541 1.713-.481 2.578-.333-.002-.593-.002-1.183 0-1.775-.3-.072-.6-.142-.897-.212l.008-.575Zm-2.001 5.138c-.139.927-.117 2.079.649 2.725.644.522 1.495.314 2.241.234-.025-1.546.054-3.095-.031-4.635-.209-.35-.685-.154-1.005-.179-.949.072-1.711.905-1.854 1.855ZM171.332 23.177c.428-.305 1.148-.122 1.184.485-.04.695-.919.802-1.333.383-.026-.272-.157-.724.149-.868ZM127.348 23.872c.903-.002 1.806-.002 2.709-.002v.604c-.245.08-.489.16-.734.243.613 2.128 1.255 4.248 1.868 6.378.636-2.122 1.261-4.246 1.9-6.368-.243-.082-.486-.162-.725-.245-.001-.154-.001-.458-.003-.612h2.522l-.002.614c-.255.08-.505.163-.756.245-.812 2.46-1.645 4.91-2.465 7.365h-1.251c-.764-2.457-1.54-4.908-2.299-7.367a61.674 61.674 0 0 1-.76-.249l-.004-.606ZM135.2 26.5c.788-1.148 2.62-1.366 3.593-.358.656.705.648 1.745.69 2.659-1.301.01-2.6-.003-3.901.008.068.699.11 1.511.687 1.99.825.707 1.973.452 2.952.364l-.046.693c-.979.397-2.101.66-3.111.236-.919-.325-1.431-1.322-1.508-2.274-.09-1.129-.03-2.373.644-3.318Zm.768.407c-.213.399-.27.857-.37 1.293.909-.095 1.818-.193 2.731-.261-.085-.399-.105-.839-.336-1.184-.507-.632-1.623-.566-2.025.152ZM140.273 25.739c.627-.031 1.252-.095 1.876-.146l-.024.528c.728-.427 1.546-.76 2.395-.518.004.518.004 1.038.006 1.559l-.879-.006-.336-.652c-.394.072-.784.152-1.174.232 0 1.5.004 2.996-.004 4.495.368.084.738.173 1.108.261 0 .15-.002.452-.004.602h-3.061l-.002-.61c.292-.085.585-.169.881-.253-.008-1.51-.006-3.02-.002-4.53-.28-.086-.559-.17-.823-.29-.022-.226.015-.45.043-.672ZM146.675 25.587c.75-.25 1.514.055 2.139.485a5.046 5.046 0 0 1 1.904-.387c-.002.354 0 .71.002 1.065-.46-.002-.919-.004-1.375-.008.296.7.428 1.555-.054 2.204-.571.85-1.655.913-2.562.915-.046.408-.288.864-.042 1.244 1.11.484 2.469-.222 3.515.504.559.61.346 1.651-.155 2.233-.941 1.053-2.466 1.29-3.777 1.061-.726-.136-1.624-.522-1.721-1.384-.074-.682.553-1.07.995-1.439-.052-.39-.158-.787-.092-1.182.127-.46.464-.812.748-1.176-.613-.373-1.156-.975-1.144-1.754-.111-1.067.583-2.163 1.619-2.381Zm.177.832c-.962.34-.952 1.765-.352 2.445.537.625 1.649.403 1.964-.351.473-1.016-.434-2.63-1.612-2.094Zm-.74 5.87c-.202.311-.511.603-.519 1.002.126.53.677.747 1.148.825.83.125 1.768.016 2.423-.572.308-.265.463-.812.139-1.127-1.044-.246-2.13-.06-3.191-.127ZM153.755 25.554c.851-.16 1.822.066 2.403.765.682.781.81 1.902.742 2.913-.056.983-.448 2.007-1.243 2.593-1.206.882-3.145.55-3.816-.876-.903-1.869-.364-4.96 1.914-5.395Zm-.149.892c-.701.35-.919 1.213-.975 1.95-.046.853-.048 1.794.426 2.535.481.74 1.645.73 2.182.061.704-1.143.648-2.714.183-3.943-.32-.67-1.184-.89-1.816-.603ZM158.678 26.493c.812-1.178 2.747-1.371 3.678-.246.571.709.555 1.682.601 2.553-1.301.01-2.6-.002-3.901.009.068.7.112 1.517.69 1.994.828.703 1.972.446 2.949.36l-.048.695c-.979.395-2.099.658-3.111.232-.915-.32-1.427-1.316-1.504-2.266-.092-1.133-.034-2.38.646-3.33Zm.766.41c-.215.398-.272.859-.372 1.297.907-.095 1.816-.193 2.729-.261-.079-.397-.105-.83-.328-1.176-.503-.638-1.623-.576-2.029.14ZM170.381 25.942c.664-.15 1.333-.285 1.999-.427-.014 1.906.002 3.812-.008 5.718l.881.265c-.002.148-.004.446-.004.596h-2.862c-.002-.15-.004-.452-.004-.602l.909-.261c-.008-1.495-.004-2.988-.004-4.483-.304-.078-.609-.156-.907-.234v-.572ZM173.766 25.751c.674-.068 1.35-.144 2.023-.245l-.018.568c.849-.46 1.894-.82 2.815-.348.646.34.801 1.158.819 1.839.032 1.223.004 2.444.004 3.668l.895.249.002.61c-.968.002-1.937.002-2.906.002v-.606c.3-.089.605-.175.909-.261-.077-1.343.151-2.723-.161-4.04-.38-.963-1.591-.59-2.361-.531-.01 1.527-.002 3.057-.006 4.585l.903.235v.618h-2.916c-.002-.15-.004-.452-.004-.602l.909-.261a578.287 578.287 0 0 1-.002-4.563 77.732 77.732 0 0 1-.911-.261c.002-.165.006-.491.006-.656ZM183.064 25.59c.754-.254 1.524.046 2.151.482a5.014 5.014 0 0 1 1.906-.387c-.002.354-.002.71.001 1.066-.459-.003-.919-.005-1.374-.009.294.7.428 1.55-.052 2.2-.571.854-1.655.917-2.564.92-.046.405-.288.861-.044 1.241 1.114.494 2.491-.232 3.535.52.565.665.303 1.757-.272 2.328-.991.99-2.509 1.193-3.812.923-.682-.148-1.496-.544-1.587-1.348-.078-.685.551-1.078.994-1.446-.051-.393-.159-.787-.089-1.184.127-.46.459-.813.746-1.174-.613-.37-1.156-.977-1.144-1.754-.109-1.063.575-2.155 1.605-2.377Zm.172.836c-.947.355-.929 1.77-.325 2.444.537.617 1.641.393 1.956-.355.479-1.024-.446-2.649-1.631-2.09Zm-.719 5.864c-.204.308-.507.598-.523.993.12.53.667.752 1.136.829.836.131 1.784.022 2.445-.574.306-.265.434-.783.151-1.114-1.05-.253-2.142-.066-3.209-.134ZM188.509 26.504c.81-1.189 2.759-1.386 3.692-.251.567.71.549 1.678.595 2.548-1.301.01-2.602-.002-3.901.008.068.697.109 1.51.684 1.988.826.71 1.974.455 2.954.366l-.047.695c-.979.395-2.099.658-3.112.232-.913-.322-1.424-1.311-1.503-2.257-.094-1.133-.034-2.38.638-3.33Zm.772.403c-.213.399-.271.857-.37 1.293.907-.094 1.816-.193 2.727-.259-.071-.403-.107-.835-.33-1.182-.503-.636-1.623-.572-2.027.148ZM193.459 25.751a42.074 42.074 0 0 0 2.023-.245l-.018.57c.848-.463 1.89-.82 2.811-.352.653.34.806 1.164.826 1.851.029 1.22.002 2.439.002 3.658l.895.25.002.61-2.907.001v-.606c.301-.088.603-.175.91-.261-.026-1.084.021-2.167-.022-3.251-.042-.473-.096-1.084-.575-1.302-.615-.263-1.289-.072-1.924-.02-.016 1.528-.002 3.057-.008 4.587l.903.235v.618h-2.916c-.002-.15-.004-.452-.004-.602l.909-.261c-.008-1.52-.006-3.041-.002-4.563a83.722 83.722 0 0 1-.911-.26c.002-.165.006-.492.006-.657Z" fill="#212121"/></svg>