<svg width="166" height="64" viewBox="0 0 166 64" fill="none" xmlns="http://www.w3.org/2000/svg">
<path d="M27.0645 13.6927C27.1006 13.6927 27.1006 13.6927 27.1367 13.6927C27.0645 13.6565 26.9922 13.6565 26.9199 13.6204L27.0645 13.6927Z" fill="#DBDD93"/>
<path d="M4.48047 14.5967L8.52749 24.2893L4.48047 14.5967Z" fill="#B8BF00"/>
<path d="M28.0049 13.9458C27.8965 13.9096 27.5352 13.8011 27.2461 13.7288C27.3906 13.7649 27.5713 13.8373 27.7158 13.8734C27.8242 13.9096 27.9326 13.9096 28.0049 13.9458Z" fill="#5057A3"/>
<path d="M2.71094 10.329L4.48151 14.5966L6.50502 9.17163C5.16806 9.4248 3.90336 9.82262 2.71094 10.329Z" fill="#DDDD92"/>
<path d="M16.4427 24.904L12.2872 14.1626L8.5293 24.2892L12.8654 34.7051L16.3343 25.121L16.4427 24.904Z" fill="#DDDD92"/>
<path d="M20.1642 14.8499H20.2003V14.8137L21.5734 11.0886C20.5616 10.5823 19.4776 10.1483 18.3213 9.78661C18.0322 9.67811 17.7432 9.60578 17.418 9.53345L19.8751 15.5009L20.1642 14.8499Z" fill="#DDDD92"/>
<path d="M31.6175 25.5188L27.6066 15.0305L23.8848 25.0848L28.0402 35.139L31.5813 25.6273L31.6175 25.5188Z" fill="#DDDD92"/>
<path d="M13.3333 8.81003C12.3216 8.70153 11.3098 8.70153 10.2981 8.73769C9.93672 8.73769 9.57538 8.77386 9.21404 8.81003C8.27455 8.88236 7.3712 8.99086 6.50398 9.17169L4.48047 14.5967L8.52749 24.2892L12.2854 14.1627V14.1265L14.2367 8.91853C13.9476 8.88236 13.6224 8.84619 13.3333 8.81003Z" fill="#BCBE00"/>
<path d="M42.6392 13.3309C40.5434 14.1627 38.1224 14.7052 35.5208 14.8137L31.6183 25.519L31.5822 25.6275L28.041 35.1392V35.1754L29.4864 39.0814H34.1838L35.304 36.0434L39.3871 25.085L43.2173 14.8137L44.0123 12.7161C43.5425 12.9692 43.0728 13.1501 42.6392 13.3309Z" fill="#BCBE00"/>
<path d="M27.7144 13.8734C27.5699 13.8372 27.3892 13.7649 27.2446 13.7287C27.2085 13.7287 27.1724 13.6926 27.1362 13.6926C27.1001 13.6926 27.1001 13.6926 27.064 13.6926L26.9194 13.6202C25.4379 13.1139 24.0287 12.4991 22.8002 11.7396C22.4388 11.5226 22.0413 11.3056 21.6439 11.1248L20.2346 14.8499V14.8861H20.1985L19.9456 15.5732L16.4406 24.9403L16.3683 25.1573L12.8633 34.7414L14.5255 39.1537H18.6447L19.7649 36.1157L23.848 25.1212V25.085L27.606 15.0307L27.6783 14.8861L28.0035 13.9819C27.9312 13.9096 27.8228 13.9096 27.7144 13.8734Z" fill="#BCBE00"/>
<path d="M54.2738 34.8498C53.6234 35.3561 53.3704 35.5008 53.0452 35.6816C52.4309 36.0433 51.7083 36.2241 51.1301 36.2241C49.9738 36.2241 49.2511 35.537 49.2511 34.3435C49.2511 33.8733 49.3234 33.5116 49.6125 32.8245L54.2738 31.3055V34.8498ZM60.4166 36.1156C59.1519 36.0071 58.9712 35.7178 58.9712 34.0903V26.4954C58.9712 22.5171 57.02 20.7087 52.6839 20.7087C47.7696 20.7087 44.9512 22.5532 44.9512 25.7359C44.9512 26.2422 44.9873 26.423 45.2041 27.0017L49.6486 26.0252C49.5764 25.772 49.5402 25.6997 49.5402 25.555C49.5402 24.6509 50.6604 23.9275 52.0696 23.9275C53.5872 23.9275 54.3099 24.8317 54.3099 26.7847V28.3037L49.1427 29.7865C46.4688 30.5822 45.3848 31.414 44.7705 33.1138C44.5898 33.6925 44.4453 34.3073 44.4453 34.9583C44.4453 37.8516 46.6495 39.8769 49.7209 39.8769C51.5637 39.8769 53.0814 39.2259 54.8158 37.6346C55.6469 39.2259 56.3696 39.6238 58.7183 39.6238H59.6939L60.4166 36.1156Z" fill="#BCBE00"/>
<path d="M74.8334 34.8498C74.1829 35.3561 73.93 35.5008 73.6409 35.6816C73.0267 36.0433 72.304 36.2241 71.7258 36.2241C70.5695 36.2241 69.8469 35.537 69.8469 34.3435C69.8469 33.8733 69.9191 33.5116 70.2082 32.8245L74.8695 31.3055V34.8498H74.8334ZM80.9762 36.1156C79.7115 36.0071 79.5308 35.7178 79.5308 34.0903V26.4954C79.5308 22.5171 77.5796 20.7087 73.2435 20.7087C68.3292 20.7087 65.5108 22.5532 65.5108 25.7359C65.5108 26.2422 65.5469 26.423 65.7276 27.0017L70.1721 26.0252C70.0998 25.772 70.0637 25.6997 70.0637 25.555C70.0637 24.6509 71.1838 23.9275 72.593 23.9275C74.1107 23.9275 74.8334 24.8317 74.8334 26.7847V28.3037L69.6662 29.7865C66.9923 30.5822 65.9082 31.414 65.294 33.1138C65.1133 33.6925 64.9688 34.3073 64.9688 34.9583C64.9688 37.8516 67.1729 39.8769 70.2443 39.8769C72.0872 39.8769 73.6048 39.2259 75.3392 37.6346C76.1703 39.2259 76.893 39.6238 79.2417 39.6238H80.2173L80.9762 36.1156Z" fill="#BCBE00"/>
<path d="M86.5059 39.4068V10.9077H91.1671V39.4068H86.5059Z" fill="#BCBE00"/>
<path d="M116.715 39.4068H112.053L109.741 31.3055L109.09 28.8824L108.44 31.3055L106.127 39.4068H101.43L95.6484 21.2151H100.563L103.923 34.0542L103.959 34.5605L103.995 34.0542L106.995 23.3489L106.453 21.2513H111.15L114.294 34.0542V34.5967L114.33 34.0542L117.835 21.2513H122.496L116.715 39.4068Z" fill="#BCBE00"/>
<path d="M129.649 17.8516C128.203 17.8516 126.975 16.4411 126.975 14.669C126.975 12.8968 128.167 11.4863 129.649 11.4863C131.094 11.4863 132.25 12.8968 132.25 14.669C132.25 16.4411 131.094 17.8516 129.649 17.8516ZM127.3 39.4068V21.2151H131.961V39.4068H127.3Z" fill="#BCBE00"/>
<path d="M141.176 17.8516C139.731 17.8516 138.574 16.4411 138.574 14.669C138.574 12.8968 139.731 11.4863 141.176 11.4863C142.621 11.4863 143.778 12.8968 143.778 14.669C143.778 16.4411 142.621 17.8516 141.176 17.8516ZM141.61 45.6636C140.995 46.6762 140.562 47.2911 139.333 48.9185L135.9 46.4954C136.984 45.1572 137.346 44.5786 137.852 43.4574C138.538 41.8661 138.863 40.2386 138.863 38.141V21.2151H143.525V41.6491C142.73 43.6744 142.332 44.4339 141.61 45.6636Z" fill="#BCBE00"/>
<path d="M160.688 39.4068L155.015 30.0397V39.3707H150.354V10.9077H155.015V29.0994L160.688 21.2513H165.927L159.387 29.6057L166 39.4068H160.688Z" fill="#BCBE00"/>
<path d="M45.8541 2.87878C44.1558 4.07227 42.0601 4.97643 39.7114 5.51892C39.2777 5.62742 38.808 5.69975 38.3744 5.77209C36.4593 6.09759 34.3996 6.16992 32.3039 5.98909H32.2677C31.7619 5.95292 31.256 5.88059 30.7501 5.80825C28.4014 5.44659 26.2695 4.75943 24.3544 3.85527C23.9208 3.63827 23.451 3.42127 23.0535 3.16811C22.9813 3.13194 22.8729 3.09577 22.8006 3.02344C21.1746 2.08311 19.3317 1.28745 17.3082 0.781125C16.5133 0.564126 15.6822 0.419461 14.815 0.274795C14.3452 0.202462 13.8394 0.130129 13.3335 0.093963C12.1772 -0.0145362 11.0209 -0.0145361 9.90074 0.0216303C8.96125 0.0577967 8.02176 0.166296 7.15454 0.310961C5.31171 0.636459 3.6134 1.14279 2.09577 1.86612C1.33696 2.22778 0.650413 2.62561 0 3.05961L0.831079 5.26576L1.73443 7.68891L2.71006 10.3291C3.90248 9.82272 5.16717 9.42489 6.50413 9.17173C7.37135 8.9909 8.2747 8.8824 9.21419 8.81007C9.57553 8.7739 9.93687 8.7739 10.2982 8.73773C11.2738 8.70157 12.2856 8.73773 13.3335 8.81007C13.6587 8.84623 13.9478 8.8824 14.273 8.91856C15.3931 9.06323 16.441 9.28023 17.4889 9.53339C17.778 9.60573 18.1032 9.71422 18.3922 9.78656C19.5485 10.1482 20.6326 10.5822 21.6443 11.0885C22.0418 11.3055 22.4393 11.4864 22.8006 11.7034C24.0653 12.4267 25.4384 13.0777 26.9199 13.584C26.9922 13.6202 27.0644 13.6202 27.1367 13.6564C27.1728 13.6564 27.209 13.6925 27.2812 13.6925C27.6064 13.7649 27.9678 13.9095 28.0762 13.9095C29.4131 14.2712 30.8585 14.5605 32.34 14.7052C33.2434 14.7775 34.1828 14.8137 35.0501 14.8137C35.2307 14.8137 35.3753 14.8137 35.5559 14.7775C38.1576 14.669 40.5424 14.1627 42.6744 13.2947C43.1441 13.1139 43.5777 12.8969 44.0113 12.6799L45.8903 7.65274L46.7936 5.22959L48.6726 0.166296C47.9138 1.21512 46.9743 2.11928 45.8541 2.87878Z" fill="#2B2A7F"/>
<path d="M26.6303 51.5588C26.3413 51.3779 26.0883 51.2694 25.9438 51.161C25.185 50.7993 24.0648 50.5823 22.9085 50.5823C20.8489 50.5823 19.4758 51.1248 18.1388 52.4268C16.7657 53.7649 16.0069 55.5371 16.0069 57.3816C16.0069 60.4195 18.0665 62.3725 21.2463 62.3725C22.4026 62.3725 23.2699 62.2279 23.8841 61.9024L24.643 57.2369H26.4497L25.5102 63.1682C25.0404 63.349 24.643 63.4575 24.4261 63.5299C23.4505 63.8192 22.0774 64 20.9573 64C16.7657 64 14.0918 61.5045 14.0918 57.6347C14.0918 52.7161 17.8859 48.991 22.9085 48.991C24.0287 48.991 25.2211 49.1356 25.9438 49.3165C26.4858 49.4973 26.811 49.642 27.5698 50.076L26.6303 51.5588Z" fill="#2B2A7F"/>
<path d="M36.0969 55.5733C36.0969 55.6456 36.0608 55.7903 36.0246 55.9711L31.9053 58.5751C32.3751 56.3689 33.7482 54.6691 35.1574 54.6691C35.591 54.6691 36.0969 55.1393 36.0969 55.5733ZM37.6145 55.2839C37.6145 54.1266 36.7112 53.4395 35.3019 53.4395C32.4112 53.4395 29.918 56.7668 29.918 60.6004C29.918 62.7704 30.7852 63.8554 32.5196 63.8554C34.0373 63.8554 35.7356 62.7704 37.6145 60.6727L36.675 59.6962C35.3381 61.4322 33.8566 62.4811 32.8087 62.4811C32.0499 62.4811 31.6163 61.8301 31.6163 60.6004C31.6163 60.3472 31.6163 60.3111 31.6524 60.0941L36.2776 57.2369C37.2171 56.6944 37.6145 56.1158 37.6145 55.2839Z" fill="#2B2A7F"/>
<path d="M55.9713 56.1158L54.7788 63.7107H53.1167L54.2729 56.4051C54.3452 56.0796 54.3814 55.6094 54.3814 55.4286C54.3814 55.1031 54.2368 54.8861 53.9477 54.8861C53.4419 54.8861 52.7192 55.3924 51.8158 56.4051C51.0209 57.2731 50.2621 58.2134 49.7201 59.0814C49.5032 59.4431 49.3226 59.7686 49.2142 60.0579C49.1419 60.2026 49.0696 60.5281 48.9251 60.9982C48.8167 61.3599 48.7806 61.6131 48.7444 61.7577L48.4192 63.6745H46.7571L47.9133 56.3689L47.9856 55.8988C48.0218 55.7903 48.0218 55.6818 48.0218 55.5371C48.0218 55.0669 47.8772 54.8499 47.552 54.8499C47.0823 54.8499 46.3234 55.3924 45.4201 56.3689C44.6251 57.2369 43.8302 58.2134 43.3243 59.0091C43.1075 59.3346 42.9268 59.6601 42.8184 59.9856C42.6739 60.3834 42.4571 61.2152 42.3487 61.7216L42.0596 63.6384H40.4336L41.9874 53.8734L43.6857 53.5841L42.9268 57.5624C43.1437 57.2731 43.3243 57.0199 43.4689 56.8753C44.1193 55.9711 44.5167 55.5009 45.0588 54.9946C46.1428 53.9458 47.1184 53.4395 48.0579 53.4395C49.178 53.4395 49.7201 53.9819 49.7201 55.1393C49.7201 55.8264 49.5394 56.8029 49.2503 57.5624C50.8763 55.0308 52.8999 53.4395 54.3452 53.4395C55.5015 53.4395 56.0435 53.9819 56.0435 55.0669C56.0435 55.3924 56.0074 55.7903 55.9713 56.1158Z" fill="#2B2A7F"/>
<path d="M65.51 55.5733C65.51 55.6456 65.4739 55.7903 65.4377 55.9711L61.3184 58.5751C61.7882 56.3689 63.1613 54.6691 64.5705 54.6691C65.0402 54.6691 65.51 55.1393 65.51 55.5733ZM67.0638 55.2839C67.0638 54.1266 66.1604 53.4395 64.7512 53.4395C61.8604 53.4395 59.3672 56.7668 59.3672 60.6004C59.3672 62.7704 60.2344 63.8554 61.9688 63.8554C63.4865 63.8554 65.1848 62.7704 67.0638 60.6727L66.1243 59.6962C64.7873 61.4322 63.3058 62.4811 62.2579 62.4811C61.4991 62.4811 61.0655 61.8301 61.0655 60.6004C61.0655 60.3472 61.0655 60.3111 61.1016 60.0941L65.7268 57.2369C66.6663 56.6944 67.0638 56.1158 67.0638 55.2839Z" fill="#2B2A7F"/>
<path d="M75.9172 55.5733C75.9172 55.6456 75.8811 55.7903 75.8449 55.9711L71.7257 58.5751C72.1954 56.3689 73.5685 54.6691 74.9777 54.6691C75.4113 54.6691 75.9172 55.1393 75.9172 55.5733ZM77.4348 55.2839C77.4348 54.1266 76.5315 53.4395 75.1223 53.4395C72.2315 53.4395 69.7383 56.7668 69.7383 60.6004C69.7383 62.7704 70.6055 63.8554 72.3399 63.8554C73.8576 63.8554 75.5559 62.7704 77.4348 60.6727L76.4954 59.6962C75.1584 61.4322 73.6769 62.4811 72.629 62.4811C71.8702 62.4811 71.4366 61.8301 71.4366 60.6004C71.4366 60.3472 71.4366 60.3111 71.4727 60.0941L76.0979 57.2369C77.0374 56.6944 77.4348 56.1158 77.4348 55.2839Z" fill="#2B2A7F"/>
<path d="M89.431 56.1157L88.2386 63.7107H86.5764L87.7327 56.4051L87.805 55.9349C87.8411 55.8264 87.8411 55.7179 87.8411 55.5732C87.8411 55.1031 87.6966 54.8861 87.4075 54.8861C86.9016 54.8861 86.1428 55.4286 85.2756 56.4051C84.4806 57.2731 83.6857 58.2134 83.1798 59.0452C82.963 59.3707 82.7823 59.6962 82.6739 60.0217C82.5294 60.4195 82.3126 61.2514 82.2042 61.7577L81.9151 63.6745H80.2891L81.8428 53.9096L83.5411 53.6203L82.7823 57.5986C82.9991 57.3092 83.1798 57.0561 83.3243 56.9114C83.9747 56.0072 84.3722 55.5371 84.9142 55.0307C85.9621 53.9819 86.9739 53.4756 87.8772 53.4756C88.9974 53.4756 89.5394 54.0181 89.5394 55.2116C89.5033 55.5371 89.4671 55.8626 89.431 56.1157Z" fill="#2B2A7F"/>
<path d="M97.8146 60.926C97.3449 61.3961 96.9836 61.7216 96.6945 61.9748C95.9357 62.6258 95.1407 63.2406 94.4903 63.6023C94.129 63.8193 93.9844 63.8555 93.4063 63.964C93.2618 63.6746 93.1533 63.313 93.1533 62.7705C93.1533 62.5896 93.1895 62.3003 93.1895 61.9748C93.2256 61.5408 93.2617 61.2515 93.2979 61.0706L94.2374 55.1394H92.3223L92.5029 53.9097L94.4542 53.765L94.8878 51.0164L96.5861 50.7271L96.1163 53.765H98.2121L97.9953 55.1394H95.8995L94.8516 61.9025L95.4298 61.4323L96.2247 60.6728L96.9113 60.058L97.381 59.5878L98.176 60.5643L97.8146 60.926Z" fill="#2B2A7F"/>
<path d="M106.667 55.5733C106.667 55.6456 106.631 55.7903 106.595 55.9711L102.476 58.5751C102.945 56.3689 104.318 54.6691 105.728 54.6691C106.161 54.6691 106.667 55.1393 106.667 55.5733ZM108.185 55.2839C108.185 54.1266 107.281 53.4395 105.872 53.4395C102.982 53.4395 100.488 56.7668 100.488 60.6004C100.488 62.7704 101.355 63.8554 103.09 63.8554C104.608 63.8554 106.306 62.7704 108.185 60.6727L107.245 59.6962C105.908 61.4322 104.427 62.4811 103.379 62.4811C102.62 62.4811 102.187 61.8301 102.187 60.6004C102.187 60.3472 102.187 60.3111 102.223 60.0941L106.848 57.2369C107.787 56.6944 108.185 56.1158 108.185 55.2839Z" fill="#2B2A7F"/>
</svg>
