<svg width="150" height="40" fill="none" xmlns="http://www.w3.org/2000/svg"><g clip-path="url(#a)" fill="#24A1A3"><path d="M142.743.07c1.375-.204 2.818.034 4.032.736a6.44 6.44 0 0 1 2.651 2.915 6.638 6.638 0 0 1-.021 5.446 6.414 6.414 0 0 1-3.049 3.088c-1.225.586-2.635.726-3.957.456-1.551-.323-2.955-1.281-3.86-2.602a6.404 6.404 0 0 1-1.13-3.739 6.4 6.4 0 0 1 1.846-4.5 6.18 6.18 0 0 1 3.488-1.8Zm.372 1.188c-1.905.203-3.614 1.612-4.228 3.458-.538 1.556-.294 3.372.659 4.71.818 1.184 2.138 1.995 3.553 2.158a5.023 5.023 0 0 0 4.091-1.379 5.232 5.232 0 0 0 1.608-3.75 5.23 5.23 0 0 0-1.535-3.746 5.026 5.026 0 0 0-4.148-1.45Z"/><path d="M144.4 3.665h1.051c.001.474.002.948 0 1.422.765-.708 2.126-.333 2.529.61.352.815.216 1.915-.512 2.473-.586.455-1.55.52-2.059-.09l.004.314c-.339.002-.677.002-1.014.001-.003-.938.004-1.875-.004-2.812-.274.939-.563 1.872-.84 2.81-.33.004-.661.004-.99 0-.187-.75-.388-1.495-.577-2.245-.192.749-.376 1.5-.572 2.247h-.982c-.357-1.184-.712-2.368-1.067-3.553.363-.002.727.003 1.092-.005.186.72.358 1.445.528 2.17.19-.72.369-1.444.562-2.165.297 0 .595-.002.893.002.19.718.382 1.434.575 2.15.172-.715.337-1.432.508-2.148.29-.006.581-.005.872-.003.003-.393-.001-.786.003-1.178Zm1.648 2.093c-.651.142-.849 1.094-.36 1.53.43.448 1.252.178 1.382-.425.2-.609-.406-1.3-1.022-1.105ZM54.34 3.686c1.877-.003 3.753-.001 5.63-.002.003 4.878-.002 9.755.002 14.633 1.74-2.297 3.494-4.584 5.232-6.884 3.61-.004 7.22 0 10.83 0 0 .688.002 1.377-.001 2.066.792-.93 1.781-1.702 2.91-2.156 1.194-.496 2.508-.636 3.787-.538 1.69.108 3.364.7 4.695 1.781 1.313 1.054 2.27 2.52 2.87 4.1.273.738.507 1.498.603 2.283.052-.894.013-1.792.025-2.687 0-4.2-.002-8.399 0-12.598 1.877.002 3.754-.001 5.631.002.001 4.985-.001 9.97.001 14.955 2.146-.01 4.294.02 6.439-.022 2.426.001 4.852.002 7.278 0-.339-1.446-1.59-2.555-2.992-2.868-1.366-.304-2.908-.107-4.027.8-.438.331-.767.783-1.047 1.253 0-2.072.001-4.144-.001-6.217 3.152-1.402 7.037-.974 9.784 1.152a10.237 10.237 0 0 1 3.691 5.915c-.009-2.408-.003-4.816-.003-7.223h5.61V30.56l-5.611-.001v-7.58c-4.608 0-9.216-.002-13.824.001.137 1.267 1.026 2.347 2.141 2.872a5.037 5.037 0 0 0 3.447.32c.887-.231 1.614-.867 2.124-1.623h5.761c-.597 1.416-1.437 2.733-2.514 3.817-1.087 1.058-2.383 1.916-3.825 2.375-2.79.903-5.96.384-8.372-1.295a10.147 10.147 0 0 1-4.06-5.794c.001 2.302-.001 4.605.001 6.907-1.877.002-3.755 0-5.631 0-.002-2.086-.001-4.172-.001-6.258.003-.32-.002-.64-.023-.957-.473 2.859-2.242 5.522-4.79 6.861-1.82.977-3.978 1.233-5.986.82a6.938 6.938 0 0 1-3.765-2.168V40h-5.612v-9.44c-1.816-.005-3.631.009-5.446-.008-1.766-3.05-3.553-6.09-5.329-9.134-.004 3.047 0 6.094-.001 9.142l-5.631-.001c-.002-4.67 0-9.339-.001-14.008-.965.046-1.997.19-2.776.825-.65.518-.958 1.359-1.043 2.174-.075.838-.043 1.68-.05 2.52v8.49l-5.611-.001v-7.58c-4.595.001-9.19-.004-13.785.003.125 1.128.846 2.124 1.8 2.685 1.15.68 2.578.85 3.857.485.856-.241 1.557-.865 2.051-1.602 1.923-.003 3.845-.002 5.768 0-.606 1.42-1.444 2.746-2.532 3.83-1.105 1.077-2.431 1.94-3.9 2.39-2.907.908-6.202.276-8.63-1.575-2.203-1.636-3.69-4.237-3.977-7.003a11.61 11.61 0 0 1-.059-1.463c-.984 3.277-1.969 6.553-2.952 9.83-1.74.002-3.48-.001-5.219.002-1.062-4.106-2.127-8.211-3.195-12.315-1.048 4.103-2.082 8.211-3.132 12.314-1.739-.002-3.478.002-5.216-.002C3.828 24.182 1.903 17.81 0 11.432c1.942-.002 3.884 0 5.825 0 .958 3.942 1.904 7.889 2.862 11.832 1.02-3.944 2.039-7.889 3.061-11.833 1.582.001 3.163-.001 4.745.001 1.053 3.947 2.107 7.892 3.162 11.838.926-3.947 1.864-7.891 2.79-11.839l5.793.001c-.71 2.405-1.44 4.805-2.159 7.208 4.47.006 8.94-.034 13.41-.022-.206-.94-.833-1.746-1.61-2.272-1.086-.729-2.473-.87-3.725-.6a4.122 4.122 0 0 0-2.722 2.056c-.007-2.072.001-4.144-.004-6.215 3.018-1.341 6.705-1.007 9.427.89 2 1.406 3.452 3.588 4.01 5.997-.015-2.347-.002-4.694-.006-7.042 1.762-.002 3.525 0 5.287 0l.001 2.082c.366-.708.84-1.38 1.492-1.842.785-.57 1.75-.812 2.699-.88.002-2.37 0-4.737.002-7.106Zm10.49 16.158c1.975 3.077 3.943 6.16 5.916 9.238.004-5.428 0-10.856.002-16.284-1.972 2.35-3.943 4.7-5.918 7.046Zm15.585-3.694a4.587 4.587 0 0 0-3.37 1.925c-.896 1.274-1.15 2.986-.687 4.477a4.656 4.656 0 0 0 1.846 2.495c1.041.72 2.37.97 3.599.707a4.43 4.43 0 0 0 2.661-1.685 5.077 5.077 0 0 0 .944-3.988c-.25-1.357-1.056-2.624-2.237-3.321-.827-.495-1.805-.684-2.756-.61ZM115.677 3.685h5.61l.001 5.742c-1.87.002-3.741 0-5.611 0-.002-1.914-.001-3.827 0-5.742ZM128.979 11.622c1.143-.711 2.522-.894 3.84-.83 1.472.05 2.989.456 4.139 1.432 1.074.889 1.73 2.204 2.052 3.557.237 1.001.32 2.036.305 3.065v11.713c-1.877.002-3.754 0-5.631 0-.001-3.63.002-7.26-.001-10.891-.033-.813-.131-1.665-.562-2.37-.314-.531-.861-.892-1.449-1.026-.579-.137-1.186-.127-1.769-.023-.699.127-1.372.52-1.747 1.148-.478.773-.566 1.713-.589 2.605-.002 3.52.002 7.039-.002 10.557-1.869.002-3.739 0-5.609 0V11.432h5.246c.001.666-.002 1.33.002 1.995.473-.706 1.046-1.365 1.775-1.804Z"/></g><defs><clipPath id="a"><path fill="#fff" d="M0 0h150v40H0z"/></clipPath></defs></svg>