<svg width="166" height="56" viewBox="0 0 166 56" fill="none" xmlns="http://www.w3.org/2000/svg">
<g clip-path="url(#clip0_3263_24969)">
<path d="M15.9336 40.0081L31.8861 56L39.8624 48.0135L31.8861 40.0081L39.8624 32.0027L31.8861 23.9973L15.9336 40.0081Z" fill="#524F47"/>
<path d="M23.91 0L15.9337 8.00538L7.97626 0L0 8.00538L15.9337 23.9973L31.8863 8.00538L23.91 0Z" fill="#C8D400"/>
<path d="M55.7967 0L47.8392 8.00538L39.863 0L31.8867 8.00538L47.8392 23.9973L63.773 8.00538L55.7967 0Z" fill="#41C0F0"/>
<path d="M160.726 44.1519H162.716V38.388C163.072 37.936 163.823 37.4462 164.649 37.4462C165.118 37.4462 165.305 37.465 165.7 37.5404L165.981 35.8828C165.718 35.7886 165.381 35.751 164.911 35.751C163.898 35.751 163.091 36.4667 162.697 37.013V35.9205H160.707V44.1519H160.726ZM153.876 39.2545C153.97 37.8983 154.645 37.1637 155.64 37.1637C156.635 37.1637 157.123 38.0301 157.104 39.2545H153.876ZM156.053 44.3214C157.179 44.3214 158.268 44.1331 158.943 43.907L158.624 42.3625C157.949 42.4943 156.973 42.7015 156.41 42.7015C154.946 42.7015 153.82 42.4001 153.82 40.5919H159.168V39.8761C159.168 37.2955 158.211 35.7321 155.828 35.7321C153.519 35.7321 151.812 36.8246 151.812 40.1775C151.83 43.3984 153.463 44.3214 156.053 44.3214ZM149.315 34.7903L150.742 33.3588L149.315 31.946L147.908 33.3588L149.315 34.7903ZM148.34 44.1519H150.329V35.9205H148.34V44.1519ZM145.449 44.3026C146.012 44.3026 146.763 44.1707 147.232 44.02L147.007 42.419C146.932 42.4378 145.918 42.6073 145.412 42.6073C144.53 42.6073 144.248 42.4943 144.248 41.6655V37.4462H146.801V35.9016H144.248V34.2064H142.259V35.9016H141.058V37.4462H142.259V41.6844C142.278 44.3403 143.892 44.3026 145.449 44.3026ZM135.315 44.1519H137.304V38.388C137.661 37.936 138.411 37.4462 139.237 37.4462C139.706 37.4462 139.894 37.465 140.288 37.5404L140.57 35.8828C140.307 35.7886 139.969 35.751 139.5 35.751C138.486 35.751 137.679 36.4667 137.285 37.013V35.9205H135.315V44.1519ZM129.215 42.7015C128.577 42.7015 128.07 42.4378 128.07 41.7032C128.07 41.0251 128.671 40.6295 129.609 40.6107L131.13 40.5542V42.1741C130.717 42.3248 129.91 42.7015 129.215 42.7015ZM128.765 44.2838C129.947 44.2838 130.792 43.681 131.317 43.2854C131.505 44.0012 132.443 44.2272 133.307 44.2272H133.738L133.832 42.6827C133.419 42.645 133.081 42.5697 133.081 42.1741V38.162C133.081 36.3914 132.03 35.7133 129.76 35.7133C128.502 35.7133 127.432 36.0335 126.719 36.2972L127.132 37.7853C127.733 37.6346 128.633 37.4274 129.422 37.4274C130.604 37.4274 131.148 37.6534 131.148 38.5952V39.311L129.534 39.3298C128.014 39.3487 126.156 39.7631 126.156 41.835C126.137 43.4361 127.113 44.2838 128.765 44.2838ZM114.877 44.1519H117.41L118.78 39.0661L119.099 37.8041L119.362 39.085L120.601 44.1519H123.116L125.706 35.9205H123.66L121.915 42.5508L120.376 35.9205H117.955L116.19 42.5508L114.727 35.9205H112.606L114.877 44.1519ZM104.855 44.1519H106.844V40.2528L108.759 42.7392C109.809 44.1142 110.823 44.2649 111.855 44.3214L112.118 42.7957C111.292 42.5697 110.71 42.1176 110.053 41.3641L108.702 39.7442L111.874 35.9393H109.678L106.844 39.5182V32.7748H104.855V44.1519ZM98.6615 44.1519H100.651V38.388C101.007 37.936 101.758 37.4462 102.584 37.4462C103.053 37.4462 103.241 37.465 103.635 37.5404L103.916 35.8828C103.654 35.7886 103.316 35.751 102.847 35.751C101.833 35.751 101.026 36.4667 100.632 37.013V35.9205H98.6427V44.1519H98.6615ZM91.7925 39.2545C91.8864 37.8983 92.562 37.1637 93.5567 37.1637C94.5514 37.1637 95.0393 38.0301 95.0206 39.2545H91.7925ZM93.9696 44.3214C95.0956 44.3214 96.1842 44.1331 96.8598 43.907L96.5408 42.3625C95.8651 42.4943 94.8892 42.7015 94.3262 42.7015C92.8623 42.7015 91.7362 42.4001 91.7362 40.5919H97.085V39.8761C97.085 37.2955 96.1279 35.7321 93.7444 35.7321C91.436 35.7321 89.7281 36.8246 89.7281 40.1775C89.7656 43.3984 91.3984 44.3214 93.9696 44.3214ZM87.3821 44.3026C87.9452 44.3026 88.6959 44.1707 89.1651 44.02L88.9398 42.419C88.8648 42.4378 87.8513 42.6073 87.3446 42.6073C86.4625 42.6073 86.181 42.4943 86.181 41.6655V37.4462H88.7334V35.9016H86.181V34.2064H84.1916V35.9016H82.9905V37.4462H84.1916V41.6844C84.2104 44.3403 85.8244 44.3026 87.3821 44.3026ZM78.9742 44.3214C80.3443 44.3214 82.3899 43.8128 82.3899 41.7409C82.3899 39.0096 78.2986 39.3675 78.2986 38.0678C78.2986 37.7288 78.5989 37.3144 79.5185 37.3144C80.3818 37.3144 81.0011 37.465 81.658 37.6157L81.9958 36.1277C81.3577 35.9016 80.4944 35.7133 79.5372 35.7133C77.8294 35.7133 76.328 36.5232 76.328 38.1808C76.328 41.0816 80.4569 40.5919 80.4569 41.8539C80.4569 42.3059 80.0815 42.7015 78.8053 42.7015C78.1672 42.7015 77.3414 42.5697 76.4781 42.4378L76.2341 43.9824C76.9098 44.1707 77.8294 44.3214 78.9742 44.3214ZM69.9094 39.2545C70.0033 37.8983 70.6789 37.1637 71.6736 37.1637C72.6683 37.1637 73.1562 38.0301 73.1375 39.2545H69.9094ZM72.0865 44.3214C73.2125 44.3214 74.3011 44.1331 74.9767 43.907L74.6577 42.3625C73.982 42.4943 73.0061 42.7015 72.4431 42.7015C70.9792 42.7015 69.8531 42.4001 69.8531 40.5919H75.2019V39.8761C75.2019 37.2955 74.2448 35.7321 71.8613 35.7321C69.5528 35.7321 67.845 36.8246 67.845 40.1775C67.8638 43.3984 69.4965 44.3214 72.0865 44.3214ZM54.9704 44.1519H57.6917L59.9063 38.2562L61.8956 44.1519H64.5607L67.6761 33.4906H65.7242L63.2469 42.7957L60.2441 33.4906H58.1984L59.0993 36.09L56.4718 42.8334L54.4261 33.4718H52.418L54.9704 44.1519Z" fill="#524F47"/>
<path d="M110.805 25.4853C110.918 24.1102 111.574 23.4133 112.513 23.4133C113.489 23.4133 113.939 24.2421 113.939 25.4853H110.805ZM112.794 29.2149C113.789 29.2149 114.54 29.0077 114.746 28.9135L114.596 28.1789C114.333 28.2542 113.526 28.4426 113.076 28.4426C111.8 28.4426 110.843 28.1224 110.805 26.1634H114.859V25.8432C114.859 23.79 114.164 22.754 112.644 22.754C111.105 22.754 109.904 23.6205 109.904 26.1069C109.904 28.4614 111.03 29.2149 112.794 29.2149ZM108.234 29.196C108.609 29.196 109.116 29.0642 109.322 28.9888L109.172 28.2354C109.041 28.273 108.553 28.4049 108.196 28.4049C107.277 28.4049 107.033 28.2354 107.033 27.3312V23.6393H108.947V22.8859H107.014V21.6239H106.151V22.8859H105.25V23.6393H106.151V27.3312C106.151 29.1583 107.089 29.196 108.234 29.196ZM99.2629 29.083H100.145V24.2986C100.633 23.9972 101.346 23.5452 102.059 23.5452C103.185 23.5452 103.335 24.2044 103.335 25.2781V29.083H104.199V25.1086C104.199 24.0537 104.105 22.754 102.284 22.754C101.384 22.754 100.708 23.2249 100.145 23.6205V22.9236H99.2629V29.083ZM93.8766 25.4853C93.9892 24.1102 94.646 23.4133 95.5844 23.4133C96.5603 23.4133 97.0108 24.2421 97.0108 25.4853H93.8766ZM95.8659 29.2149C96.8606 29.2149 97.6113 29.0077 97.8178 28.9135L97.6676 28.1789C97.4049 28.2542 96.5979 28.4426 96.1474 28.4426C94.8712 28.4426 93.9141 28.1224 93.8766 26.1634H97.9491V25.8432C97.9491 23.79 97.2547 22.754 95.7346 22.754C94.1956 22.754 92.9945 23.6205 92.9945 26.1069C92.9569 28.4614 94.083 29.2149 95.8659 29.2149ZM87.8897 25.4853C88.0023 24.1102 88.6591 23.4133 89.5975 23.4133C90.5734 23.4133 91.0239 24.2421 91.0239 25.4853H87.8897ZM89.879 29.2149C90.8737 29.2149 91.6244 29.0077 91.8309 28.9135L91.6807 28.1789C91.418 28.2542 90.611 28.4426 90.1606 28.4426C88.8844 28.4426 87.9272 28.1224 87.8897 26.1634H91.9623V25.8432C91.9623 23.79 91.2679 22.754 89.7477 22.754C88.2087 22.754 87.0076 23.6205 87.0076 26.1069C86.9701 28.4614 88.0961 29.2149 89.879 29.2149ZM76.9106 29.083H77.7927V24.3551C78.2806 23.9972 78.9938 23.5452 79.5756 23.5452C80.7017 23.5452 80.8143 24.3174 80.8143 25.2781V29.083H81.6963V25.1086C81.6963 24.8449 81.6588 24.5623 81.6213 24.2986C82.1468 23.9219 82.7849 23.5452 83.4605 23.5452C84.5678 23.5452 84.7179 24.2986 84.7179 25.2593V29.0642H85.6V25.0897C85.6 24.0349 85.4874 22.754 83.6857 22.754C82.7098 22.754 81.9591 23.2815 81.4711 23.677C81.2272 23.1684 80.758 22.754 79.7633 22.754C79.0126 22.754 78.2806 23.2249 77.7739 23.6205V22.9047H76.8918V29.083H76.9106ZM71.5055 25.4853C71.6181 24.1102 72.275 23.4133 73.2134 23.4133C74.1893 23.4133 74.6397 24.2421 74.6397 25.4853H71.5055ZM73.5136 29.2149C74.5083 29.2149 75.259 29.0077 75.4655 28.9135L75.3153 28.1789C75.0526 28.2542 74.2456 28.4426 73.7952 28.4426C72.519 28.4426 71.5618 28.1224 71.5243 26.1634H75.5968V25.8432C75.5968 23.79 74.9024 22.754 73.3823 22.754C71.8433 22.754 70.6422 23.6205 70.6422 26.1069C70.6047 28.4614 71.7307 29.2149 73.5136 29.2149ZM66.9074 29.2149C67.9772 29.2149 68.634 29.0642 69.3097 28.857V25.1462H68.3713V28.2542C68.071 28.3296 67.6769 28.4049 67.0951 28.4049C65.2746 28.4049 63.7357 27.4066 63.7357 25.0144C63.7357 22.6787 65.2183 21.7746 66.8699 21.7746C67.9959 21.7746 68.4839 21.9818 68.878 22.1324L69.1408 21.379C68.8217 21.2471 68.2399 20.9646 66.8324 20.9646C64.2236 20.9646 62.7598 22.6033 62.7598 25.1274C62.7973 27.5008 64.2987 29.2149 66.9074 29.2149Z" fill="#524F47"/>
</g>
<defs>
<clipPath id="clip0_3263_24969">
<rect width="166" height="56" fill="white"/>
</clipPath>
</defs>
</svg>
