<svg width="148" height="92" viewBox="0 0 148 92" fill="none" xmlns="http://www.w3.org/2000/svg">
<path d="M57.543 17.2554C57.543 17.2554 76.4492 21.8281 97.1247 22.0843V65.2832C97.1247 65.2832 75.8426 54.7781 57.543 53.907V17.2554Z" fill="#FFDD00"/>
<path d="M86.6969 23.5654C91.3864 23.2204 93.7876 25.6647 93.7876 29.0605C93.7876 32.306 91.1472 34.0859 87.9422 35.0937C83.492 36.4944 81.8221 38.5902 81.8221 40.7442C81.8221 44.7823 85.8831 45.5338 89.6087 47.5802C91.6577 48.7059 94.4128 50.4687 97.124 52.6534V54.7664C92.3671 51.5482 85.1602 48.0585 74.3725 45.556C61.4617 42.56 58.2197 34.3506 57.5625 32.0976L57.5659 27.9724C64.5217 30.8814 71.1237 33.8126 76.5968 34.2208C89.3812 35.174 93.2248 32.0583 93.0513 28.2047C92.8625 23.9976 89.1116 23.5193 86.6969 23.6047V23.5654Z" fill="white"/>
<path opacity="0.5" d="M57.543 17.2522V53.9055C60.7799 54.0593 64.1113 54.5153 67.4005 55.161V19.2131C61.3647 18.1797 57.543 17.2522 57.543 17.2522Z" fill="#676767"/>
<path d="M61.2501 50.8343L57.543 53.9039V14.4919L61.2501 11.4207V50.8343Z" fill="#008BCB"/>
<path d="M61.2501 50.8343L57.543 53.9039V14.4919L61.2501 11.4207V50.8343Z" fill="#B2B2B2"/>
<path d="M27.752 0V57.3936C27.752 57.3936 43.7936 50.8343 61.2507 50.8343V11.4104C61.2507 11.4104 53.8617 10.0029 44.0211 6.65492C34.1804 3.30696 27.752 0 27.752 0Z" fill="#008BCB"/>
<path d="M40.936 19.9359C42.7761 18.8683 46.0619 16.1489 46.0619 16.1489C46.0619 16.1489 45.0863 15.7355 43.9421 15.2231C42.5098 14.5825 43.3237 13.1306 43.3237 13.1306C41.5645 13.6875 38.9847 14.369 34.4806 14.4595C32.1333 14.5074 29.8585 14.5108 27.7539 14.5245V16.7587C29.9141 17.143 32.526 17.5837 35.1192 17.98C39.9115 18.7111 40.936 19.9359 40.936 19.9359Z" fill="white"/>
<path d="M48.2924 17.1309C48.2924 17.1309 46.1861 19.0235 41.9735 21.8146C41.9735 21.8146 42.7873 24.8756 37.648 26.2267C37.043 26.3856 36.2224 26.4419 35.4692 26.5666C35.5838 26.5205 35.7 26.4761 35.8146 26.4283C39.0196 25.1096 38.9387 23.5791 38.9387 23.5791C38.9387 23.5791 33.3224 26.7101 27.75 27.2072V30.7584C29.9203 30.9309 32.49 31.2452 35.5737 31.7611C43.7883 33.1344 55.3089 30.5688 55.3089 30.5688L51.3507 29.1374C51.3507 29.1374 56.871 28.7787 61.247 26.6333C61.247 26.6333 61.2487 26.6435 61.2504 26.6486V22.7438C54.2912 19.8297 48.2924 17.1309 48.2924 17.1309Z" fill="white"/>
<path d="M44.2053 15.3509C43.3207 14.9238 42.6467 14.5395 43.4049 12.9167" stroke="#E6007E" stroke-width="0.1"/>
<path d="M28.6978 73.867H27.2871V72.5979H32.0975V73.867H30.527L33.9256 84.5659C34.0254 84.828 34.0651 85.0694 34.1444 85.3315H34.1841C34.2635 85.0694 34.3032 84.828 34.403 84.5659L37.4637 76.4053L36.6687 73.867H35.1775V72.5979H39.8678V73.867H38.3766L41.5371 84.5659C41.6369 84.828 41.6766 85.0694 41.756 85.3315H41.7956C41.875 85.0694 41.9147 84.828 42.0145 84.5659L45.632 73.867H43.8629V72.5979H48.5532V73.867H47.2626L42.612 86.7018H40.6638L38.1792 78.4008H38.1395L34.9791 86.7018H33.0309L28.6978 73.867Z" fill="#008BCB"/>
<path d="M50.7262 77.5742H48.8574V76.3051H52.3558L52.2764 85.4325H53.906V86.7016H49.0162V85.4325H50.6458L50.7262 77.5742ZM51.342 71.0459C52.0179 71.0459 52.5747 71.6103 52.5747 72.2954C52.5747 72.9806 52.0179 73.545 51.342 73.545C50.6662 73.545 50.1094 72.9806 50.1094 72.2954C50.1094 71.6103 50.6662 71.0459 51.342 71.0459Z" fill="#008BCB"/>
<path d="M62.8092 85.4314H64.1212C64.1212 83.8197 64.2006 82.1275 64.2006 80.4549C64.2006 79.4479 64.1609 77.4328 61.8748 77.4328C60.4243 77.4328 58.8334 78.3191 58.8334 81.1401L58.7937 85.4314H60.2849V86.7005H55.8328V85.4314H57.1448L57.2242 77.573H55.5742V76.3039H58.8538C58.8538 76.7074 58.8334 77.2707 58.7937 77.5535L58.6349 78.6007H58.6746C59.1123 77.0293 60.7612 76.0625 62.3114 76.0625C65.1339 76.0625 65.8291 77.9972 65.8291 79.971C65.8291 81.7436 65.7497 83.8197 65.7497 85.4314H67.2602V86.7005H62.8081V85.4314H62.8092Z" fill="#008BCB"/>
<path d="M69.0312 76.3039H70.6812L70.7606 73.7657L72.3902 73.6646L72.3108 76.3039H75.5303V77.573H72.2904C72.2507 79.3054 72.211 81.0585 72.211 82.792C72.211 84.283 72.211 85.5727 73.7816 85.5727C74.6162 85.5727 75.3715 85.3313 75.8092 85.1497L75.7491 86.4591C75.232 86.7211 74.2783 86.943 73.4437 86.943C70.5814 86.943 70.5814 84.868 70.5814 83.538C70.5814 82.2689 70.6415 79.0847 70.6608 77.5741H69.0312V76.3039Z" fill="#008BCB"/>
<path d="M78.9093 81.6437C78.9693 83.7795 79.8834 85.5728 82.8046 85.5728C83.9182 85.5728 85.0307 85.2303 85.8857 84.7866L85.8256 86.2166C85.0704 86.5994 83.4805 86.942 82.4463 86.942C79.2064 86.942 77.1992 85.1487 77.1992 81.5219C77.1992 78.4595 78.8288 76.0615 81.9496 76.0615C86.0037 76.0615 86.3824 79.7895 86.3824 81.6426H78.9093V81.6437ZM84.6734 80.3746C84.6734 78.7422 83.6596 77.3317 81.9507 77.3317C80.202 77.3317 79.009 78.6617 78.9093 80.3746H84.6734Z" fill="#008BCB"/>
<path d="M90.0397 77.574H88.291V76.3049H91.6703V76.8693C91.6703 77.474 91.5513 78.7029 91.4515 79.5489H91.5116C91.9096 78.0177 92.446 76.1233 94.9896 76.1233C95.1291 76.1233 95.9433 76.2038 96.0227 76.2842L95.8639 77.7752C95.5861 77.6741 95.1484 77.6143 94.7504 77.6143C92.6434 77.6143 91.709 79.7099 91.6693 81.5434L91.5899 85.4323H93.3192V86.7015H88.5088V85.4323H89.9592L90.0397 77.574Z" fill="#008BCB"/>
<path d="M104.708 79.1861H103.238L103.158 77.7147C102.781 77.3928 101.827 77.3319 101.35 77.3319C100.316 77.3319 98.984 77.6744 98.984 78.924C98.984 80.0528 99.9774 80.3943 101.488 80.6564C104.092 81.1001 105.185 81.9059 105.185 83.6187C105.185 85.4718 103.952 86.9432 100.991 86.9432C99.8776 86.9432 98.1086 86.6616 97.4735 86.319L97.3941 83.659H98.8649L98.9443 85.2108C99.5601 85.5132 100.594 85.6741 101.27 85.6741C102.343 85.6741 103.636 85.2108 103.636 83.9417C103.636 82.914 102.582 82.5519 101.47 82.3094C98.7265 81.7047 97.3555 81.2219 97.3555 79.1861C97.3555 77.5135 98.4486 76.0627 101.39 76.0627C102.245 76.0627 103.835 76.3444 104.63 76.687L104.708 79.1861Z" fill="#008BCB"/>
<path d="M106.359 76.3038H110.573V77.5729H109.341L111.547 84.0403C111.667 84.4025 111.786 84.8864 111.825 85.1278H111.865C111.905 84.8864 112.044 84.4025 112.183 84.0403L114.071 79.1237L113.495 77.5719H112.362V76.3027H116.576V77.5719H115.205L117.371 84.0392C117.49 84.4014 117.609 84.8853 117.648 85.1267H117.688C117.728 84.8853 117.847 84.4014 117.966 84.0392L120.252 77.5719H118.881V76.3027H122.976V77.5719H121.803L118.365 86.6993H116.656L115.046 81.924C114.927 81.5619 114.808 81.078 114.768 80.8365H114.728C114.689 81.078 114.549 81.5619 114.411 81.924L112.542 86.6993H110.912L107.514 77.5719H106.36V76.3038H106.359Z" fill="#008BCB"/>
<path d="M126.037 77.5742H124.168V76.3051H127.666L127.587 85.4325H129.217V86.7016H124.327V85.4325H125.956L126.037 77.5742ZM126.653 71.0459C127.328 71.0459 127.885 71.6103 127.885 72.2954C127.885 72.9806 127.328 73.545 126.653 73.545C125.977 73.545 125.42 72.9806 125.42 72.2954C125.42 71.6103 125.977 71.0459 126.653 71.0459Z" fill="#008BCB"/>
<path d="M134.345 84.1014C134.305 87.5673 133.729 88.9974 132.794 90.086C131.86 91.1941 130.589 91.7183 129.217 92L128.979 90.6699C130.151 90.348 130.986 89.8434 131.662 89.018C132.377 88.1513 132.675 86.7614 132.715 84.1221L132.794 77.5742H130.906V76.3051H134.424L134.345 84.1014ZM133.41 71.0459C134.086 71.0459 134.643 71.6103 134.643 72.2954C134.643 72.9806 134.086 73.545 133.41 73.545C132.734 73.545 132.178 72.9806 132.178 72.2954C132.178 71.6103 132.734 71.0459 133.41 71.0459Z" fill="#008BCB"/>
<path d="M139.035 72.4759H137.047V71.2068H140.664L140.625 80.878L144.54 77.6144V77.5741H143.109V76.305H147.561V77.5741H146.508L142.254 81.0803L146.886 85.4325H147.999V86.7016H143.547V85.4325H144.78V85.3922L140.626 81.3826L140.586 85.4325H141.938V86.7016H137.486V85.4325H138.956L139.035 72.4759Z" fill="#008BCB"/>
<path d="M6.11697 63.5592H5.56517C5.39752 63.5592 4.90554 63.5105 4.73789 63.4985C5.22988 63.9853 5.32592 64.5199 5.32592 65.0067C5.32592 66.4046 4.1625 67.2441 2.71098 67.2441C2.45909 67.2441 1.59558 67.3901 1.59558 67.8402C1.59558 68.1562 1.8837 68.2416 2.66296 68.3628L4.31836 68.6421C5.2779 68.8001 5.98555 69.1528 5.98555 70.1622C5.98555 71.6089 4.49864 72.2656 2.95108 72.2656C1.46332 72.2656 0 71.7788 0 70.5508C0 69.602 0.755671 69.1886 1.55936 69.0068V68.982C1.06737 68.8727 0.611614 68.5926 0.611614 68.0093C0.611614 67.3645 1.23502 67.1946 1.7388 67.0605V67.0366C1.31927 66.9392 0.179441 66.514 0.179441 64.9213C0.179441 63.6206 1.23502 62.6479 2.74636 62.6479C3.08249 62.6479 3.53826 62.7205 3.81374 62.794H6.11697V63.5592ZM2.2906 69.2134C2.17097 69.2134 0.935108 69.5661 0.935108 70.3928C0.935108 71.3655 2.38664 71.4995 2.99825 71.4995C3.76572 71.4995 5.00158 71.2681 5.00158 70.2596C5.00158 69.7002 4.4978 69.5422 3.946 69.4568L2.2906 69.2134ZM1.11455 64.9332C1.11455 65.8086 1.84663 66.4772 2.71013 66.4772C3.76571 66.4772 4.43714 65.7718 4.43714 64.8965C4.43714 64.2885 3.98138 63.4131 2.79354 63.4131C1.8222 63.4131 1.11455 64.0092 1.11455 64.9332Z" fill="#008BCB"/>
<path d="M8.34755 66.0152C8.38378 67.3039 8.93558 68.3859 10.6988 68.3859C11.3702 68.3859 12.0425 68.1792 12.5581 67.9119L12.5219 68.7753C12.0661 69.0067 11.1065 69.2134 10.4831 69.2134C8.52783 69.2134 7.31641 68.1314 7.31641 65.9426C7.31641 64.0946 8.30038 62.6479 10.1832 62.6479C12.6305 62.6479 12.858 64.8974 12.858 66.0161H8.34755V66.0152ZM11.826 65.2492C11.826 64.2646 11.2144 63.4131 10.1824 63.4131C9.12681 63.4131 8.40737 64.2159 8.34755 65.2492H11.826Z" fill="#008BCB"/>
<path d="M14.6559 68.3012H15.4477L15.4958 63.559H14.5V62.793H16.4789C16.4789 63.0364 16.4671 63.3763 16.4427 63.5471L16.3466 64.179H16.3702C16.6339 63.2302 17.6297 62.647 18.5656 62.647C19.6928 62.647 20.2808 63.3037 20.4367 64.1184H20.4603C20.5799 63.8511 20.964 62.647 22.5596 62.647C24.263 62.647 24.6826 63.8144 24.6826 65.0057C24.6826 66.0757 24.6346 67.3277 24.6346 68.3004H25.5461V69.0664H22.8595V68.3004H23.6514C23.6632 67.279 23.6995 66.2696 23.6995 65.261C23.6995 64.349 23.5074 63.4736 22.3558 63.4736C21.5521 63.4736 20.5925 64.0091 20.5807 65.7111L20.5572 68.3012H21.4451V69.0673H18.7459V68.3012H19.5378C19.5496 67.2799 19.5858 66.2705 19.5858 65.2619C19.5858 64.3498 19.3937 63.4745 18.2421 63.4745C17.4384 63.4745 16.4789 64.0099 16.4671 65.7119L16.4435 68.3021H17.3432V69.0681H14.6567V68.3012H14.6559Z" fill="#008BCB"/>
<path d="M28.1854 66.0152C28.2217 67.3039 28.7735 68.3859 30.5367 68.3859C31.2081 68.3859 31.8804 68.1792 32.396 67.9119L32.3597 68.7753C31.904 69.0067 30.9444 69.2134 30.321 69.2134C28.3657 69.2134 27.1543 68.1314 27.1543 65.9426C27.1543 64.0946 28.1383 62.6479 30.0211 62.6479C32.4676 62.6479 32.6959 64.8974 32.6959 66.0161H28.1854V66.0152ZM31.6639 65.2492C31.6639 64.2646 31.0523 63.4131 30.0203 63.4131C28.9647 63.4131 28.2453 64.2159 28.1854 65.2492H31.6639Z" fill="#008BCB"/>
<path d="M35.4433 66.0152C35.4795 67.3039 36.0313 68.3859 37.7945 68.3859C38.4659 68.3859 39.1382 68.1792 39.6538 67.9119L39.6176 68.7753C39.1618 69.0067 38.2023 69.2134 37.5789 69.2134C35.6235 69.2134 34.4121 68.1314 34.4121 65.9426C34.4121 64.0946 35.3961 62.6479 37.2789 62.6479C39.7254 62.6479 39.9537 64.8974 39.9537 66.0161H35.4433V66.0152ZM38.9217 65.2492C38.9217 64.2645 38.3101 63.4131 37.2781 63.4131C36.2225 63.4131 35.5031 64.2159 35.4433 65.2492H38.9217Z" fill="#008BCB"/>
<path d="M45.9604 68.3012H46.7523C46.7523 67.3285 46.8003 66.3072 46.8003 65.2978C46.8003 64.6897 46.7759 63.4736 45.3968 63.4736C44.5215 63.4736 43.562 64.0091 43.562 65.7111L43.5384 68.3012H44.4381V69.0673H41.7516V68.3012H42.5435L42.5915 63.559H41.5957V62.793H43.5746C43.5746 63.0364 43.5628 63.3763 43.5384 63.5471L43.4423 64.179H43.4668C43.7304 63.2302 44.7262 62.647 45.6622 62.647C47.3656 62.647 47.7851 63.8144 47.7851 65.0057C47.7851 66.0757 47.7371 67.3277 47.7371 68.3004H48.6486V69.0664H45.9621V68.3012H45.9604Z" fill="#008BCB"/>
<path d="M50.1473 62.7931H51.1431L51.1911 61.2611L52.1742 61.2004L52.1262 62.7931H54.0697V63.5592H52.1144C52.09 64.6053 52.0664 65.6625 52.0664 66.7087C52.0664 67.6088 52.0664 68.3868 53.0142 68.3868C53.5179 68.3868 53.9737 68.2407 54.2374 68.1314L54.2012 68.9214C53.8895 69.0793 53.3132 69.2134 52.8094 69.2134C51.0824 69.2134 51.0824 67.9606 51.0824 67.1587C51.0824 66.3927 51.1187 64.4712 51.1305 63.56H50.1465V62.7931H50.1473Z" fill="#008BCB"/>
<path d="M56.539 66.0152C56.5752 67.3039 57.127 68.3859 58.8902 68.3859C59.5616 68.3859 60.2339 68.1792 60.7495 67.9119L60.7133 68.7753C60.2575 69.0067 59.298 69.2134 58.6745 69.2134C56.7192 69.2134 55.5078 68.1314 55.5078 65.9426C55.5078 64.0946 56.4918 62.6479 58.3746 62.6479C60.8211 62.6479 61.0494 64.8974 61.0494 66.0161H56.539V66.0152ZM60.0174 65.2492C60.0174 64.2646 59.4058 63.4131 58.3738 63.4131C57.3182 63.4131 56.5988 64.2159 56.539 65.2492H60.0174Z" fill="#008BCB"/>
</svg>
