<svg width="41" height="40" viewBox="0 0 41 40" fill="none" xmlns="http://www.w3.org/2000/svg">
<path d="M4.7129 4.3346C1.19612 7.92776 -0.0319641 16.5779 0.302967 23.0989C0.489041 26.7491 1.32637 33.327 4.82454 36.1977C7.91336 38.7643 14.1282 40 20.25 40C26.3718 40 32.5866 38.7262 35.6755 36.1977C39.1736 33.327 40.011 26.692 40.197 23.0989C40.532 16.5779 39.3039 7.88973 35.7871 4.3346C30.1305 -1.44487 10.3695 -1.44487 4.7129 4.3346Z" fill="url(#paint0_linear_1961_20316)"/>
<path fill-rule="evenodd" clip-rule="evenodd" d="M23.5106 28.7186V23.4805C23.5106 23.3547 23.4622 23.2288 23.375 23.1417C23.2879 23.0545 23.162 23.0061 23.0361 23.0061H17.5269C17.2655 23.0061 17.0525 23.2191 17.0525 23.4805V28.7186H18.0013V23.955H22.5616V28.7186H23.5106Z" fill="#273266"/>
<path d="M23.5106 28.7186V28.8358H23.6277V28.7186H23.5106ZM23.375 23.1417L23.2921 23.2245V23.2245L23.375 23.1417ZM17.0525 28.7186H16.9353V28.8358H17.0525V28.7186ZM18.0013 28.7186V28.8358H18.1185V28.7186H18.0013ZM18.0013 23.955V23.8378H17.8841V23.955H18.0013ZM22.5616 23.955H22.6788V23.8378H22.5616V23.955ZM22.5616 28.7186H22.4444V28.8358H22.5616V28.7186ZM23.3934 23.4805V28.7186H23.6277V23.4805H23.3934ZM23.2921 23.2245C23.3555 23.2878 23.3934 23.383 23.3934 23.4805H23.6277C23.6277 23.3263 23.5689 23.1698 23.4579 23.0588L23.2921 23.2245ZM23.0361 23.1233C23.1336 23.1233 23.2288 23.1612 23.2921 23.2245L23.4579 23.0588C23.3469 22.9478 23.1904 22.8889 23.0361 22.8889V23.1233ZM17.5269 23.1233H23.0361V22.8889H17.5269V23.1233ZM17.1697 23.4805C17.1697 23.2838 17.3302 23.1233 17.5269 23.1233V22.8889C17.2008 22.8889 16.9353 23.1544 16.9353 23.4805H17.1697ZM17.1697 28.7186V23.4805H16.9353V28.7186H17.1697ZM18.0013 28.6015H17.0525V28.8358H18.0013V28.6015ZM18.1185 28.7186V23.955H17.8841V28.7186H18.1185ZM18.0013 24.0722H22.5616V23.8378H18.0013V24.0722ZM22.4444 23.955V28.7186H22.6788V23.955H22.4444ZM23.5106 28.6015H22.5616V28.8358H23.5106V28.6015Z" fill="#273266"/>
<path d="M28.5721 18.6263L28.406 18.6243L28.406 18.7904L28.406 28.1663C28.406 28.4941 28.1477 28.7532 27.8446 28.7532L12.6284 28.7532C12.3253 28.7532 12.067 28.4941 12.067 28.1663L12.067 18.9118L12.067 18.7478L11.9029 18.7478L11.1775 18.7478L11.0134 18.7478L11.0134 18.9118L11.0134 28.1663C11.0134 29.0869 11.7345 29.8416 12.6374 29.8416L27.8627 29.8416C28.7657 29.8416 29.4867 29.0869 29.4867 28.1663L29.4867 18.7998L29.4867 18.6377L29.3247 18.6357L28.5721 18.6263Z" fill="#273266" stroke="#273266" stroke-width="0.328125"/>
<mask id="path-5-outside-1_1961_20316" maskUnits="userSpaceOnUse" x="9.57275" y="9.32275" width="21" height="11" fill="black">
<rect fill="white" x="9.57275" y="9.32275" width="21" height="11"/>
<path fill-rule="evenodd" clip-rule="evenodd" d="M29.9276 17.8551C29.9276 17.2674 29.7023 16.6993 29.3007 16.2683L26.1957 10.5774C26.1076 10.4207 25.9508 10.3228 25.7745 10.3228H14.7258C14.5495 10.3228 14.3928 10.4207 14.3046 10.5676L10.9548 16.5719C10.7001 16.954 10.5728 17.3947 10.5728 17.8551C10.5728 18.3938 10.7589 18.9129 11.1115 19.3243C11.4947 19.744 11.7062 19.866 12.0812 20.0198C12.5415 20.1961 13.0509 20.2255 13.5308 20.0883C14.0108 19.9512 14.432 19.6672 14.7356 19.2656C15.1764 19.8337 15.8522 20.1765 16.5771 20.1765C17.3019 20.1765 17.9777 19.8435 18.4185 19.2656C18.8593 19.8337 19.5351 20.1765 20.26 20.1765C20.9848 20.1765 21.6606 19.8435 22.1014 19.2656C22.5422 19.8337 23.2181 20.1765 23.9429 20.1765C24.6677 20.1765 25.3436 19.8435 25.7843 19.2656C26.2251 19.8337 26.901 20.1667 27.616 20.1667C27.9 20.1667 28.1743 20.1177 28.4388 20.01C28.8536 19.7979 29.0625 19.6496 29.3791 19.3243C29.7415 18.9129 29.9276 18.3938 29.9276 17.8551ZM15.0101 11.2925L11.7876 17.0618C11.6211 17.287 11.5427 17.5711 11.5721 17.8453C11.5721 18.2078 11.719 18.5506 11.9737 18.8052C12.2284 19.0599 12.5712 19.2069 12.9336 19.2069C13.296 19.2069 13.6388 19.0599 13.8935 18.8052C14.1482 18.5506 14.2853 18.2078 14.2853 17.8453C14.2853 17.5809 14.5008 17.3654 14.7653 17.3654C15.0297 17.3654 15.2452 17.5809 15.2452 17.8453C15.2452 18.3253 15.4999 18.7759 15.9211 19.0207C16.3422 19.2656 16.8614 19.2656 17.2826 19.0207C17.7037 18.7759 17.9584 18.3351 17.9584 17.8453C17.9584 17.5809 18.1739 17.3654 18.4384 17.3654C18.7028 17.3654 18.9183 17.5809 18.9183 17.8453C18.9183 18.3253 19.173 18.7759 19.5942 19.0207C20.0154 19.2656 20.5345 19.2656 20.9557 19.0207C21.3769 18.7759 21.6315 18.3351 21.6315 17.8453C21.6315 17.5809 21.847 17.3654 22.1115 17.3654C22.3759 17.3654 22.5914 17.5809 22.5914 17.8453C22.5914 18.3253 22.8461 18.7759 23.2673 19.0207C23.6885 19.2656 24.2076 19.2656 24.6288 19.0207C25.05 18.7759 25.3046 18.3351 25.3046 17.8453C25.3046 17.5809 25.5201 17.3654 25.7846 17.3654C26.0491 17.3654 26.2645 17.5809 26.2645 17.8453C26.2645 18.2078 26.4017 18.5506 26.6563 18.8052C26.9012 19.0599 27.244 19.2069 27.6065 19.2069C27.9689 19.2166 28.3117 19.0697 28.5664 18.8151C28.821 18.5604 28.968 18.2176 28.968 17.8551C28.968 17.4927 28.821 17.1499 28.5664 16.8952C28.537 16.8658 28.5076 16.8267 28.488 16.7875L25.4907 11.2925H15.0101Z"/>
</mask>
<path fill-rule="evenodd" clip-rule="evenodd" d="M29.9276 17.8551C29.9276 17.2674 29.7023 16.6993 29.3007 16.2683L26.1957 10.5774C26.1076 10.4207 25.9508 10.3228 25.7745 10.3228H14.7258C14.5495 10.3228 14.3928 10.4207 14.3046 10.5676L10.9548 16.5719C10.7001 16.954 10.5728 17.3947 10.5728 17.8551C10.5728 18.3938 10.7589 18.9129 11.1115 19.3243C11.4947 19.744 11.7062 19.866 12.0812 20.0198C12.5415 20.1961 13.0509 20.2255 13.5308 20.0883C14.0108 19.9512 14.432 19.6672 14.7356 19.2656C15.1764 19.8337 15.8522 20.1765 16.5771 20.1765C17.3019 20.1765 17.9777 19.8435 18.4185 19.2656C18.8593 19.8337 19.5351 20.1765 20.26 20.1765C20.9848 20.1765 21.6606 19.8435 22.1014 19.2656C22.5422 19.8337 23.2181 20.1765 23.9429 20.1765C24.6677 20.1765 25.3436 19.8435 25.7843 19.2656C26.2251 19.8337 26.901 20.1667 27.616 20.1667C27.9 20.1667 28.1743 20.1177 28.4388 20.01C28.8536 19.7979 29.0625 19.6496 29.3791 19.3243C29.7415 18.9129 29.9276 18.3938 29.9276 17.8551ZM15.0101 11.2925L11.7876 17.0618C11.6211 17.287 11.5427 17.5711 11.5721 17.8453C11.5721 18.2078 11.719 18.5506 11.9737 18.8052C12.2284 19.0599 12.5712 19.2069 12.9336 19.2069C13.296 19.2069 13.6388 19.0599 13.8935 18.8052C14.1482 18.5506 14.2853 18.2078 14.2853 17.8453C14.2853 17.5809 14.5008 17.3654 14.7653 17.3654C15.0297 17.3654 15.2452 17.5809 15.2452 17.8453C15.2452 18.3253 15.4999 18.7759 15.9211 19.0207C16.3422 19.2656 16.8614 19.2656 17.2826 19.0207C17.7037 18.7759 17.9584 18.3351 17.9584 17.8453C17.9584 17.5809 18.1739 17.3654 18.4384 17.3654C18.7028 17.3654 18.9183 17.5809 18.9183 17.8453C18.9183 18.3253 19.173 18.7759 19.5942 19.0207C20.0154 19.2656 20.5345 19.2656 20.9557 19.0207C21.3769 18.7759 21.6315 18.3351 21.6315 17.8453C21.6315 17.5809 21.847 17.3654 22.1115 17.3654C22.3759 17.3654 22.5914 17.5809 22.5914 17.8453C22.5914 18.3253 22.8461 18.7759 23.2673 19.0207C23.6885 19.2656 24.2076 19.2656 24.6288 19.0207C25.05 18.7759 25.3046 18.3351 25.3046 17.8453C25.3046 17.5809 25.5201 17.3654 25.7846 17.3654C26.0491 17.3654 26.2645 17.5809 26.2645 17.8453C26.2645 18.2078 26.4017 18.5506 26.6563 18.8052C26.9012 19.0599 27.244 19.2069 27.6065 19.2069C27.9689 19.2166 28.3117 19.0697 28.5664 18.8151C28.821 18.5604 28.968 18.2176 28.968 17.8551C28.968 17.4927 28.821 17.1499 28.5664 16.8952C28.537 16.8658 28.5076 16.8267 28.488 16.7875L25.4907 11.2925H15.0101Z" fill="#273266"/>
<path d="M29.3007 16.2683L29.1773 16.3357L29.1858 16.3512L29.1978 16.3642L29.3007 16.2683ZM26.1957 10.5774L26.3192 10.5101L26.3183 10.5085L26.1957 10.5774ZM14.3046 10.5676L14.184 10.4952L14.1818 10.4991L14.3046 10.5676ZM10.9548 16.5719L11.0721 16.6502L11.0776 16.6405L10.9548 16.5719ZM11.1115 19.3243L11.0047 19.4159L11.0076 19.4192L11.1115 19.3243ZM12.0812 20.0198L12.0278 20.1499L12.0309 20.1511L12.0812 20.0198ZM13.5308 20.0883L13.5695 20.2236L13.5695 20.2236L13.5308 20.0883ZM14.7356 19.2656L14.8467 19.1794L14.7342 19.0343L14.6234 19.1808L14.7356 19.2656ZM18.4185 19.2656L18.5296 19.1794L18.4176 19.0349L18.3067 19.1803L18.4185 19.2656ZM22.1014 19.2656L22.2125 19.1794L22.1005 19.0349L21.9896 19.1803L22.1014 19.2656ZM25.7843 19.2656L25.8954 19.1794L25.7834 19.0349L25.6725 19.1803L25.7843 19.2656ZM28.4388 20.01L28.492 20.1407L28.5028 20.1352L28.4388 20.01ZM29.3791 19.3243L29.48 19.4225L29.4846 19.4173L29.3791 19.3243ZM11.7876 17.0618L11.9007 17.1453L11.906 17.1381L11.9104 17.1303L11.7876 17.0618ZM15.0101 11.2925V11.1519H14.9276L14.8874 11.2239L15.0101 11.2925ZM11.5721 17.8453H11.7127V17.8378L11.7119 17.8304L11.5721 17.8453ZM13.8935 18.8052L13.7941 18.7058L13.8935 18.8052ZM26.6563 18.8052L26.7577 18.7078L26.7558 18.7058L26.6563 18.8052ZM27.6065 19.2069L27.6103 19.0662H27.6065V19.2069ZM28.5664 16.8952L28.6658 16.7958L28.6658 16.7958L28.5664 16.8952ZM28.488 16.7875L28.6139 16.7246L28.6115 16.7201L28.488 16.7875ZM25.4907 11.2925L25.6142 11.2252L25.5742 11.1519H25.4907V11.2925ZM29.1978 16.3642C29.5754 16.7693 29.787 17.3033 29.787 17.8551H30.0682C30.0682 17.2315 29.8292 16.6292 29.4036 16.1724L29.1978 16.3642ZM26.0723 10.6448L29.1773 16.3357L29.4242 16.201L26.3192 10.5101L26.0723 10.6448ZM25.7745 10.4634C25.8961 10.4634 26.0079 10.5303 26.0732 10.6464L26.3183 10.5085C26.2072 10.3111 26.0056 10.1821 25.7745 10.1821V10.4634ZM14.7258 10.4634H25.7745V10.1821H14.7258V10.4634ZM14.4252 10.64C14.4902 10.5316 14.6032 10.4634 14.7258 10.4634V10.1821C14.4958 10.1821 14.2953 10.3098 14.184 10.4953L14.4252 10.64ZM11.0776 16.6405L14.4274 10.6361L14.1818 10.4991L10.832 16.5034L11.0776 16.6405ZM10.7134 17.8551C10.7134 17.4212 10.8332 17.0078 11.0718 16.65L10.8378 16.4939C10.567 16.9001 10.4321 17.3683 10.4321 17.8551H10.7134ZM11.2182 19.2328C10.8881 18.8476 10.7134 18.3612 10.7134 17.8551H10.4321C10.4321 18.4264 10.6296 18.9783 11.0047 19.4159L11.2182 19.2328ZM12.1345 19.8897C11.9504 19.8142 11.8147 19.7498 11.6794 19.6561C11.5437 19.5622 11.4031 19.4351 11.2153 19.2295L11.0076 19.4192C11.2031 19.6332 11.3598 19.777 11.5194 19.8874C11.6794 19.9982 11.8369 20.0716 12.0278 20.1499L12.1345 19.8897ZM13.4922 19.9531C13.0427 20.0816 12.5646 20.0543 12.1315 19.8884L12.0309 20.1511C12.5185 20.3379 13.0591 20.3694 13.5695 20.2236L13.4922 19.9531ZM14.6234 19.1808C14.3386 19.5575 13.9434 19.8242 13.4922 19.9531L13.5695 20.2236C14.0781 20.0782 14.5254 19.7768 14.8478 19.3504L14.6234 19.1808ZM16.5771 20.0359C15.8971 20.0359 15.2617 19.7142 14.8467 19.1794L14.6245 19.3518C15.0911 19.9531 15.8074 20.3171 16.5771 20.3171V20.0359ZM18.3067 19.1803C17.8926 19.7232 17.2582 20.0359 16.5771 20.0359V20.3171C17.3456 20.3171 18.0629 19.9637 18.5303 19.3508L18.3067 19.1803ZM20.26 20.0359C19.58 20.0359 18.9446 19.7142 18.5296 19.1794L18.3074 19.3518C18.774 19.9531 19.4903 20.3171 20.26 20.3171V20.0359ZM21.9896 19.1803C21.5755 19.7232 20.9411 20.0359 20.26 20.0359V20.3171C21.0285 20.3171 21.7458 19.9637 22.2132 19.3508L21.9896 19.1803ZM23.9429 20.0359C23.2629 20.0359 22.6275 19.7142 22.2125 19.1794L21.9903 19.3518C22.4569 19.9531 23.1732 20.3171 23.9429 20.3171V20.0359ZM25.6725 19.1803C25.2584 19.7232 24.624 20.0359 23.9429 20.0359V20.3171C24.7114 20.3171 25.4287 19.9637 25.8962 19.3508L25.6725 19.1803ZM27.616 20.0261C26.9448 20.0261 26.3098 19.7135 25.8954 19.1794L25.6732 19.3518C26.1404 19.9539 26.8571 20.3073 27.616 20.3073V20.0261ZM28.3857 19.8798C28.1395 19.9801 27.8834 20.0261 27.616 20.0261V20.3073C27.9167 20.3073 28.2091 20.2554 28.4918 20.1402L28.3857 19.8798ZM29.2783 19.2263C28.9735 19.5395 28.7773 19.679 28.3748 19.8848L28.5028 20.1352C28.9299 19.9169 29.1516 19.7597 29.4799 19.4224L29.2783 19.2263ZM29.787 17.8551C29.787 18.361 29.6124 18.8467 29.2736 19.2314L29.4846 19.4173C29.8706 18.9791 30.0682 18.4266 30.0682 17.8551H29.787ZM11.9104 17.1303L15.1329 11.3611L14.8874 11.2239L11.6648 16.9932L11.9104 17.1303ZM11.7119 17.8304C11.6864 17.5919 11.7547 17.3429 11.9007 17.1453L11.6745 16.9782C11.4875 17.2312 11.3991 17.5503 11.4323 17.8603L11.7119 17.8304ZM12.0731 18.7058C11.844 18.4767 11.7127 18.1693 11.7127 17.8453H11.4315C11.4315 18.2462 11.594 18.6245 11.8742 18.9047L12.0731 18.7058ZM12.9336 19.0662C12.6096 19.0662 12.3023 18.935 12.0731 18.7058L11.8742 18.9047C12.1544 19.1849 12.5327 19.3475 12.9336 19.3475V19.0662ZM13.7941 18.7058C13.5649 18.935 13.2575 19.0662 12.9336 19.0662V19.3475C13.3345 19.3475 13.7127 19.1849 13.9929 18.9047L13.7941 18.7058ZM14.1447 17.8453C14.1447 18.1719 14.0214 18.4785 13.7941 18.7058L13.9929 18.9047C14.275 18.6226 14.4259 18.2436 14.4259 17.8453H14.1447ZM14.7653 17.2248C14.4231 17.2248 14.1447 17.5032 14.1447 17.8453H14.4259C14.4259 17.6585 14.5785 17.506 14.7653 17.506V17.2248ZM15.3858 17.8453C15.3858 17.5032 15.1074 17.2248 14.7653 17.2248V17.506C14.9521 17.506 15.1046 17.6586 15.1046 17.8453H15.3858ZM15.9917 18.8992C15.6143 18.6797 15.3858 18.2757 15.3858 17.8453H15.1046C15.1046 18.3749 15.3855 18.872 15.8504 19.1423L15.9917 18.8992ZM17.2119 18.8992C16.8344 19.1186 16.3692 19.1186 15.9917 18.8992L15.8504 19.1423C16.3153 19.4126 16.8884 19.4126 17.3532 19.1423L17.2119 18.8992ZM17.8178 17.8453C17.8178 18.2849 17.5898 18.6794 17.2119 18.8992L17.3532 19.1423C17.8177 18.8723 18.099 18.3853 18.099 17.8453H17.8178ZM18.4384 17.2248C18.0962 17.2248 17.8178 17.5032 17.8178 17.8453H18.099C18.099 17.6585 18.2516 17.506 18.4384 17.506V17.2248ZM19.0589 17.8453C19.0589 17.5032 18.7805 17.2248 18.4384 17.2248V17.506C18.6252 17.506 18.7777 17.6586 18.7777 17.8453H19.0589ZM19.6648 18.8992C19.2874 18.6797 19.0589 18.2757 19.0589 17.8453H18.7777C18.7777 18.3749 19.0586 18.872 19.5235 19.1423L19.6648 18.8992ZM20.885 18.8992C20.5075 19.1186 20.0423 19.1186 19.6648 18.8992L19.5235 19.1423C19.9884 19.4126 20.5615 19.4126 21.0264 19.1423L20.885 18.8992ZM21.4909 17.8453C21.4909 18.2849 21.2629 18.6794 20.885 18.8992L21.0264 19.1423C21.4908 18.8723 21.7722 18.3853 21.7722 17.8453H21.4909ZM22.1115 17.2248C21.7694 17.2248 21.4909 17.5032 21.4909 17.8453H21.7722C21.7722 17.6585 21.9247 17.506 22.1115 17.506V17.2248ZM22.7321 17.8453C22.7321 17.5032 22.4536 17.2248 22.1115 17.2248V17.506C22.2983 17.506 22.4508 17.6585 22.4508 17.8453H22.7321ZM23.338 18.8992C22.9605 18.6797 22.7321 18.2757 22.7321 17.8453H22.4508C22.4508 18.3749 22.7317 18.872 23.1966 19.1423L23.338 18.8992ZM24.5581 18.8992C24.1806 19.1186 23.7154 19.1186 23.338 18.8992L23.1966 19.1423C23.6615 19.4126 24.2346 19.4126 24.6995 19.1423L24.5581 18.8992ZM25.164 17.8453C25.164 18.2849 24.936 18.6794 24.5581 18.8992L24.6995 19.1423C25.1639 18.8723 25.4453 18.3853 25.4453 17.8453H25.164ZM25.7846 17.2248C25.4425 17.2248 25.164 17.5032 25.164 17.8453H25.4453C25.4453 17.6586 25.5978 17.506 25.7846 17.506V17.2248ZM26.4052 17.8453C26.4052 17.5032 26.1267 17.2248 25.7846 17.2248V17.506C25.9714 17.506 26.1239 17.6585 26.1239 17.8453H26.4052ZM26.7558 18.7058C26.5285 18.4785 26.4052 18.1719 26.4052 17.8453H26.1239C26.1239 18.2436 26.2749 18.6226 26.5569 18.9047L26.7558 18.7058ZM27.6065 19.0662C27.282 19.0662 26.9759 18.9347 26.7577 18.7078L26.555 18.9027C26.8265 19.1851 27.206 19.3475 27.6065 19.3475V19.0662ZM28.4669 18.7156C28.2377 18.9449 27.9315 19.075 27.6103 19.0663L27.6027 19.3474C28.0063 19.3583 28.3857 19.1946 28.6658 18.9145L28.4669 18.7156ZM28.8273 17.8551C28.8273 18.1791 28.6961 18.4865 28.4669 18.7156L28.6658 18.9145C28.946 18.6343 29.1086 18.256 29.1086 17.8551H28.8273ZM28.4669 16.9947C28.6961 17.2238 28.8273 17.5312 28.8273 17.8551H29.1086C29.1086 17.4543 28.946 17.076 28.6658 16.7958L28.4669 16.9947ZM28.3622 16.8504C28.3892 16.9044 28.428 16.9557 28.4669 16.9947L28.6658 16.7958C28.646 16.776 28.6259 16.7489 28.6138 16.7246L28.3622 16.8504ZM25.3673 11.3599L28.3645 16.8548L28.6115 16.7201L25.6142 11.2252L25.3673 11.3599ZM15.0101 11.4331H25.4907V11.1519H15.0101V11.4331Z" fill="#273266" mask="url(#path-5-outside-1_1961_20316)"/>
<defs>
<linearGradient id="paint0_linear_1961_20316" x1="0.25" y1="0" x2="28.5275" y2="47.046" gradientUnits="userSpaceOnUse">
<stop offset="0.433962" stop-color="#F1F2F4"/>
<stop offset="1" stop-color="#F1F2F4" stop-opacity="0"/>
</linearGradient>
</defs>
</svg>
