<svg width="41" height="40" viewBox="0 0 41 40" fill="none" xmlns="http://www.w3.org/2000/svg">
<path d="M5.2129 4.3346C1.69612 7.92776 0.468036 16.5779 0.802967 23.0989C0.98904 26.749 1.82637 33.327 5.32454 36.1977C8.41336 38.7643 14.6282 40 20.75 40C26.8718 40 33.0866 38.7262 36.1755 36.1977C39.6736 33.327 40.511 26.692 40.697 23.0989C41.032 16.5779 39.8039 7.88973 36.2871 4.3346C30.6305 -1.44487 10.8695 -1.44487 5.2129 4.3346Z" fill="url(#paint0_linear_1961_20284)"/>
<path d="M17.6176 28.0254H11.9923C11.4888 28.0254 11.0725 27.6187 11.0725 27.1056V25.7113C11.0725 23.833 12.6023 22.3032 14.4806 22.3032H17.3465H17.3659C17.821 22.3032 18.2567 22.3904 18.673 22.5646C18.7989 22.6227 18.8957 22.7292 18.9247 22.8648C18.9538 23.0003 18.9247 23.1456 18.8376 23.2521C18.3341 23.8621 18.0533 24.6463 18.0533 25.4402V27.5703C18.0533 27.8317 17.8597 28.0254 17.6176 28.0254ZM14.4709 23.194C13.0864 23.194 11.9536 24.3268 11.9536 25.7113V27.1056C11.9536 27.1249 11.9633 27.1346 11.9826 27.1346H17.1626V25.4499C17.1626 24.6657 17.3756 23.8911 17.7726 23.223C17.6273 23.194 17.4821 23.1843 17.3369 23.1843L14.4709 23.194Z" fill="#273266"/>
<path d="M18.7516 18.6111V18.6108C18.7516 17.0422 17.4814 15.772 15.9128 15.772C14.3441 15.772 13.074 17.0507 13.074 18.6108C13.074 20.1795 14.3527 21.4496 15.9128 21.4496C17.4732 21.4496 18.7431 20.1708 18.7516 18.6111ZM13.9391 18.6024C13.9391 17.5132 14.8236 16.6287 15.9128 16.6287C17.002 16.6287 17.8865 17.5132 17.8865 18.6024C17.8865 19.6916 17.002 20.5762 15.9128 20.5762C14.8236 20.5762 13.9391 19.6916 13.9391 18.6024Z" fill="#273266" stroke="#273266" stroke-width="0.0937498"/>
<path d="M29.691 28.8873H17.9175C17.5109 28.8873 17.172 28.5581 17.172 28.1418V25.4502C17.172 24.4529 17.5206 23.475 18.1499 22.7004C18.9729 21.6838 20.2025 21.1125 21.5096 21.1125H26.0893C28.4807 21.1125 30.4269 23.0587 30.4269 25.4598V28.1515C30.4365 28.5581 30.0977 28.8873 29.691 28.8873ZM18.0531 27.9966H29.5458V25.4502C29.5458 23.5428 27.9966 21.9936 26.0893 21.9936H21.5096C20.4639 21.9936 19.4957 22.4584 18.8373 23.262C18.3339 23.8816 18.0531 24.6562 18.0531 25.4502V27.9966Z" fill="#273266"/>
<path d="M20.0796 16.4258C20.0796 18.4788 21.7515 20.1507 23.8045 20.1507C25.8574 20.1507 27.5294 18.4788 27.5294 16.4258C27.5294 14.3729 25.8574 12.7009 23.8045 12.7009C21.7515 12.7009 20.0796 14.3729 20.0796 16.4258ZM21.0014 16.4339C21.0014 14.888 22.2586 13.6308 23.8045 13.6308C25.3504 13.6308 26.6076 14.888 26.6076 16.4339C26.6076 17.9798 25.3504 19.237 23.8045 19.237C22.2586 19.237 21.0014 17.9798 21.0014 16.4339Z" fill="#273266" stroke="#273266" stroke-width="0.1875"/>
<path d="M19.9703 26.0117H20.8514V28.4419H19.9703V26.0117Z" fill="#273266"/>
<path d="M26.7567 26.0117H27.6378V28.4419H26.7567V26.0117Z" fill="#273266"/>
<defs>
<linearGradient id="paint0_linear_1961_20284" x1="0.75" y1="0" x2="29.0275" y2="47.046" gradientUnits="userSpaceOnUse">
<stop offset="0.433962" stop-color="#F1F2F4"/>
<stop offset="1" stop-color="#F1F2F4" stop-opacity="0"/>
</linearGradient>
</defs>
</svg>
