<svg width="41" height="40" viewBox="0 0 41 40" fill="none" xmlns="http://www.w3.org/2000/svg">
<path d="M4.7129 4.3346C1.19612 7.92776 -0.031964 16.5779 0.302967 23.0989C0.48904 26.749 1.32637 33.327 4.82454 36.1977C7.91336 38.7643 14.1282 40 20.25 40C26.3718 40 32.5866 38.7262 35.6755 36.1977C39.1736 33.327 40.011 26.692 40.197 23.0989C40.532 16.5779 39.3039 7.88973 35.7871 4.3346C30.1305 -1.44487 10.3695 -1.44487 4.7129 4.3346Z" fill="url(#paint0_linear_1961_20400)"/>
<path d="M25.8774 12.8679H24.1741L22.6451 12.4905C22.5967 11.2905 21.5999 10.3228 20.3903 10.3228C19.1903 10.3228 18.2032 11.2615 18.1354 12.4518L16.4322 12.8679H14.729C13.8096 12.8679 13.0645 13.6131 13.0645 14.5324V28.0131C13.0645 28.9324 13.8096 29.6776 14.729 29.6776H25.8774C26.7967 29.6776 27.5419 28.9324 27.5419 28.0131V14.5324C27.5419 13.6131 26.7967 12.8679 25.8774 12.8679ZM18.8419 12.6937C18.8419 12.6744 18.8322 12.6453 18.8322 12.626C18.8322 12.6163 18.8225 12.597 18.8225 12.5873C18.8225 11.7357 19.5193 11.0389 20.3709 11.0389C21.2225 11.0389 21.9193 11.7357 21.9193 12.5873C21.9193 12.6066 21.9193 12.626 21.9096 12.655C21.9096 12.6841 21.8999 12.7131 21.8999 12.7421C21.8903 12.9163 21.9967 13.0711 22.1709 13.1099L23.787 13.5066V14.4937C23.787 14.997 23.3612 15.4034 22.829 15.4034H17.7483C17.2161 15.4034 16.7903 14.997 16.7903 14.4937V13.5066L18.5612 13.0808C18.7451 13.0324 18.8612 12.8679 18.8419 12.6937ZM26.8354 28.0131C26.8354 28.5453 26.4096 28.9712 25.8774 28.9712H14.729C14.1967 28.9712 13.7709 28.5453 13.7709 28.0131V14.5324C13.7709 14.0002 14.1967 13.5744 14.729 13.5744H16.0935V14.4937C16.0935 15.3841 16.8386 16.1195 17.758 16.1195H22.8386C23.758 16.1195 24.5032 15.3937 24.5032 14.4937V13.5744H25.8677C26.3999 13.5744 26.8258 14.0002 26.8258 14.5324L26.8354 28.0131Z" fill="#273266" stroke="#273266" stroke-width="0.25"/>
<path d="M20.381 13.5354C20.9036 13.5354 21.3294 13.1096 21.3294 12.5871C21.3294 12.0645 20.9036 11.6387 20.381 11.6387C19.8584 11.6387 19.4326 12.0645 19.4326 12.5871C19.4326 13.1096 19.8584 13.5354 20.381 13.5354ZM20.381 12.3451C20.5165 12.3451 20.6229 12.4516 20.6229 12.5871C20.6229 12.7225 20.5165 12.829 20.381 12.829C20.2455 12.829 20.1391 12.7225 20.1391 12.5871C20.1488 12.4516 20.2552 12.3451 20.381 12.3451Z" fill="#273266" stroke="#273266" stroke-width="0.1"/>
<path d="M19.3833 17.3389H15.3769C15.1833 17.3389 15.0188 17.4937 15.0188 17.6969C15.0188 17.8905 15.1736 18.055 15.3769 18.055H19.3833C19.5769 18.055 19.7414 17.9002 19.7414 17.6969C19.7414 17.4937 19.5865 17.3389 19.3833 17.3389Z" fill="#273266" stroke="#273266" stroke-width="0.25"/>
<path d="M19.3833 19.2744H15.3769C15.1833 19.2744 15.0188 19.4293 15.0188 19.6325C15.0188 19.8357 15.1736 19.9905 15.3769 19.9905H19.3833C19.5769 19.9905 19.7414 19.8357 19.7414 19.6325C19.7414 19.4293 19.5865 19.2744 19.3833 19.2744Z" fill="#273266" stroke="#273266" stroke-width="0.25"/>
<path d="M19.3833 21.1997H15.3769C15.1833 21.1997 15.0188 21.3546 15.0188 21.5578C15.0188 21.7513 15.1736 21.9158 15.3769 21.9158H19.3833C19.5769 21.9158 19.7414 21.761 19.7414 21.5578C19.7414 21.3642 19.5865 21.1997 19.3833 21.1997Z" fill="#273266" stroke="#273266" stroke-width="0.25"/>
<path d="M19.3833 23.1353H15.3769C15.1833 23.1353 15.0188 23.2901 15.0188 23.4933C15.0188 23.6869 15.1736 23.8514 15.3769 23.8514H19.3833C19.5769 23.8514 19.7414 23.6966 19.7414 23.4933C19.7414 23.2901 19.5865 23.1353 19.3833 23.1353Z" fill="#273266" stroke="#273266" stroke-width="0.25"/>
<path d="M19.3833 25.0708H15.3769C15.1833 25.0708 15.0188 25.2256 15.0188 25.4289C15.0188 25.6224 15.1736 25.7869 15.3769 25.7869H19.3833C19.5769 25.7869 19.7414 25.6321 19.7414 25.4289C19.7414 25.2256 19.5865 25.0708 19.3833 25.0708Z" fill="#273266" stroke="#273266" stroke-width="0.25"/>
<path d="M19.3833 27.0061H15.3769C15.1833 27.0061 15.0188 27.1609 15.0188 27.3642C15.0188 27.5674 15.1736 27.7222 15.3769 27.7222H19.3833C19.5769 27.7222 19.7414 27.5674 19.7414 27.3642C19.7414 27.1609 19.5865 27.0061 19.3833 27.0061Z" fill="#273266" stroke="#273266" stroke-width="0.25"/>
<path d="M24.8703 17.5037L22.6155 19.7585L21.6962 18.8392C21.5607 18.7037 21.3381 18.7037 21.1929 18.8392C21.0574 18.9747 21.0574 19.1973 21.1929 19.3424L22.3639 20.5134C22.4316 20.5811 22.5187 20.6198 22.6155 20.6198C22.7026 20.6198 22.7994 20.5811 22.8671 20.5134L25.3736 18.0069C25.5091 17.8714 25.5091 17.6489 25.3736 17.5037C25.2381 17.3682 25.0155 17.3682 24.8703 17.5037Z" fill="#273266" stroke="#273266" stroke-width="0.25"/>
<path d="M25.0835 23.6292C24.948 23.4937 24.7254 23.4937 24.5802 23.6292L23.2835 24.926L21.9867 23.6292C21.8512 23.4937 21.6286 23.4937 21.4834 23.6292C21.348 23.7647 21.348 23.9873 21.4834 24.1324L22.7802 25.4292L21.4834 26.726C21.348 26.8615 21.348 27.084 21.4834 27.2292C21.5512 27.297 21.648 27.3357 21.7351 27.3357C21.8222 27.3357 21.9189 27.297 21.9867 27.2292L23.2835 25.9324L24.5802 27.2292C24.648 27.297 24.7448 27.3357 24.8318 27.3357C24.9189 27.3357 25.0157 27.297 25.0835 27.2292C25.2189 27.0937 25.2189 26.8711 25.0835 26.726L23.7867 25.4292L25.0835 24.1324C25.2189 23.9873 25.2189 23.7647 25.0835 23.6292Z" fill="#273266" stroke="#273266" stroke-width="0.25"/>
<defs>
<linearGradient id="paint0_linear_1961_20400" x1="0.25" y1="0" x2="28.5275" y2="47.046" gradientUnits="userSpaceOnUse">
<stop offset="0.433962" stop-color="#F1F2F4"/>
<stop offset="1" stop-color="#F1F2F4" stop-opacity="0"/>
</linearGradient>
</defs>
</svg>
