<svg width="21" height="21" fill="none" xmlns="http://www.w3.org/2000/svg"><path d="M16.564 4.936a14.432 14.432 0 0 0-3.562-1.105.054.054 0 0 0-.057.028c-.154.273-.324.63-.443.91a13.322 13.322 0 0 0-4.001 0 9.223 9.223 0 0 0-.45-.91.056.056 0 0 0-.058-.028c-1.25.216-2.446.593-3.562 1.105a.05.05 0 0 0-.023.02c-2.269 3.39-2.89 6.696-2.586 9.961a.06.06 0 0 0 .023.041 14.515 14.515 0 0 0 4.37 2.209.057.057 0 0 0 .061-.02c.337-.46.637-.944.894-1.454a.055.055 0 0 0-.03-.077 9.56 9.56 0 0 1-1.365-.651.056.056 0 0 1-.006-.093c.092-.069.184-.14.271-.213a.054.054 0 0 1 .057-.007c2.864 1.307 5.965 1.307 8.795 0a.054.054 0 0 1 .057.007c.088.072.18.144.272.213a.056.056 0 0 1-.005.093 8.97 8.97 0 0 1-1.366.65.056.056 0 0 0-.03.078c.263.509.563.993.894 1.453.014.02.038.028.061.02 1.43-.441 2.88-1.109 4.377-2.208a.056.056 0 0 0 .023-.04c.364-3.775-.611-7.054-2.588-9.96a.044.044 0 0 0-.023-.022ZM7.598 12.93c-.862 0-1.573-.792-1.573-1.764s.697-1.764 1.573-1.764c.883 0 1.586.799 1.573 1.764 0 .972-.697 1.764-1.573 1.764Zm5.815 0c-.862 0-1.573-.792-1.573-1.764s.697-1.764 1.573-1.764c.883 0 1.586.799 1.573 1.764 0 .972-.69 1.764-1.573 1.764Z" fill="#282B39"/></svg>