<svg width="18" height="18" fill="none" xmlns="http://www.w3.org/2000/svg"><g clip-path="url(#a)" fill="#2A2B2D"><path d="m8.968 18.006-.522-.448c-.721-.604-7.014-6.038-7.014-10.014a7.537 7.537 0 0 1 15.073 0c0 3.976-6.293 9.41-7.01 10.017l-.527.445Zm0-16.37a5.914 5.914 0 0 0-5.907 5.908c0 2.497 3.872 6.487 5.907 8.313 2.036-1.826 5.908-5.819 5.908-8.313a5.914 5.914 0 0 0-5.908-5.907Z"/><path d="M8.968 10.531a2.987 2.987 0 1 1 0-5.975 2.987 2.987 0 0 1 0 5.975Zm0-4.48a1.494 1.494 0 1 0 0 2.987 1.494 1.494 0 0 0 0-2.988Z"/></g><defs><clipPath id="a"><path fill="#fff" d="M0 0h18v18H0z"/></clipPath></defs></svg>