<svg width="21" height="21" fill="none" xmlns="http://www.w3.org/2000/svg"><path d="M16.625 2.625a1.75 1.75 0 0 1 1.75 1.75v12.25a1.75 1.75 0 0 1-1.75 1.75H4.375a1.75 1.75 0 0 1-1.75-1.75V4.375a1.75 1.75 0 0 1 1.75-1.75h12.25Zm-.438 13.563V11.55a2.852 2.852 0 0 0-2.852-2.853c-.744 0-1.61.456-2.03 1.138v-.971H8.864v7.323h2.441v-4.313a1.221 1.221 0 1 1 2.441 0v4.313h2.441ZM6.02 7.49a1.47 1.47 0 0 0 1.47-1.47c0-.814-.656-1.479-1.47-1.479A1.479 1.479 0 0 0 4.541 6.02c0 .814.665 1.47 1.479 1.47Zm1.216 8.697V8.864H4.813v7.323h2.423Z" fill="#282B39"/></svg>