<svg width="21" height="21" fill="none" xmlns="http://www.w3.org/2000/svg"><path d="M10.5 1.75a8.75 8.75 0 0 0-8.75 8.75c0 3.867 2.511 7.149 5.985 8.313.437.07.577-.202.577-.438v-1.479c-2.423.525-2.94-1.172-2.94-1.172-.402-1.015-.97-1.287-.97-1.287-.797-.542.06-.524.06-.524.876.06 1.34.9 1.34.9.76 1.33 2.047.937 2.546.727.078-.569.306-.954.55-1.172-1.942-.22-3.98-.972-3.98-4.306 0-.97.332-1.75.9-2.37-.087-.22-.393-1.13.088-2.31 0 0 .735-.237 2.407.892a8.244 8.244 0 0 1 2.187-.289c.744 0 1.496.096 2.188.289 1.67-1.129 2.406-.893 2.406-.893.481 1.181.175 2.091.087 2.31.569.622.902 1.4.902 2.372 0 3.342-2.048 4.077-4 4.296.316.271.604.805.604 1.618v2.398c0 .236.14.516.587.438 3.473-1.173 5.976-4.445 5.976-8.313a8.749 8.749 0 0 0-8.75-8.75Z" fill="#282B39"/></svg>