<svg width="63" height="62" viewBox="0 0 63 62" fill="none" xmlns="http://www.w3.org/2000/svg">
<path d="M7.2505 6.71863C1.79949 12.288 -0.104036 25.6958 0.415107 35.8032C0.703521 41.461 2.00138 51.6568 7.42355 56.1065C12.2112 60.0846 21.8442 62 31.333 62C40.8218 62 50.4548 60.0257 55.2425 56.1065C60.6646 51.6568 61.9625 41.3726 62.2509 35.8032C62.7701 25.6958 60.8665 12.2291 55.4155 6.71863C46.6478 -2.23954 16.0183 -2.23954 7.2505 6.71863Z" fill="url(#paint0_linear_2122_22664)"/>
<path d="M41.4031 16.56C40.8975 16.0638 40.2964 15.6705 39.6344 15.4027C38.9724 15.1349 38.2627 14.9981 37.5463 15H24.4517C23.0056 15 21.6187 15.5616 20.5961 16.5611C19.5735 17.5607 18.999 18.9164 18.999 20.33V41.67C18.999 43.0836 19.5735 44.4393 20.5961 45.4389C21.6187 46.4385 23.0056 47 24.4517 47H37.5463C38.9916 46.9974 40.377 46.435 41.399 45.436C42.4209 44.437 42.9963 43.0828 42.999 41.67V20.33C43.0015 19.6296 42.8618 18.9357 42.5878 18.2886C42.3139 17.6414 41.9112 17.0539 41.4031 16.56ZM40.82 41.66C40.82 42.5087 40.4751 43.3226 39.8611 43.9227C39.2472 44.5229 38.4145 44.86 37.5463 44.86H24.4517C23.5835 44.86 22.7508 44.5229 22.1369 43.9227C21.523 43.3226 21.178 42.5087 21.178 41.66V20.33C21.178 19.4813 21.523 18.6674 22.1369 18.0673C22.7508 17.4672 23.5835 17.13 24.4517 17.13H37.5463C38.4145 17.13 39.2472 17.4672 39.8611 18.0673C40.4751 18.6674 40.82 19.4813 40.82 20.33V41.66Z" fill="white"/>
<path fill-rule="evenodd" clip-rule="evenodd" d="M30.999 27C27.6854 27 24.999 29.6092 24.999 32.8278C24.999 34.4421 25.6746 35.9029 26.7662 36.9579C26.8365 37.0255 26.9561 37.0095 27.004 36.9256C27.5154 36.0281 28.4119 35.3263 29.5059 34.9848C28.7921 34.5176 28.3228 33.7257 28.3228 32.8274C28.3228 31.3914 29.5209 30.228 30.999 30.228C32.4771 30.228 33.6753 31.3914 33.6753 32.8274C33.6753 33.7257 33.2055 34.5176 32.4921 34.9848C33.5862 35.3263 34.4826 36.0281 34.994 36.9256C35.0415 37.0095 35.1616 37.0255 35.2313 36.9579C36.3229 35.9029 36.999 34.4421 36.999 32.8278C36.999 29.6092 34.3126 27 30.999 27Z" fill="white"/>
<path d="M32.999 19H34.999V21H32.999V19Z" fill="white"/>
<path d="M26.999 19H30.999V21H26.999V19Z" fill="white"/>
<defs>
<linearGradient id="paint0_linear_2122_22664" x1="62.333" y1="62" x2="62.333" y2="0" gradientUnits="userSpaceOnUse">
<stop stop-color="#909ABA"/>
<stop offset="1" stop-color="#AAB5CF"/>
</linearGradient>
</defs>
</svg>
