<svg width="62" height="62" viewBox="0 0 62 62" fill="none" xmlns="http://www.w3.org/2000/svg">
<path d="M6.91749 6.71863C1.46648 12.288 -0.437044 25.6958 0.0820995 35.8032C0.370513 41.461 1.66837 51.6568 7.09054 56.1065C11.8782 60.0846 21.5112 62 31 62C40.4888 62 50.1218 60.0257 54.9095 56.1065C60.3316 51.6568 61.6295 41.3726 61.9179 35.8032C62.437 25.6958 60.5335 12.2291 55.0825 6.71863C46.3147 -2.23954 15.6853 -2.23954 6.91749 6.71863Z" fill="url(#paint0_linear_2122_22651)"/>
<path d="M37.6084 27.8921H31.5703C32.2971 25.4595 32.2969 24.3499 32.2966 22.6602V22.5659C32.2966 20.5828 30.6746 18.9692 28.6809 18.9692H28.1453C27.4312 18.9692 26.5791 19.4885 26.377 20.3591C25.5305 23.6267 24.2795 27.0496 21.428 27.7688H15.9375C15.4197 27.7688 15 28.1885 15 28.7063V41.5327C15 42.0505 15.4197 42.4702 15.9375 42.4702H21.3882L24.333 43.4404C25.3525 43.7776 26.4009 43.9487 27.4487 43.9487H35.8228H35.823C36.5491 43.9487 37.2319 43.6677 37.7461 43.1575C38.2617 42.6453 38.5459 41.9639 38.5459 41.2385C38.5459 40.9065 38.4856 40.5881 38.3755 40.2939C39.5046 39.9636 40.3315 38.9229 40.3315 37.6931C40.3315 37.0161 40.0806 36.396 39.6665 35.9204C40.0806 35.4451 40.3315 34.825 40.3315 34.1477C40.3315 33.4707 40.0806 32.8506 39.6665 32.375C40.0806 31.8997 40.3315 31.2795 40.3315 30.6023C40.3315 29.1079 39.1099 27.8921 37.6084 27.8921ZM16.875 29.6438H20.6013V40.5952H16.875V29.6438ZM37.6084 33.3125C38.0762 33.3125 38.4565 33.6873 38.4565 34.1477C38.4565 34.6082 38.0762 34.9829 37.6084 34.9829C37.0906 34.9829 36.6709 35.4026 36.6709 35.9204C36.6709 36.4382 37.0906 36.8579 37.6084 36.8579C38.0762 36.8579 38.4565 37.2327 38.4565 37.6931C38.4565 38.1538 38.0762 38.5283 37.6084 38.5283H35.823C35.3052 38.5283 34.8855 38.9482 34.8855 39.4658C34.8855 39.9836 35.3052 40.4033 35.823 40.4033C36.2905 40.4033 36.6709 40.7781 36.6709 41.2385C36.6709 41.4605 36.5835 41.6694 36.425 41.8267C36.2646 41.9861 36.0508 42.0737 35.823 42.0737H27.4487C26.6013 42.0737 25.7512 41.9346 24.9209 41.6599L22.4763 40.8545V29.4067C23.9663 28.8684 25.2151 27.7603 26.1958 26.1038C27.1843 24.4341 27.7798 22.4199 28.1882 20.8442H28.6809C29.6409 20.8442 30.4216 21.6167 30.4216 22.5659V22.6606C30.4219 24.5405 30.4221 25.4841 29.3992 28.5313C29.3032 28.8171 29.3506 29.1321 29.5269 29.377C29.7029 29.6218 29.9863 29.7671 30.2878 29.7671H37.6084C38.0762 29.7671 38.4565 30.1418 38.4565 30.6023C38.4565 31.0627 38.0762 31.4375 37.6084 31.4375C37.0908 31.4375 36.6709 31.8572 36.6709 32.375C36.6709 32.8928 37.0906 33.3125 37.6084 33.3125Z" fill="white"/>
<path d="M39.7092 19.0549H38.6382V18C38.6382 17.4822 38.2185 17.0625 37.7007 17.0625C37.1831 17.0625 36.7632 17.4822 36.7632 18V19.0549H35.6924C35.1746 19.0549 34.7549 19.4746 34.7549 19.9924C34.7549 20.51 35.1746 20.9299 35.6924 20.9299H36.7632V21.9849C36.7632 22.5024 37.1831 22.9224 37.7007 22.9224C38.2185 22.9224 38.6382 22.5024 38.6382 21.9849V20.9299H39.7092C40.2268 20.9299 40.6467 20.51 40.6467 19.9924C40.6467 19.4746 40.2268 19.0549 39.7092 19.0549Z" fill="white"/>
<path d="M43.1172 26.0598H43.6523V26.5833C43.6523 27.1011 44.0723 27.5208 44.5898 27.5208C45.1077 27.5208 45.5273 27.1011 45.5273 26.5833V26.0598H46.0627C46.5806 26.0598 47.0002 25.6399 47.0002 25.1223C47.0002 24.6045 46.5806 24.1848 46.0627 24.1848H45.5276V23.6611C45.5276 23.1436 45.1077 22.7236 44.5901 22.7236C44.0723 22.7236 43.6526 23.1436 43.6526 23.6611V24.1848H43.1172C42.5996 24.1848 42.1797 24.6045 42.1797 25.1223C42.1797 25.6399 42.5994 26.0598 43.1172 26.0598Z" fill="white"/>
<path d="M46.0618 41.5391H45.5266V41.0154C45.5266 40.4978 45.1067 40.0779 44.5891 40.0779C44.0713 40.0779 43.6516 40.4978 43.6516 41.0154V41.5391H43.1162C42.5984 41.5391 42.1787 41.9587 42.1787 42.4766C42.1787 42.9941 42.5984 43.4141 43.1162 43.4141H43.6516V43.9375C43.6516 44.4553 44.0713 44.875 44.5891 44.875C45.1067 44.875 45.5266 44.4553 45.5266 43.9375V43.4141H46.0618C46.5796 43.4141 46.9993 42.9941 46.9993 42.4766C46.9993 41.9587 46.5796 41.5391 46.0618 41.5391Z" fill="white"/>
<defs>
<linearGradient id="paint0_linear_2122_22651" x1="62" y1="62" x2="62" y2="0" gradientUnits="userSpaceOnUse">
<stop stop-color="#909ABA"/>
<stop offset="1" stop-color="#AAB5CF"/>
</linearGradient>
</defs>
</svg>
