<svg width="76" height="76" viewBox="0 0 76 76" fill="none" xmlns="http://www.w3.org/2000/svg">
<rect width="76" height="76" fill="#F7F9FB"/>
<g clip-path="url(#clip0_228_7497)">
<path d="M52.8581 36.2522H24.89C23.9415 36.2489 23.0202 35.9339 22.2681 35.356V51.9843C22.2702 53.9141 23.834 55.4782 25.764 55.4803H52.8581C53.3409 55.4803 53.7319 55.089 53.7319 54.6062V48.4881H47.6141C47.1313 48.4881 46.74 48.0968 46.74 47.6143V42.3703C46.7397 41.8878 47.1305 41.4965 47.613 41.4962H47.6141H53.7319V37.1262C53.7322 36.6437 53.3414 36.2524 52.8592 36.2522C52.8587 36.2522 52.8584 36.2522 52.8581 36.2522Z" fill="#004195"/>
<path d="M48.4883 43.2437H53.7323V46.7396H48.4883V43.2437Z" fill="#315EFD"/>
<path d="M24.89 34.5043H50.236V30.1343C50.236 29.6515 49.8447 29.2603 49.3622 29.2603H40.6222V30.1343C40.6222 31.5824 39.448 32.7562 38 32.7562C36.552 32.7562 35.3781 31.5821 35.3781 30.1343V29.2603H24.89C23.4419 29.2603 22.2681 30.4341 22.2681 31.8822C22.2681 33.3302 23.4419 34.5043 24.89 34.5043Z" fill="#004195"/>
<path d="M34.1766 25.5728L37.1263 23.212V30.134C37.1263 30.6168 37.5176 31.0081 38.0003 31.0081C38.4831 31.0081 38.8744 30.6165 38.8744 30.134V23.2117L41.8241 25.5722C42.2012 25.8739 42.7515 25.8128 43.0532 25.4357C43.3548 25.0585 43.2937 24.5083 42.9166 24.2066L38.5466 20.7107C38.2268 20.4565 37.7739 20.4565 37.4541 20.7107L33.0841 24.2066C32.7069 24.5083 32.6458 25.0585 32.9475 25.4357C33.2492 25.8128 33.7994 25.8739 34.1766 25.5722V25.5728Z" fill="#315EFD"/>
</g>
<defs>
<clipPath id="clip0_228_7497">
<rect width="34.96" height="34.96" fill="white" transform="translate(20.52 20.52)"/>
</clipPath>
</defs>
</svg>
