<svg viewBox="0 0 30 30" xmlns="http://www.w3.org/2000/svg" xml:space="preserve" style="fill-rule:evenodd;clip-rule:evenodd;stroke-linejoin:round;stroke-miterlimit:2"><path d="M22.651 14.1H8.25a2.234 2.234 0 0 1-1.35-.461V22.2A1.801 1.801 0 0 0 8.7 24h13.95a.45.45 0 0 0 .45-.45V20.4h-3.15a.45.45 0 0 1-.45-.45v-2.7a.45.45 0 0 1 .449-.45H23.1v-2.25a.45.45 0 0 0-.45-.45h.001Z" style="fill:#134478;fill-rule:nonzero" transform="matrix(1.1 0 0 1.1 -1.5 -1.5)"/><path style="fill:#2987fd" d="M20.4 17.7h2.7v1.8h-2.7z" transform="matrix(1.1 0 0 1.1 -1.5 -1.5)"/><path d="M8.25 13.2H21.3v-2.25a.45.45 0 0 0-.45-.45h-4.5v.45a1.35 1.35 0 0 1-2.7 0v-.45h-5.4a1.35 1.35 0 1 0 0 2.7Z" style="fill:#134478;fill-rule:nonzero" transform="matrix(1.1 0 0 1.1 -1.5 -1.5)"/><path d="m13.031 8.602 1.519-1.216v3.564a.45.45 0 1 0 .9 0V7.386l1.519 1.215a.45.45 0 1 0 .562-.703l-2.25-1.8a.451.451 0 0 0-.562 0l-2.25 1.8a.451.451 0 0 0 .562.703v.001Z" style="fill:#2987fd;fill-rule:nonzero" transform="matrix(1.1 0 0 1.1 -1.5 -1.5)"/></svg>