<svg width="76" height="76" fill="none" xmlns="http://www.w3.org/2000/svg"><path fill="#F7F9FB" d="M0 0h76v76H0z"/><g clip-path="url(#a)"><path d="M52.858 36.252H24.89a4.328 4.328 0 0 1-2.622-.896v16.628a3.5 3.5 0 0 0 3.496 3.496h27.094a.874.874 0 0 0 .874-.874v-6.118h-6.118a.874.874 0 0 1-.874-.874V42.37c0-.482.39-.873.873-.874H53.732v-4.37a.873.873 0 0 0-.873-.874Z" fill="#008486"/><path d="M48.488 43.244h5.244v3.496h-5.244v-3.496Z" fill="#B31869"/><path d="M24.89 34.504h25.346v-4.37a.874.874 0 0 0-.874-.874h-8.74v.874a2.622 2.622 0 0 1-5.244 0v-.874H24.89a2.622 2.622 0 1 0 0 5.244Z" fill="#008486"/><path d="m34.177 25.573 2.95-2.361v6.922a.874.874 0 1 0 1.747 0v-6.922l2.95 2.36a.874.874 0 1 0 1.093-1.365l-4.37-3.496a.878.878 0 0 0-1.093 0l-4.37 3.496a.874.874 0 1 0 1.093 1.365Z" fill="#B31869"/></g><defs><clipPath id="a"><path fill="#fff" d="M20.52 20.52h34.96v34.96H20.52z"/></clipPath></defs></svg>