<svg width="62" height="62" viewBox="0 0 62 62" fill="none" xmlns="http://www.w3.org/2000/svg">
<path d="M6.91749 6.71863C1.46648 12.288 -0.437044 25.6958 0.0820995 35.8032C0.370513 41.461 1.66837 51.6568 7.09054 56.1065C11.8782 60.0846 21.5112 62 31 62C40.4888 62 50.1218 60.0257 54.9095 56.1065C60.3316 51.6568 61.6295 41.3726 61.9179 35.8032C62.437 25.6958 60.5335 12.2291 55.0825 6.71863C46.3147 -2.23954 15.6853 -2.23954 6.91749 6.71863Z" fill="url(#paint0_linear_1069_101102)"/>
<g clip-path="url(#clip0_1069_101102)">
<path fill-rule="evenodd" clip-rule="evenodd" d="M47 29.5121V19.0935C47 18.0085 46.5684 16.9666 45.8019 16.1986C45.0339 15.4321 43.992 15.0005 42.907 15.0005C37.2035 15.0005 24.7965 15.0005 19.093 15.0005C18.008 15.0005 16.9661 15.4321 16.1981 16.1986C15.4316 16.9666 15 18.0085 15 19.0935V42.9075C15 43.9925 15.4316 45.0343 16.1981 45.8023C16.9661 46.5689 18.008 47.0005 19.093 47.0005H29.5116C30.1278 47.0005 30.6279 46.5004 30.6279 45.8842C30.6279 45.268 30.1278 44.7679 29.5116 44.7679C29.5116 44.7679 23.0402 44.7679 19.093 44.7679C18.5989 44.7679 18.1271 44.5715 17.7773 44.2232C17.429 43.8734 17.2326 43.4016 17.2326 42.9075V19.0935C17.2326 18.5994 17.429 18.1276 17.7773 17.7778C18.1271 17.4295 18.5989 17.233 19.093 17.233H42.907C43.4011 17.233 43.8729 17.4295 44.2227 17.7778C44.571 18.1276 44.7674 18.5994 44.7674 19.0935V29.5121C44.7674 30.1283 45.2675 30.6284 45.8837 30.6284C46.4999 30.6284 47 30.1283 47 29.5121Z" fill="white"/>
<path fill-rule="evenodd" clip-rule="evenodd" d="M16.1163 24.6745H45.8837C46.4999 24.6745 47 24.1744 47 23.5582C47 22.942 46.4999 22.4419 45.8837 22.4419H16.1163C15.5001 22.4419 15 22.942 15 23.5582C15 24.1744 15.5001 24.6745 16.1163 24.6745Z" fill="white"/>
<path fill-rule="evenodd" clip-rule="evenodd" d="M19.837 20.9535H21.3254C21.9415 20.9535 22.4416 20.4534 22.4416 19.8372C22.4416 19.221 21.9415 18.7209 21.3254 18.7209H19.837C19.2208 18.7209 18.7207 19.221 18.7207 19.8372C18.7207 20.4534 19.2208 20.9535 19.837 20.9535Z" fill="white"/>
<path fill-rule="evenodd" clip-rule="evenodd" d="M25.0469 20.9535H26.5353C27.1515 20.9535 27.6516 20.4534 27.6516 19.8372C27.6516 19.221 27.1515 18.7209 26.5353 18.7209H25.0469C24.4308 18.7209 23.9307 19.221 23.9307 19.8372C23.9307 20.4534 24.4308 20.9535 25.0469 20.9535Z" fill="white"/>
<path fill-rule="evenodd" clip-rule="evenodd" d="M30.2559 20.9535H31.7443C32.3605 20.9535 32.8606 20.4534 32.8606 19.8372C32.8606 19.221 32.3605 18.7209 31.7443 18.7209H30.2559C29.6397 18.7209 29.1396 19.221 29.1396 19.8372C29.1396 20.4534 29.6397 20.9535 30.2559 20.9535Z" fill="white"/>
<path fill-rule="evenodd" clip-rule="evenodd" d="M38.4417 32.8606C35.3608 32.8606 32.8604 35.3611 32.8604 38.442C32.8604 41.5229 35.3608 44.0234 38.4417 44.0234C41.5227 44.0234 44.0231 41.5229 44.0231 38.442C44.0231 35.3611 41.5227 32.8606 38.4417 32.8606ZM38.4417 35.0932C40.2903 35.0932 41.7906 36.5934 41.7906 38.442C41.7906 40.2905 40.2903 41.7908 38.4417 41.7908C36.5932 41.7908 35.0929 40.2905 35.0929 38.442C35.0929 36.5934 36.5932 35.0932 38.4417 35.0932Z" fill="white"/>
<path fill-rule="evenodd" clip-rule="evenodd" d="M42.9073 39.5582H45.884C46.5002 39.5582 47.0003 39.0581 47.0003 38.442C47.0003 37.8258 46.5002 37.3257 45.884 37.3257H42.9073C42.2911 37.3257 41.791 37.8258 41.791 38.442C41.791 39.0581 42.2911 39.5582 42.9073 39.5582Z" fill="white"/>
<path fill-rule="evenodd" clip-rule="evenodd" d="M42.3887 36.074L44.4932 33.9695C44.9293 33.5334 44.9293 32.8264 44.4932 32.3903C44.0571 31.9542 43.3501 31.9542 42.914 32.3903L40.8095 34.4949C40.3734 34.931 40.3734 35.6379 40.8095 36.074C41.2456 36.5101 41.9526 36.5101 42.3887 36.074Z" fill="white"/>
<path fill-rule="evenodd" clip-rule="evenodd" d="M39.5578 33.9768V31.0001C39.5578 30.3839 39.0577 29.8838 38.4415 29.8838C37.8253 29.8838 37.3252 30.3839 37.3252 31.0001V33.9768C37.3252 34.593 37.8253 35.0931 38.4415 35.0931C39.0577 35.0931 39.5578 34.593 39.5578 33.9768Z" fill="white"/>
<path fill-rule="evenodd" clip-rule="evenodd" d="M36.0743 34.4949L33.9697 32.3903C33.5336 31.9542 32.8266 31.9542 32.3905 32.3903C31.9545 32.8264 31.9545 33.5334 32.3905 33.9695L34.4951 36.074C34.9312 36.5101 35.6382 36.5101 36.0743 36.074C36.5104 35.6379 36.5104 34.931 36.0743 34.4949Z" fill="white"/>
<path fill-rule="evenodd" clip-rule="evenodd" d="M33.9768 37.3257H31.0001C30.3839 37.3257 29.8838 37.8258 29.8838 38.442C29.8838 39.0581 30.3839 39.5582 31.0001 39.5582H33.9768C34.593 39.5582 35.0931 39.0581 35.0931 38.442C35.0931 37.8258 34.593 37.3257 33.9768 37.3257Z" fill="white"/>
<path fill-rule="evenodd" clip-rule="evenodd" d="M34.4951 40.81L32.3905 42.9145C31.9545 43.3506 31.9545 44.0576 32.3905 44.4937C32.8266 44.9298 33.5336 44.9298 33.9697 44.4937L36.0743 42.3891C36.5104 41.9531 36.5104 41.2461 36.0743 40.81C35.6382 40.3739 34.9312 40.3739 34.4951 40.81Z" fill="white"/>
<path fill-rule="evenodd" clip-rule="evenodd" d="M37.3252 42.9071V45.8838C37.3252 46.5 37.8253 47.0001 38.4415 47.0001C39.0577 47.0001 39.5578 46.5 39.5578 45.8838V42.9071C39.5578 42.2909 39.0577 41.7908 38.4415 41.7908C37.8253 41.7908 37.3252 42.2909 37.3252 42.9071Z" fill="white"/>
<path fill-rule="evenodd" clip-rule="evenodd" d="M40.8095 42.3891L42.914 44.4937C43.3501 44.9298 44.0571 44.9298 44.4932 44.4937C44.9293 44.0576 44.9293 43.3506 44.4932 42.9145L42.3887 40.81C41.9526 40.3739 41.2456 40.3739 40.8095 40.81C40.3734 41.2461 40.3734 41.9531 40.8095 42.3891Z" fill="white"/>
</g>
<defs>
<linearGradient id="paint0_linear_1069_101102" x1="62" y1="62" x2="62" y2="0" gradientUnits="userSpaceOnUse">
<stop stop-color="#909ABA"/>
<stop offset="1" stop-color="#AAB5CF"/>
</linearGradient>
<clipPath id="clip0_1069_101102">
<rect width="32" height="32" fill="white" transform="translate(15 15)"/>
</clipPath>
</defs>
</svg>
