<svg width="62" height="62" viewBox="0 0 62 62" fill="none" xmlns="http://www.w3.org/2000/svg">
<g clip-path="url(#clip0_1069_101042)">
<path d="M6.91749 6.71863C1.46648 12.288 -0.437044 25.6958 0.0820995 35.8032C0.370513 41.461 1.66837 51.6568 7.09054 56.1065C11.8782 60.0846 21.5112 62 31 62C40.4888 62 50.1218 60.0257 54.9095 56.1065C60.3316 51.6568 61.6295 41.3726 61.9179 35.8032C62.437 25.6958 60.5335 12.2291 55.0825 6.71863C46.3147 -2.23954 15.6853 -2.23954 6.91749 6.71863Z" fill="url(#paint0_linear_1069_101042)"/>
<g clip-path="url(#clip1_1069_101042)">
<path fill-rule="evenodd" clip-rule="evenodd" d="M29.6304 36.3969C29.3765 36.58 29.0842 36.6923 28.7689 36.6923C27.6289 36.6923 26.8458 35.4262 26.8458 34C26.8458 32.5738 27.6289 31.3077 28.7689 31.3077C29.0842 31.3077 29.3765 31.42 29.6304 31.6031C30.1473 31.9769 30.8689 31.8615 31.2427 31.3462C31.615 30.8292 31.4996 30.1077 30.9842 29.7338C30.3335 29.2631 29.575 29 28.7689 29C26.5104 29 24.5381 31.1769 24.5381 34C24.5381 36.8231 26.5104 39 28.7689 39C29.575 39 30.3335 38.7369 30.9842 38.2662C31.4996 37.8923 31.615 37.1708 31.2427 36.6538C30.8689 36.1385 30.1473 36.0231 29.6304 36.3969Z" fill="white"/>
<path fill-rule="evenodd" clip-rule="evenodd" d="M24.1538 35.1546H28.7692C29.4062 35.1546 29.9231 34.6377 29.9231 34.0008C29.9231 33.3638 29.4062 32.8469 28.7692 32.8469H24.1538C23.5169 32.8469 23 33.3638 23 34.0008C23 34.6377 23.5169 35.1546 24.1538 35.1546Z" fill="white"/>
<path fill-rule="evenodd" clip-rule="evenodd" d="M41.4621 27.7192C41.4621 26.8179 41.1038 25.9515 40.4656 25.3134C39.8275 24.6753 38.9611 24.3169 38.0599 24.3169C33.4449 24.3169 23.0158 24.3169 18.4023 24.3169C17.4995 24.3169 16.6346 24.6753 15.9965 25.3134C15.3584 25.9515 15 26.8179 15 27.7192V39.8161C15 40.7189 15.3584 41.5838 15.9965 42.2219C16.6346 42.8601 17.4995 43.2184 18.4023 43.2184H38.0599C38.9611 43.2184 39.8275 42.8601 40.4656 42.2219C41.1038 41.5838 41.4621 40.7189 41.4621 39.8161V27.7192ZM39.194 27.7192V39.8161C39.194 40.1171 39.0745 40.4059 38.8613 40.6191C38.6481 40.8308 38.3593 40.9502 38.0599 40.9502C33.4449 40.9502 23.0158 40.9502 18.4023 40.9502C18.1014 40.9502 17.8125 40.8308 17.5993 40.6191C17.3876 40.4059 17.2682 40.1171 17.2682 39.8161V27.7192C17.2682 27.4198 17.3876 27.131 17.5993 26.9177C17.8125 26.7045 18.1014 26.5851 18.4023 26.5851H38.0599C38.3593 26.5851 38.6481 26.7045 38.8613 26.9177C39.0745 27.131 39.194 27.4198 39.194 27.7192Z" fill="white"/>
<path fill-rule="evenodd" clip-rule="evenodd" d="M40.6213 38.1866C42.1153 37.7859 43.4475 37.4291 44.4788 37.1523C45.3497 36.9195 46.0937 36.3494 46.5443 35.5676C46.9949 34.7859 47.1174 33.8574 46.8845 32.9864C46.0619 29.9168 44.5755 24.3704 43.7529 21.3008C43.5201 20.4298 42.95 19.6858 42.1682 19.2352C41.3865 18.7846 40.458 18.6621 39.587 18.895C35.1293 20.0895 24.0772 23.0518 19.6195 24.2449C19.0161 24.4067 18.6562 25.0296 18.818 25.6345C18.9798 26.2393 19.6028 26.5977 20.2077 26.4359C24.6639 25.2413 35.7175 22.2806 40.1737 21.086C40.4641 21.0089 40.7741 21.0497 41.0341 21.1994C41.2942 21.3491 41.4848 21.5971 41.5619 21.8875L44.6935 33.5731C44.7706 33.8635 44.7298 34.1735 44.5801 34.4335C44.4304 34.6936 44.1824 34.8841 43.892 34.9613C42.8593 35.238 41.5271 35.5948 40.0331 35.9956C39.4298 36.1574 39.0699 36.7803 39.2317 37.3852C39.3935 37.9885 40.0165 38.3484 40.6213 38.1866Z" fill="white"/>
</g>
</g>
<defs>
<linearGradient id="paint0_linear_1069_101042" x1="62" y1="62" x2="62" y2="0" gradientUnits="userSpaceOnUse">
<stop stop-color="#909ABA"/>
<stop offset="1" stop-color="#AAB5CF"/>
</linearGradient>
<clipPath id="clip0_1069_101042">
<rect width="62" height="62" fill="white"/>
</clipPath>
<clipPath id="clip1_1069_101042">
<rect width="32" height="32" fill="white" transform="translate(15 15)"/>
</clipPath>
</defs>
</svg>
