<svg width="62" height="62" viewBox="0 0 62 62" fill="none" xmlns="http://www.w3.org/2000/svg">
<path d="M6.91749 6.71863C1.46648 12.288 -0.437044 25.6958 0.0820995 35.8032C0.370513 41.461 1.66837 51.6568 7.09054 56.1065C11.8782 60.0846 21.5112 62 31 62C40.4888 62 50.1218 60.0257 54.9095 56.1065C60.3316 51.6568 61.6295 41.3726 61.9179 35.8032C62.437 25.6958 60.5335 12.2291 55.0825 6.71863C46.3147 -2.23954 15.6853 -2.23954 6.91749 6.71863Z" fill="url(#paint0_linear_1069_101139)"/>
<g clip-path="url(#clip0_1069_101139)">
<path fill-rule="evenodd" clip-rule="evenodd" d="M41.3665 27.2791V24.7905C41.3665 23.7055 40.9349 22.6651 40.1669 21.8971C38.7351 20.4653 35.9012 17.6314 34.4694 16.1981C33.7014 15.4316 32.661 15 31.5745 15H19.093C18.008 15 16.9661 15.4316 16.1981 16.1981C15.4316 16.9661 15 18.008 15 19.093V42.907C15 43.992 15.4316 45.0339 16.1981 45.8019C16.9661 46.5684 18.008 47 19.093 47H26.5349C27.1511 47 27.6512 46.4999 27.6512 45.8837C27.6512 45.2675 27.1511 44.7674 26.5349 44.7674H19.093C18.5989 44.7674 18.1271 44.571 17.7773 44.2227C17.429 43.8729 17.2326 43.4011 17.2326 42.907V19.093C17.2326 18.5989 17.429 18.1271 17.7773 17.7773C18.1271 17.429 18.5989 17.2326 19.093 17.2326H31.5745C32.0686 17.2326 32.542 17.429 32.8902 17.7773L38.5892 23.4763C38.9375 23.8246 39.134 24.2979 39.134 24.7905V27.2791C39.134 27.8953 39.634 28.3953 40.2502 28.3953C40.8664 28.3953 41.3665 27.8953 41.3665 27.2791Z" fill="white"/>
<path fill-rule="evenodd" clip-rule="evenodd" d="M31.6924 16.8604V22.0697C31.6924 23.509 32.8578 24.6744 34.297 24.6744H39.5063C40.1225 24.6744 40.6226 24.1743 40.6226 23.5581C40.6226 22.9419 40.1225 22.4418 39.5063 22.4418H34.297C34.0916 22.4418 33.9249 22.2751 33.9249 22.0697V16.8604C33.9249 16.2442 33.4248 15.7441 32.8087 15.7441C32.1925 15.7441 31.6924 16.2442 31.6924 16.8604Z" fill="white"/>
<path fill-rule="evenodd" clip-rule="evenodd" d="M21.3253 24.6745H25.7904C26.4066 24.6745 26.9067 24.1744 26.9067 23.5582C26.9067 22.942 26.4066 22.4419 25.7904 22.4419H21.3253C20.7091 22.4419 20.209 22.942 20.209 23.5582C20.209 24.1744 20.7091 24.6745 21.3253 24.6745Z" fill="white"/>
<path fill-rule="evenodd" clip-rule="evenodd" d="M21.3253 33.6046H25.7904C26.4066 33.6046 26.9067 33.1045 26.9067 32.4883C26.9067 31.8722 26.4066 31.3721 25.7904 31.3721H21.3253C20.7091 31.3721 20.209 31.8722 20.209 32.4883C20.209 33.1045 20.7091 33.6046 21.3253 33.6046Z" fill="white"/>
<path fill-rule="evenodd" clip-rule="evenodd" d="M21.3253 29.1395H30.2555C30.8717 29.1395 31.3718 28.6394 31.3718 28.0233C31.3718 27.4071 30.8717 26.907 30.2555 26.907H21.3253C20.7091 26.907 20.209 27.4071 20.209 28.0233C20.209 28.6394 20.7091 29.1395 21.3253 29.1395Z" fill="white"/>
<path fill-rule="evenodd" clip-rule="evenodd" d="M47.0005 39.9303C47.0005 39.2397 46.7266 38.5774 46.2369 38.0892C45.7487 37.5995 45.0864 37.3257 44.3958 37.3257H40.6749C40.0587 37.3257 39.5586 37.8258 39.5586 38.442V45.8838C39.5586 46.5 40.0587 47.0001 40.6749 47.0001H44.3958C45.0864 47.0001 45.7487 46.7262 46.2369 46.2366C46.7266 45.7484 47.0005 45.0861 47.0005 44.3955V39.9303ZM44.7679 39.9303V44.3955C44.7679 44.4937 44.7292 44.5889 44.6592 44.6589C44.5893 44.7288 44.494 44.7675 44.3958 44.7675H41.7912V39.5582H44.3958C44.494 39.5582 44.5893 39.5969 44.6592 39.6669C44.7292 39.7368 44.7679 39.8321 44.7679 39.9303Z" fill="white"/>
<path fill-rule="evenodd" clip-rule="evenodd" d="M41.7905 45.8838V32.4884C41.7905 31.0492 40.6236 29.8838 39.1858 29.8838H36.9533C35.5155 29.8838 34.3486 31.0492 34.3486 32.4884V45.8838C34.3486 46.5 34.8487 47.0001 35.4649 47.0001H40.6742C41.2904 47.0001 41.7905 46.5 41.7905 45.8838ZM39.5579 32.4884V44.7675H36.5812V32.4884C36.5812 32.283 36.7479 32.1163 36.9533 32.1163H39.1858C39.3912 32.1163 39.5579 32.283 39.5579 32.4884Z" fill="white"/>
<path fill-rule="evenodd" clip-rule="evenodd" d="M36.5815 35.4652C36.5815 34.849 36.0814 34.3489 35.4652 34.3489H31.7443C31.0537 34.3489 30.3914 34.6227 29.9032 35.1124C29.4135 35.6006 29.1396 36.2629 29.1396 36.9535V44.3954C29.1396 45.086 29.4135 45.7483 29.9032 46.2365C30.3914 46.7262 31.0537 47 31.7443 47H35.4652C36.0814 47 36.5815 46.4999 36.5815 45.8838V35.4652ZM34.349 36.5814V44.7675H31.7443C31.6461 44.7675 31.5508 44.7288 31.4809 44.6588C31.4109 44.5889 31.3722 44.4936 31.3722 44.3954V36.9535C31.3722 36.8553 31.4109 36.76 31.4809 36.6901C31.5508 36.6201 31.6461 36.5814 31.7443 36.5814H34.349Z" fill="white"/>
</g>
<defs>
<linearGradient id="paint0_linear_1069_101139" x1="62" y1="62" x2="62" y2="0" gradientUnits="userSpaceOnUse">
<stop stop-color="#909ABA"/>
<stop offset="1" stop-color="#AAB5CF"/>
</linearGradient>
<clipPath id="clip0_1069_101139">
<rect width="32" height="32" fill="white" transform="translate(15 15)"/>
</clipPath>
</defs>
</svg>
