<svg width="62" height="62" viewBox="0 0 62 62" fill="none" xmlns="http://www.w3.org/2000/svg">
<path d="M6.91749 6.71863C1.46648 12.288 -0.437044 25.6958 0.0820995 35.8032C0.370513 41.461 1.66837 51.6568 7.09054 56.1065C11.8782 60.0846 21.5112 62 31 62C40.4888 62 50.1218 60.0257 54.9095 56.1065C60.3316 51.6568 61.6295 41.3726 61.9179 35.8032C62.437 25.6958 60.5335 12.2291 55.0825 6.71863C46.3147 -2.23954 15.6853 -2.23954 6.91749 6.71863Z" fill="url(#paint0_linear_1069_101126)"/>
<path fill-rule="evenodd" clip-rule="evenodd" d="M36.9531 47C39.2125 47 41.0461 45.1663 41.0461 42.907V19.093C41.0461 16.8337 39.2125 15 36.9531 15H25.0461C22.7868 15 20.9531 16.8337 20.9531 19.093V42.907C20.9531 45.1663 22.7868 47 25.0461 47H36.9531ZM36.9531 44.7674H25.0461C24.0192 44.7674 23.1857 43.934 23.1857 42.907V19.093C23.1857 18.066 24.0192 17.2326 25.0461 17.2326H36.9531C37.9801 17.2326 38.8136 18.066 38.8136 19.093V42.907C38.8136 43.934 37.9801 44.7674 36.9531 44.7674Z" fill="white"/>
<path fill-rule="evenodd" clip-rule="evenodd" d="M28.0225 18.7208H33.976C34.5922 18.7208 35.0923 18.2207 35.0923 17.6046C35.0923 16.9884 34.5922 16.4883 33.976 16.4883H28.0225C27.4063 16.4883 26.9062 16.9884 26.9062 17.6046C26.9062 18.2207 27.4063 18.7208 28.0225 18.7208Z" fill="white"/>
<path fill-rule="evenodd" clip-rule="evenodd" d="M30.9993 26.4949C28.123 26.4949 25.791 28.7598 25.791 31.5538C25.791 32.955 26.3775 34.2231 27.3251 35.1389C27.386 35.1975 27.4899 35.1837 27.5315 35.1108C27.9754 34.3318 28.7536 33.7226 29.7033 33.4261C29.0836 33.0206 28.6762 32.3332 28.6762 31.5533C28.6762 30.3068 29.7163 29.2969 30.9993 29.2969C32.2824 29.2969 33.3225 30.3068 33.3225 31.5533C33.3225 32.3332 32.9147 33.0206 32.2954 33.4261C33.2451 33.7226 34.0233 34.3318 34.4672 35.1108C34.5084 35.1837 34.6127 35.1975 34.6732 35.1389C35.6208 34.2231 36.2077 32.955 36.2077 31.5538C36.2077 28.7598 33.8757 26.4949 30.9993 26.4949Z" fill="white"/>
<defs>
<linearGradient id="paint0_linear_1069_101126" x1="62" y1="62" x2="62" y2="0" gradientUnits="userSpaceOnUse">
<stop stop-color="#909ABA"/>
<stop offset="1" stop-color="#AAB5CF"/>
</linearGradient>
</defs>
</svg>
