<svg width="62" height="62" viewBox="0 0 62 62" fill="none" xmlns="http://www.w3.org/2000/svg">
<path d="M6.91749 6.71863C1.46648 12.288 -0.437044 25.6958 0.0820995 35.8032C0.370513 41.461 1.66837 51.6568 7.09054 56.1065C11.8782 60.0846 21.5112 62 31 62C40.4888 62 50.1218 60.0257 54.9095 56.1065C60.3316 51.6568 61.6295 41.3726 61.9179 35.8032C62.437 25.6958 60.5335 12.2291 55.0825 6.71863C46.3148 -2.23954 15.6853 -2.23954 6.91749 6.71863Z" fill="url(#paint0_linear_1069_101085)"/>
<g clip-path="url(#clip0_1069_101085)">
<path fill-rule="evenodd" clip-rule="evenodd" d="M31 15C22.1695 15 15 22.1695 15 31C15 39.8305 22.1695 47 31 47C39.8305 47 47 39.8305 47 31C47 22.1695 39.8305 15 31 15ZM31 17.2326C38.5981 17.2326 44.7674 23.4019 44.7674 31C44.7674 38.5981 38.5981 44.7674 31 44.7674C23.4019 44.7674 17.2326 38.5981 17.2326 31C17.2326 23.4019 23.4019 17.2326 31 17.2326Z" fill="white"/>
<path fill-rule="evenodd" clip-rule="evenodd" d="M40.6376 19.9906C38.1535 22.427 34.7511 23.9303 31.0004 23.9303C27.2497 23.9303 23.8473 22.427 21.3632 19.9906C20.9241 19.5589 20.2156 19.5664 19.7855 20.0069C19.3539 20.446 19.3598 21.153 19.8004 21.5846C22.6878 24.4155 26.6409 26.1629 31.0004 26.1629C35.3598 26.1629 39.3129 24.4155 42.2004 21.5846C42.6409 21.153 42.6469 20.446 42.2153 20.0069C41.7851 19.5664 41.0767 19.5589 40.6376 19.9906Z" fill="white"/>
<path fill-rule="evenodd" clip-rule="evenodd" d="M21.3632 42.0094C23.8473 39.573 27.2497 38.0697 31.0004 38.0697C34.7511 38.0697 38.1535 39.573 40.6376 42.0094C41.0767 42.4411 41.7851 42.4336 42.2153 41.9931C42.6469 41.554 42.6409 40.847 42.2004 40.4154C39.3129 37.5845 35.3598 35.8372 31.0004 35.8372C26.6409 35.8372 22.6878 37.5845 19.8004 40.4154C19.3598 40.847 19.3539 41.554 19.7855 41.9931C20.2156 42.4336 20.9241 42.4411 21.3632 42.0094Z" fill="white"/>
<path fill-rule="evenodd" clip-rule="evenodd" d="M31.0004 15C29.3588 15 27.7364 16.1996 26.5055 18.4545C24.9606 21.2854 23.9307 25.8502 23.9307 31C23.9307 36.1498 24.9606 40.7146 26.5055 43.5455C27.7364 45.8004 29.3588 47 31.0004 47C32.6421 47 34.2644 45.8004 35.4953 43.5455C37.0402 40.7146 38.0702 36.1498 38.0702 31C38.0702 25.8502 37.0402 21.2854 35.4953 18.4545C34.2644 16.1996 32.6421 15 31.0004 15ZM31.0004 17.2326C31.4112 17.2326 31.7967 17.4246 32.1673 17.7327C32.6659 18.1494 33.1199 18.7626 33.5351 19.5247C34.9476 22.1114 35.8376 26.2923 35.8376 31C35.8376 35.7077 34.9476 39.8886 33.5351 42.4753C33.1199 43.2374 32.6659 43.8506 32.1673 44.2673C31.7967 44.5754 31.4112 44.7674 31.0004 44.7674C30.5896 44.7674 30.2042 44.5754 29.8335 44.2673C29.3349 43.8506 28.881 43.2374 28.4657 42.4753C27.0533 39.8886 26.1632 35.7077 26.1632 31C26.1632 26.2923 27.0533 22.1114 28.4657 19.5247C28.881 18.7626 29.3349 18.1494 29.8335 17.7327C30.2042 17.4246 30.5896 17.2326 31.0004 17.2326Z" fill="white"/>
<path fill-rule="evenodd" clip-rule="evenodd" d="M45.8837 29.8838H16.1163C15.5001 29.8838 15 30.3839 15 31.0001C15 31.6163 15.5001 32.1163 16.1163 32.1163H45.8837C46.4999 32.1163 47 31.6163 47 31.0001C47 30.3839 46.4999 29.8838 45.8837 29.8838Z" fill="white"/>
</g>
<defs>
<linearGradient id="paint0_linear_1069_101085" x1="62" y1="62" x2="62" y2="0" gradientUnits="userSpaceOnUse">
<stop stop-color="#AAB5CF"/>
<stop offset="1" stop-color="#909ABA"/>
</linearGradient>
<clipPath id="clip0_1069_101085">
<rect width="32" height="32" fill="white" transform="translate(15 15)"/>
</clipPath>
</defs>
</svg>
