<?xml version="1.0" encoding="UTF-8" standalone="no"?><svg width="100%" height="100%" viewBox="0 0 24 24" version="1.1" xmlns="http://www.w3.org/2000/svg" xmlns:xlink="http://www.w3.org/1999/xlink" xml:space="preserve" style="fill-rule:evenodd;clip-rule:evenodd;stroke-linejoin:round;stroke-miterlimit:2;"><path d="M6,0c-0.825,0 -1.5,0.675 -1.5,1.5l0,21c0,0.825 0.675,1.5 1.5,1.5l15,0c0.825,0 1.5,-0.675 1.5,-1.5l0,-16.5l-6,-6l-10.5,0Z" style="fill:#f5f5f5;fill-rule:nonzero;"/><path d="M18,6l4.5,0l-6,-6l0,4.5c0,0.825 0.675,1.5 1.5,1.5Z" style="fill:#cdced2;fill-rule:nonzero;"/><path d="M22.5,10.5l-4.5,-4.5l4.5,0l0,4.5Z" style="fill:#cdced2;fill-opacity:0.29;fill-rule:nonzero;"/><path d="M18.75,20.25l-14.25,0l0,0.75l14.25,0c0.413,0 0.75,-0.337 0.75,-0.75l0,-0.75c0,0.413 -0.337,0.75 -0.75,0.75Z" style="fill:#cdced2;fill-opacity:0.29;fill-rule:nonzero;"/><path d="M19.5,19.5c0,0.413 -0.337,0.75 -0.75,0.75l-16.5,0c-0.413,0 -0.75,-0.337 -0.75,-0.75l0,-7.5c0,-0.412 0.337,-0.75 0.75,-0.75l16.5,0c0.413,0 0.75,0.338 0.75,0.75l0,7.5Z" style="fill:#282b39;fill-rule:nonzero;"/><path d="M4.77,14.21c-0,-0.198 0.156,-0.414 0.407,-0.414l1.385,0c0.78,0 1.482,0.522 1.482,1.523c0,0.948 -0.702,1.476 -1.482,1.476l-1.001,-0l-0,0.792c-0,0.264 -0.168,0.413 -0.384,0.413c-0.198,-0 -0.407,-0.149 -0.407,-0.413l-0,-3.377Zm0.791,0.341l-0,1.494l1.001,0c0.402,0 0.72,-0.354 0.72,-0.726c0,-0.42 -0.318,-0.768 -0.72,-0.768l-1.001,0Z" style="fill:#fff;fill-rule:nonzero;"/><path d="M9.219,18c-0.198,0 -0.414,-0.108 -0.414,-0.371l-0,-3.407c-0,-0.215 0.216,-0.372 0.414,-0.372l1.373,0c2.74,0 2.68,4.15 0.054,4.15l-1.427,0Zm0.378,-3.418l-0,2.687l0.995,-0c1.619,-0 1.691,-2.687 -0,-2.687l-0.995,0Z" style="fill:#fff;fill-rule:nonzero;"/><path d="M14.245,14.63l-0.001,0.954l1.53,-0.001c0.216,0 0.432,0.216 0.432,0.426c-0,0.198 -0.216,0.36 -0.432,0.36l-1.529,-0l-0,1.259c-0,0.21 -0.15,0.371 -0.36,0.371c-0.264,0 -0.425,-0.161 -0.425,-0.371l0,-3.406c0,-0.216 0.162,-0.372 0.425,-0.372l2.106,-0c0.264,-0 0.419,0.156 0.419,0.372c0,0.192 -0.155,0.408 -0.419,0.408l-1.746,-0Z" style="fill:#fff;fill-rule:nonzero;"/></svg>