<?xml version="1.0" encoding="UTF-8" standalone="no"?><svg width="100%" height="100%" viewBox="0 0 24 24" version="1.1" xmlns="http://www.w3.org/2000/svg" xmlns:xlink="http://www.w3.org/1999/xlink" xml:space="preserve" style="fill-rule:evenodd;clip-rule:evenodd;stroke-linejoin:round;stroke-miterlimit:2;"><path d="M6,0c-0.825,0 -1.5,0.675 -1.5,1.5l0,21c0,0.825 0.675,1.5 1.5,1.5l15,0c0.825,0 1.5,-0.675 1.5,-1.5l0,-16.5l-6,-6l-10.5,0Z" style="fill:#f5f5f5;fill-rule:nonzero;"/><path d="M18,6l4.5,0l-6,-6l0,4.5c0,0.825 0.675,1.5 1.5,1.5Z" style="fill:#cdced2;fill-rule:nonzero;"/><path d="M22.5,10.5l-4.5,-4.5l4.5,0l0,4.5Z" style="fill:#cdced2;fill-opacity:0.29;fill-rule:nonzero;"/><path d="M18.75,20.25l-14.25,0l0,0.75l14.25,0c0.413,0 0.75,-0.337 0.75,-0.75l0,-0.75c0,0.413 -0.337,0.75 -0.75,0.75Z" style="fill:#cdced2;fill-opacity:0.29;fill-rule:nonzero;"/><path d="M19.5,19.5c0,0.413 -0.337,0.75 -0.75,0.75l-16.5,0c-0.413,0 -0.75,-0.337 -0.75,-0.75l0,-7.5c0,-0.412 0.337,-0.75 0.75,-0.75l16.5,0c0.413,0 0.75,0.338 0.75,0.75l0,7.5Z" style="fill:#282b39;fill-rule:nonzero;"/><path d="M6.101,14.15c0.334,0 0.623,0.055 0.869,0.165c0.249,0.11 0.44,0.268 0.572,0.473c0.132,0.205 0.198,0.449 0.198,0.732c0,0.278 -0.066,0.522 -0.198,0.731c-0.132,0.205 -0.323,0.363 -0.572,0.473c-0.246,0.11 -0.535,0.165 -0.869,0.165l-0.869,0l0,1.111l-0.715,0l0,-3.85l1.584,0Zm-0.033,2.134c0.312,0 0.548,-0.066 0.709,-0.198c0.162,-0.132 0.242,-0.321 0.242,-0.566c0,-0.246 -0.08,-0.435 -0.242,-0.567c-0.161,-0.132 -0.397,-0.198 -0.709,-0.198l-0.836,0l0,1.529l0.836,0Zm6.007,-2.134l-0,3.85l-0.589,0l-2.122,-2.607l-0,2.607l-0.71,0l0,-3.85l0.589,0l2.123,2.607l-0,-2.607l0.709,-0Zm3.861,1.881l0.676,-0l0,1.534c-0.198,0.158 -0.429,0.279 -0.693,0.363c-0.264,0.085 -0.535,0.127 -0.814,0.127c-0.392,0 -0.746,-0.084 -1.061,-0.253c-0.316,-0.172 -0.563,-0.409 -0.743,-0.709c-0.179,-0.301 -0.269,-0.64 -0.269,-1.018c-0,-0.378 0.09,-0.717 0.269,-1.018c0.18,-0.3 0.427,-0.535 0.743,-0.703c0.319,-0.173 0.676,-0.259 1.072,-0.259c0.323,0 0.616,0.053 0.88,0.16c0.264,0.106 0.486,0.262 0.666,0.467l-0.451,0.44c-0.294,-0.293 -0.647,-0.44 -1.062,-0.44c-0.271,0 -0.513,0.057 -0.726,0.171c-0.209,0.113 -0.374,0.273 -0.495,0.478c-0.117,0.205 -0.176,0.44 -0.176,0.704c0,0.257 0.059,0.488 0.176,0.693c0.121,0.205 0.286,0.367 0.495,0.484c0.213,0.117 0.453,0.176 0.721,0.176c0.3,0 0.564,-0.066 0.792,-0.198l-0,-1.199Z" style="fill:#fff;fill-rule:nonzero;"/></svg>