<svg width="43" height="42" viewBox="0 0 37 36" fill="none" xmlns="http://www.w3.org/2000/svg"><path d="M27.313 33.89h-4.22a1.054 1.054 0 110-2.109h4.22a3.168 3.168 0 003.164-3.164v-2.11a1.054 1.054 0 112.109 0v2.11a5.28 5.28 0 01-5.273 5.274z" fill="#9CB8F8"/><path d="M.875 20.11c0 2.892.936 5.677 3.798 5.677a4.57 4.57 0 001.947-.445V14.947a4.579 4.579 0 00-1.966-.446c-2.853.011-3.779 2.733-3.779 5.608z" fill="#305DFC"/><path d="M18.875 0C11.315 0 5.094 6.221 5.094 13.781a1.054 1.054 0 102.11 0c0-6.397 5.274-11.672 11.671-11.672 6.397 0 11.602 5.275 11.602 11.672a1.054 1.054 0 102.109 0C32.586 6.221 26.435 0 18.875 0z" fill="#9CB8F8"/><path d="M20.984 29.672h-2.109a3.168 3.168 0 00-3.164 3.164A3.168 3.168 0 0018.875 36h2.11a3.168 3.168 0 003.163-3.164 3.168 3.168 0 00-3.164-3.164z" fill="#305DFC"/><path d="M6.148 27.563a1.054 1.054 0 01-1.054-1.055V13.78a1.054 1.054 0 112.11 0v12.727c0 .583-.473 1.055-1.056 1.055zM31.531 27.563a1.054 1.054 0 01-1.054-1.055V13.78a1.054 1.054 0 112.109 0v12.727c0 .583-.472 1.055-1.055 1.055z" fill="#092DAA"/><path d="M33.025 14.502a4.58 4.58 0 00-1.965.445v10.395a4.57 4.57 0 001.947.445c2.867 0 3.868-2.793 3.868-5.678 0-2.873-.994-5.595-3.85-5.607z" fill="#305DFC"/><path d="M8.258 27.563h-2.11a1.054 1.054 0 01-1.054-1.055V13.78c0-.583.471-1.054 1.054-1.054h2.11c.583 0 1.055.471 1.055 1.054v12.727c0 .583-.472 1.055-1.055 1.055zM31.531 27.563h-2.11a1.054 1.054 0 01-1.054-1.055V13.78c0-.583.472-1.054 1.055-1.054h2.11c.582 0 1.054.471 1.054 1.054v12.727c0 .583-.472 1.055-1.055 1.055z" fill="#092DAA"/></svg>