<svg width="36" height="36" viewBox="0 0 36 36" fill="none" xmlns="http://www.w3.org/2000/svg">
<rect width="36" height="36" rx="18" fill="#002A95"/>
<g clip-path="url(#clip0_1961_48377)">
<path d="M24.5727 12.1078C23.4293 10.8045 20.9745 10.0049 18 10.0049C15.0255 10.0049 12.5707 10.8045 11.4273 12.1078C9.52424 14.3147 9.52424 21.703 11.4273 23.8939C12.5707 25.1973 15.0255 25.9969 18 25.9969C20.9745 25.9969 23.4293 25.1973 24.5727 23.8939C26.4758 21.687 26.4758 14.3147 24.5727 12.1078ZM18 22.3987C17.8419 22.3987 17.6873 22.3518 17.5558 22.2639C17.4243 22.1761 17.3218 22.0512 17.2613 21.9051C17.2007 21.759 17.1849 21.5982 17.2158 21.4431C17.2466 21.288 17.3228 21.1455 17.4346 21.0337C17.5464 20.9219 17.6889 20.8457 17.844 20.8148C17.9991 20.784 18.1599 20.7998 18.306 20.8604C18.4521 20.9209 18.577 21.0234 18.6648 21.1549C18.7527 21.2863 18.7996 21.4409 18.7996 21.5991C18.7996 21.8112 18.7154 22.0145 18.5654 22.1645C18.4154 22.3144 18.2121 22.3987 18 22.3987ZM18.7996 18.4966V19.2003C18.7996 19.4124 18.7154 19.6157 18.5654 19.7657C18.4154 19.9156 18.2121 19.9999 18 19.9999C17.7879 19.9999 17.5846 19.9156 17.4346 19.7657C17.2846 19.6157 17.2004 19.4124 17.2004 19.2003V18.4567C17.1961 18.1307 17.2974 17.8121 17.489 17.5483C17.6807 17.2846 17.9525 17.09 18.2639 16.9934C18.4252 16.9446 18.5699 16.852 18.6818 16.7258C18.7937 16.5997 18.8685 16.4451 18.8977 16.279C18.9269 16.113 18.9096 15.9421 18.8475 15.7853C18.7854 15.6285 18.6811 15.4921 18.5461 15.391C18.4111 15.29 18.2508 15.2284 18.0828 15.2131C17.9149 15.1978 17.7461 15.2293 17.595 15.3042C17.444 15.3791 17.3167 15.4944 17.2272 15.6374C17.1378 15.7803 17.0898 15.9452 17.0885 16.1138C17.0885 16.3259 17.0042 16.5293 16.8543 16.6792C16.7043 16.8292 16.5009 16.9134 16.2889 16.9134C16.0768 16.9134 15.8734 16.8292 15.7235 16.6792C15.5735 16.5293 15.4893 16.3259 15.4893 16.1138C15.5189 15.5262 15.7534 14.9675 16.152 14.5347C16.5506 14.1019 17.0882 13.8223 17.6714 13.7444C18.2546 13.6665 18.8467 13.7952 19.3449 14.1083C19.8431 14.4213 20.2159 14.8989 20.3988 15.4582C20.566 16.073 20.4939 16.7283 20.1972 17.2921C19.9004 17.8559 19.401 18.2864 18.7996 18.4966Z" fill="white"/>
</g>
<defs>
<clipPath id="clip0_1961_48377">
<rect width="16" height="16" fill="white" transform="translate(10 10)"/>
</clipPath>
</defs>
</svg>
