<svg width="36" height="36" viewBox="0 0 36 36" fill="none" xmlns="http://www.w3.org/2000/svg">
<rect width="36" height="36" rx="18" fill="#002A95"/>
<g clip-path="url(#clip0_1961_48075)">
<path d="M18.0003 16H13.3337C12.9657 16 12.667 16.2987 12.667 16.6667V17.6667C12.667 18.0347 12.9657 18.3333 13.3337 18.3333C13.7017 18.3333 14.0003 18.0347 14.0003 17.6667V17.3333H15.0003V21.3333H14.667C14.299 21.3333 14.0003 21.632 14.0003 22C14.0003 22.368 14.299 22.6667 14.667 22.6667H16.667C17.035 22.6667 17.3337 22.368 17.3337 22C17.3337 21.632 17.035 21.3333 16.667 21.3333H16.3337V17.3333H17.3337V17.6667C17.3337 18.0347 17.6323 18.3333 18.0003 18.3333C18.3683 18.3333 18.667 18.0347 18.667 17.6667V16.6667C18.667 16.2987 18.3683 16 18.0003 16Z" fill="white"/>
<path d="M22.6667 17.3333H20.6667C20.2987 17.3333 20 17.0347 20 16.6667C20 16.2987 20.2987 16 20.6667 16H22.6667C23.0347 16 23.3333 16.2987 23.3333 16.6667C23.3333 17.0347 23.0347 17.3333 22.6667 17.3333Z" fill="white"/>
<path d="M22.6667 20.0003H20.6667C20.2987 20.0003 20 19.7017 20 19.3337C20 18.9657 20.2987 18.667 20.6667 18.667H22.6667C23.0347 18.667 23.3333 18.9657 23.3333 19.3337C23.3333 19.7017 23.0347 20.0003 22.6667 20.0003Z" fill="white"/>
<path d="M22.6667 22.6663H20.6667C20.2987 22.6663 20 22.3677 20 21.9997C20 21.6317 20.2987 21.333 20.6667 21.333H22.6667C23.0347 21.333 23.3333 21.6317 23.3333 21.9997C23.3333 22.3677 23.0347 22.6663 22.6667 22.6663Z" fill="white"/>
<path d="M24 10.667H12C10.8973 10.667 10 11.5643 10 12.667V23.3337C10 24.4363 10.8973 25.3337 12 25.3337H24C25.1027 25.3337 26 24.4363 26 23.3337V12.667C26 11.5643 25.1027 10.667 24 10.667ZM24 24.0003H12C11.6327 24.0003 11.3333 23.7017 11.3333 23.3337V14.0003H24.6667V23.3337C24.6667 23.7017 24.3673 24.0003 24 24.0003Z" fill="white"/>
</g>
<defs>
<clipPath id="clip0_1961_48075">
<rect width="16" height="16" fill="white" transform="translate(10 10)"/>
</clipPath>
</defs>
</svg>
