<svg width="36" height="36" viewBox="0 0 36 36" fill="none" xmlns="http://www.w3.org/2000/svg">
<rect width="36" height="36" rx="18" fill="#002A95"/>
<path d="M11.84 23.8402H24.16C24.6 23.8402 24.96 23.4802 24.96 23.0402V12.9602C24.96 12.5202 24.6 12.1602 24.16 12.1602H11.84C11.4 12.1602 11.04 12.5202 11.04 12.9602V23.0402C11.04 23.4802 11.4 23.8402 11.84 23.8402ZM22.0064 13.7426C22.7696 13.7426 23.3888 14.3618 23.3888 15.125C23.3888 15.8882 22.7696 16.5074 22.0064 16.5074C21.2432 16.5074 20.624 15.8882 20.624 15.125C20.624 14.3618 21.2432 13.7426 22.0064 13.7426ZM12.5264 21.5922L16.0768 16.6802C16.3344 16.3234 16.7568 16.3234 17.0144 16.6802L19.1136 19.5826C19.3712 19.9394 19.7936 19.9394 20.0512 19.5826L20.6224 18.7922C20.88 18.4354 21.3024 18.4354 21.56 18.7922L23.584 21.5922C23.8416 21.949 23.6928 22.2402 23.2528 22.2402H12.8576C12.4176 22.2402 12.2688 21.949 12.5264 21.5922Z" fill="white"/>
</svg>
