<svg width="36" height="36" viewBox="0 0 36 36" fill="none" xmlns="http://www.w3.org/2000/svg">
<rect width="36" height="36" rx="18" fill="#002A95"/>
<g clip-path="url(#clip0_1961_48404)">
<path d="M25.3621 16.4577L24.5493 15.6465C24.4503 15.5477 24.3717 15.4303 24.3182 15.3011C24.2646 15.1718 24.2372 15.0332 24.2375 14.8933V13.9429C24.2369 13.3646 24.007 12.8102 23.5982 12.4013C23.1894 11.9923 22.6351 11.7622 22.0568 11.7614H21.1064C20.8244 11.7607 20.5541 11.6489 20.3539 11.4503L19.542 10.6376C19.1326 10.2293 18.578 10 17.9998 10C17.4217 10 16.8671 10.2293 16.4577 10.6376L15.6465 11.4503C15.4461 11.6491 15.1756 11.7611 14.8933 11.7622H13.9421C13.3639 11.763 12.8096 11.9931 12.4008 12.402C11.992 12.811 11.762 13.3654 11.7614 13.9436V14.8933C11.7618 15.0332 11.7345 15.1717 11.6811 15.301C11.6277 15.4302 11.5493 15.5477 11.4503 15.6465L10.6376 16.4577C10.2293 16.8671 10 17.4217 10 17.9998C10 18.578 10.2293 19.1326 10.6376 19.542L11.4503 20.3532C11.5494 20.452 11.628 20.5694 11.6815 20.6986C11.735 20.8279 11.7625 20.9665 11.7622 21.1064V22.0568C11.7628 22.6351 11.9927 23.1895 12.4015 23.5984C12.8103 24.0074 13.3646 24.2375 13.9429 24.2382H14.8933C15.1754 24.2392 15.4457 24.3512 15.6457 24.5501L16.4577 25.3621C16.867 25.7706 17.4216 26 17.9998 26C18.5781 26 19.1327 25.7706 19.542 25.3621L20.3532 24.5501C20.5536 24.3513 20.8241 24.2393 21.1064 24.2382H22.0576C22.6358 24.2375 23.1901 24.0074 23.5989 23.5984C24.0077 23.1895 24.2377 22.6351 24.2382 22.0568V21.1064C24.238 20.9665 24.2654 20.8279 24.3189 20.6986C24.3724 20.5694 24.451 20.452 24.5501 20.3532L25.3621 19.542C25.7704 19.1326 25.9997 18.578 25.9997 17.9998C25.9997 17.4217 25.7704 16.8671 25.3621 16.4577ZM20.6271 16.9043L17.65 19.8813C17.5983 19.9333 17.5368 19.9745 17.4692 20.0026C17.4015 20.0307 17.3289 20.0452 17.2556 20.0452C17.1823 20.0452 17.1097 20.0307 17.042 20.0026C16.9743 19.9745 16.9129 19.9333 16.8611 19.8813L15.3726 18.3928C15.274 18.287 15.2203 18.147 15.2229 18.0024C15.2254 17.8578 15.284 17.7198 15.3863 17.6176C15.4886 17.5153 15.6265 17.4567 15.7711 17.4542C15.9157 17.4516 16.0557 17.5053 16.1615 17.6039L17.2556 18.6987L19.8382 16.1169C19.944 16.0183 20.0839 15.9646 20.2286 15.9671C20.3732 15.9697 20.5111 16.0283 20.6134 16.1305C20.7157 16.2328 20.7743 16.3708 20.7768 16.5154C20.7794 16.66 20.7257 16.8 20.6271 16.9058V16.9043Z" fill="white"/>
</g>
<defs>
<clipPath id="clip0_1961_48404">
<rect width="16" height="16" fill="white" transform="translate(10 10)"/>
</clipPath>
</defs>
</svg>
