<svg width="36" height="36" viewBox="0 0 36 36" fill="none" xmlns="http://www.w3.org/2000/svg">
<rect width="36" height="36" rx="18" fill="#002A95"/>
<g clip-path="url(#clip0_1961_48388)">
<path d="M25.1971 12.4004H10.7971C10.5849 12.4004 10.3814 12.4847 10.2314 12.6347C10.0814 12.7847 9.99707 12.9882 9.99707 13.2004C9.99707 13.4126 10.0814 13.616 10.2314 13.7661C10.3814 13.9161 10.5849 14.0004 10.7971 14.0004H12.3971V23.6004C12.3973 24.2369 12.6502 24.8472 13.1002 25.2972C13.5503 25.7473 14.1606 26.0002 14.7971 26.0004H21.1971C21.8335 26.0002 22.4439 25.7473 22.8939 25.2973C23.344 24.8472 23.5969 24.2369 23.5971 23.6004V14.0004H25.1971C25.4092 14.0004 25.6127 13.9161 25.7628 13.7661C25.9128 13.616 25.9971 13.4126 25.9971 13.2004C25.9971 12.9882 25.9128 12.7847 25.7628 12.6347C25.6127 12.4847 25.4092 12.4004 25.1971 12.4004ZM17.1971 21.2004C17.1971 21.4126 17.1128 21.616 16.9628 21.7661C16.8127 21.9161 16.6092 22.0004 16.3971 22.0004C16.1849 22.0004 15.9814 21.9161 15.8314 21.7661C15.6814 21.616 15.5971 21.4126 15.5971 21.2004V17.2004C15.5971 16.9882 15.6814 16.7847 15.8314 16.6347C15.9814 16.4847 16.1849 16.4004 16.3971 16.4004C16.6092 16.4004 16.8127 16.4847 16.9628 16.6347C17.1128 16.7847 17.1971 16.9882 17.1971 17.2004V21.2004ZM20.3971 21.2004C20.3971 21.4126 20.3128 21.616 20.1628 21.7661C20.0127 21.9161 19.8092 22.0004 19.5971 22.0004C19.3849 22.0004 19.1814 21.9161 19.0314 21.7661C18.8814 21.616 18.7971 21.4126 18.7971 21.2004V17.2004C18.7971 16.9882 18.8814 16.7847 19.0314 16.6347C19.1814 16.4847 19.3849 16.4004 19.5971 16.4004C19.8092 16.4004 20.0127 16.4847 20.1628 16.6347C20.3128 16.7847 20.3971 16.9882 20.3971 17.2004V21.2004Z" fill="white"/>
<path d="M16.3967 11.6H19.5967C19.8089 11.6 20.0123 11.5157 20.1624 11.3657C20.3124 11.2157 20.3967 11.0122 20.3967 10.8C20.3967 10.5878 20.3124 10.3843 20.1624 10.2343C20.0123 10.0843 19.8089 10 19.5967 10H16.3967C16.1845 10 15.981 10.0843 15.831 10.2343C15.681 10.3843 15.5967 10.5878 15.5967 10.8C15.5967 11.0122 15.681 11.2157 15.831 11.3657C15.981 11.5157 16.1845 11.6 16.3967 11.6Z" fill="white"/>
</g>
<defs>
<clipPath id="clip0_1961_48388">
<rect width="16" height="16" fill="white" transform="translate(10 10)"/>
</clipPath>
</defs>
</svg>
