<svg width="36" height="36" viewBox="0 0 36 36" fill="none" xmlns="http://www.w3.org/2000/svg">
<rect width="36" height="36" rx="18" fill="#002A95"/>
<g clip-path="url(#clip0_1961_48372)">
<path d="M25.4404 20.1043L23.7465 18.7791C23.7848 18.5217 23.8022 18.2609 23.8022 18.0035C23.7987 17.7391 23.7813 17.4748 23.7465 17.2139L25.4404 15.8887C25.5935 15.7635 25.6317 15.5443 25.5308 15.3739L23.9274 12.6087C23.8265 12.4383 23.6178 12.3687 23.4369 12.4383L21.4474 13.2348C21.0335 12.9113 20.5778 12.647 20.0943 12.4452L19.7952 10.3304C19.7569 10.1391 19.59 10.0035 19.3952 10H16.1917C15.9935 10.0035 15.8265 10.1461 15.7917 10.3443L15.4926 12.4591C15.0091 12.6643 14.5569 12.9287 14.143 13.2487L12.15 12.4487C11.9656 12.3791 11.7604 12.4522 11.6595 12.6191L10.0561 15.3843C9.9552 15.5548 9.99694 15.7739 10.1465 15.8991L11.8404 17.2243C11.8022 17.4817 11.7848 17.7426 11.7848 18C11.7882 18.2643 11.8056 18.5287 11.8404 18.7896L10.1465 20.1148C9.99346 20.24 9.9552 20.4591 10.0561 20.6296L11.6595 23.3948C11.7604 23.5652 11.9691 23.6348 12.15 23.5652L14.143 22.7652C14.5569 23.0887 15.0091 23.353 15.4926 23.5548L15.7917 25.6696C15.83 25.8609 15.9969 25.9965 16.1917 26H19.3952C19.5935 25.9965 19.7604 25.8539 19.7952 25.6557L20.0943 23.5409C20.5778 23.3357 21.03 23.0713 21.4439 22.7513L23.4369 23.5513C23.6213 23.6209 23.8265 23.5478 23.9274 23.3809L25.5308 20.6157C25.6317 20.4452 25.59 20.2296 25.4404 20.1043ZM17.7952 20.7826C16.2578 20.7826 15.0126 19.5374 15.0126 18C15.0126 16.4626 16.2578 15.2174 17.7952 15.2174C19.3291 15.2209 20.5743 16.4661 20.5778 18C20.5778 19.5374 19.3326 20.7826 17.7952 20.7826Z" fill="white"/>
</g>
<defs>
<clipPath id="clip0_1961_48372">
<rect width="16" height="16" fill="white" transform="translate(10 10)"/>
</clipPath>
</defs>
</svg>
