<svg width="36" height="36" viewBox="0 0 36 36" fill="none" xmlns="http://www.w3.org/2000/svg">
<rect width="36" height="36" rx="18" fill="#002A95"/>
<path d="M23.5107 19.0495C23.0636 18.4084 22.3714 17.9817 21.4337 17.7693C22.1811 17.469 22.7341 17.0222 23.0931 16.4287C23.4522 15.8349 23.6315 15.1576 23.6315 14.3956C23.6315 12.9378 23.0747 11.8406 21.9613 11.1044C20.8477 10.3682 19.2981 10 17.3129 10H11.8184V26H18.104C20.0603 26 21.562 25.6009 22.6097 24.8022C23.6572 24.0038 24.181 22.8242 24.181 21.2638C24.181 20.4288 23.9574 19.6906 23.5107 19.0495ZM15.5437 12.8572H17.313C18.1922 12.8572 18.8441 13.0129 19.2692 13.3242C19.694 13.6357 19.9065 14.1318 19.9065 14.8132C19.9065 15.414 19.6976 15.87 19.2801 16.1813C18.8624 16.4927 18.2323 16.6557 17.3898 16.6704H15.5437V12.8572ZM19.8844 22.6757C19.4888 22.9872 18.8954 23.1429 18.104 23.1429H15.5437V19.132H18.3131C19.0749 19.132 19.6262 19.3096 19.9668 19.6648C20.3075 20.0202 20.4779 20.5458 20.4779 21.2418C20.4779 21.8865 20.2799 22.3644 19.8844 22.6757Z" fill="white"/>
</svg>
