<svg width="36" height="36" viewBox="0 0 36 36" fill="none" xmlns="http://www.w3.org/2000/svg">
<rect width="36" height="36" rx="18" fill="#002A95"/>
<g clip-path="url(#clip0_1961_48058)">
<path d="M16.2075 17.232L17.7435 24.336C17.8075 24.656 18.1275 24.912 18.4475 24.976C18.7675 25.04 19.1515 24.848 19.3435 24.528L20.2395 22.864L22.7355 25.36C23.0555 25.68 23.6315 25.68 23.9515 25.36L25.4875 23.824C25.8075 23.504 25.8075 22.928 25.4875 22.608L22.9275 20.24L24.5275 19.344C24.8475 19.152 25.0395 18.832 24.9755 18.448C24.9115 18.064 24.6555 17.808 24.3355 17.744L17.2315 16.272C16.6555 16.144 16.0795 16.72 16.2075 17.232Z" fill="white"/>
<path d="M17.0394 13.5838C17.4234 13.5838 17.6794 13.2638 17.6794 12.9438V11.0238C17.6794 10.6398 17.3594 10.3838 17.0394 10.3838C16.6554 10.3838 16.3994 10.7038 16.3994 11.0238V12.9438C16.3994 13.2638 16.6554 13.5838 17.0394 13.5838Z" fill="white"/>
<path d="M14.6713 13.6475L13.2633 12.3035C13.0073 11.9835 12.5593 11.9835 12.3033 12.3035C12.0473 12.5595 12.0473 12.9435 12.3033 13.1995L13.6473 14.5435C13.9033 14.7995 14.3513 14.7995 14.6073 14.5435C14.9273 14.3515 14.9273 13.9035 14.6713 13.6475Z" fill="white"/>
<path d="M10.3838 16.9759C10.3838 17.3599 10.7038 17.6159 11.0238 17.6159H12.9438C13.3278 17.6159 13.5838 17.2959 13.5838 16.9759C13.5838 16.6559 13.2638 16.3359 12.9438 16.3359H11.0238C10.6398 16.3359 10.3838 16.6559 10.3838 16.9759Z" fill="white"/>
<path d="M13.7118 19.4078L12.3678 20.7518C12.1118 21.0078 12.1118 21.4558 12.3678 21.7118C12.6238 21.9678 13.0718 21.9678 13.3278 21.7118L14.6718 20.3678C14.9278 20.1118 14.9278 19.6638 14.6718 19.4078C14.3518 19.1518 13.9678 19.1518 13.7118 19.4078Z" fill="white"/>
<path d="M20.4323 14.6079L21.7763 13.1999C22.0323 12.9439 22.0323 12.4959 21.7763 12.2399C21.5203 11.9839 21.0723 11.9839 20.8163 12.2399L19.4723 13.5839C19.2163 13.8399 19.2163 14.2879 19.4723 14.5439C19.7283 14.8639 20.1763 14.8639 20.4323 14.6079Z" fill="white"/>
</g>
<defs>
<clipPath id="clip0_1961_48058">
<rect width="16" height="16" fill="white" transform="translate(10 10)"/>
</clipPath>
</defs>
</svg>
