<svg width="36" height="36" viewBox="0 0 36 36" fill="none" xmlns="http://www.w3.org/2000/svg">
<rect width="36" height="36" rx="18" fill="#002A95"/>
<path d="M11.1101 19.1305L11.1031 19.1036L11.5597 18.608C11.8564 18.2851 12.0599 18.0384 12.1705 17.8746C12.2809 17.7108 12.3361 17.5207 12.3361 17.3075C12.3361 16.9908 12.2322 16.7404 12.0244 16.558C11.8166 16.3757 11.5273 16.2842 11.1565 16.2842C10.8073 16.2842 10.5268 16.3925 10.3151 16.6096C10.1034 16.8266 10.0014 17.0879 10.0092 17.4L10.0139 17.4106H10.7787V17.4107C10.7787 17.2731 10.8123 17.1323 10.8795 17.0326C10.9467 16.9329 11.0391 16.8848 11.1565 16.8848C11.2878 16.8848 11.3863 16.9242 11.452 17.0014C11.5177 17.0787 11.5505 17.1827 11.5505 17.3125C11.5505 17.4036 11.5181 17.5112 11.4532 17.6348C11.3883 17.7584 11.2745 17.8991 11.1369 18.0567L10.0395 19.1972V19.6809H12.3785V19.1305H11.1101Z" fill="white"/>
<path d="M11.6223 13.9709V11.1787L10.04 11.4151V11.9759H10.7968V13.9709H10.04V14.59H12.379V13.9709H11.6223Z" fill="white"/>
<path d="M12.2833 23.3451C12.1813 23.2098 12.0399 23.1094 11.8591 23.043C12.0183 22.9703 12.1454 22.8696 12.2404 22.7406C12.3355 22.6116 12.3829 22.4705 12.3829 22.3177C12.3829 22.0101 12.2732 21.7726 12.0538 21.605C11.8344 21.4372 11.5417 21.3535 11.1754 21.3535C10.8602 21.3535 10.5921 21.437 10.3712 21.6039C10.1502 21.7708 10.0443 22.0006 10.0536 22.2694L10.0583 22.2954H10.8185C10.8185 22.1578 10.8571 22.1149 10.9344 22.0562C11.0116 21.9974 11.1013 21.9621 11.2032 21.9621C11.333 21.9621 11.4319 21.9954 11.4999 22.0681C11.5679 22.1407 11.6019 22.2288 11.6019 22.3354C11.6019 22.4698 11.564 22.5813 11.4884 22.657C11.4126 22.7328 11.3045 22.7769 11.1639 22.7769H10.7967V23.3273H11.1639C11.32 23.3273 11.4409 23.3734 11.5266 23.4483C11.6124 23.5233 11.6553 23.647 11.6553 23.8107C11.6553 23.9282 11.6143 24.0277 11.5325 24.1049C11.4506 24.1822 11.3408 24.2218 11.2033 24.2218C11.0828 24.2218 10.9805 24.1699 10.8962 24.0965C10.8119 24.0232 10.7699 23.9464 10.7699 23.8088H10.005L10.0004 23.8385C9.99265 24.1538 10.1073 24.4024 10.3445 24.5685C10.5817 24.7345 10.8587 24.8216 11.1754 24.8216C11.5432 24.8216 11.8453 24.7351 12.0817 24.5582C12.3181 24.3813 12.4363 24.1393 12.4363 23.8302C12.4363 23.6417 12.3854 23.4804 12.2833 23.3451Z" fill="white"/>
<path d="M26.0004 21.332H14.6494V23.6022H26.0004V21.332Z" fill="white"/>
<path d="M26.0004 16.8604H14.6494V19.1305H26.0004V16.8604Z" fill="white"/>
<path d="M26.0004 12.251H14.6494V14.5212H26.0004V12.251Z" fill="white"/>
</svg>
