<svg width="36" height="36" viewBox="0 0 36 36" fill="none" xmlns="http://www.w3.org/2000/svg">
<rect width="36" height="36" rx="18" fill="#002A95"/>
<path fill-rule="evenodd" clip-rule="evenodd" d="M18 21.0035L13.84 24.8665C13.6945 25.0015 13.4825 25.038 13.3 24.9585C13.118 24.879 13 24.699 13 24.5V11.5C13 11.224 13.224 11 13.5 11H22.5C22.776 11 23 11.224 23 11.5V24.5C23 24.699 22.882 24.879 22.7 24.9585C22.5175 25.038 22.3055 25.0015 22.16 24.8665L18 21.0035ZM16 17H20C20.276 17 20.5 16.776 20.5 16.5C20.5 16.224 20.276 16 20 16H16C15.724 16 15.5 16.224 15.5 16.5C15.5 16.776 15.724 17 16 17ZM16 14.5H20C20.276 14.5 20.5 14.276 20.5 14C20.5 13.724 20.276 13.5 20 13.5H16C15.724 13.5 15.5 13.724 15.5 14C15.5 14.276 15.724 14.5 16 14.5Z" fill="white"/>
</svg>
