<svg width="36" height="36" viewBox="0 0 36 36" fill="none" xmlns="http://www.w3.org/2000/svg">
<rect width="36" height="36" rx="18" fill="#002A95"/>
<path d="M23.3033 12.697C22.5994 11.9949 21.6458 11.6006 20.6517 11.6006C19.6575 11.6006 18.7039 11.9949 18.0001 12.697L17.6465 13.0505C17.6 13.0969 17.5632 13.1521 17.538 13.2127C17.5129 13.2734 17.5 13.3384 17.4999 13.4041C17.4999 13.4697 17.5129 13.5348 17.538 13.5954C17.5631 13.6561 17.6 13.7112 17.6464 13.7577L18.3534 14.4646C18.4471 14.5584 18.5743 14.6111 18.7069 14.6111C18.8395 14.6111 18.9666 14.5584 19.0604 14.4647L19.4141 14.1111C19.7423 13.7829 20.1875 13.5986 20.6516 13.5986C21.1158 13.5986 21.5609 13.783 21.8891 14.1112C22.2173 14.4394 22.4017 14.8845 22.4017 15.3487C22.4017 15.8128 22.2174 16.258 21.8892 16.5862L20.1212 18.3537C19.8114 18.6601 19.3991 18.8407 18.9639 18.8607C18.5287 18.8807 18.1015 18.7387 17.765 18.4621L17.3813 18.1417C17.3308 18.0996 17.2726 18.0678 17.21 18.0482C17.1473 18.0286 17.0814 18.0215 17.0159 18.0274C16.9505 18.0333 16.8869 18.052 16.8287 18.0825C16.7706 18.113 16.719 18.1546 16.6769 18.205L16.0361 18.9728C15.9511 19.0746 15.91 19.206 15.9219 19.3381C15.9338 19.4702 15.9977 19.5921 16.0995 19.6771L16.4832 19.9973C17.2001 20.6009 18.118 20.9125 19.0542 20.8699C19.9904 20.8274 20.8763 20.4339 21.5355 19.7678L23.3035 18.0002C24.0067 17.2969 24.4017 16.3431 24.4017 15.3486C24.4016 14.354 24.0065 13.4003 23.3033 12.697Z" fill="white"/>
<path d="M17.6471 21.5362C17.5533 21.4424 17.4262 21.3897 17.2936 21.3897C17.161 21.3897 17.0338 21.4424 16.9401 21.5361L16.5863 21.8897C16.2581 22.2179 15.813 22.4022 15.3488 22.4022C14.8847 22.4022 14.4395 22.2178 14.1113 21.8896C13.7831 21.5614 13.5987 21.1163 13.5987 20.6521C13.5987 20.188 13.7831 19.7428 14.1112 19.4146L15.8793 17.6471C16.1889 17.3405 16.6013 17.1597 17.0366 17.1397C17.4718 17.1197 17.899 17.2618 18.2355 17.5387L18.6192 17.8591C18.6696 17.9012 18.7278 17.933 18.7905 17.9526C18.8532 17.9722 18.9191 17.9793 18.9845 17.9734C19.0499 17.9675 19.1135 17.9488 19.1717 17.9183C19.2299 17.8878 19.2815 17.8462 19.3236 17.7958L19.9644 17.028C20.0494 16.9262 20.0904 16.7948 20.0785 16.6627C20.0666 16.5306 20.0027 16.4087 19.9009 16.3237L19.5172 16.0035C18.8003 15.3998 17.8824 15.0883 16.9462 15.1308C16.01 15.1733 15.1241 15.5668 14.465 16.233L12.6969 18.0006C11.9937 18.7038 11.5986 19.6577 11.5986 20.6523C11.5987 21.6468 11.9938 22.6006 12.6971 23.3039C13.4003 24.0072 14.3542 24.4022 15.3487 24.4022C16.3433 24.4022 17.2971 24.0071 18.0004 23.3038L18.354 22.9503C18.4004 22.9039 18.4373 22.8487 18.4624 22.7881C18.4876 22.7274 18.5005 22.6624 18.5005 22.5967C18.5005 22.531 18.4876 22.466 18.4625 22.4054C18.4373 22.3447 18.4005 22.2896 18.3541 22.2431L17.6471 21.5362Z" fill="white"/>
</svg>
