<svg width="36" height="36" viewBox="0 0 36 36" fill="none" xmlns="http://www.w3.org/2000/svg">
<rect width="36" height="36" rx="18" fill="#002A95"/>
<path d="M26.9486 24.2982C26.9478 24.2959 26.9471 24.2936 26.9463 24.2912L26.2313 22.1187V16.7988C26.2313 15.9265 25.5216 15.2168 24.6493 15.2168H20.0312V17.8053C20.0312 19.2592 18.8484 20.442 17.3945 20.442H17.0205V22.9862C17.0205 23.8585 17.7302 24.5682 18.6025 24.5682H23.9696L25.351 25.4875C25.5326 25.6104 25.7379 25.6716 25.9429 25.6716C26.1626 25.6716 26.3819 25.6012 26.5708 25.461C26.9367 25.1895 27.085 24.7331 26.9486 24.2982ZM23.359 22.4248C23.0866 22.5277 22.7823 22.3901 22.6795 22.1176L22.4498 21.5091H20.8445L20.6122 22.1191C20.5321 22.3295 20.3318 22.4589 20.1193 22.4589C20.0569 22.4589 19.9935 22.4478 19.9317 22.4243C19.6595 22.3206 19.523 22.0159 19.6266 21.7437L21.0788 17.9308C21.0803 17.9268 21.0819 17.9228 21.0835 17.9188C21.1784 17.6869 21.4015 17.5369 21.6521 17.5367C21.904 17.5354 22.1261 17.686 22.2214 17.9177C22.2234 17.9225 22.2253 17.9273 22.2271 17.9322L23.6661 21.7452C23.769 22.0177 23.6315 22.322 23.359 22.4248Z" fill="white"/>
<path d="M21.248 20.454H22.0536L21.6527 19.3916L21.248 20.454Z" fill="white"/>
<path d="M17.396 10H11.3492C10.4768 10 9.76716 10.7097 9.76716 11.582V16.9372L9.05216 19.1099C9.05139 19.1122 9.05065 19.1146 9.04991 19.117C8.91361 19.5517 9.06197 20.008 9.42787 20.2795C9.61676 20.4196 9.83599 20.49 10.0557 20.49C10.2606 20.49 10.4658 20.4288 10.6473 20.306L12.0289 19.3866H17.3959C18.2682 19.3866 18.9779 18.6769 18.9779 17.8046V11.582C18.978 10.7097 18.2683 10 17.396 10ZM16.5735 17.036C16.4705 17.139 16.3356 17.1905 16.2007 17.1905C16.0657 17.1905 15.9308 17.139 15.8278 17.036L15.5969 16.8051C15.2103 17.0582 14.7488 17.206 14.2532 17.206C12.8968 17.206 11.7932 16.1025 11.7932 14.7461C11.7932 13.3897 12.8968 12.2861 14.2532 12.2861C15.6096 12.2861 16.7131 13.3897 16.7131 14.7461C16.7131 15.2259 16.5745 15.6738 16.336 16.0526L16.5736 16.2902C16.7795 16.4962 16.7795 16.8301 16.5735 17.036Z" fill="white"/>
<path d="M14.2549 13.3408C13.48 13.3408 12.8496 13.9712 12.8496 14.7461C12.8496 15.521 13.48 16.1514 14.2549 16.1514C14.4574 16.1514 14.6499 16.108 14.8241 16.0305L14.593 15.7994C14.3871 15.5935 14.3871 15.2596 14.593 15.0537C14.799 14.8477 15.1328 14.8477 15.3388 15.0537L15.5575 15.2724C15.6235 15.1098 15.6602 14.9321 15.6602 14.7461C15.6602 13.9712 15.0298 13.3408 14.2549 13.3408Z" fill="white"/>
</svg>
