<svg width="172" height="40" fill="none" xmlns="http://www.w3.org/2000/svg"><g clip-path="url(#a)"><path d="M126.545 3.978c-8.676 6.909-12.215 20.006-12.215 20.006s5.401-10.384 13.71-16.1c2.573 3.296 2.615 7.839 2.615 12.315v.092s10.371-14.308 22.851-16.075c14.664-2.08 16.492 4.95 17.352 9.953.055.582.077 1.29.043 2.098a16.78 16.78 0 0 0 .068-7.822C169.141.402 160.44-.938 153.566.502c-6.875 1.445-13.4 5.126-19.793 13.944-1.474-4.284-3.748-7.583-7.224-10.472" fill="#00C1B5"/><path d="M151.001 15.895c-3.888 4.505-7.862 10.158-8.088 15.865-.026 2.323.898 3.576 2.274 3.977 1.431.335 3.48.281 6.368-.36 5.409-1.306 8.881-4.392 10.852-6.18.392-.31 1.372-1.41 1.951-1.976 2.675-2.776 5.439-6.482 6.543-10.95-.209 4.682-2.386 12.708-11.539 19.353-9.323 6.771-19.034 5.728-18.872-3.429.161-9.157 3.977-18.122 10.566-24.277l-.055 7.977Z" fill="#008486"/><path fill-rule="evenodd" clip-rule="evenodd" d="M43.107 29.39h2.194c1.158 0 1.503-.381 1.563-1.688h.273v4.016h-.273c-.013-.071-.013-.122-.013-.155-.149-1.269-.434-1.55-1.546-1.55h-2.193v3.79c0 1.18.076 1.286.826 1.286h1.682c1.189 0 1.563-.155 2.075-.8.391-.524.451-.628.826-1.462h.285l-.839 2.89h-7.675v-.314h.362c.826 0 1.065-.381 1.065-1.721v-7.479c0-1.373-.209-1.687-1.082-1.687h-.345v-.314h7.645l.137 2.52h-.286l-.03-.154c-.238-1.445-.587-1.738-1.908-1.738h-2.734v4.556l-.009.004Zm-29.09 6.33h4.25v-.313h-.344c-.844 0-1.082-.381-1.082-1.721V26.24c0-1.34.243-1.72 1.082-1.72h.345v-.315h-4.251v.314h.345c.843 0 1.082.381 1.082 1.721v7.445c0 1.34-.243 1.72-1.082 1.72h-.345v.315Zm-11.73-9.667h.03l3.816 9.672h.239l3.799-9.706h.03v7.705c0 1.306-.226 1.687-1.052 1.687h-.345v.314h4.22v-.314h-.344c-.827 0-1.065-.385-1.065-1.688v-7.511c0-1.323.238-1.688 1.065-1.688h.345v-.314H10.2l-3.544 9.011-3.603-9.01H.23v.313h.179c.916 0 1.23.436 1.23 1.688v7.512c0 1.306-.238 1.687-1.064 1.687H.23v.314h3.454v-.314H3.34c-.826 0-1.052-.385-1.052-1.688v-7.67ZM19.29 35.41h.375c.809 0 1.052-.402 1.052-1.721v-7.445c0-1.323-.239-1.72-1.052-1.72h-.375v-.315h4.042c1.623 0 2.164.071 3.122.47.677.259 1.278.765 1.759 1.444.72 1.009 1.095 2.315 1.095 3.772 0 2.47-1.095 4.49-2.884 5.289-.992.452-1.41.59-2.704.573l-4.43-.033v-.314Zm2.692-.523c.677.175 1.094.242 1.546.242 2.372 0 3.948-2.068 3.948-5.129 0-3.06-1.563-5.146-3.995-5.146-.494 0-.869.071-1.504.243v9.79h.005Zm7.943.523h-.375v.314l4.43.033c1.29.017 1.712-.12 2.705-.573 1.788-.8 2.883-2.818 2.883-5.289 0-1.457-.375-2.763-1.095-3.772-.48-.678-1.081-1.185-1.759-1.445-.958-.398-1.499-.469-3.122-.469H29.55v.314h.375c.814 0 1.052.398 1.052 1.721v7.445c0 1.319-.243 1.72-1.052 1.72Zm4.008-.28c-.451 0-.869-.068-1.546-.243h-.004v-9.79c.63-.172 1.01-.243 1.503-.243 2.432 0 3.995 2.085 3.995 5.146s-1.576 5.13-3.948 5.13Zm23.813-2.278-6.052-8.643.004-.004h-2.687v.314h.178c.66 0 1.142.33 1.772 1.202v8.002c0 1.306-.238 1.687-1.064 1.687h-.346v.314h3.472v-.314h-.362c-.827 0-1.052-.385-1.052-1.688v-7.097h.03l6.516 9.287h.268v-9.705c0-1.324.226-1.688 1.052-1.688h.363v-.314h-3.472v.314h.345c.827 0 1.065.364 1.065 1.688v6.645h-.03Zm6.67-3.56v.871h-3.799v-.87h3.8Zm1.257 6.118h-.375v.314l4.43.033c1.294.017 1.712-.12 2.704-.573 1.789-.8 2.884-2.818 2.884-5.289 0-1.457-.375-2.763-1.095-3.772-.482-.678-1.082-1.185-1.76-1.445-.958-.398-1.498-.469-3.121-.469h-4.042v.314h.375c.813 0 1.052.398 1.052 1.721v7.445c0 1.319-.243 1.72-1.052 1.72Zm4.007-.28c-.45 0-.868-.068-1.546-.243h-.004v-9.79c.63-.172 1.01-.243 1.504-.243 2.431 0 3.995 2.085 3.995 5.146s-1.576 5.13-3.949 5.13Zm13.673.59-3.378-5.372h-1.022v3.337c0 1.323.226 1.72 1.052 1.72h.374v.315h-4.263v-.314h.375c.81 0 1.052-.402 1.052-1.721V26.24c0-1.34-.239-1.72-1.052-1.72h-.374v-.315h3.62c1.17 0 1.397.017 2.044.176.464.121.903.364 1.278.728.54.54.826 1.236.826 2.052 0 1.512-.856 2.538-2.449 2.956l2.044 3.304c.482.75.826 1.202 1.172 1.478.362.276.766.436 1.367.503v.314h-2.658l-.008.004Zm-4.4-5.93c.179.017.268.017.362.017 1.849 0 2.9-.92 2.913-2.52 0-1.478-.856-2.433-2.163-2.433-.303 0-.571.034-1.112.155v4.782Zm12.224-.401h-2.194l.004-.004V24.83h2.735c1.324 0 1.67.293 1.908 1.738l.03.155h.285l-.136-2.521h-7.645v.314h.345c.873 0 1.082.314 1.082 1.687v7.479c0 1.34-.239 1.72-1.065 1.72h-.362v.315h7.675l.839-2.89h-.286c-.375.834-.434.938-.826 1.462-.51.645-.886.8-2.074.8h-1.683c-.749 0-.826-.105-.826-1.286v-3.79h2.194c1.111 0 1.397.281 1.546 1.55 0 .034 0 .084.017.155h.268v-4.016h-.268c-.06 1.307-.41 1.688-1.563 1.688Zm6.397-5.18 6.053 8.643h.029v-6.646c0-1.323-.238-1.687-1.064-1.687h-.346v-.314h3.472v.314h-.362c-.827 0-1.052.364-1.052 1.688v9.705h-.269l-6.516-9.287h-.03v7.098c0 1.302.225 1.687 1.052 1.687h.362v.314h-3.471v-.314h.345c.826 0 1.064-.381 1.064-1.688v-8.001c-.63-.871-1.111-1.202-1.771-1.202h-.179v-.314h2.687l-.004.004Zm17.092 2.693h-.268l-.017-.138c-.149-1.286-.69-1.826-1.802-1.826h-1.41v8.785c0 1.302.239 1.687 1.065 1.687h.345v.314h-4.221v-.314h.345c.826 0 1.065-.381 1.065-1.688V24.94h-1.201c-.933 0-1.261.121-1.593.628-.225.364-.332.75-.375 1.34h-.272l.106-2.697h8.127l.106 2.693Zm8.135 2.646v-3.304c0-1.34-.238-1.72-1.064-1.72h-.362v-.315h4.25v.314h-.345c-.839 0-1.082.381-1.082 1.721v7.445c0 1.34.239 1.72 1.082 1.72h.345v.315h-4.25v-.314h.362c.826 0 1.064-.381 1.064-1.721v-3.513h-4.625v3.513c0 1.34.238 1.72 1.064 1.72h.363v.315h-4.251v-.314h.345c.839 0 1.082-.381 1.082-1.721v-7.445c0-1.34-.243-1.72-1.082-1.72h-.345v-.315h4.251v.314h-.363c-.826 0-1.064.381-1.064 1.721v3.304h4.625Zm8.966-.16h-2.194l.005-.003V24.83h2.734c1.32 0 1.67.293 1.908 1.738l.03.155h.285l-.136-2.521h-7.645v.314h.345c.873 0 1.082.314 1.082 1.687v7.479c0 1.34-.239 1.72-1.065 1.72h-.362v.315h7.675l.839-2.89h-.286c-.374.834-.434.938-.826 1.462-.511.645-.886.8-2.074.8H130.4c-.75 0-.827-.105-.827-1.286v-3.79h2.194c1.112 0 1.397.281 1.546 1.55 0 .034 0 .084.017.155h.268v-4.016h-.268c-.06 1.307-.409 1.688-1.563 1.688Z" fill="#008486"/><path d="m43.107 29.39-.104-.206.104.435v-.23Zm3.757-1.688v-.23h-.223l-.01.22.233.01Zm.273 0h.233v-.23h-.233v.23Zm0 4.016v.229h.233v-.23h-.233Zm-.273 0-.23.04.034.189h.196v-.23Zm-.013-.155h.233v-.013l-.001-.014-.232.027Zm-3.74-1.55v-.229h-.233v.23h.233Zm4.583 4.276.184.14.004-.004-.188-.136Zm.827-1.462v-.23h-.152l-.062.137.214.093Zm.285 0 .224.063.085-.292h-.309v.23Zm-.839 2.89v.229h.176l.048-.167-.224-.063Zm-7.675 0h-.233v.229h.233v-.23Zm0-.315v-.229h-.233v.23h.233Zm0-10.886h-.233v.23h.233v-.23Zm0-.314v-.23h-.233v.23h.233Zm7.645 0 .233-.012-.012-.218h-.22v.23Zm.137 2.52v.23h.246l-.014-.242-.232.012Zm-.286 0-.23.043.037.187h.193v-.23Zm-.03-.155-.23.037.001.006.23-.043Zm-4.642-1.737v-.23h-.233v.23h.233Zm0 4.555.104.206.13-.064v-.142h-.234Zm-24.848 6.336v.229h.233v-.23h-.233Zm-4.251 0h-.233v.229h.233v-.23Zm4.25-.314h.234v-.23h-.233v.23Zm0-10.887v.23h.234v-.23h-.233Zm0-.314h.234v-.23h-.233v.23Zm-4.25 0v-.23h-.233v.23h.233Zm0 .314h-.233v.23h.233v-.23Zm0 10.887v-.23h-.233v.23h.233Zm-11.7-9.354.217-.084-.057-.146h-.16v.23Zm-.03 0v-.23h-.233v.23h.233Zm3.846 9.672-.217.083.057.146h.16v-.23Zm.239 0v.23h.16l.057-.148-.217-.082Zm3.799-9.706v-.23h-.16l-.058.148.218.082Zm.03 0h.233v-.23H10.2v.23Zm-1.397 9.392v-.23H8.57v.23h.234Zm0 .314H8.57v.23h.234v-.23Zm4.22 0v.23h.234v-.23h-.233Zm0-.314h.234v-.23h-.233v.23Zm0-10.887v.23h.234v-.23h-.233Zm0-.314h.234v-.23h-.233v.23Zm-2.823 0v-.23h-.16l-.058.147.218.083Zm-3.544 9.01-.217.085.219.547.216-.548-.218-.083Zm-3.603-9.01.217-.084-.058-.145h-.16v.23Zm-2.824 0v-.23h-.233v.23H.23Zm0 .314h-.233v.23H.23v-.23Zm0 10.887v-.23h-.233v.23H.23Zm0 .314h-.233v.23H.23v-.23Zm3.454 0v.23h.233v-.23h-.233Zm0-.314h.233v-.23h-.233v.23Zm15.606 0v-.23h-.233v.23h.233Zm0-10.887h-.233v.23h.233v-.23Zm0-.314v-.23h-.233v.23h.233Zm7.164.47-.091.21.006.003.085-.214Zm-.03 10.505-.097-.21-.001.002.098.208Zm-2.705.573.003-.229-.003.23Zm-4.43-.033h-.233v.227l.232.002.002-.23Zm2.693-.838.06-.221-.03-.008h-.03v.23Zm-.005-9.79-.061-.22-.172.046v.175h.233Zm0 9.79h-.233v.23h.233v-.23Zm7.573.524v-.23h-.233v.23h.233Zm0 .314h-.233v.227l.232.002.001-.23Zm4.43.033.003-.229h-.001l-.002.23Zm2.704-.573-.096-.21-.002.002.098.208Zm1.79-9.061-.192.13v.001l.191-.131Zm-1.76-1.445-.09.211.005.003.085-.214Zm-7.164-.469v-.23h-.233v.23h.233Zm0 .314h-.233v.23h.233v-.23Zm2.837 10.363.06-.221-.03-.008h-.03v.23Zm-.004 0h-.234v.23h.234v-.23Zm0-9.79-.063-.22-.17.046v.175h.233Zm19.31-.887-.164-.162-.137.135.11.157.192-.13Zm6.053 8.642-.192.13.07.1h.122v-.23Zm-6.048-8.646.165.162.398-.391h-.563v.229Zm-2.688 0v-.23h-.233v.23h.233Zm0 .314h-.233v.23h.233v-.23Zm1.951 1.202h.234v-.074l-.044-.06-.19.134Zm-1.41 9.689v-.23h-.233v.23h.233Zm0 .314h-.233v.23h.233v-.23Zm3.472 0v.23h.233v-.23h-.233Zm0-.314h.233v-.23h-.233v.23Zm-1.414-8.785v-.23h-.234v.23h.234Zm.03 0 .191-.13-.069-.1h-.123v.23Zm6.516 9.287-.192.13.07.1h.122v-.23Zm.268 0v.23h.234v-.23h-.234Zm1.414-11.393v.23h.234v-.23h-.233Zm0-.314h.234v-.23h-.233v.23Zm-3.47 0v-.23h-.234v.23h.233Zm0 .314h-.234v.23h.233v-.23Zm1.409 8.332v.23h.233v-.23h-.233Zm6.64-2.688v.23h.233v-.23h-.233Zm0-.87h.233v-.23h-.233v.23Zm-3.8.87h-.233v.23h.234v-.23Zm0-.87v-.23h-.233v.23h.234Zm4.682 6.117v-.23h-.233v.23h.233Zm0 .314h-.233v.227l.23.002.003-.23Zm4.43.033.002-.229h-.001l-.002.23Zm2.704-.573-.097-.21-.001.002.098.208Zm.03-10.506-.09.211.005.003.085-.214Zm-7.164-.469v-.23h-.233v.23h.233Zm0 .314h-.233v.23h.233v-.23Zm2.836 10.363.06-.221-.03-.008h-.03v.23Zm-.004 0h-.233v.23h.233v-.23Zm0-9.79-.062-.22-.171.046v.175h.233Zm11.845 5.252.199-.121-.069-.109h-.13v.23Zm3.378 5.372-.199.12.112.178.19-.093-.103-.205Zm-4.4-5.372v-.23h-.234v.23h.234Zm1.426 5.058h.234v-.23h-.234v.23Zm0 .314v.229h.234v-.23h-.234Zm-4.263 0h-.233v.229h.233v-.23Zm0-.314v-.23h-.233v.23h.233Zm0-10.887h-.233v.23h.233v-.23Zm0-.314v-.23h-.233v.23h.233Zm5.665.176.06-.222h-.004l-.056.222Zm1.278.728.166-.16-.002-.003-.164.163Zm-1.623 5.008-.06-.221-.301.079.161.261.2-.119Zm2.044 3.304-.199.12.002.002.197-.122Zm1.172 1.478-.148.178.005.003.143-.181Zm1.367.502h.233v-.204l-.207-.023-.026.227Zm0 .314v.23h.233v-.23h-.233Zm-2.658 0v-.229h-.055l-.05.024.105.205Zm-4.408-5.924h-.234V30l.212.02.022-.228Zm3.275-2.504.233.001v-.001h-.233Zm-3.275-2.278-.052-.224-.182.041v.183h.234Zm10.03 4.38-.165-.162-.397.391h.562v-.23Zm.004-.005.166.162.067-.067v-.095h-.233Zm0-4.555v-.23h-.233v.23h.233Zm4.643 1.738-.23.036v.006l.23-.043Zm.03.154-.23.043.036.187h.194v-.23Zm.285 0v.23h.246l-.013-.242-.233.012Zm-.136-2.52.233-.012-.012-.218h-.221v.23Zm-7.645 0v-.23h-.234v.23h.234Zm0 .314h-.234v.23h.234v-.23Zm0 10.886v-.229h-.234v.23h.234Zm0 .315h-.234v.229h.234v-.23Zm7.674 0v.229h.177l.048-.167-.225-.063Zm.84-2.89.224.063.085-.292h-.31v.23Zm-.286 0v-.23h-.151l-.062.137.213.093Zm-.826 1.462.184.14.004-.004-.188-.136Zm-4.583-4.276v-.229h-.233v.23h.233Zm3.74 1.55h.233v-.013l-.002-.014-.231.027Zm.017.155-.227.052.042.177h.185v-.23Zm.268 0v.229h.233v-.23h-.233Zm0-4.016h.233v-.23h-.233v.23Zm-.268 0v-.23h-.223l-.01.22.233.01Zm10.887 5.15-.193.13.07.1h.123v-.23Zm-6.053-8.642-.165-.162-.137.135.11.157.192-.13Zm6.082 8.642v.23h.233v-.23h-.233Zm-1.41-8.332h-.233v.23h.233v-.23Zm0-.314v-.23h-.233v.23h.233Zm3.472 0h.233v-.23h-.233v.23Zm0 .314v.23h.233v-.23h-.233Zm-1.415 11.393v.23h.234v-.23h-.234Zm-.268 0-.192.13.07.1h.122v-.23Zm-6.517-9.287.193-.13-.07-.1h-.123v.23Zm-.03 0v-.23h-.232v.23h.233Zm1.415 8.785h.233v-.23h-.233v.23Zm0 .314v.23h.233v-.23h-.233Zm-3.472 0h-.233v.23h.234v-.23Zm0-.314v-.23h-.233v.23h.234Zm1.41-9.69h.234v-.073l-.044-.06-.19.134Zm-1.95-1.201h-.234v.23h.234v-.23Zm0-.314v-.23h-.234v.23h.234Zm2.687 0 .165.162.399-.391h-.564v.229Zm17.088 2.697h.234v-.23h-.234v.23Zm0 .004-.233.009.467-.01h-.234Zm-.268-.005-.232.028.025.202h.207v-.23Zm-.017-.138-.232.026v.002l.232-.028Zm-3.212-1.825v-.23h-.233v.23h.233Zm1.41 10.472h.233v-.23h-.233v.23Zm0 .314v.23h.233v-.23h-.233Zm-4.221 0h-.233v.23h.233v-.23Zm0-.314v-.23h-.233v.23h.233Zm1.41-10.472h.234v-.23h-.234v.23Zm-2.794.628-.196-.125-.003.005.199.12Zm-.375 1.34v.229h.218l.015-.213-.233-.016Zm-.272 0-.233-.01-.01.239h.243v-.23Zm.106-2.697v-.23h-.224l-.009.221.233.01Zm8.127 0 .233-.009-.009-.22h-.224v.23Zm8.241 5.339v.23h.234v-.23h-.234Zm-1.426-5.025h-.234v.23h.234v-.23Zm0-.314v-.23h-.234v.23h.234Zm4.25 0h.233v-.23h-.233v.23Zm0 .314v.23h.233v-.23h-.233Zm0 10.887h.233v-.23h-.233v.23Zm0 .314v.23h.233v-.23h-.233Zm-4.25 0h-.234v.23h.234v-.23Zm0-.314v-.23h-.234v.23h.234Zm1.426-5.234h.234v-.23h-.234v.23Zm-4.625 0v-.23h-.233v.23h.233Zm1.427 5.234h.233v-.23h-.233v.23Zm0 .314v.23h.233v-.23h-.233Zm-4.251 0h-.234v.23h.234v-.23Zm0-.314v-.23h-.234v.23h.234Zm0-10.887h-.234v.23h.234v-.23Zm0-.314v-.23h-.234v.23h.234Zm4.251 0h.233v-.23h-.233v.23Zm0 .314v.23h.233v-.23h-.233Zm-1.427 5.025h-.233v.23h.233v-.23Zm11.397-.16-.164-.162-.399.392h.563v-.23Zm.005-.004.165.163.068-.067v-.096h-.233Zm0-4.555v-.23h-.233v.23h.233Zm4.642 1.738-.23.036.001.006.229-.043Zm.03.154-.229.043.036.187h.193v-.23Zm.285 0v.23h.246l-.013-.242-.233.012Zm-.136-2.52.233-.012-.012-.218h-.221v.23Zm-7.645 0v-.23h-.234v.23h.234Zm0 .314h-.234v.23h.234v-.23Zm0 10.886v-.229h-.234v.23h.234Zm0 .315h-.234v.229h.234v-.23Zm7.675 0v.229h.176l.048-.167-.224-.063Zm.839-2.89.224.063.085-.292h-.309v.23Zm-.286 0v-.23h-.151l-.062.137.213.093Zm-.826 1.462.185.14.003-.004-.188-.136Zm-4.583-4.276v-.229h-.233v.23h.233Zm3.74 1.55h.233v-.013l-.001-.014-.232.027Zm.017.155-.227.052.042.177h.185v-.23Zm.268 0v.229h.234v-.23h-.234Zm0-4.016h.234v-.23h-.234v.23Zm-.268 0v-.23h-.223l-.01.22.233.01ZM45.3 29.16h-2.193v.459h2.194v-.459Zm1.33-1.468c-.029.65-.13.997-.308 1.19-.169.182-.456.278-1.021.278v.459c.593 0 1.058-.095 1.366-.43.3-.323.4-.821.43-1.477l-.466-.02Zm.506-.22h-.272v.46h.273v-.46Zm.234 4.246v-4.016h-.467v4.016h.467Zm-.506.229h.273v-.459h-.273v.459Zm-.246-.384c0 .037 0 .104.016.195l.46-.08c-.01-.052-.01-.086-.01-.115h-.466Zm-1.313-1.32c.552 0 .812.074.968.23.166.167.271.477.346 1.116l.464-.052c-.074-.63-.186-1.094-.478-1.386-.301-.3-.74-.367-1.3-.367v.459Zm-2.194 0h2.194v-.459h-2.194v.459Zm.234 3.56v-3.79h-.467v3.79h.467Zm.593 1.056c-.189 0-.307-.007-.388-.028-.068-.017-.092-.039-.11-.066-.026-.041-.055-.121-.073-.287a6.788 6.788 0 0 1-.022-.675h-.467c0 .295.005.534.025.723.02.186.058.353.144.486a.619.619 0 0 0 .388.264c.144.036.316.042.503.042v-.459Zm1.682 0h-1.682v.459h1.682v-.459Zm1.89-.711c-.243.307-.434.471-.685.57-.262.101-.614.141-1.205.141v.459c.598 0 1.027-.038 1.377-.174.362-.141.614-.377.882-.714l-.369-.282Zm.797-1.414a10.54 10.54 0 0 1-.397.829 5.296 5.296 0 0 1-.403.59l.375.272c.197-.262.317-.43.436-.64.117-.206.23-.45.416-.865l-.427-.186Zm.5-.136h-.286v.459h.285v-.46Zm-.616 3.181.84-2.889-.45-.126-.838 2.89.448.125Zm-7.899.167h7.675v-.459h-7.675v.459Zm-.233-.544v.315h.466v-.315h-.466Zm.595-.229h-.362v.459h.362v-.459Zm.831-1.492c0 .675-.063 1.043-.188 1.244-.101.163-.265.248-.643.248v.459c.448 0 .817-.106 1.041-.468.202-.325.257-.817.257-1.483h-.466Zm0-7.478v7.479h.467v-7.479h-.466Zm-.848-1.458c.419 0 .578.077.671.222.056.087.103.22.134.426.03.207.044.47.044.81h.466a6.14 6.14 0 0 0-.049-.876c-.035-.238-.095-.442-.2-.605-.23-.356-.612-.436-1.066-.436v.46Zm-.345 0h.345v-.459h-.345v.46Zm-.233-.543v.314h.466v-.314h-.466Zm7.878-.23h-7.645v.46h7.645v-.46Zm.37 2.738-.137-2.52-.466.024.137 2.52.465-.024Zm-.519.242h.286v-.459h-.286v.459Zm-.259-.342.03.155.458-.085-.03-.155-.458.085Zm-1.679-1.55c.66 0 .992.077 1.202.266.217.195.356.553.476 1.278l.46-.073c-.118-.72-.273-1.23-.62-1.543-.355-.319-.857-.387-1.518-.387v.458Zm-2.734 0h2.734v-.46h-2.734v.46Zm.233 4.325V24.83h-.466v4.555h.466Zm-.137.21.008-.004-.209-.41-.008.003.209.41ZM18.268 35.49h-4.251v.459h4.25v-.459Zm-.234-.084v.314h.467v-.314h-.467Zm-.111.229h.345v-.459h-.345v.459Zm-1.315-1.95c0 .665.055 1.158.259 1.483.228.362.6.467 1.056.467v-.459c-.389 0-.557-.086-.66-.249-.125-.2-.189-.568-.189-1.242h-.466Zm0-7.445v7.445h.466V26.24h-.466Zm1.315-1.95c-.454 0-.826.104-1.054.466-.205.325-.261.818-.261 1.484h.466c0-.674.065-1.041.191-1.242.103-.164.272-.25.658-.25v-.458Zm.345 0h-.345v.458h.345v-.458Zm-.234-.085v.314h.467v-.314h-.467Zm-4.017.23h4.25v-.46h-4.25v.46Zm.233.084v-.314h-.466v.314h.466Zm.112-.23h-.345v.46h.345v-.46Zm1.315 1.95c0-.665-.055-1.158-.26-1.483-.227-.362-.6-.466-1.055-.466v.458c.388 0 .556.086.659.25.126.2.19.568.19 1.242h.466Zm0 7.446V26.24h-.466v7.445h.466Zm-1.315 1.95c.453 0 .826-.105 1.054-.467.204-.324.261-.817.261-1.483h-.466c0 .674-.065 1.041-.192 1.242-.103.163-.271.25-.657.25v.458Zm-.345 0h.345v-.459h-.345v.459Zm.233.085v-.314h-.466v.314h.466ZM2.317 25.823h-.03v.459h.03v-.459Zm4.034 9.819-3.817-9.673-.435.166 3.817 9.673.435-.166Zm.02-.147h-.238v.46h.239v-.46Zm3.582-9.558-3.8 9.705.436.165 3.8-9.706-.436-.164Zm.248-.147h-.03v.458h.03v-.458Zm.233 7.933V26.02h-.467v7.704h.467ZM9.149 35.64c.448 0 .813-.105 1.035-.464.198-.32.25-.804.25-1.453h-.467c0 .658-.06 1.018-.182 1.215-.098.158-.258.243-.636.243v.46Zm-.345 0h.345v-.459h-.345v.46Zm.233.085v-.314H8.57v.314h.467Zm3.987-.23h-4.22v.46h4.22v-.46Zm-.233-.084v.314h.467v-.314h-.467Zm-.111.23h.345v-.46h-.345v.46Zm-1.299-1.918c0 .648.056 1.132.258 1.453.225.357.592.464 1.04.464v-.459c-.377 0-.542-.085-.643-.246-.124-.198-.188-.557-.188-1.212h-.467Zm0-7.511v7.511h.467v-7.511h-.467Zm1.299-1.917c-.445 0-.814.1-1.04.455-.203.32-.259.804-.259 1.462h.467c0-.666.064-1.025.187-1.219.1-.157.263-.24.645-.24v-.458Zm.345 0h-.345v.458h.345v-.458Zm-.234-.085v.314h.467v-.314h-.467Zm-2.59.23h2.823v-.46h-2.823v.46Zm-3.326 8.864 3.543-9.011-.435-.166-3.544 9.011.436.166Zm-4.038-9.01 3.603 9.01.434-.167-3.603-9.01-.434.167Zm-2.607.145h2.824v-.458H.23v.458Zm.233.085v-.314h-.466v.314h.466Zm-.054-.23h-.18v.46h.18v-.46Zm1.464 1.918c0-.631-.076-1.118-.316-1.447-.256-.352-.655-.47-1.148-.47v.458c.423 0 .639.1.769.279.147.202.228.558.228 1.18h.467Zm0 7.511v-7.511h-.467v7.511h.467ZM.575 35.64c.448 0 .815-.105 1.04-.462.202-.32.258-.805.258-1.455h-.467c0 .657-.063 1.017-.187 1.213-.101.16-.266.245-.644.245v.46Zm-.345 0h.345v-.459H.23v.46Zm.233.085v-.314h-.466v.314h.466Zm3.221-.23H.23v.46h3.454v-.46Zm-.233-.084v.314h.466v-.314h-.466Zm-.112.23h.345v-.46H3.34v.46Zm-1.285-1.918c0 .647.052 1.13.25 1.451.221.36.586.466 1.035.466v-.459c-.377 0-.538-.085-.636-.244-.122-.198-.183-.558-.183-1.214h-.466Zm0-7.67v7.67h.466v-7.67h-.466Zm17.61 9.128h-.374v.46h.375v-.46Zm.82-1.491c0 .662-.065 1.032-.19 1.237a.45.45 0 0 1-.216.19 1.061 1.061 0 0 1-.413.064v.46c.22 0 .421-.028.598-.103a.913.913 0 0 0 .431-.375c.199-.326.256-.816.256-1.473h-.467Zm0-7.445v7.445h.466v-7.445h-.467Zm-.82-1.492c.187 0 .32.024.416.065.09.038.16.096.216.188.124.204.187.574.187 1.24h.467c0-.66-.056-1.15-.254-1.475a.908.908 0 0 0-.431-.375 1.533 1.533 0 0 0-.6-.101v.458Zm-.374 0h.375v-.458h-.375v.458Zm-.233-.543v.314h.466v-.314h-.466Zm4.275-.23H19.29v.46h4.042v-.46Zm3.213.488c-.492-.204-.886-.328-1.368-.4-.477-.07-1.033-.087-1.845-.087v.458c.81 0 1.336.018 1.775.083.433.064.789.175 1.256.368l.182-.422Zm1.86 1.524c-.502-.706-1.137-1.247-1.866-1.527l-.17.428c.625.24 1.191.712 1.652 1.362l.383-.263Zm1.136 3.904c0-1.494-.384-2.849-1.137-3.904l-.383.263c.688.963 1.053 2.222 1.053 3.641h.467Zm-3.02 5.497c1.897-.848 3.02-2.967 3.02-5.497h-.467c0 2.412-1.066 4.329-2.747 5.08l.194.417Zm-2.805.595c.655.008 1.105-.022 1.522-.117.416-.095.787-.252 1.284-.478l-.196-.416c-.496.225-.829.364-1.194.447-.363.083-.77.113-1.41.105l-.006.459Zm-4.428-.034 4.43.034.003-.459-4.43-.034-.003.46Zm-.232-.543v.314h.467v-.314h-.466Zm4.472-.51c-.423 0-.819-.062-1.487-.235l-.119.443c.686.178 1.126.25 1.606.25v-.458Zm3.715-4.9c0 1.494-.385 2.724-1.038 3.574-.648.845-1.568 1.326-2.677 1.326v.459c1.263 0 2.317-.554 3.05-1.508.728-.95 1.131-2.284 1.131-3.851h-.466Zm-3.762-4.917c1.14 0 2.071.486 2.723 1.334.657.855 1.039 2.088 1.039 3.583h.466c0-1.566-.4-2.905-1.133-3.86-.737-.958-1.803-1.515-3.095-1.515v.458Zm-1.442.235c.626-.17.978-.235 1.442-.235v-.458c-.525 0-.922.077-1.566.25l.124.443Zm.172 9.568v-9.79h-.467v9.79h.467Zm-.23-.229h-.004v.459h.005v-.459Zm7.57.982h.374v-.459h-.375v.46Zm.233.085v-.314h-.467v.314h.466Zm4.198-.196-4.43-.034-.003.46 4.429.033.004-.459Zm2.604-.552c-.495.225-.83.364-1.195.447-.364.083-.77.113-1.408.105l-.006.459c.653.008 1.102-.022 1.52-.117.416-.095.788-.252 1.285-.478l-.196-.416Zm2.749-5.08c0 2.41-1.067 4.328-2.747 5.079l.193.417c1.898-.848 3.02-2.967 3.02-5.497h-.466Zm-1.053-3.642c.687.964 1.053 2.222 1.053 3.641h.466c0-1.494-.384-2.85-1.137-3.904l-.382.263Zm-1.652-1.362c.624.24 1.19.712 1.652 1.362l.382-.263c-.501-.707-1.135-1.247-1.865-1.527l-.17.428Zm-3.038-.454c.811 0 1.337.018 1.776.083.433.064.788.175 1.255.368l.182-.422c-.491-.204-.885-.328-1.368-.4-.477-.07-1.033-.087-1.845-.087v.458Zm-4.042 0h4.042v-.458H29.55v.458Zm.233.085v-.314h-.466v.314h.466Zm.142-.23h-.375v.46h.375v-.46Zm1.285 1.951c0-.658-.056-1.149-.254-1.474a.908.908 0 0 0-.431-.375 1.532 1.532 0 0 0-.6-.101v.458c.187 0 .319.024.415.065.091.038.16.096.216.188.124.204.188.574.188 1.24h.466Zm0 7.445v-7.445h-.466v7.445h.466Zm-1.285 1.95c.22 0 .422-.027.599-.102a.912.912 0 0 0 .43-.375c.2-.326.256-.816.256-1.473h-.466c0 .662-.064 1.032-.19 1.237a.45.45 0 0 1-.216.19 1.061 1.061 0 0 1-.413.064v.46Zm2.402-.53c.687.177 1.126.25 1.606.25v-.46c-.423 0-.819-.06-1.487-.234l-.119.443Zm.056.007h.004v-.459h-.004v.459Zm-.234-10.02v9.79h.467v-9.79h-.467Zm1.737-.471c-.524 0-.926.077-1.566.25l.125.443c.621-.17.977-.235 1.441-.235v-.458ZM38.114 30c0-1.566-.4-2.905-1.132-3.86-.738-.958-1.804-1.515-3.096-1.515v.458c1.14 0 2.071.486 2.724 1.334.656.855 1.038 2.088 1.038 3.583h.466Zm-4.181 5.359c1.263 0 2.318-.554 3.05-1.508.729-.95 1.132-2.284 1.132-3.851h-.467c0 1.494-.385 2.724-1.038 3.574-.648.845-1.568 1.326-2.677 1.326v.459Zm17.569-11.02 6.052 8.643.384-.26-6.052-8.643-.384.26Zm.031-.296-.004.004.33.324.004-.004-.33-.324Zm-2.523.391h2.688v-.458H49.01v.458Zm.234.085v-.314h-.467v.314h.467Zm-.055-.23h-.178v.46h.178v-.46Zm1.962 1.299c-.32-.444-.617-.77-.932-.983a1.76 1.76 0 0 0-1.03-.315v.458c.285 0 .523.07.765.234.249.17.508.444.817.872l.38-.266Zm.044 8.134v-8.001h-.467v8.001h.467Zm-1.298 1.917c.447 0 .815-.105 1.04-.462.202-.32.258-.805.258-1.455h-.467c0 .657-.064 1.017-.188 1.213-.1.16-.265.245-.643.245v.46Zm-.346 0h.346v-.459h-.346v.46Zm.234.085v-.314h-.467v.314h.467Zm3.238-.23H49.55v.46h3.472v-.46Zm-.234-.084v.314h.467v-.314h-.467Zm-.128.23h.362v-.46h-.362v.46Zm-1.286-1.918c0 .647.053 1.13.25 1.451.222.36.587.466 1.036.466v-.459c-.378 0-.539-.085-.637-.244-.121-.198-.182-.558-.182-1.214h-.467Zm0-7.097v7.097h.467v-7.097h-.467Zm.264-.23h-.03v.46h.03v-.46Zm6.708 9.387-6.517-9.287-.383.26 6.516 9.287.384-.26Zm.076-.1h-.268v.46h.268v-.46Zm-.233-9.476v9.706h.467v-9.706h-.467Zm1.285-1.916c-.444 0-.812.099-1.034.457a1.595 1.595 0 0 0-.2.603c-.037.237-.05.52-.05.856h.466c0-.326.014-.583.045-.787.032-.205.08-.34.137-.433.096-.155.255-.238.636-.238v-.458Zm.362 0h-.362v.458h.362v-.458Zm-.233-.085v.314h.467v-.314h-.467Zm-3.238.23h3.471v-.46h-3.47v.46Zm.233.084v-.314h-.466v.314h.466Zm.112-.23h-.345v.46h.345v-.46Zm1.298 1.917c0-.657-.055-1.142-.258-1.461-.226-.356-.595-.455-1.04-.455v.458c.382 0 .545.083.645.24.123.194.187.552.187 1.218h.466Zm0 6.645v-6.645h-.466v6.645h.466Zm-.263.23h.03v-.459h-.03v.459Zm6.903-2.918v-.87h-.466v.87h.466Zm-4.032.23h3.8v-.46h-3.8v.46Zm-.233-1.1v.87h.466v-.87h-.467Zm4.032-.23h-3.8v.459h3.8v-.459Zm.882 6.576h.374v-.459h-.374v.46Zm.233.085v-.314h-.466v.314h.466Zm4.198-.196-4.43-.034-.003.46 4.43.033.003-.459Zm2.605-.552c-.496.225-.829.364-1.194.447-.363.083-.77.113-1.41.105l-.006.459c.655.008 1.105-.022 1.522-.117.416-.095.787-.252 1.284-.478l-.196-.416Zm2.748-5.08c0 2.41-1.067 4.328-2.746 5.079l.192.417c1.898-.848 3.02-2.967 3.02-5.497h-.466Zm-1.052-3.642c.687.963 1.052 2.222 1.052 3.641h.467c0-1.494-.385-2.85-1.137-3.904l-.382.263Zm-1.653-1.362c.625.24 1.191.712 1.653 1.362l.382-.263c-.501-.706-1.136-1.247-1.866-1.527l-.17.428Zm-3.037-.454c.81 0 1.337.018 1.775.083.433.064.789.175 1.256.368l.181-.422c-.49-.204-.885-.328-1.368-.4-.476-.07-1.033-.087-1.844-.087v.458Zm-4.042 0h4.042v-.458h-4.042v.458Zm.233.085v-.314h-.466v.314h.466Zm.141-.23h-.374v.46h.374v-.46Zm1.286 1.951c0-.658-.056-1.149-.254-1.474a.908.908 0 0 0-.432-.375 1.532 1.532 0 0 0-.6-.101v.458c.187 0 .32.024.416.065.09.038.16.096.216.188.124.204.187.574.187 1.24h.467Zm0 7.445v-7.445h-.467v7.445h.467Zm-1.285 1.95c.219 0 .421-.027.598-.102a.914.914 0 0 0 .431-.375c.2-.326.256-.816.256-1.473h-.467c0 .662-.064 1.032-.19 1.237a.45.45 0 0 1-.216.19 1.063 1.063 0 0 1-.412.064v.46Zm2.402-.53c.686.177 1.126.25 1.605.25v-.46c-.423 0-.818-.06-1.486-.234l-.12.443Zm.055.007h.004v-.459h-.004v.459Zm-.233-10.02v9.79h.466v-9.79h-.466Zm1.736-.471c-.524 0-.926.077-1.565.25l.125.443c.62-.17.977-.235 1.44-.235v-.458ZM73.862 30c0-1.566-.4-2.905-1.133-3.86-.737-.958-1.804-1.515-3.096-1.515v.458c1.14 0 2.072.486 2.724 1.334.657.855 1.038 2.088 1.038 3.583h.467ZM69.68 35.36c1.263 0 2.318-.554 3.05-1.508.729-.95 1.132-2.284 1.132-3.851h-.467c0 1.494-.385 2.724-1.037 3.574-.648.845-1.568 1.326-2.678 1.326v.459Zm10.096-4.89 3.378 5.371.397-.241-3.377-5.372-.398.241Zm-.823.108h1.022v-.459h-1.022v.459Zm.233 3.108v-3.337h-.467v3.337h.467Zm.819 1.491c-.19 0-.324-.023-.42-.064a.437.437 0 0 1-.215-.188c-.124-.204-.184-.573-.184-1.24h-.467c0 .658.053 1.149.25 1.474a.9.9 0 0 0 .43.376c.178.075.383.1.606.1v-.458Zm.374 0h-.374v.459h.374v-.459Zm.234.544v-.314h-.467v.314h.467Zm-4.497.229h4.263v-.459h-4.263v.459Zm-.233-.543v.314h.466v-.314h-.466Zm.608-.23h-.375v.459h.375v-.459Zm.819-1.491c0 .662-.065 1.032-.19 1.237a.447.447 0 0 1-.216.19 1.057 1.057 0 0 1-.413.064v.459c.22 0 .422-.027.599-.103a.914.914 0 0 0 .43-.374c.2-.326.256-.816.256-1.473h-.466Zm0-7.445v7.445h.466V26.24h-.466Zm-.819-1.492c.188 0 .32.023.417.063.09.037.159.094.215.184.123.202.187.571.187 1.245h.466c0-.666-.055-1.158-.254-1.482a.902.902 0 0 0-.433-.37 1.56 1.56 0 0 0-.598-.098v.458Zm-.375 0h.375v-.458h-.375v.458Zm-.233-.543v.314h.466v-.314h-.466Zm3.853-.23h-3.62v.46h3.62v-.46Zm2.101.183c-.675-.166-.923-.182-2.1-.182v.458c1.165 0 1.368.017 1.988.17l.112-.446Zm1.386.788a3.105 3.105 0 0 0-1.382-.787l-.12.443a2.64 2.64 0 0 1 1.174.67l.328-.326Zm.895 2.215c0-.873-.307-1.627-.893-2.213l-.333.322c.496.495.76 1.131.76 1.891h.466Zm-2.622 3.178c.832-.219 1.492-.602 1.942-1.145.453-.545.68-1.233.68-2.033h-.466c0 .712-.201 1.292-.575 1.743-.375.452-.94.792-1.701.992l.12.443Zm2.183 2.963-2.044-3.304-.399.238 2.045 3.304.398-.238Zm1.12 1.42c-.313-.251-.64-.674-1.121-1.424l-.395.245c.48.75.843 1.231 1.221 1.534l.295-.356Zm1.246.452c-.566-.064-.928-.21-1.25-.456l-.286.362c.4.307.849.478 1.484.55l.052-.456Zm.207.541v-.314h-.467v.314h.467Zm-2.891.23h2.658v-.459h-2.658v.459Zm.096-.02.009-.004-.21-.41-.007.003.208.41Zm-4.142-6.347c-.09 0-.171 0-.34-.016l-.044.457c.188.018.286.018.384.018v-.459Zm2.68-2.293c-.006.748-.253 1.311-.69 1.69-.44.382-1.103.603-1.99.603v.459c.96 0 1.748-.24 2.3-.718.554-.482.84-1.18.846-2.03l-.466-.004Zm-1.93-2.202c.592 0 1.067.215 1.396.584.333.373.534.923.534 1.62h.466c0-.782-.226-1.448-.649-1.922-.425-.477-1.032-.74-1.748-.74v.458Zm-1.06.15c.532-.12.781-.15 1.06-.15v-.458c-.327 0-.615.037-1.164.16l.104.447Zm.18 4.558V25.01h-.466v4.782h.467Zm9.798-.173h2.194v-.459h-2.194v.459Zm-.16-.396-.005.005.33.324.005-.005-.33-.324Zm-.069-4.393v4.555h.466V24.83h-.466Zm2.968-.23h-2.735v.46h2.735v-.46Zm2.138 1.93c-.118-.718-.272-1.229-.62-1.542-.353-.319-.855-.387-1.518-.387v.458c.662 0 .994.078 1.204.267.215.194.354.553.474 1.278l.46-.073Zm.03.15-.031-.155-.458.085.03.155.458-.085Zm.055-.187h-.285v.459h.285v-.459Zm-.37-2.28.137 2.522.466-.025-.136-2.52-.466.024Zm-7.411.218h7.645v-.459h-7.645v.46Zm.233.085v-.314h-.467v.314h.467Zm.111-.23h-.344v.46h.344v-.46Zm1.316 1.917c0-.347-.013-.637-.05-.876a1.517 1.517 0 0 0-.2-.605c-.229-.356-.611-.436-1.066-.436v.46c.42 0 .578.076.672.221.056.087.102.22.134.426.03.207.043.47.043.81h.466Zm0 7.479v-7.479h-.467v7.479h.466Zm-1.298 1.95c.448 0 .817-.106 1.041-.468.201-.325.257-.817.257-1.483h-.467c0 .675-.064 1.043-.188 1.244-.101.163-.265.248-.643.248v.459Zm-.362 0h.362v-.459h-.362v.459Zm.233.085v-.315h-.467v.315h.467Zm7.441-.23h-7.674v.459h7.674v-.459Zm.615-2.723-.839 2.89.449.125.839-2.889-.449-.126Zm-.06.293h.285v-.46h-.286v.46Zm-.639 1.368c.196-.262.317-.43.435-.64.117-.206.23-.45.416-.865l-.426-.186c-.188.42-.292.644-.397.829a5.247 5.247 0 0 1-.404.59l.376.272Zm-2.262.893c.597 0 1.027-.038 1.377-.174.361-.141.614-.377.881-.714l-.368-.282c-.244.307-.434.471-.685.57-.262.101-.614.141-1.205.141v.459Zm-1.683 0h1.683v-.459h-1.683v.459Zm-1.059-1.515c0 .295.004.534.025.723.02.186.057.353.143.486a.619.619 0 0 0 .388.264c.145.036.317.042.503.042v-.459a1.73 1.73 0 0 1-.387-.028c-.068-.017-.093-.039-.11-.066-.027-.041-.055-.121-.073-.287a6.9 6.9 0 0 1-.022-.675h-.467Zm0-3.79v3.79h.467v-3.79h-.467Zm2.427-.229h-2.194v.459h2.194v-.459Zm1.777 1.753c-.073-.63-.186-1.094-.477-1.386-.302-.3-.74-.367-1.3-.367v.459c.552 0 .811.074.967.23.167.167.272.477.347 1.116l.463-.052Zm.013.128c-.01-.045-.01-.074-.01-.102h-.467c0 .039 0 .11.023.207l.454-.105Zm.041-.177h-.268v.459h.268v-.459Zm-.233-3.786v4.016h.466v-4.016h-.466Zm-.035.23h.268v-.46h-.268v.46Zm-1.563 1.687c.59 0 1.056-.095 1.364-.429.3-.324.402-.822.432-1.478l-.466-.02c-.03.65-.133.997-.31 1.19-.17.182-.457.278-1.02.278v.459Zm12.641 3.103-6.052-8.642-.384.26 6.052 8.643.384-.26Zm-.162-.099h-.029v.459h.029v-.459Zm-.233-6.416v6.645h.466v-6.645h-.466Zm-.832-1.458c.382 0 .545.083.645.24.123.194.187.552.187 1.218h.466c0-.657-.055-1.142-.258-1.461-.226-.356-.595-.455-1.04-.455v.458Zm-.345 0h.345v-.458h-.345v.458Zm-.233-.543v.314h.467v-.314h-.467Zm3.705-.23h-3.472v.46h3.472v-.46Zm.233.544v-.314h-.466v.314h.466Zm-.595.23h.362v-.46h-.362v.46Zm-.819 1.457c0-.326.014-.583.045-.787.032-.205.08-.34.137-.433.096-.155.255-.238.637-.238v-.458c-.445 0-.813.099-1.035.457a1.577 1.577 0 0 0-.2.603c-.036.237-.051.52-.051.856h.467Zm0 9.706v-9.706h-.467v9.706h.467Zm-.502.23h.268v-.46h-.268v.46Zm-6.708-9.387 6.516 9.287.384-.26-6.516-9.287-.384.26Zm.162.1h.03v-.46h-.03v.46Zm.233 6.867v-7.097h-.466v7.097h.466Zm.82 1.458c-.379 0-.54-.085-.638-.244-.121-.198-.182-.558-.182-1.214h-.466c0 .647.052 1.13.25 1.451.22.36.586.466 1.035.466v-.459Zm.361 0h-.362v.46h.362v-.46Zm.233.544v-.314h-.467v.314h.467Zm-3.704.23h3.471v-.46h-3.472v.46Zm-.234-.544v.314h.467v-.314h-.467Zm.579-.23h-.346v.46h.346v-.46Zm.831-1.458c0 .657-.064 1.017-.188 1.213-.1.16-.265.245-.643.245v.46c.447 0 .815-.106 1.04-.463.202-.32.258-.805.258-1.455h-.467Zm0-8.001v8.001h.466v-8.001h-.466Zm-1.538-.973c.284 0 .522.07.764.234.249.17.508.444.818.872l.38-.266c-.322-.444-.618-.77-.933-.983a1.758 1.758 0 0 0-1.03-.315v.458Zm-.18 0h.18v-.458h-.18v.458Zm-.233-.543v.314h.467v-.314h-.467Zm2.921-.23h-2.687v.46h2.687v-.46Zm.161.396.004-.004-.33-.324-.004.004.33.324Zm17.161 2.535v-.005h-.467v.005h.467Zm-.467.005v.004l.466-.018v-.005l-.466.019Zm-.035.22h.268v-.459h-.268v.459Zm-.249-.34.017.138.464-.055-.018-.138-.463.055Zm-1.57-1.624c.518 0 .861.125 1.095.361.24.243.403.64.475 1.261l.463-.052c-.076-.664-.259-1.18-.604-1.529-.351-.355-.835-.5-1.429-.5v.459Zm-1.41 0h1.41v-.459h-1.41v.459Zm.234 8.555V24.94h-.467v8.784h.467Zm.831 1.458c-.377 0-.543-.085-.644-.246-.124-.198-.187-.557-.187-1.212h-.467c0 .648.056 1.132.257 1.453.225.357.593.464 1.041.464v-.459Zm.345 0h-.345v.46h.345v-.46Zm.233.544v-.314h-.466v.314h.466Zm-4.454.23h4.221v-.46h-4.221v.46Zm-.233-.544v.314h.467v-.314h-.467Zm.578-.23h-.345v.46h.345v-.46Zm.832-1.458c0 .657-.064 1.017-.187 1.213-.102.16-.266.245-.645.245v.46c.448 0 .816-.106 1.041-.463.202-.32.258-.805.258-1.455h-.467Zm0-8.784v8.784h.467V24.94h-.467Zm-.968.229h1.201v-.459h-1.201v.459Zm-1.397.523c.15-.228.281-.345.461-.415.196-.076.472-.108.936-.108v-.459c-.469 0-.823.03-1.108.14-.299.117-.499.315-.681.593l.392.249Zm-.338 1.232c.041-.568.141-.914.341-1.237l-.398-.239c-.252.406-.364.83-.408 1.443l.465.033Zm-.505.213h.272v-.459h-.272v.459Zm-.127-2.935-.106 2.697.466.018.106-2.697-.466-.018Zm8.36-.22h-8.127v.458h8.127v-.458Zm.339 2.912-.106-2.692-.466.018.106 2.693.466-.019Zm7.669-.648v3.304h.467v-3.304h-.467Zm-.832-1.492c.378 0 .542.085.643.248.125.202.189.57.189 1.244h.467c0-.666-.056-1.158-.257-1.482-.225-.363-.593-.468-1.042-.468v.458Zm-.361 0h.361v-.458h-.361v.458Zm-.234-.543v.314h.467v-.314h-.467Zm4.484-.23h-4.25v.46h4.25v-.46Zm.233.544v-.314h-.466v.314h.466Zm-.578.23h.345v-.46h-.345v.46Zm-.848 1.491c0-.674.064-1.041.191-1.242.103-.164.271-.25.657-.25v-.458c-.453 0-.825.104-1.054.466-.204.325-.261.818-.261 1.484h.467Zm0 7.445v-7.445h-.467v7.445h.467Zm.848 1.491c-.388 0-.556-.086-.658-.249-.127-.2-.19-.568-.19-1.242h-.467c0 .665.056 1.159.26 1.483.227.363.6.467 1.055.467v-.459Zm.345 0h-.345v.46h.345v-.46Zm.233.544v-.314h-.466v.314h.466Zm-4.483.23h4.25v-.46h-4.25v.46Zm-.234-.544v.314h.467v-.314h-.467Zm.595-.23h-.361v.46h.361v-.46Zm.832-1.491c0 .674-.064 1.042-.189 1.243-.101.163-.265.248-.643.248v.46c.449 0 .817-.106 1.042-.469.201-.324.257-.816.257-1.482h-.467Zm0-3.513v3.513h.467v-3.513h-.467Zm-4.392.23h4.625v-.46h-4.625v.46Zm.233 3.283v-3.513h-.466v3.513h.466Zm.831 1.491c-.378 0-.542-.085-.643-.248-.124-.2-.188-.57-.188-1.243h-.466c0 .666.055 1.158.256 1.482.225.363.593.468 1.041.468v-.459Zm.363 0h-.363v.46h.363v-.46Zm.233.544v-.314h-.467v.314h.467Zm-4.484.23h4.251v-.46h-4.251v.46Zm-.234-.544v.314h.467v-.314h-.467Zm.579-.23h-.345v.46h.345v-.46Zm.849-1.491c0 .674-.065 1.041-.192 1.242-.103.164-.271.25-.657.25v.458c.453 0 .826-.105 1.054-.466.205-.325.261-.818.261-1.484h-.466Zm0-7.445v7.445h.466v-7.445h-.466Zm-.849-1.492c.386 0 .554.086.657.25.127.2.192.568.192 1.242h.466c0-.666-.056-1.159-.261-1.484-.228-.361-.601-.466-1.054-.466v.458Zm-.345 0h.345v-.458h-.345v.458Zm-.234-.543v.314h.467v-.314h-.467Zm4.485-.23h-4.251v.46h4.251v-.46Zm.233.544v-.314h-.467v.314h.467Zm-.596.23h.363v-.46h-.363v.46Zm-.831 1.491c0-.674.064-1.042.188-1.244.101-.163.265-.248.643-.248v-.458c-.448 0-.816.105-1.041.468-.201.324-.256.816-.256 1.482h.466Zm0 3.304v-3.304h-.466v3.304h.466Zm4.392-.23h-4.625v.46h4.625v-.46Zm6.772.3h2.194v-.459h-2.194v.459Zm-.16-.396-.004.004.329.325.005-.004-.33-.325Zm-.068-4.393v4.555h.466V24.83h-.466Zm2.967-.23h-2.734v.46h2.734v-.46Zm2.138 1.93c-.118-.719-.273-1.23-.621-1.542-.354-.319-.856-.387-1.517-.387v.458c.659 0 .992.078 1.202.267.217.195.356.553.476 1.278l.46-.073Zm.029.15-.029-.155-.459.085.03.155.458-.085Zm.056-.187h-.285v.459h.285v-.459Zm-.369-2.28.136 2.522.466-.025-.136-2.52-.466.024Zm-7.412.218h7.645v-.459h-7.645v.46Zm.233.085v-.314h-.467v.314h.467Zm.112-.23h-.345v.46h.345v-.46Zm1.315 1.917c0-.347-.013-.637-.049-.876a1.52 1.52 0 0 0-.201-.605c-.229-.356-.611-.436-1.065-.436v.46c.419 0 .578.076.671.221.056.087.102.22.134.426.031.207.044.47.044.81h.466Zm0 7.479v-7.479h-.466v7.479h.466Zm-1.298 1.95c.448 0 .817-.106 1.041-.468.201-.325.257-.817.257-1.483h-.466c0 .675-.065 1.043-.189 1.244-.101.163-.265.248-.643.248v.459Zm-.362 0h.362v-.459h-.362v.459Zm.233.085v-.315h-.467v.315h.467Zm7.442-.23h-7.675v.459h7.675v-.459Zm.614-2.723-.839 2.89.449.125.839-2.889-.449-.126Zm-.061.293h.286v-.46h-.286v.46Zm-.638 1.368c.196-.262.317-.43.435-.64.118-.206.23-.45.417-.865l-.427-.186c-.188.42-.292.644-.397.829a5.28 5.28 0 0 1-.404.59l.376.272Zm-2.262.893c.597 0 1.027-.038 1.377-.174.361-.141.614-.377.882-.714l-.369-.282c-.244.307-.434.471-.685.57-.262.101-.614.141-1.205.141v.459Zm-1.682 0h1.682v-.459H130.4v.459Zm-1.06-1.515c0 .295.005.534.025.723.02.186.058.353.143.486a.623.623 0 0 0 .389.264c.144.036.316.042.503.042v-.459c-.189 0-.307-.007-.388-.028-.068-.017-.092-.039-.11-.066-.027-.041-.055-.121-.073-.287a6.978 6.978 0 0 1-.022-.675h-.467Zm0-3.79v3.79h.467v-3.79h-.467Zm2.427-.229h-2.194v.459h2.194v-.459Zm1.778 1.753c-.074-.63-.187-1.094-.478-1.386-.302-.3-.741-.367-1.3-.367v.459c.552 0 .812.074.968.23.166.167.271.477.346 1.116l.464-.052Zm.012.128c-.011-.045-.011-.074-.011-.102h-.466c0 .039 0 .11.023.207l.454-.105Zm.041-.177h-.268v.459h.268v-.459Zm-.233-3.786v4.016h.467v-4.016h-.467Zm-.035.23h.268v-.46h-.268v.46Zm-1.563 1.687c.591 0 1.056-.095 1.365-.429.299-.324.401-.822.431-1.478l-.466-.02c-.03.65-.132.997-.311 1.19-.169.182-.456.278-1.019.278v.459Z" fill="#008486"/><path fill-rule="evenodd" clip-rule="evenodd" d="m6.389 14.592-.145-2.382h-.158c-.008.192-.034.318-.076.385-.047.067-.098.1-.158.1s-.179-.037-.362-.117a5.27 5.27 0 0 0-.826-.297 2.795 2.795 0 0 0-.648-.067c-.651 0-1.214.163-1.695.486-.575.39-1.022.946-1.346 1.67a4.581 4.581 0 0 0-.413 1.914c0 .917.247 1.725.737 2.428.652.934 1.601 1.403 2.858 1.403.438 0 .839-.054 1.197-.163.357-.11.72-.277 1.09-.507V17.13c0-.406.03-.674.09-.813.093-.192.264-.289.515-.289h.123v-.209H4.668v.21c.255 0 .439.029.545.092.102.062.183.15.23.268.047.117.072.364.072.74v2.174a2.568 2.568 0 0 1-.651.31c-.226.07-.46.104-.703.104-.409 0-.81-.138-1.201-.414-.392-.272-.711-.708-.95-1.302-.243-.59-.362-1.248-.362-1.968 0-.884.179-1.65.541-2.29.426-.759 1.052-1.14 1.878-1.14.61 0 1.103.214 1.487.65.272.3.49.745.66 1.34h.175Zm11.163 1.173V12.792h1.789c.32 0 .545.03.673.084.162.08.285.192.366.339.081.15.153.422.222.82h.187l-.068-1.662h-5.018v.21h.23c.265 0 .46.075.576.221.08.113.123.406.123.88v4.92c0 .368-.017.61-.055.728a.449.449 0 0 1-.21.268.786.786 0 0 1-.434.13h-.23v.21h5.022l.566-1.898h-.212c-.205.461-.41.809-.61 1.039-.157.176-.315.293-.48.352-.167.058-.431.087-.802.087H18.09c-.18 0-.303-.02-.367-.062a.334.334 0 0 1-.132-.172c-.025-.075-.038-.276-.038-.611v-2.492h1.422c.273 0 .473.038.605.113a.633.633 0 0 1 .281.306c.047.105.09.34.137.708h.174v-2.63h-.174c-.017.427-.111.725-.281.892-.124.13-.37.193-.742.193h-1.422Zm16.202 4.174-2.53-6.364v5.054c0 .464.043.75.132.866.12.155.307.235.566.235h.235v.21h-2.292v-.21h.235c.276 0 .477-.096.596-.289.068-.117.102-.39.102-.812v-4.945c0-.331-.034-.574-.098-.72a.535.535 0 0 0-.247-.269c-.123-.07-.32-.108-.588-.108v-.21h1.874l2.36 5.9 2.334-5.9h1.844v.21h-.23c-.28 0-.481.096-.596.289-.072.117-.107.389-.107.812v4.945c0 .465.047.75.137.867.119.154.306.234.566.234h.23v.21h-2.781v-.21h.234c.281 0 .477-.096.588-.289.072-.117.107-.39.107-.812v-5.054l-2.518 6.364h-.161l.008-.004Zm14.98-4.174V12.792h1.788c.32 0 .546.03.673.084.162.08.286.192.367.339.08.15.153.422.221.82h.188l-.069-1.662h-5.017v.21h.23c.264 0 .46.075.575.221.081.113.124.406.124.88v4.92c0 .368-.017.61-.056.728a.45.45 0 0 1-.209.268.786.786 0 0 1-.434.13h-.23v.21h5.022l.566-1.898h-.213c-.204.461-.409.809-.609 1.039-.157.176-.315.293-.481.352-.166.058-.43.087-.8.087h-1.1c-.179 0-.302-.02-.366-.062a.333.333 0 0 1-.132-.172c-.026-.075-.038-.276-.038-.611v-2.492h1.422c.273 0 .473.038.605.113a.633.633 0 0 1 .281.306c.047.105.09.34.136.708h.175v-2.63h-.175c-.017.427-.11.725-.28.892-.124.13-.371.193-.742.193h-1.422Zm14.217-2.97v2.97h1.423c.37 0 .617-.063.74-.193.17-.167.264-.465.282-.892h.174v2.63h-.174c-.047-.369-.09-.603-.137-.708a.635.635 0 0 0-.28-.306c-.133-.075-.333-.113-.605-.113H62.95v2.492c0 .335.013.536.038.611.026.071.068.13.132.172.064.042.188.063.367.063h1.098c.37 0 .635-.03.801-.088.166-.059.324-.176.481-.352.2-.23.405-.578.61-1.039h.212l-.566 1.897h-5.022v-.21h.23a.787.787 0 0 0 .435-.129.45.45 0 0 0 .208-.268c.039-.117.056-.36.056-.729v-4.92c0-.473-.043-.766-.123-.879-.116-.146-.312-.222-.576-.222h-.23v-.209h5.017l.069 1.662H66c-.067-.398-.14-.67-.22-.82a.818.818 0 0 0-.367-.34c-.128-.054-.354-.083-.673-.083h-1.79v.004Zm13.795-.418h-1.754v.21c.187 0 .328.016.417.05.188.071.332.15.43.23.098.084.243.251.43.507v5.259c0 .423-.034.695-.102.812-.12.193-.32.29-.6.29h-.23v.208h2.287v-.209h-.235c-.255 0-.442-.08-.566-.234-.09-.118-.132-.402-.132-.867v-4.66l4.323 6.092h.175v-6.377c0-.423.034-.695.102-.813.12-.192.32-.288.596-.288h.234v-.21h-2.287v.21h.23c.26 0 .447.08.567.234.09.117.136.406.136.867v4.346l-4.02-5.657Zm19.388 0 .069 1.767h-.184c-.034-.31-.08-.536-.14-.67a1.106 1.106 0 0 0-.4-.477c-.163-.1-.384-.155-.652-.155h-.916v5.782c0 .465.043.75.132.867.128.155.32.235.575.235h.226v.21h-2.782v-.21h.235c.276 0 .477-.097.596-.29.068-.116.102-.389.102-.812v-5.782h-.783c-.307 0-.524.025-.656.08a.945.945 0 0 0-.43.406c-.12.2-.192.473-.213.812h-.183l.067-1.767h5.337v.004Zm10.572 3.388v-2.97l-.004-.003h1.788c.32 0 .546.03.673.084.162.08.286.192.366.339.081.15.154.422.222.82h.187l-.068-1.662h-5.017v.21h.23c.264 0 .46.075.575.221.081.113.123.406.123.88v4.92c0 .368-.017.61-.055.728a.449.449 0 0 1-.209.268.784.784 0 0 1-.434.13h-.23v.21h5.022l.566-1.898h-.213c-.204.461-.409.809-.609 1.039-.157.176-.315.293-.481.352-.167.058-.43.087-.801.087h-1.099c-.179 0-.302-.02-.366-.062a.33.33 0 0 1-.132-.172c-.026-.075-.038-.276-.038-.611v-2.492h1.422c.272 0 .473.038.605.113a.645.645 0 0 1 .285.306c.047.105.089.34.136.708h.175v-2.63h-.175c-.016.427-.11.725-.281.892-.123.13-.37.193-.741.193h-1.422Z" fill="#008486"/><path d="m6.244 12.21.153-.01-.009-.14h-.144v.15Zm.145 2.382v.151h.162l-.01-.16-.152.01Zm-.303-2.382v-.15H5.94l-.006.143.153.007Zm-.076.385.126.086.004-.006-.13-.08Zm-1.346-.314-.037.146h.001l.036-.146ZM2.32 12.7l-.086-.125.086.125ZM.975 14.37l.14.062-.14-.062Zm5.469 5.075.082.128.071-.045v-.083h-.153Zm.09-3.128-.139-.065-.003.007.141.058Zm.638-.288v.15h.154v-.15h-.154Zm0-.21h.154v-.15h-.154v.15Zm-2.504 0v-.15h-.153v.15h.153Zm0 .21h-.153v.15h.153v-.15Zm.545.092.081-.128-.002-.002-.079.13Zm.303 3.182.085.125.068-.045v-.08h-.153Zm-2.556 0 .09-.123h-.002l-.088.123Zm-.95-1.302.143-.056L2.01 18Zm3.544-4.749-.116.1h.001l.115-.1Zm.66 1.34-.148.041.032.11h.116v-.15Zm11.338 1.173h-.153v.15h.153v-.15Zm0-2.973v-.15h-.153v.15h.153Zm2.462.084.069-.135-.008-.004-.061.139Zm.366.339.136-.07-.001-.002-.135.072Zm.222.82-.152.025.022.126h.13v-.15Zm.187 0v.151h.16l-.007-.157-.153.006Zm-.068-1.662.153-.006-.006-.145h-.147v.151Zm-5.018 0v-.15h-.153v.15h.153Zm0 .21h-.153v.15h.153v-.15Zm.806.221.125-.086-.004-.006-.121.092Zm.068 6.528-.146-.046v.002l.146.044Zm-.209.268-.077-.13-.007.004.084.126Zm-.664.13v-.15h-.154v.15h.153Zm0 .21h-.154v.15h.153v-.15Zm5.021 0v.15h.115l.032-.108-.147-.043Zm.567-1.897.147.042.058-.193h-.205v.15Zm-.213 0v-.151h-.1l-.04.09.14.06Zm-.61 1.038.116.1.001-.002-.116-.098Zm-2.879.205-.145.048v.002l.145-.05Zm-.038-3.103v-.15h-.153v.15h.153Zm2.308.42-.14.057v.003l.14-.06Zm.137.707-.152.018.016.133h.136v-.151Zm.174 0v.15h.154v-.15h-.154Zm0-2.63h.154v-.15h-.154v.15Zm-.174 0v-.15h-.148l-.006.144.154.006Zm-.281.892-.109-.106-.003.003.112.103Zm11.508-1.997.143-.055-.296.055h.153Zm2.53 6.364.069.135.125-.061-.051-.129-.143.055Zm-2.398-.443-.123.09.123-.09Zm.8.234h.154v-.15h-.153v.15Zm0 .21v.15h.154v-.15h-.153Zm-2.29 0h-.154v.15h.153v-.15Zm0-.21v-.15h-.154v.15h.153Zm.83-.289.131.079.002-.004-.133-.075Zm.004-6.477-.143.054.002.005.141-.06Zm-.835-.377h-.153v.15h.153v-.15Zm0-.21v-.15h-.153v.15h.153Zm1.875 0 .142-.055-.038-.095h-.105v.15Zm2.359 5.9-.143.055.144.36.142-.36-.143-.055Zm2.334-5.9v-.15h-.105l-.038.096.143.054Zm1.844 0h.154v-.15h-.154v.15Zm0 .21v.15h.154v-.15h-.154Zm-.826.289.131.078.001-.002-.132-.076Zm.03 6.624-.123.09.123-.09Zm.796.234h.154v-.15h-.154v.15Zm0 .21v.15h.154v-.15h-.154Zm-2.781 0h-.153v.15h.153v-.15Zm0-.21v-.15h-.153v.15h.153Zm.822-.289-.131-.078-.002.004.133.074Zm.107-5.866h.153l-.296-.055.143.055Zm-2.518 6.365v.15h.105l.038-.096-.143-.054Zm-.161 0-.07-.135.07.285v-.15Zm14.988-4.18h-.154v.152h.154v-.151Zm0-2.972v-.15h-.154v.15h.154Zm2.462.084.068-.135-.008-.004-.06.139Zm.366.339.135-.07v-.002l-.135.072Zm.221.82-.151.025.022.126h.13v-.15Zm.188 0v.151h.16l-.007-.157-.153.006Zm-.068-1.662.153-.006-.006-.145h-.147v.151Zm-5.018 0v-.15h-.153v.15h.153Zm0 .21h-.153v.15h.153v-.15Zm.805.221.126-.086-.004-.006-.122.092Zm.068 6.528-.146-.046v.002l.146.044Zm-.208.268-.078-.13-.007.004.085.126Zm-.665.13v-.15h-.153v.15h.153Zm0 .21h-.153v.15h.153v-.15Zm5.022 0v.15h.115l.032-.108-.147-.043Zm.566-1.897.147.042.058-.193h-.205v.15Zm-.213 0v-.151h-.1l-.04.09.14.06Zm-.609 1.038.115.1.002-.002-.117-.098Zm-2.879.205-.145.048v.002l.145-.05Zm-.038-3.103v-.15h-.154v.15h.154Zm2.308.42-.141.057v.003l.141-.06Zm.136.707-.152.018.017.133h.135v-.151Zm.175 0v.15h.153v-.15h-.153Zm0-2.63h.153v-.15h-.153v.15Zm-.175 0v-.15h-.147l-.006.144.153.006Zm-.28.892-.11-.106-.003.003.112.103Zm12.053.193h-.153v.15h.153v-.15Zm2.164-.193-.109-.106-.004.003.113.103Zm.28-.892v-.15h-.147l-.006.144.154.006Zm.175 0h.154v-.15h-.154v.15Zm0 2.63v.15h.154v-.15h-.154Zm-.174 0-.153.018.017.133h.136v-.151Zm-.137-.708-.141.058v.003l.141-.06Zm-2.308-.419v-.15h-.153v.15h.153Zm.038 3.103-.146.048.002.002.144-.05Zm2.88-.205.115.1.001-.002-.117-.098Zm.609-1.038v-.151h-.1l-.041.09.14.06Zm.212 0 .148.042.058-.193h-.206v.15Zm-.566 1.896v.151h.115l.032-.108-.147-.043Zm-5.022 0h-.153v.151h.153v-.15Zm0-.209v-.15h-.153v.15h.153Zm.665-.13-.078-.13-.006.004.084.126Zm.208-.268-.146-.046v.002l.146.044Zm-.067-6.528.125-.086-.004-.006-.121.092Zm-.806-.222h-.153v.151h.153v-.15Zm0-.209v-.15h-.153v.15h.153Zm5.017 0 .154-.006-.006-.145h-.148v.151Zm.069 1.662v.151h.16l-.007-.157-.153.006Zm-.188 0-.15.025.021.126h.13v-.15Zm-.22-.82.135-.07-.002-.002-.134.072Zm-.367-.34.068-.134-.007-.004-.061.139Zm-2.462-.083v-.15h-.153v.15h.153Zm12.04-.415v-.15h-.153v.15h.154Zm1.755 0 .126-.086-.045-.064h-.08v.15Zm-1.754.21h-.154v.15h.154v-.15Zm.417.05.055-.14-.055.14Zm.43.23.101-.114-.003-.002-.098.116Zm.43.507h.154v-.049l-.03-.04-.124.089Zm-.102 6.071.131.079.002-.004-.133-.075Zm-.83.29v-.152h-.154v.151h.153Zm0 .209h-.154v.15h.153v-.15Zm2.287 0v.15h.153v-.15h-.153Zm0-.21h.153v-.15h-.153v.15Zm-.801-.234-.123.09.003.003.12-.093Zm-.132-5.527.126-.087-.28-.393v.48h.154Zm4.323 6.092-.125.086.045.065h.08v-.151Zm.175 0v.15h.153v-.15h-.153Zm.102-7.19-.131-.078-.002.004.133.075Zm.83-.288v.15h.154v-.15h-.153Zm0-.21h.154v-.15h-.153v.15Zm-2.287 0v-.15h-.153v.15h.153Zm0 .21h-.153v.15h.153v-.15Zm.797.234.123-.09h-.001l-.122.09Zm.136 5.213-.126.087.28.392v-.479h-.154Zm15.436-3.89v.151h.159l-.006-.156-.153.005Zm-.069-1.767h-.153v.006l.153-.006Zm-.115 1.767-.152.017.015.134h.137v-.15Zm-.14-.67.14-.06-.001-.004-.14.064Zm-.4-.477.082-.127-.083.127Zm-1.568-.155v-.15h-.153v.15h.153Zm.132 6.65-.123.09.004.004.12-.095Zm.801.234h.153v-.15h-.153v.15Zm0 .21v.15h.153v-.15h-.153Zm-2.782 0h-.153v.15h.153v-.15Zm0-.21v-.15h-.153v.15h.153Zm.83-.29.132.08.002-.004-.133-.075Zm.103-6.594h.154v-.15h-.154v.15Zm-1.44.08-.059-.14-.001.001.06.139Zm-.642 1.218v.15h.144l.009-.14-.153-.01Zm-.183 0-.154-.006-.006.157h.16v-.15Zm.067-1.767v-.15h-.147l-.006.144.153.006Zm5.337 0h.154v-.15h-.154v.15Zm10.572.423h.153v-.062l-.045-.044-.108.106Zm0 2.969h-.154v.15h.154v-.15Zm-.004-2.973v-.15h-.37l.261.256.109-.106Zm2.461.084.069-.135-.008-.004-.061.139Zm.366.339.136-.07-.001-.002-.135.072Zm.222.82-.151.025.021.126h.13v-.15Zm.187 0v.151h.16l-.006-.157-.154.006Zm-.068-1.662.153-.006-.005-.145h-.148v.151Zm-5.017 0v-.15h-.153v.15h.153Zm0 .21h-.153v.15h.153v-.15Zm.805.221.126-.086-.005-.006-.121.092Zm.068 6.528-.146-.046v.002l.146.044Zm-.209.268-.077-.13-.007.004.084.126Zm-.664.13v-.15h-.153v.15h.153Zm0 .21h-.153v.15h.153v-.15Zm5.022 0v.15h.114l.033-.108-.147-.043Zm.566-1.897.147.042.058-.193h-.205v.15Zm-.213 0v-.151h-.101l-.04.09.141.06Zm-.609 1.038.115.1.001-.002-.116-.098Zm-2.879.205-.146.048.001.002.145-.05Zm-.038-3.103v-.15h-.154v.15h.154Zm2.312.42-.141.057.001.003.14-.06Zm.136.707-.152.018.017.133h.135v-.151Zm.175 0v.15h.153v-.15h-.153Zm0-2.63h.153v-.15h-.153v.15Zm-.175 0v-.15h-.147l-.006.144.153.006Zm-.281.892-.108-.106-.003.003.111.103ZM6.091 12.22l.145 2.382.306-.018-.145-2.382-.306.018Zm-.005.142h.158v-.302h-.158v.302Zm.054.314a.58.58 0 0 0 .071-.196 1.77 1.77 0 0 0 .028-.263l-.306-.013a1.47 1.47 0 0 1-.023.218.3.3 0 0 1-.03.094l.26.16Zm-.288.171c.13 0 .222-.077.284-.165l-.253-.171a.129.129 0 0 1-.031.034l-.002.001h.002v.301Zm-.424-.13c.094.041.175.073.242.094.062.02.127.036.182.036v-.301s-.007 0-.024-.004a.674.674 0 0 1-.063-.018 2.406 2.406 0 0 1-.213-.083l-.124.276Zm-.8-.288c.183.043.445.135.8.288l.124-.276a5.412 5.412 0 0 0-.853-.306l-.071.294Zm-.612-.063c.23 0 .435.02.611.063l.073-.293a2.944 2.944 0 0 0-.684-.072v.302Zm-1.609.46c.454-.304.985-.46 1.61-.46v-.302c-.68 0-1.273.171-1.782.512l.172.25ZM1.116 14.43c.314-.703.744-1.236 1.292-1.607l-.174-.248c-.602.407-1.066.988-1.4 1.734l.282.121Zm-.4 1.853c0-.645.131-1.26.4-1.852l-.28-.123a4.73 4.73 0 0 0-.427 1.975h.306Zm.71 2.343c-.472-.676-.71-1.454-.71-2.343H.408c0 .945.255 1.784.763 2.514l.253-.17Zm2.73 1.338c-1.21 0-2.11-.449-2.73-1.338l-.254.17c.683.98 1.683 1.47 2.985 1.47v-.302Zm1.152-.157c-.34.104-.725.157-1.151.157v.301c.451 0 .867-.056 1.242-.17l-.09-.288Zm1.054-.49a4.46 4.46 0 0 1-1.054.49l.091.288a4.765 4.765 0 0 0 1.127-.523l-.164-.255Zm-.071-2.188v2.315h.306V17.13h-.306Zm.101-.871c-.038.089-.063.208-.078.348a4.89 4.89 0 0 0-.023.523h.306c0-.2.008-.363.022-.49a.983.983 0 0 1 .056-.264l-.283-.117Zm.657-.381a.793.793 0 0 0-.393.092.634.634 0 0 0-.261.282l.277.13a.33.33 0 0 1 .136-.15.485.485 0 0 1 .24-.053v-.301Zm.123 0H7.05v.301h.123v-.301Zm-.153-.059v.21h.307v-.21h-.307Zm-2.351.151h2.504v-.302H4.668v.302Zm.153.059v-.21h-.306v.21h.306Zm.471-.038c-.145-.085-.366-.113-.624-.113v.301c.253 0 .399.031.466.071l.158-.259Zm.294.343a.703.703 0 0 0-.292-.341l-.162.255a.4.4 0 0 1 .168.196l.286-.11Zm.083.796c0-.191-.007-.353-.02-.483a1.209 1.209 0 0 0-.063-.313l-.286.11a.947.947 0 0 1 .044.233c.012.117.018.267.018.453h.307Zm0 2.173V17.13h-.307v2.173h.307Zm-.758.453c.238-.075.469-.181.69-.328l-.171-.25c-.196.13-.4.224-.613.291l.094.287Zm-.75.112c.257 0 .508-.035.75-.112l-.094-.287c-.21.066-.428.098-.656.098v.301Zm-1.29-.443c.413.292.844.443 1.29.443v-.301c-.371 0-.741-.125-1.112-.387l-.178.245Zm-1.003-1.369c.245.613.58 1.076 1.003 1.37l.177-.246c-.36-.25-.664-.658-.895-1.235l-.285.111Zm-.373-2.023c0 .736.122 1.413.373 2.024l.284-.113c-.234-.57-.35-1.207-.35-1.911h-.307Zm.56-2.364c-.377.668-.56 1.46-.56 2.364h.307c0-.864.174-1.604.521-2.217l-.268-.147Zm2.012-1.216c-.438 0-.83.101-1.17.307-.339.207-.619.512-.842.91l.268.146c.203-.361.45-.625.736-.799.286-.174.62-.263 1.008-.263v-.301Zm1.603.7c-.414-.47-.952-.7-1.603-.7v.301c.568 0 1.018.197 1.37.597l.233-.197Zm.692 1.399c-.174-.606-.4-1.074-.694-1.4l-.229.2c.251.278.46.698.627 1.281l.296-.081Zm.027-.11h-.175v.301h.175v-.301Zm11.01-1.646v2.969h.306v-2.969H17.4Zm0-.004v.004h.306v-.004H17.4Zm1.942-.15h-1.789v.3h1.789v-.3Zm.734.095c-.16-.068-.413-.096-.734-.096v.302c.317 0 .515.03.612.071l.122-.277Zm.44.406a.969.969 0 0 0-.433-.402l-.137.27c.137.067.236.159.3.276l.27-.144Zm.238.867c-.068-.397-.144-.691-.237-.866l-.271.141c.068.127.137.377.205.775l.303-.05Zm.036-.125h-.187v.301h.187v-.301Zm-.221-1.506.068 1.663.306-.013-.068-1.662-.306.012Zm-4.865.145h5.018v-.302h-5.018v.302Zm.154.059v-.21h-.307v.21h.307Zm.077-.151h-.23v.301h.23v-.301Zm.696.28c-.155-.197-.405-.28-.696-.28v.301c.237 0 .378.067.453.163l.243-.184Zm.155.972c0-.24-.01-.44-.032-.596-.022-.15-.056-.282-.119-.37l-.25.173a.624.624 0 0 1 .065.239c.02.137.03.32.03.554h.306Zm0 4.92v-4.92h-.306v4.92h.306Zm-.062.774c.025-.076.04-.181.049-.305.01-.126.013-.283.013-.47h-.306c0 .183-.005.332-.013.448-.01.12-.022.194-.035.235l.292.092Zm-.278.352a.6.6 0 0 0 .278-.353l-.293-.09a.298.298 0 0 1-.14.183l.155.26Zm-.511.15a.94.94 0 0 0 .518-.154l-.168-.252a.631.631 0 0 1-.35.105v.302Zm-.23 0h.23v-.3h-.23v.3Zm.153.06v-.21h-.307v.21h.307Zm4.868-.151h-5.022v.301h5.022v-.301Zm.42-1.789-.567 1.897.294.085.567-1.897-.295-.085Zm-.066.193h.213v-.301h-.213v.301Zm-.493.986c.214-.246.426-.61.633-1.076l-.28-.12c-.203.454-.4.786-.586 1l.233.196Zm-.546.396c.199-.07.377-.207.545-.394l-.23-.2c-.148.165-.285.263-.419.31l.104.284Zm-.852.096c.373 0 .66-.028.852-.096l-.104-.284c-.14.05-.38.079-.748.079v.301Zm-1.1 0h1.1v-.301h-1.1v.301Zm-.45-.088a.526.526 0 0 0 .198.07c.073.013.158.018.253.018v-.301c-.084 0-.15-.005-.2-.014a.24.24 0 0 1-.081-.024l-.17.251Zm-.192-.247a.484.484 0 0 0 .191.247l.17-.25a.181.181 0 0 1-.072-.097l-.29.1Zm-.047-.661c0 .169.003.306.01.412.006.1.016.188.036.247l.29-.096a.857.857 0 0 1-.02-.17 6.576 6.576 0 0 1-.01-.393H17.4Zm0-2.492v2.492h.306v-2.492H17.4Zm1.576-.15h-1.423v.301h1.423v-.301Zm.681.133c-.167-.095-.4-.133-.681-.133v.301c.263 0 .43.038.527.093l.154-.26Zm.346.378a.785.785 0 0 0-.346-.378l-.154.26c.107.062.176.138.217.235l.283-.117Zm.147.747a7.972 7.972 0 0 0-.07-.462 1.386 1.386 0 0 0-.078-.288l-.28.122c.015.035.035.105.057.222.021.113.043.26.067.443l.304-.037Zm.022-.132h-.174v.302h.174v-.302Zm-.153-2.479v2.63h.307v-2.63h-.307Zm-.021.151h.174v-.301h-.174v.301Zm-.173.848c.213-.21.309-.555.326-.993l-.306-.012c-.017.417-.109.665-.237.792l.217.213Zm-.85.237c.194 0 .362-.017.503-.053a.723.723 0 0 0 .35-.188l-.223-.206a.423.423 0 0 1-.205.102 1.737 1.737 0 0 1-.424.043v.302Zm-1.422 0h1.423v-.302h-1.423v.302Zm13.53-2.286 2.53 6.364.285-.11-2.53-6.364-.286.11Zm.296 4.999v-5.054h-.307v5.054h.306Zm.1.776c-.02-.027-.049-.096-.07-.235a3.775 3.775 0 0 1-.03-.541h-.307c0 .236.01.431.034.586.022.148.06.28.128.371l.246-.18Zm.445.174c-.227 0-.362-.067-.445-.174l-.244.181c.156.203.395.295.689.295v-.302Zm.234 0h-.234v.302h.234v-.302Zm.153.36v-.209h-.307v.21h.307Zm-2.445.151h2.292v-.301h-2.292v.301Zm-.153-.36v.21h.307v-.21h-.307Zm.388-.15h-.235v.3h.235v-.3Zm.465-.217c-.085.137-.229.216-.465.216v.302c.316 0 .573-.114.727-.361l-.262-.157Zm.08-.734c0 .208-.009.375-.025.502a.705.705 0 0 1-.057.235l.266.15a.955.955 0 0 0 .096-.348c.018-.144.026-.325.026-.54h-.306Zm0-4.945v4.945h.306v-4.945h-.306Zm-.086-.661c.051.117.086.334.086.66h.306c0-.334-.033-.603-.11-.779l-.282.119Zm-.183-.197c.1.057.153.12.18.192l.287-.109a.686.686 0 0 0-.312-.344l-.155.26Zm-.51-.088c.26 0 .422.037.51.088l.155-.26c-.16-.092-.389-.13-.666-.13v.302Zm-.154-.36v.209h.307v-.21h-.307Zm2.027-.151h-1.874v.301h1.875v-.301Zm2.503 5.995-2.36-5.9-.285.11 2.36 5.9.285-.11Zm2.048-5.9-2.334 5.9.286.11 2.334-5.9-.286-.11Zm1.987-.095h-1.844v.301h1.844v-.301Zm.154.36v-.21h-.307v.21h.307Zm-.384.15h.23v-.301h-.23v.302Zm-.464.215c.08-.135.222-.214.464-.214v-.302c-.32 0-.579.113-.728.363l.264.153Zm-.085.736c0-.208.008-.375.025-.502a.66.66 0 0 1 .06-.232l-.263-.157a.912.912 0 0 0-.102.351 4.328 4.328 0 0 0-.027.54h.307Zm0 4.945v-4.945h-.307v4.945h.307Zm.105.776a.579.579 0 0 1-.072-.236 3.572 3.572 0 0 1-.033-.54h-.307c0 .236.012.432.037.587.023.15.062.28.13.37l.245-.18Zm.444.174c-.226 0-.361-.067-.444-.174l-.244.182c.156.203.395.294.688.294v-.302Zm.23 0h-.23v.302h.23v-.302Zm.154.36v-.209h-.307v.21h.307Zm-2.935.151h2.781v-.301h-2.781v.301Zm-.153-.36v.21h.306v-.21h-.306Zm.387-.15h-.234v.301h.234v-.302Zm.455-.213c-.077.133-.213.212-.455.212v.302c.32 0 .577-.113.722-.366l-.267-.148Zm.086-.738c0 .208-.008.375-.025.502a.654.654 0 0 1-.06.232l.263.157a.914.914 0 0 0 .102-.351c.018-.145.027-.325.027-.54h-.307Zm0-5.054v5.054h.307v-5.054h-.307ZM34.051 20l2.517-6.365-.286-.11-2.518 6.365.286.11Zm-.306.095h.162v-.301h-.161v.301Zm-.06-.29-.008.005.137.27.009-.005-.138-.27Zm14.895-7.008v2.969h.307v-2.969h-.307Zm0-.004v.004h.307v-.004h-.307Zm1.943-.15h-1.79v.3h1.79v-.3Zm.733.095c-.159-.068-.412-.096-.733-.096v.302c.317 0 .515.03.611.071l.123-.277Zm.44.406a.969.969 0 0 0-.432-.402l-.137.27c.136.067.235.159.3.276l.27-.144Zm.239.867c-.069-.397-.144-.691-.238-.866l-.27.141c.067.127.137.377.205.775l.303-.05Zm.036-.125h-.188v.301h.188v-.301Zm-.222-1.506.068 1.663.307-.013-.068-1.662-.307.012Zm-4.864.145h5.018v-.302h-5.018v.302Zm.154.059v-.21h-.307v.21h.306Zm.076-.151h-.23v.301h.23v-.301Zm.697.28c-.155-.197-.406-.28-.697-.28v.301c.237 0 .378.067.454.163l.243-.184Zm.155.972c0-.24-.01-.44-.033-.596-.021-.15-.055-.282-.118-.37l-.251.173a.625.625 0 0 1 .065.239c.02.137.03.32.03.554h.307Zm0 4.92v-4.92h-.307v4.92h.307Zm-.063.774c.025-.076.04-.181.05-.305.009-.126.013-.283.013-.47h-.307c0 .183-.004.332-.013.448-.008.12-.021.194-.035.235l.292.092Zm-.277.352a.6.6 0 0 0 .278-.353l-.293-.09a.298.298 0 0 1-.14.183l.155.26Zm-.512.15a.94.94 0 0 0 .519-.154l-.169-.252a.63.63 0 0 1-.35.105v.302Zm-.23 0h.23v-.3h-.23v.3Zm.154.06v-.21h-.307v.21h.306Zm4.868-.151h-5.022v.301h5.022v-.301Zm.42-1.789-.567 1.897.294.085.566-1.897-.294-.085Zm-.067.193h.213v-.301h-.213v.301Zm-.492.986c.214-.246.426-.61.633-1.076l-.281-.12c-.202.454-.4.786-.585 1l.233.196Zm-.546.396c.198-.07.376-.207.544-.394l-.23-.2c-.147.165-.284.263-.418.31l.104.284Zm-.853.096c.374 0 .66-.028.853-.096l-.104-.284c-.14.05-.381.079-.749.079v.301Zm-1.099 0h1.1v-.301h-1.1v.301Zm-.451-.088a.526.526 0 0 0 .199.07c.073.013.158.018.252.018v-.301c-.084 0-.15-.005-.2-.014a.24.24 0 0 1-.08-.024l-.171.251Zm-.192-.247a.484.484 0 0 0 .192.247l.17-.25a.182.182 0 0 1-.072-.097l-.29.1Zm-.047-.661c0 .169.004.306.01.412.006.1.017.188.036.247l.291-.096a.861.861 0 0 1-.02-.17 6.59 6.59 0 0 1-.01-.393h-.307Zm0-2.492v2.492h.307v-2.492h-.307Zm1.576-.15h-1.422v.301h1.422v-.301Zm.682.133c-.167-.095-.4-.133-.682-.133v.301c.264 0 .431.038.528.093l.154-.26Zm.346.378a.785.785 0 0 0-.346-.378l-.154.26c.106.062.176.138.217.235l.283-.117Zm.147.747a7.897 7.897 0 0 0-.07-.462 1.386 1.386 0 0 0-.079-.288l-.28.122c.015.035.035.105.058.222.021.113.043.26.066.443l.305-.037Zm.022-.132h-.175v.302h.175v-.302ZM51.2 14.68v2.63h.306v-2.63H51.2Zm-.022.151h.175v-.301h-.175v.301Zm-.172.848c.212-.21.308-.555.326-.993l-.307-.012c-.016.417-.108.665-.236.792l.217.213Zm-.85.237c.193 0 .362-.017.502-.053a.723.723 0 0 0 .351-.188l-.224-.206a.423.423 0 0 1-.205.102 1.737 1.737 0 0 1-.424.043v.302Zm-1.422 0h1.422v-.302h-1.422v.302Zm14.37-.151v-2.969h-.306v2.969h.306Zm1.27-.151H62.95v.302h1.423v-.302Zm.628-.145a.422.422 0 0 1-.204.102 1.74 1.74 0 0 1-.424.043v.302c.193 0 .36-.017.501-.053a.723.723 0 0 0 .352-.188l-.225-.206Zm.24-.795c-.017.417-.108.665-.236.792l.217.213c.213-.21.308-.555.326-.993l-.307-.012Zm.328-.144h-.174v.301h.174v-.301Zm.154 2.78v-2.63h-.307v2.63h.307Zm-.328.15h.174v-.3h-.174v.3Zm-.277-.797c.016.035.036.105.058.222.021.113.043.26.066.443l.305-.037a7.638 7.638 0 0 0-.07-.462 1.42 1.42 0 0 0-.078-.288l-.281.122Zm-.218-.236a.48.48 0 0 1 .217.233l.283-.116a.785.785 0 0 0-.346-.378l-.154.26Zm-.527-.093c.263 0 .43.038.527.093l.154-.26c-.167-.096-.4-.134-.681-.134v.301Zm-1.423 0h1.423v-.301H62.95v.301Zm.153 2.34v-2.49h-.306v2.49h.306Zm.031.564a.829.829 0 0 1-.022-.17 6.59 6.59 0 0 1-.009-.393h-.306c0 .169.003.306.01.412.006.1.016.188.035.247l.292-.096Zm.072.094a.182.182 0 0 1-.073-.096l-.29.1a.482.482 0 0 0 .192.247l.17-.25Zm.28.038c-.084 0-.15-.005-.2-.014a.234.234 0 0 1-.08-.024l-.17.251a.524.524 0 0 0 .198.07c.073.013.158.018.253.018v-.301Zm1.1 0h-1.1v.301h1.1v-.301Zm.748-.08c-.14.05-.38.08-.749.08v.301c.374 0 .66-.028.853-.096l-.104-.284Zm.418-.309c-.147.165-.284.263-.418.31l.104.284c.198-.07.377-.207.545-.394l-.23-.2Zm.584-.999c-.202.455-.399.787-.585 1.001l.233.196c.215-.246.426-.61.633-1.076l-.281-.12Zm.353-.09h-.212v.301h.212v-.301Zm-.419 2.09.567-1.897-.294-.085-.567 1.897.294.085Zm-5.169.108h5.022v-.301h-5.022v.301Zm-.153-.36v.21h.307v-.21h-.307Zm.383-.15h-.23v.3h.23v-.3Zm.35-.106a.63.63 0 0 1-.35.105v.302a.94.94 0 0 0 .519-.155l-.168-.252Zm.147-.186a.297.297 0 0 1-.14.182l.155.26c.139-.08.23-.2.278-.353l-.293-.09Zm.048-.684c0 .182-.004.33-.013.447-.008.12-.021.194-.035.235l.292.092c.026-.076.04-.181.05-.305.01-.126.013-.283.013-.47h-.307Zm0-4.92v4.92h.307v-4.92h-.307Zm-.095-.793a.62.62 0 0 1 .066.239c.019.137.03.32.03.554h.306c0-.24-.01-.44-.033-.596-.02-.15-.055-.282-.118-.37l-.251.173Zm-.45-.158c.237 0 .378.067.454.163l.243-.184c-.155-.197-.406-.28-.697-.28v.301Zm-.23 0h.23v-.301h-.23v.301Zm-.153-.36v.21h.307v-.21h-.307Zm5.17-.15h-5.017v.3h5.017v-.3Zm.222 1.806-.068-1.662-.306.012.067 1.663.307-.013Zm-.34.157h.187v-.301H66v.301Zm-.358-.9c.068.126.138.376.206.774l.302-.05c-.067-.397-.142-.691-.236-.866l-.272.141Zm-.3-.275c.138.067.237.159.301.276l.27-.144a.97.97 0 0 0-.433-.402l-.137.27Zm-.603-.068c.317 0 .515.03.612.071l.122-.277c-.16-.068-.413-.096-.734-.096v.302Zm-1.79 0h1.79v-.302h-1.79v.302Zm.154-.147v-.004h-.306v.004h.306Zm11.888-.268h1.754v-.301h-1.754v.301Zm.153.059v-.21h-.307v.21h.307Zm.319-.09a1.42 1.42 0 0 0-.472-.061v.302c.183 0 .3.017.362.04l.11-.282Zm.473.254a1.73 1.73 0 0 0-.473-.255l-.11.282c.178.067.306.14.388.205l.195-.232Zm.457.535c-.188-.257-.342-.437-.454-.533l-.201.228c.083.072.22.227.406.481l.249-.176Zm.029 5.347v-5.26h-.307v5.26h.307Zm-.123.887a.954.954 0 0 0 .096-.348c.018-.144.027-.324.027-.539h-.307c0 .208-.008.375-.024.502a.692.692 0 0 1-.058.235l.266.15Zm-.733.365c.32 0 .578-.113.731-.361l-.262-.157c-.085.137-.228.216-.47.216v.302Zm-.23 0h.23v-.302h-.23v.302Zm.153.059v-.21h-.307v.21h.307Zm2.134-.151h-2.287v.301h2.287v-.301Zm-.154-.059v.21h.307v-.21h-.307Zm-.08.151h.234v-.302h-.235v.302Zm-.687-.292c.159.2.397.292.686.292v-.302c-.22 0-.358-.066-.445-.176l-.241.186Zm-.166-.96c0 .236.011.431.035.586.022.149.06.281.128.371l.246-.18a.572.572 0 0 1-.07-.236 3.744 3.744 0 0 1-.032-.541h-.307Zm0-4.66v4.66h.307v-4.66h-.307Zm4.603 6.006-4.323-6.093-.252.173 4.324 6.092.251-.172Zm.049-.065h-.175v.302h.175v-.302Zm-.154-6.226v6.377h.307v-6.377h-.307Zm.123-.887a.966.966 0 0 0-.096.348 4.534 4.534 0 0 0-.027.539h.307c0-.208.008-.375.024-.502a.692.692 0 0 1 .058-.236l-.266-.15Zm.73-.365c-.318 0-.575.113-.728.361l.262.157c.085-.137.229-.216.465-.216v-.302Zm.234 0h-.235v.302h.235v-.302Zm-.154-.059v.21h.307v-.21h-.307Zm-2.134.151h2.288v-.301h-2.288v.301Zm.154.059v-.21h-.307v.21h.307Zm.076-.151h-.23v.302h.23v-.302Zm.689.294c-.156-.203-.395-.294-.689-.294v.302c.227 0 .362.067.444.174l.245-.182Zm.168.958c0-.234-.013-.43-.037-.585-.024-.15-.062-.283-.13-.372l-.246.181c.021.028.05.098.073.237.02.134.033.313.033.539h.307Zm0 4.346v-4.346h-.307v4.346h.307Zm-4.3-5.57 4.02 5.657.252-.173-4.02-5.657-.252.173Zm19.735 1.675-.068-1.767-.307.011.068 1.767.307-.011Zm-.337.156h.184v-.301h-.184v.301Zm-.28-.76c.049.111.094.317.128.626l.305-.033c-.035-.311-.083-.557-.153-.714l-.28.12Zm-.343-.411c.136.086.25.22.344.415l.278-.129a1.258 1.258 0 0 0-.457-.54l-.165.254Zm-.57-.131c.25 0 .44.05.57.131l.164-.254c-.193-.12-.445-.179-.733-.179v.302Zm-.915 0h.916v-.302h-.916v.302Zm.153 5.632v-5.783h-.306v5.783h.306Zm.102.776c-.021-.027-.05-.096-.071-.235a3.758 3.758 0 0 1-.03-.541h-.307c0 .235.01.431.034.585.022.15.06.282.129.372l.245-.181Zm.452.174c-.22 0-.364-.067-.456-.179l-.238.19c.164.199.404.29.694.29v-.3Zm.226 0h-.226v.302h.226v-.302Zm.153.36v-.21h-.306v.21h.306Zm-2.935.151h2.782v-.302h-2.782v.302Zm-.153-.36v.21h.307v-.21h-.307Zm.388-.15h-.235v.3h.235v-.3Zm.465-.218c-.085.138-.229.217-.465.217v.302c.317 0 .574-.114.727-.362l-.262-.157Zm.08-.733c0 .208-.008.375-.024.502a.692.692 0 0 1-.058.235l.266.15a.964.964 0 0 0 .096-.348c.018-.144.027-.325.027-.54h-.307Zm0-5.783v5.783h.307v-5.783h-.307Zm-.63.15h.783v-.3h-.783v.3Zm-.597.069c.101-.042.29-.068.597-.068v-.302c-.308 0-.553.024-.716.092l.119.278Zm-.357.343c.107-.18.23-.289.359-.344l-.122-.277c-.203.087-.37.247-.502.469l.265.152Zm-.192.745c.02-.325.089-.571.192-.745l-.265-.152c-.135.228-.212.526-.234.879l.307.018Zm-.336.142h.183v-.302h-.183v.302Zm-.086-1.924-.068 1.767.306.012.069-1.767-.306-.012Zm5.49-.145h-5.337v.302h5.337v-.302Zm.154.155v-.004h-.307v.004h.307Zm10.264.42v2.968h.307v-2.969h-.307Zm.041.101.004.005.217-.213-.004-.005-.217.213Zm1.897-.257h-1.788v.302h1.788v-.302Zm.734.096c-.159-.068-.412-.096-.734-.096v.302c.318 0 .516.03.612.071l.122-.277Zm.44.406a.966.966 0 0 0-.432-.402l-.137.27a.67.67 0 0 1 .3.276l.269-.144Zm.238.867c-.068-.397-.143-.691-.237-.866l-.271.141c.068.127.137.377.206.775l.302-.05Zm.036-.125h-.187v.301h.187v-.301Zm-.221-1.506.068 1.663.307-.013-.069-1.662-.306.012Zm-4.864.145h5.017v-.302h-5.017v.302Zm.153.059v-.21h-.306v.21h.306Zm.077-.151h-.23v.301h.23v-.301Zm.696.28c-.154-.197-.405-.28-.696-.28v.301c.237 0 .378.067.453.163l.243-.184Zm.156.972c0-.24-.011-.44-.033-.596a.879.879 0 0 0-.118-.37l-.251.173c.018.025.045.095.065.239.02.137.03.32.03.554h.307Zm0 4.92v-4.92h-.307v4.92h.307Zm-.063.774c.025-.076.04-.181.049-.305.009-.126.014-.283.014-.47h-.307c0 .183-.004.332-.013.448-.009.12-.022.194-.035.235l.292.092Zm-.278.352c.14-.08.23-.2.278-.353l-.292-.09a.3.3 0 0 1-.14.183l.154.26Zm-.511.15c.183 0 .358-.05.519-.154l-.169-.252a.63.63 0 0 1-.35.105v.302Zm-.23 0h.23v-.3h-.23v.3Zm.153.06v-.21h-.306v.21h.306Zm4.869-.151h-5.022v.301h5.022v-.301Zm.419-1.789-.567 1.897.295.085.566-1.897-.294-.085Zm-.066.193h.213v-.301h-.213v.301Zm-.493.986c.215-.246.426-.61.633-1.076l-.281-.12c-.201.454-.399.786-.585 1l.233.196Zm-.545.396c.198-.07.376-.207.544-.394l-.23-.2c-.147.165-.285.263-.418.31l.104.284Zm-.853.096c.373 0 .66-.028.853-.096l-.104-.284c-.14.05-.381.079-.749.079v.301Zm-1.099 0h1.099v-.301h-1.099v.301Zm-.451-.088a.52.52 0 0 0 .199.07c.073.013.158.018.252.018v-.301c-.084 0-.151-.005-.2-.014a.242.242 0 0 1-.081-.024l-.17.251Zm-.192-.247a.485.485 0 0 0 .192.247l.17-.25a.18.18 0 0 1-.072-.097l-.29.1Zm-.047-.661c0 .169.003.306.01.412.006.1.017.188.036.247l.291-.096a.887.887 0 0 1-.021-.17 6.708 6.708 0 0 1-.009-.393h-.307Zm0-2.492v2.492h.307v-2.492h-.307Zm1.576-.15h-1.422v.301h1.422v-.301Zm.682.133c-.167-.095-.4-.133-.682-.133v.301c.264 0 .431.038.528.093l.154-.26Zm.35.378a.795.795 0 0 0-.35-.378l-.154.26c.108.063.18.14.221.235l.283-.117Zm.147.747a8.482 8.482 0 0 0-.07-.462 1.422 1.422 0 0 0-.078-.288l-.281.122c.015.035.035.105.057.222.022.113.044.26.067.443l.305-.037Zm.022-.132h-.175v.302h.175v-.302Zm-.153-2.479v2.63h.306v-2.63h-.306Zm-.022.151h.175v-.301h-.175v.301Zm-.172.848c.212-.21.308-.555.326-.993l-.307-.012c-.016.417-.108.665-.236.792l.217.213Zm-.85.237c.193 0 .362-.017.503-.053a.725.725 0 0 0 .35-.188l-.223-.206a.426.426 0 0 1-.206.102 1.732 1.732 0 0 1-.424.043v.302Zm-1.422 0h1.422v-.302h-1.422v.302Z" fill="#008486"/></g><defs><clipPath id="a"><path fill="#fff" d="M0 0h172v40H0z"/></clipPath></defs></svg>