<svg width="59" height="58" fill="none" xmlns="http://www.w3.org/2000/svg"><rect x=".5" width="58" height="58" rx="8" fill="#F7F9FC"/><path d="M43.167 25H26.5a2.336 2.336 0 00-2.333 2.333v15.334A2.336 2.336 0 0026.5 45h16.667a2.336 2.336 0 002.333-2.333V27.333A2.336 2.336 0 0043.167 25z" fill="#305DFC"/><path d="M43.167 13H15.833a2.336 2.336 0 00-2.333 2.333v3.334A2.336 2.336 0 0015.833 21h27.334a2.336 2.336 0 002.333-2.333v-3.334A2.336 2.336 0 0043.167 13zM17.5 33a4 4 0 100-8 4 4 0 000 8zM17.5 45a4 4 0 100-8 4 4 0 000 8z" fill="#2E3242"/></svg>