<svg width="59" height="58" fill="none" xmlns="http://www.w3.org/2000/svg"><rect x=".5" width="58" height="58" rx="8" fill="#F7F9FC"/><path d="M27 13c-3.812 0-1.187 1.531-4.481 2.923-3.294 1.391-2.638-1.446-5.146 1.095-2.509 2.54.329 1.838-1.012 5.141s-2.891.835-2.86 4.341c-.031 3.506 1.519 1.038 2.86 4.34 1.34 3.304-1.497 2.602 1.011 5.142 2.509 2.54 1.853-.296 5.147 1.095 3.294 1.392.67 2.923 4.48 2.923 3.812 0 1.187-1.532 4.48-2.923 3.295-1.391 2.639 1.446 5.147-1.095 2.509-2.54-.329-1.838 1.012-5.141s2.891-.835 2.86-4.341c.031-3.506-1.519-1.038-2.86-4.34-1.34-3.304 1.497-2.602-1.012-5.142-2.508-2.54-1.852.296-5.146-1.095C28.186 14.53 30.81 13 27 13z" fill="#092DAA"/><path d="M26.999 13c-.405 0-.724.021-.999.054 2.306.274.536 1.626 3.48 2.869 1.399.59 2.076.418 2.595.22a6.597 6.597 0 01-.596-.22C28.187 14.53 30.81 13 27 13z" fill="#092DAA"/><path d="M34.984 15.918c-.425-.04-.741.202-1.238.332.246.171.53.413.88.768 2.509 2.54-.33 1.839 1.012 5.141 1.34 3.303 2.89.835 2.86 4.341.03 3.507-1.52 1.038-2.86 4.341-1.341 3.303 1.497 2.601-1.012 5.142a6.41 6.41 0 01-.88.767c.944.247 1.225.909 2.88-.767 2.509-2.54-.33-1.84 1.012-5.142 1.34-3.303 2.89-.834 2.86-4.34.03-3.507-1.52-1.039-2.86-4.342-1.341-3.302 1.497-2.6-1.012-5.141-.784-.794-1.259-1.063-1.642-1.1z" fill="#021C78"/><path d="M30.963 36.676c-.387.027-.866.14-1.483.4-2.944 1.244-1.174 2.596-3.48 2.87.275.033.594.054.999.054 3.811 0 1.187-1.532 4.48-2.923.216-.091.413-.162.596-.22a2.418 2.418 0 00-1.112-.18z" fill="#092DAA"/><path d="M34.438 26.5a7.438 7.438 0 11-14.876 0 7.438 7.438 0 0114.875 0z" fill="#fff"/><path d="M27 20.5a6.5 6.5 0 00-2.296.422A3 3 0 0024.5 22a3 3 0 105.957-.494A6.5 6.5 0 0027 20.5z" fill="#E6ECFF"/><path d="M27.5 24c-2.77 0-5 2.23-5 5v1.645a6.5 6.5 0 004.763 2.345 6.5 6.5 0 005.236-3.04V29c0-2.77-2.23-5-5-5z" fill="#E6ECFF"/><path d="M27 23.714a5.702 5.702 0 00-5.715 5.715v1.88A7.428 7.428 0 0027 34c2.21 0 4.304-.985 5.715-2.685v-1.886a5.702 5.702 0 00-5.715-5.715z" fill="#315EFD"/><path d="M29.887 24.499c1.747 7.411-5.819 7.804-7.61 7.795A7.428 7.428 0 0027 34c2.209 0 4.303-.985 5.714-2.685v-1.886c0-2.11-1.136-3.94-2.827-4.93z" fill="#1C45D3"/><path d="M30.428 21.428a3.428 3.428 0 11-6.857 0 3.428 3.428 0 016.857 0z" fill="#C4D1FF"/><path d="M28.406 18.305c.201.442.306.923.308 1.41a3.428 3.428 0 01-3.429 3.428 3.427 3.427 0 01-1.406-.305A3.428 3.428 0 0027 24.857a3.428 3.428 0 003.429-3.428 3.428 3.428 0 00-2.022-3.124z" fill="#9CB8F8"/><path d="M25.9 20.276c-.28.288-.652.373-.83.19-.179-.184-.096-.567.184-.855.28-.289.653-.374.831-.19.179.183.096.566-.184.855zM26.547 19.306c-.111.074-.238.076-.284.003-.046-.072.007-.191.118-.265.11-.075.238-.076.283-.003.046.072-.007.191-.117.265z" fill="#fff"/><path d="M45.5 37a8 8 0 11-16 0 8 8 0 0116 0z" fill="#305DFC"/><path d="M33.194 36.383c-.82 0-.82 1.231 0 1.231h8.613c.821 0 .821-1.23 0-1.23h-8.613zM33.194 40.076c-.82 0-.82 1.231 0 1.231h8.613c.821 0 .821-1.23 0-1.23h-8.613zM33.194 32.692c-.82 0-.82 1.231 0 1.231h8.613c.821 0 .821-1.23 0-1.23h-8.613z" fill="#fff"/><path d="M39.954 31.454a.615.615 0 00-.609.623v2.462c0 .82 1.231.82 1.231 0v-2.462a.615.615 0 00-.622-.623zM35.03 35.143a.615.615 0 00-.61.627v2.462c0 .82 1.232.82 1.232 0V35.77a.616.616 0 00-.622-.627zM39.954 38.836a.615.615 0 00-.609.627v2.462c0 .82 1.231.82 1.231 0v-2.462a.615.615 0 00-.622-.627z" fill="#6892FF"/></svg>