<svg width="36" height="36" viewBox="0 0 36 36" fill="none" xmlns="http://www.w3.org/2000/svg">
<rect width="36" height="36" rx="18" fill="#002A95"/>
<g clip-path="url(#clip0_1896_22061)">
<path d="M25.198 12.4001H10.798C10.5859 12.4001 10.3824 12.4844 10.2324 12.6345C10.0823 12.7845 9.99805 12.988 9.99805 13.2001C9.99805 13.4123 10.0823 13.6158 10.2324 13.7658C10.3824 13.9159 10.5859 14.0001 10.798 14.0001H12.398V23.6001C12.3982 24.2366 12.6512 24.8469 13.1012 25.297C13.5512 25.747 14.1616 26 14.798 26.0001H21.198C21.8345 26 22.4449 25.7471 22.8949 25.297C23.345 24.847 23.5979 24.2366 23.598 23.6001V14.0001H25.198C25.4102 14.0001 25.6137 13.9159 25.7637 13.7658C25.9138 13.6158 25.998 13.4123 25.998 13.2001C25.998 12.988 25.9138 12.7845 25.7637 12.6345C25.6137 12.4844 25.4102 12.4001 25.198 12.4001ZM17.198 21.2001C17.198 21.4123 17.1138 21.6158 16.9637 21.7658C16.8137 21.9159 16.6102 22.0001 16.398 22.0001C16.1859 22.0001 15.9824 21.9159 15.8324 21.7658C15.6823 21.6158 15.598 21.4123 15.598 21.2001V17.2001C15.598 16.988 15.6823 16.7845 15.8324 16.6345C15.9824 16.4844 16.1859 16.4001 16.398 16.4001C16.6102 16.4001 16.8137 16.4844 16.9637 16.6345C17.1138 16.7845 17.198 16.988 17.198 17.2001V21.2001ZM20.398 21.2001C20.398 21.4123 20.3138 21.6158 20.1637 21.7658C20.0137 21.9159 19.8102 22.0001 19.598 22.0001C19.3859 22.0001 19.1824 21.9159 19.0324 21.7658C18.8823 21.6158 18.798 21.4123 18.798 21.2001V17.2001C18.798 16.988 18.8823 16.7845 19.0324 16.6345C19.1824 16.4844 19.3859 16.4001 19.598 16.4001C19.8102 16.4001 20.0137 16.4844 20.1637 16.6345C20.3138 16.7845 20.398 16.988 20.398 17.2001V21.2001Z" fill="white"/>
<path d="M16.3977 11.6H19.5977C19.8098 11.6 20.0133 11.5157 20.1633 11.3657C20.3134 11.2157 20.3977 11.0122 20.3977 10.8C20.3977 10.5878 20.3134 10.3843 20.1633 10.2343C20.0133 10.0843 19.8098 10 19.5977 10H16.3977C16.1855 10 15.982 10.0843 15.832 10.2343C15.6819 10.3843 15.5977 10.5878 15.5977 10.8C15.5977 11.0122 15.6819 11.2157 15.832 11.3657C15.982 11.5157 16.1855 11.6 16.3977 11.6Z" fill="white"/>
</g>
<defs>
<clipPath id="clip0_1896_22061">
<rect width="16" height="16" fill="white" transform="translate(10 10)"/>
</clipPath>
</defs>
</svg>
