<svg width="36" height="36" viewBox="0 0 36 36" fill="none" xmlns="http://www.w3.org/2000/svg">
<rect width="36" height="36" rx="18" fill="#002A95"/>
<g clip-path="url(#clip0_1896_20413)">
<path d="M18.3375 17.6776C18.3349 17.6749 18.3341 17.6712 18.3314 17.6685L15.6563 14.9934V13.3125C15.6563 13.1879 15.6069 13.0689 15.519 12.981L12.7065 10.1373C12.5728 10.0037 12.371 9.96292 12.1956 10.0357C12.0203 10.108 11.9063 10.2792 11.9063 10.4687V11.875H10.4688C10.2793 11.875 10.1081 11.9889 10.0358 12.1643C9.96303 12.3396 10.0033 12.541 10.1374 12.6751L12.9812 15.5189C13.0691 15.6068 13.1881 15.6562 13.3126 15.6562H14.9935L17.6686 18.3313C17.6713 18.334 17.675 18.3348 17.6777 18.3374C17.8602 18.5116 18.1374 18.5139 18.3224 18.3374C18.5171 18.1515 18.5127 17.8612 18.3375 17.6776Z" fill="white"/>
<path d="M17.9999 10C16.8005 10 15.6665 10.3052 14.6453 10.7818L16.0833 12.2197C16.6867 12.0191 17.33 11.9062 18 11.9062C21.3599 11.9062 24.0937 14.64 24.0937 17.9999C24.0937 21.3599 21.3599 24.0937 17.9999 24.0937C14.6399 24.0937 11.9062 21.3599 11.9062 17.9999C11.9062 17.3299 12.0191 16.6867 12.2197 16.0832L10.7818 14.6453C10.3052 15.6665 10 16.8005 10 17.9999C10 22.394 13.6059 25.9999 17.9999 25.9999C22.394 25.9999 25.9999 22.394 25.9999 17.9999C25.9999 13.6059 22.394 10 17.9999 10Z" fill="white"/>
<path d="M18 13.7812C17.5045 13.7812 17.0358 13.8828 16.5937 14.0404V14.6052L17.6774 15.6889C17.7838 15.674 17.8895 15.6563 18 15.6563C19.2923 15.6563 20.3437 16.7077 20.3437 18C20.3437 19.2923 19.2923 20.3438 18 20.3438C16.7077 20.3438 15.6562 19.2923 15.6562 18C15.6562 17.8895 15.674 17.7838 15.6888 17.6774L14.6052 16.5937H14.0404C13.8828 17.0357 13.7812 17.5045 13.7812 18C13.7812 20.3263 15.6737 22.2187 18 22.2187C20.3263 22.2187 22.2187 20.3263 22.2187 18C22.2187 15.6736 20.3263 13.7812 18 13.7812Z" fill="white"/>
</g>
<defs>
<clipPath id="clip0_1896_20413">
<rect width="16" height="16" fill="white" transform="translate(10 10)"/>
</clipPath>
</defs>
</svg>
