<svg width="36" height="36" viewBox="0 0 36 36" fill="none" xmlns="http://www.w3.org/2000/svg">
<rect width="36" height="36" rx="18" fill="#002A95"/>
<path d="M26.9476 24.2982C26.9468 24.2959 26.9461 24.2936 26.9453 24.2912L26.2303 22.1187V16.7988C26.2303 15.9265 25.5206 15.2168 24.6483 15.2168H20.0302V17.8053C20.0302 19.2592 18.8474 20.442 17.3935 20.442H17.0195V22.9862C17.0195 23.8585 17.7292 24.5682 18.6015 24.5682H23.9686L25.35 25.4875C25.5316 25.6104 25.737 25.6716 25.9419 25.6716C26.1616 25.6716 26.3809 25.6012 26.5698 25.461C26.9357 25.1895 27.084 24.7331 26.9476 24.2982ZM23.358 22.4248C23.0856 22.5277 22.7813 22.3901 22.6785 22.1176L22.4488 21.5091H20.8436L20.6113 22.1191C20.5311 22.3295 20.3309 22.4589 20.1183 22.4589C20.0559 22.4589 19.9925 22.4478 19.9307 22.4243C19.6586 22.3206 19.522 22.0159 19.6256 21.7437L21.0778 17.9308C21.0793 17.9268 21.0809 17.9228 21.0825 17.9188C21.1774 17.6869 21.4006 17.5369 21.6511 17.5367C21.9031 17.5354 22.1252 17.686 22.2205 17.9177C22.2224 17.9225 22.2243 17.9273 22.2261 17.9322L23.6651 21.7452C23.768 22.0177 23.6305 22.322 23.358 22.4248Z" fill="white"/>
<path d="M21.248 20.454H22.0536L21.6527 19.3916L21.248 20.454Z" fill="white"/>
<path d="M17.396 10.0005H11.3492C10.4768 10.0005 9.76716 10.7102 9.76716 11.5825V16.9377L9.05216 19.1104C9.05139 19.1127 9.05065 19.1151 9.04991 19.1175C8.91361 19.5522 9.06197 20.0085 9.42787 20.28C9.61676 20.4201 9.83599 20.4905 10.0557 20.4905C10.2606 20.4905 10.4658 20.4293 10.6473 20.3065L12.0289 19.3871H17.3959C18.2682 19.3871 18.9779 18.6774 18.9779 17.8051V11.5825C18.978 10.7102 18.2683 10.0005 17.396 10.0005ZM16.5735 17.0365C16.4705 17.1395 16.3356 17.191 16.2007 17.191C16.0657 17.191 15.9308 17.1395 15.8278 17.0365L15.5969 16.8056C15.2103 17.0587 14.7488 17.2065 14.2532 17.2065C12.8968 17.2065 11.7932 16.103 11.7932 14.7466C11.7932 13.3902 12.8968 12.2866 14.2532 12.2866C15.6096 12.2866 16.7131 13.3902 16.7131 14.7466C16.7131 15.2264 16.5745 15.6742 16.336 16.0531L16.5736 16.2907C16.7795 16.4967 16.7795 16.8306 16.5735 17.0365Z" fill="white"/>
<path d="M14.2549 13.3416C13.48 13.3416 12.8496 13.972 12.8496 14.7468C12.8496 15.5217 13.48 16.1521 14.2549 16.1521C14.4574 16.1521 14.6499 16.1087 14.8241 16.0312L14.593 15.8002C14.3871 15.5942 14.3871 15.2604 14.593 15.0544C14.799 14.8485 15.1328 14.8485 15.3388 15.0544L15.5575 15.2732C15.6235 15.1105 15.6602 14.9329 15.6602 14.7468C15.6602 13.9719 15.0298 13.3416 14.2549 13.3416Z" fill="white"/>
</svg>
