<svg width="36" height="36" viewBox="0 0 36 36" fill="none" xmlns="http://www.w3.org/2000/svg">
<rect width="36" height="36" rx="18" fill="#002A95"/>
<g clip-path="url(#clip0_1896_20402)">
<path d="M19.25 18H16.75C16.4599 18 16.1817 18.1152 15.9766 18.3204C15.7715 18.5255 15.6562 18.8037 15.6562 19.0938V21.5938C15.6562 21.8838 15.7715 22.162 15.9766 22.3671C16.1817 22.5723 16.4599 22.6875 16.75 22.6875H17.5312V24.0938C17.5312 24.2181 17.5806 24.3373 17.6685 24.4252C17.7565 24.5131 17.8757 24.5625 18 24.5625C18.1243 24.5625 18.2435 24.5131 18.3315 24.4252C18.4194 24.3373 18.4688 24.2181 18.4688 24.0938V22.6875H19.25C19.5401 22.6875 19.8183 22.5723 20.0234 22.3671C20.2285 22.162 20.3438 21.8838 20.3438 21.5938V19.0938C20.3438 18.8037 20.2285 18.5255 20.0234 18.3204C19.8183 18.1152 19.5401 18 19.25 18Z" fill="white"/>
<path d="M18.4688 11.9062C18.4688 11.7819 18.4194 11.6627 18.3315 11.5748C18.2435 11.4869 18.1243 11.4375 18 11.4375C17.8757 11.4375 17.7565 11.4869 17.6685 11.5748C17.5806 11.6627 17.5312 11.7819 17.5312 11.9062V17.0625H18.4688V11.9062Z" fill="white"/>
<path d="M13.5938 13.3125H12.8125V11.9062C12.8125 11.7819 12.7631 11.6627 12.6752 11.5748C12.5873 11.4869 12.4681 11.4375 12.3438 11.4375C12.2194 11.4375 12.1002 11.4869 12.0123 11.5748C11.9244 11.6627 11.875 11.7819 11.875 11.9062V13.3125H11.0938C10.8037 13.3125 10.5255 13.4277 10.3204 13.6329C10.1152 13.838 10 14.1162 10 14.4062V16.9062C10 17.1963 10.1152 17.4745 10.3204 17.6796C10.5255 17.8848 10.8037 18 11.0938 18H13.5938C13.8838 18 14.162 17.8848 14.3671 17.6796C14.5723 17.4745 14.6875 17.1963 14.6875 16.9062V14.4062C14.6875 14.1162 14.5723 13.838 14.3671 13.6329C14.162 13.4277 13.8838 13.3125 13.5938 13.3125Z" fill="white"/>
<path d="M11.875 24.0938C11.875 24.2181 11.9244 24.3373 12.0123 24.4252C12.1002 24.5131 12.2194 24.5625 12.3438 24.5625C12.4681 24.5625 12.5873 24.5131 12.6752 24.4252C12.7631 24.3373 12.8125 24.2181 12.8125 24.0938V18.9375H11.875V24.0938Z" fill="white"/>
<path d="M24.9062 15.6562H22.4062C21.8022 15.6562 21.3125 16.1459 21.3125 16.75V19.25C21.3125 19.8541 21.8022 20.3438 22.4062 20.3438H24.9062C25.5103 20.3438 26 19.8541 26 19.25V16.75C26 16.1459 25.5103 15.6562 24.9062 15.6562Z" fill="white"/>
<path d="M24.125 11.9062C24.125 11.7819 24.0756 11.6627 23.9877 11.5748C23.8998 11.4869 23.7806 11.4375 23.6562 11.4375C23.5319 11.4375 23.4127 11.4869 23.3248 11.5748C23.2369 11.6627 23.1875 11.7819 23.1875 11.9062V14.7188H24.125V11.9062Z" fill="white"/>
<path d="M23.1875 24.0938C23.1875 24.2181 23.2369 24.3373 23.3248 24.4252C23.4127 24.5131 23.5319 24.5625 23.6562 24.5625C23.7806 24.5625 23.8998 24.5131 23.9877 24.4252C24.0756 24.3373 24.125 24.2181 24.125 24.0938V21.2812H23.1875V24.0938Z" fill="white"/>
</g>
<defs>
<clipPath id="clip0_1896_20402">
<rect width="16" height="16" fill="white" transform="translate(10 10)"/>
</clipPath>
</defs>
</svg>
