<svg width="36" height="36" viewBox="0 0 36 36" fill="none" xmlns="http://www.w3.org/2000/svg">
<rect width="36" height="36" rx="18" fill="#002A95"/>
<g clip-path="url(#clip0_1896_22046)">
<path d="M24.5727 12.1081C23.4293 10.8047 20.9745 10.0051 18 10.0051C15.0255 10.0051 12.5707 10.8047 11.4273 12.1081C9.52424 14.315 9.52424 21.7033 11.4273 23.8942C12.5707 25.1975 15.0255 25.9971 18 25.9971C20.9745 25.9971 23.4293 25.1975 24.5727 23.8942C26.4758 21.6873 26.4758 14.315 24.5727 12.1081ZM18 22.3989C17.8419 22.3989 17.6873 22.352 17.5558 22.2642C17.4243 22.1763 17.3218 22.0514 17.2613 21.9053C17.2007 21.7592 17.1849 21.5984 17.2158 21.4433C17.2466 21.2882 17.3228 21.1458 17.4346 21.0339C17.5464 20.9221 17.6889 20.8459 17.844 20.8151C17.9991 20.7842 18.1599 20.8001 18.306 20.8606C18.4521 20.9211 18.577 21.0236 18.6648 21.1551C18.7527 21.2866 18.7996 21.4412 18.7996 21.5993C18.7996 21.8114 18.7154 22.0148 18.5654 22.1647C18.4154 22.3147 18.2121 22.3989 18 22.3989ZM18.7996 18.4969V19.2005C18.7996 19.4126 18.7154 19.616 18.5654 19.7659C18.4154 19.9159 18.2121 20.0001 18 20.0001C17.7879 20.0001 17.5846 19.9159 17.4346 19.7659C17.2846 19.616 17.2004 19.4126 17.2004 19.2005V18.4569C17.1961 18.1309 17.2974 17.8123 17.489 17.5486C17.6807 17.2849 17.9525 17.0902 18.2639 16.9936C18.4252 16.9448 18.5699 16.8522 18.6818 16.7261C18.7937 16.6 18.8685 16.4453 18.8977 16.2792C18.9269 16.1132 18.9096 15.9423 18.8475 15.7855C18.7854 15.6288 18.6811 15.4923 18.5461 15.3913C18.4111 15.2903 18.2508 15.2287 18.0828 15.2134C17.9149 15.198 17.7461 15.2296 17.595 15.3045C17.444 15.3794 17.3167 15.4947 17.2272 15.6376C17.1378 15.7805 17.0898 15.9455 17.0885 16.1141C17.0885 16.3261 17.0042 16.5295 16.8543 16.6795C16.7043 16.8294 16.5009 16.9137 16.2889 16.9137C16.0768 16.9137 15.8734 16.8294 15.7235 16.6795C15.5735 16.5295 15.4893 16.3261 15.4893 16.1141C15.5189 15.5264 15.7534 14.9677 16.152 14.5349C16.5506 14.1021 17.0882 13.8225 17.6714 13.7446C18.2546 13.6667 18.8467 13.7955 19.3449 14.1085C19.8431 14.4216 20.2159 14.8991 20.3988 15.4584C20.566 16.0732 20.4939 16.7286 20.1972 17.2924C19.9004 17.8562 19.401 18.2866 18.7996 18.4969Z" fill="white"/>
</g>
<defs>
<clipPath id="clip0_1896_22046">
<rect width="16" height="16" fill="white" transform="translate(10 10)"/>
</clipPath>
</defs>
</svg>
