<svg width="36" height="36" viewBox="0 0 36 36" fill="none" xmlns="http://www.w3.org/2000/svg">
<rect width="36" height="36" rx="18" fill="#002A95"/>
<g clip-path="url(#clip0_1896_22032)">
<path d="M17.9993 16H13.3327C12.9647 16 12.666 16.2987 12.666 16.6667V17.6667C12.666 18.0347 12.9647 18.3333 13.3327 18.3333C13.7007 18.3333 13.9993 18.0347 13.9993 17.6667V17.3333H14.9993V21.3333H14.666C14.298 21.3333 13.9993 21.632 13.9993 22C13.9993 22.368 14.298 22.6667 14.666 22.6667H16.666C17.034 22.6667 17.3327 22.368 17.3327 22C17.3327 21.632 17.034 21.3333 16.666 21.3333H16.3327V17.3333H17.3327V17.6667C17.3327 18.0347 17.6313 18.3333 17.9993 18.3333C18.3673 18.3333 18.666 18.0347 18.666 17.6667V16.6667C18.666 16.2987 18.3673 16 17.9993 16Z" fill="white"/>
<path d="M22.6667 17.3333H20.6667C20.2987 17.3333 20 17.0347 20 16.6667C20 16.2987 20.2987 16 20.6667 16H22.6667C23.0347 16 23.3333 16.2987 23.3333 16.6667C23.3333 17.0347 23.0347 17.3333 22.6667 17.3333Z" fill="white"/>
<path d="M22.6667 20.0001H20.6667C20.2987 20.0001 20 19.7014 20 19.3334C20 18.9654 20.2987 18.6667 20.6667 18.6667H22.6667C23.0347 18.6667 23.3333 18.9654 23.3333 19.3334C23.3333 19.7014 23.0347 20.0001 22.6667 20.0001Z" fill="white"/>
<path d="M22.6667 22.6666H20.6667C20.2987 22.6666 20 22.3679 20 21.9999C20 21.6319 20.2987 21.3333 20.6667 21.3333H22.6667C23.0347 21.3333 23.3333 21.6319 23.3333 21.9999C23.3333 22.3679 23.0347 22.6666 22.6667 22.6666Z" fill="white"/>
<path d="M24 10.6667H12C10.8973 10.6667 10 11.5641 10 12.6667V23.3334C10 24.4361 10.8973 25.3334 12 25.3334H24C25.1027 25.3334 26 24.4361 26 23.3334V12.6667C26 11.5641 25.1027 10.6667 24 10.6667ZM24 24.0001H12C11.6327 24.0001 11.3333 23.7014 11.3333 23.3334V14.0001H24.6667V23.3334C24.6667 23.7014 24.3673 24.0001 24 24.0001Z" fill="white"/>
</g>
<defs>
<clipPath id="clip0_1896_22032">
<rect width="16" height="16" fill="white" transform="translate(10 10)"/>
</clipPath>
</defs>
</svg>
