<svg width="36" height="36" viewBox="0 0 36 36" fill="none" xmlns="http://www.w3.org/2000/svg">
<rect width="36" height="36" rx="18" fill="#002A95"/>
<path d="M20.4489 14.9662C19.432 14.9662 18.6039 14.1381 18.6039 13.1212V9H12.3144C11.8198 9 11.4141 9.39944 11.4141 9.89398V25.8588C11.4141 26.3533 11.8198 26.7527 12.3144 26.7527H19.5442C17.6256 26.347 16.1813 24.6414 16.1813 22.6043C16.1813 20.2654 18.084 18.3627 20.4229 18.3627C22.4658 18.3627 24.1751 19.8139 24.5758 21.7401V14.9662H20.4489ZM13.9521 13.0793H17.1932C17.5083 13.0793 17.7638 13.3348 17.7638 13.6499C17.7638 13.9651 17.5083 14.2206 17.1932 14.2206H13.9521C13.637 14.2206 13.3814 13.9651 13.3814 13.6499C13.3814 13.3348 13.637 13.0793 13.9521 13.0793ZM14.2196 24.0454H13.9533C13.6382 24.0454 13.3827 23.7899 13.3827 23.4748C13.3827 23.1597 13.6382 22.9042 13.9533 22.9042H14.2196C14.5347 22.9042 14.7903 23.1597 14.7903 23.4748C14.7903 23.7899 14.5347 24.0454 14.2196 24.0454ZM15.1516 20.7739H13.9533C13.6382 20.7739 13.3827 20.5184 13.3827 20.2032C13.3827 19.8881 13.6382 19.6326 13.9533 19.6326H15.1516C15.4668 19.6326 15.7223 19.8881 15.7223 20.2032C15.7223 20.5184 15.4668 20.7739 15.1516 20.7739ZM22.0359 17.4959H13.9521C13.637 17.4959 13.3814 17.2404 13.3814 16.9253C13.3814 16.6102 13.637 16.3547 13.9521 16.3547H22.0359C22.351 16.3547 22.6065 16.6102 22.6065 16.9253C22.6065 17.2404 22.351 17.4959 22.0359 17.4959Z" fill="white"/>
<path d="M24.4628 26.0255L23.0286 24.5914C23.4521 24.0372 23.714 23.3537 23.714 22.6043C23.714 20.7897 22.2374 19.3137 20.4234 19.3137C18.6095 19.3137 17.1328 20.7897 17.1328 22.6043C17.1328 24.4189 18.6095 25.8949 20.4234 25.8949C21.0758 25.8949 21.6807 25.6984 22.1923 25.3699L23.655 26.8326C23.7666 26.9442 23.9125 27 24.0589 27C24.2054 27 24.3512 26.9442 24.4628 26.8326C24.686 26.6095 24.686 26.2481 24.4628 26.0255ZM18.2741 22.6043C18.2741 21.4193 19.2384 20.455 20.4234 20.455C21.6084 20.455 22.5728 21.4193 22.5728 22.6043C22.5728 23.7893 21.6084 24.7537 20.4234 24.7537C19.2384 24.7537 18.2741 23.7893 18.2741 22.6043Z" fill="white"/>
<path d="M24.4938 14.0152H20.4487C19.9541 14.0152 19.5547 13.6158 19.5547 13.1213V9.08252C19.6561 9.12056 19.7449 9.18396 19.821 9.26005L24.3099 13.7553C24.386 13.8314 24.4494 13.9201 24.4938 14.0152Z" fill="white"/>
</svg>
