<svg width="36" height="36" viewBox="0 0 36 36" fill="none" xmlns="http://www.w3.org/2000/svg">
<rect width="36" height="36" rx="18" fill="#002A95"/>
<g clip-path="url(#clip0_1896_22068)">
<path d="M19.8307 11.2558L20.4856 10.5901C21.2595 9.80331 22.6065 9.80331 23.3805 10.5901L23.9088 11.1272C24.2958 11.5206 24.5116 12.0426 24.5116 12.5948C24.5116 13.147 24.2958 13.6766 23.9088 14.0624L23.254 14.7281L19.8307 11.2482V11.2558ZM19.0419 12.0577L12.2623 18.9494C12.0465 19.1688 11.9126 19.4563 11.8902 19.7664L11.6893 21.983C11.667 22.2629 11.7637 22.5352 11.9572 22.7395C12.1358 22.921 12.3665 23.0194 12.6121 23.0194H12.694L14.8744 22.8151C15.1795 22.7849 15.4623 22.6487 15.6781 22.4293L22.4577 15.5376L19.0344 12.0577H19.0419ZM26 25.4326C26 25.1225 25.747 24.8652 25.4419 24.8652H10.5581C10.253 24.8652 10 25.1225 10 25.4326C10 25.7428 10.253 26 10.5581 26H25.4419C25.747 26 26 25.7428 26 25.4326Z" fill="white"/>
</g>
<defs>
<clipPath id="clip0_1896_22068">
<rect width="16" height="16" fill="white" transform="translate(10 10)"/>
</clipPath>
</defs>
</svg>
