<svg width="36" height="36" viewBox="0 0 36 36" fill="none" xmlns="http://www.w3.org/2000/svg">
<rect width="36" height="36" rx="18" fill="#002A95"/>
<g clip-path="url(#clip0_1896_20426)">
<path d="M17.6667 18.1627C19.6917 18.1627 21.3333 16.5211 21.3333 14.496C21.3333 12.471 19.6917 10.8293 17.6667 10.8293C15.6416 10.8293 14 12.471 14 14.496C14 16.5211 15.6416 18.1627 17.6667 18.1627Z" fill="white"/>
<path fill-rule="evenodd" clip-rule="evenodd" d="M18.6173 24.504C17.9247 23.76 17.5007 22.7626 17.5007 21.6666C17.5007 20.5446 17.9453 19.5253 18.668 18.776C18.3413 18.7506 18.0073 18.7373 17.6673 18.7373C15.4527 18.7373 13.492 19.2913 12.2747 20.1213C11.346 20.7546 10.834 21.5593 10.834 22.404V23.3706C10.834 23.6713 10.9533 23.96 11.166 24.172C11.3787 24.3846 11.6667 24.504 11.9673 24.504H18.6173Z" fill="white"/>
<path fill-rule="evenodd" clip-rule="evenodd" d="M21.668 18.1667C19.736 18.1667 18.168 19.7347 18.168 21.6667C18.168 23.5987 19.736 25.1667 21.668 25.1667C23.6 25.1667 25.168 23.5987 25.168 21.6667C25.168 19.7347 23.6 18.1667 21.668 18.1667ZM20.0573 22.2494L21.0573 22.9161C21.2553 23.0481 21.52 23.0221 21.688 22.8534L23.3546 21.1867C23.55 20.9921 23.55 20.6747 23.3546 20.4801C23.16 20.2847 22.8426 20.2847 22.648 20.4801L21.2706 21.8567L20.612 21.4174C20.3826 21.2641 20.072 21.3267 19.9186 21.5561C19.7653 21.7854 19.828 22.0961 20.0573 22.2494Z" fill="white"/>
</g>
<defs>
<clipPath id="clip0_1896_20426">
<rect width="16" height="16" fill="white" transform="translate(10 10)"/>
</clipPath>
</defs>
</svg>
