<svg width="36" height="36" viewBox="0 0 36 36" fill="none" xmlns="http://www.w3.org/2000/svg">
<rect width="36" height="36" rx="18" fill="#002A95"/>
<path fill-rule="evenodd" clip-rule="evenodd" d="M18 11.3333C13.5819 11.3333 10 14.8122 10 19.1037C10 21.256 10.9008 23.2038 12.3563 24.6105C12.4499 24.7006 12.6094 24.6793 12.6733 24.5673C13.3552 23.3708 14.5505 22.435 16.0092 21.9797C15.0574 21.3567 14.4317 20.3009 14.4317 19.1031C14.4317 17.1884 16.0292 15.6372 18 15.6372C19.9708 15.6372 21.5683 17.1884 21.5683 19.1031C21.5683 20.3009 20.942 21.3567 19.9908 21.9797C21.4495 22.435 22.6448 23.3708 23.3267 24.5673C23.3899 24.6793 23.5501 24.7006 23.6431 24.6105C25.0986 23.2038 26 21.256 26 19.1037C26 14.8122 22.4181 11.3333 18 11.3333Z" fill="white"/>
</svg>
