<svg width="36" height="36" viewBox="0 0 36 36" fill="none" xmlns="http://www.w3.org/2000/svg">
<rect width="36" height="36" rx="18" fill="#002A95"/>
<g clip-path="url(#clip0_1896_22086)">
<path d="M25.3621 16.458L24.5493 15.6467C24.4503 15.548 24.3717 15.4306 24.3182 15.3013C24.2646 15.172 24.2372 15.0335 24.2375 14.8935V13.9431C24.2369 13.3649 24.007 12.8105 23.5982 12.4015C23.1894 11.9926 22.6351 11.7625 22.0568 11.7617H21.1064C20.8244 11.7609 20.5541 11.6492 20.3539 11.4506L19.542 10.6379C19.1326 10.2295 18.578 10.0002 17.9998 10.0002C17.4217 10.0002 16.8671 10.2295 16.4577 10.6379L15.6465 11.4506C15.4461 11.6493 15.1756 11.7614 14.8933 11.7624H13.9421C13.3639 11.7632 12.8096 11.9933 12.4008 12.4023C11.992 12.8112 11.762 13.3656 11.7614 13.9439V14.8935C11.7618 15.0334 11.7345 15.1719 11.6811 15.3012C11.6277 15.4305 11.5493 15.5479 11.4503 15.6467L10.6376 16.458C10.2293 16.8673 10 17.4219 10 18.0001C10 18.5783 10.2293 19.1328 10.6376 19.5422L11.4503 20.3534C11.5494 20.4522 11.628 20.5696 11.6815 20.6989C11.735 20.8282 11.7625 20.9667 11.7622 21.1066V22.0571C11.7628 22.6353 11.9927 23.1897 12.4015 23.5987C12.8103 24.0076 13.3646 24.2377 13.9429 24.2385H14.8933C15.1754 24.2394 15.4457 24.3515 15.6457 24.5503L16.4577 25.3623C16.867 25.7708 17.4216 26.0002 17.9998 26.0002C18.5781 26.0002 19.1327 25.7708 19.542 25.3623L20.3532 24.5503C20.5536 24.3516 20.8241 24.2396 21.1064 24.2385H22.0576C22.6358 24.2377 23.1901 24.0076 23.5989 23.5987C24.0077 23.1897 24.2377 22.6353 24.2382 22.0571V21.1066C24.238 20.9667 24.2654 20.8282 24.3189 20.6989C24.3724 20.5696 24.451 20.4522 24.5501 20.3534L25.3621 19.5422C25.7704 19.1328 25.9997 18.5783 25.9997 18.0001C25.9997 17.4219 25.7704 16.8673 25.3621 16.458ZM20.6271 16.9045L17.65 19.8816C17.5983 19.9335 17.5368 19.9747 17.4692 20.0029C17.4015 20.031 17.3289 20.0454 17.2556 20.0454C17.1823 20.0454 17.1097 20.031 17.042 20.0029C16.9743 19.9747 16.9129 19.9335 16.8611 19.8816L15.3726 18.3931C15.274 18.2872 15.2203 18.1473 15.2229 18.0027C15.2254 17.8581 15.284 17.7201 15.3863 17.6178C15.4886 17.5156 15.6265 17.457 15.7711 17.4544C15.9157 17.4519 16.0557 17.5055 16.1615 17.6041L17.2556 18.699L19.8382 16.1171C19.944 16.0185 20.0839 15.9648 20.2286 15.9674C20.3732 15.9699 20.5111 16.0285 20.6134 16.1308C20.7157 16.2331 20.7743 16.371 20.7768 16.5156C20.7794 16.6603 20.7257 16.8002 20.6271 16.906V16.9045Z" fill="white"/>
</g>
<defs>
<clipPath id="clip0_1896_22086">
<rect width="16" height="16" fill="white" transform="translate(10 10)"/>
</clipPath>
</defs>
</svg>
