<svg width="36" height="36" viewBox="0 0 36 36" fill="none" xmlns="http://www.w3.org/2000/svg">
<rect width="36" height="36" rx="18" fill="#002A95"/>
<path d="M19.5328 11.3333H16.3995C15.7328 11.3333 15.1328 11.8666 15.1328 12.5999V13.1999C15.1328 13.8666 15.6661 14.4666 16.3995 14.4666H19.5328C20.1995 14.4666 20.7995 13.9333 20.7995 13.1999V12.5999C20.7995 11.8666 20.2661 11.3333 19.5328 11.3333Z" fill="white"/>
<path d="M21.4659 13.1999C21.4659 14.2666 20.5992 15.1333 19.5326 15.1333H16.3992C15.3326 15.1333 14.4659 14.2666 14.4659 13.1999C14.4659 12.7999 14.0659 12.5999 13.7326 12.7333C12.7992 13.2666 12.1992 14.2666 12.1992 15.3999V21.6666C12.1992 23.3333 13.5326 24.6666 15.1992 24.6666H20.8659C22.5326 24.6666 23.8659 23.3333 23.8659 21.6666V15.3999C23.8659 14.2666 23.1992 13.2666 22.2659 12.7999C21.8659 12.5999 21.4659 12.8666 21.4659 13.1999ZM18.2659 21.2666H15.3326C15.0659 21.2666 14.7992 21.0666 14.7992 20.7333C14.7992 20.4666 14.9992 20.2666 15.3326 20.2666H18.2659C18.5326 20.2666 18.7992 20.4666 18.7992 20.7333C18.7326 21.0666 18.5326 21.2666 18.2659 21.2666ZM19.9992 18.5999H15.3326C15.0659 18.5999 14.7992 18.3999 14.7992 18.0666C14.7992 17.7333 14.9992 17.5333 15.3326 17.5333H19.9992C20.2659 17.5333 20.5326 17.7333 20.5326 18.0666C20.5326 18.3999 20.2659 18.5999 19.9992 18.5999Z" fill="white"/>
</svg>
