<svg width="52" height="52" viewBox="0 0 52 52" fill="none" xmlns="http://www.w3.org/2000/svg">
<rect width="52" height="52" rx="26" fill="white"/>
<path d="M28.0625 30.125H27.375C27.0103 30.125 26.6606 29.9801 26.4027 29.7223C26.1449 29.4644 26 29.1147 26 28.75V25.3125C26 25.1302 25.9276 24.9553 25.7986 24.8264C25.6697 24.6974 25.4948 24.625 25.3125 24.625H24.625" stroke="#FF9B00" stroke-width="1.75" stroke-linecap="round" stroke-linejoin="round"/>
<path d="M25.6562 21.1875C25.5883 21.1875 25.5218 21.2077 25.4653 21.2454C25.4087 21.2832 25.3647 21.3369 25.3387 21.3997C25.3126 21.4625 25.3058 21.5316 25.3191 21.5983C25.3324 21.665 25.3651 21.7262 25.4132 21.7743C25.4613 21.8224 25.5225 21.8551 25.5892 21.8684C25.6559 21.8817 25.725 21.8749 25.7878 21.8488C25.8506 21.8228 25.9043 21.7788 25.9421 21.7222C25.9798 21.6657 26 21.5992 26 21.5312C26 21.4401 25.9638 21.3526 25.8993 21.2882C25.8349 21.2237 25.7474 21.1875 25.6562 21.1875Z" stroke="#FF9B00" stroke-width="1.75" stroke-linecap="round" stroke-linejoin="round"/>
<path d="M15.6875 26C15.6875 28.735 16.774 31.3581 18.708 33.292C20.6419 35.226 23.265 36.3125 26 36.3125C28.735 36.3125 31.3581 35.226 33.292 33.292C35.226 31.3581 36.3125 28.735 36.3125 26C36.3125 23.265 35.226 20.6419 33.292 18.708C31.3581 16.774 28.735 15.6875 26 15.6875C23.265 15.6875 20.6419 16.774 18.708 18.708C16.774 20.6419 15.6875 23.265 15.6875 26V26Z" stroke="#FF9B00" stroke-width="1.75" stroke-linecap="round" stroke-linejoin="round"/>
</svg>
