<svg width="17" height="17" viewBox="0 0 17 17" fill="none" xmlns="http://www.w3.org/2000/svg">
<g clip-path="url(#clip0_970_13037)">
<path d="M5.09832 17.0001C5.88072 17.0001 6.51499 16.3658 6.51499 15.5834C6.51499 14.801 5.88072 14.1667 5.09832 14.1667C4.31591 14.1667 3.68164 14.801 3.68164 15.5834C3.68164 16.3658 4.31591 17.0001 5.09832 17.0001Z" fill="url(#paint0_linear_970_13037)"/>
<path d="M13.5983 17.0001C14.3807 17.0001 15.015 16.3658 15.015 15.5834C15.015 14.801 14.3807 14.1667 13.5983 14.1667C12.8159 14.1667 12.1816 14.801 12.1816 15.5834C12.1816 16.3658 12.8159 17.0001 13.5983 17.0001Z" fill="url(#paint1_linear_970_13037)"/>
<path d="M15.2923 2.83342H14.6621C14.4664 2.83342 14.3079 2.99184 14.3079 3.1876V4.60428C14.3079 4.93491 14.1578 5.24068 13.8971 5.44335C13.7981 5.52015 13.7469 5.64327 13.7628 5.76741C13.8044 6.09496 13.6937 6.41697 13.4599 6.65075L12.4582 7.65239C12.2279 7.88341 11.909 7.99999 11.5763 7.95536C11.4504 7.93909 11.3279 7.99029 11.2511 8.08921C11.0478 8.35035 10.7421 8.50009 10.4121 8.50009H8.99542C8.66545 8.50009 8.35971 8.35035 8.15635 8.08921C8.07888 7.99029 7.95503 7.93946 7.83122 7.95536C7.49919 7.99962 7.18031 7.88341 6.94925 7.65239L5.94761 6.65075C5.71379 6.41693 5.60313 6.09493 5.64463 5.76741C5.66054 5.64323 5.60934 5.52012 5.51042 5.44335C5.24965 5.24068 5.09954 4.93491 5.09954 4.60428V3.1876C5.09954 2.99184 4.94112 2.83342 4.74536 2.83342H3.9797L3.69199 1.91376C3.59949 1.61806 3.32556 1.41675 3.01571 1.41675H1.20379C1.00819 1.41675 0.849609 1.57529 0.849609 1.77093V2.47925C0.849609 2.67485 1.00819 2.83342 1.20379 2.83342H2.49525L4.73417 9.98892L3.68296 11.0401C3.27622 11.4465 3.15586 12.0525 3.37583 12.5837C3.5958 13.115 4.10975 13.4584 4.6846 13.4584H14.6621C14.8577 13.4584 15.0163 13.2999 15.0163 13.1043V12.3959C15.0163 12.2003 14.8577 12.0418 14.6621 12.0418H4.6846L6.10124 10.6251H12.571C13.1174 10.6251 13.621 10.3058 13.8528 9.81161L16.325 4.55965C16.3956 4.40851 16.4329 4.24077 16.4329 4.07439V3.97408C16.4329 3.34498 15.9211 2.83342 15.2923 2.83342Z" fill="#002A95"/>
<path d="M6.07509 4.94759L6.75369 5.11742L6.394 5.71717C6.3103 5.85656 6.33244 6.03502 6.44726 6.14984L7.4489 7.15148C7.56441 7.26736 7.74357 7.28774 7.88193 7.20474L8.48098 6.84505L8.65045 7.52365C8.6899 7.68103 8.83167 7.7917 8.99423 7.7917H10.4109C10.5735 7.7917 10.7153 7.68103 10.7547 7.52365L10.9242 6.84505L11.5232 7.20474C11.6623 7.28774 11.84 7.26629 11.9562 7.15148L12.9579 6.14984C13.0727 6.03502 13.0948 5.85656 13.0111 5.71717L12.6515 5.11742L13.3301 4.94759C13.4878 4.90814 13.5984 4.7667 13.5984 4.60414V3.1875C13.5984 3.02493 13.4878 2.88349 13.3301 2.84404L12.6515 2.67421L13.0111 2.07446C13.0948 1.93508 13.0727 1.75661 12.9579 1.64179L11.9562 0.640155C11.84 0.524277 11.6623 0.50389 11.5232 0.586898L10.9241 0.94662L10.7547 0.268015C10.7152 0.110666 10.5734 0 10.4108 0H8.99417C8.83161 0 8.6898 0.110666 8.65038 0.268048L8.48092 0.946653L7.88187 0.586964C7.74351 0.503956 7.56434 0.52504 7.44883 0.640222L6.44719 1.64186C6.33238 1.75668 6.31023 1.93514 6.39394 2.07453L6.75363 2.67428L6.07502 2.84411C5.91731 2.88355 5.80664 3.025 5.80664 3.18756V4.60424C5.80671 4.76673 5.91737 4.90818 6.07509 4.94759ZM9.70252 2.125C10.6793 2.125 11.4733 2.91945 11.4733 3.89582C11.4733 4.87219 10.6793 5.66667 9.70252 5.66667C8.72579 5.66667 7.9317 4.87222 7.9317 3.89585C7.9317 2.91948 8.72579 2.125 9.70252 2.125Z" fill="url(#paint2_linear_970_13037)"/>
</g>
<defs>
<linearGradient id="paint0_linear_970_13037" x1="6.51499" y1="17.0001" x2="6.51499" y2="14.1667" gradientUnits="userSpaceOnUse">
<stop stop-color="#909ABA"/>
<stop offset="1" stop-color="#AAB5CF"/>
</linearGradient>
<linearGradient id="paint1_linear_970_13037" x1="15.015" y1="17.0001" x2="15.015" y2="14.1667" gradientUnits="userSpaceOnUse">
<stop stop-color="#909ABA"/>
<stop offset="1" stop-color="#AAB5CF"/>
</linearGradient>
<linearGradient id="paint2_linear_970_13037" x1="13.5984" y1="7.7917" x2="13.5984" y2="0" gradientUnits="userSpaceOnUse">
<stop stop-color="#909ABA"/>
<stop offset="1" stop-color="#AAB5CF"/>
</linearGradient>
<clipPath id="clip0_970_13037">
<rect width="17" height="17" fill="white"/>
</clipPath>
</defs>
</svg>
