<svg width="17" height="17" viewBox="0 0 17 17" fill="none" xmlns="http://www.w3.org/2000/svg">
<path fill-rule="evenodd" clip-rule="evenodd" d="M16.4668 7.56744C16.2961 7.39744 15.9548 7.39744 15.7842 7.56744C15.6136 7.73744 15.6136 8.07744 15.7842 8.24744C15.9548 8.41744 16.0402 8.67244 16.0402 8.92744C16.0402 9.52244 15.5282 9.94744 15.0163 9.94744V9.94744V9.94744C14.7604 7.73744 13.2246 5.86744 11.0063 5.27244C10.8356 6.88744 9.47052 8.16244 7.76412 7.99244C6.22836 7.90744 5.1192 6.63244 5.03388 5.10244C4.35132 4.42244 3.49812 3.99744 2.5596 3.99744C2.21832 3.99744 2.04768 4.25244 2.04768 4.50744V4.59244L2.38896 6.88744C1.79172 7.48244 1.45044 8.24744 1.19448 9.01244C0.51192 9.18244 0 9.77744 0 10.4574V11.4774C0 12.3274 0.68256 13.0074 1.53576 13.0074H1.62108V13.0074C1.96236 13.6874 2.47428 14.2824 2.9862 14.7074V16.4924C2.9862 16.7474 3.24216 17.0024 3.49812 17.0024H5.46048C5.71644 17.0024 5.9724 16.7474 5.9724 16.4924V15.8974C6.14304 15.8974 6.31368 15.9824 6.48432 15.9824H8.9586V16.4924C8.9586 16.7474 9.21456 17.0024 9.47052 17.0024H11.4329C11.6888 17.0024 11.9448 16.7474 11.9448 16.4924V15.3874C13.6512 14.5374 14.7604 12.8374 14.931 10.9674V10.9674C16.0402 10.9674 16.9787 10.1174 16.9787 9.01244C17.064 8.50244 16.8934 7.99244 16.4668 7.56744ZM3.49813 10.0324C3.24217 10.0324 2.98621 9.77742 2.98621 9.52242C2.98621 9.26742 3.24217 9.01242 3.49813 9.01242C3.75409 9.01242 4.01005 9.26742 4.01005 9.52242V9.52242C4.01005 9.77742 3.83941 10.0324 3.49813 10.0324ZM9.55719 10.0325H6.571C6.31504 10.0325 6.05908 9.77752 6.05908 9.52252C6.05908 9.26752 6.31504 9.01252 6.571 9.01252V9.01252H9.55719C9.81315 9.01252 10.0691 9.26752 10.0691 9.52252C10.0691 9.77752 9.81315 10.0325 9.55719 10.0325ZM8.02143 3.06252C6.91228 3.06252 6.05908 3.91252 6.05908 5.01752C6.05908 6.12252 6.91228 6.97252 8.02143 6.97252C9.13059 6.97252 9.98379 6.12252 9.98379 5.01752V5.01752C10.0691 3.91252 9.13059 3.06252 8.02143 3.06252V3.06252ZM12.0308 0.00244141C10.9216 0.00244141 10.0684 0.852441 10.0684 1.95744C10.0684 3.06244 10.9216 3.91244 12.0308 3.91244C13.1399 3.91244 13.9931 3.06244 13.9931 1.95744V1.95744C13.9931 0.937441 13.1399 0.00244141 12.0308 0.00244141Z" fill="url(#paint0_linear_1907_2589)"/>
<path fill-rule="evenodd" clip-rule="evenodd" d="M8.87295 3.23225C7.16656 2.55225 5.6308 3.99725 6.0574 5.61225C6.31336 6.20725 6.82528 6.80225 7.50784 6.97225C8.87295 7.31225 10.0674 6.29225 10.0674 5.01725V5.01725C10.0674 4.25225 9.64083 3.48725 8.87295 3.23225ZM12.8823 0.17225C11.1759 -0.50775 9.64013 0.937249 10.0667 2.55225C10.2374 3.23225 10.7493 3.74225 11.4319 3.91225C12.797 4.25225 13.9915 3.23225 13.9915 1.95725V1.95725C13.9915 1.19225 13.5649 0.51225 12.8823 0.17225Z" fill="#002A95"/>
<defs>
<linearGradient id="paint0_linear_1907_2589" x1="17" y1="17.0024" x2="17" y2="0.00244141" gradientUnits="userSpaceOnUse">
<stop stop-color="#909ABA"/>
<stop offset="1" stop-color="#AAB5CF"/>
</linearGradient>
</defs>
</svg>
