<svg width="17" height="17" viewBox="0 0 17 17" fill="none" xmlns="http://www.w3.org/2000/svg">
<path d="M13.9453 14.4421C13.9453 14.9443 13.7411 15.4261 13.3776 15.7812C13.014 16.1364 12.521 16.3359 12.0068 16.3359H4.99316C4.47904 16.3359 3.98598 16.1364 3.62245 15.7812C3.25892 15.4261 3.05469 14.9443 3.05469 14.4421V2.55794C3.05469 2.05566 3.25892 1.57394 3.62245 1.21877C3.98598 0.863596 4.47904 0.664062 4.99316 0.664062H12.0068C12.521 0.664063 13.014 0.863596 13.3776 1.21877C13.7411 1.57394 13.9453 2.05566 13.9453 2.55794V14.4421Z" fill="#315EFD"/>
<path d="M14.0272 0.82876C13.7586 0.565153 13.4392 0.356188 13.0876 0.21394C12.7359 0.0716918 12.3588 -0.00101854 11.9782 1.07774e-05H5.02174C4.25347 1.07774e-05 3.51668 0.298335 2.97343 0.829356C2.43019 1.36038 2.125 2.0806 2.125 2.83157V14.1684C2.125 14.9194 2.43019 15.6396 2.97343 16.1707C3.51668 16.7017 4.25347 17 5.02174 17H11.9782C12.7461 16.9986 13.482 16.6998 14.025 16.1691C14.5679 15.6384 14.8735 14.919 14.875 14.1684V2.83157C14.8763 2.4595 14.8021 2.09086 14.6565 1.74705C14.511 1.40325 14.2971 1.09111 14.0272 0.82876ZM13.3853 13.8311C13.3853 14.282 13.2021 14.7144 12.876 15.0332C12.5498 15.352 12.1075 15.5311 11.6462 15.5311H5.35377C4.89252 15.5311 4.45017 15.352 4.12402 15.0332C3.79787 14.7144 3.61464 14.282 3.61464 13.8311V3.1636C3.61464 2.71273 3.79787 2.28033 4.12402 1.96152C4.45017 1.64271 4.89252 1.4636 5.35377 1.4636H11.6462C12.1075 1.4636 12.5498 1.64271 12.876 1.96152C13.2021 2.28033 13.3853 2.71273 13.3853 3.1636V13.8311Z" fill="#002A95"/>
<path fill-rule="evenodd" clip-rule="evenodd" d="M8.5 6.375C6.73966 6.375 5.3125 7.76115 5.3125 9.47103C5.3125 10.3286 5.67141 11.1047 6.25133 11.6651C6.28864 11.701 6.35219 11.6926 6.37766 11.648C6.64935 11.1712 7.12559 10.7984 7.70679 10.6169C7.32755 10.3687 7.07824 9.94804 7.07824 9.47078C7.07824 8.70793 7.71477 8.08987 8.5 8.08987C9.28523 8.08987 9.92175 8.70793 9.92175 9.47078C9.92175 9.94804 9.67219 10.3687 9.29321 10.6169C9.87441 10.7984 10.3506 11.1712 10.6223 11.648C10.6476 11.6926 10.7114 11.701 10.7484 11.6651C11.3283 11.1047 11.6875 10.3286 11.6875 9.47103C11.6875 7.76115 10.2603 6.375 8.5 6.375Z" fill="white"/>
<path d="M9.5625 3.65234C9.5625 3.35894 9.80035 3.12109 10.0938 3.12109C10.3872 3.12109 10.625 3.35894 10.625 3.65234C10.625 3.94575 10.3872 4.18359 10.0938 4.18359C9.80035 4.18359 9.5625 3.94575 9.5625 3.65234Z" fill="white"/>
<path d="M6.375 3.65234C6.375 3.35894 6.61285 3.12109 6.90625 3.12109H7.96875C8.26215 3.12109 8.5 3.35894 8.5 3.65234C8.5 3.94575 8.26215 4.18359 7.96875 4.18359H6.90625C6.61285 4.18359 6.375 3.94575 6.375 3.65234Z" fill="white"/>
</svg>
