<svg width="17" height="17" viewBox="0 0 17 17" fill="none" xmlns="http://www.w3.org/2000/svg">
<g clip-path="url(#clip0_970_13127)">
<path d="M12.8914 9.91675C10.9359 9.91675 9.34961 11.5022 9.34961 13.4583C9.34961 15.4139 10.9359 17 12.8914 17C14.8468 17 16.4331 15.4139 16.4331 13.4583C16.4331 11.5022 14.8468 9.91675 12.8914 9.91675Z" fill="#002A95"/>
<path d="M15.0176 13.9895H12.3613V11.3333H13.4238V12.927H15.0176V13.9895Z" fill="white"/>
<path d="M12.1831 0H2.26635C1.48753 0 0.849609 0.637709 0.849609 1.41674V14.1668C0.849609 14.9456 1.48753 15.5833 2.26635 15.5833H7.9331V13.4583C7.9331 10.7247 10.1578 8.50002 12.8914 8.50002H13.5996V1.41674C13.5996 0.637709 12.9619 0 12.1831 0Z" fill="url(#paint0_linear_970_13127)"/>
<path d="M2.97559 2.125H10.0591V3.54174H2.97559V2.125ZM5.80906 12.0418H2.97559V10.625H5.80906V12.0418ZM7.22559 9.20828H2.97559V7.79175H7.22559V9.20828ZM11.4756 6.37501H2.97559V4.95827H11.4756V6.37501Z" fill="white"/>
</g>
<defs>
<linearGradient id="paint0_linear_970_13127" x1="13.5996" y1="15.5833" x2="13.5996" y2="0" gradientUnits="userSpaceOnUse">
<stop stop-color="#909ABA"/>
<stop offset="1" stop-color="#AAB5CF"/>
</linearGradient>
<clipPath id="clip0_970_13127">
<rect width="17" height="17" fill="white"/>
</clipPath>
</defs>
</svg>
