<svg width="17" height="17" viewBox="0 0 17 17" fill="none" xmlns="http://www.w3.org/2000/svg">
<path d="M14.3437 8.323V10.0938C14.3437 10.3756 14.2318 10.6459 14.0326 10.8451C13.8333 11.0444 13.563 11.1563 13.2812 11.1563H3.71875C3.43696 11.1563 3.16671 11.0444 2.96745 10.8451C2.76819 10.6459 2.65625 10.3756 2.65625 10.0938V8.323" stroke="#7780A0" stroke-linecap="round" stroke-linejoin="round"/>
<path d="M15.4058 16.4687H1.59327C1.41234 16.4685 1.23447 16.4221 1.07652 16.3338C0.918564 16.2456 0.785763 16.1184 0.690699 15.9645C0.595636 15.8106 0.54146 15.6349 0.533306 15.4541C0.525153 15.2734 0.563291 15.0935 0.644108 14.9317L1.94744 12.3321C2.12359 11.9792 2.39445 11.6824 2.72971 11.4747C3.06498 11.2671 3.45141 11.1568 3.84578 11.1562H13.1533C13.5476 11.1568 13.9341 11.2671 14.2693 11.4747C14.6046 11.6824 14.8755 11.9792 15.0516 12.3321L16.3549 14.9317C16.4358 15.0935 16.4739 15.2734 16.4657 15.4541C16.4576 15.6349 16.4034 15.8106 16.3084 15.9645C16.2133 16.1184 16.0805 16.2456 15.9225 16.3338C15.7646 16.4221 15.5867 16.4685 15.4058 16.4687Z" fill="#7780A0" stroke="#7780A0" stroke-linecap="round" stroke-linejoin="round"/>
<path d="M7.4375 14.3438H9.5625" stroke="white" stroke-linecap="round" stroke-linejoin="round"/>
<path d="M0.53125 4.25C0.561558 4.75829 0.784833 5.23581 1.15544 5.58498C1.52605 5.93415 2.01602 6.12861 2.52521 6.12861C3.0344 6.12861 3.52436 5.93415 3.89497 5.58498C4.26558 5.23581 4.48886 4.75829 4.51917 4.25C4.51917 4.77789 4.72887 5.28416 5.10215 5.65744C5.47542 6.03072 5.98169 6.24042 6.50958 6.24042C7.03747 6.24042 7.54375 6.03072 7.91702 5.65744C8.2903 5.28416 8.5 4.77789 8.5 4.25C8.53031 4.75829 8.75358 5.23581 9.12419 5.58498C9.4948 5.93415 9.98477 6.12861 10.494 6.12861C11.0031 6.12861 11.4931 5.93415 11.8637 5.58498C12.2343 5.23581 12.4576 4.75829 12.4879 4.25C12.4879 4.77789 12.6976 5.28416 13.0709 5.65744C13.4442 6.03072 13.9504 6.24042 14.4783 6.24042C15.0062 6.24042 15.5125 6.03072 15.8858 5.65744C16.259 5.28416 16.4687 4.77789 16.4687 4.25L15.4983 0.949167C15.4725 0.831073 15.4073 0.725303 15.3132 0.649322C15.2192 0.57334 15.1021 0.531691 14.9812 0.53125H2.01875C1.89787 0.531691 1.78076 0.57334 1.68675 0.649322C1.59274 0.725303 1.52745 0.831073 1.50167 0.949167L0.53125 4.25Z" fill="url(#paint0_linear_1907_8262)" stroke="url(#paint1_linear_1907_8262)" stroke-linecap="round" stroke-linejoin="round"/>
<defs>
<linearGradient id="paint0_linear_1907_8262" x1="16.4688" y1="6.24042" x2="16.4688" y2="0.53125" gradientUnits="userSpaceOnUse">
<stop stop-color="#909ABA"/>
<stop offset="1" stop-color="#AAB5CF"/>
</linearGradient>
<linearGradient id="paint1_linear_1907_8262" x1="16.4688" y1="6.24042" x2="16.4688" y2="0.53125" gradientUnits="userSpaceOnUse">
<stop stop-color="#909ABA"/>
<stop offset="1" stop-color="#AAB5CF"/>
</linearGradient>
</defs>
</svg>
