<svg width="36" height="36" fill="none" xmlns="http://www.w3.org/2000/svg"><g clip-path="url(#prefix__clip0_269_157668)"><rect width="36" height="36" rx="5" fill="#fff"/><path fill-rule="evenodd" clip-rule="evenodd" d="M18.4 8.8c-1.36 0-2.4 1.04-2.4 2.4 0 1.12.72 2.08 1.84 2.32v.72h1.12v-.72c1.12-.24 1.84-1.2 1.84-2.32 0-1.36-1.04-2.4-2.4-2.4zm-.56 2.96v1.12c-.56-.16-.96-.56-1.12-1.12-.32-.96.16-2 1.12-2.32.96-.32 2 .16 2.32 1.12.32.96-.16 2-1.12 2.32v-1.12h-1.2z" fill="#2987FD"/><path fill-rule="evenodd" clip-rule="evenodd" d="M18.401 13.6c4 .08 7.2 3.28 7.2 7.28s-3.28 7.2-7.28 7.12c-4 0-7.2-3.28-7.12-7.28 0-3.92 3.28-7.12 7.2-7.12zm3.439 8.16h-3.12v-4c0-.4-.32-.8-.72-.8-.4 0-.8.32-.8.72v4.88c0 .4.32.8.8.8h3.92c.48 0 .8-.32.8-.8 0-.48-.48-.8-.88-.8z" fill="#004195"/><path fill-rule="evenodd" clip-rule="evenodd" d="M24.8 13.84l.56.56c.32.32.32.8 0 1.12l-.16.16c-.32.32-.8.32-1.12 0l-.64-.48a.773.773 0 010-1.12l.16-.16c.32-.4.88-.4 1.2-.08zM12 13.84l-.56.56c-.32.32-.32.8 0 1.12l.16.16c.32.32.8.32 1.12 0l.64-.48c.32-.32.32-.8 0-1.12l-.24-.24c-.24-.32-.8-.32-1.12 0z" fill="#2987FD"/></g><rect x=".5" y=".5" width="35" height="35" rx="4.5" stroke="#D4D9DD"/><defs><clipPath id="prefix__clip0_269_157668"><rect width="36" height="36" rx="5" fill="#fff"/></clipPath></defs></svg>