<?xml version="1.0" encoding="UTF-8" standalone="no"?>
<svg
   width="350"
   height="68"
   viewBox="0 0 350 68"
   fill="none"
   version="1.1"
   id="svg64"
   sodipodi:docname="Normal (3).svg"
   inkscape:version="1.1.2 (0a00cf5339, 2022-02-04)"
   xmlns:inkscape="http://www.inkscape.org/namespaces/inkscape"
   xmlns:sodipodi="http://sodipodi.sourceforge.net/DTD/sodipodi-0.dtd"
   xmlns="http://www.w3.org/2000/svg"
   xmlns:svg="http://www.w3.org/2000/svg">
  <sodipodi:namedview
     id="namedview66"
     pagecolor="#ffffff"
     bordercolor="#666666"
     borderopacity="1.0"
     inkscape:pageshadow="2"
     inkscape:pageopacity="0.0"
     inkscape:pagecheckerboard="0"
     showgrid="false"
     fit-margin-top="0"
     fit-margin-left="0"
     fit-margin-right="0"
     fit-margin-bottom="0"
     inkscape:zoom="1.8458333"
     inkscape:cx="112.68623"
     inkscape:cy="72.325056"
     inkscape:window-width="1920"
     inkscape:window-height="1017"
     inkscape:window-x="0"
     inkscape:window-y="0"
     inkscape:window-maximized="1"
     inkscape:current-layer="g29" />
  <g
     filter="url(#filter0_d_4_1722)"
     id="g29"
     transform="translate(-5,-3)">
    <g
       clip-path="url(#clip0_4_1722)"
       id="g25">
      <rect
         x="5"
         y="3"
         width="350"
         height="68"
         rx="8"
         fill="#ffffff"
         id="rect2" />
      <mask
         id="mask0_4_1722"
         maskUnits="userSpaceOnUse"
         x="167"
         y="-11"
         width="188"
         height="96">
        <rect
           width="188"
           height="96"
           transform="matrix(-1,0,0,1,355,-11)"
           fill="url(#paint0_linear_4_1722)"
           id="rect4"
           x="0"
           y="0" />
      </mask>
      <g
         mask="url(#mask0_4_1722)"
         id="g9">
        <circle
           cx="124"
           cy="124"
           r="124"
           transform="matrix(-1,0,0,1,415,-88)"
           fill="#e6efff"
           id="circle7" />
      </g>
      <g
         clip-path="url(#clip1_4_1722)"
         id="g19">
        <path
           d="M 47.3412,23.002 H 30.6553 C 27.5302,23.002 25,25.5322 25,28.6573 v 16.6894 c 0,3.1216 2.5302,5.6518 5.6553,5.6518 H 47.3447 C 50.4663,50.9985 53,48.4683 53,45.3432 V 28.6573 C 52.9965,25.5322 50.4663,23.002 47.3412,23.002 Z"
           fill="url(#paint1_linear_4_1722)"
           id="path11"
           style="fill:url(#paint1_linear_4_1722)" />
        <path
           d="m 38.8793,29.4339 0.5669,-0.9799 c 0.35,-0.6124 1.1304,-0.8188 1.7428,-0.4689 0.6125,0.3499 0.8189,1.1303 0.469,1.7428 l -5.4629,9.4558 h 3.951 c 1.2809,0 1.9982,1.5049 1.4419,2.5477 H 30.0044 c -0.7069,0 -1.2738,-0.5669 -1.2738,-1.2738 0,-0.7069 0.5669,-1.2739 1.2738,-1.2739 h 3.2476 l 4.1576,-7.2056 -1.2984,-2.2537 c -0.3499,-0.6125 -0.1435,-1.3859 0.469,-1.7428 0.6124,-0.3499 1.3858,-0.1435 1.7427,0.4689 z"
           fill="#ffffff"
           id="path13" />
        <path
           d="m 33.9659,43.0438 -1.2248,2.1242 c -0.35,0.6124 -1.1304,0.8189 -1.7428,0.4689 -0.6125,-0.3499 -0.8189,-1.1303 -0.469,-1.7427 l 0.9099,-1.5748 c 1.0289,-0.3185 1.8652,-0.0735 2.5267,0.7244 z"
           fill="#ffffff"
           id="path15" />
        <path
           d="m 44.5136,39.1907 h 3.314 c 0.7069,0 1.2739,0.567 1.2739,1.2739 0,0.7068 -0.567,1.2738 -1.2739,1.2738 h -1.8407 l 1.2423,2.1557 c 0.3499,0.6125 0.1435,1.3859 -0.4689,1.7428 -0.6125,0.3499 -1.3859,0.1435 -1.7428,-0.469 -2.0928,-3.629 -3.6641,-6.3446 -4.7069,-8.1539 -1.0674,-1.8408 -0.3045,-3.6886 0.4479,-4.315 0.8365,1.4349 2.0858,3.6011 3.7551,6.4917 z"
           fill="#ffffff"
           id="path17" />
      </g>
      <path
         d="M 64.216,42.5 V 31.94 h 3.456 c 3.344,-0.032 5.808,2.128 5.76,5.248 0.048,3.056 -2.416,5.36 -5.76,5.312 z m 2.16,-1.952 h 1.28 c 2.128,0 3.552,-1.328 3.552,-3.36 0,-2.048 -1.392,-3.296 -3.552,-3.296 h -1.28 z m 8.2949,-2.016 c -0.048,-2.256 1.92,-4.176 4.24,-4.128 2.32,-0.032 4.304,1.872 4.256,4.128 0.048,2.256 -1.952,4.192 -4.272,4.144 -2.32,0.048 -4.272,-1.888 -4.224,-4.144 z m 6.288,0.016 c 0,-1.232 -0.88,-2.176 -2.048,-2.176 -1.2,0 -2.048,0.912 -2.048,2.176 0,1.232 0.848,2.144 2.048,2.144 1.168,0 2.048,-0.912 2.048,-2.144 z M 94.7168,34.58 h 2.272 l -3.68,8.112 h -0.704 l -2.272,-4.608 -2.288,4.608 h -0.704 l -3.68,-8.112 h 2.272 l 1.872,4.512 2.16,-4.688 h 0.72 l 2.1919,4.592 z M 105.54,37.588 V 42.5 h -2.144 v -4.624 c 0,-0.912 -0.592,-1.536 -1.472,-1.536 -0.88,0 -1.504,0.624 -1.504,1.536 V 42.5 h -2.1605 v -7.92 h 1.9845 v 0.72 c 0.56,-0.56 1.376,-0.896 2.32,-0.896 1.84,0 2.976,1.264 2.976,3.184 z m 2.079,4.912 v -12 h 2.16 v 12 z m 3.849,-3.968 c -0.048,-2.256 1.92,-4.176 4.24,-4.128 2.32,-0.032 4.304,1.872 4.256,4.128 0.048,2.256 -1.952,4.192 -4.272,4.144 -2.32,0.048 -4.272,-1.888 -4.224,-4.144 z m 6.288,0.016 c 0,-1.232 -0.88,-2.176 -2.048,-2.176 -1.2,0 -2.048,0.912 -2.048,2.176 0,1.232 0.848,2.144 2.048,2.144 1.168,0 2.048,-0.912 2.048,-2.144 z M 128.29,37.796 V 42.5 h -1.984 v -0.768 c -0.576,0.592 -1.408,0.96 -2.416,0.96 -1.68,0 -2.736,-0.976 -2.736,-2.368 0,-1.424 1.152,-2.304 2.992,-2.304 h 1.984 v -0.352 c 0,-0.88 -0.512,-1.392 -1.472,-1.392 -0.816,0 -1.392,0.336 -2.096,1.088 l -1.12,-1.328 c 0.912,-1.088 2.064,-1.632 3.456,-1.632 2.064,0 3.392,1.2 3.392,3.392 z m -2.16,1.744 v -0.096 h -1.696 c -0.704,0 -1.104,0.272 -1.104,0.8 0,0.528 0.448,0.864 1.136,0.864 0.944,0 1.664,-0.656 1.664,-1.568 z m 9.999,-9.04 h 2.16 v 12 h -1.984 v -0.976 c -0.528,0.752 -1.456,1.168 -2.544,1.168 -2.208,0 -3.84,-1.76 -3.84,-4.144 0,-2.384 1.632,-4.144 3.84,-4.144 1.008,0 1.792,0.32 2.368,0.944 z m 0.032,8.048 c 0,-1.408 -0.912,-2.192 -2,-2.192 -1.152,0 -2.048,0.88 -2.048,2.176 0,1.328 0.88,2.192 2.048,2.192 1.088,0 2,-0.752 2,-2.176 z m 18.531,-6.8 h 0.704 V 42.5 h -2.16 v -5.632 l -2.656,3.328 h -0.704 L 147.22,36.868 V 42.5 h -2.16 V 31.748 h 0.704 l 4.464,5.712 z m 10.191,7.52 h -5.552 c 0.256,1.008 1.072,1.568 2.224,1.568 0.784,0 1.52,-0.272 2.208,-0.8 l 0.896,1.472 c -0.944,0.784 -2,1.184 -3.168,1.184 -2.448,0.048 -4.384,-1.856 -4.336,-4.144 -0.048,-2.288 1.856,-4.192 4.144,-4.144 2.192,0 3.728,1.616 3.728,3.68 0,0.384 -0.048,0.784 -0.144,1.184 z m -5.552,-1.52 h 3.6 c -0.016,-0.976 -0.768,-1.6 -1.712,-1.6 -0.912,0 -1.648,0.624 -1.888,1.6 z m 7.03,0.528 v -1.808 h 4.032 v 1.808 z m 12.46,-0.48 V 42.5 h -1.984 v -0.768 c -0.576,0.592 -1.408,0.96 -2.416,0.96 -1.68,0 -2.736,-0.976 -2.736,-2.368 0,-1.424 1.152,-2.304 2.992,-2.304 h 1.984 v -0.352 c 0,-0.88 -0.512,-1.392 -1.472,-1.392 -0.816,0 -1.392,0.336 -2.096,1.088 l -1.12,-1.328 c 0.912,-1.088 2.064,-1.632 3.456,-1.632 2.064,0 3.392,1.2 3.392,3.392 z m -2.16,1.744 v -0.096 h -1.696 c -0.704,0 -1.104,0.272 -1.104,0.8 0,0.528 0.448,0.864 1.136,0.864 0.944,0 1.664,-0.656 1.664,-1.568 z m 12.607,-1.008 c 0,2.368 -1.632,4.16 -3.84,4.16 -0.96,0 -1.792,-0.336 -2.368,-0.96 v 3.648 h -2.16 v -10.8 h 1.984 v 0.992 c 0.528,-0.752 1.456,-1.168 2.544,-1.168 2.208,0 3.84,1.76 3.84,4.128 z m -2.192,0.016 c 0,-1.328 -0.88,-2.192 -2.048,-2.192 -1.088,0 -2,0.752 -2,2.176 0,1.408 0.896,2.192 2,2.192 1.152,0 2.048,-0.88 2.048,-2.176 z m 12.255,-0.016 c 0,2.368 -1.632,4.16 -3.84,4.16 -0.96,0 -1.792,-0.336 -2.368,-0.96 v 3.648 h -2.16 v -10.8 h 1.984 v 0.992 c 0.528,-0.752 1.456,-1.168 2.544,-1.168 2.208,0 3.84,1.76 3.84,4.128 z m -2.192,0.016 c 0,-1.328 -0.88,-2.192 -2.048,-2.192 -1.088,0 -2,0.752 -2,2.176 0,1.408 0.896,2.192 2,2.192 1.152,0 2.048,-0.88 2.048,-2.176 z m 13.278,-3.968 h 2.288 l -3.92,8.112 h -0.72 l -3.92,-8.112 h 2.272 l 2,4.48 z m 2.785,3.952 c -0.048,-2.256 1.92,-4.176 4.24,-4.128 2.32,-0.032 4.304,1.872 4.256,4.128 0.048,2.256 -1.952,4.192 -4.272,4.144 -2.32,0.048 -4.272,-1.888 -4.224,-4.144 z m 6.288,0.016 c 0,-1.232 -0.88,-2.176 -2.048,-2.176 -1.2,0 -2.048,0.912 -2.048,2.176 0,1.232 0.848,2.144 2.048,2.144 1.168,0 2.048,-0.912 2.048,-2.144 z m 3.447,-0.016 c -0.048,-2.256 1.92,-4.176 4.24,-4.128 2.32,-0.032 4.304,1.872 4.256,4.128 0.048,2.256 -1.952,4.192 -4.272,4.144 -2.32,0.048 -4.272,-1.888 -4.224,-4.144 z m 6.288,0.016 c 0,-1.232 -0.88,-2.176 -2.048,-2.176 -1.2,0 -2.048,0.912 -2.048,2.176 0,1.232 0.848,2.144 2.048,2.144 1.168,0 2.048,-0.912 2.048,-2.144 z m 8.758,-3.968 v 1.904 h -0.576 c -1.296,0 -2.128,0.704 -2.128,2.064 V 42.5 h -2.16 v -7.92 h 1.984 v 0.944 c 0.528,-0.656 1.296,-1.04 2.176,-1.04 0.272,0 0.496,0.032 0.704,0.096 z m 5.823,7.92 v -7.92 h 2.16 v 7.92 z m -0.304,-10.8 c 0,-0.768 0.608,-1.344 1.376,-1.344 0.768,0 1.392,0.576 1.392,1.344 0,0.752 -0.624,1.328 -1.392,1.328 -0.768,0 -1.376,-0.576 -1.376,-1.328 z m 4.137,5.52 c -0.048,-3.024 2.56,-5.536 5.6,-5.472 3.04,-0.064 5.68,2.448 5.632,5.472 0.048,3.024 -2.592,5.536 -5.632,5.472 -3.04,0.064 -5.648,-2.448 -5.6,-5.472 z m 9.008,0 c 0,-2 -1.456,-3.472 -3.392,-3.472 -1.952,0 -3.392,1.44 -3.392,3.472 0,2.032 1.44,3.472 3.392,3.472 1.936,0 3.392,-1.44 3.392,-3.472 z m 3.317,3.136 1.488,-1.12 c 0.688,0.944 1.44,1.536 2.592,1.536 0.944,0 1.504,-0.448 1.504,-1.168 0,-0.624 -0.336,-0.848 -1.344,-1.312 l -1.136,-0.512 c -1.616,-0.72 -2.56,-1.632 -2.56,-3.04 0,-1.808 1.504,-2.992 3.504,-2.992 1.616,0 2.832,0.784 3.488,2 l -1.472,1.136 c -0.544,-0.816 -1.216,-1.216 -2.016,-1.216 -0.752,0 -1.312,0.368 -1.312,1.024 0,0.56 0.336,0.816 1.232,1.216 l 1.2,0.528 c 1.776,0.784 2.608,1.664 2.608,3.088 0,1.936 -1.584,3.168 -3.696,3.168 -1.792,0 -3.264,-0.912 -4.08,-2.336 z"
         fill="#004d93"
         id="path21" />
      <path
         d="m 327,31.6667 -0.94,0.94 3.72,3.7267 h -8.113 v 1.3333 h 8.113 l -3.72,3.7267 0.94,0.94 L 332.333,37 Z"
         fill="#004d93"
         id="path23" />
    </g>
    <rect
       x="5.5"
       y="3.5"
       width="349"
       height="67"
       rx="7.5"
       stroke="#e1e2e8"
       id="rect27" />
  </g>
  <defs
     id="defs62">
    <filter
       id="filter0_d_4_1722"
       x="0"
       y="0"
       width="360"
       height="78"
       filterUnits="userSpaceOnUse"
       color-interpolation-filters="sRGB">
      <feFlood
         flood-opacity="0"
         result="BackgroundImageFix"
         id="feFlood31" />
      <feColorMatrix
         in="SourceAlpha"
         type="matrix"
         values="0 0 0 0 0 0 0 0 0 0 0 0 0 0 0 0 0 0 127 0"
         result="hardAlpha"
         id="feColorMatrix33" />
      <feOffset
         dy="2"
         id="feOffset35" />
      <feGaussianBlur
         stdDeviation="2.5"
         id="feGaussianBlur37" />
      <feColorMatrix
         type="matrix"
         values="0 0 0 0 0.882353 0 0 0 0 0.886275 0 0 0 0 0.909804 0 0 0 0.4 0"
         id="feColorMatrix39" />
      <feBlend
         mode="multiply"
         in2="BackgroundImageFix"
         result="effect1_dropShadow_4_1722"
         id="feBlend41" />
      <feBlend
         mode="normal"
         in="SourceGraphic"
         in2="effect1_dropShadow_4_1722"
         result="shape"
         id="feBlend43" />
    </filter>
    <linearGradient
       id="paint0_linear_4_1722"
       x1="188"
       y1="48"
       x2="0"
       y2="48"
       gradientUnits="userSpaceOnUse">
      <stop
         stop-color="#D9D9D9"
         stop-opacity="0.35"
         id="stop46" />
      <stop
         offset="1"
         stop-color="#737373"
         id="stop48" />
    </linearGradient>
    <linearGradient
       id="paint1_linear_4_1722"
       x1="39"
       y1="23.002001"
       x2="39"
       y2="50.998501"
       gradientUnits="userSpaceOnUse">
      <stop
         stop-color="#00BFFC"
         id="stop51" />
      <stop
         offset="1"
         stop-color="#0073F6"
         id="stop53" />
    </linearGradient>
    <clipPath
       id="clip0_4_1722">
      <rect
         x="5"
         y="3"
         width="350"
         height="68"
         rx="8"
         fill="#ffffff"
         id="rect56" />
    </clipPath>
    <clipPath
       id="clip1_4_1722">
      <rect
         width="28"
         height="28"
         fill="#ffffff"
         transform="translate(25,23)"
         id="rect59"
         x="0"
         y="0" />
    </clipPath>
  </defs>
</svg>
