<svg width="40" height="40" viewBox="0 0 40 40" fill="none" xmlns="http://www.w3.org/2000/svg">
<path d="M4.4629 4.3346C0.946118 7.92776 -0.281964 16.5779 0.0529674 23.0989C0.23904 26.749 1.07637 33.327 4.57454 36.1977C7.66336 38.7643 13.8782 40 20 40C26.1218 40 32.3366 38.7262 35.4255 36.1977C38.9236 33.327 39.761 26.692 39.947 23.0989C40.282 16.5779 39.0539 7.88973 35.5371 4.3346C29.8805 -1.44487 10.1195 -1.44487 4.4629 4.3346Z" fill="url(#paint0_linear_2122_22399)"/>
<g clip-path="url(#clip0_2122_22399)">
<path fill-rule="evenodd" clip-rule="evenodd" d="M30.3229 19.0403V12.3186C30.3229 11.6186 30.0444 10.9465 29.5499 10.451C29.0544 9.95645 28.3823 9.67798 27.6822 9.67798C24.0026 9.67798 15.998 9.67798 12.3184 9.67798C11.6184 9.67798 10.9462 9.95645 10.4507 10.451C9.9562 10.9465 9.67773 11.6186 9.67773 12.3186V27.6825C9.67773 28.3825 9.9562 29.0547 10.4507 29.5501C10.9462 30.0447 11.6184 30.3231 12.3184 30.3231H19.0401C19.4376 30.3231 19.7603 30.0005 19.7603 29.603C19.7603 29.2054 19.4376 28.8828 19.0401 28.8828C19.0401 28.8828 14.865 28.8828 12.3184 28.8828C11.9996 28.8828 11.6952 28.756 11.4695 28.5313C11.2448 28.3057 11.1181 28.0013 11.1181 27.6825V12.3186C11.1181 11.9998 11.2448 11.6954 11.4695 11.4698C11.6952 11.2451 11.9996 11.1183 12.3184 11.1183H27.6822C28.001 11.1183 28.3054 11.2451 28.5311 11.4698C28.7558 11.6954 28.8825 11.9998 28.8825 12.3186V19.0403C28.8825 19.4379 29.2052 19.7605 29.6027 19.7605C30.0003 19.7605 30.3229 19.4379 30.3229 19.0403Z" fill="#273266"/>
<path fill-rule="evenodd" clip-rule="evenodd" d="M10.3979 15.9191H29.6027C30.0003 15.9191 30.3229 15.5965 30.3229 15.1989C30.3229 14.8014 30.0003 14.4788 29.6027 14.4788H10.3979C10.0004 14.4788 9.67773 14.8014 9.67773 15.1989C9.67773 15.5965 10.0004 15.9191 10.3979 15.9191Z" fill="#273266"/>
<path fill-rule="evenodd" clip-rule="evenodd" d="M12.7983 13.5185H13.7585C14.1561 13.5185 14.4787 13.1958 14.4787 12.7983C14.4787 12.4008 14.1561 12.0781 13.7585 12.0781H12.7983C12.4008 12.0781 12.0781 12.4008 12.0781 12.7983C12.0781 13.1958 12.4008 13.5185 12.7983 13.5185Z" fill="#273266"/>
<path fill-rule="evenodd" clip-rule="evenodd" d="M16.1596 13.5185H17.1199C17.5174 13.5185 17.8401 13.1958 17.8401 12.7983C17.8401 12.4008 17.5174 12.0781 17.1199 12.0781H16.1596C15.7621 12.0781 15.4395 12.4008 15.4395 12.7983C15.4395 13.1958 15.7621 13.5185 16.1596 13.5185Z" fill="#273266"/>
<path fill-rule="evenodd" clip-rule="evenodd" d="M19.52 13.5185H20.4802C20.8778 13.5185 21.2004 13.1958 21.2004 12.7983C21.2004 12.4008 20.8778 12.0781 20.4802 12.0781H19.52C19.1224 12.0781 18.7998 12.4008 18.7998 12.7983C18.7998 13.1958 19.1224 13.5185 19.52 13.5185Z" fill="#273266"/>
<path fill-rule="evenodd" clip-rule="evenodd" d="M24.8011 21.2004C22.8134 21.2004 21.2002 22.8136 21.2002 24.8013C21.2002 26.789 22.8134 28.4022 24.8011 28.4022C26.7888 28.4022 28.402 26.789 28.402 24.8013C28.402 22.8136 26.7888 21.2004 24.8011 21.2004ZM24.8011 22.6408C25.9937 22.6408 26.9616 23.6087 26.9616 24.8013C26.9616 25.994 25.9937 26.9619 24.8011 26.9619C23.6085 26.9619 22.6406 25.994 22.6406 24.8013C22.6406 23.6087 23.6085 22.6408 24.8011 22.6408Z" fill="#273266"/>
<path fill-rule="evenodd" clip-rule="evenodd" d="M27.6821 25.5214H29.6026C30.0001 25.5214 30.3228 25.1988 30.3228 24.8012C30.3228 24.4037 30.0001 24.0811 29.6026 24.0811H27.6821C27.2846 24.0811 26.9619 24.4037 26.9619 24.8012C26.9619 25.1988 27.2846 25.5214 27.6821 25.5214Z" fill="#273266"/>
<path fill-rule="evenodd" clip-rule="evenodd" d="M27.348 23.2736L28.7058 21.9159C28.9871 21.6345 28.9871 21.1784 28.7058 20.897C28.4244 20.6157 27.9683 20.6157 27.687 20.897L26.3292 22.2548C26.0478 22.5362 26.0478 22.9923 26.3292 23.2736C26.6105 23.555 27.0666 23.555 27.348 23.2736Z" fill="#273266"/>
<path fill-rule="evenodd" clip-rule="evenodd" d="M25.5214 21.9207V20.0002C25.5214 19.6027 25.1988 19.28 24.8012 19.28C24.4037 19.28 24.0811 19.6027 24.0811 20.0002V21.9207C24.0811 22.3182 24.4037 22.6409 24.8012 22.6409C25.1988 22.6409 25.5214 22.3182 25.5214 21.9207Z" fill="#273266"/>
<path fill-rule="evenodd" clip-rule="evenodd" d="M23.2741 22.2548L21.9164 20.897C21.635 20.6157 21.1789 20.6157 20.8975 20.897C20.6162 21.1784 20.6162 21.6345 20.8975 21.9159L22.2553 23.2736C22.5367 23.555 22.9928 23.555 23.2741 23.2736C23.5555 22.9923 23.5555 22.5362 23.2741 22.2548Z" fill="#273266"/>
<path fill-rule="evenodd" clip-rule="evenodd" d="M21.9209 24.0811H20.0005C19.6029 24.0811 19.2803 24.4037 19.2803 24.8012C19.2803 25.1988 19.6029 25.5214 20.0005 25.5214H21.9209C22.3185 25.5214 22.6411 25.1988 22.6411 24.8012C22.6411 24.4037 22.3185 24.0811 21.9209 24.0811Z" fill="#273266"/>
<path fill-rule="evenodd" clip-rule="evenodd" d="M22.2553 26.3292L20.8975 27.687C20.6162 27.9683 20.6162 28.4244 20.8975 28.7058C21.1789 28.9871 21.635 28.9871 21.9164 28.7058L23.2741 27.348C23.5555 27.0666 23.5555 26.6105 23.2741 26.3292C22.9928 26.0478 22.5367 26.0478 22.2553 26.3292Z" fill="#273266"/>
<path fill-rule="evenodd" clip-rule="evenodd" d="M24.0811 27.6821V29.6026C24.0811 30.0001 24.4037 30.3228 24.8012 30.3228C25.1988 30.3228 25.5214 30.0001 25.5214 29.6026V27.6821C25.5214 27.2846 25.1988 26.9619 24.8012 26.9619C24.4037 26.9619 24.0811 27.2846 24.0811 27.6821Z" fill="#273266"/>
<path fill-rule="evenodd" clip-rule="evenodd" d="M26.3292 27.348L27.687 28.7058C27.9683 28.9871 28.4244 28.9871 28.7058 28.7058C28.9871 28.4244 28.9871 27.9683 28.7058 27.687L27.348 26.3292C27.0666 26.0478 26.6105 26.0478 26.3292 26.3292C26.0478 26.6105 26.0478 27.0666 26.3292 27.348Z" fill="#273266"/>
</g>
<defs>
<linearGradient id="paint0_linear_2122_22399" x1="0" y1="0" x2="28.2775" y2="47.046" gradientUnits="userSpaceOnUse">
<stop offset="0.433962" stop-color="#F1F2F4"/>
<stop offset="1" stop-color="#F1F2F4" stop-opacity="0"/>
</linearGradient>
<clipPath id="clip0_2122_22399">
<rect width="20.6452" height="20.6452" fill="white" transform="translate(9.67773 9.67749)"/>
</clipPath>
</defs>
</svg>
