<svg width="40" height="40" viewBox="0 0 40 40" fill="none" xmlns="http://www.w3.org/2000/svg">
<path d="M4.4629 4.3346C0.946118 7.92776 -0.281964 16.5779 0.0529674 23.0989C0.23904 26.749 1.07637 33.327 4.57454 36.1977C7.66336 38.7643 13.8782 40 20 40C26.1218 40 32.3366 38.7262 35.4255 36.1977C38.9236 33.327 39.761 26.692 39.947 23.0989C40.282 16.5779 39.0539 7.88973 35.5371 4.3346C29.8805 -1.44487 10.1195 -1.44487 4.4629 4.3346Z" fill="#315EFD"/>
<g clip-path="url(#clip0_2122_22463)">
<path fill-rule="evenodd" clip-rule="evenodd" d="M19.1174 23.4819C18.9536 23.6 18.765 23.6725 18.5616 23.6725C17.8261 23.6725 17.3209 22.8556 17.3209 21.9355C17.3209 21.0154 17.8261 20.1986 18.5616 20.1986C18.765 20.1986 18.9536 20.271 19.1174 20.3891C19.4509 20.6303 19.9164 20.5559 20.1576 20.2234C20.3978 19.8899 20.3233 19.4244 19.9908 19.1832C19.571 18.8794 19.0817 18.7097 18.5616 18.7097C17.1045 18.7097 15.832 20.1142 15.832 21.9355C15.832 23.7569 17.1045 25.1613 18.5616 25.1613C19.0817 25.1613 19.571 24.9916 19.9908 24.6879C20.3233 24.4467 20.3978 23.9812 20.1576 23.6477C19.9164 23.3152 19.4509 23.2407 19.1174 23.4819Z" fill="white"/>
<path fill-rule="evenodd" clip-rule="evenodd" d="M15.5843 22.6805H18.5619C18.9728 22.6805 19.3063 22.347 19.3063 21.9361C19.3063 21.5251 18.9728 21.1917 18.5619 21.1917H15.5843C15.1733 21.1917 14.8398 21.5251 14.8398 21.9361C14.8398 22.347 15.1733 22.6805 15.5843 22.6805Z" fill="white"/>
<path fill-rule="evenodd" clip-rule="evenodd" d="M26.7491 17.8835C26.7491 17.3021 26.5179 16.7431 26.1062 16.3314C25.6945 15.9197 25.1355 15.6885 24.5541 15.6885C21.5767 15.6885 14.8482 15.6885 11.8718 15.6885C11.2894 15.6885 10.7313 15.9197 10.3197 16.3314C9.90797 16.7431 9.67676 17.3021 9.67676 17.8835V25.688C9.67676 26.2704 9.90797 26.8284 10.3197 27.2401C10.7313 27.6518 11.2894 27.883 11.8718 27.883H24.5541C25.1355 27.883 25.6945 27.6518 26.1062 27.2401C26.5179 26.8284 26.7491 26.2704 26.7491 25.688V17.8835ZM25.2858 17.8835V25.688C25.2858 25.8821 25.2087 26.0685 25.0711 26.206C24.9336 26.3426 24.7473 26.4197 24.5541 26.4197C21.5767 26.4197 14.8482 26.4197 11.8718 26.4197C11.6776 26.4197 11.4913 26.3426 11.3537 26.206C11.2172 26.0685 11.1401 25.8821 11.1401 25.688V17.8835C11.1401 17.6903 11.2172 17.504 11.3537 17.3664C11.4913 17.2289 11.6776 17.1518 11.8718 17.1518H24.5541C24.7473 17.1518 24.9336 17.2289 25.0711 17.3664C25.2087 17.504 25.2858 17.6903 25.2858 17.8835Z" fill="white"/>
<path fill-rule="evenodd" clip-rule="evenodd" d="M26.2069 24.6367C27.1707 24.3781 28.0302 24.1479 28.6955 23.9694C29.2575 23.8191 29.7374 23.4514 30.0281 22.947C30.3189 22.4426 30.3979 21.8436 30.2476 21.2817C29.7169 19.3013 28.758 15.7229 28.2273 13.7426C28.077 13.1806 27.7092 12.7007 27.2049 12.4099C26.7005 12.1192 26.1015 12.0402 25.5396 12.1904C22.6636 12.9611 15.5332 14.8723 12.6573 15.642C12.268 15.7464 12.0358 16.1483 12.1402 16.5385C12.2446 16.9287 12.6465 17.16 13.0368 17.0556C15.9118 16.2849 23.0431 14.3747 25.9181 13.604C26.1054 13.5543 26.3054 13.5806 26.4732 13.6772C26.641 13.7738 26.7639 13.9338 26.8137 14.1211L28.8341 21.6602C28.8838 21.8475 28.8575 22.0475 28.7609 22.2153C28.6643 22.3831 28.5043 22.506 28.317 22.5558C27.6507 22.7343 26.7912 22.9646 25.8274 23.2231C25.4381 23.3275 25.2059 23.7294 25.3103 24.1196C25.4147 24.5089 25.8166 24.7411 26.2069 24.6367Z" fill="white"/>
</g>
<defs>
<clipPath id="clip0_2122_22463">
<rect width="20.6452" height="20.6452" fill="white" transform="translate(9.67773 9.67749)"/>
</clipPath>
</defs>
</svg>
