<svg width="40" height="40" viewBox="0 0 40 40" fill="none" xmlns="http://www.w3.org/2000/svg">
<path d="M4.4629 4.3346C0.946118 7.92776 -0.281964 16.5779 0.0529674 23.0989C0.23904 26.749 1.07637 33.327 4.57454 36.1977C7.66336 38.7643 13.8782 40 20 40C26.1218 40 32.3366 38.7262 35.4255 36.1977C38.9236 33.327 39.761 26.692 39.947 23.0989C40.282 16.5779 39.0539 7.88973 35.5371 4.3346C29.8805 -1.44487 10.1195 -1.44487 4.4629 4.3346Z" fill="#315EFD"/>
<g clip-path="url(#clip0_2122_22500)">
<path fill-rule="evenodd" clip-rule="evenodd" d="M26.6884 17.5995V15.9939C26.6884 15.2939 26.4099 14.6227 25.9144 14.1272C24.9907 13.2035 23.1624 11.3752 22.2386 10.4505C21.7431 9.95596 21.0719 9.67749 20.371 9.67749H12.3184C11.6184 9.67749 10.9462 9.95596 10.4507 10.4505C9.9562 10.946 9.67773 11.6181 9.67773 12.3182V27.682C9.67773 28.382 9.9562 29.0542 10.4507 29.5497C10.9462 30.0442 11.6184 30.3227 12.3184 30.3227H17.1196C17.5171 30.3227 17.8398 30 17.8398 29.6025C17.8398 29.2049 17.5171 28.8823 17.1196 28.8823H12.3184C11.9996 28.8823 11.6952 28.7555 11.4695 28.5308C11.2448 28.3052 11.1181 28.0008 11.1181 27.682V12.3182C11.1181 11.9994 11.2448 11.695 11.4695 11.4693C11.6952 11.2446 11.9996 11.1179 12.3184 11.1179H20.371C20.6898 11.1179 20.9951 11.2446 21.2198 11.4693L24.8966 15.1461C25.1213 15.3708 25.248 15.6761 25.248 15.9939V17.5995C25.248 17.997 25.5707 18.3197 25.9682 18.3197C26.3657 18.3197 26.6884 17.997 26.6884 17.5995Z" fill="white"/>
<path fill-rule="evenodd" clip-rule="evenodd" d="M20.4473 10.8779V14.2387C20.4473 15.1673 21.1991 15.9192 22.1277 15.9192H25.4885C25.8861 15.9192 26.2087 15.5965 26.2087 15.199C26.2087 14.8014 25.8861 14.4788 25.4885 14.4788H22.1277C21.9952 14.4788 21.8876 14.3712 21.8876 14.2387V10.8779C21.8876 10.4804 21.565 10.1577 21.1674 10.1577C20.7699 10.1577 20.4473 10.4804 20.4473 10.8779Z" fill="white"/>
<path fill-rule="evenodd" clip-rule="evenodd" d="M13.7592 15.9191H16.64C17.0375 15.9191 17.3601 15.5965 17.3601 15.1989C17.3601 14.8014 17.0375 14.4788 16.64 14.4788H13.7592C13.3617 14.4788 13.0391 14.8014 13.0391 15.1989C13.0391 15.5965 13.3617 15.9191 13.7592 15.9191Z" fill="white"/>
<path fill-rule="evenodd" clip-rule="evenodd" d="M13.7592 21.6806H16.64C17.0375 21.6806 17.3601 21.358 17.3601 20.9604C17.3601 20.5629 17.0375 20.2402 16.64 20.2402H13.7592C13.3617 20.2402 13.0391 20.5629 13.0391 20.9604C13.0391 21.358 13.3617 21.6806 13.7592 21.6806Z" fill="white"/>
<path fill-rule="evenodd" clip-rule="evenodd" d="M13.7592 18.7997H19.5207C19.9182 18.7997 20.2409 18.4771 20.2409 18.0796C20.2409 17.682 19.9182 17.3594 19.5207 17.3594H13.7592C13.3617 17.3594 13.0391 17.682 13.0391 18.0796C13.0391 18.4771 13.3617 18.7997 13.7592 18.7997Z" fill="white"/>
<path fill-rule="evenodd" clip-rule="evenodd" d="M30.3227 25.7615C30.3227 25.3159 30.146 24.8886 29.8301 24.5737C29.5151 24.2577 29.0878 24.0811 28.6423 24.0811H26.2417C25.8441 24.0811 25.5215 24.4037 25.5215 24.8012V29.6024C25.5215 30 25.8441 30.3226 26.2417 30.3226H28.6423C29.0878 30.3226 29.5151 30.1459 29.8301 29.83C30.146 29.5151 30.3227 29.0877 30.3227 28.6422V25.7615ZM28.8823 25.7615V28.6422C28.8823 28.7056 28.8574 28.767 28.8122 28.8122C28.7671 28.8573 28.7056 28.8823 28.6423 28.8823H26.9618V25.5214H28.6423C28.7056 25.5214 28.7671 25.5464 28.8122 25.5915C28.8574 25.6366 28.8823 25.6981 28.8823 25.7615Z" fill="white"/>
<path fill-rule="evenodd" clip-rule="evenodd" d="M26.9623 29.6024V20.9602C26.9623 20.0317 26.2095 19.2798 25.2819 19.2798H23.8416C22.914 19.2798 22.1611 20.0317 22.1611 20.9602V29.6024C22.1611 29.9999 22.4838 30.3225 22.8813 30.3225H26.2422C26.6397 30.3225 26.9623 29.9999 26.9623 29.6024ZM25.522 20.9602V28.8822H23.6015V20.9602C23.6015 20.8277 23.709 20.7201 23.8416 20.7201H25.2819C25.4144 20.7201 25.522 20.8277 25.522 20.9602Z" fill="white"/>
<path fill-rule="evenodd" clip-rule="evenodd" d="M23.601 22.8808C23.601 22.4833 23.2784 22.1606 22.8808 22.1606H20.4802C20.0347 22.1606 19.6074 22.3373 19.2924 22.6532C18.9765 22.9682 18.7998 23.3955 18.7998 23.8411V28.6423C18.7998 29.0878 18.9765 29.5151 19.2924 29.8301C19.6074 30.146 20.0347 30.3227 20.4802 30.3227H22.8808C23.2784 30.3227 23.601 30 23.601 29.6025V22.8808ZM22.1606 23.601V28.8823H20.4802C20.4168 28.8823 20.3554 28.8574 20.3103 28.8122C20.2651 28.7671 20.2402 28.7056 20.2402 28.6423V23.8411C20.2402 23.7777 20.2651 23.7162 20.3103 23.6711C20.3554 23.626 20.4168 23.601 20.4802 23.601H22.1606Z" fill="white"/>
</g>
<defs>
<clipPath id="clip0_2122_22500">
<rect width="20.6452" height="20.6452" fill="white" transform="translate(9.67773 9.67749)"/>
</clipPath>
</defs>
</svg>
