<svg width="40" height="40" viewBox="0 0 40 40" fill="none" xmlns="http://www.w3.org/2000/svg">
<path d="M4.4629 4.3346C0.946118 7.92776 -0.281964 16.5779 0.0529674 23.0989C0.23904 26.749 1.07637 33.327 4.57454 36.1977C7.66336 38.7643 13.8782 40 20 40C26.1218 40 32.3366 38.7262 35.4255 36.1977C38.9236 33.327 39.761 26.692 39.947 23.0989C40.282 16.5779 39.0539 7.88973 35.5371 4.3346C29.8805 -1.44487 10.1195 -1.44487 4.4629 4.3346Z" fill="url(#paint0_linear_2122_22377)"/>
<g clip-path="url(#clip0_2122_22377)">
<path fill-rule="evenodd" clip-rule="evenodd" d="M23.8411 30.3227C25.2988 30.3227 26.4818 29.1396 26.4818 27.682V12.3182C26.4818 10.8605 25.2988 9.67749 23.8411 9.67749H16.1592C14.7016 9.67749 13.5186 10.8605 13.5186 12.3182V27.682C13.5186 29.1396 14.7016 30.3227 16.1592 30.3227H23.8411ZM23.8411 28.8823H16.1592C15.4966 28.8823 14.9589 28.3446 14.9589 27.682V12.3182C14.9589 11.6556 15.4966 11.1179 16.1592 11.1179H23.8411C24.5037 11.1179 25.0414 11.6556 25.0414 12.3182V27.682C25.0414 28.3446 24.5037 28.8823 23.8411 28.8823Z" fill="#273266"/>
<path fill-rule="evenodd" clip-rule="evenodd" d="M18.0796 12.0781H21.9205C22.3181 12.0781 22.6407 11.7554 22.6407 11.3579C22.6407 10.9603 22.3181 10.6377 21.9205 10.6377H18.0796C17.682 10.6377 17.3594 10.9603 17.3594 11.3579C17.3594 11.7554 17.682 12.0781 18.0796 12.0781Z" fill="#273266"/>
<path fill-rule="evenodd" clip-rule="evenodd" d="M19.9999 17.0935C18.1441 17.0935 16.6396 18.5548 16.6396 20.3573C16.6396 21.2613 17.018 22.0794 17.6294 22.6703C17.6687 22.7081 17.7357 22.6992 17.7625 22.6522C18.0489 22.1496 18.551 21.7566 19.1637 21.5653C18.7639 21.3036 18.5011 20.8601 18.5011 20.357C18.5011 19.5528 19.1721 18.9013 19.9999 18.9013C20.8276 18.9013 21.4987 19.5528 21.4987 20.357C21.4987 20.8601 21.2356 21.3036 20.8361 21.5653C21.4488 21.7566 21.9508 22.1496 22.2372 22.6522C22.2638 22.6992 22.331 22.7081 22.3701 22.6703C22.9814 22.0794 23.3601 21.2613 23.3601 20.3573C23.3601 18.5548 21.8556 17.0935 19.9999 17.0935Z" fill="#273266"/>
</g>
<defs>
<linearGradient id="paint0_linear_2122_22377" x1="0" y1="0" x2="28.2775" y2="47.046" gradientUnits="userSpaceOnUse">
<stop offset="0.433962" stop-color="#F1F2F4"/>
<stop offset="1" stop-color="#F1F2F4" stop-opacity="0"/>
</linearGradient>
<clipPath id="clip0_2122_22377">
<rect width="20.6452" height="20.6452" fill="white" transform="translate(9.67773 9.67749)"/>
</clipPath>
</defs>
</svg>
