<svg width="40" height="40" viewBox="0 0 40 40" fill="none" xmlns="http://www.w3.org/2000/svg">
<path d="M4.4629 4.3346C0.946119 7.92776 -0.281964 16.5779 0.0529675 23.0989C0.239041 26.7491 1.07637 33.327 4.57454 36.1977C7.66336 38.7643 13.8782 40 20 40C26.1218 40 32.3366 38.7262 35.4255 36.1977C38.9236 33.327 39.761 26.692 39.947 23.0989C40.282 16.5779 39.0539 7.88973 35.5371 4.3346C29.8805 -1.44487 10.1195 -1.44487 4.4629 4.3346Z" fill="url(#paint0_linear_2122_22523)"/>
<g clip-path="url(#clip0_2122_22523)">
<path fill-rule="evenodd" clip-rule="evenodd" d="M19.9993 9.67725C14.3022 9.67725 9.67676 14.3027 9.67676 19.9998C9.67676 25.6969 14.3022 30.3224 19.9993 30.3224C25.6964 30.3224 30.3219 25.6969 30.3219 19.9998C30.3219 14.3027 25.6964 9.67725 19.9993 9.67725ZM19.9993 11.1176C24.9014 11.1176 28.8816 15.0978 28.8816 19.9998C28.8816 24.9019 24.9014 28.882 19.9993 28.882C15.0973 28.882 11.1171 24.9019 11.1171 19.9998C11.1171 15.0978 15.0973 11.1176 19.9993 11.1176Z" fill="#273266"/>
<path fill-rule="evenodd" clip-rule="evenodd" d="M26.2178 12.8969C24.6152 14.4688 22.4201 15.4387 20.0002 15.4387C17.5804 15.4387 15.3853 14.4688 13.7827 12.8969C13.4994 12.6185 13.0423 12.6233 12.7648 12.9075C12.4864 13.1908 12.4902 13.6469 12.7744 13.9253C14.6373 15.7517 17.1877 16.879 20.0002 16.879C22.8128 16.879 25.3632 15.7517 27.2261 13.9253C27.5103 13.6469 27.5141 13.1908 27.2357 12.9075C26.9581 12.6233 26.5011 12.6185 26.2178 12.8969Z" fill="#273266"/>
<path fill-rule="evenodd" clip-rule="evenodd" d="M13.7827 27.1027C15.3853 25.5308 17.5804 24.561 20.0002 24.561C22.4201 24.561 24.6152 25.5308 26.2178 27.1027C26.5011 27.3812 26.9581 27.3764 27.2357 27.0922C27.5141 26.8089 27.5103 26.3528 27.2261 26.0743C25.3632 24.2479 22.8128 23.1206 20.0002 23.1206C17.1877 23.1206 14.6373 24.2479 12.7744 26.0743C12.4902 26.3528 12.4864 26.8089 12.7648 27.0922C13.0423 27.3764 13.4994 27.3812 13.7827 27.1027Z" fill="#273266"/>
<path fill-rule="evenodd" clip-rule="evenodd" d="M19.9996 9.67725C18.9405 9.67725 17.8938 10.4512 17.0997 11.906C16.103 13.7323 15.4385 16.6774 15.4385 19.9998C15.4385 23.3223 16.103 26.2673 17.0997 28.0937C17.8938 29.5485 18.9405 30.3224 19.9996 30.3224C21.0588 30.3224 22.1054 29.5485 22.8995 28.0937C23.8963 26.2673 24.5608 23.3223 24.5608 19.9998C24.5608 16.6774 23.8963 13.7323 22.8995 11.906C22.1054 10.4512 21.0588 9.67725 19.9996 9.67725ZM19.9996 11.1176C20.2646 11.1176 20.5133 11.2415 20.7524 11.4402C21.0741 11.7091 21.367 12.1047 21.6349 12.5964C22.5462 14.2653 23.1204 16.9626 23.1204 19.9998C23.1204 23.0371 22.5462 25.7344 21.6349 27.4033C21.367 27.8949 21.0741 28.2905 20.7524 28.5594C20.5133 28.7582 20.2646 28.882 19.9996 28.882C19.7346 28.882 19.4859 28.7582 19.2468 28.5594C18.9251 28.2905 18.6322 27.8949 18.3643 27.4033C17.4531 25.7344 16.8788 23.0371 16.8788 19.9998C16.8788 16.9626 17.4531 14.2653 18.3643 12.5964C18.6322 12.1047 18.9251 11.7091 19.2468 11.4402C19.4859 11.2415 19.7346 11.1176 19.9996 11.1176Z" fill="#273266"/>
<path fill-rule="evenodd" clip-rule="evenodd" d="M29.6017 19.2798H10.3969C9.9994 19.2798 9.67676 19.6024 9.67676 20C9.67676 20.3975 9.9994 20.7201 10.3969 20.7201H29.6017C29.9993 20.7201 30.3219 20.3975 30.3219 20C30.3219 19.6024 29.9993 19.2798 29.6017 19.2798Z" fill="#273266"/>
</g>
<defs>
<linearGradient id="paint0_linear_2122_22523" x1="0" y1="0" x2="28.2775" y2="47.046" gradientUnits="userSpaceOnUse">
<stop offset="0.433962" stop-color="#F1F2F4"/>
<stop offset="1" stop-color="#F1F2F4" stop-opacity="0"/>
</linearGradient>
<clipPath id="clip0_2122_22523">
<rect width="20.6452" height="20.6452" fill="white" transform="translate(9.67773 9.67725)"/>
</clipPath>
</defs>
</svg>
