<svg width="17" height="17" viewBox="0 0 17 17" fill="none" xmlns="http://www.w3.org/2000/svg">
<g clip-path="url(#clip0_1134_6757)">
<path d="M15.7381 12.7475C15.6949 12.7422 15.6551 12.7213 15.6264 12.6886C15.5976 12.656 15.5819 12.6139 15.5822 12.5704V9.40413C15.5822 9.21627 15.5076 9.03611 15.3748 8.90327C15.2419 8.77043 15.0618 8.6958 14.8739 8.6958C14.686 8.6958 14.5059 8.77043 14.373 8.90327C14.2402 9.03611 14.1656 9.21627 14.1656 9.40413V12.535C14.1656 12.5819 14.1469 12.627 14.1137 12.6602C14.0805 12.6934 14.0354 12.7121 13.9885 12.7121H10.9781C10.8841 12.7121 10.794 12.7494 10.7276 12.8158C10.6612 12.8822 10.6239 12.9723 10.6239 13.0662C10.6239 13.5691 9.75264 14.1287 8.49889 14.1287C7.24514 14.1287 6.37389 13.5691 6.37389 13.0662C6.37389 12.9723 6.33658 12.8822 6.27016 12.8158C6.20374 12.7494 6.11366 12.7121 6.01973 12.7121H3.00931C2.96235 12.7121 2.9173 12.6934 2.88409 12.6602C2.85088 12.627 2.83223 12.5819 2.83223 12.535V9.52455C2.83223 9.33669 2.7576 9.15652 2.62476 9.02368C2.49192 8.89085 2.31176 8.81622 2.12389 8.81622C1.93603 8.81622 1.75587 8.89085 1.62303 9.02368C1.49019 9.15652 1.41556 9.33669 1.41556 9.52455V12.542C1.41611 12.5845 1.40139 12.6257 1.37409 12.6582C1.34678 12.6907 1.30871 12.7123 1.26681 12.7191C1.10466 12.744 0.950283 12.8054 0.815313 12.8987C0.680343 12.9919 0.568305 13.1146 0.487645 13.2575C0.390285 13.4202 0.338867 13.6062 0.338867 13.7958C0.338867 13.9854 0.390285 14.1714 0.487645 14.3341C0.852225 14.933 1.36523 15.4276 1.977 15.7701C2.58878 16.1126 3.27861 16.2914 3.97973 16.2891H13.0181C13.7105 16.2917 14.3921 16.1173 14.9983 15.7826C15.6044 15.4479 16.1151 14.964 16.4818 14.3766C16.5787 14.2268 16.6364 14.055 16.6494 13.877C16.6624 13.699 16.6303 13.5206 16.5562 13.3583C16.4821 13.196 16.3683 13.0549 16.2253 12.9482C16.0823 12.8414 15.9148 12.7724 15.7381 12.7475Z" fill="#7780A0"/>
<path d="M17.0002 4.47561C17.0002 4.47561 17.0002 4.47561 17.0002 4.43311L15.7535 1.41561C15.6817 1.21503 15.5517 1.04045 15.3801 0.914254C15.2084 0.788055 15.003 0.715983 14.7902 0.707275H12.8423C12.8159 0.707822 12.79 0.714508 12.7666 0.726803C12.7433 0.739098 12.7231 0.756663 12.7077 0.778109C12.69 0.79949 12.6775 0.824734 12.6714 0.851803C12.6652 0.878872 12.6655 0.907009 12.6723 0.933942L13.6143 4.39061C13.6212 4.43758 13.6212 4.4853 13.6143 4.53228V7.08228C13.6134 7.11885 13.6237 7.15483 13.644 7.18527C13.6643 7.21571 13.6935 7.23912 13.7277 7.25228C14.0215 7.36943 14.3358 7.42664 14.6521 7.42056C14.9684 7.41448 15.2802 7.34522 15.5693 7.21686C15.978 7.04294 16.3285 6.75586 16.5795 6.38942C16.8305 6.02298 16.9715 5.59244 16.986 5.14853V4.48269L17.0002 4.47561Z" fill="url(#paint0_linear_1134_6757)"/>
<path d="M12.5731 4.63265C12.577 4.61635 12.577 4.59936 12.5731 4.58306L11.546 0.87848C11.5356 0.840949 11.5135 0.807702 11.4829 0.783519C11.4524 0.759336 11.415 0.745464 11.376 0.743896H9.20854C9.16157 0.743896 9.11653 0.762553 9.08332 0.795763C9.05011 0.828973 9.03145 0.874014 9.03145 0.92098V7.55098C9.0298 7.58494 9.03836 7.61861 9.05604 7.64766C9.07371 7.6767 9.09969 7.69977 9.13062 7.7139C9.67355 7.97892 10.2783 8.09154 10.8802 8.03973C11.4845 7.99201 12.0657 7.78687 12.566 7.44473V4.6114L12.5731 4.63265Z" fill="url(#paint1_linear_1134_6757)"/>
<path d="M3.36458 4.53348C3.36111 4.48632 3.36111 4.43897 3.36458 4.39181L4.32083 0.970563C4.33326 0.94647 4.33974 0.919755 4.33974 0.892646C4.33974 0.865538 4.33326 0.838823 4.32083 0.81473C4.30398 0.793128 4.28251 0.77556 4.258 0.763306C4.23349 0.751052 4.20656 0.744421 4.17917 0.743896H2.21C2.00127 0.749782 1.79883 0.816636 1.62765 0.936213C1.45646 1.05579 1.32402 1.22286 1.24667 1.41681L0 4.34223V4.38473V5.02931C0.0118885 5.47388 0.1519 5.90556 0.40321 6.27247C0.654519 6.63938 1.00643 6.92592 1.41667 7.09765C1.70578 7.22601 2.01765 7.29526 2.33392 7.30135C2.6502 7.30743 2.96449 7.25021 3.25833 7.13306C3.29807 7.12807 3.33523 7.11072 3.36458 7.08348V4.53348Z" fill="url(#paint2_linear_1134_6757)"/>
<path d="M7.97013 0.92098C7.97013 0.874014 7.95148 0.828973 7.91827 0.795763C7.88506 0.762553 7.84001 0.743896 7.79305 0.743896H5.62555C5.5854 0.743958 5.54636 0.757141 5.5144 0.781436C5.48243 0.805732 5.45928 0.83981 5.44847 0.87848C5.38472 1.14056 5.15805 1.95515 4.43555 4.58306C4.43164 4.59936 4.43164 4.61635 4.43555 4.63265V7.33848C4.43582 7.36767 4.44302 7.39639 4.45657 7.42225C4.47012 7.44811 4.48962 7.47039 4.51347 7.48723C5.00078 7.80139 5.55778 7.99111 6.13555 8.03973H6.41888C6.92482 8.03899 7.4239 7.92269 7.87805 7.69973C7.90684 7.68479 7.93117 7.66251 7.94858 7.63514C7.966 7.60778 7.97587 7.5763 7.97722 7.54389L7.97013 0.92098Z" fill="url(#paint3_linear_1134_6757)"/>
</g>
<defs>
<linearGradient id="paint0_linear_1134_6757" x1="17.0002" y1="7.421" x2="17.0002" y2="0.707275" gradientUnits="userSpaceOnUse">
<stop stop-color="#909ABA"/>
<stop offset="1" stop-color="#AAB5CF"/>
</linearGradient>
<linearGradient id="paint1_linear_1134_6757" x1="12.5761" y1="8.05202" x2="12.5761" y2="0.743896" gradientUnits="userSpaceOnUse">
<stop stop-color="#909ABA"/>
<stop offset="1" stop-color="#AAB5CF"/>
</linearGradient>
<linearGradient id="paint2_linear_1134_6757" x1="4.33974" y1="7.30179" x2="4.33974" y2="0.743896" gradientUnits="userSpaceOnUse">
<stop stop-color="#909ABA"/>
<stop offset="1" stop-color="#AAB5CF"/>
</linearGradient>
<linearGradient id="paint3_linear_1134_6757" x1="7.97722" y1="8.03973" x2="7.97722" y2="0.743896" gradientUnits="userSpaceOnUse">
<stop stop-color="#909ABA"/>
<stop offset="1" stop-color="#AAB5CF"/>
</linearGradient>
<clipPath id="clip0_1134_6757">
<rect width="17" height="17" fill="white"/>
</clipPath>
</defs>
</svg>
