<svg width="17" height="17" viewBox="0 0 17 17" fill="none" xmlns="http://www.w3.org/2000/svg">
<path fill-rule="evenodd" clip-rule="evenodd" d="M5.01411 9.17996C5.19517 9.09496 5.2857 9.09496 5.46677 9.17996C5.64783 9.26496 5.8289 9.34996 5.91943 9.43496C7.54902 10.54 9.7218 10.455 11.2609 9.34996C11.4419 9.26496 11.623 9.17996 11.804 9.17996C13.2526 9.34996 14.6106 10.115 15.4253 11.22C15.6969 11.56 15.878 11.815 16.0591 12.155C16.1496 12.24 16.1496 12.41 16.1496 12.58C16.1496 12.665 16.0591 12.75 15.9685 12.835C15.7875 13.175 15.5159 13.43 15.3348 13.77C14.7011 14.62 13.7958 15.3 12.8904 15.81C11.5324 16.575 10.0839 17 8.54488 17H8.45434C7.73008 17 6.91529 16.915 6.19103 16.66C5.37624 16.49 4.65198 16.15 4.01825 15.725C3.20346 15.215 2.4792 14.62 1.84547 13.94C1.48334 13.515 1.21174 13.09 0.940142 12.665C0.849609 12.58 0.849609 12.495 0.849609 12.325C1.21174 11.475 1.84547 10.71 2.56973 10.2C3.29399 9.68996 4.10878 9.34996 5.01411 9.17996Z" fill="#002A95"/>
<path fill-rule="evenodd" clip-rule="evenodd" d="M8.45229 0H8.54282C9.53868 0 10.444 0.34 11.1683 0.935C12.9789 2.295 13.4316 4.76 12.3452 6.63C11.9831 7.225 11.4399 7.735 10.8967 8.16C9.44815 9.095 7.6375 9.095 6.18898 8.16C5.10259 7.48 4.28779 6.29 4.10673 5.1C3.92566 3.74 4.37832 2.465 5.28365 1.445C6.09844 0.595 7.27537 0 8.45229 0Z" fill="#315EFD"/>
</svg>
