<svg width="17" height="17" viewBox="0 0 17 17" fill="none" xmlns="http://www.w3.org/2000/svg">
<g clip-path="url(#clip0_1134_6793)">
<path d="M13.1365 0H3.86373C2.37005 0 1.15918 1.21087 1.15918 2.70455V14.2955C1.15918 15.7891 2.37005 17 3.86373 17H13.1365C14.6301 17 15.841 15.7891 15.841 14.2955V2.70455C15.841 1.21087 14.6301 0 13.1365 0Z" fill="#A6B1CB"/>
<path d="M15.841 2.70455V3.86364H1.15918V2.70455C1.15998 1.9875 1.44518 1.30006 1.95221 0.793031C2.45924 0.286004 3.14668 0.000803784 3.86373 0H13.1365C13.8535 0.000803784 14.5409 0.286004 15.048 0.793031C15.555 1.30006 15.8402 1.9875 15.841 2.70455Z" fill="#535B79"/>
<path d="M5.0219 10.0455C4.86957 10.0455 4.72065 10.0003 4.59404 9.91564L3.43495 9.14291C3.3495 9.08707 3.27597 9.01485 3.2186 8.93043C3.16122 8.84601 3.12114 8.75106 3.10066 8.65106C3.08019 8.55107 3.07973 8.448 3.09931 8.34783C3.1189 8.24765 3.15813 8.15235 3.21475 8.06742C3.27137 7.98249 3.34426 7.90963 3.4292 7.85303C3.51414 7.79643 3.60946 7.75722 3.70964 7.73766C3.80982 7.7181 3.91288 7.71859 4.01287 7.73909C4.11286 7.75959 4.2078 7.79969 4.29221 7.85709L4.87326 8.24458L6.36061 6.45989C6.49181 6.30238 6.68019 6.20344 6.88433 6.18483C7.08847 6.16623 7.29164 6.22947 7.44915 6.36066C7.60665 6.49185 7.7056 6.68024 7.7242 6.88438C7.74281 7.08852 7.67956 7.29169 7.54837 7.4492L5.61656 9.76738C5.54389 9.85449 5.45295 9.92456 5.35018 9.97261C5.24742 10.0207 5.13535 10.0455 5.0219 10.0455Z" fill="white"/>
<path d="M13.1361 7.72734H10.0452C9.84025 7.72734 9.6437 7.64593 9.49879 7.50101C9.35387 7.3561 9.27246 7.15955 9.27246 6.95461C9.27246 6.74967 9.35387 6.55313 9.49879 6.40821C9.6437 6.2633 9.84025 6.18188 10.0452 6.18188H13.1361C13.341 6.18188 13.5376 6.2633 13.6825 6.40821C13.8274 6.55313 13.9088 6.74967 13.9088 6.95461C13.9088 7.15955 13.8274 7.3561 13.6825 7.50101C13.5376 7.64593 13.341 7.72734 13.1361 7.72734Z" fill="white"/>
<path d="M13.1361 10.0455H10.0452C9.84025 10.0455 9.6437 9.96404 9.49879 9.81913C9.35387 9.67421 9.27246 9.47767 9.27246 9.27273C9.27246 9.06779 9.35387 8.87124 9.49879 8.72633C9.6437 8.58141 9.84025 8.5 10.0452 8.5H13.1361C13.341 8.5 13.5376 8.58141 13.6825 8.72633C13.8274 8.87124 13.9088 9.06779 13.9088 9.27273C13.9088 9.47767 13.8274 9.67421 13.6825 9.81913C13.5376 9.96404 13.341 10.0455 13.1361 10.0455Z" fill="white"/>
<path d="M5.02185 14.6819C4.86951 14.682 4.72059 14.6368 4.59398 14.5521L3.43489 13.7794C3.26643 13.6648 3.15003 13.4884 3.111 13.2884C3.07197 13.0885 3.11347 12.8812 3.22647 12.7117C3.33948 12.5422 3.51484 12.4242 3.71442 12.3834C3.91399 12.3425 4.12163 12.3821 4.29215 12.4935L4.8732 12.881L6.36056 11.0964C6.49175 10.9389 6.68014 10.8399 6.88427 10.8213C7.08841 10.8027 7.29158 10.8659 7.44909 10.9971C7.6066 11.1283 7.70554 11.3167 7.72415 11.5209C7.74276 11.725 7.67951 11.9282 7.54832 12.0857L5.6165 14.4039C5.54383 14.491 5.45289 14.561 5.35012 14.6091C5.24736 14.6571 5.13529 14.682 5.02185 14.6819Z" fill="white"/>
<path d="M13.1361 12.3636H10.0452C9.84025 12.3636 9.6437 12.2822 9.49879 12.1372C9.35387 11.9923 9.27246 11.7958 9.27246 11.5908C9.27246 11.3859 9.35387 11.1894 9.49879 11.0444C9.6437 10.8995 9.84025 10.8181 10.0452 10.8181H13.1361C13.341 10.8181 13.5376 10.8995 13.6825 11.0444C13.8274 11.1894 13.9088 11.3859 13.9088 11.5908C13.9088 11.7958 13.8274 11.9923 13.6825 12.1372C13.5376 12.2822 13.341 12.3636 13.1361 12.3636Z" fill="white"/>
<path d="M13.1361 14.6819H10.0452C9.84025 14.6819 9.6437 14.6005 9.49879 14.4556C9.35387 14.3107 9.27246 14.1141 9.27246 13.9092C9.27246 13.7043 9.35387 13.5077 9.49879 13.3628C9.6437 13.2179 9.84025 13.1365 10.0452 13.1365H13.1361C13.341 13.1365 13.5376 13.2179 13.6825 13.3628C13.8274 13.5077 13.9088 13.7043 13.9088 13.9092C13.9088 14.1141 13.8274 14.3107 13.6825 14.4556C13.5376 14.6005 13.341 14.6819 13.1361 14.6819Z" fill="white"/>
</g>
<defs>
<clipPath id="clip0_1134_6793">
<rect width="17" height="17" fill="white"/>
</clipPath>
</defs>
</svg>
