<svg width="242" height="182" viewBox="0 0 242 182" fill="none" xmlns="http://www.w3.org/2000/svg">
<g clip-path="url(#clip0_1379_6865)">
<path d="M0 141.186H242.066C220.67 76.1782 179.648 43.6731 118.999 43.6731C58.3505 43.6731 18.6838 76.1777 0 141.186Z" fill="#F8F9FB"/>
<path d="M0 141.171H242C220.61 168.546 179.599 182.235 118.967 182.235C58.3345 182.235 18.6787 168.547 0 141.171Z" fill="url(#paint0_linear_1379_6865)"/>
<path opacity="0.5" d="M0 141L242 141" stroke="#929EBA" stroke-width="0.543138" stroke-linecap="round"/>
<path d="M62.0254 102.376C62.0254 103.784 60.8861 104.928 59.4834 104.928C58.0807 104.928 56.9414 103.784 56.9414 102.376C56.9414 100.968 58.0807 99.8236 59.4834 99.8236C60.8861 99.8236 62.0254 100.968 62.0254 102.376ZM64.5675 89.6144C64.5675 90.4515 63.876 91.1458 63.0422 91.1458C62.2085 91.1458 61.517 90.4515 61.517 89.6144C61.517 88.7772 62.2085 88.083 63.0422 88.083C63.876 88.083 64.5675 88.7772 64.5675 89.6144ZM76.7691 96.7608C76.7691 97.598 76.0777 98.2922 75.2439 98.2922C74.4101 98.2922 73.7187 97.598 73.7187 96.7608C73.7187 95.9237 74.4101 95.2294 75.2439 95.2294C76.0777 95.2294 76.7691 95.9237 76.7691 96.7608Z" fill="#C0C5D4"/>
<g filter="url(#filter0_f_1379_6865)">
<path fill-rule="evenodd" clip-rule="evenodd" d="M46.7734 151.989C46.7734 151.002 81.4842 150.202 124.305 150.202C167.124 150.202 201.836 151.002 201.836 151.989C201.836 152.975 167.124 153.775 124.305 153.775C81.4842 153.775 46.7734 152.975 46.7734 151.989Z" fill="#1A438F" fill-opacity="0.33" style="mix-blend-mode:multiply"/>
</g>
<path d="M103.935 54.0015C109.831 38.5594 134.281 32.9739 141.86 47.7863C149.711 63.0907 145.419 78.0946 137.486 99.368C134.063 113.742 124.501 127.705 121.92 121.435C120.453 131.647 117.926 129.54 115.209 125.05C114.965 131.128 113.906 133.783 110.673 127.486C110.673 127.486 96.6277 73.1114 103.935 54.0015Z" fill="#C1C6D4"/>
<path d="M141.583 151.965C145.03 143.202 128.699 151.13 127.221 146.457L126.838 141.895C127.057 138.836 123.255 137.445 121.64 139.614L118.85 143.564C115.594 148.432 104.296 147.292 99.7277 147.292C97.2387 147.292 94.0929 147.347 96.3354 151.965H141.583Z" fill="#F7D3CA"/>
<path d="M110.936 88.2722C110.936 88.2722 120.833 116.272 122.34 120.898C123.849 125.523 123.108 133.105 120.531 140.386C119.434 143.698 127.165 144.792 128.262 142.575L139.475 117.915L129.605 93.6097L110.936 88.2722Z" fill="#C1C6D4"/>
<path d="M106.1 4.11664C83.2875 17.1947 78.0182 42.0163 90.6798 58.8763C98.0402 68.6769 98.0596 71.3742 100.024 76.9632C108.54 105.813 132.066 140.17 168.474 115.786C170.985 114.115 173.524 108.854 174.561 104.471C177.29 92.9362 176.854 75.3739 169.157 50.1951C159.659 19.2354 132.945 -11.2735 106.099 4.11664H106.1Z" fill="#EAF0FF"/>
<g opacity="0.4" filter="url(#filter1_d_1379_6865)">
<path d="M106.1 4.11664C83.2875 17.1947 78.0182 42.0163 90.6798 58.8763C98.0402 68.6769 98.0596 71.3742 100.024 76.9632C108.54 105.813 132.066 140.17 168.474 115.786C170.985 114.115 173.524 108.854 174.561 104.471C177.29 92.9362 176.854 75.3739 169.157 50.1951C159.659 19.2354 132.945 -11.2735 106.099 4.11664H106.1Z" fill="url(#paint1_linear_1379_6865)"/>
</g>
<path d="M109.202 30.4036C87.5742 35.0273 85.7466 53.3337 101.127 60.9908C116.7 68.725 135.684 64.1973 143.747 54.8235C149.956 44.0931 147.982 24.6038 135.63 12.3567C123.432 0.225582 107.826 8.72558 109.202 30.4036Z" fill="white"/>
<path d="M126.54 30.6579C134.577 29.8052 134.452 18.2039 125.32 17.7656C116.187 17.3273 118.504 31.5111 126.54 30.6579Z" fill="#282B39"/>
<path d="M126.31 25.2418C125.856 25.8149 125.01 25.9189 124.407 25.4275C123.822 24.9549 123.695 24.1028 124.168 23.5102C124.622 22.9365 125.467 22.8325 126.071 23.3245C126.637 23.8159 126.764 24.668 126.31 25.2418ZM126.601 21.2632C126.836 21.5375 126.803 21.9233 126.555 22.1324C126.289 22.361 125.903 22.3164 125.688 22.0621C125.453 21.7884 125.486 21.4021 125.733 21.1935C125.961 20.9643 126.366 20.9895 126.601 21.2632Z" fill="white"/>
<path d="M118.357 45.1063C120.79 50.9386 109.429 59.5604 105.664 50.8312C101.898 42.1015 115.924 39.2739 118.357 45.1063Z" fill="#282B39"/>
<path d="M111.644 45.6113C112.249 46.1022 112.349 46.9428 111.884 47.5669C111.418 48.1515 110.543 48.2469 109.957 47.7755C109.352 47.2851 109.252 46.4439 109.717 45.8205C110.183 45.2353 111.039 45.1598 111.644 45.6113ZM112.183 43.502C112.417 43.7763 112.379 44.1672 112.107 44.4009C111.835 44.6352 111.446 44.5947 111.212 44.3198C110.977 44.0455 111.015 43.6546 111.286 43.4214C111.558 43.1871 111.948 43.2277 112.182 43.502" fill="white"/>
<path d="M137.466 49.6148L127.53 47.1827C125.858 46.7609 124.508 45.1385 124.754 43.823C125.131 41.84 126.743 39.5342 128.49 38.5444C129.647 37.8781 131.623 38.605 132.556 40.0748L138.092 48.7194C138.453 49.2725 138.112 49.768 137.466 49.6148" fill="#F7D3CA"/>
<path d="M147.361 82.9125C156.767 100.485 171.887 129.765 180.007 137.386C184.082 141.224 186.487 138.428 186.733 133.411C193.131 136.043 193.405 130.999 191.326 123.021C196.522 125.296 197.807 122.17 191.163 111.78C182.058 97.4974 169.016 84.6394 154.552 71.6997L147.361 82.9125Z" fill="#F6F6F6"/>
<path d="M160.934 151.965C164.389 143.202 148.019 151.13 146.538 146.457L146.154 141.895C146.374 138.836 142.562 137.445 140.944 139.614L138.12 143.564C134.857 148.432 123.532 147.292 118.954 147.292C116.458 147.292 113.634 147.876 115.553 151.965H160.934Z" fill="#F7D3CA"/>
<path d="M130.855 92.2725C130.855 92.2725 136.171 107.988 137.952 117.891C139.075 124.193 139.541 139.881 139.541 139.881C140.473 144.382 144.281 143.209 146.446 142.091C150.392 138.898 150.036 133.169 151.57 124.603C152.803 117.7 151.46 107.987 148.693 98.3563L130.855 92.2725Z" fill="#DAE3FB"/>
<path d="M167.382 150.368C164.584 147.17 161.703 146.513 158.796 147.656C157.589 148.027 158.385 149.798 159.152 149.483C161.786 148.341 164.529 148.598 167.382 150.369" fill="white"/>
<path d="M109.796 149.336C112.813 146.397 115.719 145.944 118.544 147.273C120.299 148.261 119.202 149.392 118.05 149.053C115.5 147.725 112.73 147.809 109.796 149.336ZM91.0137 146.339C94.7787 144.754 97.6228 145.299 99.8169 147.352C100.467 147.845 100.467 149.95 98.7879 148.755C96.8374 146.78 94.2642 145.949 91.0137 146.339Z" fill="#E8E6D2"/>
<path d="M126.967 73.3572C125.195 55.5766 148.319 39.0315 163.809 50.1716C179.816 61.6684 183.852 90.012 186.251 114.46L184.698 125.682L166.726 130.209C166.726 130.237 130.021 104.005 126.967 73.3572Z" fill="#C0C5D4"/>
<path d="M128.215 73.5537C125.651 55.8994 147.64 38.1897 163.763 48.4264C180.405 58.9922 184.388 75.415 188.153 99.6389C192.682 115.022 190.663 133.142 184.497 128.516C188.726 138.945 184.934 138.233 179.614 135.359C182.778 141.243 183.161 144.309 176.312 139.957C176.286 139.957 131.407 95.4238 128.215 73.5537Z" fill="#EAF0FF"/>
<g opacity="0.4" filter="url(#filter2_d_1379_6865)">
<path d="M128.215 73.5537C125.651 55.8994 147.64 38.1897 163.763 48.4264C180.405 58.9922 184.388 75.415 188.153 99.6389C192.682 115.022 190.663 133.142 184.497 128.516C188.726 138.945 184.934 138.233 179.614 135.359C182.778 141.243 183.161 144.309 176.312 139.957C176.286 139.957 131.407 95.4238 128.215 73.5537Z" fill="url(#paint2_linear_1379_6865)"/>
</g>
<path d="M111.504 151.512C114.223 148.314 117.022 147.657 119.848 148.799C121.501 149.742 120.435 150.913 119.501 150.627C116.915 149.456 114.25 149.713 111.504 151.512ZM90.4453 149.204C93.6628 146.767 96.5553 146.611 99.2047 148.063C100.502 148.556 100.502 150.63 98.5832 149.645C96.1768 148.219 93.4733 148.037 90.4453 149.204Z" fill="white"/>
<g opacity="0.174456" filter="url(#filter3_d_1379_6865)">
<path d="M66.2403 26.0891L66.2404 26.0892C66.9048 26.6489 66.9915 27.6432 66.434 28.3102L66.4339 28.3103C65.8764 28.9773 64.8859 29.0643 64.2216 28.5046L64.2214 28.5045C63.5571 27.9449 63.4704 26.9505 64.0279 26.2835L64.028 26.2834C64.5855 25.6164 65.5759 25.5294 66.2403 26.0891Z" fill="url(#paint3_linear_1379_6865)"/>
</g>
<g opacity="0.174456" filter="url(#filter4_d_1379_6865)">
<path d="M224.433 73.2055L224.432 73.2051C222.34 71.4429 219.222 71.7169 217.466 73.817L217.466 73.8175C215.711 75.9176 215.983 79.0486 218.075 80.8108L218.076 80.8112C220.168 82.5734 223.286 82.2995 225.042 80.1993L225.042 80.1989C226.797 78.0988 226.525 74.9677 224.433 73.2055Z" fill="url(#paint4_linear_1379_6865)"/>
</g>
<g opacity="0.174456" filter="url(#filter5_d_1379_6865)">
<path d="M72.0529 164.998H72.0524C69.5781 164.998 67.5691 167.014 67.5652 169.502L67.5652 169.502C67.5613 171.989 69.5639 174.006 72.0382 174.006H72.0387C74.513 174.006 76.522 171.989 76.5259 169.502L76.526 169.502C76.5299 167.014 74.5272 164.998 72.0529 164.998Z" fill="url(#paint5_linear_1379_6865)"/>
</g>
<path d="M201.136 16.9564L201.135 16.956C199.417 15.5082 196.854 15.7332 195.412 17.4587L195.412 17.4591C193.97 19.1846 194.194 21.7571 195.913 23.2049L195.913 23.2052C197.632 24.6531 200.194 24.428 201.636 22.7025L201.637 22.7022C203.079 20.9767 202.855 18.4042 201.136 16.9564Z" fill="url(#paint6_radial_1379_6865)"/>
<path d="M36.6351 69.9445L36.6348 69.9442C33.6544 67.4335 29.2109 67.8238 26.7101 70.8159L26.7098 70.8163C24.2089 73.8084 24.5977 78.2693 27.5781 80.78L27.5784 80.7803C30.5588 83.291 35.0023 82.9007 37.5031 79.9086L37.5034 79.9082C40.0043 76.9161 39.6155 72.4552 36.6351 69.9445Z" fill="url(#paint7_radial_1379_6865)"/>
<path d="M194.135 165.785L193.485 165.237C191.334 163.425 188.126 163.707 186.321 165.867L185.776 166.519C183.971 168.679 184.252 171.899 186.403 173.711L187.053 174.258C189.204 176.071 192.411 175.789 194.216 173.629L194.762 172.977C196.567 170.817 196.286 167.597 194.135 165.785Z" fill="url(#paint8_radial_1379_6865)"/>
<path d="M97.8763 116.638C98.6285 115.738 98.5116 114.396 97.6152 113.641C96.7188 112.886 95.3825 113.003 94.6303 113.903C93.8782 114.803 93.9951 116.145 94.8915 116.9C95.7878 117.655 97.1242 117.537 97.8763 116.638Z" fill="url(#paint9_radial_1379_6865)"/>
</g>
<defs>
<filter id="filter0_f_1379_6865" x="44.0577" y="147.486" width="160.494" height="9.00462" filterUnits="userSpaceOnUse" color-interpolation-filters="sRGB">
<feFlood flood-opacity="0" result="BackgroundImageFix"/>
<feBlend mode="normal" in="SourceGraphic" in2="BackgroundImageFix" result="shape"/>
<feGaussianBlur stdDeviation="1.35784" result="effect1_foregroundBlur_1379_6865"/>
</filter>
<filter id="filter1_d_1379_6865" x="81.7845" y="-1.08628" width="96.476" height="128.425" filterUnits="userSpaceOnUse" color-interpolation-filters="sRGB">
<feFlood flood-opacity="0" result="BackgroundImageFix"/>
<feColorMatrix in="SourceAlpha" type="matrix" values="0 0 0 0 0 0 0 0 0 0 0 0 0 0 0 0 0 0 127 0" result="hardAlpha"/>
<feOffset dy="1.08628"/>
<feGaussianBlur stdDeviation="1.08628"/>
<feColorMatrix type="matrix" values="0 0 0 0 0.910688 0 0 0 0 0.910688 0 0 0 0 0.910688 0 0 0 0.5 0"/>
<feBlend mode="normal" in2="BackgroundImageFix" result="effect1_dropShadow_1379_6865"/>
<feBlend mode="normal" in="SourceGraphic" in2="effect1_dropShadow_1379_6865" result="shape"/>
</filter>
<filter id="filter2_d_1379_6865" x="125.837" y="44.3266" width="66.9467" height="100.94" filterUnits="userSpaceOnUse" color-interpolation-filters="sRGB">
<feFlood flood-opacity="0" result="BackgroundImageFix"/>
<feColorMatrix in="SourceAlpha" type="matrix" values="0 0 0 0 0 0 0 0 0 0 0 0 0 0 0 0 0 0 127 0" result="hardAlpha"/>
<feOffset dy="1.08628"/>
<feGaussianBlur stdDeviation="1.08628"/>
<feColorMatrix type="matrix" values="0 0 0 0 0.910688 0 0 0 0 0.910688 0 0 0 0 0.910688 0 0 0 0.5 0"/>
<feBlend mode="normal" in2="BackgroundImageFix" result="effect1_dropShadow_1379_6865"/>
<feBlend mode="normal" in="SourceGraphic" in2="effect1_dropShadow_1379_6865" result="shape"/>
</filter>
<filter id="filter3_d_1379_6865" x="33.7876" y="3.99471" width="62.8858" height="62.8985" filterUnits="userSpaceOnUse" color-interpolation-filters="sRGB">
<feFlood flood-opacity="0" result="BackgroundImageFix"/>
<feColorMatrix in="SourceAlpha" type="matrix" values="0 0 0 0 0 0 0 0 0 0 0 0 0 0 0 0 0 0 127 0" result="hardAlpha"/>
<feOffset dy="8.14707"/>
<feGaussianBlur stdDeviation="14.9363"/>
<feColorMatrix type="matrix" values="0 0 0 0 0.615686 0 0 0 0 0.639216 0 0 0 0 0.705882 0 0 0 0.2 0"/>
<feBlend mode="normal" in2="BackgroundImageFix" result="effect1_dropShadow_1379_6865"/>
<feBlend mode="normal" in="SourceGraphic" in2="effect1_dropShadow_1379_6865" result="shape"/>
</filter>
<filter id="filter4_d_1379_6865" x="186.436" y="50.3182" width="69.6358" height="69.6741" filterUnits="userSpaceOnUse" color-interpolation-filters="sRGB">
<feFlood flood-opacity="0" result="BackgroundImageFix"/>
<feColorMatrix in="SourceAlpha" type="matrix" values="0 0 0 0 0 0 0 0 0 0 0 0 0 0 0 0 0 0 127 0" result="hardAlpha"/>
<feOffset dy="8.14707"/>
<feGaussianBlur stdDeviation="14.9363"/>
<feColorMatrix type="matrix" values="0 0 0 0 0.615686 0 0 0 0 0.639216 0 0 0 0 0.705882 0 0 0 0.2 0"/>
<feBlend mode="normal" in2="BackgroundImageFix" result="effect1_dropShadow_1379_6865"/>
<feBlend mode="normal" in="SourceGraphic" in2="effect1_dropShadow_1379_6865" result="shape"/>
</filter>
<filter id="filter5_d_1379_6865" x="37.6919" y="143.272" width="68.7061" height="68.7532" filterUnits="userSpaceOnUse" color-interpolation-filters="sRGB">
<feFlood flood-opacity="0" result="BackgroundImageFix"/>
<feColorMatrix in="SourceAlpha" type="matrix" values="0 0 0 0 0 0 0 0 0 0 0 0 0 0 0 0 0 0 127 0" result="hardAlpha"/>
<feOffset dy="8.14707"/>
<feGaussianBlur stdDeviation="14.9363"/>
<feColorMatrix type="matrix" values="0 0 0 0 0.615686 0 0 0 0 0.639216 0 0 0 0 0.705882 0 0 0 0.2 0"/>
<feBlend mode="normal" in2="BackgroundImageFix" result="effect1_dropShadow_1379_6865"/>
<feBlend mode="normal" in="SourceGraphic" in2="effect1_dropShadow_1379_6865" result="shape"/>
</filter>
<linearGradient id="paint0_linear_1379_6865" x1="121" y1="182.235" x2="121" y2="141.171" gradientUnits="userSpaceOnUse">
<stop stop-color="#F9F9F9" stop-opacity="0"/>
<stop offset="1" stop-color="#F9F9F9"/>
</linearGradient>
<linearGradient id="paint1_linear_1379_6865" x1="84.8599" y1="1.77268" x2="207.208" y2="67.0161" gradientUnits="userSpaceOnUse">
<stop stop-color="#769AF7" stop-opacity="0.5"/>
<stop offset="1" stop-color="#769AF7" stop-opacity="0"/>
</linearGradient>
<linearGradient id="paint2_linear_1379_6865" x1="128.623" y1="46.7929" x2="216.386" y2="87.6423" gradientUnits="userSpaceOnUse">
<stop stop-color="#769AF7" stop-opacity="0.5"/>
<stop offset="1" stop-color="#769AF7" stop-opacity="0"/>
</linearGradient>
<linearGradient id="paint3_linear_1379_6865" x1="67.747" y1="29.3262" x2="63.2328" y2="29.7537" gradientUnits="userSpaceOnUse">
<stop stop-color="#2B2E34"/>
<stop offset="1" stop-color="#2B87DA"/>
</linearGradient>
<linearGradient id="paint4_linear_1379_6865" x1="213.61" y1="70.2851" x2="214.756" y2="84.5721" gradientUnits="userSpaceOnUse">
<stop stop-color="#2B2E34"/>
<stop offset="1" stop-color="#2B87DA"/>
</linearGradient>
<linearGradient id="paint5_linear_1379_6865" x1="62.84" y1="169.304" x2="71.9524" y2="178.521" gradientUnits="userSpaceOnUse">
<stop stop-color="#2B2E34"/>
<stop offset="1" stop-color="#2B87DA"/>
</linearGradient>
<radialGradient id="paint6_radial_1379_6865" cx="0" cy="0" r="1" gradientUnits="userSpaceOnUse" gradientTransform="translate(198.091 14.0876) rotate(129.889) scale(8.37588 8.37012)">
<stop stop-color="#B9BDC7"/>
<stop offset="1" stop-color="#497DFC"/>
</radialGradient>
<radialGradient id="paint7_radial_1379_6865" cx="0" cy="0" r="1" gradientUnits="userSpaceOnUse" gradientTransform="translate(33.6903 73.4678) rotate(100.685) scale(14.4619 14.4092)">
<stop stop-color="#9FBDFF"/>
<stop offset="1" stop-color="#056FF8"/>
</radialGradient>
<radialGradient id="paint8_radial_1379_6865" cx="0" cy="0" r="1" gradientUnits="userSpaceOnUse" gradientTransform="translate(191.507 168.266) rotate(100.685) scale(11.3086 11.2674)">
<stop stop-color="#9FBDFF"/>
<stop offset="1" stop-color="#056FF8"/>
</radialGradient>
<radialGradient id="paint9_radial_1379_6865" cx="0" cy="0" r="1" gradientUnits="userSpaceOnUse" gradientTransform="translate(96.7297 114.7) rotate(100.685) scale(4.3495 4.33363)">
<stop stop-color="#9FBDFF"/>
<stop offset="1" stop-color="#056FF8"/>
</radialGradient>
<clipPath id="clip0_1379_6865">
<rect width="242" height="182" fill="white"/>
</clipPath>
</defs>
</svg>
