<svg width="990" height="894" viewBox="0 0 990 894" fill="none" xmlns="http://www.w3.org/2000/svg">
<g id="Illustration">
<g id="Illustration_2">
<g id="Shadow" filter="url(#filter0_f_1600_67434)">
<path fill-rule="evenodd" clip-rule="evenodd" d="M504.842 629.672C617.408 634.225 659.06 619.085 693.063 595.814C727.065 572.543 609.921 555.858 507.362 555.858C404.802 555.858 300.287 571.972 321.661 595.814C343.034 619.656 392.275 625.12 504.842 629.672Z" fill="#1A438F" fill-opacity="0.311538" style="mix-blend-mode:multiply"/>
</g>
<g id="letter (1)">
<path id="Oval" fill-rule="evenodd" clip-rule="evenodd" d="M514.832 591.062C645.099 591.062 750.7 485.986 750.7 356.368C750.7 226.75 645.099 121.674 514.832 121.674C384.566 121.674 278.965 226.75 278.965 356.368C278.965 485.986 384.566 591.062 514.832 591.062Z" fill="url(#paint0_linear_1600_67434)"/>
<rect id="Rectangle" x="335.297" y="314.123" width="360.755" height="245.26" fill="#E0E5F6"/>
<path id="Path" fill-rule="evenodd" clip-rule="evenodd" d="M515.675 149.837L335.297 315.121L515.675 480.719L696.052 315.121L515.675 149.837Z" fill="url(#paint1_linear_1600_67434)"/>
<path id="Path_2" fill-rule="evenodd" clip-rule="evenodd" d="M377.531 352.488L512.035 476.06H520.149L654.652 352.488V199.123H377.531V352.488Z" fill="#FCFCFD"/>
<g id="Group">
<rect id="Rectangle_2" x="419.367" y="279.844" width="190.677" height="13.1725" fill="#F1F3F7"/>
<rect id="Rectangle_3" x="419.367" y="359.64" width="190.677" height="13.1725" fill="#F1F3F7"/>
<path id="Path_3" fill-rule="evenodd" clip-rule="evenodd" d="M606.788 397.191H426.41L440.765 410.677H592.432L606.788 397.191Z" fill="#F1F3F7"/>
<path id="Path_4" fill-rule="evenodd" clip-rule="evenodd" d="M562.278 437.089H468.656L483.011 450.261H547.922L562.278 437.089Z" fill="#F1F3F7"/>
</g>
<path id="Path_5" fill-rule="evenodd" clip-rule="evenodd" d="M545.946 452.592H485.404L335.297 561.422H696.052L545.946 452.592Z" fill="url(#paint2_linear_1600_67434)"/>
</g>
<g id="communications">
<g id="Group_2">
<g id="Rectangle 3 Copy 9" opacity="0.174456" filter="url(#filter1_d_1600_67434)">
<rect x="802.992" y="415.041" width="37.551" height="37.551" rx="6.2585" transform="rotate(40 802.992 415.041)" fill="url(#paint3_linear_1600_67434)"/>
</g>
<g id="Rectangle 3 Copy 10" filter="url(#filter2_d_1600_67434)">
<rect x="706.77" y="114.633" width="37.551" height="37.551" rx="6.2585" transform="rotate(40 706.77 114.633)" fill="url(#paint4_radial_1600_67434)"/>
</g>
<g id="Rectangle 3 Copy 11" filter="url(#filter3_d_1600_67434)">
<rect x="655.137" y="598.102" width="70.4082" height="70.4081" rx="11.7347" transform="rotate(40 655.137 598.102)" fill="url(#paint5_radial_1600_67434)"/>
</g>
<path id="Path_6" fill-rule="evenodd" clip-rule="evenodd" d="M516.41 304.734C512.268 304.734 509.162 306.287 506.056 309.911C503.467 313.535 501.914 318.195 501.914 323.89C501.914 328.549 502.949 332.691 505.02 335.797C507.091 338.903 509.68 340.456 513.304 340.456C517.445 340.456 521.069 338.385 524.693 334.244C528.317 330.102 529.87 324.925 529.87 318.195C529.87 314.571 528.317 310.947 525.729 308.358C523.658 306.287 520.552 304.734 516.41 304.734Z" fill="#3561FF"/>
<path id="Shape" fill-rule="evenodd" clip-rule="evenodd" d="M422.121 320.991C422.121 269.22 464.055 227.286 515.826 227.286C567.597 227.286 609.531 269.22 609.531 320.991C609.531 372.762 567.597 414.696 515.826 414.696C464.055 414.696 422.121 372.762 422.121 320.991ZM541.713 353.089C549.996 353.089 557.244 349.465 562.939 341.182C569.151 332.899 571.74 324.098 571.74 313.226C571.74 299.248 566.562 287.341 556.208 278.022C545.854 268.703 532.912 264.044 517.898 264.044C501.849 264.044 487.871 269.221 476.481 280.093C465.092 290.965 459.397 304.425 459.397 320.474C459.397 336.005 464.574 349.465 475.446 360.337C486.318 371.209 500.814 376.904 519.451 376.904C530.323 376.904 541.195 374.833 551.549 370.691L555.173 369.138C556.208 368.621 557.244 367.585 557.761 366.55C558.279 365.514 558.279 363.961 557.761 362.926L556.726 360.855C556.208 359.82 555.173 358.784 554.138 358.266C553.102 357.749 551.549 357.749 550.514 358.266L547.407 359.82C538.089 363.443 528.77 365.514 519.451 365.514C504.438 365.514 493.048 360.855 484.765 352.054C476.481 343.253 472.34 332.381 472.34 320.474C472.34 307.531 476.481 296.659 485.282 287.858C494.083 279.057 504.955 274.398 517.898 274.398C529.805 274.398 539.642 278.022 547.925 285.27C556.208 292.518 560.35 301.836 560.35 313.226C560.35 320.992 558.279 327.722 554.655 333.416C550.514 339.111 546.89 341.7 542.748 341.7C540.159 341.7 539.124 340.147 539.124 336.523C539.124 334.452 539.124 331.863 539.642 329.275L543.783 296.142C543.783 295.106 543.266 294.071 542.748 293.553C542.23 293.035 541.195 292.518 540.159 292.518H534.982C533.947 292.518 532.912 292.518 531.876 293.553C530.841 294.588 530.323 295.624 530.323 296.659V297.695C527.217 293.035 522.04 290.965 514.792 290.965C507.544 290.965 500.814 294.071 495.637 299.766C489.942 305.46 487.353 313.226 487.353 322.545C487.353 331.863 489.942 339.111 494.601 344.806C499.261 350.501 504.955 353.089 511.686 353.089C518.416 353.089 523.593 350.501 528.252 344.806C530.841 350.501 534.982 353.089 541.713 353.089Z" fill="#416BFF"/>
</g>
</g>
<g id="Rectangle 3 Copy 8" filter="url(#filter4_d_1600_67434)">
<rect x="181.23" y="480.755" width="30.5102" height="30.5102" rx="5.08504" transform="rotate(40 181.23 480.755)" fill="url(#paint6_radial_1600_67434)"/>
</g>
<g id="Rectangle 3 Copy 12" opacity="0.554432" filter="url(#filter5_d_1600_67434)">
<rect x="265.324" y="220.195" width="11.7347" height="11.7347" rx="1.95578" transform="rotate(40 265.324 220.195)" fill="url(#paint7_radial_1600_67434)"/>
</g>
</g>
</g>
<defs>
<filter id="filter0_f_1600_67434" x="204.688" y="441.691" width="608.539" height="302.958" filterUnits="userSpaceOnUse" color-interpolation-filters="sRGB">
<feFlood flood-opacity="0" result="BackgroundImageFix"/>
<feBlend mode="normal" in="SourceGraphic" in2="BackgroundImageFix" result="shape"/>
<feGaussianBlur stdDeviation="19.028" result="effect1_foregroundBlur_1600_67434"/>
</filter>
<filter id="filter1_d_1600_67434" x="621.527" y="302.717" width="367.559" height="367.552" filterUnits="userSpaceOnUse" color-interpolation-filters="sRGB">
<feFlood flood-opacity="0" result="BackgroundImageFix"/>
<feColorMatrix in="SourceAlpha" type="matrix" values="0 0 0 0 0 0 0 0 0 0 0 0 0 0 0 0 0 0 127 0" result="hardAlpha"/>
<feOffset dy="15"/>
<feGaussianBlur stdDeviation="27.5"/>
<feColorMatrix type="matrix" values="0 0 0 0 0.615686 0 0 0 0 0.639216 0 0 0 0 0.705882 0 0 0 0.2 0"/>
<feBlend mode="normal" in2="BackgroundImageFix" result="effect1_dropShadow_1600_67434"/>
<feBlend mode="normal" in="SourceGraphic" in2="effect1_dropShadow_1600_67434" result="shape"/>
</filter>
<filter id="filter2_d_1600_67434" x="525.305" y="2.30859" width="367.559" height="367.552" filterUnits="userSpaceOnUse" color-interpolation-filters="sRGB">
<feFlood flood-opacity="0" result="BackgroundImageFix"/>
<feColorMatrix in="SourceAlpha" type="matrix" values="0 0 0 0 0 0 0 0 0 0 0 0 0 0 0 0 0 0 127 0" result="hardAlpha"/>
<feOffset dy="15"/>
<feGaussianBlur stdDeviation="27.5"/>
<feColorMatrix type="matrix" values="0 0 0 0 0.615686 0 0 0 0 0.639216 0 0 0 0 0.705882 0 0 0 0.2 0"/>
<feBlend mode="normal" in2="BackgroundImageFix" result="effect1_dropShadow_1600_67434"/>
<feBlend mode="normal" in="SourceGraphic" in2="effect1_dropShadow_1600_67434" result="shape"/>
</filter>
<filter id="filter3_d_1600_67434" x="459.27" y="492.494" width="400.406" height="400.409" filterUnits="userSpaceOnUse" color-interpolation-filters="sRGB">
<feFlood flood-opacity="0" result="BackgroundImageFix"/>
<feColorMatrix in="SourceAlpha" type="matrix" values="0 0 0 0 0 0 0 0 0 0 0 0 0 0 0 0 0 0 127 0" result="hardAlpha"/>
<feOffset dy="15"/>
<feGaussianBlur stdDeviation="27.5"/>
<feColorMatrix type="matrix" values="0 0 0 0 0.615686 0 0 0 0 0.639216 0 0 0 0 0.705882 0 0 0 0.2 0"/>
<feBlend mode="normal" in2="BackgroundImageFix" result="effect1_dropShadow_1600_67434"/>
<feBlend mode="normal" in="SourceGraphic" in2="effect1_dropShadow_1600_67434" result="shape"/>
</filter>
<filter id="filter4_d_1600_67434" x="2.85938" y="366.992" width="360.504" height="360.51" filterUnits="userSpaceOnUse" color-interpolation-filters="sRGB">
<feFlood flood-opacity="0" result="BackgroundImageFix"/>
<feColorMatrix in="SourceAlpha" type="matrix" values="0 0 0 0 0 0 0 0 0 0 0 0 0 0 0 0 0 0 127 0" result="hardAlpha"/>
<feOffset dy="15"/>
<feGaussianBlur stdDeviation="27.5"/>
<feColorMatrix type="matrix" values="0 0 0 0 0.615686 0 0 0 0 0.639216 0 0 0 0 0.705882 0 0 0 0.2 0"/>
<feBlend mode="normal" in2="BackgroundImageFix" result="effect1_dropShadow_1600_67434"/>
<feBlend mode="normal" in="SourceGraphic" in2="effect1_dropShadow_1600_67434" result="shape"/>
</filter>
<filter id="filter5_d_1600_67434" x="95.1797" y="102.593" width="341.73" height="341.735" filterUnits="userSpaceOnUse" color-interpolation-filters="sRGB">
<feFlood flood-opacity="0" result="BackgroundImageFix"/>
<feColorMatrix in="SourceAlpha" type="matrix" values="0 0 0 0 0 0 0 0 0 0 0 0 0 0 0 0 0 0 127 0" result="hardAlpha"/>
<feOffset dy="15"/>
<feGaussianBlur stdDeviation="27.5"/>
<feColorMatrix type="matrix" values="0 0 0 0 0.615686 0 0 0 0 0.639216 0 0 0 0 0.705882 0 0 0 0.2 0"/>
<feBlend mode="normal" in2="BackgroundImageFix" result="effect1_dropShadow_1600_67434"/>
<feBlend mode="normal" in="SourceGraphic" in2="effect1_dropShadow_1600_67434" result="shape"/>
</filter>
<linearGradient id="paint0_linear_1600_67434" x1="750.7" y1="591.062" x2="750.7" y2="121.674" gradientUnits="userSpaceOnUse">
<stop stop-color="white" stop-opacity="0.40441"/>
<stop offset="0.119107" stop-color="#F8EEEE" stop-opacity="0.385064"/>
<stop offset="0.206489" stop-color="#DEE5FF" stop-opacity="0.370871"/>
<stop offset="1" stop-color="#DEDFE5" stop-opacity="0.244848"/>
</linearGradient>
<linearGradient id="paint1_linear_1600_67434" x1="696.052" y1="480.719" x2="696.052" y2="149.837" gradientUnits="userSpaceOnUse">
<stop stop-color="#909ABA"/>
<stop offset="1" stop-color="#AAB5CF"/>
</linearGradient>
<linearGradient id="paint2_linear_1600_67434" x1="335.297" y1="452.592" x2="335.297" y2="561.422" gradientUnits="userSpaceOnUse">
<stop stop-color="#B9C8EF"/>
<stop offset="1" stop-color="#CED4EB"/>
</linearGradient>
<linearGradient id="paint3_linear_1600_67434" x1="783.189" y1="432.994" x2="821.233" y2="471.614" gradientUnits="userSpaceOnUse">
<stop stop-color="#2B2E34"/>
<stop offset="1" stop-color="#2B87DA"/>
</linearGradient>
<radialGradient id="paint4_radial_1600_67434" cx="0" cy="0" r="1" gradientUnits="userSpaceOnUse" gradientTransform="translate(706.277 113.564) rotate(90) scale(38.6201 38.6201)">
<stop stop-color="#B9BDC7"/>
<stop offset="1" stop-color="#497DFC"/>
</radialGradient>
<radialGradient id="paint5_radial_1600_67434" cx="0" cy="0" r="1" gradientUnits="userSpaceOnUse" gradientTransform="translate(690.341 620.994) rotate(60.726) scale(71.994 71.994)">
<stop stop-color="#9FBDFF"/>
<stop offset="1" stop-color="#056FF8"/>
</radialGradient>
<radialGradient id="paint6_radial_1600_67434" cx="0" cy="0" r="1" gradientUnits="userSpaceOnUse" gradientTransform="translate(196.486 490.675) rotate(60.726) scale(31.1975)">
<stop stop-color="#9FBDFF"/>
<stop offset="1" stop-color="#056FF8"/>
</radialGradient>
<radialGradient id="paint7_radial_1600_67434" cx="0" cy="0" r="1" gradientUnits="userSpaceOnUse" gradientTransform="translate(271.192 224.01) rotate(60.726) scale(11.999)">
<stop stop-color="#9FBDFF"/>
<stop offset="1" stop-color="#056FF8"/>
</radialGradient>
</defs>
</svg>
