<svg width="56" height="56" viewBox="0 0 56 56" fill="none" xmlns="http://www.w3.org/2000/svg">
<rect width="56" height="56" rx="28" fill="url(#paint0_linear_1444_16928)"/>
<g clip-path="url(#clip0_1444_16928)">
<path d="M43.3616 26.7023C41.5054 26.0461 40.2492 24.2836 40.2492 22.3149C40.2868 21.9961 40.1367 21.7336 39.8929 21.5086C39.6867 21.3398 39.368 21.2649 39.1055 21.3023C37.5304 21.5273 36.0305 21.0773 34.8867 20.1586C33.743 19.2398 32.9367 17.8524 32.8055 16.2399C32.7867 15.9585 32.6179 15.696 32.3742 15.5274C32.1304 15.3773 31.8305 15.3398 31.5492 15.4523C28.9992 16.371 26.5992 14.7585 25.643 12.5649C25.4554 12.1523 25.0242 11.9273 24.5742 12.0212C20.9741 12.8274 17.7366 15.0874 15.5242 17.9375C10.4055 24.5188 10.9304 33.5751 16.668 39.3313C22.9118 45.5562 32.9805 45.5562 39.2056 39.3313C42.093 36.4438 43.9993 32.3274 43.9993 27.9399C43.9616 27.3211 43.9429 26.9087 43.3616 26.7023Z" fill="#305DFC"/>
<path d="M43.9993 27.9398C43.9993 32.3272 42.0931 36.4436 39.2056 39.3312C32.9806 45.5561 22.9118 45.5561 16.668 39.3312L34.8868 20.1584C36.0306 21.0772 37.5305 21.5271 39.1056 21.3022C39.3681 21.2648 39.6868 21.3398 39.893 21.5085C40.1368 21.7335 40.2868 21.9959 40.2493 22.3148C40.2493 24.2835 41.5055 26.046 43.3617 26.7022C43.9431 26.9086 43.9618 27.321 43.9993 27.9398Z" fill="#0A33C1"/>
<path d="M24.0928 31.5312C23.624 31.1188 22.9865 30.875 22.3115 30.875C20.7552 30.875 19.499 32.1312 19.499 33.6875C19.499 34.4188 19.7803 35.075 20.2303 35.5625C20.7365 36.1438 21.4865 36.5 22.3115 36.5C23.8678 36.5 25.124 35.2437 25.124 33.6875C25.124 32.8062 24.7302 32.0375 24.0928 31.5312Z" fill="white"/>
<path d="M31.6865 30.875C30.1357 30.875 28.874 29.6134 28.874 28.0625C28.874 26.5116 30.1357 25.25 31.6865 25.25C33.2374 25.25 34.499 26.5116 34.499 28.0625C34.499 29.6134 33.2375 30.875 31.6865 30.875Z" fill="#C4D1FF"/>
<path d="M30.749 38.375C29.7154 38.375 28.874 37.5336 28.874 36.5C28.874 35.4664 29.7154 34.625 30.749 34.625C31.7827 34.625 32.624 35.4664 32.624 36.5C32.624 37.5336 31.7827 38.375 30.749 38.375Z" fill="#C4D1FF"/>
<path d="M37.2647 32.8206C37.7824 32.8206 38.2022 32.4008 38.2022 31.8831C38.2022 31.3653 37.7824 30.9456 37.2647 30.9456C36.7469 30.9456 36.3271 31.3653 36.3271 31.8831C36.3271 32.4008 36.7469 32.8206 37.2647 32.8206Z" fill="#C4D1FF"/>
<path d="M25.1242 33.6876C25.1242 35.2438 23.868 36.5001 22.3117 36.5001C21.4867 36.5001 20.7367 36.1438 20.2305 35.5626L24.093 31.5312C24.7305 32.0376 25.1242 32.8063 25.1242 33.6876Z" fill="#C4D1FF"/>
<path d="M23.249 25.25C22.2154 25.25 21.374 24.4086 21.374 23.375C21.374 22.3414 22.2154 21.5 23.249 21.5C24.2827 21.5 25.124 22.3414 25.124 23.375C25.124 24.4086 24.2827 25.25 23.249 25.25Z" fill="white"/>
<path d="M18.5147 29.0706C19.0324 29.0706 19.4522 28.6508 19.4522 28.1331C19.4522 27.6153 19.0324 27.1956 18.5147 27.1956C17.9969 27.1956 17.5771 27.6153 17.5771 28.1331C17.5771 28.6508 17.9969 29.0706 18.5147 29.0706Z" fill="white"/>
</g>
<defs>
<linearGradient id="paint0_linear_1444_16928" x1="0" y1="0" x2="39.5884" y2="65.8643" gradientUnits="userSpaceOnUse">
<stop offset="0.433962" stop-color="#F1F2F4"/>
<stop offset="1" stop-color="#F1F2F4" stop-opacity="0"/>
</linearGradient>
<clipPath id="clip0_1444_16928">
<rect width="32" height="32" fill="white" transform="translate(12 12)"/>
</clipPath>
</defs>
</svg>
