<svg width="34" height="34" viewBox="0 0 34 34" fill="none" xmlns="http://www.w3.org/2000/svg">
<g clip-path="url(#clip0_1334_57809)">
<path d="M3.79346 3.68441C0.804201 6.73859 -0.239669 14.0913 0.0450223 19.634C0.203184 22.7367 0.914914 28.3279 3.88836 30.7681C6.51385 32.9496 11.7965 34 17 34C22.2035 34 27.4861 32.9173 30.1116 30.7681C33.0851 28.3279 33.7968 22.6882 33.955 19.634C34.2397 14.0913 33.1958 6.70627 30.2065 3.68441C25.3984 -1.22814 8.60159 -1.22814 3.79346 3.68441Z" fill="url(#paint0_linear_1334_57809)"/>
<path fill-rule="evenodd" clip-rule="evenodd" d="M23.667 10.3333H10.3337C9.41699 10.3333 8.67533 11.0833 8.67533 11.9999L8.66699 21.9999C8.66699 22.9166 9.41699 23.6666 10.3337 23.6666H23.667C24.5837 23.6666 25.3337 22.9166 25.3337 21.9999V11.9999C25.3337 11.0833 24.5837 10.3333 23.667 10.3333ZM10.3337 13.6666L17.0003 17.8333L23.667 13.6666V21.9999H10.3337V13.6666ZM10.3337 11.9999L17.0003 16.1666L23.667 11.9999H10.3337Z" fill="#273266"/>
</g>
<defs>
<linearGradient id="paint0_linear_1334_57809" x1="0" y1="0" x2="24.0358" y2="39.9891" gradientUnits="userSpaceOnUse">
<stop offset="0.433962" stop-color="#F1F2F4"/>
<stop offset="1" stop-color="#F1F2F4" stop-opacity="0"/>
</linearGradient>
<clipPath id="clip0_1334_57809">
<rect width="34" height="34" fill="white"/>
</clipPath>
</defs>
</svg>
