<svg width="62" height="62" viewBox="0 0 62 62" fill="none" xmlns="http://www.w3.org/2000/svg">
<path d="M6.91749 6.71863C1.46648 12.288 -0.437044 25.6958 0.0820995 35.8032C0.370513 41.461 1.66837 51.6568 7.09054 56.1065C11.8782 60.0846 21.5112 62 31 62C40.4888 62 50.1218 60.0257 54.9095 56.1065C60.3316 51.6568 61.6295 41.3726 61.9179 35.8032C62.437 25.6958 60.5335 12.2291 55.0825 6.71863C46.3147 -2.23954 15.6853 -2.23954 6.91749 6.71863Z" fill="#315EFD"/>
<g clip-path="url(#clip0_1557_10411)">
<path d="M39.2853 27.1307C39.8013 27.656 39.7933 28.5 39.2667 29.016L33.3653 34.8093C32.3213 35.8333 30.9773 36.344 29.632 36.344C28.3013 36.344 26.9707 35.8427 25.9307 34.8387L23.3987 32.3493C22.8733 31.8333 22.8667 30.9893 23.3827 30.464C23.8973 29.9373 24.744 29.9307 25.268 30.448L27.792 32.9293C28.8267 33.9293 30.46 33.924 31.5 32.9053L37.4 27.1133C37.924 26.596 38.7653 26.6053 39.2853 27.1307ZM47 31C47 39.8227 39.8227 47 31 47C22.1773 47 15 39.8227 15 31C15 22.1773 22.1773 15 31 15C39.8227 15 47 22.1773 47 31ZM44.3333 31C44.3333 23.648 38.352 17.6667 31 17.6667C23.648 17.6667 17.6667 23.648 17.6667 31C17.6667 38.352 23.648 44.3333 31 44.3333C38.352 44.3333 44.3333 38.352 44.3333 31Z" fill="white"/>
</g>
<defs>
<clipPath id="clip0_1557_10411">
<rect width="32" height="32" fill="white" transform="translate(15 15)"/>
</clipPath>
</defs>
</svg>
