<svg width="62" height="62" viewBox="0 0 62 62" fill="none" xmlns="http://www.w3.org/2000/svg">
<path d="M6.91749 6.71863C1.46648 12.288 -0.437044 25.6958 0.0820995 35.8032C0.370513 41.461 1.66837 51.6568 7.09054 56.1065C11.8782 60.0846 21.5112 62 31 62C40.4888 62 50.1218 60.0257 54.9095 56.1065C60.3316 51.6568 61.6295 41.3726 61.9179 35.8032C62.437 25.6958 60.5335 12.2291 55.0825 6.71863C46.3147 -2.23954 15.6853 -2.23954 6.91749 6.71863Z" fill="#F4F4F4"/>
<g clip-path="url(#clip0_1557_11223)">
<path d="M36.3339 25.6667C36.0839 25.4168 35.7448 25.2764 35.3913 25.2764C35.0377 25.2764 34.6986 25.4168 34.4486 25.6667L31.0006 29.1147L27.5526 25.6667C27.3011 25.4239 26.9643 25.2895 26.6147 25.2925C26.2651 25.2956 25.9307 25.4358 25.6835 25.683C25.4363 25.9302 25.2961 26.2646 25.293 26.6142C25.29 26.9638 25.4244 27.3006 25.6673 27.5521L29.1153 31.0001L25.6673 34.4481C25.4244 34.6996 25.29 35.0364 25.293 35.386C25.2961 35.7355 25.4363 36.07 25.6835 36.3172C25.9307 36.5644 26.2651 36.7046 26.6147 36.7076C26.9643 36.7107 27.3011 36.5763 27.5526 36.3334L31.0006 32.8854L34.4486 36.3334C34.7001 36.5763 35.0369 36.7107 35.3865 36.7076C35.736 36.7046 36.0705 36.5644 36.3177 36.3172C36.5649 36.07 36.7051 35.7355 36.7082 35.386C36.7112 35.0364 36.5768 34.6996 36.3339 34.4481L32.8859 31.0001L36.3339 27.5521C36.5839 27.302 36.7243 26.963 36.7243 26.6094C36.7243 26.2559 36.5839 25.9168 36.3339 25.6667Z" fill="#2A2B2D"/>
<path d="M31 15C27.8355 15 24.7421 15.9384 22.1109 17.6965C19.4797 19.4546 17.4289 21.9534 16.2179 24.8771C15.0069 27.8007 14.6901 31.0177 15.3074 34.1214C15.9248 37.2251 17.4487 40.0761 19.6863 42.3137C21.9239 44.5514 24.7749 46.0752 27.8786 46.6926C30.9823 47.3099 34.1993 46.9931 37.1229 45.7821C40.0466 44.5711 42.5454 42.5203 44.3035 39.8891C46.0616 37.2579 47 34.1645 47 31C46.9954 26.7579 45.3082 22.6909 42.3087 19.6914C39.3091 16.6918 35.2421 15.0046 31 15ZM31 44.3333C28.3629 44.3333 25.7851 43.5513 23.5924 42.0863C21.3997 40.6212 19.6908 38.5388 18.6816 36.1024C17.6724 33.6661 17.4084 30.9852 17.9229 28.3988C18.4373 25.8124 19.7072 23.4366 21.5719 21.5719C23.4366 19.7072 25.8124 18.4373 28.3988 17.9229C30.9852 17.4084 33.6661 17.6724 36.1025 18.6816C38.5388 19.6908 40.6212 21.3997 42.0863 23.5924C43.5514 25.7851 44.3333 28.3629 44.3333 31C44.3295 34.535 42.9235 37.9242 40.4238 40.4238C37.9242 42.9235 34.535 44.3295 31 44.3333Z" fill="#2A2B2D"/>
</g>
<defs>
<clipPath id="clip0_1557_11223">
<rect width="32" height="32" fill="white" transform="translate(15 15)"/>
</clipPath>
</defs>
</svg>
