<svg width="34" height="34" viewBox="0 0 34 34" fill="none" xmlns="http://www.w3.org/2000/svg">
<g clip-path="url(#clip0_1135_7075)">
<path d="M3.79346 3.68441C0.804201 6.73859 -0.239669 14.0913 0.0450223 19.634C0.203184 22.7367 0.914914 28.3279 3.88836 30.7681C6.51385 32.9496 11.7965 34 17 34C22.2035 34 27.4862 32.9173 30.1116 30.7681C33.0851 28.3279 33.7968 22.6882 33.955 19.634C34.2397 14.0913 33.1958 6.70627 30.2065 3.68441C25.3984 -1.22814 8.60159 -1.22814 3.79346 3.68441Z" fill="#F6F7F8"/>
<g clip-path="url(#clip1_1135_7075)">
<path d="M23.3752 19.25H17.3752C15.9277 19.25 14.7502 20.4275 14.7502 21.875C14.7502 23.3225 15.9277 24.5 17.3752 24.5H23.3752C24.8227 24.5 26.0002 23.3225 26.0002 21.875C26.0002 20.4275 24.8227 19.25 23.3752 19.25ZM16.2502 21.875C16.2502 21.2548 16.755 20.75 17.3752 20.75H18.5002V23H17.3752C16.755 23 16.2502 22.4953 16.2502 21.875ZM23.3752 23H20.0002V20.75H23.3752C23.9955 20.75 24.5002 21.2548 24.5002 21.875C24.5002 22.4953 23.9955 23 23.3752 23ZM17.3752 14.75H23.3752C24.8227 14.75 26.0002 13.5725 26.0002 12.125C26.0002 10.6775 24.8227 9.5 23.3752 9.5H17.3752C15.9277 9.5 14.7502 10.6775 14.7502 12.125C14.7502 13.5725 15.9277 14.75 17.3752 14.75ZM24.5002 12.125C24.5002 12.7453 23.9955 13.25 23.3752 13.25H22.2502V11H23.3752C23.9955 11 24.5002 11.5048 24.5002 12.125ZM17.3752 11H20.7502V13.25H17.3752C16.755 13.25 16.2502 12.7453 16.2502 12.125C16.2502 11.5048 16.755 11 17.3752 11ZM11.0002 12.5C12.2407 12.5 13.2502 11.4905 13.2502 10.25C13.2502 9.0095 12.2407 8 11.0002 8C9.75972 8 8.75022 9.0095 8.75022 10.25C8.75022 11.4905 9.75972 12.5 11.0002 12.5ZM13.953 15.2368C14.0985 15.6245 13.902 16.0565 13.5142 16.202C13.4272 16.2343 13.3387 16.2493 13.251 16.2493C12.9472 16.2493 12.6615 16.064 12.5482 15.7625C12.321 15.1565 11.6992 14.7493 11.001 14.7493C10.3027 14.7493 9.68022 15.1565 9.45372 15.7625C9.30897 16.1518 8.87547 16.3468 8.48772 16.202C8.09997 16.0565 7.90347 15.6238 8.04897 15.2368C8.49447 14.048 9.68097 13.25 11.0017 13.25C12.3225 13.25 13.509 14.048 13.9545 15.2368H13.953ZM13.2502 20C13.2502 18.7595 12.2407 17.75 11.0002 17.75C9.75972 17.75 8.75022 18.7595 8.75022 20C8.75022 21.2405 9.75972 22.25 11.0002 22.25C12.2407 22.25 13.2502 21.2405 13.2502 20ZM13.953 24.9868C14.0985 25.3745 13.902 25.8065 13.5142 25.952C13.4272 25.9843 13.3387 25.9993 13.251 25.9993C12.9472 25.9993 12.6615 25.814 12.5482 25.5125C12.321 24.9065 11.6992 24.4993 11.001 24.4993C10.3027 24.4993 9.68022 24.9065 9.45372 25.5125C9.30897 25.9018 8.87547 26.0968 8.48772 25.952C8.09997 25.8065 7.90347 25.3738 8.04897 24.9868C8.49447 23.798 9.68097 23 11.0017 23C12.3225 23 13.509 23.798 13.9545 24.9868H13.953Z" fill="#273266"/>
</g>
</g>
<defs>
<clipPath id="clip0_1135_7075">
<rect width="34" height="34" fill="white"/>
</clipPath>
<clipPath id="clip1_1135_7075">
<rect width="18" height="18" fill="white" transform="translate(8 8)"/>
</clipPath>
</defs>
</svg>
