<svg width="160" height="48" viewBox="0 0 160 48" fill="none" xmlns="http://www.w3.org/2000/svg">
<rect width="160" height="48" rx="5" fill="black"/>
<path fill-rule="evenodd" clip-rule="evenodd" d="M55.0942 16.4411C55.9243 16.4411 56.7204 16.1125 57.3071 15.5277H57.297C58.4824 14.2801 58.4824 12.3276 57.297 11.08C56.712 10.4958 55.9176 10.1675 55.0892 10.1675C54.2607 10.1675 53.4663 10.4958 52.8813 11.08C51.701 12.3296 51.701 14.2782 52.8813 15.5277C53.4681 16.1125 54.2641 16.4411 55.0942 16.4411ZM55.0936 15.7097C54.4774 15.7097 53.8869 15.4638 53.454 15.027C52.5541 14.0531 52.5541 12.5549 53.454 11.581C53.8869 11.1442 54.4774 10.8983 55.0936 10.8983C55.7098 10.8983 56.3003 11.1442 56.7331 11.581C57.6188 12.5603 57.6188 14.0477 56.7331 15.027C56.3003 15.4638 55.7098 15.7097 55.0936 15.7097Z" fill="white"/>
<path d="M57.3071 15.5277L57.3898 15.6107L57.5907 15.4105H57.3071V15.5277ZM57.297 15.5277L57.2121 15.447L57.024 15.6449H57.297V15.5277ZM57.297 11.08L57.382 10.9993L57.3798 10.9971L57.297 11.08ZM52.8813 11.08L52.7985 10.997L52.7961 10.9995L52.8813 11.08ZM52.8813 15.5277L52.7961 15.6082L52.7986 15.6107L52.8813 15.5277ZM53.454 15.027L53.3679 15.1066L53.3708 15.1095L53.454 15.027ZM53.454 11.581L53.3707 11.4985L53.368 11.5015L53.454 11.581ZM56.7331 11.581L56.8201 11.5023L56.8164 11.4985L56.7331 11.581ZM56.7331 15.027L56.8164 15.1096L56.82 15.1056L56.7331 15.027ZM57.2244 15.4447C56.6596 16.0076 55.8934 16.3239 55.0942 16.3239V16.5583C55.9552 16.5583 56.7811 16.2175 57.3898 15.6107L57.2244 15.4447ZM57.297 15.6449H57.3071V15.4105H57.297V15.6449ZM57.2121 11.1607C58.3544 12.3631 58.3544 14.2447 57.2121 15.447L57.382 15.6084C58.6103 14.3156 58.6103 12.2921 57.382 10.9993L57.2121 11.1607ZM55.0892 10.2847C55.8866 10.2847 56.6512 10.6007 57.2142 11.1629L57.3798 10.9971C56.7728 10.3909 55.9486 10.0503 55.0892 10.0503V10.2847ZM52.9641 11.1629C53.5271 10.6007 54.2917 10.2847 55.0892 10.2847V10.0503C54.2297 10.0503 53.4056 10.3909 52.7985 10.9971L52.9641 11.1629ZM52.9665 15.4473C51.8289 14.2428 51.8289 12.3649 52.9665 11.1605L52.7961 10.9995C51.5732 12.2943 51.5732 14.3135 52.7961 15.6082L52.9665 15.4473ZM55.0942 16.3239C54.2951 16.3239 53.5288 16.0076 52.9641 15.4447L52.7986 15.6107C53.4073 16.2175 54.2332 16.5583 55.0942 16.5583V16.3239ZM53.3708 15.1095C53.8257 15.5686 54.4462 15.8269 55.0936 15.8269V15.5925C54.5086 15.5925 53.948 15.3591 53.5373 14.9445L53.3708 15.1095ZM53.368 11.5015C52.4266 12.5202 52.4266 14.0878 53.368 15.1065L53.5401 14.9475C52.6817 14.0185 52.6817 12.5895 53.5401 11.6605L53.368 11.5015ZM55.0936 10.7811C54.4462 10.7811 53.8257 11.0395 53.3708 11.4985L53.5373 11.6635C53.948 11.2489 54.5086 11.0155 55.0936 11.0155V10.7811ZM56.8164 11.4985C56.3615 11.0395 55.741 10.7811 55.0936 10.7811V11.0155C55.6786 11.0155 56.2391 11.2489 56.6499 11.6635L56.8164 11.4985ZM56.82 15.1056C57.7461 14.0817 57.7461 12.5264 56.82 11.5024L56.6462 11.6596C57.4915 12.5943 57.4915 14.0137 56.6462 14.9484L56.82 15.1056ZM55.0936 15.8269C55.741 15.8269 56.3615 15.5686 56.8164 15.1095L56.6499 14.9445C56.2391 15.3591 55.6786 15.5925 55.0936 15.5925V15.8269Z" fill="white"/>
<path d="M59.2773 16.3088V10.2983H60.2228L63.1197 14.9765V13.8144V10.2983H63.8942V16.3088H63.1197L60.1021 11.4103V12.5623V16.3088H59.2773Z" fill="white" stroke="white" stroke-width="0.234375"/>
<path d="M67.3745 16.3088H66.6V11.0396H64.9102V10.2983H69.0543V11.0396H67.3745V16.3088Z" fill="white" stroke="white" stroke-width="0.234375"/>
<path fill-rule="evenodd" clip-rule="evenodd" d="M70.0391 10.2982V16.3087H71.8798C72.7037 16.3457 73.507 16.0453 74.1027 15.4772C74.6709 14.8988 74.9732 14.1118 74.9376 13.3034C74.9732 12.495 74.6709 11.7081 74.1027 11.1297C73.507 10.5616 72.7037 10.2612 71.8798 10.2982H70.0391ZM71.8797 15.5672H70.8135V11.0393H71.9099C72.5274 10.9869 73.1367 11.2085 73.575 11.645C74.0132 12.0814 74.2357 12.6882 74.1831 13.3032C74.2074 13.9251 73.9747 14.5297 73.5393 14.9761C73.0861 15.3835 72.4895 15.596 71.8797 15.5672Z" fill="white"/>
<path d="M70.0391 16.3087H69.9219V16.4258H70.0391V16.3087ZM70.0391 10.2982V10.181H69.9219V10.2982H70.0391ZM71.8798 16.3087L71.885 16.1915H71.8798V16.3087ZM74.1027 15.4772L74.1836 15.5621L74.1863 15.5593L74.1027 15.4772ZM74.9376 13.3034L74.82 13.2983L74.8205 13.3086L74.9376 13.3034ZM74.1027 11.1297L74.1863 11.0475L74.1836 11.0449L74.1027 11.1297ZM71.8798 10.2982V10.4155L71.885 10.4153L71.8798 10.2982ZM70.8135 15.5672H70.6963V15.6844H70.8135V15.5672ZM71.8797 15.5672L71.8852 15.45H71.8797V15.5672ZM70.8135 11.0393V10.9221H70.6963V11.0393H70.8135ZM71.9099 11.0393V11.1569L71.9198 11.1561L71.9099 11.0393ZM73.575 11.645L73.4923 11.728L73.575 11.645ZM74.1831 13.3032L74.0663 13.2932L74.0657 13.3005L74.066 13.3078L74.1831 13.3032ZM73.5393 14.9761L73.6178 15.0635L73.6232 15.058L73.5393 14.9761ZM70.1562 16.3087V10.2982H69.9219V16.3087H70.1562ZM71.8798 16.1915H70.0391V16.4258H71.8798V16.1915ZM74.0218 15.3924C73.4493 15.9384 72.6771 16.2272 71.885 16.1916L71.8745 16.4257C72.7303 16.4642 73.5647 16.1522 74.1836 15.562L74.0218 15.3924ZM74.8205 13.3086C74.8547 14.0844 74.5646 14.8398 74.0191 15.3951L74.1863 15.5593C74.7772 14.9578 75.0917 14.1392 75.0546 13.2983L74.8205 13.3086ZM74.0191 11.2118C74.5646 11.7671 74.8547 12.5224 74.8205 13.2983L75.0546 13.3086C75.0917 12.4676 74.7772 11.6491 74.1863 11.0475L74.0191 11.2118ZM71.885 10.4153C72.6771 10.3797 73.4493 10.6685 74.0218 11.2145L74.1836 11.0449C73.5647 10.4547 72.7303 10.1427 71.8745 10.1812L71.885 10.4153ZM70.0391 10.4154H71.8798V10.181H70.0391V10.4154ZM70.8135 15.6844H71.8797V15.45H70.8135V15.6844ZM70.6963 11.0393V15.5672H70.9307V11.0393H70.6963ZM71.9099 10.9221H70.8135V11.1565H71.9099V10.9221ZM73.6576 11.5619C73.1949 11.1011 72.5517 10.8672 71.8999 10.9225L71.9198 11.1561C72.5031 11.1066 73.0785 11.3159 73.4923 11.728L73.6576 11.5619ZM74.2998 13.3132C74.3555 12.6636 74.1204 12.0228 73.6576 11.5619L73.4923 11.728C73.906 12.1401 74.116 12.7128 74.0663 13.2932L74.2998 13.3132ZM73.6232 15.058C74.081 14.5886 74.3258 13.9527 74.3002 13.2987L74.066 13.3078C74.089 13.8975 73.8684 14.4709 73.4554 14.8943L73.6232 15.058ZM71.8741 15.6842C72.5147 15.7145 73.1415 15.4914 73.6177 15.0633L73.461 14.889C73.0307 15.2757 72.4643 15.4775 71.8852 15.4501L71.8741 15.6842Z" fill="white"/>
<path d="M79.5579 11.0396H76.8018V12.9429H79.2863V13.6642H76.8018V15.5675H79.5579V16.3088H76.0273V10.2983H79.5579V11.0396Z" fill="white" stroke="white" stroke-width="0.234375"/>
<path d="M85.2508 10.2983L83.0077 12.8828L85.3916 16.3088H84.3857L82.374 13.5039L81.4386 14.5758V16.3088H80.6641V10.2983H81.4386V13.3937L84.2449 10.2983H85.2508Z" fill="white" stroke="white" stroke-width="0.234375"/>
<path d="M88.1953 16.3088V10.2983H88.9799V12.8728H91.9974V10.2983H92.7719V16.3088H91.9974V13.5941H88.9799V16.3088H88.1953Z" fill="white" stroke="white" stroke-width="0.234375"/>
<path d="M97.6728 11.0396H94.9269V12.9429H97.4113V13.6642H94.9269V15.5675H97.6728V16.3088H94.1523V10.2983H97.6728V11.0396Z" fill="white" stroke="white" stroke-width="0.234375"/>
<path d="M100.949 16.3088H100.164V11.0396H98.4844V10.2983H102.628V11.0396H100.949V16.3088Z" fill="white" stroke="white" stroke-width="0.234375"/>
<path fill-rule="evenodd" clip-rule="evenodd" d="M108.274 16.4411C109.104 16.4411 109.9 16.1125 110.486 15.5277H110.476C111.662 14.2801 111.662 12.3276 110.476 11.08C109.891 10.4958 109.097 10.1675 108.269 10.1675C107.44 10.1675 106.646 10.4958 106.061 11.08C104.865 12.3235 104.865 14.2842 106.061 15.5277C106.647 16.1125 107.444 16.4411 108.274 16.4411ZM108.273 15.7096C107.657 15.7096 107.067 15.4637 106.634 15.0269C105.734 14.053 105.734 12.5548 106.634 11.5809C107.067 11.1441 107.657 10.8982 108.273 10.8982C108.89 10.8982 109.48 11.1441 109.913 11.5809C110.799 12.5602 110.799 14.0476 109.913 15.0269C109.48 15.4637 108.89 15.7096 108.273 15.7096Z" fill="white"/>
<path d="M110.486 15.5277L110.569 15.6107L110.77 15.4105H110.486V15.5277ZM110.476 15.5277L110.391 15.447L110.203 15.6449H110.476V15.5277ZM110.476 11.08L110.561 10.9993L110.559 10.9971L110.476 11.08ZM106.061 11.08L105.978 10.9971L105.976 10.9988L106.061 11.08ZM106.061 15.5277L105.976 15.609L105.978 15.6107L106.061 15.5277ZM106.634 15.0269L106.548 15.1065L106.551 15.1094L106.634 15.0269ZM106.634 11.5809L106.551 11.4984L106.548 11.5014L106.634 11.5809ZM109.913 11.5809L110 11.5022L109.996 11.4984L109.913 11.5809ZM109.913 15.0269L109.996 15.1094L110 15.1055L109.913 15.0269ZM110.404 15.4447C109.839 16.0076 109.073 16.3239 108.274 16.3239V16.5583C109.135 16.5583 109.96 16.2175 110.569 15.6107L110.404 15.4447ZM110.476 15.6449H110.486V15.4105H110.476V15.6449ZM110.391 11.1607C111.534 12.3631 111.534 14.2447 110.391 15.447L110.561 15.6084C111.79 14.3156 111.79 12.2921 110.561 10.9993L110.391 11.1607ZM108.269 10.2847C109.066 10.2847 109.831 10.6007 110.394 11.1629L110.559 10.9971C109.952 10.3909 109.128 10.0503 108.269 10.0503V10.2847ZM106.144 11.1629C106.707 10.6007 107.471 10.2847 108.269 10.2847V10.0503C107.409 10.0503 106.585 10.3909 105.978 10.9971L106.144 11.1629ZM106.145 15.4465C104.993 14.2484 104.993 12.3594 106.145 11.1612L105.976 10.9988C104.737 12.2877 104.737 14.3201 105.976 15.6089L106.145 15.4465ZM108.274 16.3239C107.474 16.3239 106.708 16.0076 106.143 15.4447L105.978 15.6107C106.587 16.2175 107.413 16.5583 108.274 16.5583V16.3239ZM106.551 15.1094C107.006 15.5684 107.626 15.8268 108.273 15.8268V15.5924C107.688 15.5924 107.128 15.359 106.717 14.9444L106.551 15.1094ZM106.548 11.5014C105.606 12.5201 105.606 14.0877 106.548 15.1064L106.72 14.9473C105.862 14.0184 105.862 12.5894 106.72 11.6604L106.548 11.5014ZM108.273 10.781C107.626 10.781 107.006 11.0393 106.551 11.4984L106.717 11.6634C107.128 11.2488 107.688 11.0154 108.273 11.0154V10.781ZM109.996 11.4984C109.541 11.0393 108.921 10.781 108.273 10.781V11.0154C108.858 11.0154 109.419 11.2488 109.83 11.6634L109.996 11.4984ZM110 15.1055C110.926 14.0815 110.926 12.5262 110 11.5023L109.826 11.6595C110.671 12.5942 110.671 14.0136 109.826 14.9483L110 15.1055ZM108.273 15.8268C108.921 15.8268 109.541 15.5684 109.996 15.1094L109.83 14.9444C109.419 15.359 108.858 15.5924 108.273 15.5924V15.8268Z" fill="white"/>
<path fill-rule="evenodd" clip-rule="evenodd" d="M112.457 16.309H113.232L113.181 13.8748H114.469C114.961 13.8832 115.438 13.6999 115.796 13.3639C116.15 13.0326 116.351 12.5704 116.351 12.0867C116.351 11.603 116.15 11.1408 115.796 10.8095C115.438 10.4735 114.961 10.2902 114.469 10.2986H112.457V16.309ZM114.529 13.133H113.231V11.0394H114.529C114.825 11.0259 115.112 11.1432 115.314 11.3599C115.513 11.5491 115.627 11.8116 115.627 12.0862C115.627 12.3608 115.513 12.6233 115.314 12.8125C115.112 13.0292 114.825 13.1465 114.529 13.133Z" fill="white"/>
<path d="M113.232 16.309V16.4262H113.351L113.349 16.3066L113.232 16.309ZM112.457 16.309H112.34V16.4262H112.457V16.309ZM113.181 13.8748V13.7576H113.062L113.064 13.8772L113.181 13.8748ZM114.469 13.8748L114.471 13.7576H114.469V13.8748ZM115.796 13.3639L115.877 13.4495L115.877 13.4495L115.796 13.3639ZM115.796 10.8095L115.877 10.724L115.877 10.724L115.796 10.8095ZM114.469 10.2986V10.4158L114.471 10.4158L114.469 10.2986ZM112.457 10.2986V10.1814H112.34V10.2986H112.457ZM113.231 13.133H113.114V13.2502H113.231V13.133ZM114.529 13.133L114.534 13.0158H114.529V13.133ZM113.231 11.0394V10.9222H113.114V11.0394H113.231ZM114.529 11.0394V11.1567L114.534 11.1564L114.529 11.0394ZM115.314 11.3599L115.227 11.4398L115.233 11.4451L115.314 11.3599ZM115.314 12.8125L115.233 12.7272L115.228 12.7327L115.314 12.8125ZM113.232 16.1919H112.457V16.4262H113.232V16.1919ZM113.064 13.8772L113.114 16.3115L113.349 16.3066L113.298 13.8724L113.064 13.8772ZM114.469 13.7576H113.181V13.992H114.469V13.7576ZM115.716 13.2784C115.38 13.5936 114.933 13.7656 114.471 13.7577L114.467 13.992C114.99 14.0009 115.495 13.8063 115.877 13.4495L115.716 13.2784ZM116.234 12.0867C116.234 12.5379 116.047 12.9692 115.716 13.2784L115.877 13.4495C116.254 13.0961 116.468 12.6029 116.468 12.0867H116.234ZM115.716 10.895C116.047 11.2043 116.234 11.6355 116.234 12.0867H116.468C116.468 11.5705 116.254 11.0774 115.877 10.724L115.716 10.895ZM114.471 10.4158C114.933 10.4079 115.38 10.5799 115.716 10.895L115.877 10.724C115.495 10.3671 114.99 10.1725 114.467 10.1814L114.471 10.4158ZM112.457 10.4158H114.469V10.1814H112.457V10.4158ZM112.574 16.309V10.2986H112.34V16.309H112.574ZM113.231 13.2502H114.529V13.0158H113.231V13.2502ZM113.114 11.0394V13.133H113.349V11.0394H113.114ZM114.529 10.9222H113.231V11.1566H114.529V10.9222ZM115.399 11.2802C115.175 11.0381 114.854 10.9072 114.524 10.9223L114.534 11.1564C114.796 11.1445 115.05 11.2482 115.228 11.4397L115.399 11.2802ZM115.744 12.0862C115.744 11.7793 115.617 11.486 115.394 11.2748L115.233 11.4451C115.41 11.6121 115.509 11.8439 115.509 12.0862H115.744ZM115.394 12.8976C115.617 12.6864 115.744 12.3931 115.744 12.0862H115.509C115.509 12.3285 115.41 12.5603 115.233 12.7273L115.394 12.8976ZM114.524 13.2501C114.854 13.2652 115.175 13.1343 115.399 12.8922L115.228 12.7327C115.05 12.9242 114.796 13.0279 114.534 13.016L114.524 13.2501Z" fill="white"/>
<path d="M80.145 25.931C77.6875 25.931 75.6846 27.8084 75.6846 30.3966C75.6846 32.9681 77.6875 34.8623 80.145 34.8623C82.6025 34.8623 84.6055 32.9681 84.6055 30.3966C84.6055 27.8084 82.6025 25.931 80.145 25.931ZM80.145 33.1035C78.7982 33.1035 77.6364 31.9874 77.6364 30.3966C77.6364 28.7891 78.7982 27.6897 80.145 27.6897C81.4918 27.6897 82.6527 28.7891 82.6527 30.3966C82.6527 31.9863 81.4918 33.1035 80.145 33.1035ZM70.4133 25.931C67.9558 25.931 65.9529 27.8084 65.9529 30.3966C65.9529 32.9681 67.9558 34.8623 70.4133 34.8623C72.8708 34.8623 74.8738 32.9681 74.8738 30.3966C74.8748 27.8084 72.8708 25.931 70.4133 25.931ZM70.4133 33.1035C69.0665 33.1035 67.9057 31.9874 67.9057 30.3966C67.9057 28.7891 69.0676 27.6897 70.4133 27.6897C71.7601 27.6897 72.921 28.7891 72.921 30.3966C72.922 31.9863 71.7601 33.1035 70.4133 33.1035ZM58.8385 27.3012V29.1954H63.3502C63.2154 30.2612 62.8622 31.0392 62.3231 31.581C61.6669 32.2404 60.6398 32.9681 58.8385 32.9681C56.0613 32.9681 53.8901 30.7179 53.8901 27.927C53.8901 25.1361 56.0613 22.886 58.8385 22.886C60.3368 22.886 61.4308 23.4782 62.2384 24.2394L63.5685 22.9028C62.4411 21.8202 60.9428 20.9907 58.8385 20.9907C55.0342 20.9907 51.8359 24.1029 51.8359 27.926C51.8359 31.749 55.0342 34.8612 58.8385 34.8612C60.8916 34.8612 62.4411 34.185 63.6532 32.9156C64.8986 31.664 65.2863 29.9042 65.2863 28.4835C65.2863 28.0436 65.2528 27.6372 65.1849 27.2991H58.8385V27.3012ZM106.178 28.7723C105.809 27.7737 104.68 25.9299 102.374 25.9299C100.085 25.9299 98.1833 27.7401 98.1833 30.3956C98.1833 32.8988 100.068 34.8612 102.594 34.8612C104.63 34.8612 105.809 33.6096 106.297 32.882L104.781 31.8666C104.277 32.6111 103.586 33.1014 102.594 33.1014C101.6 33.1014 100.894 32.6447 100.439 31.748L106.381 29.2784L106.178 28.7723ZM100.118 30.2612C100.068 28.536 101.448 27.6561 102.441 27.6561C103.215 27.6561 103.871 28.0446 104.091 28.6032L100.118 30.2612ZM95.287 34.5914H97.2398V21.4653H95.287V34.5914ZM92.0887 26.9285H92.0218C91.584 26.4045 90.7429 25.9299 89.6824 25.9299C87.46 25.9299 85.4236 27.8924 85.4236 30.4124C85.4236 32.9156 87.46 34.8612 89.6824 34.8612C90.7429 34.8612 91.584 34.3877 92.0218 33.8459H92.0887V34.4885C92.0887 36.1968 91.1797 37.1103 89.7148 37.1103C88.5195 37.1103 87.7787 36.2472 87.4757 35.5206L85.7757 36.2315C86.2637 37.4159 87.5603 38.8701 89.7148 38.8701C92.004 38.8701 93.9401 37.5167 93.9401 34.2186V26.2008H92.0887V26.9285ZM89.8506 33.1035C88.5038 33.1035 87.3764 31.9706 87.3764 30.4134C87.3764 28.8405 88.5038 27.6897 89.8506 27.6897C91.1807 27.6897 92.2235 28.8395 92.2235 30.4134C92.2235 31.9695 91.1807 33.1035 89.8506 33.1035ZM115.325 21.4653H110.654V34.5914H112.602V29.6186H115.324C117.485 29.6186 119.609 28.0467 119.609 25.5425C119.609 23.0382 117.486 21.4653 115.325 21.4653ZM115.375 27.7916H112.602V23.2923H115.375C116.833 23.2923 117.66 24.5051 117.66 25.5425C117.66 26.5589 116.833 27.7916 115.375 27.7916ZM127.424 25.9068C126.013 25.9068 124.551 26.5316 123.946 27.9165L125.677 28.6431C126.047 27.9165 126.736 27.6803 127.459 27.6803C128.467 27.6803 129.492 28.2882 129.509 29.3687V29.5041C129.156 29.3015 128.399 28.997 127.476 28.997C125.611 28.997 123.711 30.027 123.711 31.9527C123.711 33.7094 125.241 34.8402 126.954 34.8402C128.265 34.8402 128.987 34.2491 129.441 33.5571H129.508V34.5704H131.39V29.5377C131.39 27.2067 129.659 25.9068 127.424 25.9068ZM127.188 33.1004C126.55 33.1004 125.659 32.7791 125.659 31.9863C125.659 30.9731 126.768 30.5846 127.725 30.5846C128.582 30.5846 128.985 30.7704 129.507 31.0235C129.356 32.2394 128.315 33.1004 127.188 33.1004ZM138.246 26.1935L136.011 31.8845H135.944L133.626 26.1935H131.525L135.004 34.1472L133.021 38.5719H135.054L140.415 26.1935H138.246ZM120.685 34.5914H122.635V21.4653H120.685V34.5914Z" fill="white"/>
<path d="M19.851 10.9822C19.5469 11.3056 19.3672 11.8075 19.3672 12.4574V35.6792C19.3672 36.3302 19.5469 36.8311 19.851 37.1545L19.9283 37.2301L32.8729 24.2216V24.0683V23.915L19.9283 10.9055L19.851 10.9822Z" fill="url(#paint0_linear_1597_30763)"/>
<path d="M37.1892 28.5602L32.875 24.2227V24.0694V23.9161L37.1902 19.5796L37.2874 19.6352L42.3998 22.5542C43.8605 23.3879 43.8605 24.7519 42.3998 25.5866L37.2874 28.5056L37.1892 28.5602Z" fill="url(#paint1_linear_1597_30763)"/>
<path d="M37.2869 28.5036L32.8745 24.0684L19.8516 37.1545C20.3332 37.6669 21.1273 37.7299 22.0228 37.2186L37.2869 28.5036Z" fill="url(#paint2_linear_1597_30763)"/>
<path d="M37.2859 19.6332L22.0228 10.9182C21.1273 10.4068 20.3332 10.4709 19.8516 10.9822L32.8735 24.0684L37.2859 19.6332Z" fill="url(#paint3_linear_1597_30763)"/>
<path opacity="0.2" d="M37.1898 28.406L22.0238 37.0654C21.1754 37.5494 20.4168 37.5179 19.9299 37.0769L19.8516 37.1557L19.9289 37.2313C20.4158 37.6723 21.1743 37.7048 22.0228 37.2197L37.2859 28.5047L37.1898 28.406Z" fill="white"/>
<path opacity="0.12" d="M19.8499 37.0014C19.5465 36.678 19.3672 36.1761 19.3672 35.5261V35.6794C19.3672 36.3294 19.5465 36.8313 19.8499 37.1547L19.9281 37.0759L19.8499 37.0014Z" fill="white"/>
<path opacity="0.12" d="M42.3971 25.4312L37.1875 28.4058L37.2847 28.5035L42.3971 25.5845C43.1275 25.1676 43.4921 24.6185 43.4921 24.0693C43.4305 24.566 43.0585 25.0532 42.3971 25.4312Z" fill="white"/>
<path opacity="0.25" d="M22.0221 11.0715L42.3977 22.7055C43.0601 23.0835 43.4311 23.5707 43.4927 24.0684C43.4927 23.5193 43.128 22.9691 42.3977 22.5522L22.0221 10.9182C20.5614 10.0845 19.3672 10.7765 19.3672 12.4575V12.6119C19.3672 10.9308 20.5625 10.2378 22.0221 11.0715Z" fill="white"/>
<defs>
<linearGradient id="paint0_linear_1597_30763" x1="31.7252" y1="12.2126" x2="14.1039" y2="29.7474" gradientUnits="userSpaceOnUse">
<stop stop-color="#00A0FF"/>
<stop offset="0.0066" stop-color="#00A1FF"/>
<stop offset="0.2601" stop-color="#00BEFF"/>
<stop offset="0.5122" stop-color="#00D2FF"/>
<stop offset="0.7604" stop-color="#00DFFF"/>
<stop offset="1" stop-color="#00E3FF"/>
</linearGradient>
<linearGradient id="paint1_linear_1597_30763" x1="44.3007" y1="24.0689" x2="19.0187" y2="24.0689" gradientUnits="userSpaceOnUse">
<stop stop-color="#FFE000"/>
<stop offset="0.4087" stop-color="#FFBD00"/>
<stop offset="0.7754" stop-color="#FFA500"/>
<stop offset="1" stop-color="#FF9C00"/>
</linearGradient>
<linearGradient id="paint2_linear_1597_30763" x1="34.8889" y1="26.4783" x2="10.993" y2="50.257" gradientUnits="userSpaceOnUse">
<stop stop-color="#FF3A44"/>
<stop offset="1" stop-color="#C31162"/>
</linearGradient>
<linearGradient id="paint3_linear_1597_30763" x1="16.572" y1="3.25244" x2="27.2426" y2="13.8706" gradientUnits="userSpaceOnUse">
<stop stop-color="#32A071"/>
<stop offset="0.0685" stop-color="#2DA771"/>
<stop offset="0.4762" stop-color="#15CF74"/>
<stop offset="0.8009" stop-color="#06E775"/>
<stop offset="1" stop-color="#00F076"/>
</linearGradient>
</defs>
</svg>
