<svg width="18" height="18" viewBox="0 0 18 18" fill="none" xmlns="http://www.w3.org/2000/svg">
<g clip-path="url(#clip0_1772_123031)">
<path d="M9 0C4.03725 0 0 4.03725 0 9C0 13.9628 4.03725 18 9 18C13.9628 18 18 13.9628 18 9C18 4.03725 13.9628 0 9 0ZM6.75 15.3638V13.875C6.75 13.6687 6.918 13.5 7.125 13.5H10.875C11.082 13.5 11.25 13.6687 11.25 13.875V15.3638C10.5457 15.6135 9.78825 15.75 9 15.75C8.21175 15.75 7.45425 15.6135 6.75 15.3638ZM13.5 14.0265V13.875C13.5 12.4275 12.3225 11.25 10.875 11.25H7.125C5.6775 11.25 4.5 12.4275 4.5 13.875V14.0265C3.12 12.7898 2.25 10.995 2.25 9C2.25 5.27775 5.2785 2.25 9 2.25C12.7215 2.25 15.75 5.27775 15.75 9C15.75 10.995 14.88 12.7898 13.5 14.0265ZM9 4.5C7.5525 4.5 6.375 5.6775 6.375 7.125C6.375 8.5725 7.5525 9.75 9 9.75C10.4475 9.75 11.625 8.5725 11.625 7.125C11.625 5.6775 10.4475 4.5 9 4.5Z" fill="#315EFD"/>
</g>
<defs>
<clipPath id="clip0_1772_123031">
<rect width="18" height="18" fill="white"/>
</clipPath>
</defs>
</svg>
