<svg width="160" height="48" viewBox="0 0 160 48" fill="none" xmlns="http://www.w3.org/2000/svg">
<rect width="160" height="48" rx="5" fill="black"/>
<path d="M42.6861 24.23C42.7108 22.4383 43.717 20.7833 45.3522 19.8449C44.316 18.4633 42.6426 17.6188 40.8368 17.5661C38.937 17.3799 37.0953 18.6273 36.1271 18.6273C35.1403 18.6273 33.6498 17.5845 32.0447 17.6154C29.9328 17.6791 28.0118 18.7728 26.9843 20.4964C24.7963 24.0328 26.4284 29.2301 28.5243 32.0887C29.5729 33.4884 30.7985 35.052 32.4021 34.9966C33.9713 34.9358 34.5574 34.0624 36.4516 34.0624C38.3282 34.0624 38.8781 34.9966 40.5143 34.9613C42.1981 34.9358 43.259 33.5553 44.2709 32.1423C45.0244 31.1449 45.6041 30.0426 45.9888 28.8762C43.9888 28.0865 42.6884 26.2571 42.6861 24.23Z" fill="white"/>
<path d="M39.5948 15.6866C40.513 14.6577 40.9653 13.3352 40.8557 12C39.4531 12.1375 38.1574 12.7634 37.2269 13.7528C36.308 14.729 35.8426 16.0061 35.933 17.3029C37.3544 17.3165 38.7041 16.7208 39.5948 15.6866Z" fill="white"/>
<path fill-rule="evenodd" clip-rule="evenodd" d="M56.3632 31.5947H61.5128L62.7484 35.0036H64.9668L60.0891 22.3916H57.823L52.9453 35.0036H55.1265L56.3632 31.5947ZM60.9783 30.0221H56.8964L58.9098 24.4897H58.9661L60.9783 30.0221Z" fill="white"/>
<path fill-rule="evenodd" clip-rule="evenodd" d="M71.3904 35.0992C73.8627 35.0992 75.501 33.2634 75.501 30.4059C75.501 27.5564 73.8531 25.7117 71.3532 25.7117C70.0668 25.6729 68.8618 26.2975 68.2168 27.3373H68.1797V25.8079H66.2227V38.0449H68.2445V33.4905H68.2913C68.9088 34.5368 70.1125 35.1616 71.3904 35.0992ZM70.8202 27.3206C72.3926 27.3206 73.4232 28.5445 73.4232 30.4061C73.4232 32.2846 72.3926 33.4996 70.8202 33.4996C69.2754 33.4996 68.2363 32.2588 68.2363 30.4061C68.2363 28.5702 69.2754 27.3206 70.8202 27.3206Z" fill="white"/>
<path fill-rule="evenodd" clip-rule="evenodd" d="M82.2341 35.0995C84.7064 35.0995 86.3452 33.2636 86.3452 30.4062C86.3452 27.5567 84.6969 25.7119 82.1969 25.7119C80.9106 25.6732 79.7055 26.2978 79.0606 27.3375H79.0234V25.8081H77.0664V38.0452H79.0882V33.4907H79.135C79.7525 34.537 80.9562 35.1619 82.2341 35.0995ZM81.664 27.3208C83.2364 27.3208 84.267 28.5447 84.267 30.4064H84.2669C84.2669 32.2849 83.2364 33.4998 81.664 33.4998C80.1192 33.4998 79.0801 32.2591 79.0801 30.4064C79.0801 28.5705 80.1192 27.3208 81.664 27.3208Z" fill="white"/>
<path d="M93.5072 31.4899C93.657 32.7406 94.9585 33.5618 96.737 33.5618C98.4411 33.5618 99.6672 32.7406 99.6672 31.6128C99.6672 30.6339 98.9277 30.0478 97.1768 29.6461L95.4259 29.2523C92.9452 28.6929 91.7935 27.6099 91.7935 25.8524C91.7935 23.6763 93.8249 22.1816 96.7083 22.1816C99.5641 22.1816 101.521 23.6763 101.587 25.8524H99.5461C99.4239 24.5937 98.3094 23.834 96.6807 23.834C95.0519 23.834 93.9375 24.6027 93.9375 25.7214C93.9375 26.6131 94.6493 27.1378 96.3906 27.5394L97.8791 27.8806C100.651 28.4926 101.802 29.532 101.802 31.3768C101.802 33.7363 99.7894 35.2141 96.5871 35.2141C93.5911 35.2141 91.5682 33.771 91.4375 31.4898L93.5072 31.4899Z" fill="white"/>
<path d="M106.167 23.6323V25.8084H108.04V27.303H106.167V32.3722C106.167 33.1597 106.542 33.5267 107.365 33.5267C107.587 33.5231 107.809 33.5085 108.03 33.483V34.9688C107.66 35.0333 107.284 35.0626 106.907 35.0561C104.913 35.0561 104.135 34.3568 104.135 32.5735V27.303H102.703V25.8084H104.135V23.6323H106.167Z" fill="white"/>
<path fill-rule="evenodd" clip-rule="evenodd" d="M113.797 25.6958C110.95 25.6958 109.125 27.5138 109.125 30.4069C109.125 33.308 110.932 35.1181 113.797 35.1181C116.662 35.1181 118.469 33.308 118.469 30.4069C118.469 27.5138 116.652 25.6958 113.797 25.6958ZM113.797 27.2515C115.435 27.2515 116.41 28.4228 116.41 30.4074H116.41C116.41 32.4 115.435 33.5624 113.797 33.5624C112.159 33.5624 111.185 32.4 111.185 30.4074C111.185 28.4317 112.159 27.2515 113.797 27.2515Z" fill="white"/>
<path d="M120.133 25.8088H122.061V27.3738H122.108C122.377 26.3663 123.366 25.6729 124.477 25.7126C124.71 25.7118 124.943 25.7354 125.17 25.783V27.5484C124.876 27.4645 124.569 27.426 124.261 27.4344C123.667 27.4118 123.092 27.633 122.687 28.0397C122.282 28.4464 122.087 28.9981 122.155 29.5499V35.0039H120.133L120.133 25.8088Z" fill="white"/>
<path fill-rule="evenodd" clip-rule="evenodd" d="M130.253 35.1181C132.481 35.1181 134.223 33.9725 134.495 32.3033L132.575 32.3033C132.206 33.1565 131.281 33.6824 130.3 33.5966C129.564 33.6219 128.853 33.3509 128.346 32.8526C127.839 32.3543 127.585 31.6767 127.65 30.9921V30.8781H134.607V30.2314C134.607 27.4434 132.893 25.6958 130.168 25.6958C127.397 25.6958 125.609 27.5664 125.609 30.4506C125.609 33.3259 127.388 35.1181 130.253 35.1181ZM132.585 29.5586L127.66 29.5586C127.658 28.9378 127.922 28.3421 128.393 27.9038C128.865 27.4656 129.504 27.2212 130.169 27.2249C130.828 27.2116 131.464 27.456 131.923 27.899C132.381 28.342 132.621 28.9435 132.585 29.5586Z" fill="white"/>
<path fill-rule="evenodd" clip-rule="evenodd" d="M58.9363 13.7281C58.3446 13.1448 57.5039 12.84 56.6456 12.8975H54.3008V18.9575H56.6456C58.5793 18.9575 59.7001 17.8447 59.7001 15.9086C59.8083 15.1117 59.528 14.3114 58.9363 13.7281ZM56.5325 18.1001H55.3086V13.7534H56.5325C57.1427 13.7218 57.736 13.9464 58.1503 14.3658C58.5646 14.7851 58.7564 15.3554 58.6733 15.9206C58.7629 16.4881 58.5738 17.0631 58.1585 17.4859C57.7432 17.9087 57.1459 18.1343 56.5325 18.1001Z" fill="white"/>
<path fill-rule="evenodd" clip-rule="evenodd" d="M61.9257 14.6211C61.1761 15.0552 60.7551 15.8486 60.8391 16.6683C60.7535 17.4889 61.1742 18.2837 61.9243 18.7189C62.6745 19.154 63.6242 19.154 64.3744 18.7189C65.1246 18.2837 65.5452 17.4889 65.4596 16.6683C65.5436 15.8486 65.1226 15.0552 64.3731 14.6211C63.6236 14.1869 62.6752 14.1869 61.9257 14.6211ZM63.1511 15.0969C63.9882 15.0969 64.4653 15.6766 64.4653 16.6679H64.4653C64.4653 17.6632 63.9883 18.2425 63.1511 18.2425C62.3107 18.2425 61.8379 17.6672 61.8379 16.668C61.8379 15.6766 62.3107 15.0969 63.1511 15.0969Z" fill="white"/>
<path d="M71.6002 18.9566H70.5972L69.5847 15.5884H69.5082L68.5 18.9566H67.5066L66.1562 14.3833H67.1369L68.0145 17.873H68.0867L69.0939 14.3833H70.0214L71.0286 17.873H71.1051L71.9784 14.3833H72.9452L71.6002 18.9566Z" fill="white"/>
<path d="M74.082 14.3838H75.0127V15.1103H75.085C75.3362 14.5754 75.9233 14.2482 76.5469 14.2955C77.0297 14.2617 77.5029 14.4346 77.8328 14.7655C78.1626 15.0964 78.3134 15.5494 78.2425 15.9965V18.957H77.2757V16.2232C77.2757 15.4882 76.9336 15.1227 76.2186 15.1227C75.8911 15.1085 75.5733 15.2285 75.3484 15.4512C75.1236 15.674 75.0142 15.9773 75.0488 16.2817V18.9571H74.082V14.3838Z" fill="white"/>
<path d="M79.7832 12.5984H80.7494V18.9569H79.7832V12.5984Z" fill="white"/>
<path fill-rule="evenodd" clip-rule="evenodd" d="M83.1797 14.6211C82.4301 15.0553 82.009 15.8486 82.093 16.6684C82.0075 17.489 82.4282 18.2838 83.1784 18.7189C83.9287 19.1541 84.8784 19.1541 85.6286 18.7189C86.3788 18.2838 86.7995 17.489 86.714 16.6684C86.798 15.8486 86.3769 15.0553 85.6273 14.6211C84.8777 14.1869 83.9293 14.1869 83.1797 14.6211ZM84.405 15.0977C85.2422 15.0977 85.7192 15.6774 85.7192 16.6687C85.7192 17.664 85.2421 18.2433 84.405 18.2433C83.5646 18.2433 83.0918 17.668 83.0918 16.6688C83.0918 15.6774 83.5646 15.0977 84.405 15.0977Z" fill="white"/>
<path fill-rule="evenodd" clip-rule="evenodd" d="M89.5564 16.2984C88.391 16.3658 87.7344 16.8404 87.7344 17.6636C87.736 18.0539 87.9145 18.4254 88.2256 18.6862C88.5367 18.9469 88.9515 19.0727 89.3673 19.0323C89.9606 19.0579 90.5227 18.7836 90.8388 18.3143H90.9153V18.957H91.846V15.8322C91.846 14.8662 91.1533 14.2954 89.9251 14.2954C88.8138 14.2954 88.0223 14.7992 87.9235 15.5848H88.8595C88.9668 15.2614 89.3408 15.0765 89.8805 15.0765C90.5413 15.0765 90.8834 15.3492 90.8834 15.8322V16.227L89.5564 16.2984ZM90.8839 16.8911V17.2735C90.8628 17.5649 90.7158 17.8359 90.4767 18.0244C90.2376 18.2128 89.9268 18.3026 89.6155 18.2732C89.0895 18.2732 88.707 18.0337 88.707 17.6221C88.707 17.2189 89.013 17.0047 89.6877 16.9625L90.8839 16.8911Z" fill="white"/>
<path fill-rule="evenodd" clip-rule="evenodd" d="M95.1468 14.308C93.9091 14.308 93.1133 15.2235 93.1133 16.6686C93.1133 18.1171 93.9006 19.0326 95.1468 19.0325C95.7786 19.0543 96.3712 18.7469 96.6852 18.2346H96.7617V18.9572H97.6881V12.5986H96.7213V15.1104H96.6491C96.3571 14.5938 95.7718 14.2812 95.1468 14.308ZM95.4203 18.2225C94.6012 18.2225 94.1114 17.6389 94.1114 16.6689H94.1113C94.1113 15.7068 94.6064 15.1191 95.4203 15.1191C96.2299 15.1191 96.7388 15.7197 96.7388 16.6728C96.7388 17.6304 96.2352 18.2225 95.4203 18.2225Z" fill="white"/>
<path fill-rule="evenodd" clip-rule="evenodd" d="M102.165 12.4665C101.933 12.568 101.791 12.7917 101.806 13.0309C101.807 13.1823 101.875 13.3266 101.993 13.4304C102.111 13.5342 102.269 13.5885 102.431 13.5808C102.688 13.5806 102.918 13.4342 103.013 13.2115C103.107 12.9887 103.046 12.7346 102.86 12.5704C102.673 12.4061 102.398 12.3649 102.165 12.4665ZM102.912 14.3834H101.949V18.9567H102.912V14.3834Z" fill="white"/>
<path d="M104.473 14.3838H105.403V15.1103H105.476C105.727 14.5754 106.314 14.2482 106.938 14.2955C107.42 14.2617 107.894 14.4346 108.223 14.7655C108.553 15.0964 108.704 15.5494 108.633 15.9965V18.957H107.666V16.2232C107.666 15.4882 107.324 15.1227 106.609 15.1227C106.282 15.1085 105.964 15.2285 105.739 15.4512C105.514 15.674 105.405 15.9773 105.439 16.2817V18.9571H104.473L104.473 14.3838Z" fill="white"/>
<path fill-rule="evenodd" clip-rule="evenodd" d="M114.576 14.308C113.339 14.308 112.543 15.2235 112.543 16.6686C112.543 18.1171 113.33 19.0326 114.576 19.0325C115.208 19.0543 115.801 18.7469 116.115 18.2346H116.191V18.9572H117.118V12.5986H116.151V15.1104H116.079C115.787 14.5938 115.201 14.2812 114.576 14.308ZM114.85 18.2225C114.031 18.2225 113.541 17.6389 113.541 16.6689H113.541C113.541 15.7068 114.036 15.1191 114.85 15.1191C115.66 15.1191 116.168 15.7197 116.168 16.6728C116.168 17.6304 115.665 18.2225 114.85 18.2225Z" fill="white"/>
<path fill-rule="evenodd" clip-rule="evenodd" d="M120.725 19.0453C121.683 19.1422 122.577 18.5849 122.848 17.7222L121.917 17.7222C121.685 18.1106 121.225 18.3296 120.752 18.2766C120.387 18.2804 120.038 18.1404 119.789 17.8909C119.541 17.6415 119.417 17.3058 119.447 16.9665V16.9159H122.906V16.6009C122.906 15.1649 122.084 14.2955 120.721 14.2955C120.066 14.2903 119.441 14.5506 119.008 15.009C118.574 15.4674 118.375 16.0788 118.462 16.6848C118.373 17.2891 118.573 17.8995 119.008 18.3541C119.444 18.8086 120.072 19.0614 120.725 19.0453ZM121.922 16.2481H119.448C119.443 15.9327 119.575 15.6291 119.814 15.406C120.053 15.1829 120.378 15.0594 120.716 15.0633C121.049 15.0562 121.37 15.1808 121.6 15.4064C121.83 15.632 121.947 15.9377 121.922 16.2481Z" fill="white"/>
</svg>
