<svg width="34" height="34" viewBox="0 0 34 34" fill="none" xmlns="http://www.w3.org/2000/svg">
<g clip-path="url(#clip0_1135_7052)">
<path d="M3.79346 3.68441C0.804201 6.73859 -0.239669 14.0913 0.0450223 19.634C0.203184 22.7367 0.914914 28.3279 3.88836 30.7681C6.51385 32.9496 11.7965 34 17 34C22.2035 34 27.4861 32.9173 30.1116 30.7681C33.0851 28.3279 33.7968 22.6882 33.955 19.634C34.2397 14.0913 33.1958 6.70627 30.2065 3.68441C25.3984 -1.22814 8.60159 -1.22814 3.79346 3.68441Z" fill="#315EFD"/>
<g clip-path="url(#clip1_1135_7052)">
<path d="M22.25 11H21.4242C21.0755 9.29075 19.5605 8 17.75 8H16.25C14.4395 8 12.9237 9.29075 12.5757 11H11.75C9.68225 11 8 12.6823 8 14.75V22.25C8 24.3177 9.68225 26 11.75 26H22.25C24.3177 26 26 24.3177 26 22.25V14.75C26 12.6823 24.3177 11 22.25 11ZM16.25 9.5H17.75C18.728 9.5 19.5612 10.127 19.871 11H14.129C14.4387 10.127 15.272 9.5 16.25 9.5ZM11.75 12.5H22.25C23.4905 12.5 24.5 13.5095 24.5 14.75V15.5H22.25V14.75C22.25 14.336 21.9148 14 21.5 14C21.0852 14 20.75 14.336 20.75 14.75V15.5H13.25V14.75C13.25 14.336 12.9148 14 12.5 14C12.0852 14 11.75 14.336 11.75 14.75V15.5H9.5V14.75C9.5 13.5095 10.5095 12.5 11.75 12.5ZM22.25 24.5H11.75C10.5095 24.5 9.5 23.4905 9.5 22.25V17H11.75V17.75C11.75 18.164 12.0852 18.5 12.5 18.5C12.9148 18.5 13.25 18.164 13.25 17.75V17H20.75V17.75C20.75 18.164 21.0852 18.5 21.5 18.5C21.9148 18.5 22.25 18.164 22.25 17.75V17H24.5V22.25C24.5 23.4905 23.4905 24.5 22.25 24.5Z" fill="white"/>
</g>
</g>
<defs>
<clipPath id="clip0_1135_7052">
<rect width="34" height="34" fill="white"/>
</clipPath>
<clipPath id="clip1_1135_7052">
<rect width="18" height="18" fill="white" transform="translate(8 8)"/>
</clipPath>
</defs>
</svg>
