<svg width="160" height="48" fill="none" xmlns="http://www.w3.org/2000/svg"><rect x=".5" y=".5" width="159" height="47" rx="4.5" fill="#fff"/><rect x=".5" y=".5" width="159" height="47" rx="4.5" stroke="#E1E2E8"/><path fill-rule="evenodd" clip-rule="evenodd" d="M55.098 16.441c.83 0 1.626-.328 2.213-.913h-.01a3.226 3.226 0 0 0 0-4.448 3.125 3.125 0 0 0-4.416 0 3.236 3.236 0 0 0 0 4.448 3.135 3.135 0 0 0 2.213.913Zm0-.731a2.308 2.308 0 0 1-1.64-.683c-.9-.974-.9-2.472 0-3.446a2.308 2.308 0 0 1 3.279 0c.886.98.886 2.467 0 3.446a2.308 2.308 0 0 1-1.64.683Z" fill="#222"/><path d="m57.311 15.528.083.083.2-.2h-.283v.117Zm-.01 0-.085-.081-.188.198h.273v-.117Zm0-4.448.085-.08-.002-.003-.083.083Zm-4.416 0-.083-.083-.002.002.085.081Zm0 4.448-.085.08.003.003.082-.083Zm.573-.501-.086.08.003.003.083-.083Zm0-3.446-.083-.082-.003.002.086.08Zm3.279 0 .087-.079-.004-.004-.083.083Zm0 3.446.083.083.004-.004-.087-.079Zm.491.418a3.017 3.017 0 0 1-2.13.879v.234c.861 0 1.687-.34 2.296-.947l-.166-.166Zm.073.2h.01v-.234h-.01v.234Zm-.085-4.484a3.109 3.109 0 0 1 0 4.286l.17.161a3.343 3.343 0 0 0 0-4.609l-.17.162Zm-2.123-.876c.797 0 1.562.316 2.125.878l.166-.166a3.242 3.242 0 0 0-2.29-.947v.235Zm-2.125.878a3.008 3.008 0 0 1 2.125-.878v-.235c-.86 0-1.684.34-2.29.947l.165.166Zm.002 4.284a3.119 3.119 0 0 1 0-4.286l-.17-.162a3.353 3.353 0 0 0 0 4.61l.17-.162Zm2.128.877c-.799 0-1.565-.316-2.13-.88l-.166.167a3.252 3.252 0 0 0 2.296.947v-.234Zm-1.723-1.215c.455.46 1.075.718 1.722.718v-.235a2.19 2.19 0 0 1-1.556-.648l-.166.165Zm-.003-3.607a2.654 2.654 0 0 0 0 3.604l.172-.159a2.42 2.42 0 0 1 0-3.286l-.172-.16Zm1.725-.72c-.647 0-1.267.258-1.722.716l.166.166a2.19 2.19 0 0 1 1.556-.649v-.234Zm1.723.716a2.426 2.426 0 0 0-1.723-.717v.234a2.19 2.19 0 0 1 1.557.649l.166-.165Zm.004 3.608a2.684 2.684 0 0 0 0-3.604l-.174.158a2.45 2.45 0 0 1 0 3.288l.174.158Zm-1.727.72c.648 0 1.268-.257 1.723-.716l-.166-.165a2.19 2.19 0 0 1-1.557.647v.235Z" fill="#222"/><path d="M59.281 16.309v-6.01h.946l2.897 4.678v-4.679h.774v6.01h-.774l-3.018-4.898v4.899h-.825ZM67.378 16.309h-.774v-5.27h-1.69v-.74h4.144v.74h-1.68v5.27Z" fill="#222" stroke="#222" stroke-width=".234"/><path fill-rule="evenodd" clip-rule="evenodd" d="M70.045 10.298v6.01h1.84a3.025 3.025 0 0 0 2.224-.83c.568-.58.87-1.366.834-2.175a2.918 2.918 0 0 0-.834-2.173 3.025 3.025 0 0 0-2.223-.832h-1.841Zm1.841 5.27H70.82v-4.529h1.097a2.107 2.107 0 0 1 1.665.606c.438.436.66 1.043.608 1.658a2.269 2.269 0 0 1-.644 1.673 2.32 2.32 0 0 1-1.66.591Z" fill="#222"/><path d="M70.045 16.309h-.117v.117h.117v-.117Zm0-6.01v-.118h-.117v.117h.117Zm1.84 6.01.006-.117h-.005v.117Zm2.224-.832.08.085.003-.003-.083-.082Zm.834-2.174-.117-.005v.01l.117-.005Zm-.834-2.173.083-.083-.003-.002-.08.085Zm-2.223-.832v.117h.005l-.005-.117Zm-1.066 5.27h-.117v.116h.117v-.117Zm1.067 0 .005-.118h-.005v.117Zm-1.067-4.529v-.117h-.117v.117h.117Zm1.097 0v.118h.01l-.01-.118Zm1.665.606-.083.083.083-.083Zm.608 1.658-.117-.01v.015l.117-.005Zm-.644 1.673.079.087.005-.005-.084-.082Zm-3.384 1.333v-6.01h-.234v6.01h.234Zm1.724-.117h-1.841v.234h1.84v-.234Zm2.142-.8a2.907 2.907 0 0 1-2.137.8l-.01.234a3.141 3.141 0 0 0 2.308-.864l-.161-.17Zm.798-2.083a2.802 2.802 0 0 1-.801 2.086l.167.164c.591-.601.906-1.42.869-2.26l-.235.01Zm-.801-2.097c.545.555.835 1.31.801 2.086l.235.01a3.036 3.036 0 0 0-.869-2.26l-.167.164Zm-2.134-.797a2.907 2.907 0 0 1 2.137.8l.161-.17a3.141 3.141 0 0 0-2.309-.864l.01.234Zm-1.846 0h1.84v-.234h-1.84v.234Zm.775 5.27h1.067v-.235H70.82v.234Zm-.117-4.646v4.528h.234V11.04h-.234Zm1.214-.117H70.82v.234h1.097v-.234Zm1.748.64a2.225 2.225 0 0 0-1.758-.64l.02.234a1.99 1.99 0 0 1 1.572.572l.166-.166Zm.642 1.751c.055-.65-.18-1.29-.642-1.751l-.166.166c.414.412.624.985.574 1.565l.234.02Zm-.677 1.745c.458-.47.703-1.105.677-1.76l-.234.01a2.151 2.151 0 0 1-.61 1.586l.167.164Zm-1.749.626c.64.03 1.267-.193 1.743-.62l-.156-.175c-.43.387-.997.588-1.576.561l-.011.234Z" fill="#222"/><path d="M79.562 11.04h-2.756v1.903h2.484v.721h-2.484v1.904h2.756v.74h-3.53v-6.01h3.53v.742ZM85.255 10.298l-2.243 2.585 2.383 3.426H84.39l-2.012-2.805-.936 1.072v1.733h-.774v-6.01h.774v3.095l2.807-3.096h1.006ZM88.201 16.309v-6.01h.785v2.574h3.017v-2.575h.775v6.01h-.775v-2.714h-3.017v2.715H88.2ZM97.677 11.04H94.93v1.903h2.484v.721h-2.484v1.904h2.746v.74h-3.52v-6.01h3.52v.742ZM100.955 16.309h-.785v-5.27h-1.68v-.74h4.144v.74h-1.679v5.27Z" fill="#222" stroke="#222" stroke-width=".234"/><path fill-rule="evenodd" clip-rule="evenodd" d="M108.278 16.441c.83 0 1.626-.328 2.212-.913h-.01a3.225 3.225 0 0 0 0-4.448 3.124 3.124 0 0 0-4.415 0 3.205 3.205 0 0 0 0 4.448 3.132 3.132 0 0 0 2.213.913Zm-.001-.731a2.308 2.308 0 0 1-1.639-.683c-.9-.974-.9-2.472 0-3.446a2.308 2.308 0 0 1 3.279 0c.886.98.886 2.467 0 3.446a2.308 2.308 0 0 1-1.64.683Z" fill="#222"/><path d="m110.49 15.528.083.083.201-.2h-.284v.117Zm-.01 0-.085-.081-.188.198h.273v-.117Zm0-4.448.085-.08-.002-.003-.083.083Zm-4.415 0-.083-.083-.002.002.085.081Zm0 4.448-.085.081.002.002.083-.083Zm.573-.501-.086.08.003.002.083-.082Zm0-3.446-.083-.083-.003.003.086.08Zm3.279 0 .087-.079-.004-.004-.083.083Zm0 3.446.083.082.004-.004-.087-.078Zm.491.418a3.018 3.018 0 0 1-2.13.879v.234a3.25 3.25 0 0 0 2.295-.947l-.165-.166Zm.072.2h.01v-.234h-.01v.234Zm-.085-4.484a3.108 3.108 0 0 1 0 4.286l.17.161a3.342 3.342 0 0 0 0-4.609l-.17.162Zm-2.123-.876c.798 0 1.563.316 2.126.878l.165-.166a3.242 3.242 0 0 0-2.291-.947v.235Zm-2.125.878a3.008 3.008 0 0 1 2.125-.878v-.235a3.24 3.24 0 0 0-2.29.947l.165.166Zm.002 4.284a3.089 3.089 0 0 1 0-4.286L105.98 11a3.324 3.324 0 0 0 0 4.61l.169-.162Zm2.129.877c-.8 0-1.566-.316-2.131-.88l-.165.167a3.251 3.251 0 0 0 2.296.947v-.234Zm-1.723-1.215a2.423 2.423 0 0 0 1.722.718v-.235a2.19 2.19 0 0 1-1.556-.648l-.166.165Zm-.003-3.608a2.653 2.653 0 0 0 0 3.605l.172-.159a2.418 2.418 0 0 1 0-3.287l-.172-.159Zm1.725-.72c-.647 0-1.268.258-1.722.717l.166.165a2.19 2.19 0 0 1 1.556-.648v-.234Zm1.723.717a2.425 2.425 0 0 0-1.723-.717v.234c.585 0 1.146.234 1.557.648l.166-.165Zm.004 3.607a2.684 2.684 0 0 0 0-3.603l-.174.157a2.45 2.45 0 0 1 0 3.29l.174.156Zm-1.727.722c.648 0 1.268-.259 1.723-.718l-.166-.165a2.193 2.193 0 0 1-1.557.648v.235Z" fill="#222"/><path fill-rule="evenodd" clip-rule="evenodd" d="M112.461 16.309h.774l-.05-2.434h1.288c.492.008.968-.175 1.327-.511a1.75 1.75 0 0 0 0-2.555 1.895 1.895 0 0 0-1.327-.51h-2.012v6.01Zm2.071-3.176h-1.298v-2.094h1.298c.296-.013.583.104.784.32a1 1 0 0 1 0 1.454 1.007 1.007 0 0 1-.784.32Z" fill="#222"/><path d="M113.235 16.309v.117h.12l-.002-.12-.118.003Zm-.774 0h-.117v.117h.117v-.117Zm.724-2.434v-.117h-.119l.002.12.117-.003Zm1.288 0 .002-.117h-.002v.117Zm1.327-.511.08.085-.08-.085Zm0-2.555.08-.085-.08.085Zm-1.327-.51v.117h.002l-.002-.117Zm-2.012 0v-.118h-.117v.118h.117Zm.773 2.834h-.117v.117h.117v-.117Zm1.298 0 .005-.117h-.005v.117Zm-1.298-2.094v-.117h-.117v.117h.117Zm1.298 0v.118h.005l-.005-.118Zm.784.32-.086.08.006.006.08-.085Zm0 1.454-.08-.086-.005.006.085.08Zm-2.081 3.379h-.774v.234h.774v-.234Zm-.167-2.315.05 2.434.235-.004-.051-2.435-.234.005Zm1.405-.12h-1.288v.235h1.288v-.234Zm1.247-.479a1.776 1.776 0 0 1-1.245.48l-.004.234a2.012 2.012 0 0 0 1.409-.543l-.16-.17Zm.518-1.191c0 .45-.187.882-.518 1.191l.16.171c.378-.353.592-.846.592-1.362h-.234Zm-.518-1.192c.331.31.518.74.518 1.192h.234c0-.517-.214-1.01-.592-1.363l-.16.171Zm-1.245-.48c.462-.007.909.165 1.245.48l.16-.171a2.012 2.012 0 0 0-1.409-.543l.004.235Zm-2.014 0h2.012v-.234h-2.012v.235Zm.117 5.894v-6.01h-.234v6.01h.234Zm.656-3.059h1.298v-.234h-1.298v.234Zm-.117-2.21v2.093h.235v-2.094h-.235Zm1.415-.118h-1.298v.235h1.298v-.235Zm.87.358a1.123 1.123 0 0 0-.875-.358l.01.234a.892.892 0 0 1 .694.284l.171-.16Zm.345.806c0-.307-.127-.6-.35-.811l-.161.17a.884.884 0 0 1 .276.641h.235Zm-.35.812c.223-.212.35-.505.35-.812h-.235c0 .242-.1.474-.276.641l.161.17Zm-.87.352c.33.015.651-.116.875-.358l-.171-.16a.892.892 0 0 1-.694.284l-.01.234ZM80.149 25.931c-2.457 0-4.46 1.877-4.46 4.466 0 2.571 2.003 4.465 4.46 4.465s4.46-1.894 4.46-4.465c0-2.589-2.003-4.466-4.46-4.466Zm0 7.172c-1.347 0-2.509-1.116-2.509-2.706 0-1.608 1.162-2.707 2.509-2.707s2.508 1.1 2.508 2.707c0 1.59-1.161 2.706-2.508 2.706Zm-9.732-7.172c-2.457 0-4.46 1.877-4.46 4.466 0 2.571 2.003 4.465 4.46 4.465 2.458 0 4.46-1.894 4.46-4.465.002-2.589-2.002-4.466-4.46-4.466Zm0 7.172c-1.347 0-2.507-1.116-2.507-2.706 0-1.608 1.162-2.707 2.507-2.707 1.347 0 2.508 1.1 2.508 2.707 0 1.59-1.161 2.706-2.508 2.706Zm-11.575-5.802v1.894h4.512c-.135 1.066-.488 1.844-1.027 2.386-.656.66-1.683 1.387-3.485 1.387-2.777 0-4.948-2.25-4.948-5.041 0-2.79 2.171-5.041 4.948-5.041 1.499 0 2.593.592 3.4 1.353l1.33-1.336c-1.127-1.083-2.625-1.912-4.73-1.912-3.804 0-7.002 3.112-7.002 6.935 0 3.823 3.198 6.935 7.002 6.935 2.053 0 3.603-.676 4.815-1.945 1.246-1.252 1.633-3.012 1.633-4.432 0-.44-.033-.847-.101-1.185h-6.347v.002Zm47.34 1.471c-.37-.998-1.498-2.842-3.804-2.842-2.289 0-4.19 1.81-4.19 4.466 0 2.503 1.884 4.465 4.409 4.465 2.037 0 3.215-1.251 3.703-1.979l-1.515-1.015c-.504.744-1.195 1.234-2.188 1.234-.993 0-1.699-.456-2.154-1.353l5.942-2.47-.203-.506Zm-6.06 1.49c-.05-1.726 1.33-2.606 2.323-2.606.774 0 1.43.389 1.65.947l-3.973 1.658Zm-4.831 4.33h1.953V21.464H95.29v13.126Zm-3.198-7.663h-.067c-.438-.524-1.28-1-2.34-1-2.222 0-4.259 1.963-4.259 4.483 0 2.504 2.037 4.45 4.26 4.45 1.06 0 1.9-.474 2.339-1.016h.067v.643c0 1.708-.91 2.621-2.374 2.621-1.196 0-1.936-.863-2.24-1.59l-1.7.711c.489 1.185 1.785 2.64 3.94 2.64 2.289 0 4.225-1.354 4.225-4.652V26.2h-1.851v.727Zm-2.239 6.174c-1.346 0-2.474-1.132-2.474-2.69 0-1.573 1.128-2.723 2.475-2.723 1.33 0 2.372 1.15 2.372 2.723 0 1.556-1.042 2.69-2.373 2.69Zm25.475-11.638h-4.672v13.126h1.949V29.62h2.722c2.161 0 4.285-1.572 4.285-4.076 0-2.505-2.123-4.078-4.284-4.078Zm.05 6.327h-2.773v-4.5h2.773c1.458 0 2.285 1.213 2.285 2.25 0 1.017-.827 2.25-2.285 2.25Zm12.049-1.885c-1.411 0-2.873.625-3.478 2.01l1.731.726c.37-.727 1.059-.963 1.782-.963 1.008 0 2.033.608 2.05 1.689v.135c-.353-.203-1.11-.507-2.034-.507-1.865 0-3.764 1.03-3.764 2.956 0 1.756 1.53 2.887 3.243 2.887 1.311 0 2.033-.59 2.487-1.283h.067v1.013h1.881v-5.032c0-2.331-1.73-3.631-3.965-3.631Zm-.236 7.193c-.638 0-1.53-.32-1.53-1.114 0-1.013 1.11-1.401 2.067-1.401.857 0 1.26.185 1.782.438-.151 1.216-1.193 2.077-2.319 2.077Zm11.058-6.907-2.235 5.691h-.067l-2.319-5.69h-2.1l3.479 7.953-1.984 4.425h2.034l5.361-12.379h-2.169Zm-17.561 8.398h1.95V21.465h-1.95v13.126Z" fill="#222"/><path d="M19.853 10.982c-.304.324-.484.825-.484 1.475V35.68c0 .651.18 1.152.484 1.475l.077.076 12.945-13.008v-.307L19.93 10.905l-.077.077Z" fill="url(#a)"/><path d="m37.191 28.56-4.314-4.337v-.307l4.315-4.336.097.055 5.113 2.92c1.46.833 1.46 2.197 0 3.032l-5.113 2.919-.098.054Z" fill="url(#b)"/><path d="m37.287 28.504-4.413-4.436-13.022 13.086c.481.513 1.275.576 2.17.065l15.265-8.715Z" fill="url(#c)"/><path d="m37.288 19.633-15.263-8.715c-.896-.511-1.69-.447-2.171.064l13.021 13.086 4.413-4.435Z" fill="url(#d)"/><path opacity=".2" d="m37.19 28.406-15.166 8.66c-.849.483-1.607.452-2.094.01l-.078.08.077.075c.487.441 1.245.474 2.094-.011l15.263-8.715-.096-.099Z" fill="#222"/><path opacity=".12" d="M19.852 37.001c-.303-.323-.483-.825-.483-1.475v.153c0 .65.18 1.152.483 1.476l.078-.08-.078-.074ZM42.401 25.431l-5.21 2.975.098.098 5.112-2.92c.73-.416 1.095-.965 1.095-1.515-.062.497-.434.984-1.095 1.362Z" fill="#222"/><path opacity=".25" d="M22.024 11.072 42.4 22.706c.662.378 1.033.865 1.095 1.362 0-.549-.365-1.099-1.095-1.516L22.024 10.918c-1.46-.833-2.655-.141-2.655 1.54v.154c0-1.681 1.195-2.374 2.655-1.54Z" fill="#fff"/><defs><linearGradient id="a" x1="31.727" y1="12.213" x2="14.106" y2="29.747" gradientUnits="userSpaceOnUse"><stop stop-color="#00A0FF"/><stop offset=".007" stop-color="#00A1FF"/><stop offset=".26" stop-color="#00BEFF"/><stop offset=".512" stop-color="#00D2FF"/><stop offset=".76" stop-color="#00DFFF"/><stop offset="1" stop-color="#00E3FF"/></linearGradient><linearGradient id="b" x1="44.303" y1="24.069" x2="19.021" y2="24.069" gradientUnits="userSpaceOnUse"><stop stop-color="#FFE000"/><stop offset=".409" stop-color="#FFBD00"/><stop offset=".775" stop-color="orange"/><stop offset="1" stop-color="#FF9C00"/></linearGradient><linearGradient id="c" x1="34.889" y1="26.478" x2="10.993" y2="50.257" gradientUnits="userSpaceOnUse"><stop stop-color="#FF3A44"/><stop offset="1" stop-color="#C31162"/></linearGradient><linearGradient id="d" x1="16.574" y1="3.252" x2="27.245" y2="13.871" gradientUnits="userSpaceOnUse"><stop stop-color="#32A071"/><stop offset=".069" stop-color="#2DA771"/><stop offset=".476" stop-color="#15CF74"/><stop offset=".801" stop-color="#06E775"/><stop offset="1" stop-color="#00F076"/></linearGradient></defs></svg>