<svg width="21" height="22" viewBox="0 0 21 22" fill="none" xmlns="http://www.w3.org/2000/svg">
<path fill-rule="evenodd" clip-rule="evenodd" d="M10.5 3.4314C5.66769 3.4314 1.75 7.23651 1.75 11.9303C1.75 14.2844 2.73525 16.4148 4.32719 17.9534C4.42959 18.0519 4.60404 18.0286 4.67396 17.9062C5.41979 16.5974 6.7271 15.574 8.32256 15.0759C7.28152 14.3945 6.59714 13.2397 6.59714 11.9296C6.59714 9.83551 8.34446 8.13888 10.5 8.13888C12.6555 8.13888 14.4029 9.83551 14.4029 11.9296C14.4029 13.2397 13.7178 14.3945 12.6774 15.0759C14.2729 15.574 15.5802 16.5974 16.326 17.9062C16.3952 18.0286 16.5704 18.0519 16.6721 17.9534C18.264 16.4148 19.25 14.2844 19.25 11.9303C19.25 7.23651 15.3323 3.4314 10.5 3.4314Z" fill="#7780A0"/>
</svg>
