<svg width="48" height="48" viewBox="0 0 48 48" fill="none" xmlns="http://www.w3.org/2000/svg">
<path d="M5.35548 5.20152C1.13534 9.51331 -0.338357 19.8935 0.0635609 27.7186C0.286849 32.0989 1.29164 39.9924 5.48945 43.4373C9.19603 46.5171 16.6538 48 24 48C31.3462 48 38.804 46.4715 42.5106 43.4373C46.7084 39.9924 47.7132 32.0304 47.9364 27.7186C48.3384 19.8935 46.8647 9.46768 42.6445 5.20152C35.8566 -1.73384 12.1434 -1.73384 5.35548 5.20152Z" fill="#FA9454"/>
<path fill-rule="evenodd" clip-rule="evenodd" d="M28.7379 36.6692V29.0576C28.7379 28.8747 28.6676 28.6918 28.5409 28.5651C28.4143 28.4385 28.2314 28.3682 28.0485 28.3682H20.0429C19.663 28.3682 19.3535 28.6777 19.3535 29.0576V36.6692H20.7322V29.747H27.359V36.6692H28.7379Z" fill="white"/>
<path d="M28.7379 36.6692V36.7864H28.8551V36.6692H28.7379ZM28.5409 28.5651L28.6238 28.4823L28.6238 28.4823L28.5409 28.5651ZM19.3535 36.6692H19.2363V36.7864H19.3535V36.6692ZM20.7322 36.6692V36.7864H20.8494V36.6692H20.7322ZM20.7322 29.747V29.6299H20.615V29.747H20.7322ZM27.359 29.747H27.4762V29.6299H27.359V29.747ZM27.359 36.6692H27.2418V36.7864H27.359V36.6692ZM28.6207 29.0576V36.6692H28.8551V29.0576H28.6207ZM28.4581 28.648C28.5609 28.7508 28.6207 28.903 28.6207 29.0576H28.8551C28.8551 28.8463 28.7742 28.6327 28.6238 28.4823L28.4581 28.648ZM28.0485 28.4854C28.203 28.4854 28.3553 28.5452 28.4581 28.648L28.6238 28.4823C28.4733 28.3318 28.2598 28.251 28.0485 28.251V28.4854ZM20.0429 28.4854H28.0485V28.251H20.0429V28.4854ZM19.4707 29.0576C19.4707 28.7424 19.7278 28.4854 20.0429 28.4854V28.251C19.5983 28.251 19.2363 28.613 19.2363 29.0576H19.4707ZM19.4707 36.6692V29.0576H19.2363V36.6692H19.4707ZM20.7322 36.552H19.3535V36.7864H20.7322V36.552ZM20.8494 36.6692V29.747H20.615V36.6692H20.8494ZM20.7322 29.8642H27.359V29.6299H20.7322V29.8642ZM27.2418 29.747V36.6692H27.4762V29.747H27.2418ZM28.7379 36.552H27.359V36.7864H28.7379V36.552Z" fill="white"/>
<path d="M36.092 22.0781L35.9259 22.0761L35.9259 22.2422L35.9258 35.8666C35.9258 36.3815 35.5196 36.7937 35.0358 36.7937L12.9247 36.7937C12.4408 36.7937 12.0346 36.3815 12.0346 35.8666L12.0346 22.4186L12.0346 22.2546L11.8706 22.2546L10.8164 22.2546L10.6523 22.2546L10.6523 22.4186L10.6523 35.8666C10.6523 37.1657 11.6693 38.2266 12.9379 38.2266L35.0621 38.2266C36.3307 38.2266 37.3477 37.1657 37.3477 35.8666L37.3477 22.2558L37.3477 22.0938L37.1856 22.0918L36.092 22.0781Z" fill="white" stroke="white" stroke-width="0.328125"/>
<mask id="path-5-outside-1_1136_6338" maskUnits="userSpaceOnUse" x="8.9375" y="8.9375" width="30" height="16" fill="black">
<rect fill="white" x="8.9375" y="8.9375" width="30" height="16"/>
<path fill-rule="evenodd" clip-rule="evenodd" d="M38.0625 20.8829C38.0625 20.0289 37.7351 19.2034 37.1516 18.5771L32.6396 10.3076C32.5115 10.0798 32.2838 9.9375 32.0276 9.9375H15.9724C15.7162 9.9375 15.4885 10.0798 15.3604 10.2933L10.4926 19.0184C10.1225 19.5735 9.9375 20.2139 9.9375 20.8829C9.9375 21.6657 10.2079 22.4201 10.7203 23.0179C11.2772 23.6277 11.5845 23.8051 12.1294 24.0285C12.7984 24.2847 13.5385 24.3274 14.236 24.1281C14.9334 23.9288 15.5454 23.5161 15.9867 22.9325C16.6272 23.758 17.6092 24.2562 18.6625 24.2562C19.7158 24.2562 20.6979 23.7723 21.3384 22.9325C21.9789 23.758 22.961 24.2562 24.0142 24.2562C25.0675 24.2562 26.0496 23.7723 26.6901 22.9325C27.3306 23.758 28.3127 24.2562 29.366 24.2562C30.4192 24.2562 31.4013 23.7723 32.0418 22.9325C32.6823 23.758 33.6644 24.242 34.7034 24.242C35.1162 24.242 35.5147 24.1708 35.899 24.0142C36.5019 23.7061 36.8055 23.4905 37.2654 23.0179C37.7921 22.4201 38.0625 21.6657 38.0625 20.8829ZM16.3856 11.3467L11.7028 19.7301C11.4608 20.0575 11.347 20.4702 11.3897 20.8688C11.3897 21.3954 11.6032 21.8936 11.9732 22.2636C12.3433 22.6337 12.8415 22.8472 13.3681 22.8472C13.8947 22.8472 14.3929 22.6337 14.763 22.2636C15.133 21.8936 15.3323 21.3954 15.3323 20.8688C15.3323 20.4845 15.6454 20.1713 16.0297 20.1713C16.414 20.1713 16.7272 20.4845 16.7272 20.8688C16.7272 21.5662 17.0972 22.2209 17.7092 22.5768C18.3213 22.9326 19.0756 22.9326 19.6877 22.5768C20.2997 22.2209 20.6698 21.5804 20.6698 20.8688C20.6698 20.4845 20.9829 20.1713 21.3672 20.1713C21.7515 20.1713 22.0646 20.4845 22.0646 20.8688C22.0646 21.5662 22.4347 22.2209 23.0467 22.5768C23.6588 22.9326 24.4131 22.9326 25.0252 22.5768C25.6372 22.2209 26.0073 21.5804 26.0073 20.8688C26.0073 20.4845 26.3204 20.1713 26.7047 20.1713C27.089 20.1713 27.4021 20.4845 27.4021 20.8688C27.4021 21.5662 27.7722 22.2209 28.3842 22.5768C28.9963 22.9326 29.7506 22.9326 30.3627 22.5768C30.9747 22.2209 31.3448 21.5804 31.3448 20.8688C31.3448 20.4845 31.6579 20.1713 32.0422 20.1713C32.4265 20.1713 32.7396 20.4845 32.7396 20.8688C32.7396 21.3954 32.9389 21.8936 33.3089 22.2636C33.6648 22.6337 34.1629 22.8472 34.6896 22.8472C35.2162 22.8614 35.7144 22.6479 36.0844 22.2779C36.4545 21.9078 36.668 21.4096 36.668 20.883C36.668 20.3564 36.4545 19.8582 36.0844 19.4881C36.0417 19.4454 35.999 19.3885 35.9706 19.3316L31.6152 11.3467H16.3856Z"/>
</mask>
<path fill-rule="evenodd" clip-rule="evenodd" d="M38.0625 20.8829C38.0625 20.0289 37.7351 19.2034 37.1516 18.5771L32.6396 10.3076C32.5115 10.0798 32.2838 9.9375 32.0276 9.9375H15.9724C15.7162 9.9375 15.4885 10.0798 15.3604 10.2933L10.4926 19.0184C10.1225 19.5735 9.9375 20.2139 9.9375 20.8829C9.9375 21.6657 10.2079 22.4201 10.7203 23.0179C11.2772 23.6277 11.5845 23.8051 12.1294 24.0285C12.7984 24.2847 13.5385 24.3274 14.236 24.1281C14.9334 23.9288 15.5454 23.5161 15.9867 22.9325C16.6272 23.758 17.6092 24.2562 18.6625 24.2562C19.7158 24.2562 20.6979 23.7723 21.3384 22.9325C21.9789 23.758 22.961 24.2562 24.0142 24.2562C25.0675 24.2562 26.0496 23.7723 26.6901 22.9325C27.3306 23.758 28.3127 24.2562 29.366 24.2562C30.4192 24.2562 31.4013 23.7723 32.0418 22.9325C32.6823 23.758 33.6644 24.242 34.7034 24.242C35.1162 24.242 35.5147 24.1708 35.899 24.0142C36.5019 23.7061 36.8055 23.4905 37.2654 23.0179C37.7921 22.4201 38.0625 21.6657 38.0625 20.8829ZM16.3856 11.3467L11.7028 19.7301C11.4608 20.0575 11.347 20.4702 11.3897 20.8688C11.3897 21.3954 11.6032 21.8936 11.9732 22.2636C12.3433 22.6337 12.8415 22.8472 13.3681 22.8472C13.8947 22.8472 14.3929 22.6337 14.763 22.2636C15.133 21.8936 15.3323 21.3954 15.3323 20.8688C15.3323 20.4845 15.6454 20.1713 16.0297 20.1713C16.414 20.1713 16.7272 20.4845 16.7272 20.8688C16.7272 21.5662 17.0972 22.2209 17.7092 22.5768C18.3213 22.9326 19.0756 22.9326 19.6877 22.5768C20.2997 22.2209 20.6698 21.5804 20.6698 20.8688C20.6698 20.4845 20.9829 20.1713 21.3672 20.1713C21.7515 20.1713 22.0646 20.4845 22.0646 20.8688C22.0646 21.5662 22.4347 22.2209 23.0467 22.5768C23.6588 22.9326 24.4131 22.9326 25.0252 22.5768C25.6372 22.2209 26.0073 21.5804 26.0073 20.8688C26.0073 20.4845 26.3204 20.1713 26.7047 20.1713C27.089 20.1713 27.4021 20.4845 27.4021 20.8688C27.4021 21.5662 27.7722 22.2209 28.3842 22.5768C28.9963 22.9326 29.7506 22.9326 30.3627 22.5768C30.9747 22.2209 31.3448 21.5804 31.3448 20.8688C31.3448 20.4845 31.6579 20.1713 32.0422 20.1713C32.4265 20.1713 32.7396 20.4845 32.7396 20.8688C32.7396 21.3954 32.9389 21.8936 33.3089 22.2636C33.6648 22.6337 34.1629 22.8472 34.6896 22.8472C35.2162 22.8614 35.7144 22.6479 36.0844 22.2779C36.4545 21.9078 36.668 21.4096 36.668 20.883C36.668 20.3564 36.4545 19.8582 36.0844 19.4881C36.0417 19.4454 35.999 19.3885 35.9706 19.3316L31.6152 11.3467H16.3856Z" fill="white"/>
<path d="M37.1516 18.5771L37.0281 18.6445L37.0366 18.66L37.0487 18.673L37.1516 18.5771ZM32.6396 10.3076L32.7631 10.2402L32.7622 10.2386L32.6396 10.3076ZM15.3604 10.2933L15.2397 10.2209L15.2376 10.2248L15.3604 10.2933ZM10.4926 19.0184L10.61 19.0966L10.6154 19.0869L10.4926 19.0184ZM10.7203 23.0179L10.6135 23.1095L10.6165 23.1127L10.7203 23.0179ZM12.1294 24.0285L12.0761 24.1586L12.0791 24.1598L12.1294 24.0285ZM14.236 24.1281L14.2746 24.2633L14.2746 24.2633L14.236 24.1281ZM15.9867 22.9325L16.0978 22.8463L15.9852 22.7013L15.8745 22.8477L15.9867 22.9325ZM21.3384 22.9325L21.4495 22.8463L21.3374 22.7019L21.2266 22.8472L21.3384 22.9325ZM26.6901 22.9325L26.8012 22.8463L26.6891 22.7019L26.5783 22.8472L26.6901 22.9325ZM32.0418 22.9325L32.1529 22.8463L32.0409 22.7019L31.93 22.8472L32.0418 22.9325ZM35.899 24.0142L35.9523 24.145L35.963 24.1395L35.899 24.0142ZM37.2654 23.0179L37.3663 23.1161L37.371 23.1109L37.2654 23.0179ZM11.7028 19.7301L11.8159 19.8137L11.8212 19.8065L11.8256 19.7987L11.7028 19.7301ZM16.3856 11.3467V11.2061H16.303L16.2628 11.2781L16.3856 11.3467ZM11.3897 20.8688H11.5303V20.8613L11.5295 20.8538L11.3897 20.8688ZM11.9732 22.2636L11.8738 22.3631H11.8738L11.9732 22.2636ZM14.763 22.2636L14.8624 22.3631H14.8624L14.763 22.2636ZM17.7092 22.5768L17.6386 22.6983L17.7092 22.5768ZM19.6877 22.5768L19.7584 22.6983L19.6877 22.5768ZM23.0467 22.5768L22.9761 22.6983L23.0467 22.5768ZM25.0252 22.5768L25.0958 22.6983L25.0252 22.5768ZM28.3842 22.5768L28.3135 22.6983L28.3842 22.5768ZM30.3627 22.5768L30.4333 22.6983L30.3627 22.5768ZM33.3089 22.2636L33.4103 22.1661L33.4084 22.1642L33.3089 22.2636ZM34.6896 22.8472L34.6934 22.7066H34.6896V22.8472ZM35.9706 19.3316L36.0964 19.2686L36.094 19.2642L35.9706 19.3316ZM31.6152 11.3467L31.7386 11.2793L31.6987 11.2061H31.6152V11.3467ZM37.0487 18.673C37.6082 19.2735 37.9219 20.0648 37.9219 20.8829H38.2031C38.2031 19.993 37.8621 19.1333 37.2544 18.4813L37.0487 18.673ZM32.5162 10.3749L37.0281 18.6445L37.275 18.5098L32.7631 10.2402L32.5162 10.3749ZM32.0276 10.0781C32.229 10.0781 32.4118 10.1895 32.517 10.3765L32.7622 10.2386C32.6112 9.97019 32.3386 9.79688 32.0276 9.79688V10.0781ZM15.9724 10.0781H32.0276V9.79688H15.9724V10.0781ZM15.481 10.3657C15.5859 10.1907 15.7699 10.0781 15.9724 10.0781V9.79688C15.6625 9.79688 15.391 9.96893 15.2398 10.221L15.481 10.3657ZM10.6154 19.0869L15.4832 10.3618L15.2376 10.2248L10.3698 18.9498L10.6154 19.0869ZM10.0781 20.8829C10.0781 20.2404 10.2557 19.6273 10.6096 19.0964L10.3756 18.9403C9.98941 19.5196 9.79688 20.1875 9.79688 20.8829H10.0781ZM10.8271 22.9264C10.3372 22.3548 10.0781 21.6331 10.0781 20.8829H9.79688C9.79688 21.6984 10.0787 22.4854 10.6136 23.1094L10.8271 22.9264ZM12.1828 23.8984C11.9137 23.7881 11.7116 23.6924 11.5094 23.5525C11.3068 23.4123 11.0988 23.2238 10.8242 22.9231L10.6165 23.1127C10.8988 23.4219 11.1228 23.627 11.3493 23.7837C11.5762 23.9408 11.8002 24.0455 12.0761 24.1586L12.1828 23.8984ZM14.1973 23.9929C13.5304 24.1835 12.8214 24.1429 12.1797 23.8971L12.0791 24.1598C12.7754 24.4264 13.5467 24.4713 14.2746 24.2633L14.1973 23.9929ZM15.8745 22.8477C15.452 23.4064 14.866 23.8018 14.1973 23.9929L14.2746 24.2633C15.0007 24.0559 15.6388 23.6257 16.0988 23.0173L15.8745 22.8477ZM18.6625 24.1156C17.6541 24.1156 16.7125 23.6386 16.0978 22.8463L15.8755 23.0187C16.5418 23.8775 17.5644 24.3968 18.6625 24.3968V24.1156ZM21.2266 22.8472C20.6127 23.652 19.672 24.1156 18.6625 24.1156V24.3968C19.7595 24.3968 20.783 23.8925 21.4502 23.0178L21.2266 22.8472ZM24.0142 24.1156C23.0058 24.1156 22.0642 23.6386 21.4495 22.8463L21.2273 23.0187C21.8935 23.8775 22.9162 24.3968 24.0142 24.3968V24.1156ZM26.5783 22.8472C25.9645 23.652 25.0238 24.1156 24.0142 24.1156V24.3968C25.1112 24.3968 26.1347 23.8925 26.8019 23.0178L26.5783 22.8472ZM29.366 24.1156C28.3575 24.1156 27.4159 23.6386 26.8012 22.8463L26.579 23.0187C27.2453 23.8775 28.2679 24.3968 29.366 24.3968V24.1156ZM31.93 22.8472C31.3162 23.652 30.3755 24.1156 29.366 24.1156V24.3968C30.4629 24.3968 31.4865 23.8925 32.1536 23.0178L31.93 22.8472ZM34.7034 24.1013C33.7083 24.1013 32.767 23.6378 32.1529 22.8463L31.9307 23.0187C32.5976 23.8783 33.6206 24.3826 34.7034 24.3826V24.1013ZM35.846 23.884C35.4799 24.0331 35.0996 24.1013 34.7034 24.1013V24.3826C35.1328 24.3826 35.5496 24.3085 35.9521 24.1445L35.846 23.884ZM37.1647 22.9198C36.7164 23.3804 36.4256 23.5872 35.835 23.889L35.963 24.1395C36.5782 23.8251 36.8945 23.6007 37.3662 23.116L37.1647 22.9198ZM37.9219 20.8829C37.9219 21.633 37.663 22.3539 37.1599 22.925L37.371 23.1109C37.9212 22.4863 38.2031 21.6985 38.2031 20.8829H37.9219ZM11.8256 19.7987L16.5083 11.4153L16.2628 11.2781L11.58 19.6615L11.8256 19.7987ZM11.5295 20.8538C11.4906 20.491 11.5944 20.1133 11.8159 19.8137L11.5897 19.6465C11.3272 20.0016 11.2033 20.4494 11.2498 20.8837L11.5295 20.8538ZM12.0727 22.1642C11.7281 21.8196 11.5303 21.3569 11.5303 20.8688H11.249C11.249 21.4339 11.4782 21.9675 11.8738 22.3631L12.0727 22.1642ZM13.3681 22.7066C12.8799 22.7066 12.4172 22.5087 12.0727 22.1642L11.8738 22.3631C12.2694 22.7586 12.803 22.9878 13.3681 22.9878V22.7066ZM14.6635 22.1642C14.319 22.5087 13.8563 22.7066 13.3681 22.7066V22.9878C13.9332 22.9878 14.4668 22.7586 14.8624 22.3631L14.6635 22.1642ZM15.1917 20.8688C15.1917 21.3595 15.0062 21.8215 14.6635 22.1642L14.8624 22.3631C15.2598 21.9656 15.4729 21.4313 15.4729 20.8688H15.1917ZM16.0297 20.0307C15.5678 20.0307 15.1917 20.4068 15.1917 20.8688H15.4729C15.4729 20.5621 15.7231 20.312 16.0297 20.312V20.0307ZM16.8678 20.8688C16.8678 20.4068 16.4917 20.0307 16.0297 20.0307V20.312C16.3364 20.312 16.5865 20.5621 16.5865 20.8688H16.8678ZM17.7799 22.4552C17.2116 22.1248 16.8678 21.5166 16.8678 20.8688H16.5865C16.5865 21.6158 16.9828 22.3171 17.6386 22.6983L17.7799 22.4552ZM19.617 22.4552C19.0487 22.7856 18.3483 22.7856 17.7799 22.4552L17.6386 22.6983C18.2943 23.0796 19.1026 23.0796 19.7584 22.6983L19.617 22.4552ZM20.5292 20.8688C20.5292 21.5303 20.1858 22.1245 19.617 22.4552L19.7584 22.6983C20.4136 22.3174 20.8104 21.6306 20.8104 20.8688H20.5292ZM21.3672 20.0307C20.9052 20.0307 20.5292 20.4068 20.5292 20.8688H20.8104C20.8104 20.5621 21.0606 20.312 21.3672 20.312V20.0307ZM22.2053 20.8688C22.2053 20.4068 21.8292 20.0307 21.3672 20.0307V20.312C21.6738 20.312 21.924 20.5621 21.924 20.8688H22.2053ZM23.1174 22.4552C22.5491 22.1248 22.2053 21.5166 22.2053 20.8688H21.924C21.924 21.6158 22.3203 22.3171 22.9761 22.6983L23.1174 22.4552ZM24.9545 22.4552C24.3861 22.7856 23.6858 22.7856 23.1174 22.4552L22.9761 22.6983C23.6318 23.0796 24.4401 23.0796 25.0958 22.6983L24.9545 22.4552ZM25.8666 20.8688C25.8666 21.5303 25.5233 22.1245 24.9545 22.4552L25.0958 22.6983C25.7511 22.3174 26.1479 21.6306 26.1479 20.8688H25.8666ZM26.7047 20.0307C26.2427 20.0307 25.8666 20.4068 25.8666 20.8688H26.1479C26.1479 20.5621 26.3981 20.312 26.7047 20.312V20.0307ZM27.5427 20.8688C27.5427 20.4068 27.1667 20.0307 26.7047 20.0307V20.312C27.0113 20.312 27.2615 20.5621 27.2615 20.8688H27.5427ZM28.4549 22.4552C27.8866 22.1248 27.5427 21.5166 27.5427 20.8688H27.2615C27.2615 21.6158 27.6578 22.3171 28.3135 22.6983L28.4549 22.4552ZM30.292 22.4552C29.7236 22.7856 29.0232 22.7856 28.4549 22.4552L28.3135 22.6983C28.9693 23.0796 29.7776 23.0796 30.4333 22.6983L30.292 22.4552ZM31.2041 20.8688C31.2041 21.5303 30.8608 22.1245 30.292 22.4552L30.4333 22.6983C31.0886 22.3174 31.4854 21.6306 31.4854 20.8688H31.2041ZM32.0422 20.0307C31.5802 20.0307 31.2041 20.4068 31.2041 20.8688H31.4854C31.4854 20.5621 31.7356 20.312 32.0422 20.312V20.0307ZM32.8802 20.8688C32.8802 20.4068 32.5042 20.0307 32.0422 20.0307V20.312C32.3488 20.312 32.599 20.5621 32.599 20.8688H32.8802ZM33.4084 22.1642C33.0657 21.8215 32.8802 21.3595 32.8802 20.8688H32.599C32.599 21.4313 32.8121 21.9656 33.2095 22.3631L33.4084 22.1642ZM34.6896 22.7066C34.2009 22.7066 33.7394 22.5085 33.4103 22.1661L33.2076 22.3611C33.5901 22.7589 34.125 22.9878 34.6896 22.9878V22.7066ZM35.985 22.1784C35.6403 22.5231 35.1788 22.7197 34.6934 22.7066L34.6858 22.9878C35.2536 23.0031 35.7884 22.7728 36.1839 22.3773L35.985 22.1784ZM36.5274 20.883C36.5274 21.3712 36.3295 21.8339 35.985 22.1784L36.1839 22.3773C36.5795 21.9817 36.8086 21.4481 36.8086 20.883H36.5274ZM35.985 19.5876C36.3295 19.9321 36.5274 20.3948 36.5274 20.883H36.8086C36.8086 20.3179 36.5795 19.7843 36.1839 19.3887L35.985 19.5876ZM35.8448 19.3944C35.8807 19.4663 35.9327 19.5353 35.985 19.5876L36.1839 19.3887C36.1507 19.3555 36.1174 19.3107 36.0964 19.2687L35.8448 19.3944ZM31.4917 11.414L35.8471 19.3989L36.094 19.2642L31.7386 11.2793L31.4917 11.414ZM16.3856 11.4873H31.6152V11.2061H16.3856V11.4873Z" fill="white" mask="url(#path-5-outside-1_1136_6338)"/>
</svg>
