<svg width="72" height="72" viewBox="0 0 72 72" fill="none" xmlns="http://www.w3.org/2000/svg">
<path d="M8.03322 7.80228C1.70301 14.27 -0.507535 29.8403 0.0953414 41.5779C0.430273 48.1483 1.93747 59.9886 8.23418 65.1559C13.794 69.7757 24.9808 72 36 72C47.0192 72 58.206 69.7072 63.7658 65.1559C70.0625 59.9886 71.5697 48.0456 71.9047 41.5779C72.5075 29.8403 70.297 14.2015 63.9668 7.80228C53.7849 -2.60076 18.2151 -2.60076 8.03322 7.80228Z" fill="white"/>
<path fill-rule="evenodd" clip-rule="evenodd" d="M41.8726 51.6939V42.2654C41.8726 42.0388 41.7854 41.8122 41.6286 41.6554C41.4717 41.4985 41.2452 41.4114 41.0186 41.4114H31.102C30.6315 41.4114 30.248 41.7948 30.248 42.2654V51.6939H41.8726ZM31.9531 51.6935H40.1617V43.1189H31.9531V51.6935Z" fill="black"/>
<path d="M41.8726 51.6939V51.83H42.0086V51.6939H41.8726ZM41.6286 41.6554L41.5324 41.7516V41.7516L41.6286 41.6554ZM30.248 51.6939H30.112V51.83H30.248V51.6939ZM40.1617 51.6935V51.8296H40.2978V51.6935H40.1617ZM31.9531 51.6935H31.817V51.8296H31.9531V51.6935ZM40.1617 43.1189H40.2978V42.9828H40.1617V43.1189ZM31.9531 43.1189V42.9828H31.817V43.1189H31.9531ZM41.7365 42.2654V51.6939H42.0086V42.2654H41.7365ZM41.5324 41.7516C41.6615 41.8808 41.7365 42.0717 41.7365 42.2654H42.0086C42.0086 42.0059 41.9093 41.7437 41.7248 41.5591L41.5324 41.7516ZM41.0186 41.5475C41.2122 41.5475 41.4032 41.6224 41.5324 41.7516L41.7248 41.5591C41.5403 41.3746 41.2781 41.2753 41.0186 41.2753V41.5475ZM31.102 41.5475H41.0186V41.2753H31.102V41.5475ZM30.3841 42.2654C30.3841 41.87 30.7066 41.5475 31.102 41.5475V41.2753C30.5563 41.2753 30.112 41.7196 30.112 42.2654H30.3841ZM30.3841 51.6939V42.2654H30.112V51.6939H30.3841ZM41.8726 51.5579H30.248V51.83H41.8726V51.5579ZM40.1617 51.5574H31.9531V51.8296H40.1617V51.5574ZM40.0257 43.1189V51.6935H40.2978V43.1189H40.0257ZM31.9531 43.255H40.1617V42.9828H31.9531V43.255ZM32.0892 51.6935V43.1189H31.817V51.6935H32.0892Z" fill="black"/>
<path d="M50.9827 33.6317L50.7898 33.6293L50.7898 33.8222L50.7898 50.6988C50.7898 51.3433 50.2814 51.8599 49.6746 51.8599L22.2854 51.8599C21.6786 51.8599 21.1702 51.3433 21.1702 50.6988L21.1702 34.0408L21.1702 33.8502L20.9796 33.8502L19.6738 33.8502L19.4833 33.8502L19.4833 34.0408L19.4833 50.6988C19.4833 52.3015 20.7377 53.6095 22.3017 53.6095L49.7072 53.6095C51.2713 53.6095 52.5256 52.3015 52.5256 50.6988L52.5256 33.8391L52.5256 33.6509L52.3375 33.6486L50.9827 33.6317Z" fill="black" stroke="black" stroke-width="0.381048"/>
<mask id="path-5-outside-1_1577_15129" maskUnits="userSpaceOnUse" x="17.584" y="17.5803" width="37" height="19" fill="black">
<rect fill="white" x="17.584" y="17.5803" width="37" height="19"/>
<path fill-rule="evenodd" clip-rule="evenodd" d="M53.4227 32.1385C53.4227 31.0807 53.0172 30.0581 52.2943 29.2823L46.7053 19.0387C46.5466 18.7566 46.2645 18.5803 45.9472 18.5803H26.0595C25.7421 18.5803 25.46 18.7566 25.3014 19.0211L19.2716 29.8289C18.8132 30.5165 18.584 31.3099 18.584 32.1385C18.584 33.1082 18.919 34.0427 19.5537 34.7832C20.2435 35.5386 20.6241 35.7582 21.2992 36.0349C22.1278 36.3523 23.0446 36.4052 23.9085 36.1584C24.7724 35.9115 25.5306 35.4002 26.0771 34.6774C26.8705 35.7 28.0871 36.317 29.3917 36.317C30.6964 36.317 31.913 35.7176 32.7064 34.6774C33.4997 35.7 34.7163 36.317 36.021 36.317C37.3257 36.317 38.5422 35.7176 39.3356 34.6774C40.129 35.7 41.3455 36.317 42.6502 36.317C43.9549 36.317 45.1714 35.7176 45.9648 34.6774C46.7582 35.7 47.9747 36.2994 49.2618 36.2994C49.7731 36.2994 50.2668 36.2113 50.7428 36.0173C51.4895 35.6356 51.8656 35.3686 52.4354 34.7832C53.0877 34.0427 53.4227 33.1082 53.4227 32.1385ZM26.5763 20.3252L20.7757 30.7098C20.476 31.1153 20.335 31.6266 20.3879 32.1203C20.3879 32.7726 20.6523 33.3897 21.1107 33.8481C21.5691 34.3065 22.1862 34.571 22.8386 34.571C23.4909 34.571 24.108 34.3065 24.5664 33.8481C25.0248 33.3897 25.2716 32.7726 25.2716 32.1203C25.2716 31.6443 25.6595 31.2564 26.1355 31.2564C26.6116 31.2564 26.9995 31.6443 26.9995 32.1203C26.9995 32.9842 27.4579 33.7952 28.216 34.236C28.9741 34.6768 29.9086 34.6768 30.6667 34.236C31.4248 33.7952 31.8832 33.0018 31.8832 32.1203C31.8832 31.6443 32.2711 31.2564 32.7471 31.2564C33.2232 31.2564 33.6111 31.6443 33.6111 32.1203C33.6111 32.9842 34.0695 33.7952 34.8276 34.236C35.5857 34.6768 36.5202 34.6768 37.2783 34.236C38.0364 33.7952 38.4948 33.0018 38.4948 32.1203C38.4948 31.6443 38.8827 31.2564 39.3587 31.2564C39.8348 31.2564 40.2226 31.6443 40.2226 32.1203C40.2226 32.9842 40.6811 33.7952 41.4392 34.236C42.1973 34.6768 43.1318 34.6768 43.8899 34.236C44.648 33.7952 45.1064 33.0018 45.1064 32.1203C45.1064 31.6443 45.4943 31.2564 45.9703 31.2564C46.4464 31.2564 46.8342 31.6443 46.8342 32.1203C46.8342 32.7726 47.0811 33.3897 47.5395 33.8481C47.9802 34.3065 48.5973 34.571 49.2497 34.571C49.902 34.5886 50.5191 34.3242 50.9775 33.8658C51.4359 33.4074 51.7004 32.7903 51.7004 32.1379C51.7004 31.4856 51.4359 30.8685 50.9775 30.4101C50.9246 30.3572 50.8717 30.2867 50.8365 30.2161L45.4414 20.3252H26.5763Z"/>
</mask>
<path fill-rule="evenodd" clip-rule="evenodd" d="M53.4227 32.1385C53.4227 31.0807 53.0172 30.0581 52.2943 29.2823L46.7053 19.0387C46.5466 18.7566 46.2645 18.5803 45.9472 18.5803H26.0595C25.7421 18.5803 25.46 18.7566 25.3014 19.0211L19.2716 29.8289C18.8132 30.5165 18.584 31.3099 18.584 32.1385C18.584 33.1082 18.919 34.0427 19.5537 34.7832C20.2435 35.5386 20.6241 35.7582 21.2992 36.0349C22.1278 36.3523 23.0446 36.4052 23.9085 36.1584C24.7724 35.9115 25.5306 35.4002 26.0771 34.6774C26.8705 35.7 28.0871 36.317 29.3917 36.317C30.6964 36.317 31.913 35.7176 32.7064 34.6774C33.4997 35.7 34.7163 36.317 36.021 36.317C37.3257 36.317 38.5422 35.7176 39.3356 34.6774C40.129 35.7 41.3455 36.317 42.6502 36.317C43.9549 36.317 45.1714 35.7176 45.9648 34.6774C46.7582 35.7 47.9747 36.2994 49.2618 36.2994C49.7731 36.2994 50.2668 36.2113 50.7428 36.0173C51.4895 35.6356 51.8656 35.3686 52.4354 34.7832C53.0877 34.0427 53.4227 33.1082 53.4227 32.1385ZM26.5763 20.3252L20.7757 30.7098C20.476 31.1153 20.335 31.6266 20.3879 32.1203C20.3879 32.7726 20.6523 33.3897 21.1107 33.8481C21.5691 34.3065 22.1862 34.571 22.8386 34.571C23.4909 34.571 24.108 34.3065 24.5664 33.8481C25.0248 33.3897 25.2716 32.7726 25.2716 32.1203C25.2716 31.6443 25.6595 31.2564 26.1355 31.2564C26.6116 31.2564 26.9995 31.6443 26.9995 32.1203C26.9995 32.9842 27.4579 33.7952 28.216 34.236C28.9741 34.6768 29.9086 34.6768 30.6667 34.236C31.4248 33.7952 31.8832 33.0018 31.8832 32.1203C31.8832 31.6443 32.2711 31.2564 32.7471 31.2564C33.2232 31.2564 33.6111 31.6443 33.6111 32.1203C33.6111 32.9842 34.0695 33.7952 34.8276 34.236C35.5857 34.6768 36.5202 34.6768 37.2783 34.236C38.0364 33.7952 38.4948 33.0018 38.4948 32.1203C38.4948 31.6443 38.8827 31.2564 39.3587 31.2564C39.8348 31.2564 40.2226 31.6443 40.2226 32.1203C40.2226 32.9842 40.6811 33.7952 41.4392 34.236C42.1973 34.6768 43.1318 34.6768 43.8899 34.236C44.648 33.7952 45.1064 33.0018 45.1064 32.1203C45.1064 31.6443 45.4943 31.2564 45.9703 31.2564C46.4464 31.2564 46.8342 31.6443 46.8342 32.1203C46.8342 32.7726 47.0811 33.3897 47.5395 33.8481C47.9802 34.3065 48.5973 34.571 49.2497 34.571C49.902 34.5886 50.5191 34.3242 50.9775 33.8658C51.4359 33.4074 51.7004 32.7903 51.7004 32.1379C51.7004 31.4856 51.4359 30.8685 50.9775 30.4101C50.9246 30.3572 50.8717 30.2867 50.8365 30.2161L45.4414 20.3252H26.5763Z" fill="black"/>
<path d="M52.2943 29.2823L52.151 29.3605L52.1608 29.3786L52.1748 29.3936L52.2943 29.2823ZM46.7053 19.0387L46.8487 18.9605L46.8477 18.9587L46.7053 19.0387ZM25.3014 19.0211L25.1613 18.937L25.1588 18.9415L25.3014 19.0211ZM19.2716 29.8289L19.4079 29.9197L19.4142 29.9084L19.2716 29.8289ZM19.5537 34.7832L19.4296 34.8895L19.4331 34.8933L19.5537 34.7832ZM21.2992 36.0349L21.2372 36.1861L21.2407 36.1875L21.2992 36.0349ZM23.9085 36.1584L23.9534 36.3154L23.9085 36.1584ZM26.0771 34.6774L26.2062 34.5773L26.0755 34.4088L25.9469 34.5789L26.0771 34.6774ZM32.7064 34.6774L32.8354 34.5773L32.7052 34.4095L32.5765 34.5783L32.7064 34.6774ZM39.3356 34.6774L39.4646 34.5773L39.3345 34.4095L39.2057 34.5783L39.3356 34.6774ZM45.9648 34.6774L46.0939 34.5773L45.9637 34.4095L45.835 34.5783L45.9648 34.6774ZM50.7428 36.0173L50.8046 36.1691L50.8171 36.1627L50.7428 36.0173ZM52.4354 34.7832L52.5525 34.8972L52.5579 34.8911L52.4354 34.7832ZM20.7757 30.7098L20.9071 30.8069L20.9132 30.7985L20.9183 30.7895L20.7757 30.7098ZM26.5763 20.3252V20.1619H26.4805L26.4337 20.2456L26.5763 20.3252ZM20.3879 32.1203H20.5512V32.1116L20.5502 32.1029L20.3879 32.1203ZM21.1107 33.8481L20.9953 33.9636H20.9953L21.1107 33.8481ZM24.5664 33.8481L24.6819 33.9636L24.5664 33.8481ZM28.216 34.236L28.2981 34.0948V34.0948L28.216 34.236ZM30.6667 34.236L30.5846 34.0948V34.0948L30.6667 34.236ZM34.8276 34.236L34.9097 34.0948V34.0948L34.8276 34.236ZM37.2783 34.236L37.1962 34.0948L37.2783 34.236ZM41.4392 34.236L41.5213 34.0948L41.4392 34.236ZM43.8899 34.236L43.8078 34.0948L43.8899 34.236ZM47.5395 33.8481L47.6572 33.7349L47.655 33.7326L47.5395 33.8481ZM49.2497 34.571L49.2541 34.4077H49.2497V34.571ZM50.9775 30.4101L51.093 30.2946V30.2946L50.9775 30.4101ZM50.8365 30.2161L50.9826 30.1431L50.9798 30.1379L50.8365 30.2161ZM45.4414 20.3252L45.5848 20.247L45.5384 20.1619H45.4414V20.3252ZM52.1748 29.3936C52.8698 30.1394 53.2594 31.1223 53.2594 32.1385H53.586C53.586 31.039 53.1646 29.9767 52.4138 29.171L52.1748 29.3936ZM46.562 19.1169L52.151 29.3605L52.4377 29.2041L46.8487 18.9605L46.562 19.1169ZM45.9472 18.7436C46.2009 18.7436 46.4309 18.8839 46.563 19.1188L46.8477 18.9587C46.6624 18.6293 46.3282 18.417 45.9472 18.417V18.7436ZM26.0595 18.7436H45.9472V18.417H26.0595V18.7436ZM25.4414 19.1051C25.5732 18.8854 25.8045 18.7436 26.0595 18.7436V18.417C25.6798 18.417 25.3469 18.6278 25.1613 18.9371L25.4414 19.1051ZM19.4142 29.9084L25.444 19.1007L25.1588 18.9415L19.129 29.7493L19.4142 29.9084ZM18.7473 32.1385C18.7473 31.3406 18.9678 30.579 19.4075 29.9195L19.1357 29.7383C18.6586 30.454 18.4207 31.2792 18.4207 32.1385H18.7473ZM19.6777 34.6769C19.069 33.9668 18.7473 33.0703 18.7473 32.1385H18.4207C18.4207 33.1461 18.7689 34.1185 19.4297 34.8894L19.6777 34.6769ZM21.3611 35.8838C21.0275 35.7471 20.7763 35.6283 20.5249 35.4543C20.273 35.2799 20.0147 35.0458 19.6743 34.673L19.4331 34.8933C19.7825 35.2759 20.0594 35.5293 20.339 35.7228C20.6191 35.9167 20.8957 36.0461 21.2372 36.1861L21.3611 35.8838ZM23.8637 36.0014C23.0351 36.2381 22.1545 36.1877 21.3576 35.8824L21.2407 36.1875C22.1011 36.5169 23.0541 36.5723 23.9534 36.3154L23.8637 36.0014ZM25.9469 34.5789C25.4221 35.2729 24.6942 35.764 23.8637 36.0014L23.9534 36.3154C24.8507 36.059 25.639 35.5276 26.2074 34.7759L25.9469 34.5789ZM29.3917 36.1537C28.1391 36.1537 26.9696 35.5613 26.2062 34.5773L25.9481 34.7775C26.7714 35.8387 28.035 36.4803 29.3917 36.4803V36.1537ZM32.5765 34.5783C31.8141 35.5779 30.6456 36.1537 29.3917 36.1537V36.4803C30.7472 36.4803 32.0118 35.8573 32.8362 34.7764L32.5765 34.5783ZM36.021 36.1537C34.7683 36.1537 33.5988 35.5613 32.8354 34.5773L32.5773 34.7775C33.4007 35.8387 34.6642 36.4803 36.021 36.4803V36.1537ZM39.2057 34.5783C38.4433 35.5779 37.2749 36.1537 36.021 36.1537V36.4803C37.3765 36.4803 38.6411 35.8573 39.4654 34.7764L39.2057 34.5783ZM42.6502 36.1537C41.3976 36.1537 40.2281 35.5613 39.4646 34.5773L39.2066 34.7775C40.0299 35.8387 41.2935 36.4803 42.6502 36.4803V36.1537ZM45.835 34.5783C45.0726 35.5779 43.9041 36.1537 42.6502 36.1537V36.4803C44.0057 36.4803 45.2703 35.8573 46.0947 34.7764L45.835 34.5783ZM49.2618 36.1361C48.0257 36.1361 46.8566 35.5604 46.0939 34.5773L45.8358 34.7775C46.6598 35.8396 47.9238 36.4627 49.2618 36.4627V36.1361ZM50.6812 35.8661C50.2264 36.0514 49.7538 36.1361 49.2618 36.1361V36.4627C49.7924 36.4627 50.3072 36.3711 50.8044 36.1686L50.6812 35.8661ZM52.3183 34.6693C51.7622 35.2407 51.401 35.4975 50.6685 35.8719L50.8171 36.1627C51.5781 35.7738 51.969 35.4965 52.5524 34.8971L52.3183 34.6693ZM53.2594 32.1385C53.2594 33.0702 52.9378 33.9658 52.3128 34.6752L52.5579 34.8911C53.2376 34.1195 53.586 33.1463 53.586 32.1385H53.2594ZM20.9183 30.7895L26.7189 20.4048L26.4337 20.2456L20.6332 30.6302L20.9183 30.7895ZM20.5502 32.1029C20.5018 31.6508 20.6312 31.1802 20.9071 30.8069L20.6444 30.6128C20.3209 31.0505 20.1681 31.6025 20.2255 32.1377L20.5502 32.1029ZM21.2262 33.7326C20.7974 33.3039 20.5512 32.728 20.5512 32.1203H20.2246C20.2246 32.8173 20.5072 33.4755 20.9953 33.9636L21.2262 33.7326ZM22.8386 34.4077C22.2309 34.4077 21.655 34.1614 21.2262 33.7326L20.9953 33.9636C21.4833 34.4516 22.1415 34.7343 22.8386 34.7343V34.4077ZM24.4509 33.7326C24.0222 34.1614 23.4462 34.4077 22.8386 34.4077V34.7343C23.5356 34.7343 24.1938 34.4516 24.6819 33.9636L24.4509 33.7326ZM25.1083 32.1203C25.1083 32.731 24.8775 33.306 24.4509 33.7326L24.6819 33.9636C25.1721 33.4734 25.4349 32.8143 25.4349 32.1203H25.1083ZM26.1355 31.0931C25.5693 31.0931 25.1083 31.5541 25.1083 32.1203H25.4349C25.4349 31.7344 25.7497 31.4197 26.1355 31.4197V31.0931ZM27.1628 32.1203C27.1628 31.5541 26.7018 31.0931 26.1355 31.0931V31.4197C26.5214 31.4197 26.8362 31.7345 26.8362 32.1203H27.1628ZM28.2981 34.0948C27.5907 33.6836 27.1628 32.9266 27.1628 32.1203H26.8362C26.8362 33.0418 27.325 33.9069 28.1339 34.3772L28.2981 34.0948ZM30.5846 34.0948C29.8772 34.5061 29.0055 34.5061 28.2981 34.0948L28.1339 34.3772C28.9428 34.8475 29.9399 34.8475 30.7488 34.3772L30.5846 34.0948ZM31.7199 32.1203C31.7199 32.9436 31.2925 33.6833 30.5846 34.0948L30.7488 34.3772C31.5571 33.9072 32.0465 33.0601 32.0465 32.1203H31.7199ZM32.7471 31.0931C32.1809 31.0931 31.7199 31.5541 31.7199 32.1203H32.0465C32.0465 31.7344 32.3613 31.4197 32.7471 31.4197V31.0931ZM33.7744 32.1203C33.7744 31.5541 33.3134 31.0931 32.7471 31.0931V31.4197C33.133 31.4197 33.4477 31.7345 33.4477 32.1203H33.7744ZM34.9097 34.0948C34.2023 33.6836 33.7744 32.9266 33.7744 32.1203H33.4477C33.4477 33.0418 33.9366 33.9069 34.7455 34.3772L34.9097 34.0948ZM37.1962 34.0948C36.4888 34.5061 35.6171 34.5061 34.9097 34.0948L34.7455 34.3772C35.5544 34.8475 36.5515 34.8475 37.3604 34.3772L37.1962 34.0948ZM38.3315 32.1203C38.3315 32.9436 37.9041 33.6833 37.1962 34.0948L37.3604 34.3772C38.1687 33.9072 38.6581 33.0601 38.6581 32.1203H38.3315ZM39.3587 31.0931C38.7925 31.0931 38.3315 31.5541 38.3315 32.1203H38.6581C38.6581 31.7345 38.9729 31.4197 39.3587 31.4197V31.0931ZM40.386 32.1203C40.386 31.5541 39.925 31.0931 39.3587 31.0931V31.4197C39.7446 31.4197 40.0593 31.7344 40.0593 32.1203H40.386ZM41.5213 34.0948C40.8139 33.6836 40.386 32.9266 40.386 32.1203H40.0593C40.0593 33.0418 40.5482 33.9069 41.3571 34.3772L41.5213 34.0948ZM43.8078 34.0948C43.1004 34.5061 42.2286 34.5061 41.5213 34.0948L41.3571 34.3772C42.166 34.8475 43.1631 34.8475 43.972 34.3772L43.8078 34.0948ZM44.9431 32.1203C44.9431 32.9436 44.5157 33.6833 43.8078 34.0948L43.972 34.3772C44.7803 33.9072 45.2697 33.0601 45.2697 32.1203H44.9431ZM45.9703 31.0931C45.4041 31.0931 44.9431 31.5541 44.9431 32.1203H45.2697C45.2697 31.7345 45.5845 31.4197 45.9703 31.4197V31.0931ZM46.9975 32.1203C46.9975 31.5541 46.5366 31.0931 45.9703 31.0931V31.4197C46.3562 31.4197 46.6709 31.7344 46.6709 32.1203H46.9975ZM47.655 33.7326C47.2283 33.306 46.9975 32.731 46.9975 32.1203H46.6709C46.6709 32.8143 46.9338 33.4734 47.424 33.9636L47.655 33.7326ZM49.2497 34.4077C48.6415 34.4077 48.067 34.1611 47.6572 33.7349L47.4218 33.9613C47.8935 34.4519 48.5532 34.7343 49.2497 34.7343V34.4077ZM50.862 33.7503C50.4331 34.1792 49.8586 34.4241 49.2541 34.4078L49.2453 34.7342C49.9455 34.7532 50.6051 34.4692 51.093 33.9812L50.862 33.7503ZM51.5371 32.1379C51.5371 32.7456 51.2908 33.3215 50.862 33.7503L51.093 33.9812C51.581 33.4932 51.8637 32.8349 51.8637 32.1379H51.5371ZM50.862 30.5256C51.2908 30.9543 51.5371 31.5303 51.5371 32.1379H51.8637C51.8637 31.4409 51.581 30.7827 51.093 30.2946L50.862 30.5256ZM50.6904 30.2892C50.7343 30.377 50.798 30.4616 50.862 30.5256L51.093 30.2946C51.0512 30.2528 51.0092 30.1964 50.9825 30.1431L50.6904 30.2892ZM45.298 20.4034L50.6931 30.2943L50.9798 30.1379L45.5848 20.247L45.298 20.4034ZM26.5763 20.4885H45.4414V20.1619H26.5763V20.4885Z" fill="black" mask="url(#path-5-outside-1_1577_15129)"/>
</svg>
