<svg width="48" height="48" viewBox="0 0 48 48" fill="none" xmlns="http://www.w3.org/2000/svg">
<path d="M5.35548 5.20152C1.13534 9.51331 -0.338357 19.8935 0.0635609 27.7186C0.286849 32.0989 1.29164 39.9924 5.48945 43.4373C9.19603 46.5171 16.6538 48 24 48C31.3462 48 38.804 46.4715 42.5105 43.4373C46.7084 39.9924 47.7131 32.0304 47.9364 27.7186C48.3384 19.8935 46.8647 9.46768 42.6445 5.20152C35.8566 -1.73384 12.1434 -1.73384 5.35548 5.20152Z" fill="#009EF4"/>
<path d="M33.8582 38.0625H13.2815C12.5708 38.0625 11.9785 37.4872 11.9785 36.7595V32.0553C11.9785 30.3124 12.5877 28.6033 13.6876 27.2495C15.1259 25.4727 17.275 24.4744 19.5594 24.4744H27.5634C31.743 24.4744 35.1443 27.8756 35.1443 32.0722V36.7764C35.1612 37.4871 34.569 38.0625 33.8582 38.0625ZM13.5184 36.5057C21.3625 36.5057 25.7603 36.5057 33.6044 36.5057V32.0553C33.6044 28.7217 30.8969 26.0143 27.5634 26.0143H19.5594C17.7319 26.0143 16.0397 26.8265 14.889 28.231C14.0091 29.314 13.5184 30.6677 13.5184 32.0553V36.5057Z" fill="white"/>
<path d="M17.1175 16.2837C17.1175 19.8404 20.0142 22.7371 23.5708 22.7371C27.1275 22.7371 30.0242 19.8404 30.0242 16.2837C30.0242 12.7271 27.1275 9.83036 23.5708 9.83036C20.0142 9.83036 17.1175 12.7271 17.1175 16.2837ZM18.6151 16.2978C18.6151 13.5647 20.8377 11.3421 23.5708 11.3421C26.304 11.3421 28.5266 13.5647 28.5266 16.2978C28.5266 19.031 26.304 21.2536 23.5708 21.2536C20.8377 21.2536 18.6151 19.031 18.6151 16.2978Z" fill="white" stroke="white" stroke-width="0.214286"/>
<path d="M16.8691 33.0366H18.409V37.284H16.8691V33.0366Z" fill="white"/>
<path d="M28.7305 33.0369H30.2703V37.2842H28.7305V33.0369Z" fill="white"/>
</svg>
