<svg width="2" height="3036" viewBox="0 0 2 3036" fill="none" xmlns="http://www.w3.org/2000/svg">
<path d="M2 -4.37114e-08C2 -0.552285 1.55228 -1 1 -1C0.447715 -1 -2.41411e-08 -0.552285 0 4.37114e-08L2 -4.37114e-08ZM6.51593e-07 14.9067C6.75734e-07 15.459 0.447716 15.9067 1 15.9067C1.55229 15.9067 2 15.459 2 14.9067L6.51593e-07 14.9067ZM2 49.689C2 49.1367 1.55229 48.689 1 48.689C0.447717 48.689 2.14784e-06 49.1367 2.17198e-06 49.689L2 49.689ZM3.47516e-06 79.5025C3.4993e-06 80.0547 0.447719 80.5025 1 80.5025C1.55229 80.5025 2 80.0547 2 79.5025L3.47516e-06 79.5025ZM2 114.285C2 113.732 1.55229 113.285 1 113.285C0.44772 113.285 4.97141e-06 113.732 4.99555e-06 114.285L2 114.285ZM6.29873e-06 144.098C6.32287e-06 144.65 0.447722 145.098 1.00001 145.098C1.55229 145.098 2.00001 144.65 2.00001 144.098L6.29873e-06 144.098ZM2.00001 178.881C2.00001 178.328 1.55229 177.881 1.00001 177.881C0.447723 177.881 7.79497e-06 178.328 7.81912e-06 178.881L2.00001 178.881ZM9.1223e-06 208.694C9.14644e-06 209.246 0.447724 209.694 1.00001 209.694C1.55229 209.694 2.00001 209.246 2.00001 208.694L9.1223e-06 208.694ZM2.00001 243.476C2.00001 242.924 1.5523 242.476 1.00001 242.476C0.447726 242.476 1.06185e-05 242.924 1.06427e-05 243.476L2.00001 243.476ZM1.19459e-05 273.29C1.197e-05 273.842 0.447727 274.29 1.00001 274.29C1.5523 274.29 2.00001 273.842 2.00001 273.29L1.19459e-05 273.29ZM2.00001 308.072C2.00001 307.52 1.5523 307.072 1.00001 307.072C0.447729 307.072 1.34421e-05 307.52 1.34663e-05 308.072L2.00001 308.072ZM1.47694e-05 337.885C1.47936e-05 338.438 0.44773 338.885 1.00001 338.885C1.5523 338.885 2.00001 338.438 2.00001 337.885L1.47694e-05 337.885ZM2.00002 372.668C2.00002 372.115 1.5523 371.668 1.00002 371.668C0.447731 371.668 1.62657e-05 372.115 1.62898e-05 372.668L2.00002 372.668ZM1.7593e-05 402.481C1.76172e-05 403.033 0.447733 403.481 1.00002 403.481C1.5523 403.481 2.00002 403.033 2.00002 402.481L1.7593e-05 402.481ZM2.00002 437.263C2.00002 436.711 1.5523 436.263 1.00002 436.263C0.447734 436.263 1.90893e-05 436.711 1.91134e-05 437.263L2.00002 437.263ZM2.04166e-05 467.077C2.04407e-05 467.629 0.447736 468.077 1.00002 468.077C1.55231 468.077 2.00002 467.629 2.00002 467.077L2.04166e-05 467.077ZM2.00002 501.859C2.00002 501.307 1.55231 500.859 1.00002 500.859C0.447737 500.859 2.19128e-05 501.307 2.1937e-05 501.859L2.00002 501.859ZM2.32401e-05 531.673C2.32643e-05 532.225 0.447739 532.673 1.00002 532.673C1.55231 532.673 2.00002 532.225 2.00002 531.673L2.32401e-05 531.673ZM2.00002 566.455C2.00002 565.903 1.55231 565.455 1.00002 565.455C0.44774 565.455 2.47364e-05 565.903 2.47605e-05 566.455L2.00002 566.455ZM2.60637e-05 596.268C2.60879e-05 596.821 0.447741 597.268 1.00003 597.268C1.55231 597.268 2.00003 596.821 2.00003 596.268L2.60637e-05 596.268ZM2.00003 631.051C2.00003 630.498 1.55231 630.051 1.00003 630.051C0.447743 630.051 2.756e-05 630.498 2.75841e-05 631.051L2.00003 631.051ZM2.88873e-05 660.864C2.89114e-05 661.416 0.447744 661.864 1.00003 661.864C1.55231 661.864 2.00003 661.416 2.00003 660.864L2.88873e-05 660.864ZM2.00003 695.646C2.00003 695.094 1.55232 694.646 1.00003 694.646C0.447746 694.646 3.03835e-05 695.094 3.04077e-05 695.646L2.00003 695.646ZM3.17109e-05 725.46C3.1735e-05 726.012 0.447747 726.46 1.00003 726.46C1.55232 726.46 2.00003 726.012 2.00003 725.46L3.17109e-05 725.46ZM2.00003 760.242C2.00003 759.69 1.55232 759.242 1.00003 759.242C0.447748 759.242 3.32071e-05 759.69 3.32312e-05 760.242L2.00003 760.242ZM3.45344e-05 790.056C3.45586e-05 790.608 0.44775 791.056 1.00003 791.056C1.55232 791.056 2.00003 790.608 2.00003 790.056L3.45344e-05 790.056ZM2.00004 824.838C2.00004 824.286 1.55232 823.838 1.00004 823.838C0.447751 823.838 3.60307e-05 824.286 3.60548e-05 824.838L2.00004 824.838ZM3.7358e-05 854.651C3.73821e-05 855.204 0.447753 855.651 1.00004 855.651C1.55232 855.651 2.00004 855.204 2.00004 854.651L3.7358e-05 854.651ZM2.00004 889.434C2.00004 888.881 1.55232 888.434 1.00004 888.434C0.447754 888.434 3.88542e-05 888.881 3.88784e-05 889.434L2.00004 889.434ZM4.01816e-05 919.247C4.02057e-05 919.799 0.447755 920.247 1.00004 920.247C1.55233 920.247 2.00004 919.799 2.00004 919.247L4.01816e-05 919.247ZM2.00004 954.029C2.00004 953.477 1.55233 953.029 1.00004 953.029C0.447757 953.029 4.16778e-05 953.477 4.1702e-05 954.029L2.00004 954.029ZM4.30051e-05 983.843C4.30293e-05 984.395 0.447758 984.843 1.00004 984.843C1.55233 984.843 2.00004 984.395 2.00004 983.843L4.30051e-05 983.843ZM2.00004 1018.63C2.00004 1018.07 1.55233 1017.63 1.00004 1017.63C0.44776 1017.63 4.45014e-05 1018.07 4.45255e-05 1018.63L2.00004 1018.63ZM4.58287e-05 1048.44C4.58529e-05 1048.99 0.447761 1049.44 1.00005 1049.44C1.55233 1049.44 2.00005 1048.99 2.00005 1048.44L4.58287e-05 1048.44ZM2.00005 1083.22C2.00005 1082.67 1.55233 1082.22 1.00005 1082.22C0.447763 1082.22 4.7325e-05 1082.67 4.73491e-05 1083.22L2.00005 1083.22ZM4.86523e-05 1113.03C4.86764e-05 1113.59 0.447764 1114.03 1.00005 1114.03C1.55233 1114.03 2.00005 1113.59 2.00005 1113.03L4.86523e-05 1113.03ZM2.00005 1147.82C2.00005 1147.26 1.55233 1146.82 1.00005 1146.82C0.447765 1146.82 5.01485e-05 1147.26 5.01727e-05 1147.82L2.00005 1147.82ZM5.14759e-05 1177.63C5.15e-05 1178.18 0.447767 1178.63 1.00005 1178.63C1.55234 1178.63 2.00005 1178.18 2.00005 1177.63L5.14759e-05 1177.63ZM2.00005 1212.41C2.00005 1211.86 1.55234 1211.41 1.00005 1211.41C0.447768 1211.41 5.29721e-05 1211.86 5.29962e-05 1212.41L2.00005 1212.41ZM5.42994e-05 1242.23C5.43236e-05 1242.78 0.44777 1243.23 1.00005 1243.23C1.55234 1243.23 2.00005 1242.78 2.00005 1242.23L5.42994e-05 1242.23ZM2.00006 1277.01C2.00006 1276.46 1.55234 1276.01 1.00006 1276.01C0.447771 1276.01 5.57957e-05 1276.46 5.58198e-05 1277.01L2.00006 1277.01ZM5.7123e-05 1306.82C5.71471e-05 1307.37 0.447772 1307.82 1.00006 1307.82C1.55234 1307.82 2.00006 1307.37 2.00006 1306.82L5.7123e-05 1306.82ZM2.00006 1341.6C2.00006 1341.05 1.55234 1340.6 1.00006 1340.6C0.447774 1340.6 5.86192e-05 1341.05 5.86434e-05 1341.6L2.00006 1341.6ZM5.99466e-05 1371.42C5.99707e-05 1371.97 0.447775 1372.42 1.00006 1372.42C1.55234 1372.42 2.00006 1371.97 2.00006 1371.42L5.99466e-05 1371.42ZM2.00006 1406.2C2.00006 1405.65 1.55235 1405.2 1.00006 1405.2C0.447777 1405.2 6.14428e-05 1405.65 6.1467e-05 1406.2L2.00006 1406.2ZM6.27702e-05 1436.01C6.27943e-05 1436.57 0.447778 1437.01 1.00006 1437.01C1.55235 1437.01 2.00006 1436.57 2.00006 1436.01L6.27702e-05 1436.01ZM2.00006 1470.8C2.00006 1470.24 1.55235 1469.8 1.00006 1469.8C0.447779 1469.8 6.42664e-05 1470.24 6.42905e-05 1470.8L2.00006 1470.8ZM6.55937e-05 1500.61C6.56179e-05 1501.16 0.447781 1501.61 1.00007 1501.61C1.55235 1501.61 2.00007 1501.16 2.00007 1500.61L6.55937e-05 1500.61ZM2.00007 1535.39C2.00007 1534.84 1.55235 1534.39 1.00007 1534.39C0.447782 1534.39 6.709e-05 1534.84 6.71141e-05 1535.39L2.00007 1535.39ZM6.84173e-05 1565.21C6.84414e-05 1565.76 0.447784 1566.21 1.00007 1566.21C1.55235 1566.21 2.00007 1565.76 2.00007 1565.21L6.84173e-05 1565.21ZM2.00007 1599.99C2.00007 1599.44 1.55235 1598.99 1.00007 1598.99C0.447785 1598.99 6.99135e-05 1599.44 6.99377e-05 1599.99L2.00007 1599.99ZM7.12409e-05 1629.8C7.1265e-05 1630.35 0.447787 1630.8 1.00007 1630.8C1.55236 1630.8 2.00007 1630.35 2.00007 1629.8L7.12409e-05 1629.8ZM2.00007 1664.58C2.00007 1664.03 1.55236 1663.58 1.00007 1663.58C0.447788 1663.58 7.27371e-05 1664.03 7.27613e-05 1664.58L2.00007 1664.58ZM7.40644e-05 1694.4C7.40886e-05 1694.95 0.447789 1695.4 1.00007 1695.4C1.55236 1695.4 2.00007 1694.95 2.00007 1694.4L7.40644e-05 1694.4ZM2.00008 1729.18C2.00008 1728.63 1.55236 1728.18 1.00008 1728.18C0.447791 1728.18 7.55607e-05 1728.63 7.55848e-05 1729.18L2.00008 1729.18ZM7.6888e-05 1758.99C7.69122e-05 1759.54 0.447792 1759.99 1.00008 1759.99C1.55236 1759.99 2.00008 1759.54 2.00008 1758.99L7.6888e-05 1758.99ZM2.00008 1793.78C2.00008 1793.22 1.55236 1792.78 1.00008 1792.78C0.447794 1792.78 7.83843e-05 1793.22 7.84084e-05 1793.78L2.00008 1793.78ZM7.97116e-05 1823.59C7.97357e-05 1824.14 0.447795 1824.59 1.00008 1824.59C1.55236 1824.59 2.00008 1824.14 2.00008 1823.59L7.97116e-05 1823.59ZM2.00008 1858.37C2.00008 1857.82 1.55237 1857.37 1.00008 1857.37C0.447796 1857.37 8.12078e-05 1857.82 8.1232e-05 1858.37L2.00008 1858.37ZM8.25352e-05 1888.18C8.25593e-05 1888.74 0.447798 1889.18 1.00008 1889.18C1.55237 1889.18 2.00008 1888.74 2.00008 1888.18L8.25352e-05 1888.18ZM2.00008 1922.97C2.00008 1922.41 1.55237 1921.97 1.00008 1921.97C0.447799 1921.97 8.40314e-05 1922.41 8.40555e-05 1922.97L2.00008 1922.97ZM8.53587e-05 1952.78C8.53829e-05 1953.33 0.447801 1953.78 1.00009 1953.78C1.55237 1953.78 2.00009 1953.33 2.00009 1952.78L8.53587e-05 1952.78ZM2.00009 1987.56C2.00009 1987.01 1.55237 1986.56 1.00009 1986.56C0.447802 1986.56 8.6855e-05 1987.01 8.68791e-05 1987.56L2.00009 1987.56ZM8.81823e-05 2017.38C8.82064e-05 2017.93 0.447803 2018.38 1.00009 2018.38C1.55237 2018.38 2.00009 2017.93 2.00009 2017.38L8.81823e-05 2017.38ZM2.00009 2052.16C2.00009 2051.61 1.55237 2051.16 1.00009 2051.16C0.447805 2051.16 8.96786e-05 2051.61 8.97027e-05 2052.16L2.00009 2052.16ZM9.10059e-05 2081.97C9.103e-05 2082.52 0.447806 2082.97 1.00009 2082.97C1.55238 2082.97 2.00009 2082.52 2.00009 2081.97L9.10059e-05 2081.97ZM2.00009 2116.75C2.00009 2116.2 1.55238 2115.75 1.00009 2115.75C0.447808 2115.75 9.25021e-05 2116.2 9.25263e-05 2116.75L2.00009 2116.75ZM9.38295e-05 2146.57C9.38536e-05 2147.12 0.447809 2147.57 1.00009 2147.57C1.55238 2147.57 2.00009 2147.12 2.00009 2146.57L9.38295e-05 2146.57ZM2.0001 2181.35C2.0001 2180.8 1.55238 2180.35 1.0001 2180.35C0.447811 2180.35 9.53257e-05 2180.8 9.53498e-05 2181.35L2.0001 2181.35ZM9.6653e-05 2211.16C9.66772e-05 2211.72 0.447812 2212.16 1.0001 2212.16C1.55238 2212.16 2.0001 2211.72 2.0001 2211.16L9.6653e-05 2211.16ZM2.0001 2245.95C2.0001 2245.39 1.55238 2244.95 1.0001 2244.95C0.447813 2244.95 9.81492e-05 2245.39 9.81734e-05 2245.95L2.0001 2245.95ZM9.94766e-05 2275.76C9.95007e-05 2276.31 0.447815 2276.76 1.0001 2276.76C1.55238 2276.76 2.0001 2276.31 2.0001 2275.76L9.94766e-05 2275.76ZM2.0001 2310.54C2.0001 2309.99 1.55239 2309.54 1.0001 2309.54C0.447816 2309.54 0.000100973 2309.99 0.000100997 2310.54L2.0001 2310.54ZM0.0001023 2340.35C0.000102324 2340.91 0.447818 2341.35 1.0001 2341.35C1.55239 2341.35 2.0001 2340.91 2.0001 2340.35L0.0001023 2340.35ZM2.0001 2375.14C2.0001 2374.58 1.55239 2374.14 1.0001 2374.14C0.447819 2374.14 0.000103796 2374.58 0.000103821 2375.14L2.0001 2375.14ZM0.000105124 2404.95C0.000105148 2405.5 0.44782 2405.95 1.00011 2405.95C1.55239 2405.95 2.00011 2405.5 2.00011 2404.95L0.000105124 2404.95ZM2.00011 2439.73C2.00011 2439.18 1.55239 2438.73 1.00011 2438.73C0.447822 2438.73 0.00010662 2439.18 0.000106644 2439.73L2.00011 2439.73ZM0.000107947 2469.55C0.000107971 2470.1 0.447823 2470.55 1.00011 2470.55C1.55239 2470.55 2.00011 2470.1 2.00011 2469.55L0.000107947 2469.55ZM2.00011 2504.33C2.00011 2503.78 1.55239 2503.33 1.00011 2503.33C0.447825 2503.33 0.000109444 2503.78 0.000109468 2504.33L2.00011 2504.33ZM0.000110771 2534.14C0.000110795 2534.69 0.447826 2535.14 1.00011 2535.14C1.5524 2535.14 2.00011 2534.69 2.00011 2534.14L0.000110771 2534.14ZM2.00011 2568.92C2.00011 2568.37 1.5524 2567.92 1.00011 2567.92C0.447827 2567.92 0.000112267 2568.37 0.000112291 2568.92L2.00011 2568.92ZM0.000113594 2598.74C0.000113619 2599.29 0.447829 2599.74 1.00011 2599.74C1.5524 2599.74 2.00011 2599.29 2.00011 2598.74L0.000113594 2598.74ZM2.00012 2633.52C2.00012 2632.97 1.5524 2632.52 1.00012 2632.52C0.44783 2632.52 0.000115091 2632.97 0.000115115 2633.52L2.00012 2633.52ZM0.000116418 2663.33C0.000116442 2663.89 0.447832 2664.33 1.00012 2664.33C1.5524 2664.33 2.00012 2663.89 2.00012 2663.33L0.000116418 2663.33ZM2.00012 2698.12C2.00012 2697.56 1.5524 2697.12 1.00012 2697.12C0.447833 2697.12 0.000117914 2697.56 0.000117938 2698.12L2.00012 2698.12ZM0.000119242 2727.93C0.000119266 2728.48 0.447835 2728.93 1.00012 2728.93C1.5524 2728.93 2.00012 2728.48 2.00012 2727.93L0.000119242 2727.93ZM2.00012 2762.71C2.00012 2762.16 1.55241 2761.71 1.00012 2761.71C0.447836 2761.71 0.000120738 2762.16 0.000120762 2762.71L2.00012 2762.71ZM0.000122065 2792.52C0.000122089 2793.08 0.447837 2793.52 1.00012 2793.52C1.55241 2793.52 2.00012 2793.08 2.00012 2792.52L0.000122065 2792.52ZM2.00012 2827.31C2.00012 2826.75 1.55241 2826.31 1.00012 2826.31C0.447839 2826.31 0.000123561 2826.75 0.000123586 2827.31L2.00012 2827.31ZM0.000124889 2857.12C0.000124913 2857.67 0.44784 2858.12 1.00012 2858.12C1.55241 2858.12 2.00012 2857.67 2.00012 2857.12L0.000124889 2857.12ZM2.00013 2891.9C2.00013 2891.35 1.55241 2890.9 1.00013 2890.9C0.447842 2890.9 0.000126385 2891.35 0.000126409 2891.9L2.00013 2891.9ZM0.000127712 2921.72C0.000127736 2922.27 0.447843 2922.72 1.00013 2922.72C1.55241 2922.72 2.00013 2922.27 2.00013 2921.72L0.000127712 2921.72ZM2.00013 2956.5C2.00013 2955.95 1.55241 2955.5 1.00013 2955.5C0.447844 2955.5 0.000129208 2955.95 0.000129233 2956.5L2.00013 2956.5ZM0.000130536 2986.31C0.00013056 2986.86 0.447846 2987.31 1.00013 2987.31C1.55242 2987.31 2.00013 2986.86 2.00013 2986.31L0.000130536 2986.31ZM2.00013 3021.09C2.00013 3020.54 1.55242 3020.09 1.00013 3020.09C0.447847 3020.09 0.000132032 3020.54 0.000132056 3021.09L2.00013 3021.09ZM0 4.37114e-08L6.51593e-07 14.9067L2 14.9067L2 -4.37114e-08L0 4.37114e-08ZM2.17198e-06 49.689L3.47516e-06 79.5025L2 79.5025L2 49.689L2.17198e-06 49.689ZM4.99555e-06 114.285L6.29873e-06 144.098L2.00001 144.098L2 114.285L4.99555e-06 114.285ZM7.81912e-06 178.881L9.1223e-06 208.694L2.00001 208.694L2.00001 178.881L7.81912e-06 178.881ZM1.06427e-05 243.476L1.19459e-05 273.29L2.00001 273.29L2.00001 243.476L1.06427e-05 243.476ZM1.34663e-05 308.072L1.47694e-05 337.885L2.00001 337.885L2.00001 308.072L1.34663e-05 308.072ZM1.62898e-05 372.668L1.7593e-05 402.481L2.00002 402.481L2.00002 372.668L1.62898e-05 372.668ZM1.91134e-05 437.263L2.04166e-05 467.077L2.00002 467.077L2.00002 437.263L1.91134e-05 437.263ZM2.1937e-05 501.859L2.32401e-05 531.673L2.00002 531.673L2.00002 501.859L2.1937e-05 501.859ZM2.47605e-05 566.455L2.60637e-05 596.268L2.00003 596.268L2.00002 566.455L2.47605e-05 566.455ZM2.75841e-05 631.051L2.88873e-05 660.864L2.00003 660.864L2.00003 631.051L2.75841e-05 631.051ZM3.04077e-05 695.646L3.17109e-05 725.46L2.00003 725.46L2.00003 695.646L3.04077e-05 695.646ZM3.32312e-05 760.242L3.45344e-05 790.056L2.00003 790.056L2.00003 760.242L3.32312e-05 760.242ZM3.60548e-05 824.838L3.7358e-05 854.651L2.00004 854.651L2.00004 824.838L3.60548e-05 824.838ZM3.88784e-05 889.434L4.01816e-05 919.247L2.00004 919.247L2.00004 889.434L3.88784e-05 889.434ZM4.1702e-05 954.029L4.30051e-05 983.843L2.00004 983.843L2.00004 954.029L4.1702e-05 954.029ZM4.45255e-05 1018.63L4.58287e-05 1048.44L2.00005 1048.44L2.00004 1018.63L4.45255e-05 1018.63ZM4.73491e-05 1083.22L4.86523e-05 1113.03L2.00005 1113.03L2.00005 1083.22L4.73491e-05 1083.22ZM5.01727e-05 1147.82L5.14759e-05 1177.63L2.00005 1177.63L2.00005 1147.82L5.01727e-05 1147.82ZM5.29962e-05 1212.41L5.42994e-05 1242.23L2.00005 1242.23L2.00005 1212.41L5.29962e-05 1212.41ZM5.58198e-05 1277.01L5.7123e-05 1306.82L2.00006 1306.82L2.00006 1277.01L5.58198e-05 1277.01ZM5.86434e-05 1341.6L5.99466e-05 1371.42L2.00006 1371.42L2.00006 1341.6L5.86434e-05 1341.6ZM6.1467e-05 1406.2L6.27702e-05 1436.01L2.00006 1436.01L2.00006 1406.2L6.1467e-05 1406.2ZM6.42905e-05 1470.8L6.55937e-05 1500.61L2.00007 1500.61L2.00006 1470.8L6.42905e-05 1470.8ZM6.71141e-05 1535.39L6.84173e-05 1565.21L2.00007 1565.21L2.00007 1535.39L6.71141e-05 1535.39ZM6.99377e-05 1599.99L7.12409e-05 1629.8L2.00007 1629.8L2.00007 1599.99L6.99377e-05 1599.99ZM7.27613e-05 1664.58L7.40644e-05 1694.4L2.00007 1694.4L2.00007 1664.58L7.27613e-05 1664.58ZM7.55848e-05 1729.18L7.6888e-05 1758.99L2.00008 1758.99L2.00008 1729.18L7.55848e-05 1729.18ZM7.84084e-05 1793.78L7.97116e-05 1823.59L2.00008 1823.59L2.00008 1793.78L7.84084e-05 1793.78ZM8.1232e-05 1858.37L8.25352e-05 1888.18L2.00008 1888.18L2.00008 1858.37L8.1232e-05 1858.37ZM8.40555e-05 1922.97L8.53587e-05 1952.78L2.00009 1952.78L2.00008 1922.97L8.40555e-05 1922.97ZM8.68791e-05 1987.56L8.81823e-05 2017.38L2.00009 2017.38L2.00009 1987.56L8.68791e-05 1987.56ZM8.97027e-05 2052.16L9.10059e-05 2081.97L2.00009 2081.97L2.00009 2052.16L8.97027e-05 2052.16ZM9.25263e-05 2116.75L9.38295e-05 2146.57L2.00009 2146.57L2.00009 2116.75L9.25263e-05 2116.75ZM9.53498e-05 2181.35L9.6653e-05 2211.16L2.0001 2211.16L2.0001 2181.35L9.53498e-05 2181.35ZM9.81734e-05 2245.95L9.94766e-05 2275.76L2.0001 2275.76L2.0001 2245.95L9.81734e-05 2245.95ZM0.000100997 2310.54L0.0001023 2340.35L2.0001 2340.35L2.0001 2310.54L0.000100997 2310.54ZM0.000103821 2375.14L0.000105124 2404.95L2.00011 2404.95L2.0001 2375.14L0.000103821 2375.14ZM0.000106644 2439.73L0.000107947 2469.55L2.00011 2469.55L2.00011 2439.73L0.000106644 2439.73ZM0.000109468 2504.33L0.000110771 2534.14L2.00011 2534.14L2.00011 2504.33L0.000109468 2504.33ZM0.000112291 2568.92L0.000113594 2598.74L2.00011 2598.74L2.00011 2568.92L0.000112291 2568.92ZM0.000115115 2633.52L0.000116418 2663.33L2.00012 2663.33L2.00012 2633.52L0.000115115 2633.52ZM0.000117938 2698.12L0.000119242 2727.93L2.00012 2727.93L2.00012 2698.12L0.000117938 2698.12ZM0.000120762 2762.71L0.000122065 2792.52L2.00012 2792.52L2.00012 2762.71L0.000120762 2762.71ZM0.000123586 2827.31L0.000124889 2857.12L2.00012 2857.12L2.00012 2827.31L0.000123586 2827.31ZM0.000126409 2891.9L0.000127712 2921.72L2.00013 2921.72L2.00013 2891.9L0.000126409 2891.9ZM0.000129233 2956.5L0.000130536 2986.31L2.00013 2986.31L2.00013 2956.5L0.000129233 2956.5ZM0.000132056 3021.09L0.000132708 3036L2.00013 3036L2.00013 3021.09L0.000132056 3021.09Z" fill="white"/>
</svg>
