<svg width="548" height="541" viewBox="0 0 548 541" fill="none" xmlns="http://www.w3.org/2000/svg">
<circle cx="274" cy="270.5" r="160" fill="url(#paint0_radial_970_18555)" fill-opacity="0.5"/>
<path d="M511.451 179.611C511.707 179.508 511.832 179.217 511.729 178.961C511.625 178.705 511.334 178.58 511.078 178.683L511.451 179.611ZM40.5811 368.706L511.451 179.611L511.078 178.683L40.2079 367.778L40.5811 368.706Z" fill="#D6D7DB"/>
<path d="M531.233 274.193C531.51 274.193 531.733 273.969 531.733 273.693C531.733 273.417 531.51 273.193 531.233 273.193L531.233 274.193ZM20.4219 274.193L531.233 274.193L531.233 273.193L20.4219 273.193L20.4219 274.193Z" fill="#D6D7DB"/>
<path d="M276.328 40.963C276.328 40.6869 276.104 40.463 275.828 40.463C275.552 40.463 275.328 40.6869 275.328 40.963L276.328 40.963ZM276.328 506.43L276.328 40.963L275.328 40.963L275.328 506.43L276.328 506.43Z" fill="#D6D7DB"/>
<path d="M138.967 506.712C138.828 506.95 138.918 507.236 139.17 507.35C139.421 507.464 139.738 507.364 139.877 507.125L138.967 506.712ZM411.779 40.2537L138.967 506.712L139.877 507.125L412.69 40.6677L411.779 40.2537Z" fill="#D6D7DB"/>
<path d="M200.089 20.8988C200.01 20.6345 199.727 20.472 199.459 20.5359C199.19 20.5998 199.037 20.866 199.117 21.1304L200.089 20.8988ZM352.537 526.263L200.089 20.8988L199.117 21.1304L351.564 526.495L352.537 526.263Z" fill="#D6D7DB"/>
<path d="M143.634 48.586C143.494 48.3481 143.187 48.2689 142.949 48.409C142.711 48.5491 142.632 48.8555 142.772 49.0933L143.634 48.586ZM408.882 498.299L143.634 48.586L142.772 49.0933L408.02 498.806L408.882 498.299Z" fill="#D6D7DB"/>
<path d="M464.199 86.1996C464.394 86.0044 464.394 85.688 464.199 85.4928C464.003 85.2977 463.687 85.2976 463.491 85.4928L464.199 86.1996ZM88.1623 461.898L464.199 86.1996L463.491 85.4928L87.4549 461.191L88.1623 461.898Z" fill="#D6D7DB"/>
<path d="M88.1632 85.4928C87.9678 85.2976 87.6511 85.2977 87.4557 85.4928C87.2604 85.688 87.2604 86.0044 87.4557 86.1996L88.1632 85.4928ZM464.199 461.191L88.1632 85.4928L87.4557 86.1996L463.492 461.898L464.199 461.191Z" fill="#D6D7DB"/>
<path d="M338.725 41.0923C338.797 40.8256 338.638 40.5515 338.372 40.4801C338.105 40.4086 337.831 40.567 337.759 40.8337L338.725 41.0923ZM213.891 506.56L338.725 41.0923L337.759 40.8337L212.925 506.301L213.891 506.56Z" fill="#D6D7DB"/>
<path d="M26.3827 202.562C26.1171 202.486 25.8406 202.641 25.7652 202.906C25.6899 203.172 25.8442 203.448 26.1099 203.524L26.3827 202.562ZM525.547 343.864L26.3827 202.562L26.1099 203.524L525.274 344.826L525.547 343.864Z" fill="#D6D7DB"/>
<path d="M43.1383 136.948C42.9 136.809 42.5936 136.889 42.4539 137.127C42.3143 137.365 42.3943 137.671 42.6326 137.811L43.1383 136.948ZM509.024 409.579L43.1383 136.948L42.6326 137.811L508.519 410.442L509.024 409.579Z" fill="#D6D7DB"/>
<rect x="181.695" y="3.5" width="35.0136" height="35.0151" rx="17.5068" fill="#77B431"/>
<rect x="181.695" y="3.5" width="35.0136" height="35.0151" rx="17.5068" stroke="white" stroke-width="4"/>
<rect x="260.143" y="20.832" width="30.4527" height="30.4541" rx="15.2264" fill="#24A1A3"/>
<rect x="260.143" y="20.832" width="30.4527" height="30.4541" rx="15.2264" stroke="white" stroke-width="4"/>
<rect x="322.17" y="25.3931" width="30.4527" height="30.4541" rx="15.2264" fill="#22398E"/>
<rect x="322.17" y="25.3931" width="30.4527" height="30.4541" rx="15.2264" stroke="white" stroke-width="4"/>
<rect x="402.439" y="30.8665" width="20.4189" height="20.4189" rx="10.2095" fill="#E68000"/>
<rect x="402.439" y="30.8665" width="20.4189" height="20.4189" rx="10.2095" stroke="white" stroke-width="4"/>
<rect x="452.607" y="74.6526" width="22.2433" height="22.2433" rx="11.1216" fill="#004A93"/>
<rect x="452.607" y="74.6526" width="22.2433" height="22.2433" rx="11.1216" stroke="white" stroke-width="4"/>
<rect x="490.92" y="158.577" width="40.4865" height="40.4884" rx="20.2433" fill="#E81D25"/>
<rect x="490.92" y="158.577" width="40.4865" height="40.4884" rx="20.2433" stroke="white" stroke-width="4"/>
<rect x="521.936" y="264.396" width="19.5068" height="19.5068" rx="9.75339" fill="#5C2870"/>
<rect x="521.936" y="264.396" width="19.5068" height="19.5068" rx="9.75339" stroke="white" stroke-width="4"/>
<rect x="509.162" y="325.514" width="36.8379" height="36.8396" rx="18.4189" fill="#BCBE00"/>
<rect x="509.162" y="325.514" width="36.8379" height="36.8396" rx="18.4189" stroke="white" stroke-width="4"/>
<rect x="497.305" y="398.492" width="22.2433" height="22.2433" rx="11.1216" fill="#2E2A7F"/>
<rect x="497.305" y="398.492" width="22.2433" height="22.2433" rx="11.1216" stroke="white" stroke-width="4"/>
<rect x="397.879" y="487.89" width="20.4189" height="20.4189" rx="10.2095" fill="#C7D401"/>
<rect x="397.879" y="487.89" width="20.4189" height="20.4189" rx="10.2095" stroke="white" stroke-width="4"/>
<rect x="341.324" y="515.257" width="22.2433" height="22.2433" rx="11.1216" fill="#231F20"/>
<rect x="341.324" y="515.257" width="22.2433" height="22.2433" rx="11.1216" stroke="white" stroke-width="4"/>
<rect x="266.527" y="496.1" width="18.5946" height="18.5946" rx="9.29731" fill="url(#paint1_linear_970_18555)"/>
<rect x="266.527" y="496.1" width="18.5946" height="18.5946" rx="9.29731" stroke="white" stroke-width="4"/>
<rect x="203.59" y="496.1" width="20.4189" height="20.4189" rx="10.2095" fill="#E03C31"/>
<rect x="203.59" y="496.1" width="20.4189" height="20.4189" rx="10.2095" stroke="white" stroke-width="4"/>
<rect x="123.318" y="491.539" width="31.3649" height="31.3663" rx="15.6825" fill="#004680"/>
<rect x="123.318" y="491.539" width="31.3649" height="31.3663" rx="15.6825" stroke="white" stroke-width="4"/>
<rect x="77.709" y="451.401" width="20.4189" height="20.4189" rx="10.2095" fill="#84BD00"/>
<rect x="77.709" y="451.401" width="20.4189" height="20.4189" rx="10.2095" stroke="white" stroke-width="4"/>
<rect x="31.1895" y="358.354" width="18.5946" height="18.5946" rx="9.29731" fill="#26318B"/>
<rect x="31.1895" y="358.354" width="18.5946" height="18.5946" rx="9.29731" stroke="white" stroke-width="4"/>
<rect x="2" y="255.273" width="36.8379" height="36.8396" rx="18.4189" fill="#AFBC21"/>
<rect x="2" y="255.273" width="36.8379" height="36.8396" rx="18.4189" stroke="white" stroke-width="4"/>
<rect x="33.0137" y="127.562" width="20.4189" height="20.4189" rx="10.2095" fill="#008BCB"/>
<rect x="33.0137" y="127.562" width="20.4189" height="20.4189" rx="10.2095" stroke="white" stroke-width="4"/>
<rect x="67.6738" y="65.5305" width="40.4865" height="40.4884" rx="20.2433" fill="#FFDD00"/>
<rect x="67.6738" y="65.5305" width="40.4865" height="40.4884" rx="20.2433" stroke="white" stroke-width="4"/>
<rect x="129.701" y="35.4275" width="27.7162" height="27.7175" rx="13.8581" fill="#EE8016"/>
<rect x="129.701" y="35.4275" width="27.7162" height="27.7175" rx="13.8581" stroke="white" stroke-width="4"/>
<rect x="443.486" y="441.366" width="40.4865" height="40.4884" rx="20.2433" fill="#0071B8"/>
<rect x="443.486" y="441.366" width="40.4865" height="40.4884" rx="20.2433" stroke="white" stroke-width="4"/>
<rect x="12.9453" y="190.505" width="25.8919" height="25.893" rx="12.946" fill="#3558A2"/>
<rect x="12.9453" y="190.505" width="25.8919" height="25.893" rx="12.946" stroke="white" stroke-width="4"/>
<g clip-path="url(#clip0_970_18555)" filter="url(#filter0_d_970_18555)">
<path d="M208.674 280.701L208.674 280.701C208.123 269.979 208.858 257.505 211.174 246.243C213.495 234.961 217.385 224.978 223.085 219.154C227.66 214.479 235.135 210.934 244.128 208.559C253.109 206.188 263.55 205 274 205C284.45 205 294.891 206.188 303.872 208.559C312.865 210.934 320.34 214.479 324.915 219.154L324.917 219.156C330.615 224.916 334.505 234.898 336.826 246.196C339.142 257.474 339.877 269.979 339.326 280.701C339.02 286.611 338.178 295.01 335.981 303.102C333.779 311.209 330.238 318.928 324.587 323.566C319.575 327.668 311.984 330.782 303.091 332.868C294.208 334.952 284.069 336 274 336C263.93 336 253.791 334.983 244.908 332.915C236.015 330.845 228.426 327.731 223.416 323.568L223.413 323.566C217.762 318.928 214.22 311.255 212.019 303.173C209.822 295.104 208.98 286.705 208.674 280.701Z" fill="white" stroke="#F4F4F4"/>
<path fill-rule="evenodd" clip-rule="evenodd" d="M274.002 238.439C253.532 238.439 236.937 254.558 236.937 274.441C236.937 284.413 241.11 293.437 247.854 299.954C248.287 300.372 249.026 300.273 249.323 299.754C252.482 294.211 258.02 289.875 264.778 287.765C260.368 284.879 257.469 279.987 257.469 274.438C257.469 265.567 264.871 258.38 274.002 258.38C283.133 258.38 290.534 265.567 290.534 274.438C290.534 279.987 287.632 284.879 283.225 287.765C289.984 289.875 295.522 294.211 298.681 299.754C298.974 300.273 299.716 300.372 300.147 299.954C306.89 293.437 311.067 284.413 311.067 274.441C311.067 254.558 294.472 238.439 274.002 238.439Z" fill="#315EFD"/>
</g>
<defs>
<filter id="filter0_d_970_18555" x="168" y="184.5" width="212" height="212" filterUnits="userSpaceOnUse" color-interpolation-filters="sRGB">
<feFlood flood-opacity="0" result="BackgroundImageFix"/>
<feColorMatrix in="SourceAlpha" type="matrix" values="0 0 0 0 0 0 0 0 0 0 0 0 0 0 0 0 0 0 127 0" result="hardAlpha"/>
<feOffset dy="20"/>
<feGaussianBlur stdDeviation="20"/>
<feColorMatrix type="matrix" values="0 0 0 0 0.2 0 0 0 0 0.2 0 0 0 0 0.2 0 0 0 0.08 0"/>
<feBlend mode="normal" in2="BackgroundImageFix" result="effect1_dropShadow_970_18555"/>
<feBlend mode="normal" in="SourceGraphic" in2="effect1_dropShadow_970_18555" result="shape"/>
</filter>
<radialGradient id="paint0_radial_970_18555" cx="0" cy="0" r="1" gradientUnits="userSpaceOnUse" gradientTransform="translate(274 270.5) rotate(90) scale(160)">
<stop stop-color="#DEDEDE"/>
<stop offset="1" stop-color="white" stop-opacity="0"/>
</radialGradient>
<linearGradient id="paint1_linear_970_18555" x1="273.455" y1="495.188" x2="273.455" y2="508.149" gradientUnits="userSpaceOnUse">
<stop stop-color="#00BDF2"/>
<stop offset="0.1" stop-color="#00BDF2"/>
<stop offset="0.27" stop-color="#25C0C8"/>
<stop offset="0.6" stop-color="#6AC77B"/>
<stop offset="0.83" stop-color="#95CC4B"/>
<stop offset="0.95" stop-color="#A6CE39"/>
<stop offset="1" stop-color="#A6CE39"/>
</linearGradient>
<clipPath id="clip0_970_18555">
<rect width="132" height="132" fill="white" transform="translate(208 204.5)"/>
</clipPath>
</defs>
</svg>
