<svg width="48" height="48" viewBox="0 0 48 48" fill="none" xmlns="http://www.w3.org/2000/svg">
<path d="M5.35548 5.20152C1.13534 9.51331 -0.338357 19.8935 0.0635609 27.7186C0.286849 32.0989 1.29164 39.9924 5.48945 43.4373C9.19603 46.5171 16.6538 48 24 48C31.3462 48 38.804 46.4715 42.5105 43.4373C46.7084 39.9924 47.7131 32.0304 47.9364 27.7186C48.3384 19.8935 46.8647 9.46768 42.6445 5.20152C35.8566 -1.73384 12.1434 -1.73384 5.35548 5.20152Z" fill="#9A169C"/>
<path d="M32.1773 13.6359H29.7023L27.4805 13.0875C27.4101 11.3438 25.9617 9.9375 24.2039 9.9375C22.4602 9.9375 21.0258 11.3016 20.9273 13.0312L18.4523 13.6359H15.9773C14.6414 13.6359 13.5586 14.7188 13.5586 16.0547V35.6438C13.5586 36.9797 14.6414 38.0625 15.9773 38.0625H32.1773C33.5133 38.0625 34.5961 36.9797 34.5961 35.6438V16.0547C34.5961 14.7188 33.5133 13.6359 32.1773 13.6359ZM21.9539 13.3828C21.9539 13.3547 21.9398 13.3125 21.9398 13.2844C21.9398 13.2703 21.9258 13.2422 21.9258 13.2281C21.9258 11.9906 22.9383 10.9781 24.1758 10.9781C25.4133 10.9781 26.4258 11.9906 26.4258 13.2281C26.4258 13.2563 26.4258 13.2844 26.4117 13.3266C26.4117 13.3688 26.3977 13.4109 26.3977 13.4531C26.3836 13.7062 26.5383 13.9313 26.7914 13.9875L29.1398 14.5641V15.9985C29.1398 16.7297 28.5211 17.3203 27.7477 17.3203H20.3648C19.5914 17.3203 18.9727 16.7297 18.9727 15.9985V14.5641L21.5461 13.9453C21.8133 13.875 21.982 13.6359 21.9539 13.3828ZM33.5695 35.6438C33.5695 36.4172 32.9508 37.0359 32.1773 37.0359H15.9773C15.2039 37.0359 14.5852 36.4172 14.5852 35.6438V16.0547C14.5852 15.2812 15.2039 14.6625 15.9773 14.6625H17.9602V15.9985C17.9602 17.2922 19.043 18.3609 20.3789 18.3609H27.7617C29.0976 18.3609 30.1805 17.3063 30.1805 15.9985V14.6625H32.1633C32.9367 14.6625 33.5555 15.2812 33.5555 16.0547L33.5695 35.6438Z" fill="white" stroke="white" stroke-width="0.25"/>
<path d="M24.1906 14.6059C24.95 14.6059 25.5687 13.9871 25.5687 13.2277C25.5687 12.4683 24.95 11.8496 24.1906 11.8496C23.4313 11.8496 22.8125 12.4683 22.8125 13.2277C22.8125 13.9871 23.4313 14.6059 24.1906 14.6059ZM24.1906 12.8762C24.3875 12.8762 24.5422 13.0308 24.5422 13.2277C24.5422 13.4246 24.3875 13.5793 24.1906 13.5793C23.9938 13.5793 23.8391 13.4246 23.8391 13.2277C23.8531 13.0308 24.0078 12.8762 24.1906 12.8762Z" fill="white" stroke="white" stroke-width="0.1"/>
<path d="M22.7406 20.1328H16.9187C16.6375 20.1328 16.3984 20.3578 16.3984 20.6531C16.3984 20.9344 16.6234 21.1734 16.9187 21.1734H22.7406C23.0219 21.1734 23.2609 20.9484 23.2609 20.6531C23.2609 20.3578 23.0359 20.1328 22.7406 20.1328Z" fill="white" stroke="white" stroke-width="0.25"/>
<path d="M22.7406 22.9453H16.9187C16.6375 22.9453 16.3984 23.1703 16.3984 23.4656C16.3984 23.7609 16.6234 23.9859 16.9187 23.9859H22.7406C23.0219 23.9859 23.2609 23.7609 23.2609 23.4656C23.2609 23.1703 23.0359 22.9453 22.7406 22.9453Z" fill="white" stroke="white" stroke-width="0.25"/>
<path d="M22.7406 25.7432H16.9187C16.6375 25.7432 16.3984 25.9682 16.3984 26.2635C16.3984 26.5447 16.6234 26.7838 16.9187 26.7838H22.7406C23.0219 26.7838 23.2609 26.5588 23.2609 26.2635C23.2609 25.9822 23.0359 25.7432 22.7406 25.7432Z" fill="white" stroke="white" stroke-width="0.25"/>
<path d="M22.7406 28.5557H16.9187C16.6375 28.5557 16.3984 28.7807 16.3984 29.076C16.3984 29.3572 16.6234 29.5963 16.9187 29.5963H22.7406C23.0219 29.5963 23.2609 29.3713 23.2609 29.076C23.2609 28.7807 23.0359 28.5557 22.7406 28.5557Z" fill="white" stroke="white" stroke-width="0.25"/>
<path d="M22.7406 31.3682H16.9187C16.6375 31.3682 16.3984 31.5932 16.3984 31.8885C16.3984 32.1697 16.6234 32.4088 16.9187 32.4088H22.7406C23.0219 32.4088 23.2609 32.1838 23.2609 31.8885C23.2609 31.5932 23.0359 31.3682 22.7406 31.3682Z" fill="white" stroke="white" stroke-width="0.25"/>
<path d="M22.7406 34.1807H16.9187C16.6375 34.1807 16.3984 34.4057 16.3984 34.701C16.3984 34.9963 16.6234 35.2213 16.9187 35.2213H22.7406C23.0219 35.2213 23.2609 34.9963 23.2609 34.701C23.2609 34.4057 23.0359 34.1807 22.7406 34.1807Z" fill="white" stroke="white" stroke-width="0.25"/>
<path d="M30.7141 20.3723L27.4375 23.6488L26.1016 22.3129C25.9047 22.116 25.5813 22.116 25.3703 22.3129C25.1734 22.5098 25.1734 22.8332 25.3703 23.0441L27.0719 24.7457C27.1703 24.8441 27.2969 24.9004 27.4375 24.9004C27.5641 24.9004 27.7047 24.8441 27.8031 24.7457L31.4453 21.1035C31.6422 20.9066 31.6422 20.5832 31.4453 20.3723C31.2484 20.1754 30.925 20.1754 30.7141 20.3723Z" fill="white" stroke="white" stroke-width="0.25"/>
<path d="M31.0235 29.2734C30.8266 29.0765 30.5031 29.0765 30.2922 29.2734L28.4078 31.1578L26.5234 29.2734C26.3266 29.0765 26.0031 29.0765 25.7922 29.2734C25.5953 29.4703 25.5953 29.7937 25.7922 30.0046L27.6766 31.889L25.7922 33.7734C25.5953 33.9703 25.5953 34.2937 25.7922 34.5046C25.8906 34.6031 26.0313 34.6593 26.1578 34.6593C26.2844 34.6593 26.425 34.6031 26.5234 34.5046L28.4078 32.6203L30.2922 34.5046C30.3906 34.6031 30.5313 34.6593 30.6578 34.6593C30.7844 34.6593 30.925 34.6031 31.0235 34.5046C31.2203 34.3078 31.2203 33.9843 31.0235 33.7734L29.1391 31.889L31.0235 30.0046C31.2203 29.7937 31.2203 29.4703 31.0235 29.2734Z" fill="white" stroke="white" stroke-width="0.25"/>
</svg>
