<svg width="72" height="72" viewBox="0 0 72 72" fill="none" xmlns="http://www.w3.org/2000/svg">
<path d="M8.03322 7.80228C1.70301 14.27 -0.507535 29.8403 0.0953414 41.5779C0.430273 48.1483 1.93747 59.9886 8.23418 65.1559C13.794 69.7757 24.9808 72 36 72C47.0192 72 58.206 69.7072 63.7658 65.1559C70.0625 59.9886 71.5697 48.0456 71.9047 41.5779C72.5075 29.8403 70.297 14.2015 63.9668 7.80228C53.7849 -2.60076 18.2151 -2.60076 8.03322 7.80228Z" fill="white"/>
<path d="M46.9012 22.1815H43.6012L40.6387 21.4502C40.5449 19.1252 38.6137 17.2502 36.2699 17.2502C33.9449 17.2502 32.0324 19.069 31.9012 21.3752L28.6012 22.1815H25.3012C23.5199 22.1815 22.0762 23.6252 22.0762 25.4065V51.5253C22.0762 53.3065 23.5199 54.7503 25.3012 54.7503H46.9012C48.6824 54.7503 50.1262 53.3065 50.1262 51.5253V25.4065C50.1262 23.6252 48.6824 22.1815 46.9012 22.1815ZM33.2699 21.844C33.2699 21.8065 33.2512 21.7503 33.2512 21.7128C33.2512 21.694 33.2324 21.6565 33.2324 21.6377C33.2324 19.9877 34.5824 18.6377 36.2324 18.6377C37.8824 18.6377 39.2324 19.9877 39.2324 21.6377C39.2324 21.6752 39.2324 21.7128 39.2137 21.769C39.2137 21.8253 39.1949 21.8815 39.1949 21.9377C39.1762 22.2752 39.3824 22.5753 39.7199 22.6503L42.8512 23.419V25.3315C42.8512 26.3065 42.0262 27.094 40.9949 27.094H31.1512C30.1199 27.094 29.2949 26.3065 29.2949 25.3315V23.419L32.7262 22.594C33.0824 22.5002 33.3074 22.1815 33.2699 21.844ZM48.7574 51.5253C48.7574 52.5565 47.9324 53.3815 46.9012 53.3815H25.3012C24.2699 53.3815 23.4449 52.5565 23.4449 51.5253V25.4065C23.4449 24.3752 24.2699 23.5503 25.3012 23.5503H27.9449V25.3315C27.9449 27.0565 29.3887 28.4815 31.1699 28.4815H41.0137C42.7949 28.4815 44.2387 27.0753 44.2387 25.3315V23.5503H46.8824C47.9137 23.5503 48.7387 24.3752 48.7387 25.4065L48.7574 51.5253Z" fill="black" stroke="black" stroke-width="0.290323"/>
<path d="M36.2535 23.4748C37.266 23.4748 38.091 22.6498 38.091 21.6373C38.091 20.6248 37.266 19.7998 36.2535 19.7998C35.241 19.7998 34.416 20.6248 34.416 21.6373C34.416 22.6498 35.241 23.4748 36.2535 23.4748ZM36.2535 21.1685C36.516 21.1685 36.7223 21.3748 36.7223 21.6373C36.7223 21.8998 36.516 22.106 36.2535 22.106C35.991 22.106 35.7848 21.8998 35.7848 21.6373C35.8035 21.3748 36.0098 21.1685 36.2535 21.1685Z" fill="black" stroke="black" stroke-width="0.116129"/>
<path d="M34.3195 30.8435H26.557C26.182 30.8435 25.8633 31.1435 25.8633 31.5373C25.8633 31.9123 26.1633 32.231 26.557 32.231H34.3195C34.6945 32.231 35.0133 31.931 35.0133 31.5373C35.0133 31.1435 34.7133 30.8435 34.3195 30.8435Z" fill="black" stroke="black" stroke-width="0.290323"/>
<path d="M34.3195 34.5933H26.557C26.182 34.5933 25.8633 34.8933 25.8633 35.287C25.8633 35.6808 26.1633 35.9808 26.557 35.9808H34.3195C34.6945 35.9808 35.0133 35.6808 35.0133 35.287C35.0133 34.8933 34.7133 34.5933 34.3195 34.5933Z" fill="black" stroke="black" stroke-width="0.290323"/>
<path d="M34.3195 38.324H26.557C26.182 38.324 25.8633 38.624 25.8633 39.0177C25.8633 39.3927 26.1633 39.7115 26.557 39.7115H34.3195C34.6945 39.7115 35.0133 39.4115 35.0133 39.0177C35.0133 38.6427 34.7133 38.324 34.3195 38.324Z" fill="black" stroke="black" stroke-width="0.290323"/>
<path d="M34.3195 42.0752H26.557C26.182 42.0752 25.8633 42.3752 25.8633 42.769C25.8633 43.144 26.1633 43.4627 26.557 43.4627H34.3195C34.6945 43.4627 35.0133 43.1627 35.0133 42.769C35.0133 42.3752 34.7133 42.0752 34.3195 42.0752Z" fill="black" stroke="black" stroke-width="0.290323"/>
<path d="M34.3195 45.8242H26.557C26.182 45.8242 25.8633 46.1242 25.8633 46.518C25.8633 46.893 26.1633 47.2117 26.557 47.2117H34.3195C34.6945 47.2117 35.0133 46.9117 35.0133 46.518C35.0133 46.1242 34.7133 45.8242 34.3195 45.8242Z" fill="black" stroke="black" stroke-width="0.290323"/>
<path d="M34.3195 49.574H26.557C26.182 49.574 25.8633 49.874 25.8633 50.2677C25.8633 50.6615 26.1633 50.9615 26.557 50.9615H34.3195C34.6945 50.9615 35.0133 50.6615 35.0133 50.2677C35.0133 49.874 34.7133 49.574 34.3195 49.574Z" fill="black" stroke="black" stroke-width="0.290323"/>
<path d="M44.9547 31.1632L40.586 35.5319L38.8047 33.7507C38.5422 33.4882 38.1109 33.4882 37.8297 33.7507C37.5672 34.0132 37.5672 34.4444 37.8297 34.7257L40.0985 36.9944C40.2297 37.1257 40.3985 37.2007 40.586 37.2007C40.7547 37.2007 40.9422 37.1257 41.0734 36.9944L45.9297 32.1382C46.1922 31.8757 46.1922 31.4444 45.9297 31.1632C45.6672 30.9007 45.2359 30.9007 44.9547 31.1632Z" fill="black" stroke="black" stroke-width="0.290323"/>
<path d="M45.3574 43.0316C45.0949 42.7691 44.6637 42.7691 44.3824 43.0316L41.8699 45.5441L39.3574 43.0316C39.0949 42.7691 38.6637 42.7691 38.3824 43.0316C38.1199 43.2941 38.1199 43.7254 38.3824 44.0066L40.8949 46.5191L38.3824 49.0316C38.1199 49.2941 38.1199 49.7254 38.3824 50.0066C38.5137 50.1379 38.7012 50.2128 38.8699 50.2128C39.0387 50.2128 39.2262 50.1379 39.3574 50.0066L41.8699 47.4941L44.3824 50.0066C44.5137 50.1379 44.7012 50.2128 44.8699 50.2128C45.0387 50.2128 45.2262 50.1379 45.3574 50.0066C45.6199 49.7441 45.6199 49.3128 45.3574 49.0316L42.8449 46.5191L45.3574 44.0066C45.6199 43.7254 45.6199 43.2941 45.3574 43.0316Z" fill="black" stroke="black" stroke-width="0.290323"/>
</svg>
