<svg width="40" height="40" fill="none" xmlns="http://www.w3.org/2000/svg"><path fill="#fff" d="M0 0h40v40H0z"/><path fill-rule="evenodd" clip-rule="evenodd" d="M12.255 18.178h15.489v8.2h-15.49v-8.2Zm5.011-2.734h1.367v-.455h2.733v.455h1.367v-1.822h-5.467v1.822Z" fill="#CEE4F9"/><path fill-rule="evenodd" clip-rule="evenodd" d="M11.8 17.722v-2.277h16.4v2.277c-.008 4.145-16.4 4.862-16.4 0Z" fill="#ED133C"/><path d="M20 23.19a2.278 2.278 0 1 0 0-4.556 2.278 2.278 0 0 0 0 4.555Z" fill="#fff"/><path d="M20 21.823A.911.911 0 1 0 20 20a.911.911 0 0 0 0 1.823Z" fill="#004195"/></svg>