<svg width="48" height="48" fill="none" xmlns="http://www.w3.org/2000/svg"><g clip-path="url(#prefix__clip0_1299_113411)"><path d="M5.355 5.202C1.135 9.513-.338 19.893.064 27.719c.223 4.38 1.228 12.273 5.425 15.718C9.196 46.517 16.654 48 24 48s14.804-1.529 18.51-4.563c4.198-3.445 5.203-11.407 5.426-15.718.402-7.826-1.071-18.251-5.291-22.517-6.788-6.936-30.502-6.936-37.29 0z" fill="#001480"/><g clip-path="url(#prefix__clip1_1299_113411)"><path d="M38.983 28.863a.79.79 0 01-.776.792h-2.312c-.84 0-1.6-.618-1.663-1.441-.048-.491.142-.95.459-1.267.285-.301.681-.46 1.109-.46h2.391c.46.016.792.365.792.792v1.584z" fill="#2CB8B8"/><path d="M32.647 28.91c.411 1.474 1.853 2.408 3.373 2.408h1.378c.871 0 1.584.713 1.584 1.584v.3c0 3.28-2.677 5.956-5.955 5.956H14.844c-3.278 0-5.955-2.677-5.955-5.955v-10.66c0-1.947.934-3.674 2.376-4.75a5.87 5.87 0 013.58-1.205h18.182c3.278 0 5.955 2.677 5.955 5.956v.697c0 .87-.713 1.583-1.584 1.583h-1.615c-.887 0-1.695.349-2.281.95a3.199 3.199 0 00-.855 3.137z" fill="#fff"/><path d="M30.128 14.402l-12.164-.016c-.697 0-1.061-.855-.554-1.346l2.566-2.582a5.583 5.583 0 017.855 0l2.772 2.803c.016.016.048.032.063.048.428.427.064 1.093-.538 1.093z" fill="#18E3E2"/><path d="M25.128 30.045h-1.805a.226.226 0 00-.226.225v1.805c0 .125.101.226.226.226h1.805a.226.226 0 00.225-.226V30.27c0-.124-.1-.225-.226-.225zM22.872 28.24H21.52a.226.226 0 00-.225.226v1.354c0 .124.1.225.225.225h1.353a.226.226 0 00.226-.225v-1.354a.226.226 0 00-.226-.225zM26.933 32.3h-1.354a.225.225 0 00-.225.226v1.354c0 .124.1.225.225.225h1.354a.226.226 0 00.225-.225v-1.354a.226.226 0 00-.225-.225zM26.932 28.24h-.902a.226.226 0 00-.226.226v.902c0 .125.1.226.226.226h.902a.226.226 0 00.225-.226v-.902a.226.226 0 00-.225-.225zM22.421 32.752h-.902c-.125 0-.225.1-.225.225v.903c0 .124.1.225.225.225h.902a.226.226 0 00.226-.225v-.903a.225.225 0 00-.226-.225zM26.256 21.474h-4.06a.902.902 0 00-.902.902v4.06a.902.902 0 00.902.902h4.06a.902.902 0 00.902-.902v-4.06a.902.902 0 00-.902-.902zm-.902 3.834a.226.226 0 01-.226.226h-1.805a.226.226 0 01-.225-.226v-1.804a.226.226 0 01.226-.226h1.804a.225.225 0 01.226.226v1.804zM19.489 21.474h-4.06a.902.902 0 00-.903.902v4.06a.902.902 0 00.903.902h4.06a.902.902 0 00.902-.902v-4.06a.902.902 0 00-.902-.902zm-.902 3.834a.226.226 0 01-.226.226h-1.805a.226.226 0 01-.225-.226v-1.804a.226.226 0 01.225-.226h1.805a.225.225 0 01.226.226v1.804zM19.489 28.24h-4.06a.902.902 0 00-.903.903v4.06a.902.902 0 00.903.902h4.06a.902.902 0 00.902-.902v-4.06a.902.902 0 00-.902-.902zm-.902 3.835a.226.226 0 01-.226.226h-1.805a.226.226 0 01-.225-.226v-1.804a.226.226 0 01.225-.226h1.805a.225.225 0 01.226.226v1.804z" fill="#001480"/></g></g><defs><clipPath id="prefix__clip0_1299_113411"><rect width="48" height="48" rx="12.632" fill="#fff"/></clipPath><clipPath id="prefix__clip1_1299_113411"><path fill="#fff" transform="translate(8.842 8.842)" d="M0 0h30.316v30.316H0z"/></clipPath></defs></svg>