<svg width="48" height="48" fill="none" xmlns="http://www.w3.org/2000/svg"><g clip-path="url(#prefix__clip0_1299_113483)"><path d="M5.355 5.202C1.135 9.513-.338 19.893.064 27.719c.223 4.38 1.228 12.273 5.425 15.718C9.196 46.517 16.654 48 24 48s14.804-1.529 18.51-4.563c4.198-3.445 5.203-11.407 5.426-15.718.402-7.826-1.071-18.251-5.291-22.517-6.788-6.936-30.502-6.936-37.29 0z" fill="#9A169C"/><path d="M11.644 17.221v5.311l17.872-5.441v-5.5c0-1.577-1.303-2.749-2.75-2.749-.318 0-.651.058-.97.174l-11.49 4.341a4.12 4.12 0 00-2.662 3.864z" fill="#650049"/><rect x="10.412" y="28.421" width="10.105" height="10.105" rx="5.053" fill="#fff"/><rect x="17.991" y="20.211" width="13.263" height="5.684" rx="2.842" fill="#9A169C"/><path fill-rule="evenodd" clip-rule="evenodd" d="M37.692 24.615c.796 0 1.447-.651 1.447-1.447v-.637a5.453 5.453 0 00-5.441-5.441H17.085c-1.23 0-2.359.405-3.27 1.1a5.406 5.406 0 00-2.171 4.341v2.576c0 .55.579.897 1.1.723a7.855 7.855 0 012.518-.42c4.384 0 7.959 3.575 7.959 7.96 0 1.042-.275 2.185-.71 3.198-.23.52.13 1.143.695 1.143h10.492a5.453 5.453 0 005.44-5.441v-.275c0-.796-.65-1.447-1.446-1.447h-1.26c-1.388 0-2.72-.854-3.082-2.2-.289-1.1.058-2.17.782-2.865a2.884 2.884 0 012.084-.868h1.476zm-16.642-.29a1.093 1.093 0 01-1.085-1.085c0-.593.492-1.085 1.085-1.085h7.236c.593 0 1.085.492 1.085 1.085s-.492 1.085-1.085 1.085H21.05z" fill="#fff"/><path fill-rule="evenodd" clip-rule="evenodd" d="M11.643 28.855a5.746 5.746 0 00-2.171 4.515c0 1.085.304 2.112.84 2.98a5.745 5.745 0 004.948 2.808 5.651 5.651 0 003.806-1.447c.449-.376.84-.84 1.143-1.36.536-.869.84-1.896.84-2.981a5.787 5.787 0 00-9.406-4.515zm3.53 6.743c-.202.188-.477.29-.738.29-.274 0-.55-.102-.767-.319l-1.432-1.433a1.092 1.092 0 010-1.534c.42-.42 1.114-.42 1.534 0l.694.695 2.316-2.142a1.093 1.093 0 011.534.058 1.093 1.093 0 01-.058 1.534l-3.082 2.851z" fill="#FA9454"/><path d="M29.516 17.09h-2.171v-5.498c0-.39-.347-.579-.579-.579a.58.58 0 00-.217.043l-11.476 4.327a1.944 1.944 0 00-1.258 1.838v.97a5.406 5.406 0 00-2.171 4.341v-5.31a4.12 4.12 0 012.662-3.865l11.49-4.341c.319-.116.652-.174.97-.174 1.447 0 2.75 1.172 2.75 2.75v5.499z" fill="#FFF5EB"/><path d="M39.14 28.305c0 .39-.304.709-.71.724h-2.112c-.767 0-1.462-.565-1.52-1.317-.043-.449.13-.869.42-1.158.26-.275.622-.42 1.013-.42h2.185c.42.015.724.333.724.724v1.447z" fill="#fff"/></g><defs><clipPath id="prefix__clip0_1299_113483"><rect width="48" height="48" rx="12.632" fill="#fff"/></clipPath></defs></svg>