<svg width="48" height="48" fill="none" xmlns="http://www.w3.org/2000/svg"><g clip-path="url(#prefix__clip0_1427_111060)"><path d="M5.355 5.202C1.135 9.513-.338 19.893.064 27.719c.223 4.38 1.228 12.273 5.425 15.718C9.196 46.517 16.654 48 24 48s14.804-1.529 18.51-4.563c4.198-3.445 5.203-11.407 5.426-15.718.402-7.826-1.071-18.251-5.291-22.517-6.788-6.936-30.502-6.936-37.29 0z" fill="#FFDA17"/><path fill-rule="evenodd" clip-rule="evenodd" d="M29.42 11.138a7.792 7.792 0 00-5.91-2.285l-8.209.394a6.347 6.347 0 00-6.057 6.033L8.85 23.5a7.877 7.877 0 002.282 5.918l7.436 7.447c3.053 3.057 8.011 3.057 11.08 0l7.207-7.217c3.07-3.041 3.07-8.006 0-11.063l-7.436-7.447zM13.166 16.11a2.949 2.949 0 012.945-2.952 2.949 2.949 0 012.944 2.952 2.949 2.949 0 01-2.944 2.952 2.949 2.949 0 01-2.944-2.952z" fill="#000"/><path d="M30.205 24.123l-1.28 1.28a.226.226 0 000 .32l1.28 1.28a.226.226 0 00.32 0l1.28-1.28a.226.226 0 000-.32l-1.28-1.28a.226.226 0 00-.32 0zM27.324 24.443l-.96.96a.226.226 0 000 .32l.96.96a.226.226 0 00.32 0l.96-.96a.226.226 0 000-.32l-.96-.96a.226.226 0 00-.32 0zM33.085 24.444l-.96.96a.226.226 0 000 .32l.96.96a.226.226 0 00.32 0l.96-.96a.227.227 0 000-.32l-.96-.96a.226.226 0 00-.32 0zM30.203 21.564l-.64.64a.226.226 0 000 .32l.64.64a.226.226 0 00.32 0l.64-.64a.226.226 0 000-.32l-.64-.64a.226.226 0 00-.32 0zM30.204 27.964l-.64.64a.226.226 0 000 .32l.64.64a.226.226 0 00.32 0l.64-.64a.227.227 0 000-.32l-.64-.64a.226.226 0 00-.32 0zM24.924 17.242l-2.88 2.88a.906.906 0 000 1.28l2.88 2.881a.905.905 0 001.28 0l2.88-2.88a.906.906 0 000-1.28l-2.88-2.88a.905.905 0 00-1.28 0zm2.08 3.36a.226.226 0 010 .32l-1.28 1.28a.226.226 0 01-.32 0l-1.28-1.28a.226.226 0 010-.32l1.28-1.28a.226.226 0 01.32 0l1.28 1.28zM20.123 22.043l-2.88 2.88a.905.905 0 000 1.28l2.88 2.881a.905.905 0 001.28 0l2.88-2.88a.906.906 0 000-1.28l-2.88-2.881a.905.905 0 00-1.28 0zm2.08 3.36a.226.226 0 010 .32l-1.28 1.28a.227.227 0 01-.32 0l-1.28-1.28a.226.226 0 010-.32l1.28-1.28a.226.226 0 01.32 0l1.28 1.28zM24.924 26.844l-2.88 2.88a.905.905 0 000 1.28l2.88 2.88a.905.905 0 001.28 0l2.88-2.88a.906.906 0 000-1.28l-2.88-2.88a.905.905 0 00-1.28 0zm2.08 3.36a.227.227 0 010 .32l-1.28 1.28a.227.227 0 01-.32 0l-1.28-1.28a.227.227 0 010-.32l1.28-1.28a.227.227 0 01.32 0l1.28 1.28z" fill="#fff"/></g><defs><clipPath id="prefix__clip0_1427_111060"><rect width="48" height="48" rx="20" fill="#fff"/></clipPath></defs></svg>