<svg width="48" height="48" fill="none" xmlns="http://www.w3.org/2000/svg"><g clip-path="url(#prefix__clip0_1299_113554)"><path d="M5.355 5.202C1.135 9.513-.338 19.893.064 27.719c.223 4.38 1.228 12.273 5.425 15.718C9.196 46.517 16.654 48 24 48s14.804-1.529 18.51-4.563c4.198-3.445 5.203-11.407 5.426-15.718.402-7.826-1.071-18.251-5.291-22.517-6.788-6.936-30.502-6.936-37.29 0z" fill="url(#prefix__paint0_linear_1299_113554)"/><path d="M33.034 13.035c-.352-.014-.703-.028-1.083-.028H21.116l1.506-1.491c1.379-1.393 2.898-2.674 4.657-2.674 1.773 0 3.293 1.28 4.672 2.674l.788.788a.946.946 0 01.295.703v.028z" fill="#EBFFED"/><path fill-rule="evenodd" clip-rule="evenodd" d="M39.158 22.307v1.238c0 .563-.436 1.013-.985 1.013a2.132 2.132 0 00-2.139 2.11 2.11 2.11 0 002.125 2.11.99.99 0 01.985 1c0 5.516-1.689 7.204-7.204 7.204H20.165a6.947 6.947 0 00.988-2.873 6.836 6.836 0 00-1.972-5.624 6.75 6.75 0 00-3.214-1.801 6.838 6.838 0 00-.61-.126 2.123 2.123 0 00-2.06-2.647.982.982 0 01-.985-1v-.604c0-5.516 1.688-7.204 7.204-7.204h12.438c5.515 0 7.204 1.674 7.204 7.204z" fill="#fff"/><path fill-rule="evenodd" clip-rule="evenodd" d="M23.075 33.563c-.549 0-.999-.45-.999-1v-3.77c0-.549.45-1 1-1 .548 0 .998.451.998 1v3.77c0 .55-.45 1-.999 1zM23.075 24.29c-.549 0-.999-.45-.999-.999v-3.77c0-.55.45-1 1-1 .548 0 .998.45.998 1v3.77c0 .55-.45 1-.999 1z" fill="#55854F"/><path fill-rule="evenodd" clip-rule="evenodd" d="M17.736 37.628a5.438 5.438 0 002.055-4.273c0-1.027-.288-2-.795-2.821a5.437 5.437 0 00-4.683-2.657 5.348 5.348 0 00-3.602 1.37 4.923 4.923 0 00-1.082 1.287 5.37 5.37 0 00-.795 2.821 5.477 5.477 0 008.902 4.273z" fill="#000"/><path fill-rule="evenodd" clip-rule="evenodd" d="M17.392 33.375a1.05 1.05 0 01-1.036 1.036l-1.017-.01.01.978a1.05 1.05 0 01-1.037 1.037 1.05 1.05 0 01-1.036-1.037l.01-.978-1.017.01a1.05 1.05 0 01-1.036-1.036 1.061 1.061 0 011.026-1.027h1.027v-1.065c0-.29.116-.542.3-.726.184-.184.436-.3.726-.3.562 0 1.027.464 1.027 1.026v1.065h1.027c.561 0 1.026.465 1.026 1.027z" fill="#fff"/></g><defs><linearGradient id="prefix__paint0_linear_1299_113554" x1="40.108" y1="0" x2=".264" y2="39.915" gradientUnits="userSpaceOnUse"><stop stop-color="#5DCB6F"/><stop offset="1" stop-color="#39B924"/></linearGradient><clipPath id="prefix__clip0_1299_113554"><rect width="48" height="48" rx="12.632" fill="#fff"/></clipPath></defs></svg>