<svg width="36" height="36" viewBox="0 0 36 36" fill="none" xmlns="http://www.w3.org/2000/svg">
<rect width="36" height="36" rx="18" fill="#00733B"/>
<g clip-path="url(#clip0_1842_19414)">
<path d="M25.515 25.003H10.9697V10.5123C10.9697 10.2443 10.7527 10.0273 10.4847 10.0273C10.217 10.0273 10 10.2443 10 10.5123V25.4877C10 25.7557 10.217 25.9727 10.485 25.9727H25.515C25.7833 25.9727 26 25.7557 26 25.4877C26 25.22 25.7833 25.003 25.515 25.003Z" fill="white"/>
<path d="M12.1728 23.7934H14.7058C14.7501 23.7934 14.7865 23.757 14.7865 23.7127V19.4027C14.7865 19.3584 14.7501 19.322 14.7058 19.322H12.1728C12.1281 19.322 12.0918 19.3584 12.0918 19.4027V23.7127C12.0918 23.757 12.1281 23.7934 12.1728 23.7934Z" fill="white"/>
<path d="M17.1005 23.7934H19.6332C19.6782 23.7934 19.7139 23.757 19.7139 23.7127V11.893C19.7139 11.8487 19.6782 11.8124 19.6332 11.8124H17.1005C17.0555 11.8124 17.0195 11.8487 17.0195 11.893V23.7127C17.0195 23.757 17.0555 23.7934 17.1005 23.7934Z" fill="white"/>
<path d="M22.0299 23.7934H24.5619C24.6066 23.7934 24.6429 23.757 24.6429 23.7127V15.092C24.6429 15.0477 24.6066 15.0114 24.5619 15.0114H22.0299C21.9852 15.0114 21.9492 15.0477 21.9492 15.092V23.7124C21.9492 23.757 21.9852 23.7934 22.0299 23.7934Z" fill="white"/>
</g>
<defs>
<clipPath id="clip0_1842_19414">
<rect width="16" height="16" fill="white" transform="translate(10 10)"/>
</clipPath>
</defs>
</svg>
