<svg width="52" height="52" viewBox="0 0 52 52" fill="none" xmlns="http://www.w3.org/2000/svg">
<rect width="52" height="52" rx="26" fill="#009EF4"/>
<path d="M33.72 18.2215H30.7273V15.5771H35.2842C35.785 15.5771 36.1893 15.1711 36.1893 14.6715V10.9056C36.1893 10.406 35.7835 10 35.2842 10H29.8223C29.3215 10 28.9172 10.406 28.9172 10.9056V18.2215H18.277C14.3672 18.2215 11.1875 21.4017 11.1875 25.314V34.1196C11.1875 35.4509 12.2705 36.5346 13.6009 36.5346H23.5579V41.0944C23.5579 41.594 23.9637 42 24.4629 42H29.323C29.8238 42 30.2281 41.594 30.2281 41.0944V36.5346H38.3991C39.7295 36.5346 40.8125 35.4509 40.8125 34.1196V25.314C40.8125 21.4017 37.6313 18.2215 33.7215 18.2215H33.72ZM30.7273 11.8112H34.3777V13.7674H30.7273V11.8112ZM23.5564 34.7249H13.5994C13.2661 34.7249 12.9961 34.4532 12.9961 34.1211V25.3155C12.9961 22.4024 15.3643 20.0327 18.2755 20.0327C21.1867 20.0327 23.5549 22.4024 23.5549 25.3155L23.5564 34.7249ZM28.4165 40.1888H25.368V36.5346H28.4165V40.1888ZM39.0009 34.1196C39.0009 34.4532 38.7309 34.7234 38.3976 34.7234H25.3665V25.314C25.3665 23.2175 24.4524 21.3308 23.0028 20.0312H28.9172V22.3768C28.9172 22.8764 29.323 23.2824 29.8223 23.2824C30.3216 23.2824 30.7273 22.8764 30.7273 22.3768V20.0312H33.7215C36.6327 20.0312 39.0009 22.4009 39.0009 25.314V34.1196ZM20.8232 28.0912C20.8232 28.5908 20.4174 28.9968 19.9181 28.9968H16.6358C16.1351 28.9968 15.7308 28.5908 15.7308 28.0912C15.7308 27.5916 16.1366 27.1856 16.6358 27.1856H19.9181C20.4189 27.1856 20.8232 27.5916 20.8232 28.0912Z" fill="white"/>
</svg>
