<svg width="52" height="52" viewBox="0 0 52 52" fill="none" xmlns="http://www.w3.org/2000/svg">
<rect width="52" height="52" rx="26" fill="#FA9454"/>
<path fill-rule="evenodd" clip-rule="evenodd" d="M12.6699 23.4727V37.2119C12.6699 38.672 13.8532 39.8552 15.3118 39.8552H36.6848C38.1434 39.8552 39.3267 38.672 39.3267 37.2119V23.4727C39.3267 22.8565 38.8266 22.3564 38.2104 22.3564C37.5942 22.3564 37.0941 22.8565 37.0941 23.4727V37.2119C37.0941 37.4381 36.911 37.6227 36.6848 37.6227C36.6833 37.6227 15.3133 37.6227 15.3133 37.6227C15.0856 37.6227 14.9025 37.4381 14.9025 37.2119V23.4727C14.9025 22.8565 14.4024 22.3564 13.7862 22.3564C13.17 22.3564 12.6699 22.8565 12.6699 23.4727Z" fill="white"/>
<path fill-rule="evenodd" clip-rule="evenodd" d="M31.6967 31.1062C31.6967 30.4052 31.4184 29.7325 30.9227 29.2368C30.4271 28.7412 29.7544 28.4629 29.0533 28.4629C27.3596 28.4629 24.6418 28.4629 22.948 28.4629C22.247 28.4629 21.5743 28.7412 21.0786 29.2368C20.583 29.7325 20.3047 30.4052 20.3047 31.1062V38.7386C20.3047 39.3548 20.8048 39.8549 21.421 39.8549H30.5804C31.1966 39.8549 31.6967 39.3548 31.6967 38.7386V31.1062ZM29.4641 31.1062V37.6223H22.5372V31.1062C22.5372 30.9961 22.5804 30.8919 22.6578 30.816C22.7352 30.7386 22.8394 30.6954 22.948 30.6954H29.0533C29.162 30.6954 29.2662 30.7386 29.3436 30.816C29.421 30.8919 29.4641 30.9961 29.4641 31.1062Z" fill="white"/>
<path fill-rule="evenodd" clip-rule="evenodd" d="M29.8414 11.2603V18.8927C29.8414 21.0151 28.1194 22.7386 25.9969 22.7386C23.8745 22.7386 22.1525 21.0151 22.1525 18.8927V11.2603C22.1525 10.6441 21.6524 10.144 21.0362 10.144C20.42 10.144 19.9199 10.6441 19.9199 11.2603V18.8927C19.9199 22.2475 22.6422 24.9712 25.9969 24.9712C29.3517 24.9712 32.074 22.2475 32.074 18.8927V11.2603C32.074 10.6441 31.5739 10.144 30.9577 10.144C30.3415 10.144 29.8414 10.6441 29.8414 11.2603Z" fill="white"/>
<path fill-rule="evenodd" clip-rule="evenodd" d="M37.7834 10.144H14.2166C13.0035 10.144 11.9468 10.9701 11.6521 12.1459C11.1193 14.2802 10.0327 18.6233 10.0327 18.6233C10.0119 18.7111 10 18.8019 10 18.8927C10 22.2475 12.7237 24.9712 16.077 24.9712C19.4318 24.9712 22.1555 22.2475 22.1555 18.8927V12.3766H29.8445V18.8927C29.8445 22.2475 32.5682 24.9712 35.923 24.9712C39.2763 24.9712 42 22.2475 42 18.8927C42 18.8019 41.9881 18.7111 41.9673 18.6233C41.9673 18.6233 40.8807 14.2802 40.3479 12.1459C40.0532 10.9701 38.9965 10.144 37.7834 10.144ZM19.923 12.3766H14.2166C14.0275 12.3766 13.8638 12.5046 13.8177 12.6877C13.8177 12.6877 12.234 19.0222 12.2355 19.0252C12.304 21.0866 13.9993 22.7386 16.077 22.7386C18.1994 22.7386 19.923 21.0151 19.923 18.8927V12.3766ZM32.077 12.3766V18.8927C32.077 21.0151 33.8006 22.7386 35.923 22.7386C37.9993 22.7386 39.6945 21.088 39.766 19.0222L38.1823 12.6877C38.1362 12.5046 37.9725 12.3766 37.7834 12.3766H32.077Z" fill="white"/>
</svg>
