<svg width="56" height="56" viewBox="0 0 56 56" fill="none" xmlns="http://www.w3.org/2000/svg">
<rect width="56" height="56" rx="28" fill="#7DC97E"/>
<g clip-path="url(#clip0_1842_19323)">
<path d="M35.4425 25.7201C36.059 25.7201 36.5587 25.2203 36.5587 24.6038C36.5587 23.9873 36.059 23.4875 35.4425 23.4875C34.8259 23.4875 34.3262 23.9873 34.3262 24.6038C34.3262 25.2203 34.8259 25.7201 35.4425 25.7201Z" fill="white"/>
<path fill-rule="evenodd" clip-rule="evenodd" d="M31.3936 38.9905H25.3701L25.0352 39.9951C24.7792 40.7631 24.0604 41.2811 23.2522 41.2811H19.9852C19.4866 41.2811 19.0088 41.0831 18.6561 40.7304C18.3048 40.3776 18.1069 39.8999 18.1069 39.4013V37.0645C16.2018 34.8096 15.0527 31.8954 15.0527 28.7148C15.0527 21.5691 20.8544 15.7689 28.0001 15.7689C29.609 15.7689 31.1495 16.0621 32.5709 16.5994C34.2021 14.6511 36.6877 14.2805 39.7627 15.0872C40.3774 15.2435 40.8715 15.7019 41.0724 16.3047C41.2749 16.906 41.1558 17.5683 40.7658 18.058C40.2404 18.7233 39.523 19.6268 39.0185 20.2578C39.8386 21.3101 40.3759 22.6779 40.6587 23.6275C40.7495 23.9237 40.9578 24.1693 41.2347 24.3077C41.263 24.3211 41.2912 24.3375 41.3195 24.3538C41.6916 24.583 42.1545 24.8122 42.5385 25.0042C43.4345 25.4522 44.0001 26.3676 44.0001 27.3693V31.0054C44.0001 32.464 42.8168 33.6472 41.3567 33.6472H41.0948C40.5813 33.6472 40.0886 33.8511 39.7255 34.2143L39.2239 34.7159C38.8607 35.079 38.6568 35.5717 38.6568 36.0852V39.4013C38.6568 40.4387 37.8159 41.2811 36.777 41.2811H33.5115C32.7018 41.2811 31.9844 40.7631 31.7284 39.9951L31.3936 38.9905ZM20.3394 39.0485H22.9977L23.3325 38.0439C23.5885 37.2759 24.3059 36.7579 25.1156 36.7579H31.6481C32.4563 36.7579 33.1751 37.2759 33.4311 38.0439L33.766 39.0485H36.4243V36.0852C36.4243 34.9808 36.8633 33.9196 37.6462 33.1382L38.1478 32.6366C38.9292 31.8537 39.9889 31.4147 41.0948 31.4147H41.3567C41.5844 31.4147 41.7675 31.2316 41.7675 31.0054V27.3693C41.7675 27.213 41.6797 27.0716 41.5413 27.0016C41.1156 26.7888 40.6066 26.5328 40.1898 26.2798C39.3891 25.8645 38.7893 25.1456 38.5243 24.2824C38.5229 24.2794 38.5214 24.2749 38.5214 24.272C38.2564 23.3819 37.7549 21.9442 36.8291 21.1791C36.3603 20.7907 36.2888 20.0986 36.6698 19.6223C36.6698 19.6223 37.7876 18.2247 38.6628 17.1189C36.5835 16.6694 34.9017 16.9179 33.9164 18.5507C33.6231 19.0374 33.0084 19.2249 32.492 18.9868C31.1257 18.3542 29.6045 18.0015 28.0001 18.0015C22.0868 18.0015 17.2853 22.8015 17.2853 28.7148C17.2853 31.4757 18.3331 33.9955 20.0507 35.8947C20.2367 36.1001 20.3394 36.368 20.3394 36.6433V39.0485Z" fill="white"/>
<path fill-rule="evenodd" clip-rule="evenodd" d="M23.1041 24.2198C22.6919 24.6767 21.9864 24.7139 21.528 24.3016C21.0695 23.8894 21.0323 23.1839 21.4446 22.7255C23.0119 20.9856 25.2801 19.8916 27.8029 19.8916C29.0844 19.8916 30.2989 20.1744 31.3914 20.679C31.9495 20.9379 32.1936 21.6017 31.9346 22.1614C31.6757 22.7195 31.0119 22.9636 30.4522 22.7046C29.647 22.3325 28.7495 22.1242 27.8029 22.1242C25.938 22.1242 24.2621 22.9338 23.1041 24.2198Z" fill="white"/>
<path fill-rule="evenodd" clip-rule="evenodd" d="M12 19.5552C12 18.9391 12.5001 18.439 13.1163 18.439C13.7325 18.439 14.2326 18.9391 14.2326 19.5552C14.2326 21.0466 15.4411 22.2551 16.9325 22.2551C17.5486 22.2566 18.0487 22.7567 18.0487 23.3729C18.0487 23.9876 17.5486 24.4892 16.9325 24.4877C14.2087 24.4877 12 22.2805 12 19.5552Z" fill="white"/>
</g>
<defs>
<clipPath id="clip0_1842_19323">
<rect width="32" height="32" fill="white" transform="translate(12 12)"/>
</clipPath>
</defs>
</svg>
