<svg width="36" height="36" viewBox="0 0 36 36" fill="none" xmlns="http://www.w3.org/2000/svg">
<rect width="36" height="36" rx="18" fill="#00733B"/>
<g clip-path="url(#clip0_1842_19409)">
<path d="M22.834 10H13.1673C12.156 10 11.334 10.822 11.334 11.8333V24.1667C11.334 25.178 12.156 26 13.1673 26H22.834C23.8453 26 24.6673 25.178 24.6673 24.1667V11.8333C24.6673 10.822 23.8453 10 22.834 10ZM16.0007 24H13.834C13.558 24 13.334 23.776 13.334 23.5V21.8333H16.0007V24ZM16.0007 20.8333H13.334V18.5H16.0007V20.8333ZM16.0007 17.5H13.334V15.8333C13.334 15.5573 13.558 15.3333 13.834 15.3333H16.0007V17.5ZM22.6673 23.5C22.6673 23.776 22.4433 24 22.1673 24H17.0007V21.8333H22.6673V23.5ZM22.6673 20.8333H17.0007V18.5H22.6673V20.8333ZM22.6673 17.5H17.0007V15.3333H22.1673C22.4433 15.3333 22.6673 15.5573 22.6673 15.8333V17.5Z" fill="white"/>
</g>
<defs>
<clipPath id="clip0_1842_19409">
<rect width="16" height="16" fill="white" transform="translate(10 10)"/>
</clipPath>
</defs>
</svg>
