<svg width="36" height="36" viewBox="0 0 36 36" fill="none" xmlns="http://www.w3.org/2000/svg">
<rect width="36" height="36" rx="18" fill="#00733B"/>
<g clip-path="url(#clip0_1842_19404)">
<path d="M15.6909 18.4783H11.8305C10.8217 18.4783 10 19.2992 10 20.3082V24.1688C10 25.1778 10.8217 25.9986 11.8305 25.9986H15.6909C16.6997 25.9986 17.5214 25.1778 17.5214 24.1688V20.3082C17.5214 19.2992 16.6997 18.4783 15.6909 18.4783ZM15.0256 23.5034C14.9351 23.5941 14.8118 23.645 14.6837 23.645C14.555 23.645 14.4328 23.5944 14.3418 23.5034L13.7607 22.9222L13.1796 23.5034C12.9909 23.6921 12.6845 23.6921 12.4958 23.5034C12.307 23.3146 12.307 23.0086 12.4958 22.8198L13.0768 22.2387L12.4958 21.6572C12.3073 21.4685 12.3071 21.1625 12.4958 20.974C12.6846 20.7853 12.9909 20.7852 13.1797 20.974L13.7607 21.5551L14.3418 20.974C14.5306 20.7852 14.8369 20.7853 15.0257 20.974C15.2144 21.1625 15.2142 21.4685 15.0257 21.6572L14.4447 22.2387L15.0257 22.8198C15.2145 23.0086 15.2141 23.3145 15.0256 23.5034ZM15.6909 10H11.8305C10.8217 10 10 10.8208 10 11.8299V15.6905C10 16.6995 10.8217 17.5204 11.8305 17.5204H15.6909C16.6997 17.5204 17.5214 16.6995 17.5214 15.6905V11.8299C17.5214 10.8208 16.6997 10 15.6909 10ZM15.0673 14.2437H14.2446V15.0658C14.2446 15.3326 14.0273 15.5491 13.7607 15.5491C13.4938 15.5491 13.2784 15.3325 13.2784 15.0658V14.2437H12.4557C12.1889 14.2437 11.9718 14.0273 11.9718 13.7603C11.9718 13.4934 12.1889 13.2771 12.4557 13.2771H13.2784V12.4549C13.2784 12.1882 13.4937 11.9716 13.7607 11.9716C14.0275 11.9716 14.2446 12.1879 14.2446 12.4549V13.2771H15.0673C15.3343 13.2771 15.5496 13.4936 15.5496 13.7603C15.5496 14.0271 15.3343 14.2437 15.0673 14.2437ZM24.1696 10H20.3091C19.3004 10 18.4787 10.8209 18.4787 11.83V15.6905C18.4787 16.6995 19.3004 17.5204 20.3091 17.5204H24.1696C25.1784 17.5204 26 16.6995 26 15.6905V11.8299C26 10.8208 25.1784 10 24.1696 10ZM23.5444 14.2437H20.9344C20.6675 14.2437 20.4505 14.0273 20.4505 13.7603C20.4505 13.4934 20.6676 13.2771 20.9344 13.2771H23.5444C23.8112 13.2771 24.0283 13.4934 24.0283 13.7603C24.0283 14.0273 23.8112 14.2437 23.5444 14.2437ZM24.1696 18.4783H20.3091C19.3004 18.4783 18.4787 19.2992 18.4787 20.3082V24.1688C18.4787 25.1778 19.3004 25.9986 20.3091 25.9986H24.1696C25.1784 25.9986 26 25.1778 26 24.1688V20.3082C26 19.2992 25.1784 18.4783 24.1696 18.4783ZM23.5444 23.5746H20.9344C20.6677 23.5746 20.4505 23.3582 20.4505 23.0914C20.4505 22.8244 20.6676 22.6081 20.9344 22.6081H23.5444C23.8112 22.6081 24.0283 22.8244 24.0283 23.0914C24.0283 23.3582 23.811 23.5746 23.5444 23.5746ZM23.5444 21.8692H20.9344C20.6675 21.8692 20.4505 21.6529 20.4505 21.3859C20.4505 21.119 20.6676 20.9026 20.9344 20.9026H23.5444C23.8112 20.9026 24.0283 21.1189 24.0283 21.3859C24.0283 21.6529 23.8112 21.8692 23.5444 21.8692Z" fill="white"/>
</g>
<defs>
<clipPath id="clip0_1842_19404">
<rect width="16" height="16" fill="white" transform="translate(10 10)"/>
</clipPath>
</defs>
</svg>
