<svg width="36" height="36" viewBox="0 0 36 36" fill="none" xmlns="http://www.w3.org/2000/svg">
<rect width="36" height="36" rx="18" fill="#00733B"/>
<path d="M18.0005 20.6668C17.8638 20.6668 17.7331 20.6108 17.6391 20.5122L14.1391 16.8455C13.8358 16.5282 14.0611 16.0002 14.5005 16.0002H16.3338V12.1668C16.3338 11.7075 16.7078 11.3335 17.1671 11.3335H18.8338C19.2931 11.3335 19.6671 11.7075 19.6671 12.1668V16.0002H21.5005C21.9398 16.0002 22.1651 16.5282 21.8618 16.8455L18.3618 20.5122C18.2678 20.6108 18.1371 20.6668 18.0005 20.6668Z" fill="white"/>
<path d="M24.8333 24.6667H11.1667C10.5233 24.6667 10 24.1433 10 23.5V23.1667C10 22.5233 10.5233 22 11.1667 22H24.8333C25.4767 22 26 22.5233 26 23.1667V23.5C26 24.1433 25.4767 24.6667 24.8333 24.6667Z" fill="white"/>
</svg>
