<svg width="52" height="52" viewBox="0 0 52 52" fill="none" xmlns="http://www.w3.org/2000/svg">
<rect width="52" height="52" rx="26" fill="#1D839E"/>
<g clip-path="url(#clip0_1842_19349)">
<path d="M20.275 22.3416C20.7964 22.863 20.7964 23.707 20.275 24.227C19.7537 24.7483 18.9097 24.7483 18.3897 24.227C17.8684 23.7056 17.8684 22.8616 18.3897 22.3416C18.911 21.8203 19.755 21.8203 20.275 22.3416ZM38.7444 30.455L37.991 31.2083C37.955 32.8523 37.3177 34.4843 36.0777 35.7403L31.855 40.0176C30.5977 41.291 28.9204 41.995 27.131 42.0003H27.1084C25.3284 42.0003 23.655 41.307 22.3964 40.0483L12.5084 30.2443C11.6417 29.379 11.223 28.1883 11.3564 26.9736L12.3764 17.7523C12.4444 17.1443 12.915 16.6603 13.5204 16.5776L22.7057 15.3216C23.9484 15.1563 25.199 15.579 26.0764 16.4563L36.043 26.339C36.559 26.855 36.9724 27.4363 37.2844 28.0563C38.367 26.5016 38.215 24.3296 36.8284 22.943L26.707 13.0696C26.4017 12.7643 25.9804 12.623 25.5724 12.6803L16.387 13.9363C15.655 14.035 14.9844 13.5243 14.8844 12.7963C14.7857 12.067 15.2964 11.395 16.0244 11.295L25.211 10.0376C26.439 9.86296 27.703 10.2923 28.5817 11.1736L38.7004 21.047C41.295 23.6403 41.3097 27.8563 38.743 30.4563L38.7444 30.455ZM34.1604 28.2283L24.1937 18.3456C23.8964 18.0483 23.479 17.911 23.0644 17.963L14.911 19.079L14.0057 27.2656C13.9617 27.6696 14.1004 28.067 14.3884 28.3536L24.2764 38.1576C25.035 38.9176 26.039 39.3323 27.107 39.3323H27.1204C28.195 39.3296 29.2017 38.907 29.955 38.1416L34.1777 33.8643C35.7177 32.3043 35.7097 29.775 34.159 28.2256L34.1604 28.2283Z" fill="white"/>
</g>
<defs>
<clipPath id="clip0_1842_19349">
<rect width="32" height="32" fill="white" transform="translate(10 10)"/>
</clipPath>
</defs>
</svg>
