<?xml version="1.0" encoding="UTF-8" standalone="no"?>
<svg
   width="233.418"
   height="149.72701"
   viewBox="0 0 233.418 149.72701"
   fill="none"
   version="1.1"
   id="svg185"
   sodipodi:docname="aspects-2-1.svg"
   inkscape:version="1.1.2 (0a00cf5339, 2022-02-04)"
   xmlns:inkscape="http://www.inkscape.org/namespaces/inkscape"
   xmlns:sodipodi="http://sodipodi.sourceforge.net/DTD/sodipodi-0.dtd"
   xmlns="http://www.w3.org/2000/svg"
   xmlns:svg="http://www.w3.org/2000/svg">
  <sodipodi:namedview
     id="namedview187"
     pagecolor="#ffffff"
     bordercolor="#666666"
     borderopacity="1.0"
     inkscape:pageshadow="2"
     inkscape:pageopacity="0.0"
     inkscape:pagecheckerboard="0"
     showgrid="false"
     fit-margin-top="0"
     fit-margin-left="0"
     fit-margin-right="0"
     fit-margin-bottom="0"
     inkscape:zoom="1.0408116"
     inkscape:cx="-75.902308"
     inkscape:cy="70.61797"
     inkscape:window-width="1920"
     inkscape:window-height="1017"
     inkscape:window-x="0"
     inkscape:window-y="0"
     inkscape:window-maximized="1"
     inkscape:current-layer="g60" />
  <g
     filter="url(#filter0_dd_3436_26105)"
     id="g60"
     transform="translate(-68,-42.852501)">
    <g
       clip-path="url(#clip0_3436_26105)"
       id="g56">
      <rect
         x="68"
         y="42.852501"
         width="233.418"
         height="149.72701"
         rx="6.96106"
         fill="#ffffff"
         id="rect2" />
      <g
         filter="url(#filter1_i_3436_26105)"
         id="g18">
        <rect
           width="233.418"
           height="35.323502"
           transform="translate(68,42.8525)"
           fill="#ffffff"
           id="rect4"
           x="0"
           y="0" />
        <g
           clip-path="url(#clip1_3436_26105)"
           id="g14">
          <path
             d="M 91.5783,65.8339 H 79.7479 c -0.3268,0 -0.5917,0.2646 -0.5917,0.5916 0,0.3264 0.2649,0.591 0.5917,0.591 h 11.8302 c 0.3268,0 0.5916,-0.2646 0.5916,-0.591 -2e-4,-0.327 -0.265,-0.5916 -0.5914,-0.5916 z"
             fill="#315efd"
             id="path6" />
          <path
             d="m 80.4862,64.2968 c -0.3269,0 -0.5917,0.2646 -0.5917,0.5913 0,0.3267 0.2648,0.5916 0.5917,0.5916 h 10.3515 c 0.3269,0 0.5917,-0.2649 0.5917,-0.5916 0,-0.3267 -0.2648,-0.5913 -0.5917,-0.5913 h -0.1476 v -5.3209 h 0.1476 c 0.1637,0 0.2956,-0.1323 0.2956,-0.2954 0,-0.163 -0.1324,-0.2954 -0.2956,-0.2954 H 80.4862 c -0.1634,0 -0.2956,0.1324 -0.2956,0.2954 0,0.1631 0.1325,0.2954 0.2956,0.2954 h 0.1479 v 5.3206 z m 9.0205,-5.3209 v 5.3206 h -1.7744 v -5.3206 z m -2.9578,0 v 5.3206 h -1.7744 v -5.3206 z m -4.732,0 h 1.7745 v 5.3206 h -1.7745 z"
             fill="#315efd"
             id="path8" />
          <path
             d="m 79.7479,57.8562 h 11.8302 c 0.0019,0 0.0041,0 0.0058,0 0.3271,0 0.5917,-0.2646 0.5917,-0.5913 0,-0.2597 -0.1673,-0.4798 -0.3997,-0.5595 l -5.8697,-2.6397 c -0.1543,-0.0692 -0.3307,-0.0692 -0.4853,0 l -5.9156,2.6602 c -0.2546,0.1146 -0.3945,0.3909 -0.3357,0.6633 0.0584,0.2724 0.2994,0.467 0.5783,0.467 z"
             fill="#315efd"
             id="path10" />
          <path
             d="m 85.312,56.1792 v -0.1975 h 0.5562 l 0.0309,-0.1976 H 85.312 v -0.0334 c 0,-0.1592 0.0636,-0.2575 0.3363,-0.2575 0.1114,0 0.237,0.0111 0.3953,0.0388 l 0.0406,-0.2881 c -0.1474,-0.0359 -0.2983,-0.0535 -0.4495,-0.0524 -0.4867,0 -0.696,0.1827 -0.696,0.5204 v 0.0722 h -0.2121 v 0.1976 h 0.2121 v 0.1975 h -0.2121 v 0.1976 h 0.2121 v 0.138 c 0,0.3378 0.2092,0.5205 0.6959,0.5205 0.1511,10e-4 0.3018,-0.0166 0.4491,-0.0526 l -0.0408,-0.2881 c -0.1583,0.0277 -0.2833,0.0388 -0.3948,0.0388 -0.2727,0 -0.3361,-0.0831 -0.3361,-0.2797 v -0.0769 h 0.4955 l 0.0304,-0.1976 z"
             fill="#ffffff"
             id="path12" />
        </g>
        <path
           d="m 103.072,64.5924 c -0.543,0 -1.034,-0.093 -1.473,-0.2789 -0.431,-0.186 -0.773,-0.4537 -1.026,-0.8033 -0.253,-0.3495 -0.383,-0.7623 -0.391,-1.2383 h 1.674 c 0.022,0.3198 0.134,0.5727 0.334,0.7586 0.209,0.186 0.491,0.2789 0.848,0.2789 0.365,0 0.651,-0.0855 0.859,-0.2566 0.208,-0.1785 0.313,-0.409 0.313,-0.6916 0,-0.2306 -0.071,-0.4202 -0.212,-0.569 -0.142,-0.1487 -0.32,-0.264 -0.536,-0.3458 -0.208,-0.0893 -0.498,-0.186 -0.87,-0.2901 -0.506,-0.1487 -0.919,-0.2938 -1.238,-0.4351 -0.313,-0.1487 -0.584,-0.3681 -0.815,-0.6582 -0.223,-0.2975 -0.334,-0.6916 -0.334,-1.1825 0,-0.4611 0.115,-0.8627 0.345,-1.2049 0.231,-0.3421 0.554,-0.6024 0.971,-0.7809 0.416,-0.1859 0.892,-0.2789 1.428,-0.2789 0.803,0 1.454,0.1971 1.952,0.5913 0.506,0.3867 0.785,0.9296 0.837,1.6288 h -1.718 c -0.015,-0.2678 -0.13,-0.4872 -0.346,-0.6582 -0.208,-0.1785 -0.487,-0.2678 -0.837,-0.2678 -0.305,0 -0.55,0.0781 -0.736,0.2343 -0.178,0.1562 -0.268,0.383 -0.268,0.6805 0,0.2083 0.067,0.383 0.201,0.5243 0.141,0.1339 0.313,0.2455 0.513,0.3347 0.209,0.0818 0.499,0.1785 0.87,0.2901 0.506,0.1487 0.919,0.2975 1.239,0.4462 0.32,0.1488 0.595,0.3719 0.825,0.6694 0.231,0.2975 0.346,0.6879 0.346,1.1714 0,0.4165 -0.108,0.8032 -0.323,1.1602 -0.216,0.357 -0.532,0.6433 -0.949,0.859 -0.416,0.2083 -0.911,0.3124 -1.483,0.3124 z m 9.855,-3.3022 c 0,0.2231 -0.015,0.4239 -0.045,0.6024 h -4.518 c 0.037,0.4463 0.193,0.7958 0.468,1.0487 0.276,0.2529 0.614,0.3793 1.016,0.3793 0.58,0 0.992,-0.2492 1.238,-0.7475 h 1.684 c -0.178,0.595 -0.52,1.0859 -1.026,1.4726 -0.506,0.3793 -1.127,0.569 -1.863,0.569 -0.595,0 -1.13,-0.1302 -1.606,-0.3905 -0.469,-0.2677 -0.837,-0.6433 -1.105,-1.1267 -0.26,-0.4835 -0.39,-1.0413 -0.39,-1.6734 0,-0.6397 0.13,-1.2012 0.39,-1.6846 0.26,-0.4834 0.625,-0.8553 1.093,-1.1156 0.469,-0.2603 1.008,-0.3905 1.618,-0.3905 0.588,0 1.112,0.1265 1.573,0.3793 0.469,0.2529 0.829,0.6136 1.082,1.0822 0.26,0.4611 0.391,0.9929 0.391,1.5953 z m -1.618,-0.4463 c -0.007,-0.4016 -0.152,-0.7214 -0.435,-0.9594 -0.283,-0.2454 -0.629,-0.3681 -1.038,-0.3681 -0.386,0 -0.714,0.119 -0.981,0.357 -0.261,0.2305 -0.421,0.5541 -0.48,0.9705 z m 4.319,-4.5851 v 8.2555 h -1.561 v -8.2555 z m 7.289,5.0314 c 0,0.2231 -0.015,0.4239 -0.045,0.6024 h -4.518 c 0.037,0.4463 0.193,0.7958 0.469,1.0487 0.275,0.2529 0.613,0.3793 1.015,0.3793 0.58,0 0.993,-0.2492 1.238,-0.7475 h 1.685 c -0.179,0.595 -0.521,1.0859 -1.027,1.4726 -0.505,0.3793 -1.126,0.569 -1.863,0.569 -0.595,0 -1.13,-0.1302 -1.606,-0.3905 -0.469,-0.2677 -0.837,-0.6433 -1.105,-1.1267 -0.26,-0.4835 -0.39,-1.0413 -0.39,-1.6734 0,-0.6397 0.13,-1.2012 0.39,-1.6846 0.261,-0.4834 0.625,-0.8553 1.094,-1.1156 0.468,-0.2603 1.007,-0.3905 1.617,-0.3905 0.588,0 1.112,0.1265 1.573,0.3793 0.469,0.2529 0.83,0.6136 1.082,1.0822 0.261,0.4611 0.391,0.9929 0.391,1.5953 z m -1.618,-0.4463 c -0.007,-0.4016 -0.152,-0.7214 -0.435,-0.9594 -0.282,-0.2454 -0.628,-0.3681 -1.037,-0.3681 -0.387,0 -0.714,0.119 -0.982,0.357 -0.26,0.2305 -0.42,0.5541 -0.48,0.9705 z m 2.356,0.5802 c 0,-0.6397 0.13,-1.1975 0.391,-1.6734 0.26,-0.4835 0.621,-0.8553 1.082,-1.1156 0.461,-0.2678 0.989,-0.4017 1.584,-0.4017 0.766,0 1.398,0.1934 1.897,0.5801 0.505,0.3794 0.844,0.9148 1.015,1.6065 h -1.685 c -0.089,-0.2677 -0.241,-0.476 -0.457,-0.6247 -0.208,-0.1562 -0.469,-0.2343 -0.781,-0.2343 -0.446,0 -0.8,0.1636 -1.06,0.4909 -0.26,0.3198 -0.39,0.7772 -0.39,1.3722 0,0.5875 0.13,1.0449 0.39,1.3722 0.26,0.3198 0.614,0.4797 1.06,0.4797 0.632,0 1.045,-0.2827 1.238,-0.8479 h 1.685 c -0.171,0.6694 -0.51,1.2011 -1.015,1.5953 -0.506,0.3942 -1.138,0.5913 -1.897,0.5913 -0.595,0 -1.123,-0.1302 -1.584,-0.3905 -0.461,-0.2677 -0.822,-0.6396 -1.082,-1.1156 -0.261,-0.4834 -0.391,-1.0449 -0.391,-1.6845 z m 8.931,-1.8073 v 2.9898 c 0,0.2082 0.049,0.3607 0.145,0.4574 0.105,0.0892 0.276,0.1339 0.514,0.1339 h 0.725 v 1.3164 h -0.982 c -1.316,0 -1.975,-0.6396 -1.975,-1.9189 v -2.9786 h -0.736 v -1.283 h 0.736 v -1.5283 h 1.573 v 1.5283 h 1.384 v 1.283 z m 8.252,1.6734 c 0,0.2231 -0.014,0.4239 -0.044,0.6024 h -4.518 c 0.037,0.4463 0.193,0.7958 0.468,1.0487 0.275,0.2529 0.614,0.3793 1.015,0.3793 0.581,0 0.993,-0.2492 1.239,-0.7475 h 1.684 c -0.178,0.595 -0.52,1.0859 -1.026,1.4726 -0.506,0.3793 -1.127,0.569 -1.863,0.569 -0.595,0 -1.131,-0.1302 -1.607,-0.3905 -0.468,-0.2677 -0.836,-0.6433 -1.104,-1.1267 -0.26,-0.4835 -0.39,-1.0413 -0.39,-1.6734 0,-0.6397 0.13,-1.2012 0.39,-1.6846 0.26,-0.4834 0.625,-0.8553 1.093,-1.1156 0.469,-0.2603 1.008,-0.3905 1.618,-0.3905 0.587,0 1.112,0.1265 1.573,0.3793 0.468,0.2529 0.829,0.6136 1.082,1.0822 0.26,0.4611 0.39,0.9929 0.39,1.5953 z m -1.617,-0.4463 c -0.008,-0.4016 -0.153,-0.7214 -0.435,-0.9594 -0.283,-0.2454 -0.629,-0.3681 -1.038,-0.3681 -0.386,0 -0.714,0.119 -0.981,0.357 -0.261,0.2305 -0.421,0.5541 -0.48,0.9705 z m 8.503,0.4463 c 0,0.2231 -0.015,0.4239 -0.045,0.6024 h -4.518 c 0.037,0.4463 0.193,0.7958 0.469,1.0487 0.275,0.2529 0.613,0.3793 1.015,0.3793 0.58,0 0.993,-0.2492 1.238,-0.7475 h 1.685 c -0.179,0.595 -0.521,1.0859 -1.027,1.4726 -0.505,0.3793 -1.126,0.569 -1.863,0.569 -0.595,0 -1.13,-0.1302 -1.606,-0.3905 -0.469,-0.2677 -0.837,-0.6433 -1.105,-1.1267 -0.26,-0.4835 -0.39,-1.0413 -0.39,-1.6734 0,-0.6397 0.13,-1.2012 0.39,-1.6846 0.261,-0.4834 0.625,-0.8553 1.094,-1.1156 0.468,-0.2603 1.007,-0.3905 1.617,-0.3905 0.588,0 1.112,0.1265 1.573,0.3793 0.469,0.2529 0.83,0.6136 1.082,1.0822 0.261,0.4611 0.391,0.9929 0.391,1.5953 z m -1.618,-0.4463 c -0.007,-0.4016 -0.152,-0.7214 -0.435,-0.9594 -0.282,-0.2454 -0.628,-0.3681 -1.037,-0.3681 -0.387,0 -0.714,0.119 -0.982,0.357 -0.26,0.2305 -0.42,0.5541 -0.48,0.9705 z m 4.32,-1.5506 c 0.201,-0.3273 0.461,-0.5839 0.781,-0.7698 0.327,-0.1859 0.699,-0.2789 1.115,-0.2789 v 1.6399 h -0.413 c -0.49,0 -0.862,0.1153 -1.115,0.3459 -0.246,0.2305 -0.368,0.6321 -0.368,1.2048 v 3.0791 h -1.562 v -6.1805 h 1.562 z m 8.44,0.3235 h -1.082 v 4.8975 H 156.2 v -4.8975 h -0.703 v -1.283 h 0.703 v -0.3123 c 0,-0.7586 0.216,-1.3164 0.647,-1.6734 0.431,-0.357 1.082,-0.5244 1.952,-0.5021 v 1.3165 c -0.379,-0.0075 -0.643,0.0557 -0.792,0.1896 -0.149,0.1339 -0.223,0.3756 -0.223,0.7252 v 0.2565 h 1.082 z m 3.757,4.9979 c -0.595,0 -1.131,-0.1302 -1.607,-0.3905 -0.476,-0.2677 -0.851,-0.6433 -1.127,-1.1267 -0.267,-0.4835 -0.401,-1.0413 -0.401,-1.6734 0,-0.6322 0.137,-1.19 0.413,-1.6734 0.282,-0.4835 0.665,-0.8553 1.149,-1.1156 0.483,-0.2678 1.022,-0.4017 1.617,-0.4017 0.595,0 1.134,0.1339 1.618,0.4017 0.483,0.2603 0.863,0.6321 1.138,1.1156 0.282,0.4834 0.424,1.0412 0.424,1.6734 0,0.6321 -0.145,1.1899 -0.435,1.6734 -0.283,0.4834 -0.67,0.859 -1.161,1.1267 -0.483,0.2603 -1.026,0.3905 -1.628,0.3905 z m 0,-1.361 c 0.282,0 0.546,-0.067 0.792,-0.2009 0.253,-0.1413 0.453,-0.3495 0.602,-0.6247 0.149,-0.2752 0.223,-0.6099 0.223,-1.004 0,-0.5876 -0.156,-1.0375 -0.468,-1.3499 -0.305,-0.3198 -0.681,-0.4797 -1.127,-0.4797 -0.446,0 -0.822,0.1599 -1.127,0.4797 -0.297,0.3124 -0.446,0.7623 -0.446,1.3499 0,0.5875 0.145,1.0412 0.435,1.361 0.298,0.3124 0.669,0.4686 1.116,0.4686 z m 7.794,-5.0091 c 0.737,0 1.332,0.2343 1.785,0.7028 0.454,0.4611 0.681,1.1082 0.681,1.9412 v 3.6257 h -1.562 v -3.4138 c 0,-0.4908 -0.123,-0.8664 -0.368,-1.1267 -0.246,-0.2678 -0.58,-0.4016 -1.004,-0.4016 -0.432,0 -0.774,0.1338 -1.027,0.4016 -0.245,0.2603 -0.368,0.6359 -0.368,1.1267 v 3.4138 h -1.562 v -6.1805 h 1.562 v 0.7698 c 0.208,-0.2677 0.473,-0.476 0.792,-0.6247 0.328,-0.1562 0.685,-0.2343 1.071,-0.2343 z m 3.549,3.1571 c 0,-0.6247 0.123,-1.1788 0.369,-1.6622 0.252,-0.4834 0.595,-0.8553 1.026,-1.1156 0.431,-0.2603 0.911,-0.3905 1.439,-0.3905 0.402,0 0.785,0.0893 1.149,0.2678 0.365,0.171 0.655,0.4016 0.87,0.6917 v -2.9341 h 1.584 v 8.2555 h -1.584 v -0.9148 c -0.193,0.3049 -0.465,0.5504 -0.814,0.7363 -0.35,0.1859 -0.755,0.2789 -1.216,0.2789 -0.521,0 -0.997,-0.1339 -1.428,-0.4016 -0.431,-0.2678 -0.774,-0.6434 -1.026,-1.1268 -0.246,-0.4909 -0.369,-1.0524 -0.369,-1.6846 z m 4.864,0.0224 c 0,-0.3793 -0.074,-0.7029 -0.223,-0.9706 -0.148,-0.2752 -0.349,-0.4834 -0.602,-0.6248 -0.253,-0.1487 -0.524,-0.2231 -0.814,-0.2231 -0.291,0 -0.558,0.0707 -0.804,0.212 -0.245,0.1413 -0.446,0.3495 -0.602,0.6247 -0.149,0.2678 -0.223,0.5876 -0.223,0.9594 0,0.3719 0.074,0.6992 0.223,0.9818 0.156,0.2752 0.357,0.4871 0.602,0.6359 0.253,0.1487 0.521,0.2231 0.804,0.2231 0.29,0 0.561,-0.0707 0.814,-0.212 0.253,-0.1487 0.454,-0.357 0.602,-0.6247 0.149,-0.2752 0.223,-0.6024 0.223,-0.9817 z m 5.464,3.1906 c -0.506,0 -0.959,-0.0893 -1.361,-0.2678 -0.402,-0.1859 -0.722,-0.435 -0.96,-0.7474 -0.23,-0.3124 -0.357,-0.6582 -0.379,-1.0375 h 1.573 c 0.03,0.238 0.145,0.4351 0.346,0.5912 0.208,0.1562 0.465,0.2343 0.77,0.2343 0.297,0 0.528,-0.0595 0.691,-0.1785 0.172,-0.119 0.257,-0.2714 0.257,-0.4574 0,-0.2008 -0.104,-0.3495 -0.312,-0.4462 -0.201,-0.1041 -0.525,-0.2157 -0.971,-0.3347 -0.461,-0.1116 -0.84,-0.2268 -1.138,-0.3458 -0.29,-0.119 -0.543,-0.3012 -0.758,-0.5467 -0.209,-0.2454 -0.313,-0.5764 -0.313,-0.9929 0,-0.3421 0.097,-0.6545 0.29,-0.9371 0.201,-0.2826 0.484,-0.5057 0.848,-0.6693 0.372,-0.1637 0.807,-0.2455 1.305,-0.2455 0.737,0 1.324,0.186 1.763,0.5578 0.439,0.3645 0.681,0.8591 0.725,1.4838 h -1.495 c -0.022,-0.2454 -0.126,-0.4388 -0.312,-0.5801 -0.179,-0.1488 -0.42,-0.2231 -0.725,-0.2231 -0.283,0 -0.502,0.052 -0.658,0.1561 -0.149,0.1042 -0.224,0.2492 -0.224,0.4351 0,0.2083 0.105,0.3682 0.313,0.4797 0.208,0.1042 0.532,0.212 0.97,0.3236 0.447,0.1115 0.815,0.2268 1.105,0.3458 0.29,0.119 0.539,0.3049 0.747,0.5578 0.216,0.2454 0.328,0.5727 0.335,0.9817 0,0.357 -0.1,0.6768 -0.301,0.9594 -0.194,0.2827 -0.476,0.5058 -0.848,0.6694 -0.365,0.1562 -0.792,0.2343 -1.283,0.2343 z m 9.459,-3.3245 c 0,0.2231 -0.015,0.4239 -0.044,0.6024 h -4.518 c 0.037,0.4463 0.193,0.7958 0.468,1.0487 0.275,0.2529 0.614,0.3793 1.015,0.3793 0.58,0 0.993,-0.2492 1.239,-0.7475 h 1.684 c -0.178,0.595 -0.52,1.0859 -1.026,1.4726 -0.506,0.3793 -1.127,0.569 -1.863,0.569 -0.595,0 -1.131,-0.1302 -1.607,-0.3905 -0.468,-0.2677 -0.836,-0.6433 -1.104,-1.1267 -0.26,-0.4835 -0.391,-1.0413 -0.391,-1.6734 0,-0.6397 0.131,-1.2012 0.391,-1.6846 0.26,-0.4834 0.625,-0.8553 1.093,-1.1156 0.469,-0.2603 1.008,-0.3905 1.618,-0.3905 0.587,0 1.112,0.1265 1.573,0.3793 0.468,0.2529 0.829,0.6136 1.082,1.0822 0.26,0.4611 0.39,0.9929 0.39,1.5953 z m -1.617,-0.4463 c -0.008,-0.4016 -0.153,-0.7214 -0.435,-0.9594 -0.283,-0.2454 -0.629,-0.3681 -1.038,-0.3681 -0.387,0 -0.714,0.119 -0.982,0.357 -0.26,0.2305 -0.42,0.5541 -0.479,0.9705 z m 6.182,-2.5993 c 0.737,0 1.332,0.2343 1.785,0.7028 0.454,0.4611 0.681,1.1082 0.681,1.9412 v 3.6257 h -1.562 v -3.4138 c 0,-0.4908 -0.123,-0.8664 -0.368,-1.1267 -0.246,-0.2678 -0.58,-0.4016 -1.004,-0.4016 -0.432,0 -0.774,0.1338 -1.027,0.4016 -0.245,0.2603 -0.368,0.6359 -0.368,1.1267 v 3.4138 h -1.562 v -6.1805 h 1.562 v 0.7698 c 0.208,-0.2677 0.473,-0.476 0.792,-0.6247 0.328,-0.1562 0.685,-0.2343 1.071,-0.2343 z"
           fill="#2a2b2d"
           id="path16" />
      </g>
      <g
         filter="url(#filter2_i_3436_26105)"
         id="g54">
        <rect
           width="233.418"
           height="115.062"
           transform="translate(68,78.1763)"
           fill="#ffffff"
           id="rect20"
           x="0"
           y="0" />
        <g
           filter="url(#filter3_i_3436_26105)"
           id="g34">
          <rect
             width="233.418"
             height="62.7346"
             transform="translate(68,78.1763)"
             fill="#ffffff"
             id="rect22"
             x="0"
             y="0" />
          <path
             d="m 83.942,89.6514 v 1.0816 h -2.7853 v 1.7133 h 2.1344 v 1.0624 h -2.1344 v 2.8236 h -1.34 v -6.6809 z m 2.9395,6.767 c -0.5105,0 -0.9699,-0.1116 -1.3783,-0.335 -0.4084,-0.2297 -0.7306,-0.5519 -0.9667,-0.9667 -0.2297,-0.4148 -0.3446,-0.8933 -0.3446,-1.4357 0,-0.5424 0.1181,-1.021 0.3542,-1.4357 0.2424,-0.4148 0.571,-0.7338 0.9858,-0.9572 0.4148,-0.2297 0.8774,-0.3446 1.3879,-0.3446 0.5105,0 0.9731,0.1149 1.3878,0.3446 0.4148,0.2234 0.7402,0.5424 0.9763,0.9572 0.2425,0.4147 0.3637,0.8933 0.3637,1.4357 0,0.5424 -0.1244,1.0209 -0.3732,1.4357 -0.2425,0.4148 -0.5743,0.737 -0.9955,0.9667 -0.4147,0.2234 -0.8806,0.335 -1.3974,0.335 z m 0,-1.1677 c 0.2425,0 0.469,-0.0574 0.6796,-0.1723 0.2169,-0.1212 0.3892,-0.2999 0.5168,-0.536 0.1276,-0.2361 0.1914,-0.5232 0.1914,-0.8614 0,-0.5041 -0.134,-0.8902 -0.402,-1.1582 -0.2616,-0.2743 -0.5838,-0.4115 -0.9667,-0.4115 -0.3828,0 -0.7051,0.1372 -0.9667,0.4115 -0.2552,0.268 -0.3828,0.6541 -0.3828,1.1582 0,0.5041 0.1244,0.8933 0.3732,1.1677 0.2553,0.268 0.5743,0.402 0.9572,0.402 z m 6.3223,-4.2976 c 0.6317,0 1.1422,0.201 1.5314,0.603 0.3892,0.3956 0.5838,0.9508 0.5838,1.6655 v 3.1107 h -1.34 v -2.9289 c 0,-0.4211 -0.1052,-0.7434 -0.3158,-0.9667 -0.2106,-0.2297 -0.4977,-0.3446 -0.8614,-0.3446 -0.3701,0 -0.6637,0.1149 -0.8806,0.3446 -0.2106,0.2233 -0.3159,0.5456 -0.3159,0.9667 v 2.9289 h -1.34 v -5.3026 h 1.34 v 0.6604 c 0.1787,-0.2297 0.4052,-0.4084 0.6796,-0.536 0.2808,-0.134 0.587,-0.201 0.9189,-0.201 z m 2.6797,2.7087 c 0,-0.536 0.1053,-1.0113 0.3158,-1.4261 0.217,-0.4148 0.5105,-0.7338 0.8806,-0.9572 0.3701,-0.2233 0.7817,-0.335 1.2347,-0.335 0.3446,0 0.6732,0.0766 0.9859,0.2298 0.3127,0.1467 0.5615,0.3445 0.7465,0.5934 v -2.5173 h 1.359 v 7.0829 h -1.359 v -0.7849 c -0.1658,0.2616 -0.3987,0.4722 -0.6986,0.6317 -0.2999,0.1596 -0.6477,0.2393 -1.0433,0.2393 -0.4467,0 -0.8551,-0.1148 -1.2252,-0.3446 -0.3701,-0.2297 -0.6636,-0.5519 -0.8806,-0.9667 -0.2105,-0.4211 -0.3158,-0.9029 -0.3158,-1.4453 z m 4.1735,0.0192 c 0,-0.3254 -0.0642,-0.603 -0.1918,-0.8327 -0.1276,-0.2361 -0.2999,-0.4148 -0.5168,-0.536 -0.217,-0.1277 -0.4499,-0.1915 -0.6988,-0.1915 -0.2488,0 -0.4785,0.0607 -0.6891,0.1819 -0.2106,0.1212 -0.3829,0.2999 -0.5169,0.536 -0.1276,0.2297 -0.1914,0.5041 -0.1914,0.8231 0,0.3191 0.0638,0.5998 0.1914,0.8423 0.134,0.2361 0.3063,0.418 0.5169,0.5456 0.2169,0.1276 0.4467,0.1914 0.6891,0.1914 0.2489,0 0.4818,-0.0606 0.6988,-0.1818 0.2169,-0.1276 0.3892,-0.3063 0.5168,-0.536 0.1276,-0.2361 0.1918,-0.5169 0.1918,-0.8423 z m 4.322,2.7374 c -0.434,0 -0.823,-0.0766 -1.168,-0.2297 -0.344,-0.1595 -0.619,-0.3733 -0.823,-0.6413 -0.198,-0.268 -0.306,-0.5647 -0.325,-0.8901 h 1.349 c 0.026,0.2042 0.125,0.3733 0.297,0.5073 0.179,0.134 0.399,0.201 0.66,0.201 0.256,0 0.453,-0.0511 0.594,-0.1532 0.146,-0.1021 0.22,-0.2329 0.22,-0.3924 0,-0.1723 -0.089,-0.2999 -0.268,-0.3829 -0.172,-0.0893 -0.45,-0.185 -0.833,-0.2871 -0.395,-0.0957 -0.721,-0.1946 -0.976,-0.2967 -0.249,-0.1021 -0.466,-0.2585 -0.651,-0.469 -0.179,-0.2106 -0.268,-0.4946 -0.268,-0.8519 0,-0.2935 0.083,-0.5615 0.249,-0.804 0.172,-0.2425 0.415,-0.4339 0.727,-0.5743 0.319,-0.1404 0.693,-0.2106 1.12,-0.2106 0.632,0 1.136,0.1596 1.512,0.4786 0.377,0.3127 0.584,0.737 0.623,1.273 h -1.283 c -0.019,-0.2106 -0.108,-0.3765 -0.268,-0.4977 -0.153,-0.1276 -0.361,-0.1914 -0.622,-0.1914 -0.243,0 -0.431,0.0446 -0.565,0.134 -0.127,0.0893 -0.191,0.2137 -0.191,0.3733 0,0.1786 0.089,0.3158 0.268,0.4115 0.178,0.0894 0.456,0.1819 0.832,0.2776 0.383,0.0957 0.699,0.1946 0.948,0.2967 0.249,0.1021 0.463,0.2616 0.641,0.4786 0.185,0.2106 0.281,0.4913 0.287,0.8423 0,0.3063 -0.086,0.5807 -0.258,0.8231 -0.166,0.2425 -0.408,0.4339 -0.727,0.5743 -0.313,0.134 -0.68,0.201 -1.101,0.201 z m 7.75,-2.8523 c 0,0.1915 -0.012,0.3637 -0.038,0.5169 h -3.876 c 0.032,0.3828 0.166,0.6827 0.402,0.8997 0.236,0.217 0.526,0.3254 0.871,0.3254 0.497,0 0.852,-0.2137 1.062,-0.6413 h 1.445 c -0.153,0.5105 -0.446,0.9317 -0.88,1.2635 -0.434,0.3254 -0.967,0.4881 -1.599,0.4881 -0.51,0 -0.969,-0.1116 -1.378,-0.335 -0.402,-0.2297 -0.718,-0.5519 -0.947,-0.9667 -0.224,-0.4148 -0.335,-0.8933 -0.335,-1.4357 0,-0.5488 0.111,-1.0305 0.335,-1.4453 0.223,-0.4148 0.536,-0.7338 0.938,-0.9572 0.402,-0.2233 0.864,-0.335 1.387,-0.335 0.505,0 0.954,0.1085 1.35,0.3255 0.402,0.2169 0.711,0.5264 0.928,0.9284 0.224,0.3956 0.335,0.8519 0.335,1.3687 z m -1.387,-0.3828 c -0.007,-0.3446 -0.131,-0.619 -0.374,-0.8232 -0.242,-0.2106 -0.539,-0.3158 -0.89,-0.3158 -0.332,0 -0.612,0.1021 -0.842,0.3062 -0.223,0.1979 -0.361,0.4754 -0.412,0.8328 z m 4.939,-2.2302 c 0.631,0 1.142,0.201 1.531,0.603 0.389,0.3956 0.584,0.9508 0.584,1.6655 v 3.1107 h -1.34 v -2.9289 c 0,-0.4211 -0.105,-0.7434 -0.316,-0.9667 -0.21,-0.2297 -0.498,-0.3446 -0.861,-0.3446 -0.37,0 -0.664,0.1149 -0.881,0.3446 -0.21,0.2233 -0.316,0.5456 -0.316,0.9667 v 2.9289 h -1.34 v -5.3026 h 1.34 v 0.6604 c 0.179,-0.2297 0.405,-0.4084 0.68,-0.536 0.281,-0.134 0.587,-0.201 0.919,-0.201 z"
             fill="#7780a0"
             id="path24" />
          <rect
             x="79.156197"
             y="101.91"
             width="211.106"
             height="27.8445"
             rx="4.3506598"
             fill="#f8f9fb"
             id="rect26" />
          <rect
             x="79.156197"
             y="101.91"
             width="211.106"
             height="27.8445"
             rx="4.3506598"
             stroke="#e0e5f6"
             id="rect28" />
          <path
             d="m 91.2981,119.912 c -0.5278,0 -1.0029,-0.091 -1.4252,-0.272 -0.4223,-0.188 -0.7542,-0.452 -0.9955,-0.792 -0.2413,-0.339 -0.3619,-0.735 -0.3619,-1.187 h 1.38 c 0.0301,0.339 0.1621,0.618 0.3959,0.837 0.2413,0.218 0.5769,0.328 1.0067,0.328 0.445,0 0.7919,-0.106 1.0407,-0.317 0.2489,-0.219 0.3733,-0.498 0.3733,-0.837 0,-0.264 -0.0792,-0.479 -0.2375,-0.645 -0.1509,-0.166 -0.3432,-0.294 -0.5769,-0.384 -0.2263,-0.091 -0.543,-0.189 -0.9502,-0.294 -0.5128,-0.136 -0.9314,-0.272 -1.2556,-0.408 -0.3168,-0.143 -0.5882,-0.362 -0.8145,-0.656 -0.2262,-0.294 -0.3393,-0.686 -0.3393,-1.176 0,-0.453 0.1131,-0.849 0.3393,-1.188 0.2263,-0.339 0.543,-0.599 0.9502,-0.78 0.4072,-0.181 0.8786,-0.272 1.414,-0.272 0.7616,0 1.3838,0.192 1.8664,0.577 0.4902,0.377 0.7617,0.897 0.8145,1.561 h -1.4253 c -0.0226,-0.287 -0.1584,-0.532 -0.4072,-0.735 -0.2489,-0.204 -0.5769,-0.306 -0.9842,-0.306 -0.3695,0 -0.6711,0.095 -0.9049,0.283 -0.2338,0.189 -0.3507,0.46 -0.3507,0.815 0,0.241 0.0717,0.441 0.215,0.599 0.1508,0.151 0.3393,0.272 0.5655,0.362 0.2263,0.091 0.5355,0.189 0.9276,0.294 0.5203,0.143 0.9427,0.287 1.2669,0.43 0.3318,0.143 0.6109,0.366 0.8371,0.667 0.2338,0.294 0.3507,0.69 0.3507,1.188 0,0.4 -0.1094,0.777 -0.3281,1.131 -0.2111,0.355 -0.5241,0.641 -0.9389,0.86 -0.4072,0.211 -0.8898,0.317 -1.4479,0.317 z m 9.5839,-3.349 c 0,0.234 -0.015,0.445 -0.046,0.634 h -4.7618 c 0.0377,0.498 0.2225,0.897 0.5543,1.199 0.3318,0.302 0.739,0.452 1.2217,0.452 0.6938,0 1.1839,-0.29 1.4705,-0.871 h 1.3913 c -0.188,0.574 -0.532,1.045 -1.0293,1.414 -0.4902,0.362 -1.101,0.543 -1.8325,0.543 -0.5958,0 -1.1312,-0.132 -1.6063,-0.396 -0.4675,-0.271 -0.8371,-0.648 -1.1085,-1.131 -0.264,-0.49 -0.396,-1.056 -0.396,-1.697 0,-0.641 0.1282,-1.202 0.3846,-1.685 0.264,-0.49 0.6297,-0.867 1.0973,-1.131 0.4751,-0.264 1.018,-0.396 1.6289,-0.396 0.5882,0 1.1123,0.128 1.5723,0.385 0.46,0.256 0.8185,0.618 1.0745,1.085 0.257,0.46 0.385,0.992 0.385,1.595 z m -1.3464,-0.407 c -0.0075,-0.475 -0.1772,-0.856 -0.509,-1.142 -0.3318,-0.287 -0.7428,-0.43 -1.233,-0.43 -0.4449,0 -0.8257,0.143 -1.1425,0.43 -0.3167,0.279 -0.5052,0.66 -0.5656,1.142 z m 3.5394,-4.694 v 8.371 h -1.29 v -8.371 z m 7.04,5.101 c 0,0.234 -0.015,0.445 -0.045,0.634 h -4.762 c 0.037,0.498 0.222,0.897 0.554,1.199 0.332,0.302 0.739,0.452 1.222,0.452 0.693,0 1.184,-0.29 1.47,-0.871 h 1.392 c -0.189,0.574 -0.532,1.045 -1.03,1.414 -0.49,0.362 -1.101,0.543 -1.832,0.543 -0.596,0 -1.131,-0.132 -1.607,-0.396 -0.467,-0.271 -0.837,-0.648 -1.108,-1.131 -0.264,-0.49 -0.396,-1.056 -0.396,-1.697 0,-0.641 0.128,-1.202 0.385,-1.685 0.263,-0.49 0.629,-0.867 1.097,-1.131 0.475,-0.264 1.018,-0.396 1.629,-0.396 0.588,0 1.112,0.128 1.572,0.385 0.46,0.256 0.818,0.618 1.075,1.085 0.256,0.46 0.384,0.992 0.384,1.595 z m -1.346,-0.407 c -0.007,-0.475 -0.177,-0.856 -0.509,-1.142 -0.332,-0.287 -0.743,-0.43 -1.233,-0.43 -0.445,0 -0.826,0.143 -1.142,0.43 -0.317,0.279 -0.506,0.66 -0.566,1.142 z m 1.82,0.554 c 0,-0.641 0.128,-1.202 0.385,-1.685 0.264,-0.49 0.626,-0.867 1.086,-1.131 0.46,-0.264 0.988,-0.396 1.583,-0.396 0.754,0 1.377,0.181 1.867,0.543 0.497,0.354 0.833,0.863 1.006,1.527 h -1.391 c -0.113,-0.309 -0.294,-0.551 -0.543,-0.724 -0.249,-0.173 -0.562,-0.26 -0.939,-0.26 -0.528,0 -0.95,0.188 -1.267,0.565 -0.309,0.37 -0.463,0.89 -0.463,1.561 0,0.672 0.154,1.196 0.463,1.573 0.317,0.377 0.739,0.565 1.267,0.565 0.747,0 1.241,-0.328 1.482,-0.984 h 1.391 c -0.18,0.634 -0.52,1.139 -1.018,1.516 -0.497,0.37 -1.116,0.554 -1.855,0.554 -0.595,0 -1.123,-0.132 -1.583,-0.396 -0.46,-0.271 -0.822,-0.648 -1.086,-1.131 -0.257,-0.49 -0.385,-1.056 -0.385,-1.697 z m 8.352,-2.058 v 3.45 c 0,0.234 0.053,0.403 0.158,0.509 0.113,0.098 0.302,0.147 0.566,0.147 h 0.792 v 1.075 h -1.018 c -0.581,0 -1.026,-0.136 -1.335,-0.408 -0.309,-0.271 -0.464,-0.712 -0.464,-1.323 v -3.45 h -0.735 V 113.6 h 0.735 v -1.55 h 1.301 v 1.55 h 1.516 v 1.052 z m 8.051,1.911 c 0,0.234 -0.015,0.445 -0.045,0.634 h -4.762 c 0.037,0.498 0.222,0.897 0.554,1.199 0.332,0.302 0.739,0.452 1.222,0.452 0.694,0 1.184,-0.29 1.47,-0.871 h 1.392 c -0.189,0.574 -0.532,1.045 -1.03,1.414 -0.49,0.362 -1.101,0.543 -1.832,0.543 -0.596,0 -1.131,-0.132 -1.607,-0.396 -0.467,-0.271 -0.837,-0.648 -1.108,-1.131 -0.264,-0.49 -0.396,-1.056 -0.396,-1.697 0,-0.641 0.128,-1.202 0.385,-1.685 0.264,-0.49 0.629,-0.867 1.097,-1.131 0.475,-0.264 1.018,-0.396 1.629,-0.396 0.588,0 1.112,0.128 1.572,0.385 0.46,0.256 0.818,0.618 1.075,1.085 0.256,0.46 0.384,0.992 0.384,1.595 z m -1.346,-0.407 c -0.007,-0.475 -0.177,-0.856 -0.509,-1.142 -0.332,-0.287 -0.743,-0.43 -1.233,-0.43 -0.445,0 -0.826,0.143 -1.142,0.43 -0.317,0.279 -0.506,0.66 -0.566,1.142 z m 7.962,0.407 c 0,0.234 -0.015,0.445 -0.045,0.634 h -4.762 c 0.038,0.498 0.222,0.897 0.554,1.199 0.332,0.302 0.739,0.452 1.222,0.452 0.694,0 1.184,-0.29 1.47,-0.871 h 1.392 c -0.189,0.574 -0.532,1.045 -1.03,1.414 -0.49,0.362 -1.101,0.543 -1.832,0.543 -0.596,0 -1.131,-0.132 -1.606,-0.396 -0.468,-0.271 -0.837,-0.648 -1.109,-1.131 -0.264,-0.49 -0.396,-1.056 -0.396,-1.697 0,-0.641 0.128,-1.202 0.385,-1.685 0.264,-0.49 0.629,-0.867 1.097,-1.131 0.475,-0.264 1.018,-0.396 1.629,-0.396 0.588,0 1.112,0.128 1.572,0.385 0.46,0.256 0.818,0.618 1.075,1.085 0.256,0.46 0.384,0.992 0.384,1.595 z m -1.346,-0.407 c -0.007,-0.475 -0.177,-0.856 -0.509,-1.142 -0.331,-0.287 -0.742,-0.43 -1.233,-0.43 -0.445,0 -0.825,0.143 -1.142,0.43 -0.317,0.279 -0.505,0.66 -0.566,1.142 z m 3.54,-1.651 c 0.188,-0.317 0.437,-0.562 0.746,-0.736 0.317,-0.181 0.69,-0.271 1.12,-0.271 v 1.335 h -0.328 c -0.505,0 -0.89,0.128 -1.154,0.384 -0.256,0.257 -0.384,0.702 -0.384,1.335 v 3.281 h -1.29 V 113.6 h 1.29 z"
             fill="#7780a0"
             id="path30" />
          <path
             d="m 276.974,118.192 3.608,-4.179 c 0.069,-0.079 0.106,-0.17 0.108,-0.262 0.002,-0.092 -0.031,-0.183 -0.096,-0.264 -0.064,-0.08 -0.158,-0.147 -0.272,-0.194 -0.114,-0.046 -0.243,-0.071 -0.374,-0.071 h -7.217 c -0.132,0 -0.261,0.025 -0.375,0.071 -0.114,0.047 -0.208,0.114 -0.272,0.194 -0.065,0.081 -0.098,0.172 -0.096,0.264 0.002,0.093 0.04,0.183 0.108,0.262 l 3.608,4.179 c 0.066,0.076 0.16,0.14 0.271,0.184 0.111,0.044 0.236,0.067 0.364,0.067 0.128,0 0.253,-0.023 0.365,-0.067 0.111,-0.044 0.204,-0.108 0.27,-0.184 z"
             fill="#7780a0"
             id="path32" />
        </g>
        <g
           filter="url(#filter4_i_3436_26105)"
           id="g52">
          <rect
             width="233.418"
             height="52.3274"
             transform="translate(68,140.911)"
             fill="#f7f9fc"
             id="rect36"
             x="0"
             y="0" />
          <g
             filter="url(#filter5_d_3436_26105)"
             id="g42">
            <rect
               x="79.156197"
               y="152.067"
               width="102.763"
               height="30.0154"
               rx="2.78901"
               fill="#004d93"
               id="rect38" />
            <path
               d="m 105.149,166.514 c 0.476,0.096 0.855,0.323 1.137,0.68 0.29,0.35 0.436,0.763 0.436,1.239 0,0.662 -0.224,1.186 -0.67,1.573 -0.439,0.379 -1.078,0.569 -1.919,0.569 h -3.38 v -7.877 h 3.313 c 0.796,0 1.406,0.175 1.83,0.525 0.431,0.349 0.647,0.84 0.647,1.472 0,0.491 -0.13,0.893 -0.39,1.205 -0.253,0.313 -0.588,0.517 -1.004,0.614 z m -2.823,-0.513 h 1.417 c 0.394,0 0.692,-0.086 0.892,-0.257 0.209,-0.178 0.313,-0.431 0.313,-0.759 0,-0.327 -0.101,-0.58 -0.301,-0.758 -0.201,-0.179 -0.51,-0.268 -0.926,-0.268 h -1.395 z m 1.495,3.291 c 0.416,0 0.736,-0.09 0.959,-0.268 0.223,-0.186 0.335,-0.454 0.335,-0.803 0,-0.35 -0.115,-0.618 -0.346,-0.804 -0.223,-0.193 -0.543,-0.29 -0.959,-0.29 h -1.484 v 2.165 z m 9.583,-2.042 c 0,0.156 -0.018,0.335 -0.055,0.536 h -4.53 c 0.023,0.55 0.171,0.955 0.447,1.216 0.275,0.26 0.617,0.39 1.026,0.39 0.364,0 0.666,-0.089 0.904,-0.268 0.245,-0.178 0.401,-0.42 0.468,-0.725 h 1.662 c -0.081,0.432 -0.256,0.818 -0.524,1.16 -0.268,0.343 -0.614,0.61 -1.037,0.804 -0.417,0.193 -0.882,0.29 -1.395,0.29 -0.602,0 -1.138,-0.127 -1.606,-0.38 -0.469,-0.26 -0.833,-0.628 -1.094,-1.104 -0.26,-0.476 -0.39,-1.038 -0.39,-1.685 0,-0.647 0.13,-1.208 0.39,-1.684 0.261,-0.484 0.625,-0.852 1.094,-1.105 0.468,-0.253 1.004,-0.379 1.606,-0.379 0.61,0 1.142,0.126 1.595,0.379 0.461,0.253 0.815,0.603 1.06,1.049 0.253,0.439 0.379,0.941 0.379,1.506 z m -1.584,-0.156 c 0.023,-0.506 -0.111,-0.889 -0.401,-1.149 -0.283,-0.26 -0.632,-0.391 -1.049,-0.391 -0.424,0 -0.781,0.131 -1.071,0.391 -0.29,0.26 -0.45,0.643 -0.48,1.149 z m 5.158,1.908 1.562,-4.608 h 1.674 l -2.287,6.181 h -1.919 l -2.287,-6.181 h 1.684 z m 9.691,-1.752 c 0,0.156 -0.019,0.335 -0.056,0.536 h -4.529 c 0.022,0.55 0.171,0.955 0.446,1.216 0.275,0.26 0.617,0.39 1.026,0.39 0.365,0 0.666,-0.089 0.904,-0.268 0.245,-0.178 0.401,-0.42 0.468,-0.725 h 1.663 c -0.082,0.432 -0.257,0.818 -0.525,1.16 -0.267,0.343 -0.613,0.61 -1.037,0.804 -0.417,0.193 -0.882,0.29 -1.395,0.29 -0.602,0 -1.138,-0.127 -1.606,-0.38 -0.469,-0.26 -0.833,-0.628 -1.094,-1.104 -0.26,-0.476 -0.39,-1.038 -0.39,-1.685 0,-0.647 0.13,-1.208 0.39,-1.684 0.261,-0.484 0.625,-0.852 1.094,-1.105 0.468,-0.253 1.004,-0.379 1.606,-0.379 0.61,0 1.142,0.126 1.596,0.379 0.461,0.253 0.814,0.603 1.059,1.049 0.253,0.439 0.38,0.941 0.38,1.506 z m -1.584,-0.156 c 0.022,-0.506 -0.112,-0.889 -0.402,-1.149 -0.283,-0.26 -0.632,-0.391 -1.049,-0.391 -0.424,0 -0.781,0.131 -1.071,0.391 -0.29,0.26 -0.45,0.643 -0.479,1.149 z m 4.6,-2.778 c 0.751,0 1.353,0.19 1.807,0.569 0.454,0.379 0.736,0.885 0.848,1.517 h -1.473 c -0.059,-0.297 -0.193,-0.535 -0.401,-0.714 -0.209,-0.178 -0.48,-0.268 -0.815,-0.268 -0.268,0 -0.476,0.064 -0.625,0.19 -0.148,0.127 -0.223,0.298 -0.223,0.513 0,0.171 0.06,0.309 0.179,0.413 0.119,0.104 0.268,0.186 0.446,0.246 0.179,0.059 0.435,0.13 0.77,0.211 0.468,0.105 0.848,0.216 1.138,0.335 0.297,0.112 0.55,0.294 0.758,0.547 0.216,0.245 0.324,0.58 0.324,1.004 0,0.528 -0.208,0.956 -0.625,1.283 -0.409,0.327 -0.963,0.491 -1.662,0.491 -0.803,0 -1.447,-0.179 -1.93,-0.536 -0.483,-0.364 -0.777,-0.881 -0.881,-1.551 h 1.506 c 0.037,0.305 0.171,0.547 0.401,0.726 0.231,0.171 0.532,0.256 0.904,0.256 0.268,0 0.472,-0.063 0.614,-0.189 0.141,-0.134 0.211,-0.305 0.211,-0.514 0,-0.178 -0.063,-0.323 -0.189,-0.435 -0.119,-0.111 -0.272,-0.197 -0.458,-0.256 -0.178,-0.06 -0.435,-0.13 -0.769,-0.212 -0.461,-0.104 -0.837,-0.208 -1.127,-0.313 -0.283,-0.111 -0.528,-0.286 -0.736,-0.524 -0.201,-0.238 -0.302,-0.565 -0.302,-0.982 0,-0.535 0.205,-0.97 0.614,-1.305 0.409,-0.335 0.974,-0.502 1.696,-0.502 z m 6.975,4.909 v 1.35 h -0.825 c -0.692,0 -1.224,-0.168 -1.596,-0.502 -0.364,-0.335 -0.546,-0.893 -0.546,-1.674 v -2.677 h -0.859 v -1.328 h 0.859 v -1.528 h 1.573 v 1.528 h 1.383 v 1.328 h -1.383 v 2.699 c 0,0.298 0.059,0.506 0.178,0.625 0.119,0.119 0.32,0.179 0.603,0.179 z m 0.722,-6.605 c 0,-0.253 0.089,-0.457 0.268,-0.613 0.178,-0.164 0.413,-0.246 0.703,-0.246 0.29,0 0.524,0.082 0.703,0.246 0.178,0.156 0.267,0.36 0.267,0.613 0,0.246 -0.089,0.45 -0.267,0.614 -0.179,0.156 -0.413,0.234 -0.703,0.234 -0.29,0 -0.525,-0.078 -0.703,-0.234 -0.179,-0.164 -0.268,-0.368 -0.268,-0.614 z m 1.752,1.774 v 6.181 h -1.573 v -6.181 z m 3.612,-0.078 c 0.521,0 0.967,0.123 1.339,0.368 0.372,0.246 0.636,0.577 0.792,0.993 v -1.283 h 1.562 v 6.203 c 0,0.573 -0.116,1.086 -0.346,1.539 -0.223,0.462 -0.562,0.822 -1.015,1.083 -0.447,0.26 -0.989,0.39 -1.629,0.39 -0.893,0 -1.614,-0.212 -2.164,-0.636 -0.551,-0.424 -0.885,-1 -1.004,-1.729 h 1.55 c 0.09,0.312 0.261,0.554 0.513,0.725 0.261,0.179 0.592,0.268 0.993,0.268 0.461,0 0.833,-0.138 1.116,-0.413 0.283,-0.268 0.424,-0.677 0.424,-1.227 v -1.317 c -0.156,0.417 -0.42,0.752 -0.792,1.005 -0.372,0.245 -0.818,0.368 -1.339,0.368 -0.521,0 -0.989,-0.127 -1.406,-0.38 -0.416,-0.252 -0.743,-0.617 -0.981,-1.093 -0.231,-0.483 -0.346,-1.049 -0.346,-1.696 0,-0.647 0.115,-1.208 0.346,-1.684 0.238,-0.484 0.565,-0.852 0.981,-1.105 0.417,-0.253 0.885,-0.379 1.406,-0.379 z m 0.491,1.372 c -0.491,0 -0.885,0.16 -1.183,0.48 -0.297,0.32 -0.446,0.759 -0.446,1.316 0,0.558 0.149,0.997 0.446,1.317 0.298,0.312 0.692,0.468 1.183,0.468 0.476,0 0.866,-0.16 1.171,-0.479 0.313,-0.328 0.469,-0.763 0.469,-1.306 0,-0.55 -0.156,-0.985 -0.469,-1.305 -0.305,-0.327 -0.695,-0.491 -1.171,-0.491 z m 10.208,1.562 c 0,0.156 -0.019,0.335 -0.056,0.536 h -4.529 c 0.022,0.55 0.171,0.955 0.446,1.216 0.275,0.26 0.617,0.39 1.027,0.39 0.364,0 0.665,-0.089 0.903,-0.268 0.246,-0.178 0.402,-0.42 0.469,-0.725 h 1.662 c -0.082,0.432 -0.257,0.818 -0.524,1.16 -0.268,0.343 -0.614,0.61 -1.038,0.804 -0.416,0.193 -0.881,0.29 -1.394,0.29 -0.603,0 -1.138,-0.127 -1.607,-0.38 -0.468,-0.26 -0.833,-0.628 -1.093,-1.104 -0.26,-0.476 -0.391,-1.038 -0.391,-1.685 0,-0.647 0.131,-1.208 0.391,-1.684 0.26,-0.484 0.625,-0.852 1.093,-1.105 0.469,-0.253 1.004,-0.379 1.607,-0.379 0.61,0 1.141,0.126 1.595,0.379 0.461,0.253 0.814,0.603 1.06,1.049 0.253,0.439 0.379,0.941 0.379,1.506 z m -1.584,-0.156 c 0.022,-0.506 -0.112,-0.889 -0.402,-1.149 -0.282,-0.26 -0.632,-0.391 -1.048,-0.391 -0.424,0 -0.781,0.131 -1.071,0.391 -0.29,0.26 -0.45,0.643 -0.48,1.149 z m 6.151,-2.789 c 0.714,0 1.283,0.234 1.707,0.703 0.424,0.468 0.636,1.126 0.636,1.974 v 3.593 h -1.562 v -3.414 c 0,-0.491 -0.127,-0.87 -0.38,-1.138 -0.252,-0.275 -0.598,-0.413 -1.037,-0.413 -0.446,0 -0.803,0.145 -1.071,0.435 -0.268,0.29 -0.402,0.707 -0.402,1.25 v 3.28 h -1.573 v -6.181 h 1.573 v 1.238 c 0.164,-0.416 0.432,-0.74 0.804,-0.97 0.379,-0.238 0.814,-0.357 1.305,-0.357 z"
               fill="#ffffff"
               id="path40" />
          </g>
          <g
             filter="url(#filter6_d_3436_26105)"
             id="g50">
            <rect
               x="187.5"
               y="152.067"
               width="102.763"
               height="30.0154"
               rx="2.78901"
               fill="#ffffff"
               id="rect44" />
            <rect
               x="187.871"
               y="152.438"
               width="102.021"
               height="29.2735"
               rx="2.4180901"
               stroke="#e3e4ea"
               stroke-width="0.741844"
               id="rect46" />
            <path
               d="m 215.427,169.091 h -3.101 l -0.513,1.484 h -1.64 l 2.8,-7.798 h 1.818 l 2.801,7.798 h -1.651 z m -0.424,-1.25 -1.126,-3.257 -1.127,3.257 z m 6.829,-3.536 c 0.736,0 1.331,0.234 1.785,0.703 0.453,0.461 0.68,1.108 0.68,1.941 v 3.626 h -1.562 v -3.414 c 0,-0.491 -0.122,-0.867 -0.368,-1.127 -0.245,-0.268 -0.58,-0.402 -1.004,-0.402 -0.431,0 -0.773,0.134 -1.026,0.402 -0.246,0.26 -0.368,0.636 -0.368,1.127 v 3.414 h -1.562 v -6.181 h 1.562 v 0.77 c 0.208,-0.268 0.472,-0.476 0.792,-0.625 0.327,-0.156 0.684,-0.234 1.071,-0.234 z m 7.144,0 c 0.736,0 1.331,0.234 1.785,0.703 0.454,0.461 0.68,1.108 0.68,1.941 v 3.626 h -1.561 v -3.414 c 0,-0.491 -0.123,-0.867 -0.369,-1.127 -0.245,-0.268 -0.58,-0.402 -1.004,-0.402 -0.431,0 -0.773,0.134 -1.026,0.402 -0.245,0.26 -0.368,0.636 -0.368,1.127 v 3.414 h -1.562 v -6.181 h 1.562 v 0.77 c 0.208,-0.268 0.472,-0.476 0.792,-0.625 0.327,-0.156 0.684,-0.234 1.071,-0.234 z m 9.554,0.089 v 6.181 h -1.573 v -0.781 c -0.201,0.267 -0.465,0.479 -0.792,0.636 -0.32,0.148 -0.67,0.223 -1.049,0.223 -0.483,0 -0.911,-0.101 -1.283,-0.302 -0.372,-0.208 -0.666,-0.509 -0.881,-0.903 -0.208,-0.402 -0.313,-0.878 -0.313,-1.428 v -3.626 h 1.562 v 3.403 c 0,0.491 0.123,0.87 0.368,1.138 0.246,0.26 0.58,0.39 1.004,0.39 0.432,0 0.77,-0.13 1.016,-0.39 0.245,-0.268 0.368,-0.647 0.368,-1.138 v -3.403 z m 2.871,-2.075 v 8.256 h -1.562 v -8.256 z m 7.057,5.031 c 0,0.224 -0.015,0.424 -0.044,0.603 h -4.519 c 0.038,0.446 0.194,0.796 0.469,1.049 0.275,0.252 0.613,0.379 1.015,0.379 0.58,0 0.993,-0.249 1.238,-0.748 h 1.685 c -0.178,0.595 -0.521,1.086 -1.026,1.473 -0.506,0.379 -1.127,0.569 -1.863,0.569 -0.595,0 -1.131,-0.13 -1.607,-0.39 -0.468,-0.268 -0.837,-0.644 -1.104,-1.127 -0.261,-0.484 -0.391,-1.041 -0.391,-1.674 0,-0.639 0.13,-1.201 0.391,-1.684 0.26,-0.484 0.624,-0.855 1.093,-1.116 0.469,-0.26 1.008,-0.39 1.618,-0.39 0.587,0 1.111,0.126 1.573,0.379 0.468,0.253 0.829,0.614 1.082,1.082 0.26,0.461 0.39,0.993 0.39,1.595 z m -1.617,-0.446 c -0.008,-0.401 -0.153,-0.721 -0.436,-0.959 -0.282,-0.246 -0.628,-0.368 -1.037,-0.368 -0.387,0 -0.714,0.119 -0.982,0.357 -0.26,0.23 -0.42,0.554 -0.479,0.97 z m 4.088,-1.55 c 0.2,-0.328 0.461,-0.584 0.781,-0.77 0.327,-0.186 0.699,-0.279 1.115,-0.279 v 1.64 h -0.413 c -0.491,0 -0.862,0.115 -1.115,0.346 -0.246,0.23 -0.368,0.632 -0.368,1.205 v 3.079 h -1.562 v -6.181 h 1.562 z m 8.462,1.996 c 0,0.224 -0.015,0.424 -0.045,0.603 h -4.518 c 0.037,0.446 0.194,0.796 0.469,1.049 0.275,0.252 0.613,0.379 1.015,0.379 0.58,0 0.993,-0.249 1.238,-0.748 h 1.685 c -0.179,0.595 -0.521,1.086 -1.027,1.473 -0.505,0.379 -1.126,0.569 -1.863,0.569 -0.595,0 -1.13,-0.13 -1.606,-0.39 -0.469,-0.268 -0.837,-0.644 -1.105,-1.127 -0.26,-0.484 -0.39,-1.041 -0.39,-1.674 0,-0.639 0.13,-1.201 0.39,-1.684 0.261,-0.484 0.625,-0.855 1.094,-1.116 0.468,-0.26 1.008,-0.39 1.617,-0.39 0.588,0 1.112,0.126 1.573,0.379 0.469,0.253 0.83,0.614 1.083,1.082 0.26,0.461 0.39,0.993 0.39,1.595 z m -1.618,-0.446 c -0.007,-0.401 -0.152,-0.721 -0.435,-0.959 -0.282,-0.246 -0.628,-0.368 -1.037,-0.368 -0.387,0 -0.714,0.119 -0.982,0.357 -0.26,0.23 -0.42,0.554 -0.48,0.97 z m 5.951,-2.599 c 0.737,0 1.332,0.234 1.785,0.703 0.454,0.461 0.681,1.108 0.681,1.941 v 3.626 h -1.562 v -3.414 c 0,-0.491 -0.123,-0.867 -0.368,-1.127 -0.246,-0.268 -0.58,-0.402 -1.004,-0.402 -0.431,0 -0.774,0.134 -1.026,0.402 -0.246,0.26 -0.369,0.636 -0.369,1.127 v 3.414 H 260.3 v -6.181 h 1.561 v 0.77 c 0.209,-0.268 0.473,-0.476 0.792,-0.625 0.328,-0.156 0.685,-0.234 1.071,-0.234 z"
               fill="#2a2b2d"
               id="path48" />
          </g>
        </g>
      </g>
    </g>
    <rect
       x="68.3433"
       y="43.195801"
       width="232.731"
       height="149.041"
       rx="6.6178002"
       stroke="#dcdce0"
       stroke-width="0.686523"
       id="rect58" />
  </g>
  <defs
     id="defs183">
    <filter
       id="filter0_dd_3436_26105"
       x="0.87332898"
       y="0.89836901"
       width="367.67099"
       height="283.98099"
       filterUnits="userSpaceOnUse"
       color-interpolation-filters="sRGB">
      <feFlood
         flood-opacity="0"
         result="BackgroundImageFix"
         id="feFlood62" />
      <feColorMatrix
         in="SourceAlpha"
         type="matrix"
         values="0 0 0 0 0 0 0 0 0 0 0 0 0 0 0 0 0 0 127 0"
         result="hardAlpha"
         id="feColorMatrix64" />
      <feOffset
         dy="25.1725"
         id="feOffset66" />
      <feGaussianBlur
         stdDeviation="33.5633"
         id="feGaussianBlur68" />
      <feColorMatrix
         type="matrix"
         values="0 0 0 0 0.654046 0 0 0 0 0.683294 0 0 0 0 0.786637 0 0 0 0.1 0"
         id="feColorMatrix70" />
      <feBlend
         mode="multiply"
         in2="BackgroundImageFix"
         result="effect1_dropShadow_3436_26105"
         id="feBlend72" />
      <feColorMatrix
         in="SourceAlpha"
         type="matrix"
         values="0 0 0 0 0 0 0 0 0 0 0 0 0 0 0 0 0 0 127 0"
         result="hardAlpha"
         id="feColorMatrix74" />
      <feOffset
         dy="16.7817"
         id="feOffset76" />
      <feGaussianBlur
         stdDeviation="23.0748"
         id="feGaussianBlur78" />
      <feColorMatrix
         type="matrix"
         values="0 0 0 0 0.45098 0 0 0 0 0.469804 0 0 0 0 0.568627 0 0 0 0.18 0"
         id="feColorMatrix80" />
      <feBlend
         mode="normal"
         in2="effect1_dropShadow_3436_26105"
         result="effect2_dropShadow_3436_26105"
         id="feBlend82" />
      <feBlend
         mode="normal"
         in="SourceGraphic"
         in2="effect2_dropShadow_3436_26105"
         result="shape"
         id="feBlend84" />
    </filter>
    <filter
       id="filter1_i_3436_26105"
       x="68"
       y="42.852501"
       width="233.418"
       height="35.323502"
       filterUnits="userSpaceOnUse"
       color-interpolation-filters="sRGB">
      <feFlood
         flood-opacity="0"
         result="BackgroundImageFix"
         id="feFlood87" />
      <feBlend
         mode="normal"
         in="SourceGraphic"
         in2="BackgroundImageFix"
         result="shape"
         id="feBlend89" />
      <feColorMatrix
         in="SourceAlpha"
         type="matrix"
         values="0 0 0 0 0 0 0 0 0 0 0 0 0 0 0 0 0 0 127 0"
         result="hardAlpha"
         id="feColorMatrix91" />
      <feOffset
         dy="-0.92967"
         id="feOffset93" />
      <feComposite
         in2="hardAlpha"
         operator="arithmetic"
         k2="-1"
         k3="1"
         id="feComposite95"
         k1="0"
         k4="0" />
      <feColorMatrix
         type="matrix"
         values="0 0 0 0 0.831373 0 0 0 0 0.85098 0 0 0 0 0.866667 0 0 0 1 0"
         id="feColorMatrix97" />
      <feBlend
         mode="normal"
         in2="shape"
         result="effect1_innerShadow_3436_26105"
         id="feBlend99" />
    </filter>
    <filter
       id="filter2_i_3436_26105"
       x="68"
       y="78.1763"
       width="233.418"
       height="115.062"
       filterUnits="userSpaceOnUse"
       color-interpolation-filters="sRGB">
      <feFlood
         flood-opacity="0"
         result="BackgroundImageFix"
         id="feFlood102" />
      <feBlend
         mode="normal"
         in="SourceGraphic"
         in2="BackgroundImageFix"
         result="shape"
         id="feBlend104" />
      <feColorMatrix
         in="SourceAlpha"
         type="matrix"
         values="0 0 0 0 0 0 0 0 0 0 0 0 0 0 0 0 0 0 127 0"
         result="hardAlpha"
         id="feColorMatrix106" />
      <feOffset
         dy="-0.870133"
         id="feOffset108" />
      <feComposite
         in2="hardAlpha"
         operator="arithmetic"
         k2="-1"
         k3="1"
         id="feComposite110"
         k1="0"
         k4="0" />
      <feColorMatrix
         type="matrix"
         values="0 0 0 0 0.956863 0 0 0 0 0.956863 0 0 0 0 0.956863 0 0 0 1 0"
         id="feColorMatrix112" />
      <feBlend
         mode="normal"
         in2="shape"
         result="effect1_innerShadow_3436_26105"
         id="feBlend114" />
    </filter>
    <filter
       id="filter3_i_3436_26105"
       x="68"
       y="78.1763"
       width="233.418"
       height="62.7346"
       filterUnits="userSpaceOnUse"
       color-interpolation-filters="sRGB">
      <feFlood
         flood-opacity="0"
         result="BackgroundImageFix"
         id="feFlood117" />
      <feBlend
         mode="normal"
         in="SourceGraphic"
         in2="BackgroundImageFix"
         result="shape"
         id="feBlend119" />
      <feColorMatrix
         in="SourceAlpha"
         type="matrix"
         values="0 0 0 0 0 0 0 0 0 0 0 0 0 0 0 0 0 0 127 0"
         result="hardAlpha"
         id="feColorMatrix121" />
      <feOffset
         dy="-0.92967"
         id="feOffset123" />
      <feComposite
         in2="hardAlpha"
         operator="arithmetic"
         k2="-1"
         k3="1"
         id="feComposite125"
         k1="0"
         k4="0" />
      <feColorMatrix
         type="matrix"
         values="0 0 0 0 0.831373 0 0 0 0 0.85098 0 0 0 0 0.866667 0 0 0 1 0"
         id="feColorMatrix127" />
      <feBlend
         mode="normal"
         in2="shape"
         result="effect1_innerShadow_3436_26105"
         id="feBlend129" />
    </filter>
    <filter
       id="filter4_i_3436_26105"
       x="68"
       y="140.911"
       width="233.418"
       height="52.3274"
       filterUnits="userSpaceOnUse"
       color-interpolation-filters="sRGB">
      <feFlood
         flood-opacity="0"
         result="BackgroundImageFix"
         id="feFlood132" />
      <feBlend
         mode="normal"
         in="SourceGraphic"
         in2="BackgroundImageFix"
         result="shape"
         id="feBlend134" />
      <feColorMatrix
         in="SourceAlpha"
         type="matrix"
         values="0 0 0 0 0 0 0 0 0 0 0 0 0 0 0 0 0 0 127 0"
         result="hardAlpha"
         id="feColorMatrix136" />
      <feOffset
         dy="-0.92967"
         id="feOffset138" />
      <feComposite
         in2="hardAlpha"
         operator="arithmetic"
         k2="-1"
         k3="1"
         id="feComposite140"
         k1="0"
         k4="0" />
      <feColorMatrix
         type="matrix"
         values="0 0 0 0 0.831373 0 0 0 0 0.85098 0 0 0 0 0.866667 0 0 0 1 0"
         id="feColorMatrix142" />
      <feBlend
         mode="normal"
         in2="shape"
         result="effect1_innerShadow_3436_26105"
         id="feBlend144" />
    </filter>
    <filter
       id="filter5_d_3436_26105"
       x="75.446999"
       y="149.841"
       width="110.18"
       height="37.4338"
       filterUnits="userSpaceOnUse"
       color-interpolation-filters="sRGB">
      <feFlood
         flood-opacity="0"
         result="BackgroundImageFix"
         id="feFlood147" />
      <feColorMatrix
         in="SourceAlpha"
         type="matrix"
         values="0 0 0 0 0 0 0 0 0 0 0 0 0 0 0 0 0 0 127 0"
         result="hardAlpha"
         id="feColorMatrix149" />
      <feOffset
         dy="1.48369"
         id="feOffset151" />
      <feGaussianBlur
         stdDeviation="1.85461"
         id="feGaussianBlur153" />
      <feColorMatrix
         type="matrix"
         values="0 0 0 0 0.0980392 0 0 0 0 0.152941 0 0 0 0 0.203922 0 0 0 0.11 0"
         id="feColorMatrix155" />
      <feBlend
         mode="normal"
         in2="BackgroundImageFix"
         result="effect1_dropShadow_3436_26105"
         id="feBlend157" />
      <feBlend
         mode="normal"
         in="SourceGraphic"
         in2="effect1_dropShadow_3436_26105"
         result="shape"
         id="feBlend159" />
    </filter>
    <filter
       id="filter6_d_3436_26105"
       x="183.791"
       y="149.841"
       width="110.18"
       height="37.4338"
       filterUnits="userSpaceOnUse"
       color-interpolation-filters="sRGB">
      <feFlood
         flood-opacity="0"
         result="BackgroundImageFix"
         id="feFlood162" />
      <feColorMatrix
         in="SourceAlpha"
         type="matrix"
         values="0 0 0 0 0 0 0 0 0 0 0 0 0 0 0 0 0 0 127 0"
         result="hardAlpha"
         id="feColorMatrix164" />
      <feOffset
         dy="1.48369"
         id="feOffset166" />
      <feGaussianBlur
         stdDeviation="1.85461"
         id="feGaussianBlur168" />
      <feColorMatrix
         type="matrix"
         values="0 0 0 0 0.0980392 0 0 0 0 0.152941 0 0 0 0 0.203922 0 0 0 0.11 0"
         id="feColorMatrix170" />
      <feBlend
         mode="normal"
         in2="BackgroundImageFix"
         result="effect1_dropShadow_3436_26105"
         id="feBlend172" />
      <feBlend
         mode="normal"
         in="SourceGraphic"
         in2="effect1_dropShadow_3436_26105"
         result="shape"
         id="feBlend174" />
    </filter>
    <clipPath
       id="clip0_3436_26105">
      <rect
         x="68"
         y="42.852501"
         width="233.418"
         height="149.72701"
         rx="6.96106"
         fill="#ffffff"
         id="rect177" />
    </clipPath>
    <clipPath
       id="clip1_3436_26105">
      <rect
         width="13.0193"
         height="13.0114"
         fill="#ffffff"
         transform="translate(79.1562,54.0087)"
         id="rect180"
         x="0"
         y="0" />
    </clipPath>
  </defs>
</svg>
