<?xml version="1.0" encoding="UTF-8" standalone="no"?>
<svg
   width="204"
   height="72"
   viewBox="0 0 204 72"
   fill="none"
   version="1.1"
   id="svg45"
   sodipodi:docname="aspects-2-2.svg"
   inkscape:version="1.1.2 (0a00cf5339, 2022-02-04)"
   xmlns:inkscape="http://www.inkscape.org/namespaces/inkscape"
   xmlns:sodipodi="http://sodipodi.sourceforge.net/DTD/sodipodi-0.dtd"
   xmlns="http://www.w3.org/2000/svg"
   xmlns:svg="http://www.w3.org/2000/svg">
  <sodipodi:namedview
     id="namedview47"
     pagecolor="#ffffff"
     bordercolor="#666666"
     borderopacity="1.0"
     inkscape:pageshadow="2"
     inkscape:pageopacity="0.0"
     inkscape:pagecheckerboard="0"
     showgrid="false"
     fit-margin-top="0"
     fit-margin-left="0"
     fit-margin-right="0"
     fit-margin-bottom="0"
     inkscape:zoom="2.4611111"
     inkscape:cx="52.009029"
     inkscape:cy="29.051919"
     inkscape:window-width="1920"
     inkscape:window-height="1017"
     inkscape:window-x="0"
     inkscape:window-y="0"
     inkscape:window-maximized="1"
     inkscape:current-layer="g4" />
  <g
     filter="url(#filter0_dd_3436_26211)"
     id="g4"
     transform="translate(-33,-20.8434)">
    <path
       fill-rule="evenodd"
       clip-rule="evenodd"
       d="m 186.148,20.8434 h 43.756 c 3.919,0 7.096,3.2235 7.096,7.2 v 57.6 c 0,3.9764 -3.177,7.2 -7.096,7.2 h -43.756 c 0,-3.3137 -2.648,-6 -5.913,-6 -3.266,0 -5.913,2.6863 -5.913,6 H 41.2783 c -4.572,0 -8.2783,-3.7608 -8.2783,-8.4 v -55.2 c 0,-4.6392 3.7063,-8.4 8.2783,-8.4 H 174.322 c 0,3.3137 2.647,6 5.913,6 3.265,0 5.913,-2.6863 5.913,-6 z"
       fill="#ffffff"
       id="path2" />
  </g>
  <rect
     x="150.90199"
     y="13.4999"
     width="45"
     height="45"
     fill="#ffffff"
     id="rect6" />
  <rect
     x="150.90199"
     y="13.4999"
     width="45"
     height="45"
     stroke="#f4f4f4"
     stroke-width="0.599999"
     id="rect8" />
  <path
     d="m 153.602,16.1999 h 1.365 v 1.3656 h -1.365 z m 1.365,0 h 1.366 v 1.3656 h -1.366 z m 1.366,0 h 1.365 v 1.3656 h -1.365 z m 1.365,0 h 1.366 v 1.3656 h -1.366 z m 1.366,0 h 1.365 v 1.3656 h -1.365 z m 1.365,0 h 1.366 v 1.3656 h -1.366 z m 1.366,0 h 1.365 v 1.3656 h -1.365 z m 5.462,0 h 1.365 v 1.3656 h -1.365 z m 2.731,0 h 1.365 v 1.3656 h -1.365 z m 5.462,0 h 1.365 v 1.3656 h -1.365 z m 2.731,0 h 1.365 v 1.3656 h -1.365 z m 1.365,0 h 1.366 v 1.3656 h -1.366 z m 1.366,0 h 1.365 v 1.3656 h -1.365 z m 2.731,0 h 1.365 v 1.3656 h -1.365 z m 1.365,0 h 1.366 v 1.3656 h -1.366 z m 1.366,0 h 1.366 v 1.3656 h -1.366 z m 1.366,0 h 1.365 v 1.3656 h -1.365 z m 1.365,0 h 1.366 v 1.3656 h -1.366 z m 1.366,0 h 1.365 v 1.3656 h -1.365 z m 1.365,0 h 1.366 v 1.3656 h -1.366 z m -38.234,1.3656 h 1.365 v 1.3655 h -1.365 z m 8.193,0 h 1.365 v 1.3655 h -1.365 z m 2.731,0 h 1.365 v 1.3655 h -1.365 z m 2.731,0 h 1.365 v 1.3655 h -1.365 z m 5.462,0 h 1.365 v 1.3655 h -1.365 z m 1.365,0 h 1.366 v 1.3655 h -1.366 z m 2.731,0 h 1.366 v 1.3655 h -1.366 z m 6.828,0 h 1.365 v 1.3655 h -1.365 z m 8.193,0 h 1.366 v 1.3655 h -1.366 z m -38.234,1.3655 h 1.365 v 1.3655 h -1.365 z m 2.731,0 h 1.365 v 1.3655 h -1.365 z m 1.365,0 h 1.366 v 1.3655 h -1.366 z m 1.366,0 h 1.365 v 1.3655 h -1.365 z m 2.731,0 h 1.365 v 1.3655 h -1.365 z m 8.193,0 h 1.365 v 1.3655 h -1.365 z m 5.462,0 h 1.365 v 1.3655 h -1.365 z m 4.096,0 h 1.366 v 1.3655 h -1.366 z m 1.366,0 h 1.365 v 1.3655 h -1.365 z m 2.731,0 h 1.365 v 1.3655 h -1.365 z m 2.731,0 h 1.366 v 1.3655 h -1.366 z m 1.366,0 h 1.365 v 1.3655 h -1.365 z m 1.365,0 h 1.366 v 1.3655 h -1.366 z m 2.731,0 h 1.366 v 1.3655 h -1.366 z m -38.234,1.3655 h 1.365 v 1.3655 h -1.365 z m 2.731,0 h 1.365 v 1.3655 h -1.365 z m 1.365,0 h 1.366 v 1.3655 h -1.366 z m 1.366,0 h 1.365 v 1.3655 h -1.365 z m 2.731,0 h 1.365 v 1.3655 h -1.365 z m 2.731,0 h 1.365 v 1.3655 h -1.365 z m 1.365,0 h 1.366 v 1.3655 h -1.366 z m 1.366,0 h 1.365 v 1.3655 h -1.365 z m 2.731,0 h 1.365 v 1.3655 h -1.365 z m 1.365,0 h 1.366 v 1.3655 h -1.366 z m 1.366,0 h 1.365 v 1.3655 h -1.365 z m 4.096,0 h 1.366 v 1.3655 h -1.366 z m 1.366,0 h 1.365 v 1.3655 h -1.365 z m 1.365,0 h 1.366 v 1.3655 h -1.366 z m 4.097,0 h 1.365 v 1.3655 h -1.365 z m 2.731,0 h 1.366 v 1.3655 h -1.366 z m 1.366,0 h 1.365 v 1.3655 h -1.365 z m 1.365,0 h 1.366 v 1.3655 h -1.366 z m 2.731,0 h 1.366 v 1.3655 h -1.366 z m -38.234,1.3655 h 1.365 v 1.3655 h -1.365 z m 2.731,0 h 1.365 v 1.3655 h -1.365 z m 1.365,0 h 1.366 v 1.3655 h -1.366 z m 1.366,0 h 1.365 v 1.3655 h -1.365 z m 2.731,0 h 1.365 v 1.3655 h -1.365 z m 4.096,0 h 1.366 v 1.3655 h -1.366 z m 6.828,0 h 1.365 v 1.3655 h -1.365 z m 2.731,0 h 1.365 v 1.3655 h -1.365 z m 1.365,0 h 1.366 v 1.3655 h -1.366 z m 1.366,0 h 1.365 v 1.3655 h -1.365 z m 1.365,0 h 1.366 v 1.3655 h -1.366 z m 1.366,0 h 1.365 v 1.3655 h -1.365 z m 2.731,0 h 1.365 v 1.3655 h -1.365 z m 2.731,0 h 1.366 v 1.3655 h -1.366 z m 1.366,0 h 1.365 v 1.3655 h -1.365 z m 1.365,0 h 1.366 v 1.3655 h -1.366 z m 2.731,0 h 1.366 v 1.3655 h -1.366 z m -38.234,1.3655 h 1.365 v 1.3655 h -1.365 z m 8.193,0 h 1.365 v 1.3655 h -1.365 z m 2.731,0 h 1.365 v 1.3655 h -1.365 z m 1.365,0 h 1.366 v 1.3655 h -1.366 z m 2.731,0 h 1.366 v 1.3655 h -1.366 z m 1.366,0 h 1.365 v 1.3655 h -1.365 z m 1.365,0 h 1.366 v 1.3655 h -1.366 z m 2.731,0 h 1.366 v 1.3655 h -1.366 z m 1.366,0 h 1.365 v 1.3655 h -1.365 z m 1.365,0 h 1.366 v 1.3655 h -1.366 z m 4.097,0 h 1.365 v 1.3655 h -1.365 z m 2.731,0 h 1.365 v 1.3655 h -1.365 z m 8.193,0 h 1.366 v 1.3655 h -1.366 z m -38.234,1.3655 h 1.365 v 1.3656 h -1.365 z m 1.365,0 h 1.366 v 1.3656 h -1.366 z m 1.366,0 h 1.365 v 1.3656 h -1.365 z m 1.365,0 h 1.366 v 1.3656 h -1.366 z m 1.366,0 h 1.365 v 1.3656 h -1.365 z m 1.365,0 h 1.366 v 1.3656 h -1.366 z m 1.366,0 h 1.365 v 1.3656 h -1.365 z m 2.731,0 h 1.365 v 1.3656 h -1.365 z m 2.731,0 h 1.365 v 1.3656 h -1.365 z m 2.731,0 h 1.365 v 1.3656 h -1.365 z m 2.731,0 h 1.365 v 1.3656 h -1.365 z m 2.731,0 h 1.365 v 1.3656 h -1.365 z m 2.731,0 h 1.365 v 1.3656 h -1.365 z m 2.731,0 h 1.365 v 1.3656 h -1.365 z m 2.731,0 h 1.365 v 1.3656 h -1.365 z m 1.365,0 h 1.366 v 1.3656 h -1.366 z m 1.366,0 h 1.366 v 1.3656 h -1.366 z m 1.366,0 h 1.365 v 1.3656 h -1.365 z m 1.365,0 h 1.366 v 1.3656 h -1.366 z m 1.366,0 h 1.365 v 1.3656 h -1.365 z m 1.365,0 h 1.366 v 1.3656 h -1.366 z m -25.945,1.3656 h 1.366 v 1.3655 h -1.366 z m 1.366,0 h 1.365 v 1.3655 h -1.365 z m 1.365,0 h 1.366 v 1.3655 h -1.366 z m 4.097,0 h 1.365 v 1.3655 h -1.365 z m 2.731,0 h 1.365 v 1.3655 h -1.365 z m 2.731,0 h 1.365 v 1.3655 h -1.365 z m -24.579,1.3655 h 1.365 v 1.3655 h -1.365 z m 1.365,0 h 1.366 v 1.3655 h -1.366 z m 1.366,0 h 1.365 v 1.3655 h -1.365 z m 1.365,0 h 1.366 v 1.3655 h -1.366 z m 1.366,0 h 1.365 v 1.3655 h -1.365 z m 2.731,0 h 1.365 v 1.3655 h -1.365 z m 1.365,0 h 1.366 v 1.3655 h -1.366 z m 1.366,0 h 1.365 v 1.3655 h -1.365 z m 1.365,0 h 1.366 v 1.3655 h -1.366 z m 2.731,0 h 1.366 v 1.3655 h -1.366 z m 2.731,0 h 1.366 v 1.3655 h -1.366 z m 1.366,0 h 1.365 v 1.3655 h -1.365 z m 4.096,0 h 1.366 v 1.3655 h -1.366 z m 2.731,0 h 1.366 v 1.3655 h -1.366 z m 2.731,0 h 1.366 v 1.3655 h -1.366 z m 2.731,0 h 1.366 v 1.3655 h -1.366 z m 2.732,0 h 1.365 v 1.3655 h -1.365 z m 2.731,0 h 1.365 v 1.3655 h -1.365 z m -35.504,1.3655 h 1.366 v 1.3655 h -1.366 z m 1.366,0 h 1.365 v 1.3655 h -1.365 z m 4.096,0 h 1.366 v 1.3655 h -1.366 z m 6.828,0 h 1.365 v 1.3655 h -1.365 z m 2.731,0 h 1.365 v 1.3655 h -1.365 z m 5.462,0 h 1.365 v 1.3655 h -1.365 z m 2.731,0 h 1.365 v 1.3655 h -1.365 z m 1.365,0 h 1.366 v 1.3655 h -1.366 z m 1.366,0 h 1.365 v 1.3655 h -1.365 z m 1.365,0 h 1.366 v 1.3655 h -1.366 z m 1.366,0 h 1.365 v 1.3655 h -1.365 z m 1.365,0 h 1.366 v 1.3655 h -1.366 z m 1.366,0 h 1.366 v 1.3655 h -1.366 z m 5.462,0 h 1.366 v 1.3655 h -1.366 z m -38.234,1.3655 h 1.365 v 1.3655 h -1.365 z m 1.365,0 h 1.366 v 1.3655 h -1.366 z m 5.462,0 h 1.366 v 1.3655 h -1.366 z m 1.366,0 h 1.365 v 1.3655 h -1.365 z m 2.731,0 h 1.365 v 1.3655 h -1.365 z m 2.731,0 h 1.365 v 1.3655 h -1.365 z m 5.462,0 h 1.365 v 1.3655 h -1.365 z m 1.365,0 h 1.366 v 1.3655 h -1.366 z m 2.731,0 h 1.366 v 1.3655 h -1.366 z m 4.097,0 h 1.365 v 1.3655 h -1.365 z m 1.365,0 h 1.366 v 1.3655 h -1.366 z m 1.366,0 h 1.365 v 1.3655 h -1.365 z m 1.365,0 h 1.366 v 1.3655 h -1.366 z m -31.406,1.3655 h 1.365 v 1.3655 h -1.365 z m 1.365,0 h 1.366 v 1.3655 h -1.366 z m 1.366,0 h 1.365 v 1.3655 h -1.365 z m 1.365,0 h 1.366 v 1.3655 h -1.366 z m 1.366,0 h 1.365 v 1.3655 h -1.365 z m 10.924,0 h 1.365 v 1.3655 h -1.365 z m 2.731,0 h 1.365 v 1.3655 h -1.365 z m 2.731,0 h 1.365 v 1.3655 h -1.365 z m 2.731,0 h 1.365 v 1.3655 h -1.365 z m 1.365,0 h 1.366 v 1.3655 h -1.366 z m 1.366,0 h 1.365 v 1.3655 h -1.365 z m 1.365,0 h 1.366 v 1.3655 h -1.366 z m 4.097,0 h 1.366 v 1.3655 h -1.366 z m 1.366,0 h 1.365 v 1.3655 h -1.365 z m 2.731,0 h 1.365 v 1.3655 h -1.365 z m -35.504,1.3655 h 1.366 v 1.3656 h -1.366 z m 4.097,0 h 1.365 v 1.3656 h -1.365 z m 1.365,0 h 1.366 v 1.3656 h -1.366 z m 1.366,0 h 1.365 v 1.3656 h -1.365 z m 1.365,0 h 1.366 v 1.3656 h -1.366 z m 1.366,0 h 1.365 v 1.3656 h -1.365 z m 1.365,0 h 1.366 v 1.3656 h -1.366 z m 1.366,0 h 1.365 v 1.3656 h -1.365 z m 2.731,0 h 1.365 v 1.3656 h -1.365 z m 1.365,0 h 1.366 v 1.3656 h -1.366 z m 1.366,0 h 1.365 v 1.3656 h -1.365 z m 1.365,0 h 1.366 v 1.3656 h -1.366 z m 2.731,0 h 1.366 v 1.3656 h -1.366 z m 8.193,0 h 1.366 v 1.3656 h -1.366 z m 2.732,0 h 1.365 v 1.3656 h -1.365 z m 1.365,0 h 1.366 v 1.3656 h -1.366 z m -35.503,1.3656 h 1.365 v 1.3655 h -1.365 z m 2.731,0 h 1.365 v 1.3655 h -1.365 z m 2.731,0 h 1.365 v 1.3655 h -1.365 z m 4.096,0 h 1.366 v 1.3655 h -1.366 z m 8.193,0 h 1.366 v 1.3655 h -1.366 z m 4.097,0 h 1.365 v 1.3655 h -1.365 z m 1.365,0 h 1.366 v 1.3655 h -1.366 z m 1.366,0 h 1.365 v 1.3655 h -1.365 z m 1.365,0 h 1.366 v 1.3655 h -1.366 z m 1.366,0 h 1.365 v 1.3655 h -1.365 z m 1.365,0 h 1.366 v 1.3655 h -1.366 z m 1.366,0 h 1.365 v 1.3655 h -1.365 z m 1.365,0 h 1.366 v 1.3655 h -1.366 z m 1.366,0 h 1.366 v 1.3655 h -1.366 z m 5.462,0 h 1.366 v 1.3655 h -1.366 z m -36.869,1.3655 h 1.366 v 1.3655 h -1.366 z m 4.097,0 h 1.365 v 1.3655 h -1.365 z m 2.731,0 h 1.365 v 1.3655 h -1.365 z m 1.365,0 h 1.366 v 1.3655 h -1.366 z m 1.366,0 h 1.365 v 1.3655 h -1.365 z m 1.365,0 h 1.366 v 1.3655 h -1.366 z m 2.731,0 h 1.366 v 1.3655 h -1.366 z m 1.366,0 h 1.365 v 1.3655 h -1.365 z m 1.365,0 h 1.366 v 1.3655 h -1.366 z m 1.366,0 h 1.365 v 1.3655 h -1.365 z m 1.365,0 h 1.366 v 1.3655 h -1.366 z m 1.366,0 h 1.365 v 1.3655 h -1.365 z m 1.365,0 h 1.366 v 1.3655 h -1.366 z m 4.097,0 h 1.365 v 1.3655 h -1.365 z m 2.731,0 h 1.365 v 1.3655 h -1.365 z m 4.097,0 h 1.365 v 1.3655 h -1.365 z m 1.365,0 h 1.366 v 1.3655 h -1.366 z m -34.138,1.3655 h 1.366 v 1.3655 h -1.366 z m 4.097,0 h 1.365 v 1.3655 h -1.365 z m 1.365,0 h 1.366 v 1.3655 h -1.366 z m 4.097,0 h 1.365 v 1.3655 h -1.365 z m 1.365,0 h 1.366 v 1.3655 h -1.366 z m 2.731,0 h 1.366 v 1.3655 h -1.366 z m 6.828,0 h 1.365 v 1.3655 h -1.365 z m 8.193,0 h 1.365 v 1.3655 h -1.365 z m 2.731,0 h 1.366 v 1.3655 h -1.366 z m 4.097,0 h 1.365 v 1.3655 h -1.365 z m -35.504,1.3655 h 1.366 v 1.3655 h -1.366 z m 5.462,0 h 1.366 v 1.3655 h -1.366 z m 1.366,0 h 1.365 v 1.3655 h -1.365 z m 4.096,0 h 1.366 v 1.3655 h -1.366 z m 1.366,0 h 1.365 v 1.3655 h -1.365 z m 1.365,0 h 1.366 v 1.3655 h -1.366 z m 8.193,0 h 1.366 v 1.3655 h -1.366 z m 10.925,0 h 1.365 v 1.3655 h -1.365 z m 1.365,0 h 1.366 v 1.3655 h -1.366 z m -35.503,1.3655 h 1.365 v 1.3655 h -1.365 z m 10.924,0 h 1.365 v 1.3655 h -1.365 z m 1.365,0 h 1.366 v 1.3655 h -1.366 z m 4.097,0 h 1.365 v 1.3655 h -1.365 z m 1.365,0 h 1.366 v 1.3655 h -1.366 z m 8.193,0 h 1.366 v 1.3655 h -1.366 z m 1.366,0 h 1.365 v 1.3655 h -1.365 z m 2.731,0 h 1.365 v 1.3655 h -1.365 z m 1.365,0 h 1.366 v 1.3655 h -1.366 z m 1.366,0 h 1.366 v 1.3655 h -1.366 z m 2.731,0 h 1.366 v 1.3655 h -1.366 z m 2.731,0 h 1.366 v 1.3655 h -1.366 z m -38.234,1.3655 h 1.365 v 1.3656 h -1.365 z m 8.193,0 h 1.365 v 1.3656 h -1.365 z m 1.365,0 h 1.366 v 1.3656 h -1.366 z m 1.366,0 h 1.365 v 1.3656 h -1.365 z m 6.827,0 h 1.366 v 1.3656 h -1.366 z m 1.366,0 h 1.365 v 1.3656 h -1.365 z m 1.365,0 h 1.366 v 1.3656 h -1.366 z m 1.366,0 h 1.365 v 1.3656 h -1.365 z m 1.365,0 h 1.366 v 1.3656 h -1.366 z m 1.366,0 h 1.365 v 1.3656 h -1.365 z m 4.096,0 h 1.366 v 1.3656 h -1.366 z m 2.731,0 h 1.366 v 1.3656 h -1.366 z m 1.366,0 h 1.366 v 1.3656 h -1.366 z m 2.731,0 h 1.366 v 1.3656 h -1.366 z m -35.503,1.3656 h 1.365 v 1.3655 h -1.365 z m 9.558,0 h 1.366 v 1.3655 h -1.366 z m 4.097,0 h 1.365 v 1.3655 h -1.365 z m 2.731,0 h 1.365 v 1.3655 h -1.365 z m 1.365,0 h 1.366 v 1.3655 h -1.366 z m 4.097,0 h 1.365 v 1.3655 h -1.365 z m 2.731,0 h 1.365 v 1.3655 h -1.365 z m 2.731,0 h 1.365 v 1.3655 h -1.365 z m 1.365,0 h 1.366 v 1.3655 h -1.366 z m 2.731,0 h 1.366 v 1.3655 h -1.366 z m 1.366,0 h 1.366 v 1.3655 h -1.366 z m 4.097,0 h 1.365 v 1.3655 h -1.365 z m -36.869,1.3655 h 1.365 v 1.3655 h -1.365 z m 5.462,0 h 1.365 v 1.3655 h -1.365 z m 1.365,0 h 1.366 v 1.3655 h -1.366 z m 1.366,0 h 1.365 v 1.3655 h -1.365 z m 4.096,0 h 1.366 v 1.3655 h -1.366 z m 4.097,0 h 1.365 v 1.3655 h -1.365 z m 2.731,0 h 1.365 v 1.3655 h -1.365 z m 4.096,0 h 1.366 v 1.3655 h -1.366 z m 4.097,0 h 1.365 v 1.3655 h -1.365 z m 1.365,0 h 1.366 v 1.3655 h -1.366 z m 1.366,0 h 1.365 v 1.3655 h -1.365 z m 1.365,0 h 1.366 v 1.3655 h -1.366 z m 1.366,0 h 1.366 v 1.3655 h -1.366 z m 2.731,0 h 1.366 v 1.3655 h -1.366 z m 1.366,0 h 1.365 v 1.3655 h -1.365 z m 1.365,0 h 1.366 v 1.3655 h -1.366 z m -27.31,1.3655 h 1.365 v 1.3655 h -1.365 z m 1.365,0 h 1.366 v 1.3655 h -1.366 z m 1.366,0 h 1.365 v 1.3655 h -1.365 z m 8.193,0 h 1.365 v 1.3655 h -1.365 z m 4.096,0 h 1.366 v 1.3655 h -1.366 z m 1.366,0 h 1.365 v 1.3655 h -1.365 z m 5.462,0 h 1.366 v 1.3655 h -1.366 z m 1.366,0 h 1.365 v 1.3655 h -1.365 z m 1.365,0 h 1.366 v 1.3655 h -1.366 z m 1.366,0 h 1.365 v 1.3655 h -1.365 z m 1.365,0 h 1.366 v 1.3655 h -1.366 z m -38.234,1.3655 h 1.365 v 1.3655 h -1.365 z m 1.365,0 h 1.366 v 1.3655 h -1.366 z m 1.366,0 h 1.365 v 1.3655 h -1.365 z m 1.365,0 h 1.366 v 1.3655 h -1.366 z m 1.366,0 h 1.365 v 1.3655 h -1.365 z m 1.365,0 h 1.366 v 1.3655 h -1.366 z m 1.366,0 h 1.365 v 1.3655 h -1.365 z m 2.731,0 h 1.365 v 1.3655 h -1.365 z m 1.365,0 h 1.366 v 1.3655 h -1.366 z m 2.731,0 h 1.366 v 1.3655 h -1.366 z m 1.366,0 h 1.365 v 1.3655 h -1.365 z m 4.096,0 h 1.366 v 1.3655 h -1.366 z m 1.366,0 h 1.365 v 1.3655 h -1.365 z m 4.096,0 h 1.366 v 1.3655 h -1.366 z m 1.366,0 h 1.365 v 1.3655 h -1.365 z m 2.731,0 h 1.365 v 1.3655 h -1.365 z m 2.731,0 h 1.366 v 1.3655 h -1.366 z m 1.366,0 h 1.365 v 1.3655 h -1.365 z m 1.365,0 h 1.366 v 1.3655 h -1.366 z m -35.503,1.3655 h 1.365 v 1.3655 h -1.365 z m 8.193,0 h 1.365 v 1.3655 h -1.365 z m 6.827,0 h 1.366 v 1.3655 h -1.366 z m 4.097,0 h 1.365 v 1.3655 h -1.365 z m 1.365,0 h 1.366 v 1.3655 h -1.366 z m 5.462,0 h 1.366 v 1.3655 h -1.366 z m 1.366,0 h 1.365 v 1.3655 h -1.365 z m 5.462,0 h 1.366 v 1.3655 h -1.366 z m 4.097,0 h 1.365 v 1.3655 h -1.365 z m -36.869,1.3655 h 1.365 v 1.3656 h -1.365 z m 2.731,0 h 1.365 v 1.3656 h -1.365 z m 1.365,0 h 1.366 v 1.3656 h -1.366 z m 1.366,0 h 1.365 v 1.3656 h -1.365 z m 2.731,0 h 1.365 v 1.3656 h -1.365 z m 2.731,0 h 1.365 v 1.3656 h -1.365 z m 1.365,0 h 1.366 v 1.3656 h -1.366 z m 2.731,0 h 1.366 v 1.3656 h -1.366 z m 8.193,0 h 1.366 v 1.3656 h -1.366 z m 4.097,0 h 1.365 v 1.3656 h -1.365 z m 1.365,0 h 1.366 v 1.3656 h -1.366 z m 1.366,0 h 1.365 v 1.3656 h -1.365 z m 1.365,0 h 1.366 v 1.3656 h -1.366 z m 1.366,0 h 1.366 v 1.3656 h -1.366 z m 2.731,0 h 1.366 v 1.3656 h -1.366 z m 1.366,0 h 1.365 v 1.3656 h -1.365 z m 1.365,0 h 1.366 v 1.3656 h -1.366 z m -38.234,1.3656 h 1.365 v 1.3655 h -1.365 z m 2.731,0 h 1.365 v 1.3655 h -1.365 z m 1.365,0 h 1.366 v 1.3655 h -1.366 z m 1.366,0 h 1.365 v 1.3655 h -1.365 z m 2.731,0 h 1.365 v 1.3655 h -1.365 z m 2.731,0 h 1.365 v 1.3655 h -1.365 z m 1.365,0 h 1.366 v 1.3655 h -1.366 z m 1.366,0 h 1.365 v 1.3655 h -1.365 z m 2.731,0 h 1.365 v 1.3655 h -1.365 z m 1.365,0 h 1.366 v 1.3655 h -1.366 z m 1.366,0 h 1.365 v 1.3655 h -1.365 z m 2.731,0 h 1.365 v 1.3655 h -1.365 z m 4.096,0 h 1.366 v 1.3655 h -1.366 z m 1.366,0 h 1.365 v 1.3655 h -1.365 z m 1.365,0 h 1.366 v 1.3655 h -1.366 z m 5.463,0 h 1.365 v 1.3655 h -1.365 z m 1.365,0 h 1.366 v 1.3655 h -1.366 z m 1.366,0 h 1.365 v 1.3655 h -1.365 z m 1.365,0 h 1.366 v 1.3655 h -1.366 z m -38.234,1.3655 h 1.365 v 1.3655 h -1.365 z m 2.731,0 h 1.365 v 1.3655 h -1.365 z m 1.365,0 h 1.366 v 1.3655 h -1.366 z m 1.366,0 h 1.365 v 1.3655 h -1.365 z m 2.731,0 h 1.365 v 1.3655 h -1.365 z m 2.731,0 h 1.365 v 1.3655 h -1.365 z m 1.365,0 h 1.366 v 1.3655 h -1.366 z m 1.366,0 h 1.365 v 1.3655 h -1.365 z m 4.096,0 h 1.366 v 1.3655 h -1.366 z m 1.366,0 h 1.365 v 1.3655 h -1.365 z m 1.365,0 h 1.366 v 1.3655 h -1.366 z m 2.731,0 h 1.366 v 1.3655 h -1.366 z m 1.366,0 h 1.365 v 1.3655 h -1.365 z m 4.096,0 h 1.366 v 1.3655 h -1.366 z m 1.366,0 h 1.365 v 1.3655 h -1.365 z m 1.365,0 h 1.366 v 1.3655 h -1.366 z m 1.366,0 h 1.366 v 1.3655 h -1.366 z m 1.366,0 h 1.365 v 1.3655 h -1.365 z m 1.365,0 h 1.366 v 1.3655 h -1.366 z m 1.366,0 h 1.365 v 1.3655 h -1.365 z m -36.869,1.3655 h 1.365 v 1.3655 h -1.365 z m 8.193,0 h 1.365 v 1.3655 h -1.365 z m 2.731,0 h 1.365 v 1.3655 h -1.365 z m 1.365,0 h 1.366 v 1.3655 h -1.366 z m 1.366,0 h 1.365 v 1.3655 h -1.365 z m 2.731,0 h 1.365 v 1.3655 h -1.365 z m 1.365,0 h 1.366 v 1.3655 h -1.366 z m 4.097,0 h 1.365 v 1.3655 h -1.365 z m 4.096,0 h 1.366 v 1.3655 h -1.366 z m 1.366,0 h 1.365 v 1.3655 h -1.365 z m 2.731,0 h 1.365 v 1.3655 h -1.365 z m 1.365,0 h 1.366 v 1.3655 h -1.366 z m 2.732,0 h 1.365 v 1.3655 h -1.365 z m 2.731,0 h 1.365 v 1.3655 h -1.365 z m -36.869,1.3655 h 1.365 v 1.3655 h -1.365 z m 1.365,0 h 1.366 v 1.3655 h -1.366 z m 1.366,0 h 1.365 v 1.3655 h -1.365 z m 1.365,0 h 1.366 v 1.3655 h -1.366 z m 1.366,0 h 1.365 v 1.3655 h -1.365 z m 1.365,0 h 1.366 v 1.3655 h -1.366 z m 1.366,0 h 1.365 v 1.3655 h -1.365 z m 2.731,0 h 1.365 v 1.3655 h -1.365 z m 1.365,0 h 1.366 v 1.3655 h -1.366 z m 4.097,0 h 1.365 v 1.3655 h -1.365 z m 2.731,0 h 1.365 v 1.3655 h -1.365 z m 4.096,0 h 1.366 v 1.3655 h -1.366 z m 1.366,0 h 1.365 v 1.3655 h -1.365 z m 1.365,0 h 1.366 v 1.3655 h -1.366 z m 2.731,0 h 1.366 v 1.3655 h -1.366 z m 1.366,0 h 1.365 v 1.3655 h -1.365 z m 1.365,0 h 1.366 v 1.3655 h -1.366 z m 1.366,0 h 1.366 v 1.3655 h -1.366 z m 1.366,0 h 1.365 v 1.3655 h -1.365 z m 1.365,0 h 1.366 v 1.3655 h -1.366 z"
     fill="#000000"
     id="path10" />
  <path
     d="M 20.1592,14.024 V 22.4 h -1.68 v -5.448 l -2.244,5.448 h -1.272 l -2.256,-5.448 V 22.4 h -1.68 v -8.376 h 1.908 l 2.664,6.228 2.664,-6.228 z m 7.841,4.908 c 0,0.24 -0.016,0.456 -0.048,0.648 h -4.86 c 0.04,0.48 0.208,0.856 0.504,1.128 0.296,0.272 0.66,0.408 1.092,0.408 0.624,0 1.068,-0.268 1.332,-0.804 h 1.812 c -0.192,0.64 -0.56,1.168 -1.104,1.584 -0.544,0.408 -1.212,0.612 -2.004,0.612 -0.64,0 -1.216,-0.14 -1.728,-0.42 -0.504,-0.288 -0.9,-0.692 -1.188,-1.212 -0.28,-0.52 -0.42,-1.12 -0.42,-1.8 0,-0.688 0.14,-1.292 0.42,-1.812 0.28,-0.52 0.672,-0.92 1.176,-1.2 0.504,-0.28 1.084,-0.42 1.74,-0.42 0.632,0 1.196,0.136 1.692,0.408 0.504,0.272 0.892,0.66 1.164,1.164 0.28,0.496 0.42,1.068 0.42,1.716 z m -1.74,-0.48 c -0.008,-0.432 -0.164,-0.776 -0.468,-1.032 -0.304,-0.264 -0.676,-0.396 -1.116,-0.396 -0.416,0 -0.768,0.128 -1.056,0.384 -0.28,0.248 -0.452,0.596 -0.516,1.044 z m 9.1462,0.48 c 0,0.24 -0.016,0.456 -0.048,0.648 h -4.86 c 0.04,0.48 0.208,0.856 0.504,1.128 0.296,0.272 0.66,0.408 1.092,0.408 0.624,0 1.068,-0.268 1.332,-0.804 h 1.812 c -0.192,0.64 -0.56,1.168 -1.104,1.584 -0.544,0.408 -1.212,0.612 -2.004,0.612 -0.64,0 -1.216,-0.14 -1.728,-0.42 -0.504,-0.288 -0.9,-0.692 -1.188,-1.212 -0.28,-0.52 -0.42,-1.12 -0.42,-1.8 0,-0.688 0.14,-1.292 0.42,-1.812 0.28,-0.52 0.672,-0.92 1.176,-1.2 0.504,-0.28 1.084,-0.42 1.74,-0.42 0.632,0 1.196,0.136 1.692,0.408 0.504,0.272 0.892,0.66 1.164,1.164 0.28,0.496 0.42,1.068 0.42,1.716 z m -1.74,-0.48 c -0.008,-0.432 -0.164,-0.776 -0.468,-1.032 -0.304,-0.264 -0.676,-0.396 -1.116,-0.396 -0.416,0 -0.768,0.128 -1.056,0.384 -0.28,0.248 -0.452,0.596 -0.516,1.044 z m 2.5343,0.6 c 0,-0.672 0.132,-1.268 0.396,-1.788 0.272,-0.52 0.64,-0.92 1.104,-1.2 0.464,-0.28 0.98,-0.42 1.548,-0.42 0.432,0 0.844,0.096 1.236,0.288 0.392,0.184 0.704,0.432 0.936,0.744 V 13.52 h 1.704 v 8.88 h -1.704 v -0.984 c -0.208,0.328 -0.5,0.592 -0.876,0.792 -0.376,0.2 -0.812,0.3 -1.308,0.3 -0.56,0 -1.072,-0.144 -1.536,-0.432 -0.464,-0.288 -0.832,-0.692 -1.104,-1.212 -0.264,-0.528 -0.396,-1.132 -0.396,-1.812 z m 5.232,0.024 c 0,-0.408 -0.08,-0.756 -0.24,-1.044 -0.16,-0.296 -0.376,-0.52 -0.648,-0.672 -0.272,-0.16 -0.564,-0.24 -0.876,-0.24 -0.312,0 -0.6,0.076 -0.864,0.228 -0.264,0.152 -0.48,0.376 -0.648,0.672 -0.16,0.288 -0.24,0.632 -0.24,1.032 0,0.4 0.08,0.752 0.24,1.056 0.168,0.296 0.384,0.524 0.648,0.684 0.272,0.16 0.56,0.24 0.864,0.24 0.312,0 0.604,-0.076 0.876,-0.228 0.272,-0.16 0.488,-0.384 0.648,-0.672 0.16,-0.296 0.24,-0.648 0.24,-1.056 z m 6.2848,3.432 c -0.64,0 -1.216,-0.14 -1.728,-0.42 -0.512,-0.288 -0.916,-0.692 -1.212,-1.212 -0.288,-0.52 -0.432,-1.12 -0.432,-1.8 0,-0.68 0.148,-1.28 0.444,-1.8 0.304,-0.52 0.716,-0.92 1.236,-1.2 0.52,-0.288 1.1,-0.432 1.74,-0.432 0.64,0 1.22,0.144 1.74,0.432 0.52,0.28 0.928,0.68 1.224,1.2 0.304,0.52 0.456,1.12 0.456,1.8 0,0.68 -0.156,1.28 -0.468,1.8 -0.304,0.52 -0.72,0.924 -1.248,1.212 -0.52,0.28 -1.104,0.42 -1.752,0.42 z m 0,-1.464 c 0.304,0 0.588,-0.072 0.852,-0.216 0.272,-0.152 0.488,-0.376 0.648,-0.672 0.16,-0.296 0.24,-0.656 0.24,-1.08 0,-0.632 -0.168,-1.116 -0.504,-1.452 -0.328,-0.344 -0.732,-0.516 -1.212,-0.516 -0.48,0 -0.884,0.172 -1.212,0.516 -0.32,0.336 -0.48,0.82 -0.48,1.452 0,0.632 0.156,1.12 0.468,1.464 0.32,0.336 0.72,0.504 1.2,0.504 z m 10.8803,-2.112 c 0,0.24 -0.016,0.456 -0.048,0.648 h -4.86 c 0.04,0.48 0.208,0.856 0.504,1.128 0.296,0.272 0.66,0.408 1.092,0.408 0.624,0 1.068,-0.268 1.332,-0.804 h 1.812 c -0.192,0.64 -0.56,1.168 -1.104,1.584 -0.544,0.408 -1.212,0.612 -2.004,0.612 -0.64,0 -1.216,-0.14 -1.728,-0.42 -0.504,-0.288 -0.9,-0.692 -1.188,-1.212 -0.28,-0.52 -0.42,-1.12 -0.42,-1.8 0,-0.688 0.14,-1.292 0.42,-1.812 0.28,-0.52 0.672,-0.92 1.176,-1.2 0.504,-0.28 1.084,-0.42 1.74,-0.42 0.632,0 1.196,0.136 1.692,0.408 0.504,0.272 0.892,0.66 1.164,1.164 0.28,0.496 0.42,1.068 0.42,1.716 z m -1.74,-0.48 c -0.008,-0.432 -0.164,-0.776 -0.468,-1.032 -0.304,-0.264 -0.676,-0.396 -1.116,-0.396 -0.416,0 -0.768,0.128 -1.056,0.384 -0.28,0.248 -0.452,0.596 -0.516,1.044 z m 6.6502,-2.796 c 0.792,0 1.432,0.252 1.92,0.756 0.488,0.496 0.732,1.192 0.732,2.088 v 3.9 h -1.68 v -3.672 c 0,-0.528 -0.132,-0.932 -0.396,-1.212 -0.264,-0.288 -0.624,-0.432 -1.08,-0.432 -0.464,0 -0.832,0.144 -1.104,0.432 -0.264,0.28 -0.396,0.684 -0.396,1.212 V 22.4 h -1.68 v -6.648 h 1.68 v 0.828 c 0.224,-0.288 0.508,-0.512 0.852,-0.672 0.352,-0.168 0.736,-0.252 1.152,-0.252 z m 5.93,1.128 c 0.216,-0.352 0.496,-0.628 0.84,-0.828 0.352,-0.2 0.752,-0.3 1.2,-0.3 v 1.764 h -0.444 c -0.528,0 -0.928,0.124 -1.2,0.372 -0.264,0.248 -0.396,0.68 -0.396,1.296 V 22.4 h -1.68 v -6.648 h 1.68 z m 9.351,2.148 c 0,0.24 -0.016,0.456 -0.048,0.648 h -4.86 c 0.04,0.48 0.208,0.856 0.504,1.128 0.296,0.272 0.66,0.408 1.092,0.408 0.624,0 1.068,-0.268 1.332,-0.804 h 1.812 c -0.192,0.64 -0.56,1.168 -1.104,1.584 -0.544,0.408 -1.212,0.612 -2.004,0.612 -0.64,0 -1.216,-0.14 -1.728,-0.42 -0.504,-0.288 -0.9,-0.692 -1.188,-1.212 -0.28,-0.52 -0.42,-1.12 -0.42,-1.8 0,-0.688 0.14,-1.292 0.42,-1.812 0.28,-0.52 0.672,-0.92 1.176,-1.2 0.504,-0.28 1.084,-0.42 1.74,-0.42 0.632,0 1.196,0.136 1.692,0.408 0.504,0.272 0.892,0.66 1.164,1.164 0.28,0.496 0.42,1.068 0.42,1.716 z m -1.74,-0.48 c -0.008,-0.432 -0.164,-0.776 -0.468,-1.032 -0.304,-0.264 -0.676,-0.396 -1.116,-0.396 -0.416,0 -0.768,0.128 -1.056,0.384 -0.28,0.248 -0.452,0.596 -0.516,1.044 z m 5.57,-2.808 c 0.496,0 0.932,0.1 1.308,0.3 0.376,0.192 0.672,0.444 0.888,0.756 v -0.948 h 1.692 v 6.696 c 0,0.616 -0.124,1.164 -0.372,1.644 -0.248,0.488 -0.62,0.872 -1.116,1.152 -0.496,0.288 -1.096,0.432 -1.8,0.432 -0.944,0 -1.72,-0.22 -2.328,-0.66 -0.6,-0.44 -0.94,-1.04 -1.02,-1.8 h 1.668 c 0.088,0.304 0.276,0.544 0.564,0.72 0.296,0.184 0.652,0.276 1.068,0.276 0.488,0 0.884,-0.148 1.188,-0.444 0.304,-0.288 0.456,-0.728 0.456,-1.32 v -1.032 c -0.216,0.312 -0.516,0.572 -0.9,0.78 -0.376,0.208 -0.808,0.312 -1.296,0.312 -0.56,0 -1.072,-0.144 -1.536,-0.432 -0.464,-0.288 -0.832,-0.692 -1.104,-1.212 -0.264,-0.528 -0.396,-1.132 -0.396,-1.812 0,-0.672 0.132,-1.268 0.396,-1.788 0.272,-0.52 0.636,-0.92 1.092,-1.2 0.464,-0.28 0.98,-0.42 1.548,-0.42 z m 2.196,3.432 c 0,-0.408 -0.08,-0.756 -0.24,-1.044 -0.16,-0.296 -0.376,-0.52 -0.648,-0.672 -0.272,-0.16 -0.564,-0.24 -0.876,-0.24 -0.312,0 -0.6,0.076 -0.864,0.228 -0.264,0.152 -0.48,0.376 -0.648,0.672 -0.16,0.288 -0.24,0.632 -0.24,1.032 0,0.4 0.08,0.752 0.24,1.056 0.168,0.296 0.384,0.524 0.648,0.684 0.272,0.16 0.56,0.24 0.864,0.24 0.312,0 0.604,-0.076 0.876,-0.228 0.272,-0.16 0.488,-0.384 0.648,-0.672 0.16,-0.296 0.24,-0.648 0.24,-1.056 z m 9.513,-0.144 c 0,0.24 -0.016,0.456 -0.048,0.648 h -4.86 c 0.04,0.48 0.208,0.856 0.504,1.128 0.296,0.272 0.66,0.408 1.092,0.408 0.624,0 1.068,-0.268 1.332,-0.804 h 1.812 c -0.192,0.64 -0.56,1.168 -1.104,1.584 -0.544,0.408 -1.212,0.612 -2.004,0.612 -0.64,0 -1.216,-0.14 -1.728,-0.42 -0.504,-0.288 -0.9,-0.692 -1.188,-1.212 -0.28,-0.52 -0.42,-1.12 -0.42,-1.8 0,-0.688 0.14,-1.292 0.42,-1.812 0.28,-0.52 0.672,-0.92 1.176,-1.2 0.504,-0.28 1.084,-0.42 1.74,-0.42 0.632,0 1.196,0.136 1.692,0.408 0.504,0.272 0.892,0.66 1.164,1.164 0.28,0.496 0.42,1.068 0.42,1.716 z m -1.74,-0.48 C 92.58,18.02 92.424,17.676 92.12,17.42 c -0.304,-0.264 -0.676,-0.396 -1.116,-0.396 -0.416,0 -0.768,0.128 -1.056,0.384 -0.28,0.248 -0.452,0.596 -0.516,1.044 z m 4.646,-4.932 v 8.88 h -1.68 v -8.88 z m 2.512,1.44 c -0.296,0 -0.544,-0.092 -0.744,-0.276 -0.192,-0.192 -0.288,-0.428 -0.288,-0.708 0,-0.28 0.096,-0.512 0.288,-0.696 0.2,-0.192 0.448,-0.288 0.744,-0.288 0.296,0 0.54,0.096 0.732,0.288 0.2,0.184 0.3,0.416 0.3,0.696 0,0.28 -0.1,0.516 -0.3,0.708 -0.192,0.184 -0.436,0.276 -0.732,0.276 z m 0.828,0.792 V 22.4 h -1.68 v -6.648 z m 5.344,-0.096 c 0.792,0 1.432,0.252 1.92,0.756 0.488,0.496 0.732,1.192 0.732,2.088 v 3.9 h -1.68 v -3.672 c 0,-0.528 -0.132,-0.932 -0.396,-1.212 -0.264,-0.288 -0.624,-0.432 -1.08,-0.432 -0.464,0 -0.832,0.144 -1.104,0.432 -0.264,0.28 -0.396,0.684 -0.396,1.212 V 22.4 h -1.68 v -6.648 h 1.68 v 0.828 c 0.224,-0.288 0.508,-0.512 0.852,-0.672 0.352,-0.168 0.736,-0.252 1.152,-0.252 z m 6.854,-0.012 c 0.496,0 0.932,0.1 1.308,0.3 0.376,0.192 0.672,0.444 0.888,0.756 v -0.948 h 1.692 v 6.696 c 0,0.616 -0.124,1.164 -0.372,1.644 -0.248,0.488 -0.62,0.872 -1.116,1.152 -0.496,0.288 -1.096,0.432 -1.8,0.432 -0.944,0 -1.72,-0.22 -2.328,-0.66 -0.6,-0.44 -0.94,-1.04 -1.02,-1.8 h 1.668 c 0.088,0.304 0.276,0.544 0.564,0.72 0.296,0.184 0.652,0.276 1.068,0.276 0.488,0 0.884,-0.148 1.188,-0.444 0.304,-0.288 0.456,-0.728 0.456,-1.32 v -1.032 c -0.216,0.312 -0.516,0.572 -0.9,0.78 -0.376,0.208 -0.808,0.312 -1.296,0.312 -0.56,0 -1.072,-0.144 -1.536,-0.432 -0.464,-0.288 -0.832,-0.692 -1.104,-1.212 -0.264,-0.528 -0.396,-1.132 -0.396,-1.812 0,-0.672 0.132,-1.268 0.396,-1.788 0.272,-0.52 0.636,-0.92 1.092,-1.2 0.464,-0.28 0.98,-0.42 1.548,-0.42 z m 2.196,3.432 c 0,-0.408 -0.08,-0.756 -0.24,-1.044 -0.16,-0.296 -0.376,-0.52 -0.648,-0.672 -0.272,-0.16 -0.564,-0.24 -0.876,-0.24 -0.312,0 -0.6,0.076 -0.864,0.228 -0.264,0.152 -0.48,0.376 -0.648,0.672 -0.16,0.288 -0.24,0.632 -0.24,1.032 0,0.4 0.08,0.752 0.24,1.056 0.168,0.296 0.384,0.524 0.648,0.684 0.272,0.16 0.56,0.24 0.864,0.24 0.312,0 0.604,-0.076 0.876,-0.228 0.272,-0.16 0.488,-0.384 0.648,-0.672 0.16,-0.296 0.24,-0.648 0.24,-1.056 z"
     fill="#131313"
     id="path12" />
  <path
     d="M 14.7076,29.539 C 14.5672,29.2686 14.3722,29.0658 14.1226,28.9306 13.873,28.7902 13.5844,28.72 13.2568,28.72 c -0.3588,0 -0.6786,0.0806 -0.9594,0.2418 -0.2808,0.1612 -0.5018,0.39 -0.663,0.6864 -0.156,0.2964 -0.234,0.6396 -0.234,1.0296 0,0.39 0.078,0.7358 0.234,1.0374 0.1612,0.2964 0.3822,0.5252 0.663,0.6864 0.2808,0.1612 0.6006,0.2418 0.9594,0.2418 0.4836,0 0.8762,-0.1352 1.1778,-0.4056 0.3016,-0.2704 0.4862,-0.637 0.5538,-1.0998 H 12.9526 V 30.4282 H 15.94 v 0.6942 c -0.0572,0.4212 -0.208,0.8086 -0.4524,1.1622 -0.2392,0.3536 -0.5538,0.637 -0.9438,0.8502 -0.3848,0.208 -0.8138,0.312 -1.287,0.312 -0.5096,0 -0.975,-0.117 -1.3962,-0.351 -0.4212,-0.2392 -0.7566,-0.5694 -1.0062,-0.9906 -0.2444,-0.4212 -0.3666,-0.897 -0.3666,-1.4274 0,-0.5304 0.1222,-1.0062 0.3666,-1.4274 0.2496,-0.4212 0.585,-0.7488 1.0062,-0.9828 0.4264,-0.2392 0.8918,-0.3588 1.3962,-0.3588 0.5772,0 1.0894,0.143 1.5366,0.429 0.4524,0.2808 0.78,0.6812 0.9828,1.2012 z m 6.3484,1.6068 c 0,0.1612 -0.0104,0.3068 -0.0312,0.4368 H 17.741 c 0.026,0.3432 0.1534,0.6188 0.3822,0.8268 0.2288,0.208 0.5096,0.312 0.8424,0.312 0.4784,0 0.8164,-0.2002 1.014,-0.6006 h 0.9594 c -0.13,0.3952 -0.3666,0.7202 -0.7098,0.975 -0.338,0.2496 -0.7592,0.3744 -1.2636,0.3744 -0.4108,0 -0.78,-0.091 -1.1076,-0.273 -0.3224,-0.1872 -0.5772,-0.4472 -0.7644,-0.78 -0.182,-0.338 -0.273,-0.728 -0.273,-1.17 0,-0.442 0.0884,-0.8294 0.2652,-1.1622 0.182,-0.338 0.4342,-0.598 0.7566,-0.78 0.3276,-0.182 0.702,-0.273 1.1232,-0.273 0.4056,0 0.767,0.0884 1.0842,0.2652 0.3172,0.1768 0.5642,0.4264 0.741,0.7488 0.1768,0.3172 0.2652,0.6838 0.2652,1.0998 z M 20.1278,30.865 c -0.0052,-0.3276 -0.1222,-0.5902 -0.351,-0.7878 -0.2288,-0.1976 -0.5122,-0.2964 -0.8502,-0.2964 -0.3068,0 -0.5694,0.0988 -0.7878,0.2964 -0.2184,0.1924 -0.3484,0.455 -0.39,0.7878 z m 7.3059,-1.833 c 0.338,0 0.6396,0.0702 0.9048,0.2106 0.2704,0.1404 0.481,0.3484 0.6318,0.624 0.156,0.2756 0.234,0.6084 0.234,0.9984 V 33.4 h -0.8814 v -2.4024 c 0,-0.3848 -0.0962,-0.6786 -0.2886,-0.8814 -0.1924,-0.208 -0.455,-0.312 -0.7878,-0.312 -0.3328,0 -0.598,0.104 -0.7956,0.312 -0.1924,0.2028 -0.2886,0.4966 -0.2886,0.8814 V 33.4 h -0.8814 v -2.4024 c 0,-0.3848 -0.0962,-0.6786 -0.2886,-0.8814 -0.1924,-0.208 -0.455,-0.312 -0.7878,-0.312 -0.3328,0 -0.598,0.104 -0.7956,0.312 -0.1924,0.2028 -0.2886,0.4966 -0.2886,0.8814 V 33.4 h -0.8892 v -4.2978 h 0.8892 v 0.4914 c 0.1456,-0.1768 0.3302,-0.3146 0.5538,-0.4134 0.2236,-0.0988 0.4628,-0.1482 0.7176,-0.1482 0.3432,0 0.65,0.0728 0.9204,0.2184 0.2704,0.1456 0.4784,0.3562 0.624,0.6318 0.13,-0.26 0.3328,-0.4654 0.6084,-0.6162 0.2756,-0.156 0.572,-0.234 0.8892,-0.234 z m 7.1411,2.1138 c 0,0.1612 -0.0104,0.3068 -0.0312,0.4368 h -3.2838 c 0.026,0.3432 0.1534,0.6188 0.3822,0.8268 0.2288,0.208 0.5096,0.312 0.8424,0.312 0.4784,0 0.8164,-0.2002 1.014,-0.6006 h 0.9594 c -0.13,0.3952 -0.3666,0.7202 -0.7098,0.975 -0.338,0.2496 -0.7592,0.3744 -1.2636,0.3744 -0.4108,0 -0.78,-0.091 -1.1076,-0.273 -0.3224,-0.1872 -0.5772,-0.4472 -0.7644,-0.78 -0.182,-0.338 -0.273,-0.728 -0.273,-1.17 0,-0.442 0.0884,-0.8294 0.2652,-1.1622 0.182,-0.338 0.4342,-0.598 0.7566,-0.78 0.3276,-0.182 0.702,-0.273 1.1232,-0.273 0.4056,0 0.767,0.0884 1.0842,0.2652 0.3172,0.1768 0.5642,0.4264 0.741,0.7488 0.1768,0.3172 0.2652,0.6838 0.2652,1.0998 z M 33.6466,30.865 c -0.0052,-0.3276 -0.1222,-0.5902 -0.351,-0.7878 -0.2288,-0.1976 -0.5122,-0.2964 -0.8502,-0.2964 -0.3068,0 -0.5694,0.0988 -0.7878,0.2964 -0.2184,0.1924 -0.3484,0.455 -0.39,0.7878 z m 6.0422,0.2808 c 0,0.1612 -0.0104,0.3068 -0.0312,0.4368 h -3.2838 c 0.026,0.3432 0.1534,0.6188 0.3822,0.8268 0.2288,0.208 0.5096,0.312 0.8424,0.312 0.4784,0 0.8164,-0.2002 1.014,-0.6006 h 0.9594 c -0.13,0.3952 -0.3666,0.7202 -0.7098,0.975 -0.338,0.2496 -0.7592,0.3744 -1.2636,0.3744 -0.4108,0 -0.78,-0.091 -1.1076,-0.273 -0.3224,-0.1872 -0.5772,-0.4472 -0.7644,-0.78 -0.182,-0.338 -0.273,-0.728 -0.273,-1.17 0,-0.442 0.0884,-0.8294 0.2652,-1.1622 0.182,-0.338 0.4342,-0.598 0.7566,-0.78 0.3276,-0.182 0.702,-0.273 1.1232,-0.273 0.4056,0 0.767,0.0884 1.0842,0.2652 0.3172,0.1768 0.5642,0.4264 0.741,0.7488 0.1768,0.3172 0.2652,0.6838 0.2652,1.0998 z M 38.7606,30.865 c -0.0052,-0.3276 -0.1222,-0.5902 -0.351,-0.7878 -0.2288,-0.1976 -0.5122,-0.2964 -0.8502,-0.2964 -0.3068,0 -0.5694,0.0988 -0.7878,0.2964 -0.2184,0.1924 -0.3484,0.455 -0.39,0.7878 z m 4.2717,-1.833 c 0.338,0 0.6396,0.0702 0.9048,0.2106 0.2704,0.1404 0.481,0.3484 0.6318,0.624 0.1508,0.2756 0.2262,0.6084 0.2262,0.9984 V 33.4 h -0.8814 v -2.4024 c 0,-0.3848 -0.0962,-0.6786 -0.2886,-0.8814 -0.1924,-0.208 -0.455,-0.312 -0.7878,-0.312 -0.3328,0 -0.598,0.104 -0.7956,0.312 -0.1924,0.2028 -0.2886,0.4966 -0.2886,0.8814 V 33.4 h -0.8892 v -4.2978 h 0.8892 v 0.4914 c 0.1456,-0.1768 0.3302,-0.3146 0.5538,-0.4134 0.2288,-0.0988 0.4706,-0.1482 0.7254,-0.1482 z m 4.2344,0.7956 v 2.379 c 0,0.1612 0.0364,0.2782 0.1092,0.351 0.078,0.0676 0.208,0.1014 0.39,0.1014 h 0.546 V 33.4 h -0.702 c -0.4004,0 -0.7072,-0.0936 -0.9204,-0.2808 -0.2132,-0.1872 -0.3198,-0.4914 -0.3198,-0.9126 v -2.379 h -0.507 v -0.7254 h 0.507 v -1.0686 h 0.897 v 1.0686 h 1.0452 v 0.7254 z m 6.1037,1.3182 c 0,0.1612 -0.0104,0.3068 -0.0312,0.4368 h -3.2838 c 0.026,0.3432 0.1534,0.6188 0.3822,0.8268 0.2288,0.208 0.5096,0.312 0.8424,0.312 0.4784,0 0.8164,-0.2002 1.014,-0.6006 h 0.9594 c -0.13,0.3952 -0.3666,0.7202 -0.7098,0.975 -0.338,0.2496 -0.7592,0.3744 -1.2636,0.3744 -0.4108,0 -0.78,-0.091 -1.1076,-0.273 C 49.85,33.01 49.5952,32.75 49.408,32.4172 c -0.182,-0.338 -0.273,-0.728 -0.273,-1.17 0,-0.442 0.0884,-0.8294 0.2652,-1.1622 0.182,-0.338 0.4342,-0.598 0.7566,-0.78 0.3276,-0.182 0.702,-0.273 1.1232,-0.273 0.4056,0 0.767,0.0884 1.0842,0.2652 0.3172,0.1768 0.5642,0.4264 0.741,0.7488 0.1768,0.3172 0.2652,0.6838 0.2652,1.0998 z M 52.4422,30.865 C 52.437,30.5374 52.32,30.2748 52.0912,30.0772 51.8624,29.8796 51.579,29.7808 51.241,29.7808 c -0.3068,0 -0.5694,0.0988 -0.7878,0.2964 -0.2184,0.1924 -0.3484,0.455 -0.39,0.7878 z M 62.5813,27.979 V 33.4 H 61.6921 V 29.6872 L 60.0385,33.4 H 59.4223 L 57.7609,29.6872 V 33.4 h -0.8892 v -5.421 h 0.9594 l 1.9032,4.251 1.8954,-4.251 z m 5.4077,3.1668 c 0,0.1612 -0.01,0.3068 -0.031,0.4368 h -3.284 c 0.026,0.3432 0.1534,0.6188 0.3822,0.8268 0.2288,0.208 0.5096,0.312 0.8424,0.312 0.4784,0 0.8164,-0.2002 1.014,-0.6006 h 0.9594 c -0.13,0.3952 -0.367,0.7202 -0.71,0.975 -0.3378,0.2496 -0.759,0.3744 -1.2634,0.3744 -0.4108,0 -0.78,-0.091 -1.1076,-0.273 -0.3224,-0.1872 -0.5772,-0.4472 -0.7644,-0.78 -0.182,-0.338 -0.273,-0.728 -0.273,-1.17 0,-0.442 0.0884,-0.8294 0.2652,-1.1622 0.182,-0.338 0.4342,-0.598 0.7566,-0.78 0.3276,-0.182 0.702,-0.273 1.1232,-0.273 0.4056,0 0.767,0.0884 1.0842,0.2652 0.3172,0.1768 0.5642,0.4264 0.7412,0.7488 0.177,0.3172 0.265,0.6838 0.265,1.0998 z M 67.061,30.865 c -0.005,-0.3276 -0.1224,-0.5902 -0.3512,-0.7878 -0.2288,-0.1976 -0.5122,-0.2964 -0.8502,-0.2964 -0.3068,0 -0.5694,0.0988 -0.7878,0.2964 -0.2184,0.1924 -0.3484,0.455 -0.39,0.7878 z m 6.042,0.2808 c 0,0.1612 -0.01,0.3068 -0.031,0.4368 h -3.284 c 0.026,0.3432 0.153,0.6188 0.382,0.8268 0.229,0.208 0.51,0.312 0.843,0.312 0.478,0 0.816,-0.2002 1.014,-0.6006 h 0.959 c -0.13,0.3952 -0.367,0.7202 -0.71,0.975 -0.338,0.2496 -0.759,0.3744 -1.263,0.3744 -0.411,0 -0.78,-0.091 -1.108,-0.273 -0.322,-0.1872 -0.577,-0.4472 -0.764,-0.78 -0.182,-0.338 -0.273,-0.728 -0.273,-1.17 0,-0.442 0.088,-0.8294 0.265,-1.1622 0.182,-0.338 0.434,-0.598 0.756,-0.78 0.328,-0.182 0.702,-0.273 1.124,-0.273 0.405,0 0.767,0.0884 1.084,0.2652 0.317,0.1768 0.564,0.4264 0.741,0.7488 0.177,0.3172 0.265,0.6838 0.265,1.0998 z M 72.175,30.865 c -0.005,-0.3276 -0.122,-0.5902 -0.351,-0.7878 -0.229,-0.1976 -0.512,-0.2964 -0.85,-0.2964 -0.307,0 -0.57,0.0988 -0.788,0.2964 -0.219,0.1924 -0.349,0.455 -0.39,0.7878 z m 2.992,-1.1388 c 0.13,-0.2184 0.302,-0.3874 0.515,-0.507 0.218,-0.1248 0.476,-0.1872 0.772,-0.1872 v 0.9204 h -0.226 c -0.348,0 -0.614,0.0884 -0.796,0.2652 -0.176,0.1768 -0.265,0.4836 -0.265,0.9204 V 33.4 h -0.889 v -4.2978 h 0.889 z m 6.344,1.4196 c 0,0.1612 -0.011,0.3068 -0.032,0.4368 h -3.283 c 0.026,0.3432 0.153,0.6188 0.382,0.8268 0.229,0.208 0.509,0.312 0.842,0.312 0.479,0 0.817,-0.2002 1.014,-0.6006 h 0.96 c -0.13,0.3952 -0.367,0.7202 -0.71,0.975 -0.338,0.2496 -0.759,0.3744 -1.264,0.3744 -0.411,0 -0.78,-0.091 -1.107,-0.273 -0.323,-0.1872 -0.578,-0.4472 -0.765,-0.78 -0.182,-0.338 -0.273,-0.728 -0.273,-1.17 0,-0.442 0.089,-0.8294 0.265,-1.1622 0.182,-0.338 0.435,-0.598 0.757,-0.78 0.328,-0.182 0.702,-0.273 1.123,-0.273 0.406,0 0.767,0.0884 1.084,0.2652 0.318,0.1768 0.565,0.4264 0.741,0.7488 0.177,0.3172 0.266,0.6838 0.266,1.0998 z M 80.582,30.865 c -0.005,-0.3276 -0.122,-0.5902 -0.351,-0.7878 -0.228,-0.1976 -0.512,-0.2964 -0.85,-0.2964 -0.307,0 -0.569,0.0988 -0.788,0.2964 -0.218,0.1924 -0.348,0.455 -0.39,0.7878 z m 4.272,-1.833 c 0.338,0 0.64,0.0702 0.905,0.2106 0.27,0.1404 0.481,0.3484 0.632,0.624 0.15,0.2756 0.226,0.6084 0.226,0.9984 V 33.4 h -0.882 v -2.4024 c 0,-0.3848 -0.096,-0.6786 -0.288,-0.8814 -0.193,-0.208 -0.455,-0.312 -0.788,-0.312 -0.333,0 -0.598,0.104 -0.796,0.312 -0.192,0.2028 -0.288,0.4966 -0.288,0.8814 V 33.4 h -0.889 v -4.2978 h 0.889 v 0.4914 c 0.145,-0.1768 0.33,-0.3146 0.554,-0.4134 0.228,-0.0988 0.47,-0.1482 0.725,-0.1482 z m 4.086,0.7098 c 0.151,-0.208 0.357,-0.377 0.617,-0.507 0.265,-0.1352 0.559,-0.2028 0.881,-0.2028 0.38,0 0.723,0.091 1.03,0.273 0.306,0.182 0.548,0.442 0.725,0.78 0.177,0.3328 0.265,0.715 0.265,1.1466 0,0.4316 -0.088,0.819 -0.265,1.1622 -0.177,0.338 -0.421,0.6032 -0.733,0.7956 -0.307,0.1872 -0.648,0.2808 -1.022,0.2808 -0.333,0 -0.629,-0.065 -0.889,-0.195 -0.255,-0.13 -0.458,-0.2964 -0.609,-0.4992 V 33.4 h -0.889 v -5.772 h 0.889 z m 2.613,1.4898 c 0,-0.2964 -0.062,-0.5512 -0.187,-0.7644 -0.119,-0.2184 -0.281,-0.3822 -0.483,-0.4914 -0.198,-0.1144 -0.411,-0.1716 -0.64,-0.1716 -0.224,0 -0.437,0.0572 -0.64,0.1716 -0.197,0.1144 -0.358,0.2808 -0.483,0.4992 -0.12,0.2184 -0.18,0.4758 -0.18,0.7722 0,0.2964 0.06,0.5564 0.18,0.78 0.125,0.2184 0.286,0.3848 0.483,0.4992 0.203,0.1144 0.416,0.1716 0.64,0.1716 0.229,0 0.442,-0.0572 0.64,-0.1716 0.202,-0.1196 0.364,-0.2912 0.483,-0.5148 0.125,-0.2236 0.187,-0.4836 0.187,-0.78 z m 3.949,2.2386 c -0.406,0 -0.773,-0.091 -1.1,-0.273 -0.328,-0.1872 -0.585,-0.4472 -0.772,-0.78 -0.188,-0.338 -0.281,-0.728 -0.281,-1.17 0,-0.4368 0.096,-0.8242 0.288,-1.1622 0.193,-0.338 0.455,-0.598 0.788,-0.78 0.333,-0.182 0.705,-0.273 1.116,-0.273 0.41,0 0.782,0.091 1.115,0.273 0.333,0.182 0.595,0.442 0.788,0.78 0.192,0.338 0.288,0.7254 0.288,1.1622 0,0.4368 -0.098,0.8242 -0.296,1.1622 -0.198,0.338 -0.468,0.6006 -0.811,0.7878 -0.338,0.182 -0.713,0.273 -1.123,0.273 z m 0,-0.7722 c 0.228,0 0.442,-0.0546 0.639,-0.1638 0.203,-0.1092 0.367,-0.273 0.492,-0.4914 0.124,-0.2184 0.187,-0.4836 0.187,-0.7956 0,-0.312 -0.06,-0.5746 -0.18,-0.7878 -0.119,-0.2184 -0.278,-0.3822 -0.475,-0.4914 -0.198,-0.1092 -0.411,-0.1638 -0.64,-0.1638 -0.229,0 -0.442,0.0546 -0.64,0.1638 -0.192,0.1092 -0.345,0.273 -0.46,0.4914 -0.114,0.2132 -0.171,0.4758 -0.171,0.7878 0,0.4628 0.117,0.8216 0.351,1.0764 0.239,0.2496 0.538,0.3744 0.897,0.3744 z m 4.969,0.7722 c -0.338,0 -0.642,-0.0598 -0.912,-0.1794 -0.265,-0.1248 -0.476,-0.2912 -0.632,-0.4992 -0.156,-0.2132 -0.239,-0.4498 -0.25,-0.7098 h 0.921 c 0.015,0.182 0.101,0.3354 0.257,0.4602 0.161,0.1196 0.362,0.1794 0.601,0.1794 0.249,0 0.442,-0.0468 0.577,-0.1404 0.14,-0.0988 0.211,-0.2236 0.211,-0.3744 0,-0.1612 -0.078,-0.2808 -0.234,-0.3588 -0.151,-0.078 -0.393,-0.1638 -0.726,-0.2574 -0.322,-0.0884 -0.585,-0.1742 -0.788,-0.2574 -0.202,-0.0832 -0.379,-0.2106 -0.53,-0.3822 -0.146,-0.1716 -0.218,-0.3978 -0.218,-0.6786 0,-0.2288 0.067,-0.4368 0.202,-0.624 0.136,-0.1924 0.328,-0.3432 0.578,-0.4524 0.254,-0.1092 0.546,-0.1638 0.873,-0.1638 0.489,0 0.882,0.1248 1.178,0.3744 0.302,0.2444 0.463,0.5798 0.484,1.0062 h -0.89 c -0.015,-0.1924 -0.093,-0.3458 -0.234,-0.4602 -0.14,-0.1144 -0.33,-0.1716 -0.569,-0.1716 -0.234,0 -0.413,0.0442 -0.538,0.1326 -0.125,0.0884 -0.187,0.2054 -0.187,0.351 0,0.1144 0.041,0.2106 0.124,0.2886 0.084,0.078 0.185,0.1404 0.305,0.1872 0.119,0.0416 0.296,0.0962 0.53,0.1638 0.312,0.0832 0.567,0.169 0.764,0.2574 0.203,0.0832 0.377,0.208 0.523,0.3744 0.146,0.1664 0.221,0.3874 0.226,0.663 0,0.2444 -0.067,0.4628 -0.203,0.6552 -0.135,0.1924 -0.327,0.3432 -0.577,0.4524 -0.244,0.1092 -0.533,0.1638 -0.866,0.1638 z m 2.611,-2.223 c 0,-0.442 0.088,-0.8294 0.265,-1.1622 0.182,-0.338 0.431,-0.598 0.749,-0.78 0.317,-0.182 0.681,-0.273 1.092,-0.273 0.52,0 0.949,0.1248 1.287,0.3744 0.343,0.2444 0.574,0.5954 0.694,1.053 h -0.96 c -0.078,-0.2132 -0.202,-0.3796 -0.374,-0.4992 -0.172,-0.1196 -0.387,-0.1794 -0.647,-0.1794 -0.364,0 -0.656,0.13 -0.874,0.39 -0.213,0.2548 -0.32,0.6136 -0.32,1.0764 0,0.4628 0.107,0.8242 0.32,1.0842 0.218,0.26 0.51,0.39 0.874,0.39 0.514,0 0.855,-0.2262 1.021,-0.6786 h 0.96 c -0.125,0.4368 -0.359,0.7852 -0.702,1.0452 -0.343,0.2548 -0.77,0.3822 -1.279,0.3822 -0.411,0 -0.775,-0.091 -1.092,-0.273 -0.318,-0.1872 -0.567,-0.4472 -0.749,-0.78 -0.177,-0.338 -0.265,-0.728 -0.265,-1.17 z m 7.496,-2.2152 c 0.328,0 0.619,0.0702 0.874,0.2106 0.26,0.1404 0.462,0.3484 0.608,0.624 0.151,0.2756 0.226,0.6084 0.226,0.9984 V 33.4 h -0.881 v -2.4024 c 0,-0.3848 -0.096,-0.6786 -0.289,-0.8814 -0.192,-0.208 -0.455,-0.312 -0.788,-0.312 -0.332,0 -0.598,0.104 -0.795,0.312 -0.193,0.2028 -0.289,0.4966 -0.289,0.8814 V 33.4 h -0.889 v -5.772 h 0.889 v 1.9734 c 0.151,-0.182 0.341,-0.3224 0.57,-0.4212 0.234,-0.0988 0.488,-0.1482 0.764,-0.1482 z"
     fill="#273266"
     id="path14" />
  <path
     d="m 15.5152,56.136 c 0.456,0 0.856,-0.1 1.2,-0.3 0.344,-0.2 0.616,-0.492 0.816,-0.876 h 1.92 c -0.28,0.856 -0.772,1.524 -1.476,2.004 -0.696,0.472 -1.512,0.708 -2.448,0.708 -0.96,0 -1.804,-0.256 -2.532,-0.768 -0.72,-0.52 -1.22,-1.212 -1.5,-2.076 h -1.02 v -0.996 h 0.828 c -0.016,-0.192 -0.024,-0.336 -0.024,-0.432 0,-0.112 0.008,-0.264 0.024,-0.456 h -0.828 v -0.996 h 1.032 c 0.28,-0.864 0.78,-1.552 1.5,-2.064 0.728,-0.512 1.568,-0.768 2.52,-0.768 0.936,0 1.752,0.24 2.448,0.72 0.704,0.48 1.196,1.144 1.476,1.992 h -1.92 c -0.2,-0.384 -0.472,-0.672 -0.816,-0.864 -0.344,-0.2 -0.744,-0.3 -1.2,-0.3 -0.488,0 -0.924,0.112 -1.308,0.336 -0.376,0.224 -0.668,0.54 -0.876,0.948 h 2.304 v 0.996 h -2.604 c -0.016,0.192 -0.024,0.344 -0.024,0.456 0,0.096 0.008,0.24 0.024,0.432 h 2.604 v 0.996 h -2.316 c 0.208,0.408 0.504,0.728 0.888,0.96 0.384,0.232 0.82,0.348 1.308,0.348 z m 9.2293,-3.168 c -0.8,-0.416 -1.2,-1.06 -1.2,-1.932 0,-0.432 0.108,-0.824 0.324,-1.176 0.224,-0.36 0.556,-0.644 0.996,-0.852 0.448,-0.216 0.992,-0.324 1.632,-0.324 0.64,0 1.18,0.108 1.62,0.324 0.448,0.208 0.78,0.492 0.996,0.852 0.224,0.352 0.336,0.744 0.336,1.176 0,0.44 -0.108,0.828 -0.324,1.164 -0.216,0.328 -0.504,0.584 -0.864,0.768 0.44,0.192 0.784,0.472 1.032,0.84 0.248,0.368 0.372,0.804 0.372,1.308 0,0.544 -0.14,1.02 -0.42,1.428 -0.272,0.4 -0.648,0.708 -1.128,0.924 -0.48,0.216 -1.02,0.324 -1.62,0.324 -0.6,0 -1.14,-0.108 -1.62,-0.324 -0.472,-0.216 -0.848,-0.524 -1.128,-0.924 -0.272,-0.408 -0.408,-0.884 -0.408,-1.428 0,-0.504 0.124,-0.94 0.372,-1.308 0.248,-0.376 0.592,-0.656 1.032,-0.84 z m 3.072,-1.692 c 0,-0.392 -0.12,-0.696 -0.36,-0.912 -0.232,-0.216 -0.552,-0.324 -0.96,-0.324 -0.4,0 -0.72,0.108 -0.96,0.324 -0.232,0.216 -0.348,0.524 -0.348,0.924 0,0.36 0.12,0.648 0.36,0.864 0.248,0.216 0.564,0.324 0.948,0.324 0.384,0 0.7,-0.108 0.948,-0.324 0.248,-0.224 0.372,-0.516 0.372,-0.876 z m -1.32,2.424 c -0.456,0 -0.828,0.116 -1.116,0.348 -0.28,0.232 -0.42,0.564 -0.42,0.996 0,0.4 0.136,0.728 0.408,0.984 0.28,0.248 0.656,0.372 1.128,0.372 0.472,0 0.844,-0.128 1.116,-0.384 0.272,-0.256 0.408,-0.58 0.408,-0.972 0,-0.424 -0.14,-0.752 -0.42,-0.984 -0.28,-0.24 -0.648,-0.36 -1.104,-0.36 z m 4.4949,-0.588 c 0,-1.384 0.248,-2.468 0.744,-3.252 0.504,-0.784 1.336,-1.176 2.496,-1.176 1.16,0 1.988,0.392 2.484,1.176 0.504,0.784 0.756,1.868 0.756,3.252 0,1.392 -0.252,2.484 -0.756,3.276 -0.496,0.792 -1.324,1.188 -2.484,1.188 -1.16,0 -1.992,-0.396 -2.496,-1.188 -0.496,-0.792 -0.744,-1.884 -0.744,-3.276 z m 4.824,0 c 0,-0.592 -0.04,-1.088 -0.12,-1.488 -0.072,-0.408 -0.224,-0.74 -0.456,-0.996 -0.224,-0.256 -0.56,-0.384 -1.008,-0.384 -0.448,0 -0.788,0.128 -1.02,0.384 -0.224,0.256 -0.376,0.588 -0.456,0.996 -0.072,0.4 -0.108,0.896 -0.108,1.488 0,0.608 0.036,1.12 0.108,1.536 0.072,0.408 0.224,0.74 0.456,0.996 0.232,0.248 0.572,0.372 1.02,0.372 0.448,0 0.788,-0.124 1.02,-0.372 0.232,-0.256 0.384,-0.588 0.456,-0.996 0.072,-0.416 0.108,-0.928 0.108,-1.536 z m 4.9619,2.724 -1.404,3.372 h -1.08 l 0.78,-3.372 z m 1.0188,-2.724 c 0,-1.384 0.248,-2.468 0.744,-3.252 0.504,-0.784 1.336,-1.176 2.496,-1.176 1.16,0 1.988,0.392 2.484,1.176 0.504,0.784 0.756,1.868 0.756,3.252 0,1.392 -0.252,2.484 -0.756,3.276 -0.496,0.792 -1.324,1.188 -2.484,1.188 -1.16,0 -1.992,-0.396 -2.496,-1.188 -0.496,-0.792 -0.744,-1.884 -0.744,-3.276 z m 4.824,0 c 0,-0.592 -0.04,-1.088 -0.12,-1.488 -0.072,-0.408 -0.224,-0.74 -0.456,-0.996 -0.224,-0.256 -0.56,-0.384 -1.008,-0.384 -0.448,0 -0.788,0.128 -1.02,0.384 -0.224,0.256 -0.376,0.588 -0.456,0.996 -0.072,0.4 -0.108,0.896 -0.108,1.488 0,0.608 0.036,1.12 0.108,1.536 0.072,0.408 0.224,0.74 0.456,0.996 0.232,0.248 0.572,0.372 1.02,0.372 0.448,0 0.788,-0.124 1.02,-0.372 0.232,-0.256 0.384,-0.588 0.456,-0.996 0.072,-0.416 0.108,-0.928 0.108,-1.536 z M 49.3499,50.4 v -1.548 h 2.892 V 57.6 h -1.728 v -7.2 z"
     fill="#131313"
     id="path16" />
  <defs
     id="defs43">
    <filter
       id="filter0_dd_3436_26211"
       x="0.82795697"
       y="0.73585802"
       width="268.34399"
       height="136.34399"
       filterUnits="userSpaceOnUse"
       color-interpolation-filters="sRGB">
      <feFlood
         flood-opacity="0"
         result="BackgroundImageFix"
         id="feFlood18" />
      <feColorMatrix
         in="SourceAlpha"
         type="matrix"
         values="0 0 0 0 0 0 0 0 0 0 0 0 0 0 0 0 0 0 127 0"
         result="hardAlpha"
         id="feColorMatrix20" />
      <feOffset
         dy="12.0645"
         id="feOffset22" />
      <feGaussianBlur
         stdDeviation="16.086"
         id="feGaussianBlur24" />
      <feColorMatrix
         type="matrix"
         values="0 0 0 0 0.654046 0 0 0 0 0.683294 0 0 0 0 0.786637 0 0 0 0.1 0"
         id="feColorMatrix26" />
      <feBlend
         mode="multiply"
         in2="BackgroundImageFix"
         result="effect1_dropShadow_3436_26211"
         id="feBlend28" />
      <feColorMatrix
         in="SourceAlpha"
         type="matrix"
         values="0 0 0 0 0 0 0 0 0 0 0 0 0 0 0 0 0 0 127 0"
         result="hardAlpha"
         id="feColorMatrix30" />
      <feOffset
         dy="8.04301"
         id="feOffset32" />
      <feGaussianBlur
         stdDeviation="11.0591"
         id="feGaussianBlur34" />
      <feColorMatrix
         type="matrix"
         values="0 0 0 0 0.45098 0 0 0 0 0.469804 0 0 0 0 0.568627 0 0 0 0.18 0"
         id="feColorMatrix36" />
      <feBlend
         mode="normal"
         in2="effect1_dropShadow_3436_26211"
         result="effect2_dropShadow_3436_26211"
         id="feBlend38" />
      <feBlend
         mode="normal"
         in="SourceGraphic"
         in2="effect2_dropShadow_3436_26211"
         result="shape"
         id="feBlend40" />
    </filter>
  </defs>
</svg>
