<svg width="369" height="285" viewBox="0 0 369 285" fill="none" xmlns="http://www.w3.org/2000/svg">
<g filter="url(#filter0_dd_3436_26105)">
<g clip-path="url(#clip0_3436_26105)">
<rect x="68" y="42.8525" width="233.418" height="149.727" rx="6.96106" fill="white"/>
<g filter="url(#filter1_i_3436_26105)">
<rect width="233.418" height="35.3235" transform="translate(68 42.8525)" fill="white"/>
<g clip-path="url(#clip1_3436_26105)">
<path d="M91.5783 65.8339H79.7479C79.4211 65.8339 79.1562 66.0985 79.1562 66.4255C79.1562 66.7519 79.4211 67.0165 79.7479 67.0165H91.5781C91.9049 67.0165 92.1697 66.7519 92.1697 66.4255C92.1695 66.0985 91.9047 65.8339 91.5783 65.8339Z" fill="#315EFD"/>
<path d="M80.4862 64.2968C80.1593 64.2968 79.8945 64.5614 79.8945 64.8881C79.8945 65.2148 80.1593 65.4797 80.4862 65.4797H90.8377C91.1646 65.4797 91.4294 65.2148 91.4294 64.8881C91.4294 64.5614 91.1646 64.2968 90.8377 64.2968H90.6901V58.9759H90.8377C91.0014 58.9759 91.1333 58.8436 91.1333 58.6805C91.1333 58.5175 91.0009 58.3851 90.8377 58.3851H80.4862C80.3228 58.3851 80.1906 58.5175 80.1906 58.6805C80.1906 58.8436 80.3231 58.9759 80.4862 58.9759H80.6341V64.2965L80.4862 64.2968ZM89.5067 58.9759V64.2965H87.7323V58.9759H89.5067ZM86.5489 58.9759V64.2965H84.7745V58.9759H86.5489ZM81.8169 58.9759H83.5914V64.2965H81.8169V58.9759Z" fill="#315EFD"/>
<path d="M79.7479 57.8562H91.5781C91.58 57.8562 91.5822 57.8562 91.5839 57.8562C91.911 57.8562 92.1756 57.5916 92.1756 57.2649C92.1756 57.0052 92.0083 56.7851 91.7759 56.7054L85.9062 54.0657C85.7519 53.9965 85.5755 53.9965 85.4209 54.0657L79.5053 56.7259C79.2507 56.8405 79.1108 57.1168 79.1696 57.3892C79.228 57.6616 79.469 57.8562 79.7479 57.8562Z" fill="#315EFD"/>
<path d="M85.312 56.1792V55.9817H85.8682L85.8991 55.7841H85.312V55.7507C85.312 55.5915 85.3756 55.4932 85.6483 55.4932C85.7597 55.4932 85.8853 55.5043 86.0436 55.532L86.0842 55.2439C85.9368 55.208 85.7859 55.1904 85.6347 55.1915C85.148 55.1915 84.9387 55.3742 84.9387 55.7119V55.7841H84.7266V55.9817H84.9387V56.1792H84.7266V56.3768H84.9387V56.5148C84.9387 56.8526 85.1479 57.0353 85.6346 57.0353C85.7857 57.0363 85.9364 57.0187 86.0837 56.9827L86.0429 56.6946C85.8846 56.7223 85.7596 56.7334 85.6481 56.7334C85.3754 56.7334 85.312 56.6503 85.312 56.4537V56.3768H85.8075L85.8379 56.1792H85.312Z" fill="white"/>
</g>
<path d="M103.072 64.5924C102.529 64.5924 102.038 64.4994 101.599 64.3135C101.168 64.1275 100.826 63.8598 100.573 63.5102C100.32 63.1607 100.19 62.7479 100.182 62.2719H101.856C101.878 62.5917 101.99 62.8446 102.19 63.0305C102.399 63.2165 102.681 63.3094 103.038 63.3094C103.403 63.3094 103.689 63.2239 103.897 63.0528C104.105 62.8743 104.21 62.6438 104.21 62.3612C104.21 62.1306 104.139 61.941 103.998 61.7922C103.856 61.6435 103.678 61.5282 103.462 61.4464C103.254 61.3571 102.964 61.2604 102.592 61.1563C102.086 61.0076 101.673 60.8625 101.354 60.7212C101.041 60.5725 100.77 60.3531 100.539 60.063C100.316 59.7655 100.205 59.3714 100.205 58.8805C100.205 58.4194 100.32 58.0178 100.55 57.6756C100.781 57.3335 101.104 57.0732 101.521 56.8947C101.937 56.7088 102.413 56.6158 102.949 56.6158C103.752 56.6158 104.403 56.8129 104.901 57.2071C105.407 57.5938 105.686 58.1367 105.738 58.8359H104.02C104.005 58.5681 103.89 58.3487 103.674 58.1777C103.466 57.9992 103.187 57.9099 102.837 57.9099C102.532 57.9099 102.287 57.988 102.101 58.1442C101.923 58.3004 101.833 58.5272 101.833 58.8247C101.833 59.033 101.9 59.2077 102.034 59.349C102.175 59.4829 102.347 59.5945 102.547 59.6837C102.756 59.7655 103.046 59.8622 103.417 59.9738C103.923 60.1225 104.336 60.2713 104.656 60.42C104.976 60.5688 105.251 60.7919 105.481 61.0894C105.712 61.3869 105.827 61.7773 105.827 62.2608C105.827 62.6773 105.719 63.064 105.504 63.421C105.288 63.778 104.972 64.0643 104.555 64.28C104.139 64.4883 103.644 64.5924 103.072 64.5924ZM112.927 61.2902C112.927 61.5133 112.912 61.7141 112.882 61.8926H108.364C108.401 62.3389 108.557 62.6884 108.832 62.9413C109.108 63.1942 109.446 63.3206 109.848 63.3206C110.428 63.3206 110.84 63.0714 111.086 62.5731H112.77C112.592 63.1681 112.25 63.659 111.744 64.0457C111.238 64.425 110.617 64.6147 109.881 64.6147C109.286 64.6147 108.751 64.4845 108.275 64.2242C107.806 63.9565 107.438 63.5809 107.17 63.0975C106.91 62.614 106.78 62.0562 106.78 61.4241C106.78 60.7844 106.91 60.2229 107.17 59.7395C107.43 59.2561 107.795 58.8842 108.263 58.6239C108.732 58.3636 109.271 58.2334 109.881 58.2334C110.469 58.2334 110.993 58.3599 111.454 58.6127C111.923 58.8656 112.283 59.2263 112.536 59.6949C112.796 60.156 112.927 60.6878 112.927 61.2902ZM111.309 60.8439C111.302 60.4423 111.157 60.1225 110.874 59.8845C110.591 59.6391 110.245 59.5164 109.836 59.5164C109.45 59.5164 109.122 59.6354 108.855 59.8734C108.594 60.1039 108.434 60.4275 108.375 60.8439H111.309ZM115.628 56.2588V64.5143H114.067V56.2588H115.628ZM122.917 61.2902C122.917 61.5133 122.902 61.7141 122.872 61.8926H118.354C118.391 62.3389 118.547 62.6884 118.823 62.9413C119.098 63.1942 119.436 63.3206 119.838 63.3206C120.418 63.3206 120.831 63.0714 121.076 62.5731H122.761C122.582 63.1681 122.24 63.659 121.734 64.0457C121.229 64.425 120.608 64.6147 119.871 64.6147C119.276 64.6147 118.741 64.4845 118.265 64.2242C117.796 63.9565 117.428 63.5809 117.16 63.0975C116.9 62.614 116.77 62.0562 116.77 61.4241C116.77 60.7844 116.9 60.2229 117.16 59.7395C117.421 59.2561 117.785 58.8842 118.254 58.6239C118.722 58.3636 119.261 58.2334 119.871 58.2334C120.459 58.2334 120.983 58.3599 121.444 58.6127C121.913 58.8656 122.274 59.2263 122.526 59.6949C122.787 60.156 122.917 60.6878 122.917 61.2902ZM121.299 60.8439C121.292 60.4423 121.147 60.1225 120.864 59.8845C120.582 59.6391 120.236 59.5164 119.827 59.5164C119.44 59.5164 119.113 59.6354 118.845 59.8734C118.585 60.1039 118.425 60.4275 118.365 60.8439H121.299ZM123.655 61.4241C123.655 60.7844 123.785 60.2266 124.046 59.7507C124.306 59.2672 124.667 58.8954 125.128 58.6351C125.589 58.3673 126.117 58.2334 126.712 58.2334C127.478 58.2334 128.11 58.4268 128.609 58.8135C129.114 59.1929 129.453 59.7283 129.624 60.42H127.939C127.85 60.1523 127.698 59.944 127.482 59.7953C127.274 59.6391 127.013 59.561 126.701 59.561C126.255 59.561 125.901 59.7246 125.641 60.0519C125.381 60.3717 125.251 60.8291 125.251 61.4241C125.251 62.0116 125.381 62.469 125.641 62.7963C125.901 63.1161 126.255 63.276 126.701 63.276C127.333 63.276 127.746 62.9933 127.939 62.4281H129.624C129.453 63.0975 129.114 63.6292 128.609 64.0234C128.103 64.4176 127.471 64.6147 126.712 64.6147C126.117 64.6147 125.589 64.4845 125.128 64.2242C124.667 63.9565 124.306 63.5846 124.046 63.1086C123.785 62.6252 123.655 62.0637 123.655 61.4241ZM132.586 59.6168V62.6066C132.586 62.8148 132.635 62.9673 132.731 63.064C132.836 63.1532 133.007 63.1979 133.245 63.1979H133.97V64.5143H132.988C131.672 64.5143 131.013 63.8747 131.013 62.5954V59.6168H130.277V58.3338H131.013V56.8055H132.586V58.3338H133.97V59.6168H132.586ZM140.838 61.2902C140.838 61.5133 140.824 61.7141 140.794 61.8926H136.276C136.313 62.3389 136.469 62.6884 136.744 62.9413C137.019 63.1942 137.358 63.3206 137.759 63.3206C138.34 63.3206 138.752 63.0714 138.998 62.5731H140.682C140.504 63.1681 140.162 63.659 139.656 64.0457C139.15 64.425 138.529 64.6147 137.793 64.6147C137.198 64.6147 136.662 64.4845 136.186 64.2242C135.718 63.9565 135.35 63.5809 135.082 63.0975C134.822 62.614 134.692 62.0562 134.692 61.4241C134.692 60.7844 134.822 60.2229 135.082 59.7395C135.342 59.2561 135.707 58.8842 136.175 58.6239C136.644 58.3636 137.183 58.2334 137.793 58.2334C138.38 58.2334 138.905 58.3599 139.366 58.6127C139.834 58.8656 140.195 59.2263 140.448 59.6949C140.708 60.156 140.838 60.6878 140.838 61.2902ZM139.221 60.8439C139.213 60.4423 139.068 60.1225 138.786 59.8845C138.503 59.6391 138.157 59.5164 137.748 59.5164C137.362 59.5164 137.034 59.6354 136.767 59.8734C136.506 60.1039 136.346 60.4275 136.287 60.8439H139.221ZM147.724 61.2902C147.724 61.5133 147.709 61.7141 147.679 61.8926H143.161C143.198 62.3389 143.354 62.6884 143.63 62.9413C143.905 63.1942 144.243 63.3206 144.645 63.3206C145.225 63.3206 145.638 63.0714 145.883 62.5731H147.568C147.389 63.1681 147.047 63.659 146.541 64.0457C146.036 64.425 145.415 64.6147 144.678 64.6147C144.083 64.6147 143.548 64.4845 143.072 64.2242C142.603 63.9565 142.235 63.5809 141.967 63.0975C141.707 62.614 141.577 62.0562 141.577 61.4241C141.577 60.7844 141.707 60.2229 141.967 59.7395C142.228 59.2561 142.592 58.8842 143.061 58.6239C143.529 58.3636 144.068 58.2334 144.678 58.2334C145.266 58.2334 145.79 58.3599 146.251 58.6127C146.72 58.8656 147.081 59.2263 147.333 59.6949C147.594 60.156 147.724 60.6878 147.724 61.2902ZM146.106 60.8439C146.099 60.4423 145.954 60.1225 145.671 59.8845C145.389 59.6391 145.043 59.5164 144.634 59.5164C144.247 59.5164 143.92 59.6354 143.652 59.8734C143.392 60.1039 143.232 60.4275 143.172 60.8439H146.106ZM150.426 59.2933C150.627 58.966 150.887 58.7094 151.207 58.5235C151.534 58.3376 151.906 58.2446 152.322 58.2446V59.8845H151.909C151.419 59.8845 151.047 59.9998 150.794 60.2304C150.548 60.4609 150.426 60.8625 150.426 61.4352V64.5143H148.864V58.3338H150.426V59.2933ZM158.866 59.6168H157.784V64.5143H156.2V59.6168H155.497V58.3338H156.2V58.0215C156.2 57.2629 156.416 56.7051 156.847 56.3481C157.278 55.9911 157.929 55.8237 158.799 55.846V57.1625C158.42 57.155 158.156 57.2182 158.007 57.3521C157.858 57.486 157.784 57.7277 157.784 58.0773V58.3338H158.866V59.6168ZM162.623 64.6147C162.028 64.6147 161.492 64.4845 161.016 64.2242C160.54 63.9565 160.165 63.5809 159.889 63.0975C159.622 62.614 159.488 62.0562 159.488 61.4241C159.488 60.7919 159.625 60.2341 159.901 59.7507C160.183 59.2672 160.566 58.8954 161.05 58.6351C161.533 58.3673 162.072 58.2334 162.667 58.2334C163.262 58.2334 163.801 58.3673 164.285 58.6351C164.768 58.8954 165.148 59.2672 165.423 59.7507C165.705 60.2341 165.847 60.7919 165.847 61.4241C165.847 62.0562 165.702 62.614 165.412 63.0975C165.129 63.5809 164.742 63.9565 164.251 64.2242C163.768 64.4845 163.225 64.6147 162.623 64.6147ZM162.623 63.2537C162.905 63.2537 163.169 63.1867 163.415 63.0528C163.668 62.9115 163.868 62.7033 164.017 62.4281C164.166 62.1529 164.24 61.8182 164.24 61.4241C164.24 60.8365 164.084 60.3866 163.772 60.0742C163.467 59.7544 163.091 59.5945 162.645 59.5945C162.199 59.5945 161.823 59.7544 161.518 60.0742C161.221 60.3866 161.072 60.8365 161.072 61.4241C161.072 62.0116 161.217 62.4653 161.507 62.7851C161.805 63.0975 162.176 63.2537 162.623 63.2537ZM170.417 58.2446C171.154 58.2446 171.749 58.4789 172.202 58.9474C172.656 59.4085 172.883 60.0556 172.883 60.8886V64.5143H171.321V61.1005C171.321 60.6097 171.198 60.2341 170.953 59.9738C170.707 59.706 170.373 59.5722 169.949 59.5722C169.517 59.5722 169.175 59.706 168.922 59.9738C168.677 60.2341 168.554 60.6097 168.554 61.1005V64.5143H166.992V58.3338H168.554V59.1036C168.762 58.8359 169.027 58.6276 169.346 58.4789C169.674 58.3227 170.031 58.2446 170.417 58.2446ZM173.966 61.4017C173.966 60.777 174.089 60.2229 174.335 59.7395C174.587 59.2561 174.93 58.8842 175.361 58.6239C175.792 58.3636 176.272 58.2334 176.8 58.2334C177.202 58.2334 177.585 58.3227 177.949 58.5012C178.314 58.6722 178.604 58.9028 178.819 59.1929V56.2588H180.403V64.5143H178.819V63.5995C178.626 63.9044 178.354 64.1499 178.005 64.3358C177.655 64.5217 177.25 64.6147 176.789 64.6147C176.268 64.6147 175.792 64.4808 175.361 64.2131C174.93 63.9453 174.587 63.5697 174.335 63.0863C174.089 62.5954 173.966 62.0339 173.966 61.4017ZM178.83 61.4241C178.83 61.0448 178.756 60.7212 178.607 60.4535C178.459 60.1783 178.258 59.9701 178.005 59.8287C177.752 59.68 177.481 59.6056 177.191 59.6056C176.9 59.6056 176.633 59.6763 176.387 59.8176C176.142 59.9589 175.941 60.1671 175.785 60.4423C175.636 60.7101 175.562 61.0299 175.562 61.4017C175.562 61.7736 175.636 62.1009 175.785 62.3835C175.941 62.6587 176.142 62.8706 176.387 63.0194C176.64 63.1681 176.908 63.2425 177.191 63.2425C177.481 63.2425 177.752 63.1718 178.005 63.0305C178.258 62.8818 178.459 62.6735 178.607 62.4058C178.756 62.1306 178.83 61.8034 178.83 61.4241ZM184.294 64.6147C183.788 64.6147 183.335 64.5254 182.933 64.3469C182.531 64.161 182.211 63.9119 181.973 63.5995C181.743 63.2871 181.616 62.9413 181.594 62.562H183.167C183.197 62.8 183.312 62.9971 183.513 63.1532C183.721 63.3094 183.978 63.3875 184.283 63.3875C184.58 63.3875 184.811 63.328 184.974 63.209C185.146 63.09 185.231 62.9376 185.231 62.7516C185.231 62.5508 185.127 62.4021 184.919 62.3054C184.718 62.2013 184.394 62.0897 183.948 61.9707C183.487 61.8591 183.108 61.7439 182.81 61.6249C182.52 61.5059 182.267 61.3237 182.052 61.0782C181.843 60.8328 181.739 60.5018 181.739 60.0853C181.739 59.7432 181.836 59.4308 182.029 59.1482C182.23 58.8656 182.513 58.6425 182.877 58.4789C183.249 58.3152 183.684 58.2334 184.182 58.2334C184.919 58.2334 185.506 58.4194 185.945 58.7912C186.384 59.1557 186.626 59.6503 186.67 60.275H185.175C185.153 60.0296 185.049 59.8362 184.863 59.6949C184.684 59.5461 184.443 59.4718 184.138 59.4718C183.855 59.4718 183.636 59.5238 183.48 59.6279C183.331 59.7321 183.256 59.8771 183.256 60.063C183.256 60.2713 183.361 60.4312 183.569 60.5427C183.777 60.6469 184.101 60.7547 184.539 60.8663C184.986 60.9778 185.354 61.0931 185.644 61.2121C185.934 61.3311 186.183 61.517 186.391 61.7699C186.607 62.0153 186.719 62.3426 186.726 62.7516C186.726 63.1086 186.626 63.4284 186.425 63.711C186.231 63.9937 185.949 64.2168 185.577 64.3804C185.212 64.5366 184.785 64.6147 184.294 64.6147ZM193.753 61.2902C193.753 61.5133 193.738 61.7141 193.709 61.8926H189.191C189.228 62.3389 189.384 62.6884 189.659 62.9413C189.934 63.1942 190.273 63.3206 190.674 63.3206C191.254 63.3206 191.667 63.0714 191.913 62.5731H193.597C193.419 63.1681 193.077 63.659 192.571 64.0457C192.065 64.425 191.444 64.6147 190.708 64.6147C190.113 64.6147 189.577 64.4845 189.101 64.2242C188.633 63.9565 188.265 63.5809 187.997 63.0975C187.737 62.614 187.606 62.0562 187.606 61.4241C187.606 60.7844 187.737 60.2229 187.997 59.7395C188.257 59.2561 188.622 58.8842 189.09 58.6239C189.559 58.3636 190.098 58.2334 190.708 58.2334C191.295 58.2334 191.82 58.3599 192.281 58.6127C192.749 58.8656 193.11 59.2263 193.363 59.6949C193.623 60.156 193.753 60.6878 193.753 61.2902ZM192.136 60.8439C192.128 60.4423 191.983 60.1225 191.701 59.8845C191.418 59.6391 191.072 59.5164 190.663 59.5164C190.276 59.5164 189.949 59.6354 189.681 59.8734C189.421 60.1039 189.261 60.4275 189.202 60.8439H192.136ZM198.318 58.2446C199.055 58.2446 199.65 58.4789 200.103 58.9474C200.557 59.4085 200.784 60.0556 200.784 60.8886V64.5143H199.222V61.1005C199.222 60.6097 199.099 60.2341 198.854 59.9738C198.608 59.706 198.274 59.5722 197.85 59.5722C197.418 59.5722 197.076 59.706 196.823 59.9738C196.578 60.2341 196.455 60.6097 196.455 61.1005V64.5143H194.893V58.3338H196.455V59.1036C196.663 58.8359 196.928 58.6276 197.247 58.4789C197.575 58.3227 197.932 58.2446 198.318 58.2446Z" fill="#2A2B2D"/>
</g>
<g filter="url(#filter2_i_3436_26105)">
<rect width="233.418" height="115.062" transform="translate(68 78.1763)" fill="white"/>
<g filter="url(#filter3_i_3436_26105)">
<rect width="233.418" height="62.7346" transform="translate(68 78.1763)" fill="white"/>
<path d="M83.942 89.6514V90.733H81.1567V92.4463H83.2911V93.5087H81.1567V96.3323H79.8167V89.6514H83.942ZM86.8815 96.4184C86.371 96.4184 85.9116 96.3068 85.5032 96.0834C85.0948 95.8537 84.7726 95.5315 84.5365 95.1167C84.3068 94.7019 84.1919 94.2234 84.1919 93.681C84.1919 93.1386 84.31 92.66 84.5461 92.2453C84.7885 91.8305 85.1171 91.5115 85.5319 91.2881C85.9467 91.0584 86.4093 90.9435 86.9198 90.9435C87.4303 90.9435 87.8929 91.0584 88.3076 91.2881C88.7224 91.5115 89.0478 91.8305 89.2839 92.2453C89.5264 92.66 89.6476 93.1386 89.6476 93.681C89.6476 94.2234 89.5232 94.7019 89.2744 95.1167C89.0319 95.5315 88.7001 95.8537 88.2789 96.0834C87.8642 96.3068 87.3983 96.4184 86.8815 96.4184ZM86.8815 95.2507C87.124 95.2507 87.3505 95.1933 87.5611 95.0784C87.778 94.9572 87.9503 94.7785 88.0779 94.5424C88.2055 94.3063 88.2693 94.0192 88.2693 93.681C88.2693 93.1769 88.1353 92.7908 87.8673 92.5228C87.6057 92.2485 87.2835 92.1113 86.9006 92.1113C86.5178 92.1113 86.1955 92.2485 85.9339 92.5228C85.6787 92.7908 85.5511 93.1769 85.5511 93.681C85.5511 94.1851 85.6755 94.5743 85.9243 94.8487C86.1796 95.1167 86.4986 95.2507 86.8815 95.2507ZM93.2038 90.9531C93.8355 90.9531 94.346 91.1541 94.7352 91.5561C95.1244 91.9517 95.319 92.5069 95.319 93.2216V96.3323H93.979V93.4034C93.979 92.9823 93.8738 92.66 93.6632 92.4367C93.4526 92.207 93.1655 92.0921 92.8018 92.0921C92.4317 92.0921 92.1381 92.207 91.9212 92.4367C91.7106 92.66 91.6053 92.9823 91.6053 93.4034V96.3323H90.2653V91.0297H91.6053V91.6901C91.784 91.4604 92.0105 91.2817 92.2849 91.1541C92.5657 91.0201 92.8719 90.9531 93.2038 90.9531ZM95.8835 93.6618C95.8835 93.1258 95.9888 92.6505 96.1993 92.2357C96.4163 91.8209 96.7098 91.5019 97.0799 91.2785C97.45 91.0552 97.8616 90.9435 98.3146 90.9435C98.6592 90.9435 98.9878 91.0201 99.3005 91.1733C99.6132 91.32 99.862 91.5178 100.047 91.7667V89.2494H101.406V96.3323H100.047V95.5474C99.8812 95.809 99.6483 96.0196 99.3484 96.1791C99.0485 96.3387 98.7007 96.4184 98.3051 96.4184C97.8584 96.4184 97.45 96.3036 97.0799 96.0738C96.7098 95.8441 96.4163 95.5219 96.1993 95.1071C95.9888 94.686 95.8835 94.2042 95.8835 93.6618ZM100.057 93.681C100.057 93.3556 99.9928 93.078 99.8652 92.8483C99.7376 92.6122 99.5653 92.4335 99.3484 92.3123C99.1314 92.1846 98.8985 92.1208 98.6496 92.1208C98.4008 92.1208 98.1711 92.1815 97.9605 92.3027C97.7499 92.4239 97.5776 92.6026 97.4436 92.8387C97.316 93.0684 97.2522 93.3428 97.2522 93.6618C97.2522 93.9809 97.316 94.2616 97.4436 94.5041C97.5776 94.7402 97.7499 94.9221 97.9605 95.0497C98.1774 95.1773 98.4072 95.2411 98.6496 95.2411C98.8985 95.2411 99.1314 95.1805 99.3484 95.0593C99.5653 94.9317 99.7376 94.753 99.8652 94.5233C99.9928 94.2872 100.057 94.0064 100.057 93.681ZM104.379 96.4184C103.945 96.4184 103.556 96.3418 103.211 96.1887C102.867 96.0292 102.592 95.8154 102.388 95.5474C102.19 95.2794 102.082 94.9827 102.063 94.6573H103.412C103.438 94.8615 103.537 95.0306 103.709 95.1646C103.888 95.2986 104.108 95.3656 104.369 95.3656C104.625 95.3656 104.822 95.3145 104.963 95.2124C105.109 95.1103 105.183 94.9795 105.183 94.82C105.183 94.6477 105.094 94.5201 104.915 94.4371C104.743 94.3478 104.465 94.2521 104.082 94.15C103.687 94.0543 103.361 93.9554 103.106 93.8533C102.857 93.7512 102.64 93.5948 102.455 93.3843C102.276 93.1737 102.187 92.8897 102.187 92.5324C102.187 92.2389 102.27 91.9709 102.436 91.7284C102.608 91.4859 102.851 91.2945 103.163 91.1541C103.482 91.0137 103.856 90.9435 104.283 90.9435C104.915 90.9435 105.419 91.1031 105.795 91.4221C106.172 91.7348 106.379 92.1591 106.418 92.6951H105.135C105.116 92.4845 105.027 92.3186 104.867 92.1974C104.714 92.0698 104.506 92.006 104.245 92.006C104.002 92.006 103.814 92.0506 103.68 92.14C103.553 92.2293 103.489 92.3537 103.489 92.5133C103.489 92.6919 103.578 92.8291 103.757 92.9248C103.935 93.0142 104.213 93.1067 104.589 93.2024C104.972 93.2981 105.288 93.397 105.537 93.4991C105.786 93.6012 106 93.7607 106.178 93.9777C106.363 94.1883 106.459 94.469 106.465 94.82C106.465 95.1263 106.379 95.4007 106.207 95.6431C106.041 95.8856 105.799 96.077 105.48 96.2174C105.167 96.3514 104.8 96.4184 104.379 96.4184ZM112.129 93.5661C112.129 93.7576 112.117 93.9298 112.091 94.083H108.215C108.247 94.4658 108.381 94.7657 108.617 94.9827C108.853 95.1997 109.143 95.3081 109.488 95.3081C109.985 95.3081 110.34 95.0944 110.55 94.6668H111.995C111.842 95.1773 111.549 95.5985 111.115 95.9303C110.681 96.2557 110.148 96.4184 109.516 96.4184C109.006 96.4184 108.547 96.3068 108.138 96.0834C107.736 95.8537 107.42 95.5315 107.191 95.1167C106.967 94.7019 106.856 94.2234 106.856 93.681C106.856 93.1322 106.967 92.6505 107.191 92.2357C107.414 91.8209 107.727 91.5019 108.129 91.2785C108.531 91.0552 108.993 90.9435 109.516 90.9435C110.021 90.9435 110.47 91.052 110.866 91.269C111.268 91.4859 111.577 91.7954 111.794 92.1974C112.018 92.593 112.129 93.0493 112.129 93.5661ZM110.742 93.1833C110.735 92.8387 110.611 92.5643 110.368 92.3601C110.126 92.1495 109.829 92.0443 109.478 92.0443C109.146 92.0443 108.866 92.1464 108.636 92.3505C108.413 92.5484 108.275 92.8259 108.224 93.1833H110.742ZM115.681 90.9531C116.312 90.9531 116.823 91.1541 117.212 91.5561C117.601 91.9517 117.796 92.5069 117.796 93.2216V96.3323H116.456V93.4034C116.456 92.9823 116.351 92.66 116.14 92.4367C115.93 92.207 115.642 92.0921 115.279 92.0921C114.909 92.0921 114.615 92.207 114.398 92.4367C114.188 92.66 114.082 92.9823 114.082 93.4034V96.3323H112.742V91.0297H114.082V91.6901C114.261 91.4604 114.487 91.2817 114.762 91.1541C115.043 91.0201 115.349 90.9531 115.681 90.9531Z" fill="#7780A0"/>
<rect x="79.1562" y="101.91" width="211.106" height="27.8445" rx="4.35066" fill="#F8F9FB"/>
<rect x="79.1562" y="101.91" width="211.106" height="27.8445" rx="4.35066" stroke="#E0E5F6"/>
<path d="M91.2981 119.912C90.7703 119.912 90.2952 119.821 89.8729 119.64C89.4506 119.452 89.1187 119.188 88.8774 118.848C88.6361 118.509 88.5155 118.113 88.5155 117.661H89.8955C89.9256 118 90.0576 118.279 90.2914 118.498C90.5327 118.716 90.8683 118.826 91.2981 118.826C91.7431 118.826 92.09 118.72 92.3388 118.509C92.5877 118.29 92.7121 118.011 92.7121 117.672C92.7121 117.408 92.6329 117.193 92.4746 117.027C92.3237 116.861 92.1314 116.733 91.8977 116.643C91.6714 116.552 91.3547 116.454 90.9475 116.349C90.4347 116.213 90.0161 116.077 89.6919 115.941C89.3751 115.798 89.1037 115.579 88.8774 115.285C88.6512 114.991 88.5381 114.599 88.5381 114.109C88.5381 113.656 88.6512 113.26 88.8774 112.921C89.1037 112.582 89.4204 112.322 89.8276 112.141C90.2348 111.96 90.7062 111.869 91.2416 111.869C92.0032 111.869 92.6254 112.061 93.108 112.446C93.5982 112.823 93.8697 113.343 93.9225 114.007H92.4972C92.4746 113.72 92.3388 113.475 92.09 113.272C91.8411 113.068 91.5131 112.966 91.1058 112.966C90.7363 112.966 90.4347 113.061 90.2009 113.249C89.9671 113.438 89.8502 113.709 89.8502 114.064C89.8502 114.305 89.9219 114.505 90.0652 114.663C90.216 114.814 90.4045 114.935 90.6307 115.025C90.857 115.116 91.1662 115.214 91.5583 115.319C92.0786 115.462 92.501 115.606 92.8252 115.749C93.157 115.892 93.4361 116.115 93.6623 116.416C93.8961 116.71 94.013 117.106 94.013 117.604C94.013 118.004 93.9036 118.381 93.6849 118.735C93.4738 119.09 93.1608 119.376 92.746 119.595C92.3388 119.806 91.8562 119.912 91.2981 119.912ZM100.882 116.563C100.882 116.797 100.867 117.008 100.836 117.197H96.0742C96.1119 117.695 96.2967 118.094 96.6285 118.396C96.9603 118.698 97.3675 118.848 97.8502 118.848C98.544 118.848 99.0341 118.558 99.3207 117.977H100.712C100.524 118.551 100.18 119.022 99.6827 119.391C99.1925 119.753 98.5817 119.934 97.8502 119.934C97.2544 119.934 96.719 119.802 96.2439 119.538C95.7764 119.267 95.4068 118.89 95.1354 118.407C94.8714 117.917 94.7394 117.351 94.7394 116.71C94.7394 116.069 94.8676 115.508 95.124 115.025C95.388 114.535 95.7537 114.158 96.2213 113.894C96.6964 113.63 97.2393 113.498 97.8502 113.498C98.4384 113.498 98.9625 113.626 99.4225 113.883C99.8825 114.139 100.241 114.501 100.497 114.968C100.754 115.428 100.882 115.96 100.882 116.563ZM99.5356 116.156C99.5281 115.681 99.3584 115.3 99.0266 115.014C98.6948 114.727 98.2838 114.584 97.7936 114.584C97.3487 114.584 96.9679 114.727 96.6511 115.014C96.3344 115.293 96.1459 115.674 96.0855 116.156H99.5356ZM103.075 111.462V119.833H101.785V111.462H103.075ZM110.115 116.563C110.115 116.797 110.1 117.008 110.07 117.197H105.308C105.345 117.695 105.53 118.094 105.862 118.396C106.194 118.698 106.601 118.848 107.084 118.848C107.777 118.848 108.268 118.558 108.554 117.977H109.946C109.757 118.551 109.414 119.022 108.916 119.391C108.426 119.753 107.815 119.934 107.084 119.934C106.488 119.934 105.953 119.802 105.477 119.538C105.01 119.267 104.64 118.89 104.369 118.407C104.105 117.917 103.973 117.351 103.973 116.71C103.973 116.069 104.101 115.508 104.358 115.025C104.621 114.535 104.987 114.158 105.455 113.894C105.93 113.63 106.473 113.498 107.084 113.498C107.672 113.498 108.196 113.626 108.656 113.883C109.116 114.139 109.474 114.501 109.731 114.968C109.987 115.428 110.115 115.96 110.115 116.563ZM108.769 116.156C108.762 115.681 108.592 115.3 108.26 115.014C107.928 114.727 107.517 114.584 107.027 114.584C106.582 114.584 106.201 114.727 105.885 115.014C105.568 115.293 105.379 115.674 105.319 116.156H108.769ZM110.589 116.71C110.589 116.069 110.717 115.508 110.974 115.025C111.238 114.535 111.6 114.158 112.06 113.894C112.52 113.63 113.048 113.498 113.643 113.498C114.397 113.498 115.02 113.679 115.51 114.041C116.007 114.395 116.343 114.904 116.516 115.568H115.125C115.012 115.259 114.831 115.017 114.582 114.844C114.333 114.671 114.02 114.584 113.643 114.584C113.115 114.584 112.693 114.772 112.376 115.149C112.067 115.519 111.913 116.039 111.913 116.71C111.913 117.382 112.067 117.906 112.376 118.283C112.693 118.66 113.115 118.848 113.643 118.848C114.39 118.848 114.884 118.52 115.125 117.864H116.516C116.336 118.498 115.996 119.003 115.498 119.38C115.001 119.75 114.382 119.934 113.643 119.934C113.048 119.934 112.52 119.802 112.06 119.538C111.6 119.267 111.238 118.89 110.974 118.407C110.717 117.917 110.589 117.351 110.589 116.71ZM118.941 114.652V118.102C118.941 118.336 118.994 118.505 119.099 118.611C119.212 118.709 119.401 118.758 119.665 118.758H120.457V119.833H119.439C118.858 119.833 118.413 119.697 118.104 119.425C117.795 119.154 117.64 118.713 117.64 118.102V114.652H116.905V113.6H117.64V112.05H118.941V113.6H120.457V114.652H118.941ZM126.992 116.563C126.992 116.797 126.977 117.008 126.947 117.197H122.185C122.222 117.695 122.407 118.094 122.739 118.396C123.071 118.698 123.478 118.848 123.961 118.848C124.655 118.848 125.145 118.558 125.431 117.977H126.823C126.634 118.551 126.291 119.022 125.793 119.391C125.303 119.753 124.692 119.934 123.961 119.934C123.365 119.934 122.83 119.802 122.354 119.538C121.887 119.267 121.517 118.89 121.246 118.407C120.982 117.917 120.85 117.351 120.85 116.71C120.85 116.069 120.978 115.508 121.235 115.025C121.499 114.535 121.864 114.158 122.332 113.894C122.807 113.63 123.35 113.498 123.961 113.498C124.549 113.498 125.073 113.626 125.533 113.883C125.993 114.139 126.351 114.501 126.608 114.968C126.864 115.428 126.992 115.96 126.992 116.563ZM125.646 116.156C125.639 115.681 125.469 115.3 125.137 115.014C124.805 114.727 124.394 114.584 123.904 114.584C123.459 114.584 123.078 114.727 122.762 115.014C122.445 115.293 122.256 115.674 122.196 116.156H125.646ZM133.608 116.563C133.608 116.797 133.593 117.008 133.563 117.197H128.801C128.839 117.695 129.023 118.094 129.355 118.396C129.687 118.698 130.094 118.848 130.577 118.848C131.271 118.848 131.761 118.558 132.047 117.977H133.439C133.25 118.551 132.907 119.022 132.409 119.391C131.919 119.753 131.308 119.934 130.577 119.934C129.981 119.934 129.446 119.802 128.971 119.538C128.503 119.267 128.134 118.89 127.862 118.407C127.598 117.917 127.466 117.351 127.466 116.71C127.466 116.069 127.594 115.508 127.851 115.025C128.115 114.535 128.48 114.158 128.948 113.894C129.423 113.63 129.966 113.498 130.577 113.498C131.165 113.498 131.689 113.626 132.149 113.883C132.609 114.139 132.967 114.501 133.224 114.968C133.48 115.428 133.608 115.96 133.608 116.563ZM132.262 116.156C132.255 115.681 132.085 115.3 131.753 115.014C131.422 114.727 131.011 114.584 130.52 114.584C130.075 114.584 129.695 114.727 129.378 115.014C129.061 115.293 128.873 115.674 128.812 116.156H132.262ZM135.802 114.505C135.99 114.188 136.239 113.943 136.548 113.769C136.865 113.588 137.238 113.498 137.668 113.498V114.833H137.34C136.835 114.833 136.45 114.961 136.186 115.217C135.93 115.474 135.802 115.919 135.802 116.552V119.833H134.512V113.6H135.802V114.505Z" fill="#7780A0"/>
<path d="M276.974 118.192L280.582 114.013C280.651 113.934 280.688 113.843 280.69 113.751C280.692 113.659 280.659 113.568 280.594 113.487C280.53 113.407 280.436 113.34 280.322 113.293C280.208 113.247 280.079 113.222 279.948 113.222L272.731 113.222C272.599 113.222 272.47 113.247 272.356 113.293C272.242 113.34 272.148 113.407 272.084 113.487C272.019 113.568 271.986 113.659 271.988 113.751C271.99 113.844 272.028 113.934 272.096 114.013L275.704 118.192C275.77 118.268 275.864 118.332 275.975 118.376C276.086 118.42 276.211 118.443 276.339 118.443C276.467 118.443 276.592 118.42 276.704 118.376C276.815 118.332 276.908 118.268 276.974 118.192Z" fill="#7780A0"/>
</g>
<g filter="url(#filter4_i_3436_26105)">
<rect width="233.418" height="52.3274" transform="translate(68 140.911)" fill="#F7F9FC"/>
<g filter="url(#filter5_d_3436_26105)">
<rect x="79.1562" y="152.067" width="102.763" height="30.0154" rx="2.78901" fill="#004D93"/>
<path d="M105.149 166.514C105.625 166.61 106.004 166.837 106.286 167.194C106.576 167.544 106.722 167.957 106.722 168.433C106.722 169.095 106.498 169.619 106.052 170.006C105.613 170.385 104.974 170.575 104.133 170.575H100.753V162.698H104.066C104.862 162.698 105.472 162.873 105.896 163.223C106.327 163.572 106.543 164.063 106.543 164.695C106.543 165.186 106.413 165.588 106.153 165.9C105.9 166.213 105.565 166.417 105.149 166.514ZM102.326 166.001H103.743C104.137 166.001 104.435 165.915 104.635 165.744C104.844 165.566 104.948 165.313 104.948 164.985C104.948 164.658 104.847 164.405 104.647 164.227C104.446 164.048 104.137 163.959 103.721 163.959H102.326V166.001ZM103.821 169.292C104.237 169.292 104.557 169.202 104.78 169.024C105.003 168.838 105.115 168.57 105.115 168.221C105.115 167.871 105 167.603 104.769 167.417C104.546 167.224 104.226 167.127 103.81 167.127H102.326V169.292H103.821ZM113.404 167.25C113.404 167.406 113.386 167.585 113.349 167.786H108.819C108.842 168.336 108.99 168.741 109.266 169.002C109.541 169.262 109.883 169.392 110.292 169.392C110.656 169.392 110.958 169.303 111.196 169.124C111.441 168.946 111.597 168.704 111.664 168.399H113.326C113.245 168.831 113.07 169.217 112.802 169.559C112.534 169.902 112.188 170.169 111.765 170.363C111.348 170.556 110.883 170.653 110.37 170.653C109.768 170.653 109.232 170.526 108.764 170.273C108.295 170.013 107.931 169.645 107.67 169.169C107.41 168.693 107.28 168.131 107.28 167.484C107.28 166.837 107.41 166.276 107.67 165.8C107.931 165.316 108.295 164.948 108.764 164.695C109.232 164.442 109.768 164.316 110.37 164.316C110.98 164.316 111.512 164.442 111.965 164.695C112.426 164.948 112.78 165.298 113.025 165.744C113.278 166.183 113.404 166.685 113.404 167.25ZM111.82 167.094C111.843 166.588 111.709 166.205 111.419 165.945C111.136 165.685 110.787 165.554 110.37 165.554C109.946 165.554 109.589 165.685 109.299 165.945C109.009 166.205 108.849 166.588 108.819 167.094H111.82ZM116.978 169.002L118.54 164.394H120.214L117.927 170.575H116.008L113.721 164.394H115.405L116.978 169.002ZM126.669 167.25C126.669 167.406 126.65 167.585 126.613 167.786H122.084C122.106 168.336 122.255 168.741 122.53 169.002C122.805 169.262 123.147 169.392 123.556 169.392C123.921 169.392 124.222 169.303 124.46 169.124C124.705 168.946 124.861 168.704 124.928 168.399H126.591C126.509 168.831 126.334 169.217 126.066 169.559C125.799 169.902 125.453 170.169 125.029 170.363C124.612 170.556 124.147 170.653 123.634 170.653C123.032 170.653 122.496 170.526 122.028 170.273C121.559 170.013 121.195 169.645 120.934 169.169C120.674 168.693 120.544 168.131 120.544 167.484C120.544 166.837 120.674 166.276 120.934 165.8C121.195 165.316 121.559 164.948 122.028 164.695C122.496 164.442 123.032 164.316 123.634 164.316C124.244 164.316 124.776 164.442 125.23 164.695C125.691 164.948 126.044 165.298 126.289 165.744C126.542 166.183 126.669 166.685 126.669 167.25ZM125.085 167.094C125.107 166.588 124.973 166.205 124.683 165.945C124.4 165.685 124.051 165.554 123.634 165.554C123.21 165.554 122.853 165.685 122.563 165.945C122.273 166.205 122.113 166.588 122.084 167.094H125.085ZM129.685 164.316C130.436 164.316 131.038 164.506 131.492 164.885C131.946 165.264 132.228 165.77 132.34 166.402H130.867C130.808 166.105 130.674 165.867 130.466 165.688C130.257 165.51 129.986 165.42 129.651 165.42C129.383 165.42 129.175 165.484 129.026 165.61C128.878 165.737 128.803 165.908 128.803 166.123C128.803 166.294 128.863 166.432 128.982 166.536C129.101 166.64 129.25 166.722 129.428 166.782C129.607 166.841 129.863 166.912 130.198 166.993C130.666 167.098 131.046 167.209 131.336 167.328C131.633 167.44 131.886 167.622 132.094 167.875C132.31 168.12 132.418 168.455 132.418 168.879C132.418 169.407 132.21 169.835 131.793 170.162C131.384 170.489 130.83 170.653 130.131 170.653C129.328 170.653 128.684 170.474 128.201 170.117C127.718 169.753 127.424 169.236 127.32 168.566H128.826C128.863 168.871 128.997 169.113 129.227 169.292C129.458 169.463 129.759 169.548 130.131 169.548C130.399 169.548 130.603 169.485 130.745 169.359C130.886 169.225 130.956 169.054 130.956 168.845C130.956 168.667 130.893 168.522 130.767 168.41C130.648 168.299 130.495 168.213 130.309 168.154C130.131 168.094 129.874 168.024 129.54 167.942C129.079 167.838 128.703 167.734 128.413 167.629C128.13 167.518 127.885 167.343 127.677 167.105C127.476 166.867 127.375 166.54 127.375 166.123C127.375 165.588 127.58 165.153 127.989 164.818C128.398 164.483 128.963 164.316 129.685 164.316ZM136.66 169.225V170.575H135.835C135.143 170.575 134.611 170.407 134.239 170.073C133.875 169.738 133.693 169.18 133.693 168.399V165.722H132.834V164.394H133.693V162.866H135.266V164.394H136.649V165.722H135.266V168.421C135.266 168.719 135.325 168.927 135.444 169.046C135.563 169.165 135.764 169.225 136.047 169.225H136.66ZM137.382 162.62C137.382 162.367 137.471 162.163 137.65 162.007C137.828 161.843 138.063 161.761 138.353 161.761C138.643 161.761 138.877 161.843 139.056 162.007C139.234 162.163 139.323 162.367 139.323 162.62C139.323 162.866 139.234 163.07 139.056 163.234C138.877 163.39 138.643 163.468 138.353 163.468C138.063 163.468 137.828 163.39 137.65 163.234C137.471 163.07 137.382 162.866 137.382 162.62ZM139.134 164.394V170.575H137.561V164.394H139.134ZM142.746 164.316C143.267 164.316 143.713 164.439 144.085 164.684C144.457 164.93 144.721 165.261 144.877 165.677V164.394H146.439V170.597C146.439 171.17 146.323 171.683 146.093 172.136C145.87 172.598 145.531 172.958 145.078 173.219C144.631 173.479 144.089 173.609 143.449 173.609C142.556 173.609 141.835 173.397 141.285 172.973C140.734 172.549 140.4 171.973 140.281 171.244H141.831C141.921 171.556 142.092 171.798 142.344 171.969C142.605 172.148 142.936 172.237 143.337 172.237C143.798 172.237 144.17 172.099 144.453 171.824C144.736 171.556 144.877 171.147 144.877 170.597V169.28C144.721 169.697 144.457 170.032 144.085 170.285C143.713 170.53 143.267 170.653 142.746 170.653C142.225 170.653 141.757 170.526 141.34 170.273C140.924 170.021 140.597 169.656 140.359 169.18C140.128 168.697 140.013 168.131 140.013 167.484C140.013 166.837 140.128 166.276 140.359 165.8C140.597 165.316 140.924 164.948 141.34 164.695C141.757 164.442 142.225 164.316 142.746 164.316ZM143.237 165.688C142.746 165.688 142.352 165.848 142.054 166.168C141.757 166.488 141.608 166.927 141.608 167.484C141.608 168.042 141.757 168.481 142.054 168.801C142.352 169.113 142.746 169.269 143.237 169.269C143.713 169.269 144.103 169.109 144.408 168.79C144.721 168.462 144.877 168.027 144.877 167.484C144.877 166.934 144.721 166.499 144.408 166.179C144.103 165.852 143.713 165.688 143.237 165.688ZM153.445 167.25C153.445 167.406 153.426 167.585 153.389 167.786H148.86C148.882 168.336 149.031 168.741 149.306 169.002C149.581 169.262 149.923 169.392 150.333 169.392C150.697 169.392 150.998 169.303 151.236 169.124C151.482 168.946 151.638 168.704 151.705 168.399H153.367C153.285 168.831 153.11 169.217 152.843 169.559C152.575 169.902 152.229 170.169 151.805 170.363C151.389 170.556 150.924 170.653 150.411 170.653C149.808 170.653 149.273 170.526 148.804 170.273C148.336 170.013 147.971 169.645 147.711 169.169C147.451 168.693 147.32 168.131 147.32 167.484C147.32 166.837 147.451 166.276 147.711 165.8C147.971 165.316 148.336 164.948 148.804 164.695C149.273 164.442 149.808 164.316 150.411 164.316C151.021 164.316 151.552 164.442 152.006 164.695C152.467 164.948 152.82 165.298 153.066 165.744C153.319 166.183 153.445 166.685 153.445 167.25ZM151.861 167.094C151.883 166.588 151.749 166.205 151.459 165.945C151.177 165.685 150.827 165.554 150.411 165.554C149.987 165.554 149.63 165.685 149.34 165.945C149.05 166.205 148.89 166.588 148.86 167.094H151.861ZM158.012 164.305C158.726 164.305 159.295 164.539 159.719 165.008C160.143 165.476 160.355 166.134 160.355 166.982V170.575H158.793V167.161C158.793 166.67 158.666 166.291 158.413 166.023C158.161 165.748 157.815 165.61 157.376 165.61C156.93 165.61 156.573 165.755 156.305 166.045C156.037 166.335 155.903 166.752 155.903 167.295V170.575H154.33V164.394H155.903V165.632C156.067 165.216 156.335 164.892 156.707 164.662C157.086 164.424 157.521 164.305 158.012 164.305Z" fill="white"/>
</g>
<g filter="url(#filter6_d_3436_26105)">
<rect x="187.5" y="152.067" width="102.763" height="30.0154" rx="2.78901" fill="white"/>
<rect x="187.871" y="152.438" width="102.021" height="29.2735" rx="2.41809" stroke="#E3E4EA" stroke-width="0.741844"/>
<path d="M215.427 169.091H212.326L211.813 170.575H210.173L212.973 162.777H214.791L217.592 170.575H215.941L215.427 169.091ZM215.003 167.841L213.877 164.584L212.75 167.841H215.003ZM221.832 164.305C222.568 164.305 223.163 164.539 223.617 165.008C224.07 165.469 224.297 166.116 224.297 166.949V170.575H222.735V167.161C222.735 166.67 222.613 166.294 222.367 166.034C222.122 165.766 221.787 165.632 221.363 165.632C220.932 165.632 220.59 165.766 220.337 166.034C220.091 166.294 219.969 166.67 219.969 167.161V170.575H218.407V164.394H219.969V165.164C220.177 164.896 220.441 164.688 220.761 164.539C221.088 164.383 221.445 164.305 221.832 164.305ZM228.976 164.305C229.712 164.305 230.307 164.539 230.761 165.008C231.215 165.469 231.441 166.116 231.441 166.949V170.575H229.88V167.161C229.88 166.67 229.757 166.294 229.511 166.034C229.266 165.766 228.931 165.632 228.507 165.632C228.076 165.632 227.734 165.766 227.481 166.034C227.236 166.294 227.113 166.67 227.113 167.161V170.575H225.551V164.394H227.113V165.164C227.321 164.896 227.585 164.688 227.905 164.539C228.232 164.383 228.589 164.305 228.976 164.305ZM238.53 164.394V170.575H236.957V169.794C236.756 170.061 236.492 170.273 236.165 170.43C235.845 170.578 235.495 170.653 235.116 170.653C234.633 170.653 234.205 170.552 233.833 170.351C233.461 170.143 233.167 169.842 232.952 169.448C232.744 169.046 232.639 168.57 232.639 168.02V164.394H234.201V167.797C234.201 168.288 234.324 168.667 234.569 168.935C234.815 169.195 235.149 169.325 235.573 169.325C236.005 169.325 236.343 169.195 236.589 168.935C236.834 168.667 236.957 168.288 236.957 167.797V164.394H238.53ZM241.401 162.319V170.575H239.839V162.319H241.401ZM248.458 167.35C248.458 167.574 248.443 167.774 248.414 167.953H243.895C243.933 168.399 244.089 168.749 244.364 169.002C244.639 169.254 244.977 169.381 245.379 169.381C245.959 169.381 246.372 169.132 246.617 168.633H248.302C248.124 169.228 247.781 169.719 247.276 170.106C246.77 170.485 246.149 170.675 245.413 170.675C244.818 170.675 244.282 170.545 243.806 170.285C243.338 170.017 242.969 169.641 242.702 169.158C242.441 168.674 242.311 168.117 242.311 167.484C242.311 166.845 242.441 166.283 242.702 165.8C242.962 165.316 243.326 164.945 243.795 164.684C244.264 164.424 244.803 164.294 245.413 164.294C246 164.294 246.524 164.42 246.986 164.673C247.454 164.926 247.815 165.287 248.068 165.755C248.328 166.216 248.458 166.748 248.458 167.35ZM246.841 166.904C246.833 166.503 246.688 166.183 246.405 165.945C246.123 165.699 245.777 165.577 245.368 165.577C244.981 165.577 244.654 165.696 244.386 165.934C244.126 166.164 243.966 166.488 243.907 166.904H246.841ZM250.929 165.354C251.129 165.026 251.39 164.77 251.71 164.584C252.037 164.398 252.409 164.305 252.825 164.305V165.945H252.412C251.921 165.945 251.55 166.06 251.297 166.291C251.051 166.521 250.929 166.923 250.929 167.496V170.575H249.367V164.394H250.929V165.354ZM259.391 167.35C259.391 167.574 259.376 167.774 259.346 167.953H254.828C254.865 168.399 255.022 168.749 255.297 169.002C255.572 169.254 255.91 169.381 256.312 169.381C256.892 169.381 257.305 169.132 257.55 168.633H259.235C259.056 169.228 258.714 169.719 258.208 170.106C257.703 170.485 257.082 170.675 256.345 170.675C255.75 170.675 255.215 170.545 254.739 170.285C254.27 170.017 253.902 169.641 253.634 169.158C253.374 168.674 253.244 168.117 253.244 167.484C253.244 166.845 253.374 166.283 253.634 165.8C253.895 165.316 254.259 164.945 254.728 164.684C255.196 164.424 255.736 164.294 256.345 164.294C256.933 164.294 257.457 164.42 257.918 164.673C258.387 164.926 258.748 165.287 259.001 165.755C259.261 166.216 259.391 166.748 259.391 167.35ZM257.773 166.904C257.766 166.503 257.621 166.183 257.338 165.945C257.056 165.699 256.71 165.577 256.301 165.577C255.914 165.577 255.587 165.696 255.319 165.934C255.059 166.164 254.899 166.488 254.839 166.904H257.773ZM263.724 164.305C264.461 164.305 265.056 164.539 265.509 165.008C265.963 165.469 266.19 166.116 266.19 166.949V170.575H264.628V167.161C264.628 166.67 264.505 166.294 264.26 166.034C264.014 165.766 263.68 165.632 263.256 165.632C262.825 165.632 262.482 165.766 262.23 166.034C261.984 166.294 261.861 166.67 261.861 167.161V170.575H260.3V164.394H261.861V165.164C262.07 164.896 262.334 164.688 262.653 164.539C262.981 164.383 263.338 164.305 263.724 164.305Z" fill="#2A2B2D"/>
</g>
</g>
</g>
</g>
<rect x="68.3433" y="43.1958" width="232.731" height="149.041" rx="6.6178" stroke="#DCDCE0" stroke-width="0.686523"/>
</g>
<defs>
<filter id="filter0_dd_3436_26105" x="0.873329" y="0.898369" width="367.671" height="283.981" filterUnits="userSpaceOnUse" color-interpolation-filters="sRGB">
<feFlood flood-opacity="0" result="BackgroundImageFix"/>
<feColorMatrix in="SourceAlpha" type="matrix" values="0 0 0 0 0 0 0 0 0 0 0 0 0 0 0 0 0 0 127 0" result="hardAlpha"/>
<feOffset dy="25.1725"/>
<feGaussianBlur stdDeviation="33.5633"/>
<feColorMatrix type="matrix" values="0 0 0 0 0.654046 0 0 0 0 0.683294 0 0 0 0 0.786637 0 0 0 0.1 0"/>
<feBlend mode="multiply" in2="BackgroundImageFix" result="effect1_dropShadow_3436_26105"/>
<feColorMatrix in="SourceAlpha" type="matrix" values="0 0 0 0 0 0 0 0 0 0 0 0 0 0 0 0 0 0 127 0" result="hardAlpha"/>
<feOffset dy="16.7817"/>
<feGaussianBlur stdDeviation="23.0748"/>
<feColorMatrix type="matrix" values="0 0 0 0 0.45098 0 0 0 0 0.469804 0 0 0 0 0.568627 0 0 0 0.18 0"/>
<feBlend mode="normal" in2="effect1_dropShadow_3436_26105" result="effect2_dropShadow_3436_26105"/>
<feBlend mode="normal" in="SourceGraphic" in2="effect2_dropShadow_3436_26105" result="shape"/>
</filter>
<filter id="filter1_i_3436_26105" x="68" y="42.8525" width="233.418" height="35.3235" filterUnits="userSpaceOnUse" color-interpolation-filters="sRGB">
<feFlood flood-opacity="0" result="BackgroundImageFix"/>
<feBlend mode="normal" in="SourceGraphic" in2="BackgroundImageFix" result="shape"/>
<feColorMatrix in="SourceAlpha" type="matrix" values="0 0 0 0 0 0 0 0 0 0 0 0 0 0 0 0 0 0 127 0" result="hardAlpha"/>
<feOffset dy="-0.92967"/>
<feComposite in2="hardAlpha" operator="arithmetic" k2="-1" k3="1"/>
<feColorMatrix type="matrix" values="0 0 0 0 0.831373 0 0 0 0 0.85098 0 0 0 0 0.866667 0 0 0 1 0"/>
<feBlend mode="normal" in2="shape" result="effect1_innerShadow_3436_26105"/>
</filter>
<filter id="filter2_i_3436_26105" x="68" y="78.1763" width="233.418" height="115.062" filterUnits="userSpaceOnUse" color-interpolation-filters="sRGB">
<feFlood flood-opacity="0" result="BackgroundImageFix"/>
<feBlend mode="normal" in="SourceGraphic" in2="BackgroundImageFix" result="shape"/>
<feColorMatrix in="SourceAlpha" type="matrix" values="0 0 0 0 0 0 0 0 0 0 0 0 0 0 0 0 0 0 127 0" result="hardAlpha"/>
<feOffset dy="-0.870133"/>
<feComposite in2="hardAlpha" operator="arithmetic" k2="-1" k3="1"/>
<feColorMatrix type="matrix" values="0 0 0 0 0.956863 0 0 0 0 0.956863 0 0 0 0 0.956863 0 0 0 1 0"/>
<feBlend mode="normal" in2="shape" result="effect1_innerShadow_3436_26105"/>
</filter>
<filter id="filter3_i_3436_26105" x="68" y="78.1763" width="233.418" height="62.7346" filterUnits="userSpaceOnUse" color-interpolation-filters="sRGB">
<feFlood flood-opacity="0" result="BackgroundImageFix"/>
<feBlend mode="normal" in="SourceGraphic" in2="BackgroundImageFix" result="shape"/>
<feColorMatrix in="SourceAlpha" type="matrix" values="0 0 0 0 0 0 0 0 0 0 0 0 0 0 0 0 0 0 127 0" result="hardAlpha"/>
<feOffset dy="-0.92967"/>
<feComposite in2="hardAlpha" operator="arithmetic" k2="-1" k3="1"/>
<feColorMatrix type="matrix" values="0 0 0 0 0.831373 0 0 0 0 0.85098 0 0 0 0 0.866667 0 0 0 1 0"/>
<feBlend mode="normal" in2="shape" result="effect1_innerShadow_3436_26105"/>
</filter>
<filter id="filter4_i_3436_26105" x="68" y="140.911" width="233.418" height="52.3274" filterUnits="userSpaceOnUse" color-interpolation-filters="sRGB">
<feFlood flood-opacity="0" result="BackgroundImageFix"/>
<feBlend mode="normal" in="SourceGraphic" in2="BackgroundImageFix" result="shape"/>
<feColorMatrix in="SourceAlpha" type="matrix" values="0 0 0 0 0 0 0 0 0 0 0 0 0 0 0 0 0 0 127 0" result="hardAlpha"/>
<feOffset dy="-0.92967"/>
<feComposite in2="hardAlpha" operator="arithmetic" k2="-1" k3="1"/>
<feColorMatrix type="matrix" values="0 0 0 0 0.831373 0 0 0 0 0.85098 0 0 0 0 0.866667 0 0 0 1 0"/>
<feBlend mode="normal" in2="shape" result="effect1_innerShadow_3436_26105"/>
</filter>
<filter id="filter5_d_3436_26105" x="75.447" y="149.841" width="110.18" height="37.4338" filterUnits="userSpaceOnUse" color-interpolation-filters="sRGB">
<feFlood flood-opacity="0" result="BackgroundImageFix"/>
<feColorMatrix in="SourceAlpha" type="matrix" values="0 0 0 0 0 0 0 0 0 0 0 0 0 0 0 0 0 0 127 0" result="hardAlpha"/>
<feOffset dy="1.48369"/>
<feGaussianBlur stdDeviation="1.85461"/>
<feColorMatrix type="matrix" values="0 0 0 0 0.0980392 0 0 0 0 0.152941 0 0 0 0 0.203922 0 0 0 0.11 0"/>
<feBlend mode="normal" in2="BackgroundImageFix" result="effect1_dropShadow_3436_26105"/>
<feBlend mode="normal" in="SourceGraphic" in2="effect1_dropShadow_3436_26105" result="shape"/>
</filter>
<filter id="filter6_d_3436_26105" x="183.791" y="149.841" width="110.18" height="37.4338" filterUnits="userSpaceOnUse" color-interpolation-filters="sRGB">
<feFlood flood-opacity="0" result="BackgroundImageFix"/>
<feColorMatrix in="SourceAlpha" type="matrix" values="0 0 0 0 0 0 0 0 0 0 0 0 0 0 0 0 0 0 127 0" result="hardAlpha"/>
<feOffset dy="1.48369"/>
<feGaussianBlur stdDeviation="1.85461"/>
<feColorMatrix type="matrix" values="0 0 0 0 0.0980392 0 0 0 0 0.152941 0 0 0 0 0.203922 0 0 0 0.11 0"/>
<feBlend mode="normal" in2="BackgroundImageFix" result="effect1_dropShadow_3436_26105"/>
<feBlend mode="normal" in="SourceGraphic" in2="effect1_dropShadow_3436_26105" result="shape"/>
</filter>
<clipPath id="clip0_3436_26105">
<rect x="68" y="42.8525" width="233.418" height="149.727" rx="6.96106" fill="white"/>
</clipPath>
<clipPath id="clip1_3436_26105">
<rect width="13.0193" height="13.0114" fill="white" transform="translate(79.1562 54.0087)"/>
</clipPath>
</defs>
</svg>
