<svg width="584" height="249" viewBox="0 0 584 249" fill="none" xmlns="http://www.w3.org/2000/svg">
<g filter="url(#filter0_bd_2318_32341)">
<g clip-path="url(#clip0_2318_32341)">
<rect x="60" y="35" width="464" height="128.889" rx="15.4667" fill="white" fill-opacity="0.75"/>
<rect width="128.889" height="128.889" transform="translate(60 35)" fill="url(#paint0_linear_2318_32341)"/>
<rect width="128.889" height="128.889" transform="translate(60 35)" fill="white" fill-opacity="0.75"/>
<rect x="72.8887" y="47.8889" width="103.111" height="103.111" rx="7.73333" fill="url(#paint1_linear_2318_32341)"/>
<path d="M107.727 90.9409L131.948 77.4203C132.664 77.0207 133.509 76.9218 134.298 77.1455C135.087 77.3692 135.754 77.897 136.154 78.6129L138.492 82.8016C138.666 83.1064 138.73 83.4621 138.672 83.8084C138.614 84.1547 138.438 84.4703 138.174 84.7015C137.293 85.4521 136.64 86.4347 136.29 87.5376C135.939 88.6405 135.905 89.8195 136.191 90.9409L136.036 93.2597H107.438L107.727 90.9409Z" fill="#ED133C"/>
<path d="M140.675 106.4C140.675 107.831 141.171 109.218 142.078 110.324C142.986 111.431 144.249 112.188 145.652 112.468C145.996 112.54 146.304 112.729 146.523 113.002C146.743 113.276 146.862 113.617 146.858 113.968V118.768C146.858 119.588 146.532 120.374 145.953 120.954C145.373 121.534 144.586 121.86 143.766 121.86H105.119C104.299 121.86 103.513 121.534 102.933 120.954C102.353 120.374 102.027 119.588 102.027 118.768V94.033C102.027 93.213 102.353 92.4266 102.933 91.8468C103.513 91.2669 104.299 90.9412 105.119 90.9412H143.766C144.586 90.9412 145.373 91.2669 145.953 91.8468C146.532 92.4266 146.858 93.213 146.858 94.033V98.8331C146.862 99.1839 146.743 99.5251 146.523 99.7985C146.304 100.072 145.996 100.261 145.652 100.333C144.249 100.612 142.986 101.37 142.078 102.476C141.171 103.583 140.675 104.969 140.675 106.4Z" fill="#E0EEFF"/>
<path d="M135.265 119.541V121.86H133.719V119.541C133.719 119.336 133.8 119.14 133.945 118.995C134.09 118.85 134.287 118.768 134.492 118.768C134.697 118.768 134.893 118.85 135.038 118.995C135.183 119.14 135.265 119.336 135.265 119.541Z" fill="#3367AA"/>
<path d="M134.492 114.13C134.287 114.13 134.09 114.212 133.945 114.357C133.8 114.502 133.719 114.698 133.719 114.903V116.449C133.719 116.654 133.8 116.851 133.945 116.996C134.09 117.141 134.287 117.222 134.492 117.222C134.697 117.222 134.893 117.141 135.038 116.996C135.183 116.851 135.265 116.654 135.265 116.449V114.903C135.265 114.698 135.183 114.502 135.038 114.357C134.893 114.212 134.697 114.13 134.492 114.13Z" fill="#3367AA"/>
<path d="M134.492 109.493C134.287 109.493 134.09 109.574 133.945 109.719C133.8 109.864 133.719 110.061 133.719 110.266V111.812C133.719 112.017 133.8 112.213 133.945 112.358C134.09 112.503 134.287 112.585 134.492 112.585C134.697 112.585 134.893 112.503 135.038 112.358C135.183 112.213 135.265 112.017 135.265 111.812V110.266C135.265 110.061 135.183 109.864 135.038 109.719C134.893 109.574 134.697 109.493 134.492 109.493Z" fill="#3367AA"/>
<path d="M134.492 104.855C134.287 104.855 134.09 104.936 133.945 105.081C133.8 105.226 133.719 105.423 133.719 105.628V107.174C133.719 107.379 133.8 107.575 133.945 107.72C134.09 107.865 134.287 107.947 134.492 107.947C134.697 107.947 134.893 107.865 135.038 107.72C135.183 107.575 135.265 107.379 135.265 107.174V105.628C135.265 105.423 135.183 105.226 135.038 105.081C134.893 104.936 134.697 104.855 134.492 104.855Z" fill="#3367AA"/>
<path d="M134.492 100.217C134.287 100.217 134.09 100.299 133.945 100.444C133.8 100.589 133.719 100.785 133.719 100.99V102.536C133.719 102.741 133.8 102.938 133.945 103.083C134.09 103.228 134.287 103.309 134.492 103.309C134.697 103.309 134.893 103.228 135.038 103.083C135.183 102.938 135.265 102.741 135.265 102.536V100.99C135.265 100.785 135.183 100.589 135.038 100.444C134.893 100.299 134.697 100.217 134.492 100.217Z" fill="#3367AA"/>
<path d="M134.492 95.5792C134.287 95.5792 134.09 95.6606 133.945 95.8056C133.8 95.9505 133.719 96.1471 133.719 96.3521V97.898C133.719 98.103 133.8 98.2996 133.945 98.4446C134.09 98.5896 134.287 98.671 134.492 98.671C134.697 98.671 134.893 98.5896 135.038 98.4446C135.183 98.2996 135.265 98.103 135.265 97.898V96.3521C135.265 96.1471 135.183 95.9505 135.038 95.8056C134.893 95.6606 134.697 95.5792 134.492 95.5792Z" fill="#3367AA"/>
<path d="M135.265 90.9416V93.2604C135.265 93.4654 135.183 93.662 135.038 93.807C134.893 93.952 134.697 94.0334 134.492 94.0334C134.287 94.0334 134.09 93.952 133.945 93.807C133.8 93.662 133.719 93.4654 133.719 93.2604V90.9416H135.265Z" fill="#3367AA"/>
<path fill-rule="evenodd" clip-rule="evenodd" d="M109.658 98.8742C109.658 98.3873 110.053 97.9926 110.54 97.9926H116.711C117.198 97.9926 117.593 98.3873 117.593 98.8742V105.046C117.593 105.533 117.198 105.927 116.711 105.927H110.54C110.053 105.927 109.658 105.533 109.658 105.046V98.8742ZM112.303 101.519C112.303 101.032 112.698 100.638 113.185 100.638H114.066C114.553 100.638 114.948 101.032 114.948 101.519V102.401C114.948 102.888 114.553 103.283 114.066 103.283H113.185C112.698 103.283 112.303 102.888 112.303 102.401V101.519Z" fill="#004195"/>
<path fill-rule="evenodd" clip-rule="evenodd" d="M109.658 108.572C109.658 108.085 110.053 107.691 110.54 107.691H116.711C117.198 107.691 117.593 108.085 117.593 108.572V114.744C117.593 115.231 117.198 115.626 116.711 115.626H110.54C110.053 115.626 109.658 115.231 109.658 114.744V108.572ZM113.185 110.336C112.698 110.336 112.303 110.73 112.303 111.217V112.099C112.303 112.586 112.698 112.981 113.185 112.981H114.066C114.553 112.981 114.948 112.586 114.948 112.099V111.217C114.948 110.73 114.553 110.336 114.066 110.336H113.185Z" fill="#004195"/>
<path fill-rule="evenodd" clip-rule="evenodd" d="M120.239 97.9926C119.752 97.9926 119.357 98.3873 119.357 98.8742V105.046C119.357 105.533 119.752 105.927 120.239 105.927H126.411C126.897 105.927 127.292 105.533 127.292 105.046V98.8742C127.292 98.3873 126.897 97.9926 126.411 97.9926H120.239ZM122.002 101.519C122.002 101.032 122.397 100.638 122.884 100.638H123.766C124.253 100.638 124.647 101.032 124.647 101.519V102.401C124.647 102.888 124.253 103.282 123.766 103.282H122.884C122.397 103.282 122.002 102.888 122.002 102.401V101.519Z" fill="#004195"/>
<path d="M120.239 107.691C119.752 107.691 119.357 108.085 119.357 108.572V109.454C119.357 109.941 119.752 110.336 120.239 110.336H121.121V112.099C121.121 112.586 121.515 112.981 122.002 112.981H122.884C123.371 112.981 123.766 112.586 123.766 112.099V110.336C123.766 109.849 123.371 109.454 122.884 109.454H122.002V108.572C122.002 108.085 121.608 107.691 121.121 107.691H120.239Z" fill="#004195"/>
<path d="M120.239 112.981C119.752 112.981 119.357 113.376 119.357 113.863V114.744C119.357 115.231 119.752 115.626 120.239 115.626H121.121C121.608 115.626 122.002 115.231 122.002 114.744V113.863C122.002 113.376 121.608 112.981 121.121 112.981H120.239Z" fill="#004195"/>
<path d="M123.766 108.572C123.766 108.085 124.16 107.69 124.647 107.69H125.529C126.016 107.69 126.411 108.085 126.411 108.572V109.454C126.411 109.941 126.016 110.335 125.529 110.335H124.647C124.16 110.335 123.766 109.941 123.766 109.454V108.572Z" fill="#004195"/>
<path d="M124.647 112.981C124.16 112.981 123.766 113.376 123.766 113.863V114.744C123.766 115.231 124.16 115.626 124.647 115.626H125.529C126.016 115.626 126.411 115.231 126.411 114.744V113.863C126.411 113.376 126.016 112.981 125.529 112.981H124.647Z" fill="#004195"/>
<path d="M213.086 60.0431H219.52V62.8889H209.167V60.208L215.498 51.1343H209.25V48.309H219.478V50.9899L213.086 60.0431ZM238.508 51.3817L235.559 62.8889H231.62L229.537 55.1762L227.433 62.8889H223.495L220.546 51.3817H224.072L225.598 59.6719L227.743 51.3817H231.496L233.703 59.6925L235.229 51.3817H238.508ZM250.715 56.826C250.715 57.1147 250.68 57.4309 250.611 57.7746H242.631C242.672 58.6407 242.892 59.2663 243.291 59.6512C243.689 60.0224 244.198 60.208 244.817 60.208C245.339 60.208 245.772 60.0774 246.116 59.8162C246.459 59.555 246.686 59.2182 246.796 58.8057H250.529C250.378 59.6169 250.048 60.3455 249.539 60.9917C249.03 61.6241 248.384 62.1259 247.601 62.4971C246.817 62.8545 245.944 63.0333 244.982 63.0333C243.854 63.0333 242.851 62.7996 241.971 62.3321C241.105 61.8509 240.424 61.1635 239.929 60.2699C239.434 59.3763 239.187 58.3314 239.187 57.1353C239.187 55.9255 239.427 54.8806 239.908 54.0007C240.403 53.1071 241.091 52.4266 241.971 51.9591C242.851 51.478 243.854 51.2374 244.982 51.2374C246.123 51.2374 247.126 51.4711 247.992 51.9385C248.859 52.406 249.525 53.0659 249.993 53.9183C250.474 54.7569 250.715 55.7261 250.715 56.826ZM247.147 56.2898C247.161 55.5337 246.954 54.97 246.528 54.5988C246.116 54.2138 245.6 54.0214 244.982 54.0214C244.335 54.0214 243.799 54.2138 243.373 54.5988C242.947 54.9837 242.706 55.5474 242.651 56.2898H247.147ZM267.463 51.258C268.879 51.258 269.992 51.6979 270.803 52.5778C271.615 53.4439 272.02 54.6538 272.02 56.2073V62.8889H268.514V56.6198C268.514 55.8911 268.315 55.3274 267.916 54.9287C267.531 54.5163 267.002 54.3101 266.328 54.3101C265.627 54.3101 265.07 54.53 264.658 54.97C264.259 55.3962 264.06 56.0011 264.06 56.7847V62.8889H260.534V56.6198C260.534 55.8911 260.341 55.3274 259.956 54.9287C259.571 54.5163 259.042 54.3101 258.368 54.3101C257.667 54.3101 257.11 54.5232 256.698 54.9494C256.285 55.3756 256.079 55.9873 256.079 56.7847V62.8889H252.553V51.3817H256.079V53.3408C256.382 52.6947 256.842 52.186 257.461 51.8148C258.093 51.4436 258.829 51.258 259.667 51.258C260.547 51.258 261.324 51.4642 261.998 51.8767C262.671 52.2753 263.18 52.8528 263.524 53.6089C263.923 52.894 264.466 52.3235 265.153 51.8973C265.854 51.4711 266.624 51.258 267.463 51.258ZM277.89 47.6285V62.8889H274.363V47.6285H277.89ZM291.254 56.826C291.254 57.1147 291.22 57.4309 291.151 57.7746H283.17C283.211 58.6407 283.431 59.2663 283.83 59.6512C284.229 60.0224 284.737 60.208 285.356 60.208C285.879 60.208 286.312 60.0774 286.655 59.8162C286.999 59.555 287.226 59.2182 287.336 58.8057H291.068C290.917 59.6169 290.587 60.3455 290.079 60.9917C289.57 61.6241 288.924 62.1259 288.14 62.4971C287.356 62.8545 286.483 63.0333 285.521 63.0333C284.394 63.0333 283.39 62.7996 282.51 62.3321C281.644 61.8509 280.964 61.1635 280.469 60.2699C279.974 59.3763 279.726 58.3314 279.726 57.1353C279.726 55.9255 279.967 54.8806 280.448 54.0007C280.943 53.1071 281.63 52.4266 282.51 51.9591C283.39 51.478 284.394 51.2374 285.521 51.2374C286.662 51.2374 287.666 51.4711 288.532 51.9385C289.398 52.406 290.065 53.0659 290.532 53.9183C291.014 54.7569 291.254 55.7261 291.254 56.826ZM287.686 56.2898C287.7 55.5337 287.494 54.97 287.068 54.5988C286.655 54.2138 286.14 54.0214 285.521 54.0214C284.875 54.0214 284.339 54.2138 283.913 54.5988C283.486 54.9837 283.246 55.5474 283.191 56.2898H287.686ZM297.279 51.2374C298.736 51.2374 299.898 51.6017 300.764 52.3303C301.644 53.059 302.194 54.0214 302.414 55.2175H299.114C299.018 54.75 298.798 54.3857 298.454 54.1245C298.124 53.8495 297.705 53.712 297.196 53.712C296.797 53.712 296.495 53.8014 296.289 53.9801C296.083 54.1451 295.979 54.3857 295.979 54.7019C295.979 55.0593 296.165 55.3274 296.536 55.5062C296.921 55.6849 297.519 55.8636 298.33 56.0423C299.21 56.2486 299.932 56.4617 300.496 56.6816C301.059 56.8879 301.547 57.2316 301.96 57.7127C302.372 58.1939 302.579 58.8401 302.579 59.6512C302.579 60.3111 302.4 60.8954 302.042 61.4041C301.685 61.9128 301.169 62.3115 300.496 62.6002C299.822 62.8889 299.025 63.0333 298.104 63.0333C296.55 63.0333 295.306 62.6896 294.371 62.0022C293.436 61.3148 292.866 60.3318 292.659 59.0532H296.062C296.117 59.5481 296.323 59.9262 296.681 60.1874C297.052 60.4486 297.526 60.5792 298.104 60.5792C298.502 60.5792 298.805 60.4899 299.011 60.3111C299.217 60.1187 299.32 59.8712 299.32 59.5687C299.32 59.17 299.128 58.8882 298.743 58.7232C298.372 58.5445 297.76 58.3589 296.907 58.1664C296.055 57.9877 295.354 57.7952 294.804 57.589C294.254 57.3828 293.78 57.0528 293.381 56.5991C292.982 56.1317 292.783 55.4993 292.783 54.7019C292.783 53.6708 293.175 52.839 293.959 52.2066C294.742 51.5604 295.849 51.2374 297.279 51.2374ZM308.718 51.2374C310.175 51.2374 311.337 51.6017 312.203 52.3303C313.083 53.059 313.633 54.0214 313.853 55.2175H310.553C310.457 54.75 310.237 54.3857 309.893 54.1245C309.563 53.8495 309.144 53.712 308.635 53.712C308.236 53.712 307.934 53.8014 307.728 53.9801C307.521 54.1451 307.418 54.3857 307.418 54.7019C307.418 55.0593 307.604 55.3274 307.975 55.5062C308.36 55.6849 308.958 55.8636 309.769 56.0423C310.649 56.2486 311.371 56.4617 311.935 56.6816C312.498 56.8879 312.986 57.2316 313.399 57.7127C313.811 58.1939 314.017 58.8401 314.017 59.6512C314.017 60.3111 313.839 60.8954 313.481 61.4041C313.124 61.9128 312.608 62.3115 311.935 62.6002C311.261 62.8889 310.464 63.0333 309.542 63.0333C307.989 63.0333 306.745 62.6896 305.81 62.0022C304.875 61.3148 304.304 60.3318 304.098 59.0532H307.501C307.556 59.5481 307.762 59.9262 308.12 60.1874C308.491 60.4486 308.965 60.5792 309.542 60.5792C309.941 60.5792 310.244 60.4899 310.45 60.3111C310.656 60.1187 310.759 59.8712 310.759 59.5687C310.759 59.17 310.567 58.8882 310.182 58.7232C309.811 58.5445 309.199 58.3589 308.346 58.1664C307.494 57.9877 306.793 57.7952 306.243 57.589C305.693 57.3828 305.219 57.0528 304.82 56.5991C304.421 56.1317 304.222 55.4993 304.222 54.7019C304.222 53.6708 304.614 52.839 305.397 52.2066C306.181 51.5604 307.288 51.2374 308.718 51.2374ZM326.9 56.826C326.9 57.1147 326.866 57.4309 326.797 57.7746H318.816C318.857 58.6407 319.077 59.2663 319.476 59.6512C319.875 60.0224 320.383 60.208 321.002 60.208C321.524 60.208 321.957 60.0774 322.301 59.8162C322.645 59.555 322.872 59.2182 322.982 58.8057H326.714C326.563 59.6169 326.233 60.3455 325.724 60.9917C325.216 61.6241 324.57 62.1259 323.786 62.4971C323.002 62.8545 322.129 63.0333 321.167 63.0333C320.04 63.0333 319.036 62.7996 318.156 62.3321C317.29 61.8509 316.609 61.1635 316.114 60.2699C315.62 59.3763 315.372 58.3314 315.372 57.1353C315.372 55.9255 315.613 54.8806 316.094 54.0007C316.589 53.1071 317.276 52.4266 318.156 51.9591C319.036 51.478 320.04 51.2374 321.167 51.2374C322.308 51.2374 323.312 51.4711 324.178 51.9385C325.044 52.406 325.711 53.0659 326.178 53.9183C326.659 54.7569 326.9 55.7261 326.9 56.826ZM323.332 56.2898C323.346 55.5337 323.14 54.97 322.714 54.5988C322.301 54.2138 321.786 54.0214 321.167 54.0214C320.521 54.0214 319.985 54.2138 319.558 54.5988C319.132 54.9837 318.892 55.5474 318.837 56.2898H323.332ZM336.038 51.258C337.358 51.258 338.403 51.6979 339.173 52.5778C339.957 53.4577 340.349 54.6675 340.349 56.2073V62.8889H336.822V56.6198C336.822 55.8499 336.616 55.2518 336.203 54.8256C335.805 54.3857 335.269 54.1657 334.595 54.1657C333.88 54.1657 333.309 54.3926 332.883 54.8463C332.471 55.2999 332.265 55.9461 332.265 56.7847V62.8889H328.738V51.3817H332.265V53.4852C332.595 52.7978 333.083 52.2547 333.729 51.856C334.389 51.4573 335.159 51.258 336.038 51.258Z" fill="#2A2B2D"/>
<path d="M213.226 74.1527C213.082 73.8881 212.883 73.6866 212.631 73.5482C212.378 73.4099 212.083 73.3407 211.746 73.3407C211.374 73.3407 211.043 73.4249 210.754 73.5934C210.465 73.7618 210.24 74.0024 210.077 74.3151C209.915 74.6279 209.834 74.9888 209.834 75.3978C209.834 75.8188 209.915 76.1857 210.077 76.4985C210.246 76.8113 210.477 77.0519 210.772 77.2203C211.067 77.3887 211.41 77.4729 211.801 77.4729C212.282 77.4729 212.676 77.3466 212.982 77.094C213.289 76.8353 213.491 76.4775 213.587 76.0203H211.422V75.055H214.832V76.1557C214.748 76.5947 214.567 77.0007 214.291 77.3737C214.014 77.7466 213.656 78.0473 213.217 78.2759C212.784 78.4984 212.297 78.6097 211.755 78.6097C211.148 78.6097 210.598 78.4744 210.104 78.2037C209.617 77.927 209.232 77.5451 208.95 77.0579C208.673 76.5707 208.535 76.0173 208.535 75.3978C208.535 74.7783 208.673 74.2249 208.95 73.7377C209.232 73.2445 209.617 72.8626 210.104 72.5919C210.598 72.3152 211.145 72.1769 211.746 72.1769C212.456 72.1769 213.073 72.3513 213.596 72.7002C214.119 73.043 214.48 73.5272 214.679 74.1527H213.226ZM220.413 75.9482C220.413 76.1286 220.401 76.291 220.377 76.4354H216.723C216.753 76.7962 216.879 77.0789 217.102 77.2834C217.324 77.4879 217.598 77.5902 217.923 77.5902C218.392 77.5902 218.726 77.3887 218.924 76.9857H220.287C220.142 77.4669 219.866 77.8639 219.457 78.1766C219.048 78.4834 218.545 78.6368 217.95 78.6368C217.469 78.6368 217.036 78.5315 216.651 78.321C216.272 78.1045 215.974 77.8007 215.758 77.4098C215.547 77.0188 215.442 76.5677 215.442 76.0564C215.442 75.5391 215.547 75.085 215.758 74.6941C215.968 74.3031 216.263 74.0024 216.642 73.7918C217.021 73.5813 217.457 73.4761 217.95 73.4761C218.425 73.4761 218.849 73.5783 219.222 73.7828C219.601 73.9873 219.893 74.279 220.097 74.658C220.308 75.0309 220.413 75.461 220.413 75.9482ZM219.105 75.5873C219.099 75.2625 218.981 75.0038 218.753 74.8114C218.524 74.6129 218.245 74.5136 217.914 74.5136C217.601 74.5136 217.336 74.6099 217.12 74.8023C216.909 74.9888 216.78 75.2504 216.732 75.5873H219.105ZM227.542 73.4851C228.156 73.4851 228.649 73.6746 229.022 74.0535C229.401 74.4264 229.59 74.9497 229.59 75.6234V78.5556H228.327V75.7948C228.327 75.4038 228.228 75.1061 228.029 74.9016C227.831 74.6911 227.56 74.5858 227.217 74.5858C226.875 74.5858 226.601 74.6911 226.396 74.9016C226.198 75.1061 226.099 75.4038 226.099 75.7948V78.5556H224.836V75.7948C224.836 75.4038 224.736 75.1061 224.538 74.9016C224.339 74.6911 224.069 74.5858 223.726 74.5858C223.377 74.5858 223.1 74.6911 222.896 74.9016C222.697 75.1061 222.598 75.4038 222.598 75.7948V78.5556H221.335V73.5573H222.598V74.1618C222.76 73.9512 222.968 73.7858 223.221 73.6655C223.479 73.5452 223.762 73.4851 224.069 73.4851C224.46 73.4851 224.808 73.5693 225.115 73.7377C225.422 73.9001 225.66 74.1347 225.828 74.4414C225.99 74.1527 226.225 73.9212 226.532 73.7467C226.845 73.5723 227.181 73.4851 227.542 73.4851ZM235.435 75.9482C235.435 76.1286 235.423 76.291 235.399 76.4354H231.745C231.775 76.7962 231.902 77.0789 232.124 77.2834C232.347 77.4879 232.62 77.5902 232.945 77.5902C233.414 77.5902 233.748 77.3887 233.947 76.9857H235.309C235.165 77.4669 234.888 77.8639 234.479 78.1766C234.07 78.4834 233.568 78.6368 232.972 78.6368C232.491 78.6368 232.058 78.5315 231.673 78.321C231.294 78.1045 230.996 77.8007 230.78 77.4098C230.569 77.0188 230.464 76.5677 230.464 76.0564C230.464 75.5391 230.569 75.085 230.78 74.6941C230.99 74.3031 231.285 74.0024 231.664 73.7918C232.043 73.5813 232.479 73.4761 232.972 73.4761C233.447 73.4761 233.871 73.5783 234.244 73.7828C234.623 73.9873 234.915 74.279 235.12 74.658C235.33 75.0309 235.435 75.461 235.435 75.9482ZM234.127 75.5873C234.121 75.2625 234.004 75.0038 233.775 74.8114C233.547 74.6129 233.267 74.5136 232.936 74.5136C232.623 74.5136 232.359 74.6099 232.142 74.8023C231.932 74.9888 231.802 75.2504 231.754 75.5873H234.127ZM241.004 75.9482C241.004 76.1286 240.992 76.291 240.968 76.4354H237.314C237.344 76.7962 237.47 77.0789 237.693 77.2834C237.915 77.4879 238.189 77.5902 238.514 77.5902C238.983 77.5902 239.317 77.3887 239.515 76.9857H240.877C240.733 77.4669 240.456 77.8639 240.047 78.1766C239.638 78.4834 239.136 78.6368 238.541 78.6368C238.059 78.6368 237.626 78.5315 237.241 78.321C236.863 78.1045 236.565 77.8007 236.348 77.4098C236.138 77.0188 236.032 76.5677 236.032 76.0564C236.032 75.5391 236.138 75.085 236.348 74.6941C236.559 74.3031 236.854 74.0024 237.232 73.7918C237.611 73.5813 238.047 73.4761 238.541 73.4761C239.016 73.4761 239.44 73.5783 239.813 73.7828C240.192 73.9873 240.483 74.279 240.688 74.658C240.898 75.0309 241.004 75.461 241.004 75.9482ZM239.696 75.5873C239.689 75.2625 239.572 75.0038 239.344 74.8114C239.115 74.6129 238.835 74.5136 238.505 74.5136C238.192 74.5136 237.927 74.6099 237.711 74.8023C237.5 74.9888 237.371 75.2504 237.323 75.5873H239.696ZM244.696 73.4851C245.291 73.4851 245.772 73.6746 246.139 74.0535C246.506 74.4264 246.689 74.9497 246.689 75.6234V78.5556H245.426V75.7948C245.426 75.3978 245.327 75.094 245.129 74.8835C244.93 74.667 244.659 74.5587 244.317 74.5587C243.968 74.5587 243.691 74.667 243.487 74.8835C243.288 75.094 243.189 75.3978 243.189 75.7948V78.5556H241.926V73.5573H243.189V74.1798C243.357 73.9633 243.571 73.7948 243.829 73.6746C244.094 73.5482 244.383 73.4851 244.696 73.4851ZM249.361 74.5948V77.0128C249.361 77.1812 249.4 77.3045 249.478 77.3827C249.563 77.4549 249.701 77.491 249.894 77.491H250.48V78.5556H249.686C248.621 78.5556 248.089 78.0383 248.089 77.0038V74.5948H247.494V73.5573H248.089V72.3212H249.361V73.5573H250.48V74.5948H249.361ZM256.035 75.9482C256.035 76.1286 256.023 76.291 255.999 76.4354H252.345C252.375 76.7962 252.501 77.0789 252.724 77.2834C252.946 77.4879 253.22 77.5902 253.545 77.5902C254.014 77.5902 254.348 77.3887 254.546 76.9857H255.909C255.764 77.4669 255.488 77.8639 255.079 78.1766C254.67 78.4834 254.167 78.6368 253.572 78.6368C253.091 78.6368 252.658 78.5315 252.273 78.321C251.894 78.1045 251.596 77.8007 251.379 77.4098C251.169 77.0188 251.064 76.5677 251.064 76.0564C251.064 75.5391 251.169 75.085 251.379 74.6941C251.59 74.3031 251.885 74.0024 252.264 73.7918C252.643 73.5813 253.079 73.4761 253.572 73.4761C254.047 73.4761 254.471 73.5783 254.844 73.7828C255.223 73.9873 255.515 74.279 255.719 74.658C255.93 75.0309 256.035 75.461 256.035 75.9482ZM254.727 75.5873C254.721 75.2625 254.603 75.0038 254.375 74.8114C254.146 74.6129 253.867 74.5136 253.536 74.5136C253.223 74.5136 252.958 74.6099 252.742 74.8023C252.531 74.9888 252.402 75.2504 252.354 75.5873H254.727ZM267.524 72.2581L265.765 78.5556H264.276L263.094 74.0715L261.858 78.5556L260.379 78.5646L258.683 72.2581H260.036L261.146 77.1481L262.427 72.2581H263.834L265.043 77.121L266.162 72.2581H267.524ZM268.024 76.0384C268.024 75.5331 268.124 75.085 268.322 74.6941C268.527 74.3031 268.8 74.0024 269.143 73.7918C269.492 73.5813 269.88 73.4761 270.307 73.4761C270.68 73.4761 271.005 73.5512 271.281 73.7016C271.564 73.852 271.79 74.0415 271.958 74.27V73.5573H273.23V78.5556H271.958V77.8248C271.796 78.0594 271.57 78.2548 271.281 78.4112C270.999 78.5616 270.671 78.6368 270.298 78.6368C269.877 78.6368 269.492 78.5285 269.143 78.312C268.8 78.0954 268.527 77.7917 268.322 77.4007C268.124 77.0038 268.024 76.5496 268.024 76.0384ZM271.958 76.0564C271.958 75.7497 271.898 75.488 271.778 75.2715C271.657 75.0489 271.495 74.8805 271.29 74.7662C271.086 74.6459 270.866 74.5858 270.632 74.5858C270.397 74.5858 270.181 74.6429 269.982 74.7572C269.784 74.8715 269.621 75.0399 269.495 75.2625C269.375 75.479 269.315 75.7376 269.315 76.0384C269.315 76.3391 269.375 76.6038 269.495 76.8323C269.621 77.0549 269.784 77.2263 269.982 77.3466C270.187 77.4669 270.403 77.527 270.632 77.527C270.866 77.527 271.086 77.4699 271.29 77.3556C271.495 77.2353 271.657 77.0669 271.778 76.8504C271.898 76.6278 271.958 76.3632 271.958 76.0564ZM274.139 76.0384C274.139 75.5331 274.238 75.085 274.437 74.6941C274.641 74.3031 274.918 74.0024 275.267 73.7918C275.616 73.5813 276.004 73.4761 276.431 73.4761C276.755 73.4761 277.065 73.5482 277.36 73.6926C277.655 73.8309 277.889 74.0174 278.064 74.252V71.8791H279.345V78.5556H278.064V77.8158C277.907 78.0624 277.688 78.2608 277.405 78.4112C277.122 78.5616 276.795 78.6368 276.422 78.6368C276.001 78.6368 275.616 78.5285 275.267 78.312C274.918 78.0954 274.641 77.7917 274.437 77.4007C274.238 77.0038 274.139 76.5496 274.139 76.0384ZM278.073 76.0564C278.073 75.7497 278.013 75.488 277.892 75.2715C277.772 75.0489 277.61 74.8805 277.405 74.7662C277.201 74.6459 276.981 74.5858 276.746 74.5858C276.512 74.5858 276.295 74.6429 276.097 74.7572C275.898 74.8715 275.736 75.0399 275.61 75.2625C275.489 75.479 275.429 75.7376 275.429 76.0384C275.429 76.3391 275.489 76.6038 275.61 76.8323C275.736 77.0549 275.898 77.2263 276.097 77.3466C276.301 77.4669 276.518 77.527 276.746 77.527C276.981 77.527 277.201 77.4699 277.405 77.3556C277.61 77.2353 277.772 77.0669 277.892 76.8504C278.013 76.6278 278.073 76.3632 278.073 76.0564ZM287.375 75.9482C287.375 76.1286 287.363 76.291 287.339 76.4354H283.685C283.715 76.7962 283.841 77.0789 284.064 77.2834C284.286 77.4879 284.56 77.5902 284.885 77.5902C285.354 77.5902 285.688 77.3887 285.886 76.9857H287.248C287.104 77.4669 286.827 77.8639 286.418 78.1766C286.009 78.4834 285.507 78.6368 284.912 78.6368C284.431 78.6368 283.997 78.5315 283.612 78.321C283.234 78.1045 282.936 77.8007 282.719 77.4098C282.509 77.0188 282.404 76.5677 282.404 76.0564C282.404 75.5391 282.509 75.085 282.719 74.6941C282.93 74.3031 283.225 74.0024 283.603 73.7918C283.982 73.5813 284.418 73.4761 284.912 73.4761C285.387 73.4761 285.811 73.5783 286.184 73.7828C286.563 73.9873 286.854 74.279 287.059 74.658C287.269 75.0309 287.375 75.461 287.375 75.9482ZM286.067 75.5873C286.061 75.2625 285.943 75.0038 285.715 74.8114C285.486 74.6129 285.206 74.5136 284.876 74.5136C284.563 74.5136 284.298 74.6099 284.082 74.8023C283.871 74.9888 283.742 75.2504 283.694 75.5873H286.067ZM291.067 73.4851C291.662 73.4851 292.143 73.6746 292.51 74.0535C292.877 74.4264 293.06 74.9497 293.06 75.6234V78.5556H291.797V75.7948C291.797 75.3978 291.698 75.094 291.5 74.8835C291.301 74.667 291.03 74.5587 290.688 74.5587C290.339 74.5587 290.062 74.667 289.858 74.8835C289.659 75.094 289.56 75.3978 289.56 75.7948V78.5556H288.297V73.5573H289.56V74.1798C289.728 73.9633 289.942 73.7948 290.2 73.6746C290.465 73.5482 290.754 73.4851 291.067 73.4851ZM301.635 72.2581V78.5556H300.372V75.876H297.675V78.5556H296.411V72.2581H297.675V74.8474H300.372V72.2581H301.635ZM307.525 75.9482C307.525 76.1286 307.513 76.291 307.489 76.4354H303.835C303.865 76.7962 303.991 77.0789 304.214 77.2834C304.436 77.4879 304.71 77.5902 305.035 77.5902C305.504 77.5902 305.838 77.3887 306.036 76.9857H307.399C307.254 77.4669 306.978 77.8639 306.569 78.1766C306.16 78.4834 305.657 78.6368 305.062 78.6368C304.581 78.6368 304.148 78.5315 303.763 78.321C303.384 78.1045 303.086 77.8007 302.869 77.4098C302.659 77.0188 302.554 76.5677 302.554 76.0564C302.554 75.5391 302.659 75.085 302.869 74.6941C303.08 74.3031 303.375 74.0024 303.754 73.7918C304.133 73.5813 304.569 73.4761 305.062 73.4761C305.537 73.4761 305.961 73.5783 306.334 73.7828C306.713 73.9873 307.005 74.279 307.209 74.658C307.42 75.0309 307.525 75.461 307.525 75.9482ZM306.217 75.5873C306.211 75.2625 306.093 75.0038 305.865 74.8114C305.636 74.6129 305.357 74.5136 305.026 74.5136C304.713 74.5136 304.448 74.6099 304.232 74.8023C304.021 74.9888 303.892 75.2504 303.844 75.5873H306.217ZM313.166 73.5573V78.5556H311.893V77.924C311.731 78.1406 311.517 78.312 311.253 78.4383C310.994 78.5586 310.711 78.6187 310.405 78.6187C310.014 78.6187 309.668 78.5375 309.367 78.3751C309.066 78.2067 308.829 77.9631 308.654 77.6443C308.486 77.3195 308.402 76.9346 308.402 76.4895V73.5573H309.665V76.309C309.665 76.706 309.764 77.0128 309.963 77.2293C310.161 77.4398 310.432 77.5451 310.775 77.5451C311.124 77.5451 311.397 77.4398 311.596 77.2293C311.794 77.0128 311.893 76.706 311.893 76.309V73.5573H313.166ZM316.496 77.3917L317.759 73.5573H319.103L317.254 78.5556H315.72L313.879 73.5573H315.233L316.496 77.3917ZM324.459 75.9482C324.459 76.1286 324.447 76.291 324.423 76.4354H320.769C320.799 76.7962 320.926 77.0789 321.148 77.2834C321.371 77.4879 321.644 77.5902 321.969 77.5902C322.438 77.5902 322.772 77.3887 322.971 76.9857H324.333C324.189 77.4669 323.912 77.8639 323.503 78.1766C323.094 78.4834 322.592 78.6368 321.996 78.6368C321.515 78.6368 321.082 78.5315 320.697 78.321C320.318 78.1045 320.02 77.8007 319.804 77.4098C319.593 77.0188 319.488 76.5677 319.488 76.0564C319.488 75.5391 319.593 75.085 319.804 74.6941C320.014 74.3031 320.309 74.0024 320.688 73.7918C321.067 73.5813 321.503 73.4761 321.996 73.4761C322.471 73.4761 322.895 73.5783 323.268 73.7828C323.647 73.9873 323.939 74.279 324.143 74.658C324.354 75.0309 324.459 75.461 324.459 75.9482ZM323.151 75.5873C323.145 75.2625 323.028 75.0038 322.799 74.8114C322.571 74.6129 322.291 74.5136 321.96 74.5136C321.647 74.5136 321.383 74.6099 321.166 74.8023C320.956 74.9888 320.826 75.2504 320.778 75.5873H323.151ZM326.644 71.8791V78.5556H325.381V71.8791H326.644Z" fill="#273266"/>
<path d="M215.87 101.684C216.555 101.684 217.145 101.515 217.638 101.178C218.143 100.842 218.516 100.384 218.757 99.807H222.005C221.704 101.251 221.018 102.405 219.948 103.272C218.877 104.126 217.536 104.553 215.924 104.553C214.384 104.553 213.085 104.144 212.026 103.326C210.98 102.508 210.282 101.401 209.933 100.006H208.507V98.58H209.716C209.704 98.4597 209.698 98.2853 209.698 98.0567C209.698 97.8282 209.704 97.6597 209.716 97.5515H208.507V96.126H209.933C210.282 94.7185 210.98 93.6058 212.026 92.7878C213.085 91.9697 214.384 91.5607 215.924 91.5607C217.536 91.5607 218.877 91.9878 219.948 92.8419C221.018 93.696 221.704 94.8508 222.005 96.3064H218.757C218.516 95.717 218.143 95.2538 217.638 94.917C217.145 94.5802 216.555 94.4118 215.87 94.4118C215.28 94.4118 214.751 94.5621 214.282 94.8629C213.825 95.1636 213.47 95.5846 213.217 96.126H216.393V97.5515H212.856C212.844 97.6597 212.838 97.8282 212.838 98.0567C212.838 98.2973 212.844 98.4717 212.856 98.58H216.393V100.006H213.235C213.488 100.535 213.843 100.95 214.3 101.251C214.757 101.539 215.28 101.684 215.87 101.684ZM226.497 94.5742V91.687H231.658V104.444H228.41V94.5742H226.497ZM234.697 102.676C233.891 101.509 233.488 99.9273 233.488 97.9304C233.488 95.9455 233.891 94.3757 234.697 93.2208C235.503 92.0539 236.79 91.4705 238.559 91.4705C240.315 91.4705 241.596 92.0539 242.402 93.2208C243.22 94.3757 243.629 95.9455 243.629 97.9304C243.629 99.9273 243.22 101.509 242.402 102.676C241.596 103.843 240.315 104.426 238.559 104.426C236.79 104.426 235.503 103.843 234.697 102.676ZM240.147 100.583C240.423 99.9574 240.562 99.0732 240.562 97.9304C240.562 96.7876 240.423 95.9155 240.147 95.314C239.882 94.7005 239.353 94.3937 238.559 94.3937C237.753 94.3937 237.211 94.7005 236.935 95.314C236.658 95.9275 236.52 96.7996 236.52 97.9304C236.52 99.0732 236.658 99.9574 236.935 100.583C237.211 101.196 237.753 101.503 238.559 101.503C239.353 101.503 239.882 101.196 240.147 100.583ZM246.31 102.676C245.504 101.509 245.101 99.9273 245.101 97.9304C245.101 95.9455 245.504 94.3757 246.31 93.2208C247.116 92.0539 248.403 91.4705 250.171 91.4705C251.928 91.4705 253.209 92.0539 254.015 93.2208C254.833 94.3757 255.242 95.9455 255.242 97.9304C255.242 99.9273 254.833 101.509 254.015 102.676C253.209 103.843 251.928 104.426 250.171 104.426C248.403 104.426 247.116 103.843 246.31 102.676ZM251.759 100.583C252.036 99.9574 252.174 99.0732 252.174 97.9304C252.174 96.7876 252.036 95.9155 251.759 95.314C251.494 94.7005 250.965 94.3937 250.171 94.3937C249.365 94.3937 248.824 94.7005 248.547 95.314C248.271 95.9275 248.132 96.7996 248.132 97.9304C248.132 99.0732 248.271 99.9574 248.547 100.583C248.824 101.196 249.365 101.503 250.171 101.503C250.965 101.503 251.494 101.196 251.759 100.583Z" fill="#2A2B2D"/>
<rect x="208.219" y="126.511" width="24.4889" height="24.4889" rx="12.2444" fill="white"/>
<g clip-path="url(#clip1_2318_32341)">
<path d="M220.464 132.848C217.203 132.848 214.557 135.495 214.557 138.756C214.557 142.016 217.203 144.663 220.464 144.663C223.725 144.663 226.371 142.016 226.371 138.756C226.371 135.495 223.725 132.848 220.464 132.848ZM220.464 135.211C221.604 135.211 222.532 136.139 222.532 137.279C222.532 138.419 221.604 139.346 220.464 139.346C219.324 139.346 218.396 138.419 218.396 137.279C218.396 136.139 219.324 135.211 220.464 135.211ZM220.464 143.482C219.265 143.482 217.847 142.997 216.837 141.78C217.835 141 219.094 140.528 220.464 140.528C221.835 140.528 223.093 141 224.091 141.78C223.081 142.997 221.663 143.482 220.464 143.482Z" fill="#273266"/>
</g>
<rect x="248.82" y="126.511" width="24.4889" height="24.4889" rx="12.2444" fill="white"/>
<path fill-rule="evenodd" clip-rule="evenodd" d="M266.973 135.211C266.973 134.561 266.441 134.03 265.792 134.03H256.34C255.69 134.03 255.158 134.561 255.158 135.211V142.3C255.158 142.95 255.69 143.481 256.34 143.481H265.792C266.441 143.481 266.973 142.95 266.973 142.3V135.211ZM265.792 135.211L261.066 138.159L256.34 135.211H265.792ZM261.066 139.346L256.34 136.393V142.3H265.792V136.393L261.066 139.346Z" fill="#273266"/>
<rect x="289.42" y="126.511" width="24.4889" height="24.4889" rx="12.2444" fill="white"/>
<path fill-rule="evenodd" clip-rule="evenodd" d="M305.8 136.393H305.21V133.439H298.121V136.393H297.53C296.549 136.393 295.758 137.184 295.758 138.165V141.709H298.121V144.072H305.21V141.709H307.573V138.165C307.573 137.184 306.781 136.393 305.8 136.393ZM299.302 134.62H304.028V136.393H299.302V134.62ZM304.028 142.891V141.709V140.528H299.302V142.891H304.028ZM305.21 140.528V139.346H298.121V140.528H296.94V138.165C296.94 137.84 297.206 137.574 297.53 137.574H305.801C306.126 137.574 306.392 137.84 306.392 138.165V140.528H305.21ZM304.619 138.46C304.619 138.134 304.883 137.869 305.21 137.869C305.536 137.869 305.8 138.134 305.8 138.46C305.8 138.786 305.536 139.051 305.21 139.051C304.883 139.051 304.619 138.786 304.619 138.46Z" fill="#273266"/>
<rect x="330.021" y="126.511" width="24.4889" height="24.4889" rx="12.2444" fill="white"/>
<path fill-rule="evenodd" clip-rule="evenodd" d="M338.133 133.439H346.403C347.053 133.439 347.585 133.971 347.585 134.62V142.891C347.585 143.541 347.053 144.072 346.403 144.072H338.133C337.477 144.072 336.951 143.541 336.951 142.891V140.528H338.133V142.891H346.403V134.62H338.133V136.983H336.951V134.62C336.951 133.971 337.477 133.439 338.133 133.439ZM341.972 141.709L341.14 140.876L342.664 139.346H336.951V138.165H342.664L341.14 136.635L341.972 135.802L344.926 138.756L341.972 141.709Z" fill="#273266"/>
<rect x="370.623" y="126.511" width="24.4889" height="24.4889" rx="12.2444" fill="white"/>
<path fill-rule="evenodd" clip-rule="evenodd" d="M385.256 141.644C385.563 141.367 385.965 141.189 386.414 141.189C387.365 141.189 388.139 141.963 388.139 142.914C388.139 143.865 387.365 144.639 386.414 144.639C385.463 144.639 384.689 143.865 384.689 142.914C384.689 142.784 384.707 142.654 384.736 142.53L380.53 140.073C380.211 140.368 379.792 140.551 379.325 140.551C378.344 140.551 377.553 139.76 377.553 138.779C377.553 137.799 378.344 137.007 379.325 137.007C379.792 137.007 380.211 137.19 380.53 137.485L384.695 135.058C384.665 134.922 384.642 134.786 384.642 134.644C384.642 133.663 385.433 132.872 386.414 132.872C387.394 132.872 388.186 133.663 388.186 134.644C388.186 135.625 387.394 136.416 386.414 136.416C385.947 136.416 385.528 136.233 385.209 135.938L381.044 138.366C381.074 138.502 381.097 138.637 381.097 138.779C381.097 138.921 381.074 139.057 381.044 139.193L385.256 141.644ZM387.005 134.644C387.005 134.319 386.739 134.053 386.414 134.053C386.089 134.053 385.824 134.319 385.824 134.644C385.824 134.969 386.089 135.235 386.414 135.235C386.739 135.235 387.005 134.969 387.005 134.644ZM379.325 139.37C379 139.37 378.735 139.104 378.735 138.779C378.735 138.454 379 138.188 379.325 138.188C379.65 138.188 379.916 138.454 379.916 138.779C379.916 139.104 379.65 139.37 379.325 139.37ZM385.824 142.926C385.824 143.251 386.089 143.517 386.414 143.517C386.739 143.517 387.005 143.251 387.005 142.926C387.005 142.601 386.739 142.335 386.414 142.335C386.089 142.335 385.824 142.601 385.824 142.926Z" fill="#273266"/>
<rect width="109.556" height="128.889" transform="translate(414.445 35.0002)" fill="url(#paint2_linear_2318_32341)"/>
<rect width="109.556" height="128.889" transform="translate(414.445 35.0002)" fill="white" fill-opacity="0.75"/>
<g filter="url(#filter1_d_2318_32341)">
<rect width="70.8889" height="70.8889" transform="translate(433.779 53.2779)" fill="white"/>
<path fill-rule="evenodd" clip-rule="evenodd" d="M437.717 57.2175H439.624V59.1272H437.717V57.2175ZM439.624 57.2175H441.535V59.1272H439.624V57.2175ZM441.535 57.2175H443.443V59.1272H441.535V57.2175ZM443.443 57.2175H445.35V59.1272H443.443V57.2175ZM445.35 57.2175H447.261V59.1272H445.35V57.2175ZM447.261 57.2175H449.168V59.1272H447.261V57.2175ZM449.168 57.2175H451.08V59.1272H449.168V57.2175ZM454.894 57.2175H456.805V59.1272H454.894V57.2175ZM458.713 57.2175H460.624V59.1272H458.713V57.2175ZM470.168 57.2175H472.075V59.1272H470.168V57.2175ZM472.075 57.2175H473.982V59.1272H472.075V57.2175ZM473.982 57.2175H475.894V59.1272H473.982V57.2175ZM475.894 57.2175H477.801V59.1272H475.894V57.2175ZM481.62 57.2175H483.527V59.1272H481.62V57.2175ZM487.345 57.2175H489.252V59.1272H487.345V57.2175ZM489.252 57.2175H491.164V59.1272H489.252V57.2175ZM491.164 57.2175H493.071V59.1272H491.164V57.2175ZM493.071 57.2175H494.982V59.1272H493.071V57.2175ZM494.982 57.2175H496.89V59.1272H494.982V57.2175ZM496.89 57.2175H498.797V59.1272H496.89V57.2175ZM498.797 57.2175H500.708V59.1272H498.797V57.2175ZM437.717 59.1272H439.624V61.036H437.717V59.1272ZM449.168 59.1272H451.08V61.036H449.168V59.1272ZM452.987 59.1272H454.894V61.036H452.987V59.1272ZM454.894 59.1272H456.805V61.036H454.894V59.1272ZM456.805 59.1272H458.713V61.036H456.805V59.1272ZM462.531 59.1272H464.438V61.036H462.531V59.1272ZM464.438 59.1272H466.35V61.036H464.438V59.1272ZM466.35 59.1272H468.257V61.036H466.35V59.1272ZM468.257 59.1272H470.168V61.036H468.257V59.1272ZM475.894 59.1272H477.801V61.036H475.894V59.1272ZM477.801 59.1272H479.708V61.036H477.801V59.1272ZM487.345 59.1272H489.252V61.036H487.345V59.1272ZM498.797 59.1272H500.708V61.036H498.797V59.1272ZM437.717 61.036H439.624V62.9457H437.717V61.036ZM441.535 61.036H443.443V62.9457H441.535V61.036ZM443.443 61.036H445.35V62.9457H443.443V61.036ZM445.35 61.036H447.261V62.9457H445.35V61.036ZM449.168 61.036H451.08V62.9457H449.168V61.036ZM454.894 61.036H456.805V62.9457H454.894V61.036ZM456.805 61.036H458.713V62.9457H456.805V61.036ZM458.713 61.036H460.624V62.9457H458.713V61.036ZM460.624 61.036H462.531V62.9457H460.624V61.036ZM477.801 61.036H479.708V62.9457H477.801V61.036ZM479.708 61.036H481.62V62.9457H479.708V61.036ZM481.62 61.036H483.527V62.9457H481.62V61.036ZM483.527 61.036H485.438V62.9457H483.527V61.036ZM487.345 61.036H489.252V62.9457H487.345V61.036ZM491.164 61.036H493.071V62.9457H491.164V61.036ZM493.071 61.036H494.982V62.9457H493.071V61.036ZM494.982 61.036H496.89V62.9457H494.982V61.036ZM498.797 61.036H500.708V62.9457H498.797V61.036ZM437.717 62.9457H439.624V64.8554H437.717V62.9457ZM441.535 62.9457H443.443V64.8554H441.535V62.9457ZM443.443 62.9457H445.35V64.8554H443.443V62.9457ZM445.35 62.9457H447.261V64.8554H445.35V62.9457ZM449.168 62.9457H451.08V64.8554H449.168V62.9457ZM452.987 62.9457H454.894V64.8554H452.987V62.9457ZM456.805 62.9457H458.713V64.8554H456.805V62.9457ZM458.713 62.9457H460.624V64.8554H458.713V62.9457ZM460.624 62.9457H462.531V64.8554H460.624V62.9457ZM462.531 62.9457H464.438V64.8554H462.531V62.9457ZM464.438 62.9457H466.35V64.8554H464.438V62.9457ZM466.35 62.9457H468.257V64.8554H466.35V62.9457ZM468.257 62.9457H470.168V64.8554H468.257V62.9457ZM470.168 62.9457H472.075V64.8554H470.168V62.9457ZM479.708 62.9457H481.62V64.8554H479.708V62.9457ZM481.62 62.9457H483.527V64.8554H481.62V62.9457ZM483.527 62.9457H485.438V64.8554H483.527V62.9457ZM487.345 62.9457H489.252V64.8554H487.345V62.9457ZM491.164 62.9457H493.071V64.8554H491.164V62.9457ZM493.071 62.9457H494.982V64.8554H493.071V62.9457ZM494.982 62.9457H496.89V64.8554H494.982V62.9457ZM498.797 62.9457H500.708V64.8554H498.797V62.9457ZM437.717 64.8554H439.624V66.7647H437.717V64.8554ZM441.535 64.8554H443.443V66.7647H441.535V64.8554ZM443.443 64.8554H445.35V66.7647H443.443V64.8554ZM445.35 64.8554H447.261V66.7647H445.35V64.8554ZM449.168 64.8554H451.08V66.7647H449.168V64.8554ZM454.894 64.8554H456.805V66.7647H454.894V64.8554ZM456.805 64.8554H458.713V66.7647H456.805V64.8554ZM458.713 64.8554H460.624V66.7647H458.713V64.8554ZM464.438 64.8554H466.35V66.7647H464.438V64.8554ZM468.257 64.8554H470.168V66.7647H468.257V64.8554ZM473.982 64.8554H475.894V66.7647H473.982V64.8554ZM475.894 64.8554H477.801V66.7647H475.894V64.8554ZM481.62 64.8554H483.527V66.7647H481.62V64.8554ZM487.345 64.8554H489.252V66.7647H487.345V64.8554ZM491.164 64.8554H493.071V66.7647H491.164V64.8554ZM493.071 64.8554H494.982V66.7647H493.071V64.8554ZM494.982 64.8554H496.89V66.7647H494.982V64.8554ZM498.797 64.8554H500.708V66.7647H498.797V64.8554ZM437.717 66.7647H439.624V68.674H437.717V66.7647ZM449.168 66.7647H451.08V68.674H449.168V66.7647ZM452.987 66.7647H454.894V68.674H452.987V66.7647ZM454.894 66.7647H456.805V68.674H454.894V66.7647ZM456.805 66.7647H458.713V68.674H456.805V66.7647ZM466.35 66.7647H468.257V68.674H466.35V66.7647ZM472.075 66.7647H473.982V68.674H472.075V66.7647ZM475.894 66.7647H477.801V68.674H475.894V66.7647ZM479.708 66.7647H481.62V68.674H479.708V66.7647ZM487.345 66.7647H489.252V68.674H487.345V66.7647ZM498.797 66.7647H500.708V68.674H498.797V66.7647ZM437.717 68.674H439.624V70.5837H437.717V68.674ZM439.624 68.674H441.535V70.5837H439.624V68.674ZM441.535 68.674H443.443V70.5837H441.535V68.674ZM443.443 68.674H445.35V70.5837H443.443V68.674ZM445.35 68.674H447.261V70.5837H445.35V68.674ZM447.261 68.674H449.168V70.5837H447.261V68.674ZM449.168 68.674H451.08V70.5837H449.168V68.674ZM452.987 68.674H454.894V70.5837H452.987V68.674ZM456.805 68.674H458.713V70.5837H456.805V68.674ZM460.624 68.674H462.531V70.5837H460.624V68.674ZM464.438 68.674H466.35V70.5837H464.438V68.674ZM468.257 68.674H470.168V70.5837H468.257V68.674ZM472.075 68.674H473.982V70.5837H472.075V68.674ZM475.894 68.674H477.801V70.5837H475.894V68.674ZM479.708 68.674H481.62V70.5837H479.708V68.674ZM483.527 68.674H485.438V70.5837H483.527V68.674ZM487.345 68.674H489.252V70.5837H487.345V68.674ZM489.252 68.674H491.164V70.5837H489.252V68.674ZM491.164 68.674H493.071V70.5837H491.164V68.674ZM493.071 68.674H494.982V70.5837H493.071V68.674ZM494.982 68.674H496.89V70.5837H494.982V68.674ZM496.89 68.674H498.797V70.5837H496.89V68.674ZM498.797 68.674H500.708V70.5837H498.797V68.674ZM454.894 70.5837H456.805V72.493H454.894V70.5837ZM458.713 70.5837H460.624V72.493H458.713V70.5837ZM460.624 70.5837H462.531V72.493H460.624V70.5837ZM466.35 70.5837H468.257V72.493H466.35V70.5837ZM468.257 70.5837H470.168V72.493H468.257V70.5837ZM472.075 70.5837H473.982V72.493H472.075V70.5837ZM473.982 70.5837H475.894V72.493H473.982V70.5837ZM477.801 70.5837H479.708V72.493H477.801V70.5837ZM481.62 70.5837H483.527V72.493H481.62V70.5837ZM437.717 72.493H439.624V74.4022H437.717V72.493ZM439.624 72.493H441.535V74.4022H439.624V72.493ZM441.535 72.493H443.443V74.4022H441.535V72.493ZM443.443 72.493H445.35V74.4022H443.443V72.493ZM445.35 72.493H447.261V74.4022H445.35V72.493ZM449.168 72.493H451.08V74.4022H449.168V72.493ZM451.08 72.493H452.987V74.4022H451.08V72.493ZM452.987 72.493H454.894V74.4022H452.987V72.493ZM454.894 72.493H456.805V74.4022H454.894V72.493ZM458.713 72.493H460.624V74.4022H458.713V72.493ZM460.624 72.493H462.531V74.4022H460.624V72.493ZM462.531 72.493H464.438V74.4022H462.531V72.493ZM464.438 72.493H466.35V74.4022H464.438V72.493ZM466.35 72.493H468.257V74.4022H466.35V72.493ZM468.257 72.493H470.168V74.4022H468.257V72.493ZM470.168 72.493H472.075V74.4022H470.168V72.493ZM479.708 72.493H481.62V74.4022H479.708V72.493ZM481.62 72.493H483.527V74.4022H481.62V72.493ZM483.527 72.493H485.438V74.4022H483.527V72.493ZM485.438 72.493H487.345V74.4022H485.438V72.493ZM489.252 72.493H491.164V74.4022H489.252V72.493ZM493.071 72.493H494.982V74.4022H493.071V72.493ZM496.89 72.493H498.797V74.4022H496.89V72.493ZM437.717 74.4022H439.624V76.3119H437.717V74.4022ZM441.535 74.4022H443.443V76.3119H441.535V74.4022ZM443.443 74.4022H445.35V76.3119H443.443V74.4022ZM445.35 74.4022H447.261V76.3119H445.35V74.4022ZM447.261 74.4022H449.168V76.3119H447.261V74.4022ZM452.987 74.4022H454.894V76.3119H452.987V74.4022ZM458.713 74.4022H460.624V76.3119H458.713V74.4022ZM462.531 74.4022H464.438V76.3119H462.531V74.4022ZM468.257 74.4022H470.168V76.3119H468.257V74.4022ZM472.075 74.4022H473.982V76.3119H472.075V74.4022ZM473.982 74.4022H475.894V76.3119H473.982V74.4022ZM475.894 74.4022H477.801V76.3119H475.894V74.4022ZM477.801 74.4022H479.708V76.3119H477.801V74.4022ZM481.62 74.4022H483.527V76.3119H481.62V74.4022ZM483.527 74.4022H485.438V76.3119H483.527V74.4022ZM487.345 74.4022H489.252V76.3119H487.345V74.4022ZM494.982 74.4022H496.89V76.3119H494.982V74.4022ZM496.89 74.4022H498.797V76.3119H496.89V74.4022ZM498.797 74.4022H500.708V76.3119H498.797V74.4022ZM437.717 76.3119H439.624V78.2216H437.717V76.3123V76.3119ZM439.624 76.3119H441.535V78.2216H439.624V76.3123V76.3119ZM445.35 76.3119H447.261V78.2216H445.35V76.3123V76.3119ZM449.168 76.3119H451.08V78.2216H449.168V76.3123V76.3119ZM456.805 76.3119H458.713V78.2216H456.805V76.3123V76.3119ZM462.531 76.3119H464.438V78.2216H462.531V76.3123V76.3119ZM466.35 76.3119H468.257V78.2216H466.35V76.3123V76.3119ZM468.257 76.3119H470.168V78.2216H468.257V76.3123V76.3119ZM472.075 76.3119H473.982V78.2216H472.075V76.3123V76.3119ZM475.894 76.3119H477.801V78.2216H475.894V76.3123V76.3119ZM477.801 76.3119H479.708V78.2216H477.801V76.3123V76.3119ZM479.708 76.3119H481.62V78.2216H479.708V76.3123V76.3119ZM485.438 76.3119H487.345V78.2216H485.438V76.3123V76.3119ZM487.345 76.3119H489.252V78.2216H487.345V76.3123V76.3119ZM489.252 76.3119H491.164V78.2216H489.252V76.3123V76.3119ZM491.164 76.3119H493.071V78.2216H491.164V76.3123V76.3119ZM493.071 76.3119H494.982V78.2216H493.071V76.3123V76.3119ZM496.89 76.3119H498.797V78.2216H496.89V76.3123V76.3119ZM441.535 78.2216H443.443V80.1313H441.535V78.2216ZM443.443 78.2216H445.35V80.1313H443.443V78.2216ZM447.261 78.2216H449.168V80.1313H447.261V78.2216ZM451.08 78.2216H452.987V80.1313H451.08V78.2216ZM452.987 78.2216H454.894V80.1313H452.987V78.2216ZM460.624 78.2216H462.531V80.1313H460.624V78.2216ZM464.438 78.2216H466.35V80.1313H464.438V78.2216ZM473.982 78.2216H475.894V80.1313H473.982V78.2216ZM475.894 78.2216H477.801V80.1313H475.894V78.2216ZM477.801 78.2216H479.708V80.1313H477.801V78.2216ZM481.62 78.2216H483.527V80.1313H481.62V78.2216ZM487.345 78.2216H489.252V80.1313H487.345V78.2216ZM489.252 78.2216H491.164V80.1313H489.252V78.2216ZM494.982 78.2216H496.89V80.1313H494.982V78.2216ZM437.717 80.1313H439.624V82.0406H437.717V80.1313ZM439.624 80.1313H441.535V82.0406H439.624V80.1313ZM441.535 80.1313H443.443V82.0406H441.535V80.1313ZM449.168 80.1313H451.08V82.0406H449.168V80.1313ZM451.08 80.1313H452.987V82.0406H451.08V80.1313ZM452.987 80.1313H454.894V82.0406H452.987V80.1313ZM454.894 80.1313H456.805V82.0406H454.894V80.1313ZM456.805 80.1313H458.713V82.0406H456.805V80.1313ZM460.624 80.1313H462.531V82.0406H460.624V80.1313ZM464.438 80.1313H466.35V82.0406H464.438V80.1313ZM466.35 80.1313H468.257V82.0406H466.35V80.1313ZM470.168 80.1313H472.075V82.0406H470.168V80.1313ZM473.982 80.1313H475.894V82.0406H473.982V80.1313ZM475.894 80.1313H477.801V82.0406H475.894V80.1313ZM479.708 80.1313H481.62V82.0406H479.708V80.1313ZM481.62 80.1313H483.527V82.0406H481.62V80.1313ZM483.527 80.1313H485.438V82.0406H483.527V80.1313ZM491.164 80.1313H493.071V82.0406H491.164V80.1313ZM493.071 80.1313H494.982V82.0406H493.071V80.1313ZM439.624 82.0406H441.535V83.9498H439.624V82.0402V82.0406ZM441.535 82.0406H443.443V83.9498H441.535V82.0402V82.0406ZM445.35 82.0406H447.261V83.9498H445.35V82.0402V82.0406ZM454.894 82.0406H456.805V83.9498H454.894V82.0402V82.0406ZM458.713 82.0406H460.624V83.9498H458.713V82.0402V82.0406ZM462.531 82.0406H464.438V83.9498H462.531V82.0402V82.0406ZM464.438 82.0406H466.35V83.9498H464.438V82.0402V82.0406ZM468.257 82.0406H470.168V83.9498H468.257V82.0402V82.0406ZM470.168 82.0406H472.075V83.9498H470.168V82.0402V82.0406ZM472.075 82.0406H473.982V83.9498H472.075V82.0402V82.0406ZM475.894 82.0406H477.801V83.9498H475.894V82.0402V82.0406ZM477.801 82.0406H479.708V83.9498H477.801V82.0402V82.0406ZM479.708 82.0406H481.62V83.9498H479.708V82.0402V82.0406ZM481.62 82.0406H483.527V83.9498H481.62V82.0402V82.0406ZM487.345 82.0406H489.252V83.9498H487.345V82.0402V82.0406ZM496.89 82.0406H498.797V83.9498H496.89V82.0402V82.0406ZM498.797 82.0406H500.708V83.9498H498.797V82.0402V82.0406ZM447.261 83.9498H449.168V85.8596H447.261V83.9498ZM449.168 83.9498H451.08V85.8596H449.168V83.9498ZM451.08 83.9498H452.987V85.8596H451.08V83.9498ZM452.987 83.9498H454.894V85.8596H452.987V83.9498ZM454.894 83.9498H456.805V85.8596H454.894V83.9498ZM460.624 83.9498H462.531V85.8596H460.624V83.9498ZM462.531 83.9498H464.438V85.8596H462.531V83.9498ZM464.438 83.9498H466.35V85.8596H464.438V83.9498ZM466.35 83.9498H468.257V85.8596H466.35V83.9498ZM468.257 83.9498H470.168V85.8596H468.257V83.9498ZM472.075 83.9498H473.982V85.8596H472.075V83.9498ZM475.894 83.9498H477.801V85.8596H475.894V83.9498ZM477.801 83.9498H479.708V85.8596H477.801V83.9498ZM485.438 83.9498H487.345V85.8596H485.438V83.9498ZM487.345 83.9498H489.252V85.8596H487.345V83.9498ZM491.164 83.9498H493.071V85.8596H491.164V83.9498ZM496.89 83.9498H498.797V85.8596H496.89V83.9498ZM437.717 85.8596H439.624V87.7688H437.717V85.8596ZM441.535 85.8596H443.443V87.7688H441.535V85.8596ZM443.443 85.8596H445.35V87.7688H443.443V85.8596ZM451.08 85.8596H452.987V87.7688H451.08V85.8596ZM460.624 85.8596H462.531V87.7688H460.624V85.8596ZM464.438 85.8596H466.35V87.7688H464.438V85.8596ZM466.35 85.8596H468.257V87.7688H466.35V85.8596ZM468.257 85.8596H470.168V87.7688H468.257V85.8596ZM473.982 85.8596H475.894V87.7688H473.982V85.8596ZM477.801 85.8596H479.708V87.7688H477.801V85.8596ZM483.527 85.8596H485.438V87.7688H483.527V85.8596ZM487.345 85.8596H489.252V87.7688H487.345V85.8596ZM491.164 85.8596H493.071V87.7688H491.164V85.8596ZM494.982 85.8596H496.89V87.7688H494.982V85.8596ZM441.535 87.7688H443.443V89.6785H441.535V87.7688ZM445.35 87.7688H447.261V89.6785H445.35V87.7688ZM447.261 87.7688H449.168V89.6785H447.261V87.7688ZM449.168 87.7688H451.08V89.6785H449.168V87.7688ZM451.08 87.7688H452.987V89.6785H451.08V87.7688ZM452.987 87.7688H454.894V89.6785H452.987V87.7688ZM462.531 87.7688H464.438V89.6785H462.531V87.7688ZM464.438 87.7688H466.35V89.6785H464.438V87.7688ZM466.35 87.7688H468.257V89.6785H466.35V87.7688ZM470.168 87.7688H472.075V89.6785H470.168V87.7688ZM473.982 87.7688H475.894V89.6785H473.982V87.7688ZM479.708 87.7688H481.62V89.6785H479.708V87.7688ZM481.62 87.7688H483.527V89.6785H481.62V87.7688ZM483.527 87.7688H485.438V89.6785H483.527V87.7688ZM485.438 87.7688H487.345V89.6785H485.438V87.7688ZM489.252 87.7688H491.164V89.6785H489.252V87.7688ZM491.164 87.7688H493.071V89.6785H491.164V87.7688ZM496.89 87.7688H498.797V89.6785H496.89V87.7688ZM437.717 89.6785H439.624V91.5878H437.717V89.6785ZM445.35 89.6785H447.261V91.5878H445.35V89.6785ZM451.08 89.6785H452.987V91.5878H451.08V89.6785ZM452.987 89.6785H454.894V91.5878H452.987V89.6785ZM456.805 89.6785H458.713V91.5878H456.805V89.6785ZM458.713 89.6785H460.624V91.5878H458.713V89.6785ZM462.531 89.6785H464.438V91.5878H462.531V89.6785ZM468.257 89.6785H470.168V91.5878H468.257V89.6785ZM472.075 89.6785H473.982V91.5878H472.075V89.6785ZM473.982 89.6785H475.894V91.5878H473.982V89.6785ZM475.894 89.6785H477.801V91.5878H475.894V89.6785ZM477.801 89.6785H479.708V91.5878H477.801V89.6785ZM481.62 89.6785H483.527V91.5878H481.62V89.6785ZM487.345 89.6785H489.252V91.5878H487.345V89.6785ZM493.071 89.6785H494.982V91.5878H493.071V89.6785ZM496.89 89.6785H498.797V91.5878H496.89V89.6785ZM498.797 89.6785H500.708V91.5878H498.797V89.6785ZM441.535 91.5878H443.443V93.4975H441.535V91.5878ZM443.443 91.5878H445.35V93.4975H443.443V91.5878ZM445.35 91.5878H447.261V93.4975H445.35V91.5878ZM447.261 91.5878H449.168V93.4975H447.261V91.5878ZM449.168 91.5878H451.08V93.4975H449.168V91.5878ZM454.894 91.5878H456.805V93.4975H454.894V91.5878ZM456.805 91.5878H458.713V93.4975H456.805V91.5878ZM460.624 91.5878H462.531V93.4975H460.624V91.5878ZM462.531 91.5878H464.438V93.4975H462.531V91.5878ZM466.35 91.5878H468.257V93.4975H466.35V91.5878ZM470.168 91.5878H472.075V93.4975H470.168V91.5878ZM477.801 91.5878H479.708V93.4975H477.801V91.5878ZM483.527 91.5878H485.438V93.4975H483.527V91.5878ZM485.438 91.5878H487.345V93.4975H485.438V91.5878ZM489.252 91.5878H491.164V93.4975H489.252V91.5878ZM493.071 91.5878H494.982V93.4975H493.071V91.5878ZM496.89 91.5878H498.797V93.4975H496.89V91.5878ZM437.717 93.4975H439.624V95.4068H437.717V93.4975ZM439.624 93.4975H441.535V95.4068H439.624V93.4975ZM441.535 93.4975H443.443V95.4068H441.535V93.4975ZM447.261 93.4975H449.168V95.4068H447.261V93.4975ZM451.08 93.4975H452.987V95.4068H451.08V93.4975ZM452.987 93.4975H454.894V95.4068H452.987V93.4975ZM454.894 93.4975H456.805V95.4068H454.894V93.4975ZM464.438 93.4975H466.35V95.4068H464.438V93.4975ZM477.801 93.4975H479.708V95.4068H477.801V93.4975ZM479.708 93.4975H481.62V95.4068H479.708V93.4975ZM481.62 93.4975H483.527V95.4068H481.62V93.4975ZM487.345 93.4975H489.252V95.4068H487.345V93.4975ZM489.252 93.4975H491.164V95.4068H489.252V93.4975ZM491.164 93.4975H493.071V95.4068H491.164V93.4975ZM494.982 93.4975H496.89V95.4068H494.982V93.4975ZM437.717 95.4068H439.624V97.3164H437.717V95.4068ZM445.35 95.4068H447.261V97.3164H445.35V95.4068ZM447.261 95.4068H449.168V97.3164H447.261V95.4068ZM449.168 95.4068H451.08V97.3164H449.168V95.4068ZM454.894 95.4068H456.805V97.3164H454.894V95.4068ZM456.805 95.4068H458.713V97.3164H456.805V95.4068ZM460.624 95.4068H462.531V97.3164H460.624V95.4068ZM462.531 95.4068H464.438V97.3164H462.531V95.4068ZM464.438 95.4068H466.35V97.3164H464.438V95.4068ZM466.35 95.4068H468.257V97.3164H466.35V95.4068ZM468.257 95.4068H470.168V97.3164H468.257V95.4068ZM470.168 95.4068H472.075V97.3164H470.168V95.4068ZM475.894 95.4068H477.801V97.3164H475.894V95.4068ZM479.708 95.4068H481.62V97.3164H479.708V95.4068ZM481.62 95.4068H483.527V97.3164H481.62V95.4068ZM483.527 95.4068H485.438V97.3164H483.527V95.4068ZM485.438 95.4068H487.345V97.3164H485.438V95.4068ZM489.252 95.4068H491.164V97.3164H489.252V95.4068ZM491.164 95.4068H493.071V97.3164H491.164V95.4068ZM496.89 95.4068H498.797V97.3164H496.89V95.4068ZM437.717 97.3164H439.624V99.2257H437.717V97.3164ZM439.624 97.3164H441.535V99.2257H439.624V97.3164ZM443.443 97.3164H445.35V99.2257H443.443V97.3164ZM445.35 97.3164H447.261V99.2257H445.35V97.3164ZM447.261 97.3164H449.168V99.2257H447.261V97.3164ZM454.894 97.3164H456.805V99.2257H454.894V97.3164ZM458.713 97.3164H460.624V99.2257H458.713V97.3164ZM464.438 97.3164H466.35V99.2257H464.438V97.3164ZM468.257 97.3164H470.168V99.2257H468.257V97.3164ZM470.168 97.3164H472.075V99.2257H470.168V97.3164ZM472.075 97.3164H473.982V99.2257H472.075V97.3164ZM473.982 97.3164H475.894V99.2257H473.982V97.3164ZM475.894 97.3164H477.801V99.2257H475.894V97.3164ZM481.62 97.3164H483.527V99.2257H481.62V97.3164ZM483.527 97.3164H485.438V99.2257H483.527V97.3164ZM487.345 97.3164H489.252V99.2257H487.345V97.3164ZM493.071 97.3164H494.982V99.2257H493.071V97.3164ZM496.89 97.3164H498.797V99.2257H496.89V97.3164ZM498.797 97.3164H500.708V99.2257H498.797V97.3164ZM437.717 99.2257H439.624V101.135H437.717V99.2257ZM441.535 99.2257H443.443V101.135H441.535V99.2257ZM447.261 99.2257H449.168V101.135H447.261V99.2257ZM449.168 99.2257H451.08V101.135H449.168V99.2257ZM451.08 99.2257H452.987V101.135H451.08V99.2257ZM456.805 99.2257H458.713V101.135H456.805V99.2257ZM460.624 99.2257H462.531V101.135H460.624V99.2257ZM462.531 99.2257H464.438V101.135H462.531V99.2257ZM464.438 99.2257H466.35V101.135H464.438V99.2257ZM466.35 99.2257H468.257V101.135H466.35V99.2257ZM468.257 99.2257H470.168V101.135H468.257V99.2257ZM470.168 99.2257H472.075V101.135H470.168V99.2257ZM475.894 99.2257H477.801V101.135H475.894V99.2257ZM485.438 99.2257H487.345V101.135H485.438V99.2257ZM487.345 99.2257H489.252V101.135H487.345V99.2257ZM489.252 99.2257H491.164V101.135H489.252V99.2257ZM493.071 99.2257H494.982V101.135H493.071V99.2257ZM496.89 99.2257H498.797V101.135H496.89V99.2257ZM437.717 101.135H439.624V103.045H437.717V101.135ZM447.261 101.135H449.168V103.045H447.261V101.135ZM451.08 101.135H452.987V103.045H451.08V101.135ZM452.987 101.135H454.894V103.045H452.987V101.135ZM458.713 101.135H460.624V103.045H458.713V101.135ZM464.438 101.135H466.35V103.045H464.438V101.135ZM466.35 101.135H468.257V103.045H466.35V101.135ZM472.075 101.135H473.982V103.045H472.075V101.135ZM473.982 101.135H475.894V103.045H473.982V101.135ZM475.894 101.135H477.801V103.045H475.894V101.135ZM477.801 101.135H479.708V103.045H477.801V101.135ZM479.708 101.135H481.62V103.045H479.708V101.135ZM481.62 101.135H483.527V103.045H481.62V101.135ZM483.527 101.135H485.438V103.045H483.527V101.135ZM485.438 101.135H487.345V103.045H485.438V101.135ZM487.345 101.135H489.252V103.045H487.345V101.135ZM493.071 101.135H494.982V103.045H493.071V101.135ZM494.982 101.135H496.89V103.045H494.982V101.135ZM437.717 103.045H439.624V104.954H437.717V103.044V103.045ZM441.535 103.045H443.443V104.954H441.535V103.044V103.045ZM443.443 103.045H445.35V104.954H443.443V103.044V103.045ZM447.261 103.045H449.168V104.954H447.261V103.044V103.045ZM449.168 103.045H451.08V104.954H449.168V103.044V103.045ZM454.894 103.045H456.805V104.954H454.894V103.044V103.045ZM458.713 103.045H460.624V104.954H458.713V103.044V103.045ZM460.624 103.045H462.531V104.954H460.624V103.044V103.045ZM462.531 103.045H464.438V104.954H462.531V103.044V103.045ZM464.438 103.045H466.35V104.954H464.438V103.044V103.045ZM470.168 103.045H472.075V104.954H470.168V103.044V103.045ZM472.075 103.045H473.982V104.954H472.075V103.044V103.045ZM473.982 103.045H475.894V104.954H473.982V103.044V103.045ZM475.894 103.045H477.801V104.954H475.894V103.044V103.045ZM479.708 103.045H481.62V104.954H479.708V103.044V103.045ZM483.527 103.045H485.438V104.954H483.527V103.044V103.045ZM485.438 103.045H487.345V104.954H485.438V103.044V103.045ZM487.345 103.045H489.252V104.954H487.345V103.044V103.045ZM489.252 103.045H491.164V104.954H489.252V103.044V103.045ZM491.164 103.045H493.071V104.954H491.164V103.044V103.045ZM493.071 103.045H494.982V104.954H493.071V103.044V103.045ZM498.797 103.045H500.708V104.954H498.797V103.044V103.045ZM452.987 104.954H454.894V106.863H452.987V104.954ZM458.713 104.954H460.624V106.863H458.713V104.954ZM468.257 104.954H470.168V106.863H468.257V104.954ZM470.168 104.954H472.075V106.863H470.168V104.954ZM473.982 104.954H475.894V106.863H473.982V104.954ZM481.62 104.954H483.527V106.863H481.62V104.954ZM483.527 104.954H485.438V106.863H483.527V104.954ZM491.164 104.954H493.071V106.863H491.164V104.954ZM498.797 104.954H500.708V106.863H498.797V104.954ZM437.717 106.863H439.624V108.773H437.717V106.863V106.863ZM439.624 106.863H441.535V108.773H439.624V106.863V106.863ZM441.535 106.863H443.443V108.773H441.535V106.863V106.863ZM443.443 106.863H445.35V108.773H443.443V106.863V106.863ZM445.35 106.863H447.261V108.773H445.35V106.863V106.863ZM447.261 106.863H449.168V108.773H447.261V106.863V106.863ZM449.168 106.863H451.08V108.773H449.168V106.863V106.863ZM452.987 106.863H454.894V108.773H452.987V106.863V106.863ZM456.805 106.863H458.713V108.773H456.805V106.863V106.863ZM464.438 106.863H466.35V108.773H464.438V106.863V106.863ZM466.35 106.863H468.257V108.773H466.35V106.863V106.863ZM475.894 106.863H477.801V108.773H475.894V106.863V106.863ZM481.62 106.863H483.527V108.773H481.62V106.863V106.863ZM483.527 106.863H485.438V108.773H483.527V106.863V106.863ZM487.345 106.863H489.252V108.773H487.345V106.863V106.863ZM491.164 106.863H493.071V108.773H491.164V106.863V106.863ZM496.89 106.863H498.797V108.773H496.89V106.863V106.863ZM437.717 108.773H439.624V110.683H437.717V108.773ZM449.168 108.773H451.08V110.683H449.168V108.773ZM456.805 108.773H458.713V110.683H456.805V108.773ZM460.624 108.773H462.531V110.683H460.624V108.773ZM466.35 108.773H468.257V110.683H466.35V108.773ZM468.257 108.773H470.168V110.683H468.257V108.773ZM473.982 108.773H475.894V110.683H473.982V108.773ZM475.894 108.773H477.801V110.683H475.894V108.773ZM477.801 108.773H479.708V110.683H477.801V108.773ZM479.708 108.773H481.62V110.683H479.708V108.773ZM481.62 108.773H483.527V110.683H481.62V108.773ZM483.527 108.773H485.438V110.683H483.527V108.773ZM491.164 108.773H493.071V110.683H491.164V108.773ZM493.071 108.773H494.982V110.683H493.071V108.773ZM494.982 108.773H496.89V110.683H494.982V108.773ZM496.89 108.773H498.797V110.683H496.89V108.773ZM437.717 110.683H439.624V112.592H437.717V110.683ZM441.535 110.683H443.443V112.592H441.535V110.683ZM443.443 110.683H445.35V112.592H443.443V110.683ZM445.35 110.683H447.261V112.592H445.35V110.683ZM449.168 110.683H451.08V112.592H449.168V110.683ZM452.987 110.683H454.894V112.592H452.987V110.683ZM454.894 110.683H456.805V112.592H454.894V110.683ZM456.805 110.683H458.713V112.592H456.805V110.683ZM458.713 110.683H460.624V112.592H458.713V110.683ZM460.624 110.683H462.531V112.592H460.624V110.683ZM462.531 110.683H464.438V112.592H462.531V110.683ZM466.35 110.683H468.257V112.592H466.35V110.683ZM473.982 110.683H475.894V112.592H473.982V110.683ZM479.708 110.683H481.62V112.592H479.708V110.683ZM483.527 110.683H485.438V112.592H483.527V110.683ZM485.438 110.683H487.345V112.592H485.438V110.683ZM487.345 110.683H489.252V112.592H487.345V110.683ZM489.252 110.683H491.164V112.592H489.252V110.683ZM491.164 110.683H493.071V112.592H491.164V110.683ZM493.071 110.683H494.982V112.592H493.071V110.683ZM496.89 110.683H498.797V112.592H496.89V110.683ZM498.797 110.683H500.708V112.592H498.797V110.683ZM437.717 112.592H439.624V114.501H437.717V112.592ZM441.535 112.592H443.443V114.501H441.535V112.592ZM443.443 112.592H445.35V114.501H443.443V112.592ZM445.35 112.592H447.261V114.501H445.35V112.592ZM449.168 112.592H451.08V114.501H449.168V112.592ZM452.987 112.592H454.894V114.501H452.987V112.592ZM454.894 112.592H456.805V114.501H454.894V112.592ZM458.713 112.592H460.624V114.501H458.713V112.592ZM462.531 112.592H464.438V114.501H462.531V112.592ZM464.438 112.592H466.35V114.501H464.438V112.592ZM468.257 112.592H470.168V114.501H468.257V112.592ZM473.982 112.592H475.894V114.501H473.982V112.592ZM477.801 112.592H479.708V114.501H477.801V112.592ZM481.62 112.592H483.527V114.501H481.62V112.592ZM483.527 112.592H485.438V114.501H483.527V112.592ZM485.438 112.592H487.345V114.501H485.438V112.592ZM489.252 112.592H491.164V114.501H489.252V112.592ZM491.164 112.592H493.071V114.501H491.164V112.592ZM493.071 112.592H494.982V114.501H493.071V112.592ZM494.982 112.592H496.89V114.501H494.982V112.592ZM437.717 114.501H439.624V116.411H437.717V114.501ZM441.535 114.501H443.443V116.411H441.535V114.501ZM443.443 114.501H445.35V116.411H443.443V114.501ZM445.35 114.501H447.261V116.411H445.35V114.501ZM449.168 114.501H451.08V116.411H449.168V114.501ZM452.987 114.501H454.894V116.411H452.987V114.501ZM454.894 114.501H456.805V116.411H454.894V114.501ZM464.438 114.501H466.35V116.411H464.438V114.501ZM466.35 114.501H468.257V116.411H466.35V114.501ZM468.257 114.501H470.168V116.411H468.257V114.501ZM470.168 114.501H472.075V116.411H470.168V114.501ZM472.075 114.501H473.982V116.411H472.075V114.501ZM477.801 114.501H479.708V116.411H477.801V114.501ZM479.708 114.501H481.62V116.411H479.708V114.501ZM481.62 114.501H483.527V116.411H481.62V114.501ZM483.527 114.501H485.438V116.411H483.527V114.501ZM485.438 114.501H487.345V116.411H485.438V114.501ZM487.345 114.501H489.252V116.411H487.345V114.501ZM493.071 114.501H494.982V116.411H493.071V114.501ZM494.982 114.501H496.89V116.411H494.982V114.501ZM496.89 114.501H498.797V116.411H496.89V114.501ZM437.717 116.411H439.624V118.32H437.717V116.411ZM449.168 116.411H451.08V118.32H449.168V116.411ZM452.987 116.411H454.894V118.32H452.987V116.411ZM456.805 116.411H458.713V118.32H456.805V116.411ZM458.713 116.411H460.624V118.32H458.713V116.411ZM460.624 116.411H462.531V118.32H460.624V116.411ZM464.438 116.411H466.35V118.32H464.438V116.411ZM466.35 116.411H468.257V118.32H466.35V116.411ZM468.257 116.411H470.168V118.32H468.257V116.411ZM472.075 116.411H473.982V118.32H472.075V116.411ZM475.894 116.411H477.801V118.32H475.894V116.411ZM477.801 116.411H479.708V118.32H477.801V116.411ZM479.708 116.411H481.62V118.32H479.708V116.411ZM481.62 116.411H483.527V118.32H481.62V116.411ZM493.071 116.411H494.982V118.32H493.071V116.411ZM494.982 116.411H496.89V118.32H494.982V116.411ZM437.717 118.32H439.624V120.23H437.717V118.32ZM439.624 118.32H441.535V120.23H439.624V118.32ZM441.535 118.32H443.443V120.23H441.535V118.32ZM443.443 118.32H445.35V120.23H443.443V118.32ZM445.35 118.32H447.261V120.23H445.35V118.32ZM447.261 118.32H449.168V120.23H447.261V118.32ZM449.168 118.32H451.08V120.23H449.168V118.32ZM452.987 118.32H454.894V120.23H452.987V118.32ZM458.713 118.32H460.624V120.23H458.713V118.32ZM460.624 118.32H462.531V120.23H460.624V118.32ZM462.531 118.32H464.438V120.23H462.531V118.32ZM464.438 118.32H466.35V120.23H464.438V118.32ZM466.35 118.32H468.257V120.23H466.35V118.32ZM470.168 118.32H472.075V120.23H470.168V118.32ZM475.894 118.32H477.801V120.23H475.894V118.32ZM479.708 118.32H481.62V120.23H479.708V118.32ZM481.62 118.32H483.527V120.23H481.62V118.32ZM483.527 118.32H485.438V120.23H483.527V118.32ZM487.345 118.32H489.252V120.23H487.345V118.32ZM489.252 118.32H491.164V120.23H489.252V118.32ZM491.164 118.32H493.071V120.23H491.164V118.32ZM496.89 118.32H498.797V120.23H496.89V118.32Z" fill="black"/>
</g>
<path d="M442.66 130.557C443.27 130.557 443.776 130.708 444.177 131.011C444.579 131.308 444.837 131.712 444.95 132.223H443.901C443.802 131.996 443.643 131.816 443.426 131.684C443.213 131.547 442.96 131.478 442.667 131.478C442.379 131.478 442.124 131.545 441.902 131.677C441.68 131.809 441.507 131.998 441.384 132.244C441.262 132.49 441.2 132.778 441.2 133.109C441.2 133.633 441.339 134.042 441.618 134.335C441.902 134.628 442.287 134.775 442.774 134.775C443.133 134.775 443.44 134.668 443.695 134.456C443.955 134.243 444.123 133.948 444.199 133.57H442.504V132.854H445.035V133.818C444.964 134.149 444.825 134.453 444.617 134.732C444.414 135.011 444.144 135.236 443.809 135.406C443.478 135.571 443.098 135.654 442.667 135.654C442.176 135.654 441.741 135.547 441.363 135.335C440.99 135.117 440.699 134.817 440.491 134.435C440.288 134.047 440.186 133.605 440.186 133.109C440.186 132.613 440.288 132.173 440.491 131.79C440.699 131.403 440.99 131.1 441.363 130.883C441.736 130.666 442.169 130.557 442.66 130.557ZM449.477 133.499C449.477 133.598 449.465 133.711 449.441 133.839H446.563C446.578 134.189 446.672 134.446 446.847 134.612C447.022 134.777 447.239 134.86 447.499 134.86C447.731 134.86 447.922 134.803 448.073 134.69C448.229 134.576 448.329 134.423 448.371 134.229H449.427C449.375 134.503 449.264 134.749 449.094 134.966C448.924 135.184 448.704 135.354 448.435 135.477C448.17 135.599 447.875 135.661 447.549 135.661C447.166 135.661 446.826 135.581 446.528 135.42C446.23 135.254 445.999 135.021 445.833 134.718C445.668 134.416 445.585 134.059 445.585 133.648C445.585 133.236 445.668 132.88 445.833 132.577C445.999 132.27 446.23 132.036 446.528 131.875C446.826 131.715 447.166 131.634 447.549 131.634C447.936 131.634 448.274 131.715 448.562 131.875C448.855 132.036 449.08 132.258 449.236 132.542C449.397 132.821 449.477 133.14 449.477 133.499ZM448.47 133.4C448.484 133.078 448.399 132.835 448.215 132.669C448.036 132.504 447.813 132.421 447.549 132.421C447.279 132.421 447.053 132.504 446.868 132.669C446.684 132.835 446.582 133.078 446.563 133.4H448.47ZM451.186 130.365V135.611H450.186V130.365H451.186ZM453.629 131.634C453.959 131.634 454.241 131.712 454.472 131.868C454.708 132.024 454.879 132.235 454.982 132.499V130.365H455.975V135.611H454.982V134.789C454.879 135.054 454.708 135.266 454.472 135.427C454.241 135.583 453.959 135.661 453.629 135.661C453.298 135.661 453 135.581 452.735 135.42C452.471 135.259 452.263 135.028 452.111 134.725C451.965 134.418 451.892 134.059 451.892 133.648C451.892 133.236 451.965 132.88 452.111 132.577C452.263 132.27 452.471 132.036 452.735 131.875C453 131.715 453.298 131.634 453.629 131.634ZM453.94 132.506C453.629 132.506 453.378 132.608 453.189 132.811C453 133.014 452.905 133.293 452.905 133.648C452.905 134.002 453 134.281 453.189 134.484C453.378 134.683 453.629 134.782 453.94 134.782C454.243 134.782 454.491 134.68 454.685 134.477C454.883 134.269 454.982 133.993 454.982 133.648C454.982 133.298 454.883 133.021 454.685 132.818C454.491 132.61 454.243 132.506 453.94 132.506ZM456.767 130.557C456.767 130.396 456.824 130.266 456.937 130.167C457.051 130.063 457.2 130.011 457.384 130.011C457.568 130.011 457.717 130.063 457.831 130.167C457.944 130.266 458.001 130.396 458.001 130.557C458.001 130.713 457.944 130.843 457.831 130.947C457.717 131.046 457.568 131.096 457.384 131.096C457.2 131.096 457.051 131.046 456.937 130.947C456.824 130.843 456.767 130.713 456.767 130.557ZM457.88 131.684V135.611H456.881V131.684H457.88ZM460.323 131.634C460.654 131.634 460.937 131.712 461.173 131.868C461.41 132.024 461.578 132.235 461.677 132.499V131.684H462.669V135.625C462.669 135.989 462.596 136.315 462.449 136.604C462.308 136.897 462.093 137.126 461.804 137.291C461.521 137.457 461.176 137.539 460.769 137.539C460.202 137.539 459.744 137.405 459.394 137.135C459.044 136.866 458.832 136.5 458.756 136.037H459.742C459.798 136.235 459.907 136.389 460.068 136.497C460.233 136.611 460.443 136.668 460.699 136.668C460.992 136.668 461.228 136.58 461.407 136.405C461.587 136.235 461.677 135.975 461.677 135.625V134.789C461.578 135.054 461.41 135.266 461.173 135.427C460.937 135.583 460.654 135.661 460.323 135.661C459.992 135.661 459.694 135.581 459.43 135.42C459.165 135.259 458.957 135.028 458.806 134.725C458.659 134.418 458.586 134.059 458.586 133.648C458.586 133.236 458.659 132.88 458.806 132.577C458.957 132.27 459.165 132.036 459.43 131.875C459.694 131.715 459.992 131.634 460.323 131.634ZM460.635 132.506C460.323 132.506 460.072 132.608 459.883 132.811C459.694 133.014 459.6 133.293 459.6 133.648C459.6 134.002 459.694 134.281 459.883 134.484C460.072 134.683 460.323 134.782 460.635 134.782C460.937 134.782 461.185 134.68 461.379 134.477C461.578 134.269 461.677 133.993 461.677 133.648C461.677 133.298 461.578 133.021 461.379 132.818C461.185 132.61 460.937 132.506 460.635 132.506ZM467.217 134.754V135.611H466.693C466.253 135.611 465.915 135.505 465.679 135.292C465.447 135.08 465.331 134.725 465.331 134.229V132.528H464.786V131.684H465.331V130.713H466.331V131.684H467.21V132.528H466.331V134.243C466.331 134.432 466.369 134.564 466.444 134.64C466.52 134.716 466.648 134.754 466.827 134.754H467.217ZM470.297 128.898L468.376 136.894H467.412L469.333 128.898H470.297ZM475.648 131.627C476.125 131.627 476.501 131.776 476.775 132.074C477.054 132.367 477.193 132.785 477.193 133.329V135.611H476.201V133.442C476.201 133.14 476.123 132.908 475.967 132.747C475.816 132.582 475.605 132.499 475.336 132.499C475.057 132.499 474.835 132.587 474.669 132.762C474.504 132.936 474.421 133.192 474.421 133.527V135.611H473.429V133.442C473.429 133.14 473.351 132.908 473.195 132.747C473.044 132.582 472.833 132.499 472.564 132.499C472.285 132.499 472.063 132.587 471.898 132.762C471.732 132.936 471.65 133.192 471.65 133.527V135.611H470.65V131.684H471.65V132.428C471.754 132.173 471.917 131.977 472.139 131.84C472.366 131.698 472.628 131.627 472.926 131.627C473.242 131.627 473.516 131.703 473.748 131.854C473.984 132.005 474.161 132.223 474.28 132.506C474.402 132.237 474.584 132.024 474.825 131.868C475.071 131.708 475.345 131.627 475.648 131.627ZM479.246 131.542V130.607H481.047V135.611H479.998V131.542H479.246ZM487.738 135.611H486.738L484.498 132.209V135.611H483.499V130.607H484.498L486.738 134.038V130.607H487.738V135.611ZM490.457 131.634C490.84 131.634 491.182 131.715 491.485 131.875C491.792 132.036 492.033 132.27 492.208 132.577C492.383 132.88 492.47 133.236 492.47 133.648C492.47 134.059 492.383 134.416 492.208 134.718C492.033 135.021 491.792 135.254 491.485 135.42C491.182 135.581 490.84 135.661 490.457 135.661C490.074 135.661 489.729 135.581 489.422 135.42C489.12 135.254 488.881 135.021 488.706 134.718C488.531 134.416 488.444 134.059 488.444 133.648C488.444 133.236 488.531 132.88 488.706 132.577C488.881 132.27 489.12 132.036 489.422 131.875C489.729 131.715 490.074 131.634 490.457 131.634ZM490.457 132.499C490.178 132.499 489.942 132.598 489.748 132.797C489.554 132.991 489.458 133.274 489.458 133.648C489.458 134.021 489.554 134.307 489.748 134.505C489.942 134.699 490.178 134.796 490.457 134.796C490.736 134.796 490.972 134.699 491.166 134.505C491.36 134.307 491.457 134.021 491.457 133.648C491.457 133.274 491.36 132.991 491.166 132.797C490.972 132.598 490.736 132.499 490.457 132.499ZM494.885 134.612L495.878 131.684H496.941L495.488 135.611H494.268L492.815 131.684H493.886L494.885 134.612ZM498.127 134.966C498.241 135.221 498.298 135.479 498.298 135.739C498.298 136.032 498.22 136.273 498.064 136.462C497.912 136.651 497.676 136.745 497.355 136.745V136.363C497.478 136.363 497.567 136.332 497.624 136.271C497.681 136.214 497.709 136.11 497.709 135.959V135.888H497.255V134.966H498.127ZM460.919 144.824C462.521 143.714 463.322 142.792 463.322 142.06C463.322 141.838 463.268 141.663 463.159 141.535C463.055 141.408 462.89 141.344 462.663 141.344C462.195 141.344 461.947 141.663 461.919 142.301H460.948C460.976 141.71 461.155 141.263 461.486 140.961C461.817 140.654 462.235 140.5 462.741 140.5C463.256 140.5 463.651 140.635 463.925 140.904C464.204 141.169 464.343 141.523 464.343 141.968C464.343 142.317 464.239 142.669 464.031 143.024C463.828 143.374 463.568 143.697 463.251 143.995C462.935 144.288 462.602 144.541 462.252 144.754H464.442V145.569H460.919V144.824ZM466.919 145.611C465.643 145.611 465.005 144.763 465.005 143.066C465.005 141.374 465.643 140.529 466.919 140.529C467.595 140.529 468.082 140.755 468.38 141.209C468.677 141.663 468.826 142.282 468.826 143.066C468.826 143.856 468.677 144.477 468.38 144.931C468.082 145.384 467.595 145.611 466.919 145.611ZM467.649 144.257C467.777 143.978 467.841 143.581 467.841 143.066C467.841 142.556 467.777 142.164 467.649 141.89C467.527 141.611 467.283 141.471 466.919 141.471C466.551 141.471 466.302 141.611 466.175 141.89C466.052 142.164 465.991 142.556 465.991 143.066C465.991 143.581 466.052 143.978 466.175 144.257C466.302 144.531 466.551 144.668 466.919 144.668C467.283 144.668 467.527 144.531 467.649 144.257ZM469.413 144.824C471.015 143.714 471.816 142.792 471.816 142.06C471.816 141.838 471.762 141.663 471.653 141.535C471.549 141.408 471.384 141.344 471.157 141.344C470.689 141.344 470.441 141.663 470.413 142.301H469.442C469.47 141.71 469.65 141.263 469.98 140.961C470.311 140.654 470.73 140.5 471.235 140.5C471.75 140.5 472.145 140.635 472.419 140.904C472.698 141.169 472.837 141.523 472.837 141.968C472.837 142.317 472.733 142.669 472.525 143.024C472.322 143.374 472.062 143.697 471.746 143.995C471.429 144.288 471.096 144.541 470.746 144.754H472.937V145.569H469.413V144.824ZM473.443 144.605V143.775L475.839 140.55H476.909V143.74H477.561V144.605H476.909V145.611H475.903V144.605H473.443ZM475.981 141.719L474.464 143.74H475.981V141.719Z" fill="#2A2B2D"/>
</g>
<rect x="60.3222" y="35.3222" width="463.356" height="128.244" rx="15.1444" stroke="#E5E5E5" stroke-width="0.644444"/>
</g>
<defs>
<filter id="filter0_bd_2318_32341" x="0.322994" y="0.671211" width="583.354" height="248.243" filterUnits="userSpaceOnUse" color-interpolation-filters="sRGB">
<feFlood flood-opacity="0" result="BackgroundImageFix"/>
<feGaussianBlur in="BackgroundImageFix" stdDeviation="7.83784"/>
<feComposite in2="SourceAlpha" operator="in" result="effect1_backgroundBlur_2318_32341"/>
<feColorMatrix in="SourceAlpha" type="matrix" values="0 0 0 0 0 0 0 0 0 0 0 0 0 0 0 0 0 0 127 0" result="hardAlpha"/>
<feMorphology radius="1.18112" operator="dilate" in="SourceAlpha" result="effect2_dropShadow_2318_32341"/>
<feOffset dy="25.3482"/>
<feGaussianBlur stdDeviation="29.2479"/>
<feColorMatrix type="matrix" values="0 0 0 0 0.313049 0 0 0 0 0.336131 0 0 0 0 0.416073 0 0 0 0.1 0"/>
<feBlend mode="normal" in2="effect1_backgroundBlur_2318_32341" result="effect2_dropShadow_2318_32341"/>
<feBlend mode="normal" in="SourceGraphic" in2="effect2_dropShadow_2318_32341" result="shape"/>
</filter>
<filter id="filter1_d_2318_32341" x="430.557" y="50.0557" width="77.3331" height="77.3333" filterUnits="userSpaceOnUse" color-interpolation-filters="sRGB">
<feFlood flood-opacity="0" result="BackgroundImageFix"/>
<feColorMatrix in="SourceAlpha" type="matrix" values="0 0 0 0 0 0 0 0 0 0 0 0 0 0 0 0 0 0 127 0" result="hardAlpha"/>
<feOffset/>
<feGaussianBlur stdDeviation="1.61111"/>
<feColorMatrix type="matrix" values="0 0 0 0 0.0980392 0 0 0 0 0.152941 0 0 0 0 0.203922 0 0 0 0.22 0"/>
<feBlend mode="normal" in2="BackgroundImageFix" result="effect1_dropShadow_2318_32341"/>
<feBlend mode="normal" in="SourceGraphic" in2="effect1_dropShadow_2318_32341" result="shape"/>
</filter>
<linearGradient id="paint0_linear_2318_32341" x1="0" y1="0" x2="91.1163" y2="151.593" gradientUnits="userSpaceOnUse">
<stop offset="0.433962" stop-color="#F1F2F4"/>
<stop offset="1" stop-color="#F1F2F4" stop-opacity="0"/>
</linearGradient>
<linearGradient id="paint1_linear_2318_32341" x1="72.8887" y1="47.8889" x2="145.782" y2="169.163" gradientUnits="userSpaceOnUse">
<stop offset="0.433962" stop-color="#F1F2F4"/>
<stop offset="1" stop-color="#F1F2F4" stop-opacity="0"/>
</linearGradient>
<linearGradient id="paint2_linear_2318_32341" x1="0" y1="0" x2="97.2796" y2="137.57" gradientUnits="userSpaceOnUse">
<stop offset="0.433962" stop-color="#F1F2F4"/>
<stop offset="1" stop-color="#F1F2F4" stop-opacity="0"/>
</linearGradient>
<clipPath id="clip0_2318_32341">
<rect x="60" y="35" width="464" height="128.889" rx="15.4667" fill="white"/>
</clipPath>
<clipPath id="clip1_2318_32341">
<rect width="14.1778" height="14.1778" fill="white" transform="translate(213.375 131.667)"/>
</clipPath>
</defs>
</svg>
