<?xml version="1.0" encoding="UTF-8" standalone="no"?>
<svg
   width="74.864998"
   height="102.1822"
   viewBox="0 0 74.864998 102.1822"
   fill="none"
   version="1.1"
   id="svg48"
   sodipodi:docname="aspects-7-2.svg"
   inkscape:version="1.1.2 (0a00cf5339, 2022-02-04)"
   xmlns:inkscape="http://www.inkscape.org/namespaces/inkscape"
   xmlns:sodipodi="http://sodipodi.sourceforge.net/DTD/sodipodi-0.dtd"
   xmlns="http://www.w3.org/2000/svg"
   xmlns:svg="http://www.w3.org/2000/svg">
  <sodipodi:namedview
     id="namedview50"
     pagecolor="#ffffff"
     bordercolor="#666666"
     borderopacity="1.0"
     inkscape:pageshadow="2"
     inkscape:pageopacity="0.0"
     inkscape:pagecheckerboard="0"
     showgrid="false"
     fit-margin-top="0"
     fit-margin-left="0"
     fit-margin-right="0"
     fit-margin-bottom="0"
     inkscape:zoom="1.4077181"
     inkscape:cx="-53.988081"
     inkscape:cy="132.48391"
     inkscape:window-width="1920"
     inkscape:window-height="1017"
     inkscape:window-x="0"
     inkscape:window-y="0"
     inkscape:window-maximized="1"
     inkscape:current-layer="File" />
  <g
     id="File"
     filter="url(#filter0_dd_2318_28055)"
     transform="translate(-98,-61.3118)">
    <path
       id="Vector"
       d="m 98,67.6992 v 89.4098 c 0,3.512 2.873,6.385 6.385,6.385 h 62.092 c 3.513,0 6.388,-2.874 6.388,-6.387 V 84.8328 c 0,-1.9609 -0.779,-3.8415 -2.166,-5.2281 L 154.572,63.4772 c -1.387,-1.3864 -3.267,-2.1654 -5.228,-2.1654 h -44.957 c -3.513,0 -6.387,2.8743 -6.387,6.3874 z"
       fill="#39b924" />
    <path
       id="Vector_2"
       d="m 154.574,63.4829 c -0.95,-0.9497 -2.132,-1.6141 -3.412,-1.9387 v 20.8216 l 21.705,21.7052 V 84.8382 c 0,-1.9609 -0.779,-3.8414 -2.166,-5.2281 z"
       fill="url(#paint0_linear_2318_28055)"
       style="fill:url(#paint0_linear_2318_28055)" />
    <path
       id="Vector_3"
       d="m 172.638,83.0457 c 0.024,0.1026 0.046,0.2026 0.066,0.299 h -19.565 c -1.385,0 -2.508,-1.123 -2.508,-2.5085 V 61.4347 c 0.153,0.0273 0.313,0.0591 0.479,0.0958 1.458,0.3226 2.788,1.0725 3.845,2.1286 l 15.558,15.5588 c 1.052,1.0521 1.791,2.3782 2.125,3.8278 z"
       fill="#c0ef5e" />
    <g
       id="Table">
      <g
         id="Group 48097989">
        <path
           id="Vector_4"
           d="m 113.033,131.352 h 19.88 c 0.793,0 1.436,-0.598 1.436,-1.334 v -5.51 c 0,-0.737 -0.643,-1.334 -1.436,-1.334 h -19.88 c -0.793,0 -1.435,0.597 -1.435,1.334 v 5.51 c 0,0.736 0.642,1.334 1.435,1.334 z"
           fill="#ffffff" />
        <path
           id="Vector_5"
           d="m 138.279,131.373 h 19.88 c 0.793,0 1.436,-0.598 1.436,-1.334 v -5.51 c 0,-0.737 -0.643,-1.334 -1.436,-1.334 h -19.88 c -0.792,0 -1.435,0.597 -1.435,1.334 v 5.51 c 0,0.736 0.643,1.334 1.435,1.334 z"
           fill="#ffffff" />
      </g>
      <g
         id="Group 48097990">
        <path
           id="Vector_6"
           d="m 112.824,118.596 h 19.88 c 0.793,0 1.436,-0.597 1.436,-1.334 v -5.51 c 0,-0.737 -0.643,-1.334 -1.436,-1.334 h -19.88 c -0.793,0 -1.435,0.597 -1.435,1.334 v 5.51 c 0,0.737 0.642,1.334 1.435,1.334 z"
           fill="#ffffff" />
        <path
           id="Vector_7"
           d="m 138.07,118.629 h 19.88 c 0.793,0 1.436,-0.598 1.436,-1.334 v -5.51 c 0,-0.737 -0.643,-1.334 -1.436,-1.334 h -19.88 c -0.792,0 -1.435,0.597 -1.435,1.334 v 5.51 c 0,0.736 0.643,1.334 1.435,1.334 z"
           fill="#ffffff" />
      </g>
      <g
         id="Group 48097991">
        <path
           id="Vector_8"
           d="m 112.82,105.813 h 19.88 c 0.793,0 1.436,-0.598 1.436,-1.334 v -5.5103 c 0,-0.7367 -0.643,-1.334 -1.436,-1.334 h -19.88 c -0.792,0 -1.435,0.5973 -1.435,1.334 v 5.5103 c 0,0.736 0.643,1.334 1.435,1.334 z"
           fill="#ffffff" />
        <path
           id="Vector_9"
           d="m 138.066,105.845 h 19.88 c 0.793,0 1.436,-0.597 1.436,-1.334 v -5.5097 c 0,-0.7367 -0.643,-1.3339 -1.436,-1.3339 h -19.88 c -0.792,0 -1.435,0.5972 -1.435,1.3339 v 5.5097 c 0,0.737 0.643,1.334 1.435,1.334 z"
           fill="#ffffff" />
      </g>
    </g>
  </g>
  <defs
     id="defs46">
    <filter
       id="filter0_dd_2318_28055"
       x="0.222221"
       y="0.200657"
       width="270.423"
       height="297.73801"
       filterUnits="userSpaceOnUse"
       color-interpolation-filters="sRGB">
      <feFlood
         flood-opacity="0"
         result="BackgroundImageFix"
         id="feFlood16" />
      <feColorMatrix
         in="SourceAlpha"
         type="matrix"
         values="0 0 0 0 0 0 0 0 0 0 0 0 0 0 0 0 0 0 127 0"
         result="hardAlpha"
         id="feColorMatrix18" />
      <feOffset
         dy="36.6667"
         id="feOffset20" />
      <feGaussianBlur
         stdDeviation="48.8889"
         id="feGaussianBlur22" />
      <feColorMatrix
         type="matrix"
         values="0 0 0 0 0.654046 0 0 0 0 0.683294 0 0 0 0 0.786637 0 0 0 0.1 0"
         id="feColorMatrix24" />
      <feBlend
         mode="multiply"
         in2="BackgroundImageFix"
         result="effect1_dropShadow_2318_28055"
         id="feBlend26" />
      <feColorMatrix
         in="SourceAlpha"
         type="matrix"
         values="0 0 0 0 0 0 0 0 0 0 0 0 0 0 0 0 0 0 127 0"
         result="hardAlpha"
         id="feColorMatrix28" />
      <feOffset
         dy="24.4444"
         id="feOffset30" />
      <feGaussianBlur
         stdDeviation="33.6111"
         id="feGaussianBlur32" />
      <feColorMatrix
         type="matrix"
         values="0 0 0 0 0.45098 0 0 0 0 0.469804 0 0 0 0 0.568627 0 0 0 0.18 0"
         id="feColorMatrix34" />
      <feBlend
         mode="normal"
         in2="effect1_dropShadow_2318_28055"
         result="effect2_dropShadow_2318_28055"
         id="feBlend36" />
      <feBlend
         mode="normal"
         in="SourceGraphic"
         in2="effect2_dropShadow_2318_28055"
         result="shape"
         id="feBlend38" />
    </filter>
    <linearGradient
       id="paint0_linear_2318_28055"
       x1="166.50999"
       y1="96.125198"
       x2="158.797"
       y2="73.584999"
       gradientUnits="userSpaceOnUse">
      <stop
         stop-opacity="0"
         id="stop41" />
      <stop
         offset="1"
         stop-opacity="0.2"
         id="stop43" />
    </linearGradient>
  </defs>
</svg>
