<svg width="270" height="138" viewBox="0 0 270 138" fill="none" xmlns="http://www.w3.org/2000/svg">
<g filter="url(#filter0_dd_3436_26211)">
<path fill-rule="evenodd" clip-rule="evenodd" d="M186.148 20.8434H229.904C233.823 20.8434 237 24.0669 237 28.0434V85.6434C237 89.6198 233.823 92.8434 229.904 92.8434H186.148C186.148 89.5297 183.5 86.8434 180.235 86.8434C176.969 86.8434 174.322 89.5297 174.322 92.8434H41.2783C36.7063 92.8434 33 89.0826 33 84.4434V29.2434C33 24.6042 36.7063 20.8434 41.2783 20.8434H174.322C174.322 24.1571 176.969 26.8434 180.235 26.8434C183.5 26.8434 186.148 24.1571 186.148 20.8434Z" fill="white"/>
</g>
<rect x="183.902" y="34.3433" width="45" height="45" fill="white"/>
<rect x="183.902" y="34.3433" width="45" height="45" stroke="#F4F4F4" stroke-width="0.599999"/>
<path d="M186.602 37.0433H187.967V38.4089H186.602V37.0433ZM187.967 37.0433H189.333V38.4089H187.967V37.0433ZM189.333 37.0433H190.698V38.4089H189.333V37.0433ZM190.698 37.0433H192.064V38.4089H190.698V37.0433ZM192.064 37.0433H193.429V38.4089H192.064V37.0433ZM193.429 37.0433H194.795V38.4089H193.429V37.0433ZM194.795 37.0433H196.16V38.4089H194.795V37.0433ZM200.257 37.0433H201.622V38.4089H200.257V37.0433ZM202.988 37.0433H204.353V38.4089H202.988V37.0433ZM208.45 37.0433H209.815V38.4089H208.45V37.0433ZM211.181 37.0433H212.546V38.4089H211.181V37.0433ZM212.546 37.0433H213.912V38.4089H212.546V37.0433ZM213.912 37.0433H215.277V38.4089H213.912V37.0433ZM216.643 37.0433H218.008V38.4089H216.643V37.0433ZM218.008 37.0433H219.374V38.4089H218.008V37.0433ZM219.374 37.0433H220.74V38.4089H219.374V37.0433ZM220.74 37.0433H222.105V38.4089H220.74V37.0433ZM222.105 37.0433H223.471V38.4089H222.105V37.0433ZM223.471 37.0433H224.836V38.4089H223.471V37.0433ZM224.836 37.0433H226.202V38.4089H224.836V37.0433ZM186.602 38.4089H187.967V39.7744H186.602V38.4089ZM194.795 38.4089H196.16V39.7744H194.795V38.4089ZM197.526 38.4089H198.891V39.7744H197.526V38.4089ZM200.257 38.4089H201.622V39.7744H200.257V38.4089ZM205.719 38.4089H207.084V39.7744H205.719V38.4089ZM207.084 38.4089H208.45V39.7744H207.084V38.4089ZM209.815 38.4089H211.181V39.7744H209.815V38.4089ZM216.643 38.4089H218.008V39.7744H216.643V38.4089ZM224.836 38.4089H226.202V39.7744H224.836V38.4089ZM186.602 39.7744H187.967V41.1399H186.602V39.7744ZM189.333 39.7744H190.698V41.1399H189.333V39.7744ZM190.698 39.7744H192.064V41.1399H190.698V39.7744ZM192.064 39.7744H193.429V41.1399H192.064V39.7744ZM194.795 39.7744H196.16V41.1399H194.795V39.7744ZM202.988 39.7744H204.353V41.1399H202.988V39.7744ZM208.45 39.7744H209.815V41.1399H208.45V39.7744ZM212.546 39.7744H213.912V41.1399H212.546V39.7744ZM213.912 39.7744H215.277V41.1399H213.912V39.7744ZM216.643 39.7744H218.008V41.1399H216.643V39.7744ZM219.374 39.7744H220.74V41.1399H219.374V39.7744ZM220.74 39.7744H222.105V41.1399H220.74V39.7744ZM222.105 39.7744H223.471V41.1399H222.105V39.7744ZM224.836 39.7744H226.202V41.1399H224.836V39.7744ZM186.602 41.1399H187.967V42.5054H186.602V41.1399ZM189.333 41.1399H190.698V42.5054H189.333V41.1399ZM190.698 41.1399H192.064V42.5054H190.698V41.1399ZM192.064 41.1399H193.429V42.5054H192.064V41.1399ZM194.795 41.1399H196.16V42.5054H194.795V41.1399ZM197.526 41.1399H198.891V42.5054H197.526V41.1399ZM198.891 41.1399H200.257V42.5054H198.891V41.1399ZM200.257 41.1399H201.622V42.5054H200.257V41.1399ZM202.988 41.1399H204.353V42.5054H202.988V41.1399ZM204.353 41.1399H205.719V42.5054H204.353V41.1399ZM205.719 41.1399H207.084V42.5054H205.719V41.1399ZM209.815 41.1399H211.181V42.5054H209.815V41.1399ZM211.181 41.1399H212.546V42.5054H211.181V41.1399ZM212.546 41.1399H213.912V42.5054H212.546V41.1399ZM216.643 41.1399H218.008V42.5054H216.643V41.1399ZM219.374 41.1399H220.74V42.5054H219.374V41.1399ZM220.74 41.1399H222.105V42.5054H220.74V41.1399ZM222.105 41.1399H223.471V42.5054H222.105V41.1399ZM224.836 41.1399H226.202V42.5054H224.836V41.1399ZM186.602 42.5054H187.967V43.8709H186.602V42.5054ZM189.333 42.5054H190.698V43.8709H189.333V42.5054ZM190.698 42.5054H192.064V43.8709H190.698V42.5054ZM192.064 42.5054H193.429V43.8709H192.064V42.5054ZM194.795 42.5054H196.16V43.8709H194.795V42.5054ZM198.891 42.5054H200.257V43.8709H198.891V42.5054ZM205.719 42.5054H207.084V43.8709H205.719V42.5054ZM208.45 42.5054H209.815V43.8709H208.45V42.5054ZM209.815 42.5054H211.181V43.8709H209.815V42.5054ZM211.181 42.5054H212.546V43.8709H211.181V42.5054ZM212.546 42.5054H213.912V43.8709H212.546V42.5054ZM213.912 42.5054H215.277V43.8709H213.912V42.5054ZM216.643 42.5054H218.008V43.8709H216.643V42.5054ZM219.374 42.5054H220.74V43.8709H219.374V42.5054ZM220.74 42.5054H222.105V43.8709H220.74V42.5054ZM222.105 42.5054H223.471V43.8709H222.105V42.5054ZM224.836 42.5054H226.202V43.8709H224.836V42.5054ZM186.602 43.8709H187.967V45.2364H186.602V43.8709ZM194.795 43.8709H196.16V45.2364H194.795V43.8709ZM197.526 43.8709H198.891V45.2364H197.526V43.8709ZM198.891 43.8709H200.257V45.2364H198.891V43.8709ZM201.622 43.8709H202.988V45.2364H201.622V43.8709ZM202.988 43.8709H204.353V45.2364H202.988V43.8709ZM204.353 43.8709H205.719V45.2364H204.353V43.8709ZM207.084 43.8709H208.45V45.2364H207.084V43.8709ZM208.45 43.8709H209.815V45.2364H208.45V43.8709ZM209.815 43.8709H211.181V45.2364H209.815V43.8709ZM213.912 43.8709H215.277V45.2364H213.912V43.8709ZM216.643 43.8709H218.008V45.2364H216.643V43.8709ZM224.836 43.8709H226.202V45.2364H224.836V43.8709ZM186.602 45.2364H187.967V46.602H186.602V45.2364ZM187.967 45.2364H189.333V46.602H187.967V45.2364ZM189.333 45.2364H190.698V46.602H189.333V45.2364ZM190.698 45.2364H192.064V46.602H190.698V45.2364ZM192.064 45.2364H193.429V46.602H192.064V45.2364ZM193.429 45.2364H194.795V46.602H193.429V45.2364ZM194.795 45.2364H196.16V46.602H194.795V45.2364ZM197.526 45.2364H198.891V46.602H197.526V45.2364ZM200.257 45.2364H201.622V46.602H200.257V45.2364ZM202.988 45.2364H204.353V46.602H202.988V45.2364ZM205.719 45.2364H207.084V46.602H205.719V45.2364ZM208.45 45.2364H209.815V46.602H208.45V45.2364ZM211.181 45.2364H212.546V46.602H211.181V45.2364ZM213.912 45.2364H215.277V46.602H213.912V45.2364ZM216.643 45.2364H218.008V46.602H216.643V45.2364ZM218.008 45.2364H219.374V46.602H218.008V45.2364ZM219.374 45.2364H220.74V46.602H219.374V45.2364ZM220.74 45.2364H222.105V46.602H220.74V45.2364ZM222.105 45.2364H223.471V46.602H222.105V45.2364ZM223.471 45.2364H224.836V46.602H223.471V45.2364ZM224.836 45.2364H226.202V46.602H224.836V45.2364ZM198.891 46.602H200.257V47.9675H198.891V46.602ZM200.257 46.602H201.622V47.9675H200.257V46.602ZM201.622 46.602H202.988V47.9675H201.622V46.602ZM205.719 46.602H207.084V47.9675H205.719V46.602ZM208.45 46.602H209.815V47.9675H208.45V46.602ZM211.181 46.602H212.546V47.9675H211.181V46.602ZM186.602 47.9675H187.967V49.333H186.602V47.9675ZM187.967 47.9675H189.333V49.333H187.967V47.9675ZM189.333 47.9675H190.698V49.333H189.333V47.9675ZM190.698 47.9675H192.064V49.333H190.698V47.9675ZM192.064 47.9675H193.429V49.333H192.064V47.9675ZM194.795 47.9675H196.16V49.333H194.795V47.9675ZM196.16 47.9675H197.526V49.333H196.16V47.9675ZM197.526 47.9675H198.891V49.333H197.526V47.9675ZM198.891 47.9675H200.257V49.333H198.891V47.9675ZM201.622 47.9675H202.988V49.333H201.622V47.9675ZM204.353 47.9675H205.719V49.333H204.353V47.9675ZM205.719 47.9675H207.084V49.333H205.719V47.9675ZM209.815 47.9675H211.181V49.333H209.815V47.9675ZM212.546 47.9675H213.912V49.333H212.546V47.9675ZM215.277 47.9675H216.643V49.333H215.277V47.9675ZM218.008 47.9675H219.374V49.333H218.008V47.9675ZM220.74 47.9675H222.105V49.333H220.74V47.9675ZM223.471 47.9675H224.836V49.333H223.471V47.9675ZM187.967 49.333H189.333V50.6985H187.967V49.333ZM189.333 49.333H190.698V50.6985H189.333V49.333ZM193.429 49.333H194.795V50.6985H193.429V49.333ZM200.257 49.333H201.622V50.6985H200.257V49.333ZM202.988 49.333H204.353V50.6985H202.988V49.333ZM208.45 49.333H209.815V50.6985H208.45V49.333ZM211.181 49.333H212.546V50.6985H211.181V49.333ZM212.546 49.333H213.912V50.6985H212.546V49.333ZM213.912 49.333H215.277V50.6985H213.912V49.333ZM215.277 49.333H216.643V50.6985H215.277V49.333ZM216.643 49.333H218.008V50.6985H216.643V49.333ZM218.008 49.333H219.374V50.6985H218.008V49.333ZM219.374 49.333H220.74V50.6985H219.374V49.333ZM224.836 49.333H226.202V50.6985H224.836V49.333ZM186.602 50.6985H187.967V52.064H186.602V50.6985ZM187.967 50.6985H189.333V52.064H187.967V50.6985ZM193.429 50.6985H194.795V52.064H193.429V50.6985ZM194.795 50.6985H196.16V52.064H194.795V50.6985ZM197.526 50.6985H198.891V52.064H197.526V50.6985ZM200.257 50.6985H201.622V52.064H200.257V50.6985ZM205.719 50.6985H207.084V52.064H205.719V50.6985ZM207.084 50.6985H208.45V52.064H207.084V50.6985ZM209.815 50.6985H211.181V52.064H209.815V50.6985ZM213.912 50.6985H215.277V52.064H213.912V50.6985ZM215.277 50.6985H216.643V52.064H215.277V50.6985ZM216.643 50.6985H218.008V52.064H216.643V50.6985ZM218.008 50.6985H219.374V52.064H218.008V50.6985ZM186.602 52.064H187.967V53.4295H186.602V52.064ZM187.967 52.064H189.333V53.4295H187.967V52.064ZM189.333 52.064H190.698V53.4295H189.333V52.064ZM190.698 52.064H192.064V53.4295H190.698V52.064ZM192.064 52.064H193.429V53.4295H192.064V52.064ZM202.988 52.064H204.353V53.4295H202.988V52.064ZM205.719 52.064H207.084V53.4295H205.719V52.064ZM208.45 52.064H209.815V53.4295H208.45V52.064ZM211.181 52.064H212.546V53.4295H211.181V52.064ZM212.546 52.064H213.912V53.4295H212.546V52.064ZM213.912 52.064H215.277V53.4295H213.912V52.064ZM215.277 52.064H216.643V53.4295H215.277V52.064ZM219.374 52.064H220.74V53.4295H219.374V52.064ZM220.74 52.064H222.105V53.4295H220.74V52.064ZM223.471 52.064H224.836V53.4295H223.471V52.064ZM187.967 53.4295H189.333V54.7951H187.967V53.4295ZM192.064 53.4295H193.429V54.7951H192.064V53.4295ZM193.429 53.4295H194.795V54.7951H193.429V53.4295ZM194.795 53.4295H196.16V54.7951H194.795V53.4295ZM196.16 53.4295H197.526V54.7951H196.16V53.4295ZM197.526 53.4295H198.891V54.7951H197.526V53.4295ZM198.891 53.4295H200.257V54.7951H198.891V53.4295ZM200.257 53.4295H201.622V54.7951H200.257V53.4295ZM202.988 53.4295H204.353V54.7951H202.988V53.4295ZM204.353 53.4295H205.719V54.7951H204.353V53.4295ZM205.719 53.4295H207.084V54.7951H205.719V53.4295ZM207.084 53.4295H208.45V54.7951H207.084V53.4295ZM209.815 53.4295H211.181V54.7951H209.815V53.4295ZM218.008 53.4295H219.374V54.7951H218.008V53.4295ZM220.74 53.4295H222.105V54.7951H220.74V53.4295ZM222.105 53.4295H223.471V54.7951H222.105V53.4295ZM186.602 54.7951H187.967V56.1606H186.602V54.7951ZM189.333 54.7951H190.698V56.1606H189.333V54.7951ZM192.064 54.7951H193.429V56.1606H192.064V54.7951ZM196.16 54.7951H197.526V56.1606H196.16V54.7951ZM204.353 54.7951H205.719V56.1606H204.353V54.7951ZM208.45 54.7951H209.815V56.1606H208.45V54.7951ZM209.815 54.7951H211.181V56.1606H209.815V54.7951ZM211.181 54.7951H212.546V56.1606H211.181V54.7951ZM212.546 54.7951H213.912V56.1606H212.546V54.7951ZM213.912 54.7951H215.277V56.1606H213.912V54.7951ZM215.277 54.7951H216.643V56.1606H215.277V54.7951ZM216.643 54.7951H218.008V56.1606H216.643V54.7951ZM218.008 54.7951H219.374V56.1606H218.008V54.7951ZM219.374 54.7951H220.74V56.1606H219.374V54.7951ZM224.836 54.7951H226.202V56.1606H224.836V54.7951ZM187.967 56.1606H189.333V57.5261H187.967V56.1606ZM192.064 56.1606H193.429V57.5261H192.064V56.1606ZM194.795 56.1606H196.16V57.5261H194.795V56.1606ZM196.16 56.1606H197.526V57.5261H196.16V56.1606ZM197.526 56.1606H198.891V57.5261H197.526V56.1606ZM198.891 56.1606H200.257V57.5261H198.891V56.1606ZM201.622 56.1606H202.988V57.5261H201.622V56.1606ZM202.988 56.1606H204.353V57.5261H202.988V56.1606ZM204.353 56.1606H205.719V57.5261H204.353V56.1606ZM205.719 56.1606H207.084V57.5261H205.719V56.1606ZM207.084 56.1606H208.45V57.5261H207.084V56.1606ZM208.45 56.1606H209.815V57.5261H208.45V56.1606ZM209.815 56.1606H211.181V57.5261H209.815V56.1606ZM213.912 56.1606H215.277V57.5261H213.912V56.1606ZM216.643 56.1606H218.008V57.5261H216.643V56.1606ZM220.74 56.1606H222.105V57.5261H220.74V56.1606ZM222.105 56.1606H223.471V57.5261H222.105V56.1606ZM187.967 57.5261H189.333V58.8916H187.967V57.5261ZM192.064 57.5261H193.429V58.8916H192.064V57.5261ZM193.429 57.5261H194.795V58.8916H193.429V57.5261ZM197.526 57.5261H198.891V58.8916H197.526V57.5261ZM198.891 57.5261H200.257V58.8916H198.891V57.5261ZM201.622 57.5261H202.988V58.8916H201.622V57.5261ZM208.45 57.5261H209.815V58.8916H208.45V57.5261ZM216.643 57.5261H218.008V58.8916H216.643V57.5261ZM219.374 57.5261H220.74V58.8916H219.374V57.5261ZM223.471 57.5261H224.836V58.8916H223.471V57.5261ZM187.967 58.8916H189.333V60.2571H187.967V58.8916ZM193.429 58.8916H194.795V60.2571H193.429V58.8916ZM194.795 58.8916H196.16V60.2571H194.795V58.8916ZM198.891 58.8916H200.257V60.2571H198.891V58.8916ZM200.257 58.8916H201.622V60.2571H200.257V58.8916ZM201.622 58.8916H202.988V60.2571H201.622V58.8916ZM209.815 58.8916H211.181V60.2571H209.815V58.8916ZM220.74 58.8916H222.105V60.2571H220.74V58.8916ZM222.105 58.8916H223.471V60.2571H222.105V58.8916ZM186.602 60.2571H187.967V61.6226H186.602V60.2571ZM197.526 60.2571H198.891V61.6226H197.526V60.2571ZM198.891 60.2571H200.257V61.6226H198.891V60.2571ZM202.988 60.2571H204.353V61.6226H202.988V60.2571ZM204.353 60.2571H205.719V61.6226H204.353V60.2571ZM212.546 60.2571H213.912V61.6226H212.546V60.2571ZM213.912 60.2571H215.277V61.6226H213.912V60.2571ZM216.643 60.2571H218.008V61.6226H216.643V60.2571ZM218.008 60.2571H219.374V61.6226H218.008V60.2571ZM219.374 60.2571H220.74V61.6226H219.374V60.2571ZM222.105 60.2571H223.471V61.6226H222.105V60.2571ZM224.836 60.2571H226.202V61.6226H224.836V60.2571ZM186.602 61.6226H187.967V62.9882H186.602V61.6226ZM194.795 61.6226H196.16V62.9882H194.795V61.6226ZM196.16 61.6226H197.526V62.9882H196.16V61.6226ZM197.526 61.6226H198.891V62.9882H197.526V61.6226ZM204.353 61.6226H205.719V62.9882H204.353V61.6226ZM205.719 61.6226H207.084V62.9882H205.719V61.6226ZM207.084 61.6226H208.45V62.9882H207.084V61.6226ZM208.45 61.6226H209.815V62.9882H208.45V61.6226ZM209.815 61.6226H211.181V62.9882H209.815V61.6226ZM211.181 61.6226H212.546V62.9882H211.181V61.6226ZM215.277 61.6226H216.643V62.9882H215.277V61.6226ZM218.008 61.6226H219.374V62.9882H218.008V61.6226ZM219.374 61.6226H220.74V62.9882H219.374V61.6226ZM222.105 61.6226H223.471V62.9882H222.105V61.6226ZM186.602 62.9882H187.967V64.3537H186.602V62.9882ZM196.16 62.9882H197.526V64.3537H196.16V62.9882ZM200.257 62.9882H201.622V64.3537H200.257V62.9882ZM202.988 62.9882H204.353V64.3537H202.988V62.9882ZM204.353 62.9882H205.719V64.3537H204.353V62.9882ZM208.45 62.9882H209.815V64.3537H208.45V62.9882ZM211.181 62.9882H212.546V64.3537H211.181V62.9882ZM213.912 62.9882H215.277V64.3537H213.912V62.9882ZM215.277 62.9882H216.643V64.3537H215.277V62.9882ZM218.008 62.9882H219.374V64.3537H218.008V62.9882ZM219.374 62.9882H220.74V64.3537H219.374V62.9882ZM223.471 62.9882H224.836V64.3537H223.471V62.9882ZM186.602 64.3537H187.967V65.7192H186.602V64.3537ZM192.064 64.3537H193.429V65.7192H192.064V64.3537ZM193.429 64.3537H194.795V65.7192H193.429V64.3537ZM194.795 64.3537H196.16V65.7192H194.795V64.3537ZM198.891 64.3537H200.257V65.7192H198.891V64.3537ZM202.988 64.3537H204.353V65.7192H202.988V64.3537ZM205.719 64.3537H207.084V65.7192H205.719V64.3537ZM209.815 64.3537H211.181V65.7192H209.815V64.3537ZM213.912 64.3537H215.277V65.7192H213.912V64.3537ZM215.277 64.3537H216.643V65.7192H215.277V64.3537ZM216.643 64.3537H218.008V65.7192H216.643V64.3537ZM218.008 64.3537H219.374V65.7192H218.008V64.3537ZM219.374 64.3537H220.74V65.7192H219.374V64.3537ZM222.105 64.3537H223.471V65.7192H222.105V64.3537ZM223.471 64.3537H224.836V65.7192H223.471V64.3537ZM224.836 64.3537H226.202V65.7192H224.836V64.3537ZM197.526 65.7192H198.891V67.0847H197.526V65.7192ZM198.891 65.7192H200.257V67.0847H198.891V65.7192ZM200.257 65.7192H201.622V67.0847H200.257V65.7192ZM208.45 65.7192H209.815V67.0847H208.45V65.7192ZM212.546 65.7192H213.912V67.0847H212.546V65.7192ZM213.912 65.7192H215.277V67.0847H213.912V65.7192ZM219.374 65.7192H220.74V67.0847H219.374V65.7192ZM220.74 65.7192H222.105V67.0847H220.74V65.7192ZM222.105 65.7192H223.471V67.0847H222.105V65.7192ZM223.471 65.7192H224.836V67.0847H223.471V65.7192ZM224.836 65.7192H226.202V67.0847H224.836V65.7192ZM186.602 67.0847H187.967V68.4502H186.602V67.0847ZM187.967 67.0847H189.333V68.4502H187.967V67.0847ZM189.333 67.0847H190.698V68.4502H189.333V67.0847ZM190.698 67.0847H192.064V68.4502H190.698V67.0847ZM192.064 67.0847H193.429V68.4502H192.064V67.0847ZM193.429 67.0847H194.795V68.4502H193.429V67.0847ZM194.795 67.0847H196.16V68.4502H194.795V67.0847ZM197.526 67.0847H198.891V68.4502H197.526V67.0847ZM198.891 67.0847H200.257V68.4502H198.891V67.0847ZM201.622 67.0847H202.988V68.4502H201.622V67.0847ZM202.988 67.0847H204.353V68.4502H202.988V67.0847ZM207.084 67.0847H208.45V68.4502H207.084V67.0847ZM208.45 67.0847H209.815V68.4502H208.45V67.0847ZM212.546 67.0847H213.912V68.4502H212.546V67.0847ZM213.912 67.0847H215.277V68.4502H213.912V67.0847ZM216.643 67.0847H218.008V68.4502H216.643V67.0847ZM219.374 67.0847H220.74V68.4502H219.374V67.0847ZM220.74 67.0847H222.105V68.4502H220.74V67.0847ZM222.105 67.0847H223.471V68.4502H222.105V67.0847ZM186.602 68.4502H187.967V69.8157H186.602V68.4502ZM194.795 68.4502H196.16V69.8157H194.795V68.4502ZM201.622 68.4502H202.988V69.8157H201.622V68.4502ZM205.719 68.4502H207.084V69.8157H205.719V68.4502ZM207.084 68.4502H208.45V69.8157H207.084V68.4502ZM212.546 68.4502H213.912V69.8157H212.546V68.4502ZM213.912 68.4502H215.277V69.8157H213.912V68.4502ZM219.374 68.4502H220.74V69.8157H219.374V68.4502ZM223.471 68.4502H224.836V69.8157H223.471V68.4502ZM186.602 69.8157H187.967V71.1813H186.602V69.8157ZM189.333 69.8157H190.698V71.1813H189.333V69.8157ZM190.698 69.8157H192.064V71.1813H190.698V69.8157ZM192.064 69.8157H193.429V71.1813H192.064V69.8157ZM194.795 69.8157H196.16V71.1813H194.795V69.8157ZM197.526 69.8157H198.891V71.1813H197.526V69.8157ZM198.891 69.8157H200.257V71.1813H198.891V69.8157ZM201.622 69.8157H202.988V71.1813H201.622V69.8157ZM209.815 69.8157H211.181V71.1813H209.815V69.8157ZM213.912 69.8157H215.277V71.1813H213.912V69.8157ZM215.277 69.8157H216.643V71.1813H215.277V69.8157ZM216.643 69.8157H218.008V71.1813H216.643V69.8157ZM218.008 69.8157H219.374V71.1813H218.008V69.8157ZM219.374 69.8157H220.74V71.1813H219.374V69.8157ZM222.105 69.8157H223.471V71.1813H222.105V69.8157ZM223.471 69.8157H224.836V71.1813H223.471V69.8157ZM224.836 69.8157H226.202V71.1813H224.836V69.8157ZM186.602 71.1813H187.967V72.5468H186.602V71.1813ZM189.333 71.1813H190.698V72.5468H189.333V71.1813ZM190.698 71.1813H192.064V72.5468H190.698V71.1813ZM192.064 71.1813H193.429V72.5468H192.064V71.1813ZM194.795 71.1813H196.16V72.5468H194.795V71.1813ZM197.526 71.1813H198.891V72.5468H197.526V71.1813ZM198.891 71.1813H200.257V72.5468H198.891V71.1813ZM200.257 71.1813H201.622V72.5468H200.257V71.1813ZM202.988 71.1813H204.353V72.5468H202.988V71.1813ZM204.353 71.1813H205.719V72.5468H204.353V71.1813ZM205.719 71.1813H207.084V72.5468H205.719V71.1813ZM208.45 71.1813H209.815V72.5468H208.45V71.1813ZM212.546 71.1813H213.912V72.5468H212.546V71.1813ZM213.912 71.1813H215.277V72.5468H213.912V71.1813ZM215.277 71.1813H216.643V72.5468H215.277V71.1813ZM220.74 71.1813H222.105V72.5468H220.74V71.1813ZM222.105 71.1813H223.471V72.5468H222.105V71.1813ZM223.471 71.1813H224.836V72.5468H223.471V71.1813ZM224.836 71.1813H226.202V72.5468H224.836V71.1813ZM186.602 72.5468H187.967V73.9123H186.602V72.5468ZM189.333 72.5468H190.698V73.9123H189.333V72.5468ZM190.698 72.5468H192.064V73.9123H190.698V72.5468ZM192.064 72.5468H193.429V73.9123H192.064V72.5468ZM194.795 72.5468H196.16V73.9123H194.795V72.5468ZM197.526 72.5468H198.891V73.9123H197.526V72.5468ZM198.891 72.5468H200.257V73.9123H198.891V72.5468ZM200.257 72.5468H201.622V73.9123H200.257V72.5468ZM204.353 72.5468H205.719V73.9123H204.353V72.5468ZM205.719 72.5468H207.084V73.9123H205.719V72.5468ZM207.084 72.5468H208.45V73.9123H207.084V72.5468ZM209.815 72.5468H211.181V73.9123H209.815V72.5468ZM211.181 72.5468H212.546V73.9123H211.181V72.5468ZM215.277 72.5468H216.643V73.9123H215.277V72.5468ZM216.643 72.5468H218.008V73.9123H216.643V72.5468ZM218.008 72.5468H219.374V73.9123H218.008V72.5468ZM219.374 72.5468H220.74V73.9123H219.374V72.5468ZM220.74 72.5468H222.105V73.9123H220.74V72.5468ZM222.105 72.5468H223.471V73.9123H222.105V72.5468ZM223.471 72.5468H224.836V73.9123H223.471V72.5468ZM186.602 73.9123H187.967V75.2778H186.602V73.9123ZM194.795 73.9123H196.16V75.2778H194.795V73.9123ZM197.526 73.9123H198.891V75.2778H197.526V73.9123ZM198.891 73.9123H200.257V75.2778H198.891V73.9123ZM200.257 73.9123H201.622V75.2778H200.257V73.9123ZM202.988 73.9123H204.353V75.2778H202.988V73.9123ZM204.353 73.9123H205.719V75.2778H204.353V73.9123ZM208.45 73.9123H209.815V75.2778H208.45V73.9123ZM212.546 73.9123H213.912V75.2778H212.546V73.9123ZM213.912 73.9123H215.277V75.2778H213.912V73.9123ZM216.643 73.9123H218.008V75.2778H216.643V73.9123ZM218.008 73.9123H219.374V75.2778H218.008V73.9123ZM220.74 73.9123H222.105V75.2778H220.74V73.9123ZM223.471 73.9123H224.836V75.2778H223.471V73.9123ZM186.602 75.2778H187.967V76.6433H186.602V75.2778ZM187.967 75.2778H189.333V76.6433H187.967V75.2778ZM189.333 75.2778H190.698V76.6433H189.333V75.2778ZM190.698 75.2778H192.064V76.6433H190.698V75.2778ZM192.064 75.2778H193.429V76.6433H192.064V75.2778ZM193.429 75.2778H194.795V76.6433H193.429V75.2778ZM194.795 75.2778H196.16V76.6433H194.795V75.2778ZM197.526 75.2778H198.891V76.6433H197.526V75.2778ZM198.891 75.2778H200.257V76.6433H198.891V75.2778ZM202.988 75.2778H204.353V76.6433H202.988V75.2778ZM205.719 75.2778H207.084V76.6433H205.719V75.2778ZM209.815 75.2778H211.181V76.6433H209.815V75.2778ZM211.181 75.2778H212.546V76.6433H211.181V75.2778ZM212.546 75.2778H213.912V76.6433H212.546V75.2778ZM215.277 75.2778H216.643V76.6433H215.277V75.2778ZM216.643 75.2778H218.008V76.6433H216.643V75.2778ZM218.008 75.2778H219.374V76.6433H218.008V75.2778ZM219.374 75.2778H220.74V76.6433H219.374V75.2778ZM220.74 75.2778H222.105V76.6433H220.74V75.2778ZM222.105 75.2778H223.471V76.6433H222.105V75.2778Z" fill="black"/>
<path d="M53.1592 34.8674V43.2434H51.4792V37.7954L49.2352 43.2434H47.9632L45.7072 37.7954V43.2434H44.0272V34.8674H45.9352L48.5992 41.0954L51.2632 34.8674H53.1592ZM61.0002 39.7754C61.0002 40.0154 60.9842 40.2314 60.9522 40.4234H56.0922C56.1322 40.9034 56.3002 41.2794 56.5962 41.5514C56.8922 41.8234 57.2562 41.9594 57.6882 41.9594C58.3122 41.9594 58.7562 41.6914 59.0202 41.1554H60.8322C60.6402 41.7954 60.2722 42.3234 59.7282 42.7394C59.1842 43.1474 58.5162 43.3514 57.7242 43.3514C57.0842 43.3514 56.5082 43.2114 55.9962 42.9314C55.4922 42.6434 55.0962 42.2394 54.8082 41.7194C54.5282 41.1994 54.3882 40.5994 54.3882 39.9194C54.3882 39.2314 54.5282 38.6274 54.8082 38.1074C55.0882 37.5874 55.4802 37.1874 55.9842 36.9074C56.4882 36.6274 57.0682 36.4874 57.7242 36.4874C58.3562 36.4874 58.9202 36.6234 59.4162 36.8954C59.9202 37.1674 60.3082 37.5554 60.5802 38.0594C60.8602 38.5554 61.0002 39.1274 61.0002 39.7754ZM59.2602 39.2954C59.2522 38.8634 59.0962 38.5194 58.7922 38.2634C58.4882 37.9994 58.1162 37.8674 57.6762 37.8674C57.2602 37.8674 56.9082 37.9954 56.6202 38.2514C56.3402 38.4994 56.1682 38.8474 56.1042 39.2954H59.2602ZM68.4064 39.7754C68.4064 40.0154 68.3904 40.2314 68.3584 40.4234H63.4984C63.5384 40.9034 63.7064 41.2794 64.0024 41.5514C64.2984 41.8234 64.6624 41.9594 65.0944 41.9594C65.7184 41.9594 66.1624 41.6914 66.4264 41.1554H68.2384C68.0464 41.7954 67.6784 42.3234 67.1344 42.7394C66.5904 43.1474 65.9224 43.3514 65.1304 43.3514C64.4904 43.3514 63.9144 43.2114 63.4024 42.9314C62.8984 42.6434 62.5024 42.2394 62.2144 41.7194C61.9344 41.1994 61.7944 40.5994 61.7944 39.9194C61.7944 39.2314 61.9344 38.6274 62.2144 38.1074C62.4944 37.5874 62.8864 37.1874 63.3904 36.9074C63.8944 36.6274 64.4744 36.4874 65.1304 36.4874C65.7624 36.4874 66.3264 36.6234 66.8224 36.8954C67.3264 37.1674 67.7144 37.5554 67.9864 38.0594C68.2664 38.5554 68.4064 39.1274 68.4064 39.7754ZM66.6664 39.2954C66.6584 38.8634 66.5024 38.5194 66.1984 38.2634C65.8944 37.9994 65.5224 37.8674 65.0824 37.8674C64.6664 37.8674 64.3144 37.9954 64.0264 38.2514C63.7464 38.4994 63.5744 38.8474 63.5104 39.2954H66.6664ZM69.2007 39.8954C69.2007 39.2234 69.3327 38.6274 69.5967 38.1074C69.8687 37.5874 70.2367 37.1874 70.7007 36.9074C71.1647 36.6274 71.6807 36.4874 72.2487 36.4874C72.6807 36.4874 73.0927 36.5834 73.4847 36.7754C73.8767 36.9594 74.1887 37.2074 74.4207 37.5194V34.3634H76.1247V43.2434H74.4207V42.2594C74.2127 42.5874 73.9207 42.8514 73.5447 43.0514C73.1687 43.2514 72.7327 43.3514 72.2367 43.3514C71.6767 43.3514 71.1647 43.2074 70.7007 42.9194C70.2367 42.6314 69.8687 42.2274 69.5967 41.7074C69.3327 41.1794 69.2007 40.5754 69.2007 39.8954ZM74.4327 39.9194C74.4327 39.5114 74.3527 39.1634 74.1927 38.8754C74.0327 38.5794 73.8167 38.3554 73.5447 38.2034C73.2727 38.0434 72.9807 37.9634 72.6687 37.9634C72.3567 37.9634 72.0687 38.0394 71.8047 38.1914C71.5407 38.3434 71.3247 38.5674 71.1567 38.8634C70.9967 39.1514 70.9167 39.4954 70.9167 39.8954C70.9167 40.2954 70.9967 40.6474 71.1567 40.9514C71.3247 41.2474 71.5407 41.4754 71.8047 41.6354C72.0767 41.7954 72.3647 41.8754 72.6687 41.8754C72.9807 41.8754 73.2727 41.7994 73.5447 41.6474C73.8167 41.4874 74.0327 41.2634 74.1927 40.9754C74.3527 40.6794 74.4327 40.3274 74.4327 39.9194ZM80.7175 43.3514C80.0775 43.3514 79.5015 43.2114 78.9895 42.9314C78.4775 42.6434 78.0735 42.2394 77.7775 41.7194C77.4895 41.1994 77.3455 40.5994 77.3455 39.9194C77.3455 39.2394 77.4935 38.6394 77.7895 38.1194C78.0935 37.5994 78.5055 37.1994 79.0255 36.9194C79.5455 36.6314 80.1255 36.4874 80.7655 36.4874C81.4055 36.4874 81.9855 36.6314 82.5055 36.9194C83.0255 37.1994 83.4335 37.5994 83.7295 38.1194C84.0335 38.6394 84.1855 39.2394 84.1855 39.9194C84.1855 40.5994 84.0295 41.1994 83.7175 41.7194C83.4135 42.2394 82.9975 42.6434 82.4695 42.9314C81.9495 43.2114 81.3655 43.3514 80.7175 43.3514ZM80.7175 41.8874C81.0215 41.8874 81.3055 41.8154 81.5695 41.6714C81.8415 41.5194 82.0575 41.2954 82.2175 40.9994C82.3775 40.7034 82.4575 40.3434 82.4575 39.9194C82.4575 39.2874 82.2895 38.8034 81.9535 38.4674C81.6255 38.1234 81.2215 37.9514 80.7415 37.9514C80.2615 37.9514 79.8575 38.1234 79.5295 38.4674C79.2095 38.8034 79.0495 39.2874 79.0495 39.9194C79.0495 40.5514 79.2055 41.0394 79.5175 41.3834C79.8375 41.7194 80.2375 41.8874 80.7175 41.8874ZM91.5978 39.7754C91.5978 40.0154 91.5818 40.2314 91.5498 40.4234H86.6898C86.7298 40.9034 86.8978 41.2794 87.1938 41.5514C87.4898 41.8234 87.8538 41.9594 88.2858 41.9594C88.9098 41.9594 89.3538 41.6914 89.6178 41.1554H91.4298C91.2378 41.7954 90.8698 42.3234 90.3258 42.7394C89.7818 43.1474 89.1138 43.3514 88.3218 43.3514C87.6818 43.3514 87.1058 43.2114 86.5938 42.9314C86.0898 42.6434 85.6938 42.2394 85.4058 41.7194C85.1258 41.1994 84.9858 40.5994 84.9858 39.9194C84.9858 39.2314 85.1258 38.6274 85.4058 38.1074C85.6858 37.5874 86.0778 37.1874 86.5818 36.9074C87.0858 36.6274 87.6658 36.4874 88.3218 36.4874C88.9538 36.4874 89.5178 36.6234 90.0138 36.8954C90.5178 37.1674 90.9058 37.5554 91.1778 38.0594C91.4578 38.5554 91.5978 39.1274 91.5978 39.7754ZM89.8578 39.2954C89.8498 38.8634 89.6938 38.5194 89.3898 38.2634C89.0858 37.9994 88.7138 37.8674 88.2738 37.8674C87.8578 37.8674 87.5058 37.9954 87.2178 38.2514C86.9378 38.4994 86.7658 38.8474 86.7018 39.2954H89.8578ZM96.508 36.4994C97.3 36.4994 97.94 36.7514 98.428 37.2554C98.916 37.7514 99.16 38.4474 99.16 39.3434V43.2434H97.48V39.5714C97.48 39.0434 97.348 38.6394 97.084 38.3594C96.82 38.0714 96.46 37.9274 96.004 37.9274C95.54 37.9274 95.172 38.0714 94.9 38.3594C94.636 38.6394 94.504 39.0434 94.504 39.5714V43.2434H92.824V36.5954H94.504V37.4234C94.728 37.1354 95.012 36.9114 95.356 36.7514C95.708 36.5834 96.092 36.4994 96.508 36.4994ZM102.438 37.6274C102.654 37.2754 102.934 36.9994 103.278 36.7994C103.63 36.5994 104.03 36.4994 104.478 36.4994V38.2634H104.034C103.506 38.2634 103.106 38.3874 102.834 38.6354C102.57 38.8834 102.438 39.3154 102.438 39.9314V43.2434H100.758V36.5954H102.438V37.6274ZM111.789 39.7754C111.789 40.0154 111.773 40.2314 111.741 40.4234H106.881C106.921 40.9034 107.089 41.2794 107.385 41.5514C107.681 41.8234 108.045 41.9594 108.477 41.9594C109.101 41.9594 109.545 41.6914 109.809 41.1554H111.621C111.429 41.7954 111.061 42.3234 110.517 42.7394C109.973 43.1474 109.305 43.3514 108.513 43.3514C107.873 43.3514 107.297 43.2114 106.785 42.9314C106.281 42.6434 105.885 42.2394 105.597 41.7194C105.317 41.1994 105.177 40.5994 105.177 39.9194C105.177 39.2314 105.317 38.6274 105.597 38.1074C105.877 37.5874 106.269 37.1874 106.773 36.9074C107.277 36.6274 107.857 36.4874 108.513 36.4874C109.145 36.4874 109.709 36.6234 110.205 36.8954C110.709 37.1674 111.097 37.5554 111.369 38.0594C111.649 38.5554 111.789 39.1274 111.789 39.7754ZM110.049 39.2954C110.041 38.8634 109.885 38.5194 109.581 38.2634C109.277 37.9994 108.905 37.8674 108.465 37.8674C108.049 37.8674 107.697 37.9954 107.409 38.2514C107.129 38.4994 106.957 38.8474 106.893 39.2954H110.049ZM115.619 36.4874C116.115 36.4874 116.551 36.5874 116.927 36.7874C117.303 36.9794 117.599 37.2314 117.815 37.5434V36.5954H119.507V43.2914C119.507 43.9074 119.383 44.4554 119.135 44.9354C118.887 45.4234 118.515 45.8074 118.019 46.0874C117.523 46.3754 116.923 46.5194 116.219 46.5194C115.275 46.5194 114.499 46.2994 113.891 45.8594C113.291 45.4194 112.951 44.8194 112.871 44.0594H114.539C114.627 44.3634 114.815 44.6034 115.103 44.7794C115.399 44.9634 115.755 45.0554 116.171 45.0554C116.659 45.0554 117.055 44.9074 117.359 44.6114C117.663 44.3234 117.815 43.8834 117.815 43.2914V42.2594C117.599 42.5714 117.299 42.8314 116.915 43.0394C116.539 43.2474 116.107 43.3514 115.619 43.3514C115.059 43.3514 114.547 43.2074 114.083 42.9194C113.619 42.6314 113.251 42.2274 112.979 41.7074C112.715 41.1794 112.583 40.5754 112.583 39.8954C112.583 39.2234 112.715 38.6274 112.979 38.1074C113.251 37.5874 113.615 37.1874 114.071 36.9074C114.535 36.6274 115.051 36.4874 115.619 36.4874ZM117.815 39.9194C117.815 39.5114 117.735 39.1634 117.575 38.8754C117.415 38.5794 117.199 38.3554 116.927 38.2034C116.655 38.0434 116.363 37.9634 116.051 37.9634C115.739 37.9634 115.451 38.0394 115.187 38.1914C114.923 38.3434 114.707 38.5674 114.539 38.8634C114.379 39.1514 114.299 39.4954 114.299 39.8954C114.299 40.2954 114.379 40.6474 114.539 40.9514C114.707 41.2474 114.923 41.4754 115.187 41.6354C115.459 41.7954 115.747 41.8754 116.051 41.8754C116.363 41.8754 116.655 41.7994 116.927 41.6474C117.199 41.4874 117.415 41.2634 117.575 40.9754C117.735 40.6794 117.815 40.3274 117.815 39.9194ZM127.328 39.7754C127.328 40.0154 127.312 40.2314 127.28 40.4234H122.42C122.46 40.9034 122.628 41.2794 122.924 41.5514C123.22 41.8234 123.584 41.9594 124.016 41.9594C124.64 41.9594 125.084 41.6914 125.348 41.1554H127.16C126.968 41.7954 126.6 42.3234 126.056 42.7394C125.512 43.1474 124.844 43.3514 124.052 43.3514C123.412 43.3514 122.836 43.2114 122.324 42.9314C121.82 42.6434 121.424 42.2394 121.136 41.7194C120.856 41.1994 120.716 40.5994 120.716 39.9194C120.716 39.2314 120.856 38.6274 121.136 38.1074C121.416 37.5874 121.808 37.1874 122.312 36.9074C122.816 36.6274 123.396 36.4874 124.052 36.4874C124.684 36.4874 125.248 36.6234 125.744 36.8954C126.248 37.1674 126.636 37.5554 126.908 38.0594C127.188 38.5554 127.328 39.1274 127.328 39.7754ZM125.588 39.2954C125.58 38.8634 125.424 38.5194 125.12 38.2634C124.816 37.9994 124.444 37.8674 124.004 37.8674C123.588 37.8674 123.236 37.9954 122.948 38.2514C122.668 38.4994 122.496 38.8474 122.432 39.2954H125.588ZM130.234 34.3634V43.2434H128.554V34.3634H130.234ZM132.746 35.8034C132.45 35.8034 132.202 35.7114 132.002 35.5274C131.81 35.3354 131.714 35.0994 131.714 34.8194C131.714 34.5394 131.81 34.3074 132.002 34.1234C132.202 33.9314 132.45 33.8354 132.746 33.8354C133.042 33.8354 133.286 33.9314 133.478 34.1234C133.678 34.3074 133.778 34.5394 133.778 34.8194C133.778 35.0994 133.678 35.3354 133.478 35.5274C133.286 35.7114 133.042 35.8034 132.746 35.8034ZM133.574 36.5954V43.2434H131.894V36.5954H133.574ZM138.918 36.4994C139.71 36.4994 140.35 36.7514 140.838 37.2554C141.326 37.7514 141.57 38.4474 141.57 39.3434V43.2434H139.89V39.5714C139.89 39.0434 139.758 38.6394 139.494 38.3594C139.23 38.0714 138.87 37.9274 138.414 37.9274C137.95 37.9274 137.582 38.0714 137.31 38.3594C137.046 38.6394 136.914 39.0434 136.914 39.5714V43.2434H135.234V36.5954H136.914V37.4234C137.138 37.1354 137.422 36.9114 137.766 36.7514C138.118 36.5834 138.502 36.4994 138.918 36.4994ZM145.772 36.4874C146.268 36.4874 146.704 36.5874 147.08 36.7874C147.456 36.9794 147.752 37.2314 147.968 37.5434V36.5954H149.66V43.2914C149.66 43.9074 149.536 44.4554 149.288 44.9354C149.04 45.4234 148.668 45.8074 148.172 46.0874C147.676 46.3754 147.076 46.5194 146.372 46.5194C145.428 46.5194 144.652 46.2994 144.044 45.8594C143.444 45.4194 143.104 44.8194 143.024 44.0594H144.692C144.78 44.3634 144.968 44.6034 145.256 44.7794C145.552 44.9634 145.908 45.0554 146.324 45.0554C146.812 45.0554 147.208 44.9074 147.512 44.6114C147.816 44.3234 147.968 43.8834 147.968 43.2914V42.2594C147.752 42.5714 147.452 42.8314 147.068 43.0394C146.692 43.2474 146.26 43.3514 145.772 43.3514C145.212 43.3514 144.7 43.2074 144.236 42.9194C143.772 42.6314 143.404 42.2274 143.132 41.7074C142.868 41.1794 142.736 40.5754 142.736 39.8954C142.736 39.2234 142.868 38.6274 143.132 38.1074C143.404 37.5874 143.768 37.1874 144.224 36.9074C144.688 36.6274 145.204 36.4874 145.772 36.4874ZM147.968 39.9194C147.968 39.5114 147.888 39.1634 147.728 38.8754C147.568 38.5794 147.352 38.3554 147.08 38.2034C146.808 38.0434 146.516 37.9634 146.204 37.9634C145.892 37.9634 145.604 38.0394 145.34 38.1914C145.076 38.3434 144.86 38.5674 144.692 38.8634C144.532 39.1514 144.452 39.4954 144.452 39.8954C144.452 40.2954 144.532 40.6474 144.692 40.9514C144.86 41.2474 145.076 41.4754 145.34 41.6354C145.612 41.7954 145.9 41.8754 146.204 41.8754C146.516 41.8754 146.808 41.7994 147.08 41.6474C147.352 41.4874 147.568 41.2634 147.728 40.9754C147.888 40.6794 147.968 40.3274 147.968 39.9194Z" fill="#131313"/>
<path d="M47.7076 50.3824C47.5672 50.112 47.3722 49.9092 47.1226 49.774C46.873 49.6336 46.5844 49.5634 46.2568 49.5634C45.898 49.5634 45.5782 49.644 45.2974 49.8052C45.0166 49.9664 44.7956 50.1952 44.6344 50.4916C44.4784 50.788 44.4004 51.1312 44.4004 51.5212C44.4004 51.9112 44.4784 52.257 44.6344 52.5586C44.7956 52.855 45.0166 53.0838 45.2974 53.245C45.5782 53.4062 45.898 53.4868 46.2568 53.4868C46.7404 53.4868 47.133 53.3516 47.4346 53.0812C47.7362 52.8108 47.9208 52.4442 47.9884 51.9814H45.9526V51.2716H48.94V51.9658C48.8828 52.387 48.732 52.7744 48.4876 53.128C48.2484 53.4816 47.9338 53.765 47.5438 53.9782C47.159 54.1862 46.73 54.2902 46.2568 54.2902C45.7472 54.2902 45.2818 54.1732 44.8606 53.9392C44.4394 53.7 44.104 53.3698 43.8544 52.9486C43.61 52.5274 43.4878 52.0516 43.4878 51.5212C43.4878 50.9908 43.61 50.515 43.8544 50.0938C44.104 49.6726 44.4394 49.345 44.8606 49.111C45.287 48.8718 45.7524 48.7522 46.2568 48.7522C46.834 48.7522 47.3462 48.8952 47.7934 49.1812C48.2458 49.462 48.5734 49.8624 48.7762 50.3824H47.7076ZM54.056 51.9892C54.056 52.1504 54.0456 52.296 54.0248 52.426H50.741C50.767 52.7692 50.8944 53.0448 51.1232 53.2528C51.352 53.4608 51.6328 53.5648 51.9656 53.5648C52.444 53.5648 52.782 53.3646 52.9796 52.9642H53.939C53.809 53.3594 53.5724 53.6844 53.2292 53.9392C52.8912 54.1888 52.47 54.3136 51.9656 54.3136C51.5548 54.3136 51.1856 54.2226 50.858 54.0406C50.5356 53.8534 50.2808 53.5934 50.0936 53.2606C49.9116 52.9226 49.8206 52.5326 49.8206 52.0906C49.8206 51.6486 49.909 51.2612 50.0858 50.9284C50.2678 50.5904 50.52 50.3304 50.8424 50.1484C51.17 49.9664 51.5444 49.8754 51.9656 49.8754C52.3712 49.8754 52.7326 49.9638 53.0498 50.1406C53.367 50.3174 53.614 50.567 53.7908 50.8894C53.9676 51.2066 54.056 51.5732 54.056 51.9892ZM53.1278 51.7084C53.1226 51.3808 53.0056 51.1182 52.7768 50.9206C52.548 50.723 52.2646 50.6242 51.9266 50.6242C51.6198 50.6242 51.3572 50.723 51.1388 50.9206C50.9204 51.113 50.7904 51.3756 50.7488 51.7084H53.1278ZM60.4337 49.8754C60.7717 49.8754 61.0733 49.9456 61.3385 50.086C61.6089 50.2264 61.8195 50.4344 61.9703 50.71C62.1263 50.9856 62.2043 51.3184 62.2043 51.7084V54.2434H61.3229V51.841C61.3229 51.4562 61.2267 51.1624 61.0343 50.9596C60.8419 50.7516 60.5793 50.6476 60.2465 50.6476C59.9137 50.6476 59.6485 50.7516 59.4509 50.9596C59.2585 51.1624 59.1623 51.4562 59.1623 51.841V54.2434H58.2809V51.841C58.2809 51.4562 58.1847 51.1624 57.9923 50.9596C57.7999 50.7516 57.5373 50.6476 57.2045 50.6476C56.8717 50.6476 56.6065 50.7516 56.4089 50.9596C56.2165 51.1624 56.1203 51.4562 56.1203 51.841V54.2434H55.2311V49.9456H56.1203V50.437C56.2659 50.2602 56.4505 50.1224 56.6741 50.0236C56.8977 49.9248 57.1369 49.8754 57.3917 49.8754C57.7349 49.8754 58.0417 49.9482 58.3121 50.0938C58.5825 50.2394 58.7905 50.45 58.9361 50.7256C59.0661 50.4656 59.2689 50.2602 59.5445 50.1094C59.8201 49.9534 60.1165 49.8754 60.4337 49.8754ZM67.5748 51.9892C67.5748 52.1504 67.5644 52.296 67.5436 52.426H64.2598C64.2858 52.7692 64.4132 53.0448 64.642 53.2528C64.8708 53.4608 65.1516 53.5648 65.4844 53.5648C65.9628 53.5648 66.3008 53.3646 66.4984 52.9642H67.4578C67.3278 53.3594 67.0912 53.6844 66.748 53.9392C66.41 54.1888 65.9888 54.3136 65.4844 54.3136C65.0736 54.3136 64.7044 54.2226 64.3768 54.0406C64.0544 53.8534 63.7996 53.5934 63.6124 53.2606C63.4304 52.9226 63.3394 52.5326 63.3394 52.0906C63.3394 51.6486 63.4278 51.2612 63.6046 50.9284C63.7866 50.5904 64.0388 50.3304 64.3612 50.1484C64.6888 49.9664 65.0632 49.8754 65.4844 49.8754C65.89 49.8754 66.2514 49.9638 66.5686 50.1406C66.8858 50.3174 67.1328 50.567 67.3096 50.8894C67.4864 51.2066 67.5748 51.5732 67.5748 51.9892ZM66.6466 51.7084C66.6414 51.3808 66.5244 51.1182 66.2956 50.9206C66.0668 50.723 65.7834 50.6242 65.4454 50.6242C65.1386 50.6242 64.876 50.723 64.6576 50.9206C64.4392 51.113 64.3092 51.3756 64.2676 51.7084H66.6466ZM72.6888 51.9892C72.6888 52.1504 72.6784 52.296 72.6576 52.426H69.3738C69.3998 52.7692 69.5272 53.0448 69.756 53.2528C69.9848 53.4608 70.2656 53.5648 70.5984 53.5648C71.0768 53.5648 71.4148 53.3646 71.6124 52.9642H72.5718C72.4418 53.3594 72.2052 53.6844 71.862 53.9392C71.524 54.1888 71.1028 54.3136 70.5984 54.3136C70.1876 54.3136 69.8184 54.2226 69.4908 54.0406C69.1684 53.8534 68.9136 53.5934 68.7264 53.2606C68.5444 52.9226 68.4534 52.5326 68.4534 52.0906C68.4534 51.6486 68.5418 51.2612 68.7186 50.9284C68.9006 50.5904 69.1528 50.3304 69.4752 50.1484C69.8028 49.9664 70.1772 49.8754 70.5984 49.8754C71.004 49.8754 71.3654 49.9638 71.6826 50.1406C71.9998 50.3174 72.2468 50.567 72.4236 50.8894C72.6004 51.2066 72.6888 51.5732 72.6888 51.9892ZM71.7606 51.7084C71.7554 51.3808 71.6384 51.1182 71.4096 50.9206C71.1808 50.723 70.8974 50.6242 70.5594 50.6242C70.2526 50.6242 69.99 50.723 69.7716 50.9206C69.5532 51.113 69.4232 51.3756 69.3816 51.7084H71.7606ZM76.0323 49.8754C76.3703 49.8754 76.6719 49.9456 76.9371 50.086C77.2075 50.2264 77.4181 50.4344 77.5689 50.71C77.7197 50.9856 77.7951 51.3184 77.7951 51.7084V54.2434H76.9137V51.841C76.9137 51.4562 76.8175 51.1624 76.6251 50.9596C76.4327 50.7516 76.1701 50.6476 75.8373 50.6476C75.5045 50.6476 75.2393 50.7516 75.0417 50.9596C74.8493 51.1624 74.7531 51.4562 74.7531 51.841V54.2434H73.8639V49.9456H74.7531V50.437C74.8987 50.2602 75.0833 50.1224 75.3069 50.0236C75.5357 49.9248 75.7775 49.8754 76.0323 49.8754ZM80.2667 50.671V53.05C80.2667 53.2112 80.3031 53.3282 80.3759 53.401C80.4539 53.4686 80.5839 53.5024 80.7659 53.5024H81.3119V54.2434H80.6099C80.2095 54.2434 79.9027 54.1498 79.6895 53.9626C79.4763 53.7754 79.3697 53.4712 79.3697 53.05V50.671H78.8627V49.9456H79.3697V48.877H80.2667V49.9456H81.3119V50.671H80.2667ZM86.3704 51.9892C86.3704 52.1504 86.36 52.296 86.3392 52.426H83.0554C83.0814 52.7692 83.2088 53.0448 83.4376 53.2528C83.6664 53.4608 83.9472 53.5648 84.28 53.5648C84.7584 53.5648 85.0964 53.3646 85.294 52.9642H86.2534C86.1234 53.3594 85.8868 53.6844 85.5436 53.9392C85.2056 54.1888 84.7844 54.3136 84.28 54.3136C83.8692 54.3136 83.5 54.2226 83.1724 54.0406C82.85 53.8534 82.5952 53.5934 82.408 53.2606C82.226 52.9226 82.135 52.5326 82.135 52.0906C82.135 51.6486 82.2234 51.2612 82.4002 50.9284C82.5822 50.5904 82.8344 50.3304 83.1568 50.1484C83.4844 49.9664 83.8588 49.8754 84.28 49.8754C84.6856 49.8754 85.047 49.9638 85.3642 50.1406C85.6814 50.3174 85.9284 50.567 86.1052 50.8894C86.282 51.2066 86.3704 51.5732 86.3704 51.9892ZM85.4422 51.7084C85.437 51.3808 85.32 51.1182 85.0912 50.9206C84.8624 50.723 84.579 50.6242 84.241 50.6242C83.9342 50.6242 83.6716 50.723 83.4532 50.9206C83.2348 51.113 83.1048 51.3756 83.0632 51.7084H85.4422ZM95.5813 48.8224V54.2434H94.6921V50.5306L93.0385 54.2434H92.4223L90.7609 50.5306V54.2434H89.8717V48.8224H90.8311L92.7343 53.0734L94.6297 48.8224H95.5813ZM100.989 51.9892C100.989 52.1504 100.979 52.296 100.958 52.426H97.674C97.7 52.7692 97.8274 53.0448 98.0562 53.2528C98.285 53.4608 98.5658 53.5648 98.8986 53.5648C99.377 53.5648 99.715 53.3646 99.9126 52.9642H100.872C100.742 53.3594 100.505 53.6844 100.162 53.9392C99.8242 54.1888 99.403 54.3136 98.8986 54.3136C98.4878 54.3136 98.1186 54.2226 97.791 54.0406C97.4686 53.8534 97.2138 53.5934 97.0266 53.2606C96.8446 52.9226 96.7536 52.5326 96.7536 52.0906C96.7536 51.6486 96.842 51.2612 97.0188 50.9284C97.2008 50.5904 97.453 50.3304 97.7754 50.1484C98.103 49.9664 98.4774 49.8754 98.8986 49.8754C99.3042 49.8754 99.6656 49.9638 99.9828 50.1406C100.3 50.3174 100.547 50.567 100.724 50.8894C100.901 51.2066 100.989 51.5732 100.989 51.9892ZM100.061 51.7084C100.056 51.3808 99.9386 51.1182 99.7098 50.9206C99.481 50.723 99.1976 50.6242 98.8596 50.6242C98.5528 50.6242 98.2902 50.723 98.0718 50.9206C97.8534 51.113 97.7234 51.3756 97.6818 51.7084H100.061ZM106.103 51.9892C106.103 52.1504 106.093 52.296 106.072 52.426H102.788C102.814 52.7692 102.941 53.0448 103.17 53.2528C103.399 53.4608 103.68 53.5648 104.013 53.5648C104.491 53.5648 104.829 53.3646 105.027 52.9642H105.986C105.856 53.3594 105.619 53.6844 105.276 53.9392C104.938 54.1888 104.517 54.3136 104.013 54.3136C103.602 54.3136 103.233 54.2226 102.905 54.0406C102.583 53.8534 102.328 53.5934 102.141 53.2606C101.959 52.9226 101.868 52.5326 101.868 52.0906C101.868 51.6486 101.956 51.2612 102.133 50.9284C102.315 50.5904 102.567 50.3304 102.889 50.1484C103.217 49.9664 103.591 49.8754 104.013 49.8754C104.418 49.8754 104.78 49.9638 105.097 50.1406C105.414 50.3174 105.661 50.567 105.838 50.8894C106.015 51.2066 106.103 51.5732 106.103 51.9892ZM105.175 51.7084C105.17 51.3808 105.053 51.1182 104.824 50.9206C104.595 50.723 104.312 50.6242 103.974 50.6242C103.667 50.6242 103.404 50.723 103.186 50.9206C102.967 51.113 102.837 51.3756 102.796 51.7084H105.175ZM108.167 50.5696C108.297 50.3512 108.469 50.1822 108.682 50.0626C108.9 49.9378 109.158 49.8754 109.454 49.8754V50.7958H109.228C108.88 50.7958 108.614 50.8842 108.432 51.061C108.256 51.2378 108.167 51.5446 108.167 51.9814V54.2434H107.278V49.9456H108.167V50.5696ZM114.511 51.9892C114.511 52.1504 114.5 52.296 114.479 52.426H111.196C111.222 52.7692 111.349 53.0448 111.578 53.2528C111.807 53.4608 112.087 53.5648 112.42 53.5648C112.899 53.5648 113.237 53.3646 113.434 52.9642H114.394C114.264 53.3594 114.027 53.6844 113.684 53.9392C113.346 54.1888 112.925 54.3136 112.42 54.3136C112.009 54.3136 111.64 54.2226 111.313 54.0406C110.99 53.8534 110.735 53.5934 110.548 53.2606C110.366 52.9226 110.275 52.5326 110.275 52.0906C110.275 51.6486 110.364 51.2612 110.54 50.9284C110.722 50.5904 110.975 50.3304 111.297 50.1484C111.625 49.9664 111.999 49.8754 112.42 49.8754C112.826 49.8754 113.187 49.9638 113.504 50.1406C113.822 50.3174 114.069 50.567 114.245 50.8894C114.422 51.2066 114.511 51.5732 114.511 51.9892ZM113.582 51.7084C113.577 51.3808 113.46 51.1182 113.231 50.9206C113.003 50.723 112.719 50.6242 112.381 50.6242C112.074 50.6242 111.812 50.723 111.593 50.9206C111.375 51.113 111.245 51.3756 111.203 51.7084H113.582ZM117.854 49.8754C118.192 49.8754 118.494 49.9456 118.759 50.086C119.029 50.2264 119.24 50.4344 119.391 50.71C119.541 50.9856 119.617 51.3184 119.617 51.7084V54.2434H118.735V51.841C118.735 51.4562 118.639 51.1624 118.447 50.9596C118.254 50.7516 117.992 50.6476 117.659 50.6476C117.326 50.6476 117.061 50.7516 116.863 50.9596C116.671 51.1624 116.575 51.4562 116.575 51.841V54.2434H115.686V49.9456H116.575V50.437C116.72 50.2602 116.905 50.1224 117.129 50.0236C117.357 49.9248 117.599 49.8754 117.854 49.8754ZM121.94 50.5852C122.091 50.3772 122.297 50.2082 122.557 50.0782C122.822 49.943 123.116 49.8754 123.438 49.8754C123.818 49.8754 124.161 49.9664 124.468 50.1484C124.774 50.3304 125.016 50.5904 125.193 50.9284C125.37 51.2612 125.458 51.6434 125.458 52.075C125.458 52.5066 125.37 52.894 125.193 53.2372C125.016 53.5752 124.772 53.8404 124.46 54.0328C124.153 54.22 123.812 54.3136 123.438 54.3136C123.105 54.3136 122.809 54.2486 122.549 54.1186C122.294 53.9886 122.091 53.8222 121.94 53.6194V54.2434H121.051V48.4714H121.94V50.5852ZM124.553 52.075C124.553 51.7786 124.491 51.5238 124.366 51.3106C124.247 51.0922 124.085 50.9284 123.883 50.8192C123.685 50.7048 123.472 50.6476 123.243 50.6476C123.019 50.6476 122.806 50.7048 122.603 50.8192C122.406 50.9336 122.245 51.1 122.12 51.3184C122 51.5368 121.94 51.7942 121.94 52.0906C121.94 52.387 122 52.647 122.12 52.8706C122.245 53.089 122.406 53.2554 122.603 53.3698C122.806 53.4842 123.019 53.5414 123.243 53.5414C123.472 53.5414 123.685 53.4842 123.883 53.3698C124.085 53.2502 124.247 53.0786 124.366 52.855C124.491 52.6314 124.553 52.3714 124.553 52.075ZM128.502 54.3136C128.096 54.3136 127.729 54.2226 127.402 54.0406C127.074 53.8534 126.817 53.5934 126.63 53.2606C126.442 52.9226 126.349 52.5326 126.349 52.0906C126.349 51.6538 126.445 51.2664 126.637 50.9284C126.83 50.5904 127.092 50.3304 127.425 50.1484C127.758 49.9664 128.13 49.8754 128.541 49.8754C128.951 49.8754 129.323 49.9664 129.656 50.1484C129.989 50.3304 130.251 50.5904 130.444 50.9284C130.636 51.2664 130.732 51.6538 130.732 52.0906C130.732 52.5274 130.634 52.9148 130.436 53.2528C130.238 53.5908 129.968 53.8534 129.625 54.0406C129.287 54.2226 128.912 54.3136 128.502 54.3136ZM128.502 53.5414C128.73 53.5414 128.944 53.4868 129.141 53.3776C129.344 53.2684 129.508 53.1046 129.633 52.8862C129.757 52.6678 129.82 52.4026 129.82 52.0906C129.82 51.7786 129.76 51.516 129.64 51.3028C129.521 51.0844 129.362 50.9206 129.165 50.8114C128.967 50.7022 128.754 50.6476 128.525 50.6476C128.296 50.6476 128.083 50.7022 127.885 50.8114C127.693 50.9206 127.54 51.0844 127.425 51.3028C127.311 51.516 127.254 51.7786 127.254 52.0906C127.254 52.5534 127.371 52.9122 127.605 53.167C127.844 53.4166 128.143 53.5414 128.502 53.5414ZM133.471 54.3136C133.133 54.3136 132.829 54.2538 132.559 54.1342C132.294 54.0094 132.083 53.843 131.927 53.635C131.771 53.4218 131.688 53.1852 131.677 52.9252H132.598C132.613 53.1072 132.699 53.2606 132.855 53.3854C133.016 53.505 133.217 53.5648 133.456 53.5648C133.705 53.5648 133.898 53.518 134.033 53.4244C134.173 53.3256 134.244 53.2008 134.244 53.05C134.244 52.8888 134.166 52.7692 134.01 52.6912C133.859 52.6132 133.617 52.5274 133.284 52.4338C132.962 52.3454 132.699 52.2596 132.496 52.1764C132.294 52.0932 132.117 51.9658 131.966 51.7942C131.82 51.6226 131.748 51.3964 131.748 51.1156C131.748 50.8868 131.815 50.6788 131.95 50.4916C132.086 50.2992 132.278 50.1484 132.528 50.0392C132.782 49.93 133.074 49.8754 133.401 49.8754C133.89 49.8754 134.283 50.0002 134.579 50.2498C134.881 50.4942 135.042 50.8296 135.063 51.256H134.173C134.158 51.0636 134.08 50.9102 133.939 50.7958C133.799 50.6814 133.609 50.6242 133.37 50.6242C133.136 50.6242 132.957 50.6684 132.832 50.7568C132.707 50.8452 132.645 50.9622 132.645 51.1078C132.645 51.2222 132.686 51.3184 132.769 51.3964C132.853 51.4744 132.954 51.5368 133.074 51.5836C133.193 51.6252 133.37 51.6798 133.604 51.7474C133.916 51.8306 134.171 51.9164 134.368 52.0048C134.571 52.088 134.745 52.2128 134.891 52.3792C135.037 52.5456 135.112 52.7666 135.117 53.0422C135.117 53.2866 135.05 53.505 134.914 53.6974C134.779 53.8898 134.587 54.0406 134.337 54.1498C134.093 54.259 133.804 54.3136 133.471 54.3136ZM136.082 52.0906C136.082 51.6486 136.17 51.2612 136.347 50.9284C136.529 50.5904 136.778 50.3304 137.096 50.1484C137.413 49.9664 137.777 49.8754 138.188 49.8754C138.708 49.8754 139.137 50.0002 139.475 50.2498C139.818 50.4942 140.049 50.8452 140.169 51.3028H139.209C139.131 51.0896 139.007 50.9232 138.835 50.8036C138.663 50.684 138.448 50.6242 138.188 50.6242C137.824 50.6242 137.532 50.7542 137.314 51.0142C137.101 51.269 136.994 51.6278 136.994 52.0906C136.994 52.5534 137.101 52.9148 137.314 53.1748C137.532 53.4348 137.824 53.5648 138.188 53.5648C138.702 53.5648 139.043 53.3386 139.209 52.8862H140.169C140.044 53.323 139.81 53.6714 139.467 53.9314C139.124 54.1862 138.697 54.3136 138.188 54.3136C137.777 54.3136 137.413 54.2226 137.096 54.0406C136.778 53.8534 136.529 53.5934 136.347 53.2606C136.17 52.9226 136.082 52.5326 136.082 52.0906ZM143.578 49.8754C143.906 49.8754 144.197 49.9456 144.452 50.086C144.712 50.2264 144.914 50.4344 145.06 50.71C145.211 50.9856 145.286 51.3184 145.286 51.7084V54.2434H144.405V51.841C144.405 51.4562 144.309 51.1624 144.116 50.9596C143.924 50.7516 143.661 50.6476 143.328 50.6476C142.996 50.6476 142.73 50.7516 142.533 50.9596C142.34 51.1624 142.244 51.4562 142.244 51.841V54.2434H141.355V48.4714H142.244V50.4448C142.395 50.2628 142.585 50.1224 142.814 50.0236C143.048 49.9248 143.302 49.8754 143.578 49.8754Z" fill="#273266"/>
<path d="M48.5152 76.9794C48.9712 76.9794 49.3712 76.8794 49.7152 76.6794C50.0592 76.4794 50.3312 76.1874 50.5312 75.8034H52.4512C52.1712 76.6594 51.6792 77.3274 50.9752 77.8074C50.2792 78.2794 49.4632 78.5154 48.5272 78.5154C47.5672 78.5154 46.7232 78.2594 45.9952 77.7474C45.2752 77.2274 44.7752 76.5354 44.4952 75.6714H43.4752V74.6754H44.3032C44.2872 74.4834 44.2792 74.3394 44.2792 74.2434C44.2792 74.1314 44.2872 73.9794 44.3032 73.7874H43.4752V72.7914H44.5072C44.7872 71.9274 45.2872 71.2394 46.0072 70.7274C46.7352 70.2154 47.5752 69.9594 48.5272 69.9594C49.4632 69.9594 50.2792 70.1994 50.9752 70.6794C51.6792 71.1594 52.1712 71.8234 52.4512 72.6714H50.5312C50.3312 72.2874 50.0592 71.9994 49.7152 71.8074C49.3712 71.6074 48.9712 71.5074 48.5152 71.5074C48.0272 71.5074 47.5912 71.6194 47.2072 71.8434C46.8312 72.0674 46.5392 72.3834 46.3312 72.7914H48.6352V73.7874H46.0312C46.0152 73.9794 46.0072 74.1314 46.0072 74.2434C46.0072 74.3394 46.0152 74.4834 46.0312 74.6754H48.6352V75.6714H46.3192C46.5272 76.0794 46.8232 76.3994 47.2072 76.6314C47.5912 76.8634 48.0272 76.9794 48.5152 76.9794ZM57.7445 73.8114C56.9445 73.3954 56.5445 72.7514 56.5445 71.8794C56.5445 71.4474 56.6525 71.0554 56.8685 70.7034C57.0925 70.3434 57.4245 70.0594 57.8645 69.8514C58.3125 69.6354 58.8565 69.5274 59.4965 69.5274C60.1365 69.5274 60.6765 69.6354 61.1165 69.8514C61.5645 70.0594 61.8965 70.3434 62.1125 70.7034C62.3365 71.0554 62.4485 71.4474 62.4485 71.8794C62.4485 72.3194 62.3405 72.7074 62.1245 73.0434C61.9085 73.3714 61.6205 73.6274 61.2605 73.8114C61.7005 74.0034 62.0445 74.2834 62.2925 74.6514C62.5405 75.0194 62.6645 75.4554 62.6645 75.9594C62.6645 76.5034 62.5245 76.9794 62.2445 77.3874C61.9725 77.7874 61.5965 78.0954 61.1165 78.3114C60.6365 78.5274 60.0965 78.6354 59.4965 78.6354C58.8965 78.6354 58.3565 78.5274 57.8765 78.3114C57.4045 78.0954 57.0285 77.7874 56.7485 77.3874C56.4765 76.9794 56.3405 76.5034 56.3405 75.9594C56.3405 75.4554 56.4645 75.0194 56.7125 74.6514C56.9605 74.2754 57.3045 73.9954 57.7445 73.8114ZM60.8165 72.1194C60.8165 71.7274 60.6965 71.4234 60.4565 71.2074C60.2245 70.9914 59.9045 70.8834 59.4965 70.8834C59.0965 70.8834 58.7765 70.9914 58.5365 71.2074C58.3045 71.4234 58.1885 71.7314 58.1885 72.1314C58.1885 72.4914 58.3085 72.7794 58.5485 72.9954C58.7965 73.2114 59.1125 73.3194 59.4965 73.3194C59.8805 73.3194 60.1965 73.2114 60.4445 72.9954C60.6925 72.7714 60.8165 72.4794 60.8165 72.1194ZM59.4965 74.5434C59.0405 74.5434 58.6685 74.6594 58.3805 74.8914C58.1005 75.1234 57.9605 75.4554 57.9605 75.8874C57.9605 76.2874 58.0965 76.6154 58.3685 76.8714C58.6485 77.1194 59.0245 77.2434 59.4965 77.2434C59.9685 77.2434 60.3405 77.1154 60.6125 76.8594C60.8845 76.6034 61.0205 76.2794 61.0205 75.8874C61.0205 75.4634 60.8805 75.1354 60.6005 74.9034C60.3205 74.6634 59.9525 74.5434 59.4965 74.5434ZM63.9914 73.9554C63.9914 72.5714 64.2394 71.4874 64.7354 70.7034C65.2394 69.9194 66.0714 69.5274 67.2314 69.5274C68.3914 69.5274 69.2194 69.9194 69.7154 70.7034C70.2194 71.4874 70.4714 72.5714 70.4714 73.9554C70.4714 75.3474 70.2194 76.4394 69.7154 77.2314C69.2194 78.0234 68.3914 78.4194 67.2314 78.4194C66.0714 78.4194 65.2394 78.0234 64.7354 77.2314C64.2394 76.4394 63.9914 75.3474 63.9914 73.9554ZM68.8154 73.9554C68.8154 73.3634 68.7754 72.8674 68.6954 72.4674C68.6234 72.0594 68.4714 71.7274 68.2394 71.4714C68.0154 71.2154 67.6794 71.0874 67.2314 71.0874C66.7834 71.0874 66.4434 71.2154 66.2114 71.4714C65.9874 71.7274 65.8354 72.0594 65.7554 72.4674C65.6834 72.8674 65.6474 73.3634 65.6474 73.9554C65.6474 74.5634 65.6834 75.0754 65.7554 75.4914C65.8274 75.8994 65.9794 76.2314 66.2114 76.4874C66.4434 76.7354 66.7834 76.8594 67.2314 76.8594C67.6794 76.8594 68.0194 76.7354 68.2514 76.4874C68.4834 76.2314 68.6354 75.8994 68.7074 75.4914C68.7794 75.0754 68.8154 74.5634 68.8154 73.9554ZM73.7773 76.6794L72.3733 80.0514H71.2933L72.0733 76.6794H73.7773ZM74.7961 73.9554C74.7961 72.5714 75.0441 71.4874 75.5401 70.7034C76.0441 69.9194 76.8761 69.5274 78.0361 69.5274C79.1961 69.5274 80.0241 69.9194 80.5201 70.7034C81.0241 71.4874 81.2761 72.5714 81.2761 73.9554C81.2761 75.3474 81.0241 76.4394 80.5201 77.2314C80.0241 78.0234 79.1961 78.4194 78.0361 78.4194C76.8761 78.4194 76.0441 78.0234 75.5401 77.2314C75.0441 76.4394 74.7961 75.3474 74.7961 73.9554ZM79.6201 73.9554C79.6201 73.3634 79.5801 72.8674 79.5001 72.4674C79.4281 72.0594 79.2761 71.7274 79.0441 71.4714C78.8201 71.2154 78.4841 71.0874 78.0361 71.0874C77.5881 71.0874 77.2481 71.2154 77.0161 71.4714C76.7921 71.7274 76.6401 72.0594 76.5601 72.4674C76.4881 72.8674 76.4521 73.3634 76.4521 73.9554C76.4521 74.5634 76.4881 75.0754 76.5601 75.4914C76.6321 75.8994 76.7841 76.2314 77.0161 76.4874C77.2481 76.7354 77.5881 76.8594 78.0361 76.8594C78.4841 76.8594 78.8241 76.7354 79.0561 76.4874C79.2881 76.2314 79.4401 75.8994 79.5121 75.4914C79.5841 75.0754 79.6201 74.5634 79.6201 73.9554ZM82.3499 71.2434V69.6954H85.2419V78.4434H83.5139V71.2434H82.3499Z" fill="#131313"/>
<defs>
<filter id="filter0_dd_3436_26211" x="0.827957" y="0.735858" width="268.344" height="136.344" filterUnits="userSpaceOnUse" color-interpolation-filters="sRGB">
<feFlood flood-opacity="0" result="BackgroundImageFix"/>
<feColorMatrix in="SourceAlpha" type="matrix" values="0 0 0 0 0 0 0 0 0 0 0 0 0 0 0 0 0 0 127 0" result="hardAlpha"/>
<feOffset dy="12.0645"/>
<feGaussianBlur stdDeviation="16.086"/>
<feColorMatrix type="matrix" values="0 0 0 0 0.654046 0 0 0 0 0.683294 0 0 0 0 0.786637 0 0 0 0.1 0"/>
<feBlend mode="multiply" in2="BackgroundImageFix" result="effect1_dropShadow_3436_26211"/>
<feColorMatrix in="SourceAlpha" type="matrix" values="0 0 0 0 0 0 0 0 0 0 0 0 0 0 0 0 0 0 127 0" result="hardAlpha"/>
<feOffset dy="8.04301"/>
<feGaussianBlur stdDeviation="11.0591"/>
<feColorMatrix type="matrix" values="0 0 0 0 0.45098 0 0 0 0 0.469804 0 0 0 0 0.568627 0 0 0 0.18 0"/>
<feBlend mode="normal" in2="effect1_dropShadow_3436_26211" result="effect2_dropShadow_3436_26211"/>
<feBlend mode="normal" in="SourceGraphic" in2="effect2_dropShadow_3436_26211" result="shape"/>
</filter>
</defs>
</svg>
