<svg width="227" height="252" viewBox="0 0 227 252" fill="none" xmlns="http://www.w3.org/2000/svg">
<g filter="url(#filter0_d_2318_22879)">
<rect x="34" y="14" width="159.637" height="183.98" rx="6.62992" fill="white"/>
<rect x="34.4144" y="14.4144" width="158.808" height="183.152" rx="6.21555" stroke="#DCDCE0" stroke-width="0.82874"/>
<rect width="144.003" height="108.002" transform="translate(41.8184 21.8173)" fill="#0047FF"/>
<rect width="144.003" height="108.002" transform="translate(41.8184 21.8173)" fill="url(#paint0_linear_2318_22879)"/>
<rect width="144.003" height="108.002" transform="translate(41.8184 21.8173)" fill="url(#paint1_linear_2318_22879)"/>
<g filter="url(#filter1_d_2318_22879)">
<rect x="180.164" y="20.2739" width="7.20012" height="7.20013" rx="3.60006" fill="#0E08FF"/>
<rect x="179.135" y="19.2453" width="9.2573" height="9.2573" rx="4.62865" stroke="white" stroke-width="2.05718"/>
</g>
<path d="M41.8164 140.446C41.8164 139.31 42.7374 138.389 43.8736 138.389L172.447 138.389C173.583 138.389 174.504 139.31 174.504 140.446C174.504 141.583 173.583 142.504 172.447 142.504L43.8736 142.504C42.7374 142.504 41.8164 141.583 41.8164 140.446Z" fill="url(#paint2_linear_2318_22879)"/>
<g filter="url(#filter2_d_2318_22879)">
<rect x="142.619" y="136.333" width="8.04983" height="8.22871" rx="4.02492" fill="#1708FF"/>
<rect x="143.648" y="137.362" width="5.99265" height="6.17154" rx="2.99633" stroke="white" stroke-width="2.05718"/>
</g>
<path fill-rule="evenodd" clip-rule="evenodd" d="M184.458 139.692C184.847 139.304 184.714 138.56 184.153 138C183.594 137.44 182.85 137.306 182.462 137.695C182.2 137.957 182.156 138.469 182.243 138.894L182.141 138.967L181.791 138.616C181.71 138.536 181.58 138.536 181.5 138.616C181.42 138.696 181.42 138.827 181.5 138.907L181.841 139.248L180.37 140.719L180.303 140.786L179.335 141.754C179.255 141.834 179.255 141.964 179.335 142.044L179.426 142.136L179.109 142.454C179.029 142.534 179.029 142.665 179.109 142.745L179.111 142.746L178.789 143.068C178.708 143.148 178.708 143.279 178.789 143.359C178.829 143.399 178.882 143.419 178.934 143.419C178.987 143.419 179.039 143.399 179.079 143.359L179.401 143.037L179.41 143.046C179.45 143.086 179.503 143.106 179.556 143.106C179.608 143.106 179.661 143.086 179.701 143.046L180.019 142.729L180.108 142.818C180.146 142.857 180.199 142.878 180.253 142.878C180.308 142.878 180.36 142.857 180.399 142.818L181.434 141.783C181.434 141.783 181.434 141.783 181.434 141.783L182.905 140.312L183.282 140.689C183.322 140.729 183.375 140.749 183.427 140.749C183.48 140.749 183.532 140.729 183.572 140.689C183.653 140.609 183.653 140.478 183.572 140.398L183.187 140.013L183.26 139.911C183.685 139.998 184.197 139.954 184.458 139.692ZM181.288 141.347L180.805 140.865L182.132 139.538L182.614 140.021L181.288 141.347ZM183.006 139.558L182.892 139.718L182.436 139.262L182.596 139.148C182.667 139.097 182.698 139.007 182.674 138.923C182.559 138.531 182.623 138.115 182.752 137.986C182.967 137.772 183.485 137.914 183.863 138.291C184.239 138.668 184.382 139.187 184.168 139.402C184.038 139.53 183.622 139.595 183.231 139.48C183.147 139.457 183.057 139.487 183.006 139.558Z" fill="#646F79"/>
<path d="M49.5639 157.845V161.805H48.8285V160.108H46.7806V161.805H46.0451V157.845H46.7806V159.48H48.8285V157.845H49.5639ZM53.338 161.189V161.805H50.3679V157.845H53.2588V158.462H51.1034V159.492H53.0155V160.097H51.1034V161.189H53.338ZM56.3513 161.805L55.2764 160.301L54.2129 161.805H53.3756L54.8465 159.786L53.4548 157.845H54.2864L55.2991 159.254L56.3004 157.845H57.0981L55.7121 159.757L57.1999 161.805H56.3513Z" fill="#134478"/>
<g clip-path="url(#clip0_2318_22879)">
<rect x="63.418" y="151.077" width="51.4295" height="16.4574" rx="1.54288" fill="white"/>
<rect x="69.5898" y="155.705" width="7.20012" height="7.20013" rx="3.60006" fill="#0E08FF"/>
<path d="M83.4118 158.317L83.2513 159.614H84.1807V160.102H83.1912L83.0441 161.305H82.5694L82.7165 160.102H81.4529L81.3058 161.305H80.8311L80.9782 160.102H80.0555V159.614H81.0383L81.2055 158.317H80.2695V157.829H81.2657L81.4127 156.625H81.8874L81.7403 157.829H82.9973L83.1444 156.625H83.6191L83.472 157.829H84.3946V158.317H83.4118ZM82.9371 158.317H81.6802L81.513 159.614H82.7767L82.9371 158.317ZM86.142 156.625V161.305H85.4801V157.207H84.4237V156.625H86.142ZM90.3698 156.625V157.08L88.4777 161.305H87.769L89.621 157.207H87.4815V158.043H86.8397V156.625H90.3698ZM92.5317 161.359C92.1617 161.359 91.8319 161.265 91.5422 161.078C91.2569 160.886 91.0318 160.61 90.8669 160.249C90.702 159.888 90.6195 159.46 90.6195 158.965C90.6195 158.471 90.702 158.043 90.8669 157.682C91.0318 157.321 91.2569 157.046 91.5422 156.859C91.8319 156.668 92.1617 156.572 92.5317 156.572C92.8972 156.572 93.2225 156.668 93.5078 156.859C93.7975 157.046 94.0248 157.321 94.1898 157.682C94.3547 158.043 94.4371 158.471 94.4371 158.965C94.4371 159.46 94.3547 159.888 94.1898 160.249C94.0248 160.61 93.7975 160.886 93.5078 161.078C93.2225 161.265 92.8972 161.359 92.5317 161.359ZM92.5317 160.764C92.9061 160.764 93.2047 160.61 93.4276 160.302C93.6549 159.995 93.7686 159.549 93.7686 158.965C93.7686 158.381 93.6549 157.936 93.4276 157.628C93.2047 157.321 92.9061 157.167 92.5317 157.167C92.1528 157.167 91.8497 157.321 91.6224 157.628C91.3995 157.936 91.2881 158.381 91.2881 158.965C91.2881 159.549 91.3995 159.995 91.6224 160.302C91.8497 160.61 92.1528 160.764 92.5317 160.764ZM97.7347 158.852C98.0022 158.954 98.2072 159.101 98.3498 159.293C98.4925 159.485 98.5638 159.714 98.5638 159.982C98.5638 160.262 98.488 160.508 98.3365 160.717C98.1849 160.922 97.9687 161.08 97.6879 161.192C97.4071 161.303 97.0773 161.359 96.6984 161.359C96.324 161.359 95.9964 161.303 95.7156 161.192C95.4393 161.08 95.2253 160.922 95.0738 160.717C94.9222 160.508 94.8465 160.262 94.8465 159.982C94.8465 159.714 94.9155 159.485 95.0537 159.293C95.1964 159.101 95.4014 158.954 95.6688 158.852C95.4549 158.749 95.2922 158.613 95.1808 158.444C95.0693 158.274 95.0136 158.074 95.0136 157.842C95.0136 157.584 95.0827 157.358 95.2209 157.167C95.3635 156.975 95.5618 156.828 95.8159 156.726C96.07 156.623 96.3641 156.572 96.6984 156.572C97.0372 156.572 97.3336 156.623 97.5877 156.726C97.8462 156.828 98.0445 156.975 98.1827 157.167C98.3253 157.358 98.3966 157.584 98.3966 157.842C98.3966 158.069 98.3387 158.27 98.2228 158.444C98.1114 158.613 97.9487 158.749 97.7347 158.852ZM96.6984 157.113C96.382 157.113 96.1324 157.182 95.9496 157.321C95.7669 157.454 95.6755 157.637 95.6755 157.869C95.6755 158.101 95.7646 158.283 95.9429 158.417C96.1257 158.551 96.3775 158.618 96.6984 158.618C97.0238 158.618 97.2779 158.551 97.4606 158.417C97.6478 158.283 97.7414 158.101 97.7414 157.869C97.7414 157.637 97.6456 157.454 97.4539 157.321C97.2667 157.182 97.0149 157.113 96.6984 157.113ZM96.6984 160.817C97.0684 160.817 97.3603 160.742 97.5743 160.59C97.7882 160.434 97.8952 160.224 97.8952 159.961C97.8952 159.703 97.7882 159.5 97.5743 159.353C97.3603 159.202 97.0684 159.126 96.6984 159.126C96.3285 159.126 96.0388 159.202 95.8293 159.353C95.6198 159.5 95.515 159.703 95.515 159.961C95.515 160.224 95.6198 160.434 95.8293 160.59C96.0388 160.742 96.3285 160.817 96.6984 160.817ZM100.02 157.207V158.838H102.367V159.413H100.02V161.305H99.3513V156.625H102.654V157.207H100.02ZM104.058 157.207V158.838H106.405V159.413H104.058V161.305H103.389V156.625H106.692V157.207H104.058Z" fill="#151B26"/>
</g>
<rect x="63.6751" y="151.334" width="50.9152" height="15.9431" rx="1.28574" stroke="#8FA2A5" stroke-width="0.514295"/>
<path d="M48.0726 184.434L47.2636 183.275C47.2297 183.278 47.1788 183.28 47.1109 183.28H46.2171V184.434H45.4816V180.474H47.1109C47.4541 180.474 47.7521 180.531 48.0047 180.644C48.2612 180.757 48.4573 180.919 48.5931 181.13C48.7289 181.342 48.7968 181.592 48.7968 181.883C48.7968 182.181 48.7232 182.437 48.5761 182.652C48.4328 182.867 48.2254 183.028 47.9538 183.133L48.8646 184.434H48.0726ZM48.0557 181.883C48.0557 181.63 47.9727 181.436 47.8067 181.3C47.6408 181.164 47.3975 181.097 47.077 181.097H46.2171V182.675H47.077C47.3975 182.675 47.6408 182.607 47.8067 182.471C47.9727 182.332 48.0557 182.136 48.0557 181.883ZM52.0666 182.409H52.7624V183.987C52.5588 184.15 52.3212 184.274 52.0496 184.361C51.7781 184.448 51.499 184.491 51.2123 184.491C50.8088 184.491 50.4448 184.404 50.1205 184.231C49.7962 184.053 49.5416 183.81 49.3568 183.501C49.172 183.192 49.0796 182.843 49.0796 182.454C49.0796 182.066 49.172 181.717 49.3568 181.408C49.5416 181.098 49.7962 180.857 50.1205 180.684C50.4486 180.506 50.8163 180.418 51.2237 180.418C51.5556 180.418 51.8573 180.472 52.1288 180.582C52.4004 180.691 52.6285 180.851 52.8133 181.063L52.3495 181.515C52.0477 181.213 51.6838 181.063 51.2576 181.063C50.9785 181.063 50.7296 181.121 50.5108 181.238C50.2959 181.355 50.1262 181.519 50.0017 181.73C49.881 181.941 49.8207 182.183 49.8207 182.454C49.8207 182.718 49.881 182.956 50.0017 183.167C50.1262 183.378 50.2959 183.544 50.5108 183.665C50.7296 183.786 50.9766 183.846 51.2519 183.846C51.5612 183.846 51.8328 183.778 52.0666 183.642V182.409ZM56.2813 182.375C56.5 182.447 56.6735 182.567 56.8017 182.737C56.93 182.903 56.9941 183.111 56.9941 183.359C56.9941 183.703 56.8621 183.969 56.5981 184.157C56.3341 184.342 55.9494 184.434 55.444 184.434H53.4753V180.474H55.3309C55.7985 180.474 56.1587 180.567 56.4114 180.751C56.6641 180.932 56.7904 181.183 56.7904 181.504C56.7904 181.7 56.7452 181.873 56.6546 182.024C56.5641 182.175 56.4397 182.292 56.2813 182.375ZM54.2107 181.051V182.143H55.2517C55.5081 182.143 55.7042 182.098 55.84 182.007C55.9796 181.913 56.0493 181.777 56.0493 181.6C56.0493 181.419 55.9796 181.283 55.84 181.193C55.7042 181.098 55.5081 181.051 55.2517 181.051H54.2107ZM55.3987 183.857C55.9682 183.857 56.253 183.667 56.253 183.286C56.253 182.905 55.9682 182.715 55.3987 182.715H54.2107V183.857H55.3987Z" fill="#134478"/>
<g clip-path="url(#clip1_2318_22879)">
<rect x="63.418" y="173.706" width="29.0576" height="16.4574" rx="1.54288" fill="white"/>
<path d="M73.2002 183.353V183.934H69.8372V183.48L71.7427 181.641C71.9745 181.418 72.1305 181.227 72.2107 181.066C72.2909 180.901 72.331 180.736 72.331 180.571C72.331 180.326 72.2441 180.137 72.0703 180.003C71.9009 179.865 71.6558 179.796 71.3348 179.796C70.8178 179.796 70.4189 179.965 70.1381 180.304L69.6834 179.909C69.8662 179.687 70.1047 179.513 70.3988 179.388C70.6975 179.263 71.0295 179.201 71.395 179.201C71.8853 179.201 72.2753 179.319 72.565 179.555C72.8548 179.787 72.9996 180.103 72.9996 180.504C72.9996 180.754 72.9461 180.99 72.8392 181.213C72.7322 181.436 72.5294 181.69 72.2307 181.975L70.8 183.353H73.2002ZM75.336 181.22C75.7951 181.264 76.145 181.407 76.3857 181.648C76.6263 181.884 76.7467 182.187 76.7467 182.557C76.7467 182.824 76.6798 183.067 76.5461 183.286C76.4124 183.5 76.2118 183.671 75.9444 183.801C75.6814 183.925 75.3583 183.988 74.9749 183.988C74.6407 183.988 74.3197 183.939 74.0122 183.841C73.7046 183.738 73.4528 183.598 73.2567 183.42L73.5642 182.891C73.7247 183.043 73.9297 183.165 74.1793 183.259C74.4289 183.348 74.6941 183.393 74.9749 183.393C75.3226 183.393 75.5923 183.319 75.7839 183.172C75.98 183.025 76.0781 182.822 76.0781 182.564C76.0781 182.305 75.9823 182.105 75.7906 181.962C75.599 181.819 75.3092 181.748 74.9215 181.748H74.547V181.28L75.7238 179.836H73.4706V179.254H76.5595V179.709L75.336 181.22Z" fill="#151B26"/>
</g>
<rect x="63.6751" y="173.963" width="28.5434" height="15.9431" rx="1.28574" stroke="#8FA2A5" stroke-width="0.514295"/>
<g clip-path="url(#clip2_2318_22879)">
<rect x="94.5332" y="173.706" width="29.0576" height="16.4574" rx="1.54288" fill="white"/>
<path d="M104.315 183.353V183.934H100.952V183.48L102.858 181.641C103.09 181.418 103.246 181.227 103.326 181.066C103.406 180.901 103.446 180.736 103.446 180.571C103.446 180.326 103.359 180.137 103.186 180.003C103.016 179.865 102.771 179.796 102.45 179.796C101.933 179.796 101.534 179.965 101.253 180.304L100.799 179.909C100.981 179.687 101.22 179.513 101.514 179.388C101.813 179.263 102.145 179.201 102.51 179.201C103.001 179.201 103.391 179.319 103.68 179.555C103.97 179.787 104.115 180.103 104.115 180.504C104.115 180.754 104.061 180.99 103.954 181.213C103.847 181.436 103.645 181.69 103.346 181.975L101.915 183.353H104.315ZM106.451 181.22C106.91 181.264 107.26 181.407 107.501 181.648C107.742 181.884 107.862 182.187 107.862 182.557C107.862 182.824 107.795 183.067 107.661 183.286C107.528 183.5 107.327 183.671 107.06 183.801C106.797 183.925 106.473 183.988 106.09 183.988C105.756 183.988 105.435 183.939 105.127 183.841C104.82 183.738 104.568 183.598 104.372 183.42L104.679 182.891C104.84 183.043 105.045 183.165 105.295 183.259C105.544 183.348 105.809 183.393 106.09 183.393C106.438 183.393 106.708 183.319 106.899 183.172C107.095 183.025 107.193 182.822 107.193 182.564C107.193 182.305 107.098 182.105 106.906 181.962C106.714 181.819 106.424 181.748 106.037 181.748H105.662V181.28L106.839 179.836H104.586V179.254H107.675V179.709L106.451 181.22Z" fill="#151B26"/>
</g>
<rect x="94.7904" y="173.963" width="28.5434" height="15.9431" rx="1.28574" stroke="#8FA2A5" stroke-width="0.514295"/>
<g clip-path="url(#clip3_2318_22879)">
<rect x="125.648" y="173.706" width="29.0576" height="16.4574" rx="1.54288" fill="white"/>
<path d="M135.431 183.353V183.934H132.068V183.48L133.973 181.641C134.205 181.418 134.361 181.227 134.441 181.066C134.521 180.901 134.562 180.736 134.562 180.571C134.562 180.326 134.475 180.137 134.301 180.003C134.131 179.865 133.886 179.796 133.565 179.796C133.048 179.796 132.649 179.965 132.369 180.304L131.914 179.909C132.097 179.687 132.335 179.513 132.629 179.388C132.928 179.263 133.26 179.201 133.625 179.201C134.116 179.201 134.506 179.319 134.796 179.555C135.085 179.787 135.23 180.103 135.23 180.504C135.23 180.754 135.177 180.99 135.07 181.213C134.963 181.436 134.76 181.69 134.461 181.975L133.03 183.353H135.431ZM137.566 181.22C138.026 181.264 138.375 181.407 138.616 181.648C138.857 181.884 138.977 182.187 138.977 182.557C138.977 182.824 138.91 183.067 138.777 183.286C138.643 183.5 138.442 183.671 138.175 183.801C137.912 183.925 137.589 183.988 137.205 183.988C136.871 183.988 136.55 183.939 136.243 183.841C135.935 183.738 135.683 183.598 135.487 183.42L135.795 182.891C135.955 183.043 136.16 183.165 136.41 183.259C136.659 183.348 136.925 183.393 137.205 183.393C137.553 183.393 137.823 183.319 138.014 183.172C138.211 183.025 138.309 182.822 138.309 182.564C138.309 182.305 138.213 182.105 138.021 181.962C137.829 181.819 137.54 181.748 137.152 181.748H136.778V181.28L137.954 179.836H135.701V179.254H138.79V179.709L137.566 181.22Z" fill="#151B26"/>
</g>
<rect x="125.906" y="173.963" width="28.5434" height="15.9431" rx="1.28574" stroke="#8FA2A5" stroke-width="0.514295"/>
<g clip-path="url(#clip4_2318_22879)">
<rect x="156.762" y="173.706" width="29.0576" height="16.4574" rx="1.54288" fill="white"/>
<path d="M164.705 179.254V183.934H164.043V179.836H162.987V179.254H164.705ZM167.435 183.988C167.066 183.988 166.736 183.894 166.446 183.707C166.161 183.515 165.936 183.239 165.771 182.878C165.606 182.517 165.523 182.089 165.523 181.594C165.523 181.1 165.606 180.672 165.771 180.311C165.936 179.95 166.161 179.675 166.446 179.488C166.736 179.297 167.066 179.201 167.435 179.201C167.801 179.201 168.126 179.297 168.412 179.488C168.701 179.675 168.929 179.95 169.094 180.311C169.258 180.672 169.341 181.1 169.341 181.594C169.341 182.089 169.258 182.517 169.094 182.878C168.929 183.239 168.701 183.515 168.412 183.707C168.126 183.894 167.801 183.988 167.435 183.988ZM167.435 183.393C167.81 183.393 168.109 183.239 168.331 182.931C168.559 182.624 168.672 182.178 168.672 181.594C168.672 181.01 168.559 180.565 168.331 180.257C168.109 179.95 167.81 179.796 167.435 179.796C167.057 179.796 166.754 179.95 166.526 180.257C166.303 180.565 166.192 181.01 166.192 181.594C166.192 182.178 166.303 182.624 166.526 182.931C166.754 183.239 167.057 183.393 167.435 183.393ZM171.689 183.988C171.319 183.988 170.989 183.894 170.7 183.707C170.414 183.515 170.189 183.239 170.024 182.878C169.859 182.517 169.777 182.089 169.777 181.594C169.777 181.1 169.859 180.672 170.024 180.311C170.189 179.95 170.414 179.675 170.7 179.488C170.989 179.297 171.319 179.201 171.689 179.201C172.055 179.201 172.38 179.297 172.665 179.488C172.955 179.675 173.182 179.95 173.347 180.311C173.512 180.672 173.595 181.1 173.595 181.594C173.595 182.089 173.512 182.517 173.347 182.878C173.182 183.239 172.955 183.515 172.665 183.707C172.38 183.894 172.055 183.988 171.689 183.988ZM171.689 183.393C172.064 183.393 172.362 183.239 172.585 182.931C172.812 182.624 172.926 182.178 172.926 181.594C172.926 181.01 172.812 180.565 172.585 180.257C172.362 179.95 172.064 179.796 171.689 179.796C171.31 179.796 171.007 179.95 170.78 180.257C170.557 180.565 170.446 181.01 170.446 181.594C170.446 182.178 170.557 182.624 170.78 182.931C171.007 183.239 171.31 183.393 171.689 183.393ZM175.047 181.768C174.722 181.768 174.459 181.65 174.258 181.414C174.057 181.178 173.957 180.87 173.957 180.491C173.957 180.112 174.057 179.805 174.258 179.568C174.459 179.332 174.722 179.214 175.047 179.214C175.372 179.214 175.633 179.332 175.829 179.568C176.03 179.8 176.13 180.108 176.13 180.491C176.13 180.874 176.03 181.184 175.829 181.42C175.633 181.652 175.372 181.768 175.047 181.768ZM177.868 179.254H178.383L175.187 183.934H174.673L177.868 179.254ZM175.047 181.387C175.252 181.387 175.412 181.309 175.528 181.153C175.644 180.993 175.702 180.772 175.702 180.491C175.702 180.21 175.644 179.992 175.528 179.836C175.412 179.675 175.252 179.595 175.047 179.595C174.846 179.595 174.686 179.675 174.566 179.836C174.45 179.996 174.392 180.215 174.392 180.491C174.392 180.767 174.45 180.986 174.566 181.146C174.686 181.307 174.846 181.387 175.047 181.387ZM178.009 183.974C177.683 183.974 177.42 183.859 177.22 183.627C177.024 183.391 176.926 183.081 176.926 182.697C176.926 182.314 177.024 182.007 177.22 181.775C177.42 181.539 177.683 181.42 178.009 181.42C178.334 181.42 178.597 181.539 178.798 181.775C178.998 182.011 179.099 182.319 179.099 182.697C179.099 183.076 178.998 183.384 178.798 183.62C178.597 183.856 178.334 183.974 178.009 183.974ZM178.009 183.593C178.209 183.593 178.368 183.513 178.483 183.353C178.604 183.192 178.664 182.974 178.664 182.697C178.664 182.421 178.604 182.203 178.483 182.042C178.368 181.882 178.209 181.802 178.009 181.802C177.804 181.802 177.643 181.882 177.527 182.042C177.411 182.198 177.354 182.417 177.354 182.697C177.354 182.978 177.411 183.199 177.527 183.359C177.643 183.515 177.804 183.593 178.009 183.593Z" fill="#151B26"/>
</g>
<rect x="157.019" y="173.963" width="28.5434" height="15.9431" rx="1.28574" stroke="#8FA2A5" stroke-width="0.514295"/>
</g>
<defs>
<filter id="filter0_d_2318_22879" x="0.850395" y="0.740158" width="225.936" height="250.28" filterUnits="userSpaceOnUse" color-interpolation-filters="sRGB">
<feFlood flood-opacity="0" result="BackgroundImageFix"/>
<feColorMatrix in="SourceAlpha" type="matrix" values="0 0 0 0 0 0 0 0 0 0 0 0 0 0 0 0 0 0 127 0" result="hardAlpha"/>
<feOffset dy="19.8898"/>
<feGaussianBlur stdDeviation="16.5748"/>
<feColorMatrix type="matrix" values="0 0 0 0 0.882353 0 0 0 0 0.886275 0 0 0 0 0.909804 0 0 0 1 0"/>
<feBlend mode="multiply" in2="BackgroundImageFix" result="effect1_dropShadow_2318_22879"/>
<feBlend mode="normal" in="SourceGraphic" in2="effect1_dropShadow_2318_22879" result="shape"/>
</filter>
<filter id="filter1_d_2318_22879" x="175.536" y="16.6738" width="16.4574" height="16.4574" filterUnits="userSpaceOnUse" color-interpolation-filters="sRGB">
<feFlood flood-opacity="0" result="BackgroundImageFix"/>
<feColorMatrix in="SourceAlpha" type="matrix" values="0 0 0 0 0 0 0 0 0 0 0 0 0 0 0 0 0 0 127 0" result="hardAlpha"/>
<feOffset dy="1.02859"/>
<feGaussianBlur stdDeviation="1.28574"/>
<feColorMatrix type="matrix" values="0 0 0 0 0.0980392 0 0 0 0 0.152941 0 0 0 0 0.203922 0 0 0 0.11 0"/>
<feBlend mode="normal" in2="BackgroundImageFix" result="effect1_dropShadow_2318_22879"/>
<feBlend mode="normal" in="SourceGraphic" in2="effect1_dropShadow_2318_22879" result="shape"/>
</filter>
<filter id="filter2_d_2318_22879" x="141.591" y="135.819" width="10.108" height="10.2859" filterUnits="userSpaceOnUse" color-interpolation-filters="sRGB">
<feFlood flood-opacity="0" result="BackgroundImageFix"/>
<feColorMatrix in="SourceAlpha" type="matrix" values="0 0 0 0 0 0 0 0 0 0 0 0 0 0 0 0 0 0 127 0" result="hardAlpha"/>
<feOffset dy="0.514295"/>
<feGaussianBlur stdDeviation="0.514295"/>
<feColorMatrix type="matrix" values="0 0 0 0 0 0 0 0 0 0 0 0 0 0 0 0 0 0 0.15 0"/>
<feBlend mode="normal" in2="BackgroundImageFix" result="effect1_dropShadow_2318_22879"/>
<feBlend mode="normal" in="SourceGraphic" in2="effect1_dropShadow_2318_22879" result="shape"/>
</filter>
<linearGradient id="paint0_linear_2318_22879" x1="144.003" y1="54.0009" x2="0" y2="54.0009" gradientUnits="userSpaceOnUse">
<stop stop-color="white" stop-opacity="0"/>
<stop offset="1" stop-color="white"/>
</linearGradient>
<linearGradient id="paint1_linear_2318_22879" x1="72.0013" y1="108.002" x2="72.0013" y2="-1.02381e-06" gradientUnits="userSpaceOnUse">
<stop/>
<stop offset="1" stop-opacity="0"/>
</linearGradient>
<linearGradient id="paint2_linear_2318_22879" x1="174.504" y1="142.504" x2="41.8164" y2="142.504" gradientUnits="userSpaceOnUse">
<stop stop-color="#F00000"/>
<stop offset="0.046875" stop-color="#FF005E"/>
<stop offset="0.046975" stop-color="#FC0072"/>
<stop offset="0.0885417" stop-color="#EA00FA"/>
<stop offset="0.0886417" stop-color="#E000FB"/>
<stop offset="0.130208" stop-color="#9A00FF"/>
<stop offset="0.182292" stop-color="#3100FF"/>
<stop offset="0.182392" stop-color="#2D01FF"/>
<stop offset="0.234375" stop-color="#060CFF"/>
<stop offset="0.234475" stop-color="#0431FF"/>
<stop offset="0.28125" stop-color="#007CFF"/>
<stop offset="0.333333" stop-color="#008EFF"/>
<stop offset="0.385417" stop-color="#228BDE"/>
<stop offset="0.432292" stop-color="#00DBFF"/>
<stop offset="0.479167" stop-color="#00F5FF"/>
<stop offset="0.536458" stop-color="#00FFB5"/>
<stop offset="0.583333" stop-color="#00FF68"/>
<stop offset="0.640625" stop-color="#00FF22"/>
<stop offset="0.692708" stop-color="#2AFF00"/>
<stop offset="0.739583" stop-color="#ACFF00"/>
<stop offset="0.786458" stop-color="#F0F600"/>
<stop offset="0.833333" stop-color="#FFC300"/>
<stop offset="0.885417" stop-color="#FF8100"/>
<stop offset="0.947917" stop-color="#FF4F00"/>
<stop offset="1" stop-color="#FF0000"/>
</linearGradient>
<clipPath id="clip0_2318_22879">
<rect x="63.418" y="151.077" width="51.4295" height="16.4574" rx="1.54288" fill="white"/>
</clipPath>
<clipPath id="clip1_2318_22879">
<rect x="63.418" y="173.706" width="29.0576" height="16.4574" rx="1.54288" fill="white"/>
</clipPath>
<clipPath id="clip2_2318_22879">
<rect x="94.5332" y="173.706" width="29.0576" height="16.4574" rx="1.54288" fill="white"/>
</clipPath>
<clipPath id="clip3_2318_22879">
<rect x="125.648" y="173.706" width="29.0576" height="16.4574" rx="1.54288" fill="white"/>
</clipPath>
<clipPath id="clip4_2318_22879">
<rect x="156.762" y="173.706" width="29.0576" height="16.4574" rx="1.54288" fill="white"/>
</clipPath>
</defs>
</svg>
