<svg width="271" height="298" viewBox="0 0 271 298" fill="none" xmlns="http://www.w3.org/2000/svg">
<g id="File" filter="url(#filter0_dd_2318_28055)">
<path id="Vector" d="M98 67.6992V157.109C98 160.621 100.873 163.494 104.385 163.494H166.477C169.99 163.494 172.865 160.62 172.865 157.107V84.8328C172.865 82.8719 172.086 80.9913 170.699 79.6047L154.572 63.4772C153.185 62.0908 151.305 61.3118 149.344 61.3118H104.387C100.874 61.3118 98 64.1861 98 67.6992Z" fill="#39B924"/>
<path id="Vector_2" d="M154.574 63.4829C153.624 62.5332 152.442 61.8688 151.162 61.5442V82.3658L172.867 104.071V84.8382C172.867 82.8773 172.088 80.9968 170.701 79.6101L154.574 63.4829Z" fill="url(#paint0_linear_2318_28055)"/>
<path id="Vector_3" d="M172.638 83.0457C172.662 83.1483 172.684 83.2483 172.704 83.3447H153.139C151.754 83.3447 150.631 82.2217 150.631 80.8362V61.4347C150.784 61.462 150.944 61.4938 151.11 61.5305C152.568 61.8531 153.898 62.603 154.955 63.6591L170.513 79.2179C171.565 80.27 172.304 81.5961 172.638 83.0457Z" fill="#C0EF5E"/>
<g id="Table">
<g id="Group 48097989">
<path id="Vector_4" d="M113.033 131.352H132.913C133.706 131.352 134.349 130.754 134.349 130.018V124.508C134.349 123.771 133.706 123.174 132.913 123.174H113.033C112.24 123.174 111.598 123.771 111.598 124.508V130.018C111.598 130.754 112.24 131.352 113.033 131.352Z" fill="white"/>
<path id="Vector_5" d="M138.279 131.373H158.159C158.952 131.373 159.595 130.775 159.595 130.039V124.529C159.595 123.792 158.952 123.195 158.159 123.195H138.279C137.487 123.195 136.844 123.792 136.844 124.529V130.039C136.844 130.775 137.487 131.373 138.279 131.373Z" fill="white"/>
</g>
<g id="Group 48097990">
<path id="Vector_6" d="M112.824 118.596H132.704C133.497 118.596 134.14 117.999 134.14 117.262V111.752C134.14 111.015 133.497 110.418 132.704 110.418H112.824C112.031 110.418 111.389 111.015 111.389 111.752V117.262C111.389 117.999 112.031 118.596 112.824 118.596Z" fill="white"/>
<path id="Vector_7" d="M138.07 118.629H157.95C158.743 118.629 159.386 118.031 159.386 117.295V111.785C159.386 111.048 158.743 110.451 157.95 110.451H138.07C137.278 110.451 136.635 111.048 136.635 111.785V117.295C136.635 118.031 137.278 118.629 138.07 118.629Z" fill="white"/>
</g>
<g id="Group 48097991">
<path id="Vector_8" d="M112.82 105.813H132.7C133.493 105.813 134.136 105.215 134.136 104.479V98.9687C134.136 98.232 133.493 97.6347 132.7 97.6347H112.82C112.028 97.6347 111.385 98.232 111.385 98.9687V104.479C111.385 105.215 112.028 105.813 112.82 105.813Z" fill="white"/>
<path id="Vector_9" d="M138.066 105.845H157.946C158.739 105.845 159.382 105.248 159.382 104.511V99.0013C159.382 98.2646 158.739 97.6674 157.946 97.6674H138.066C137.274 97.6674 136.631 98.2646 136.631 99.0013V104.511C136.631 105.248 137.274 105.845 138.066 105.845Z" fill="white"/>
</g>
</g>
</g>
<defs>
<filter id="filter0_dd_2318_28055" x="0.222221" y="0.200657" width="270.423" height="297.738" filterUnits="userSpaceOnUse" color-interpolation-filters="sRGB">
<feFlood flood-opacity="0" result="BackgroundImageFix"/>
<feColorMatrix in="SourceAlpha" type="matrix" values="0 0 0 0 0 0 0 0 0 0 0 0 0 0 0 0 0 0 127 0" result="hardAlpha"/>
<feOffset dy="36.6667"/>
<feGaussianBlur stdDeviation="48.8889"/>
<feColorMatrix type="matrix" values="0 0 0 0 0.654046 0 0 0 0 0.683294 0 0 0 0 0.786637 0 0 0 0.1 0"/>
<feBlend mode="multiply" in2="BackgroundImageFix" result="effect1_dropShadow_2318_28055"/>
<feColorMatrix in="SourceAlpha" type="matrix" values="0 0 0 0 0 0 0 0 0 0 0 0 0 0 0 0 0 0 127 0" result="hardAlpha"/>
<feOffset dy="24.4444"/>
<feGaussianBlur stdDeviation="33.6111"/>
<feColorMatrix type="matrix" values="0 0 0 0 0.45098 0 0 0 0 0.469804 0 0 0 0 0.568627 0 0 0 0.18 0"/>
<feBlend mode="normal" in2="effect1_dropShadow_2318_28055" result="effect2_dropShadow_2318_28055"/>
<feBlend mode="normal" in="SourceGraphic" in2="effect2_dropShadow_2318_28055" result="shape"/>
</filter>
<linearGradient id="paint0_linear_2318_28055" x1="166.51" y1="96.1252" x2="158.797" y2="73.585" gradientUnits="userSpaceOnUse">
<stop stop-opacity="0"/>
<stop offset="1" stop-opacity="0.2"/>
</linearGradient>
</defs>
</svg>
