<?xml version="1.0" encoding="UTF-8" standalone="no"?>
<svg
   width="233.575"
   height="150.97099"
   viewBox="0 0 233.575 150.97099"
   fill="none"
   version="1.1"
   id="svg189"
   sodipodi:docname="aspects-1-1.svg"
   inkscape:version="1.1.2 (0a00cf5339, 2022-02-04)"
   xmlns:inkscape="http://www.inkscape.org/namespaces/inkscape"
   xmlns:sodipodi="http://sodipodi.sourceforge.net/DTD/sodipodi-0.dtd"
   xmlns="http://www.w3.org/2000/svg"
   xmlns:svg="http://www.w3.org/2000/svg">
  <sodipodi:namedview
     id="namedview191"
     pagecolor="#ffffff"
     bordercolor="#666666"
     borderopacity="1.0"
     inkscape:pageshadow="2"
     inkscape:pageopacity="0.0"
     inkscape:pagecheckerboard="0"
     showgrid="false"
     fit-margin-top="0"
     fit-margin-left="0"
     fit-margin-right="0"
     fit-margin-bottom="0"
     inkscape:zoom="1.2089337"
     inkscape:cx="66.174017"
     inkscape:cy="66.587604"
     inkscape:window-width="1920"
     inkscape:window-height="1017"
     inkscape:window-x="0"
     inkscape:window-y="0"
     inkscape:window-maximized="1"
     inkscape:current-layer="g56" />
  <g
     filter="url(#filter0_dd_2318_34146)"
     id="g56"
     transform="translate(-98.582001,-61.336201)">
    <g
       clip-path="url(#clip0_2318_34146)"
       id="g52">
      <g
         filter="url(#filter1_bi_2318_34146)"
         id="g16">
        <rect
           width="232.575"
           height="35.210499"
           transform="translate(99.082,61.8362)"
           fill="#ffffff"
           fill-opacity="0.75"
           id="rect2"
           x="0"
           y="0" />
        <g
           clip-path="url(#clip1_2318_34146)"
           id="g12">
          <path
             d="m 122.576,84.7457 h -11.787 c -0.326,0 -0.59,0.2639 -0.59,0.5898 0,0.3254 0.264,0.5893 0.59,0.5893 h 11.787 c 0.326,0 0.59,-0.2639 0.59,-0.5893 -10e-4,-0.3259 -0.264,-0.5898 -0.59,-0.5898 z"
             fill="#315efd"
             id="path4" />
          <path
             d="m 111.527,83.2131 c -0.326,0 -0.589,0.2639 -0.589,0.5896 0,0.3256 0.263,0.5898 0.589,0.5898 h 10.314 c 0.326,0 0.59,-0.2642 0.59,-0.5898 0,-0.3257 -0.264,-0.5896 -0.59,-0.5896 h -0.147 v -5.3047 h 0.147 c 0.163,0 0.295,-0.1319 0.295,-0.2945 0,-0.1626 -0.132,-0.2945 -0.295,-0.2945 h -10.314 c -0.163,0 -0.294,0.1319 -0.294,0.2945 0,0.1626 0.131,0.2945 0.294,0.2945 h 0.147 v 5.3044 z m 8.988,-5.3047 v 5.3044 h -1.768 v -5.3044 z m -2.947,0 v 5.3044 H 115.8 v -5.3044 z m -4.715,0 h 1.768 v 5.3044 h -1.768 z"
             fill="#315efd"
             id="path6" />
          <path
             d="m 110.789,76.7893 h 11.787 c 0.002,0 0.004,0 0.006,0 0.326,0 0.59,-0.2638 0.59,-0.5895 0,-0.2589 -0.167,-0.4783 -0.399,-0.5578 l -5.848,-2.6317 c -0.154,-0.069 -0.33,-0.069 -0.484,0 l -5.894,2.6521 c -0.254,0.1143 -0.393,0.3897 -0.335,0.6613 0.059,0.2716 0.299,0.4656 0.577,0.4656 z"
             fill="#315efd"
             id="path8" />
          <path
             d="m 116.333,75.1193 v -0.1969 h 0.555 l 0.03,-0.197 h -0.585 v -0.0333 c 0,-0.1588 0.064,-0.2567 0.335,-0.2567 0.111,0 0.237,0.011 0.394,0.0387 l 0.041,-0.2873 c -0.147,-0.0358 -0.297,-0.0533 -0.448,-0.0522 -0.485,0 -0.694,0.1821 -0.694,0.5188 v 0.072 h -0.211 v 0.197 h 0.211 v 0.1969 h -0.211 v 0.197 h 0.211 v 0.1376 c 0,0.3367 0.209,0.5189 0.694,0.5189 0.15,10e-4 0.3,-0.0166 0.447,-0.0525 l -0.04,-0.2872 c -0.158,0.0276 -0.283,0.0387 -0.394,0.0387 -0.271,0 -0.335,-0.0828 -0.335,-0.2788 v -0.0767 h 0.494 l 0.03,-0.197 z"
             fill="#ffffff"
             id="path10" />
        </g>
        <path
           d="m 136.69,81.2954 c 0,0.4003 -0.1,0.771 -0.3,1.112 -0.2,0.3335 -0.497,0.6041 -0.889,0.8117 -0.393,0.2001 -0.871,0.3002 -1.435,0.3002 -0.556,0 -1.052,-0.0927 -1.49,-0.278 -0.437,-0.1927 -0.789,-0.467 -1.056,-0.8228 -0.26,-0.3558 -0.408,-0.7709 -0.445,-1.2454 h 1.668 c 0.037,0.3188 0.163,0.5856 0.378,0.8006 0.222,0.2076 0.515,0.3113 0.879,0.3113 0.326,0 0.574,-0.0852 0.744,-0.2557 0.178,-0.1779 0.267,-0.404 0.267,-0.6783 0,-0.2446 -0.07,-0.4447 -0.211,-0.6004 -0.141,-0.1631 -0.319,-0.2928 -0.534,-0.3892 -0.215,-0.0963 -0.511,-0.2075 -0.889,-0.3335 -0.489,-0.1631 -0.89,-0.3225 -1.201,-0.4782 -0.311,-0.163 -0.578,-0.3965 -0.801,-0.7005 -0.215,-0.3039 -0.322,-0.7005 -0.322,-1.1897 0,-0.6746 0.241,-1.2046 0.723,-1.59 0.489,-0.3929 1.134,-0.5893 1.934,-0.5893 0.831,0 1.49,0.2001 1.98,0.6004 0.496,0.4003 0.778,0.934 0.845,1.6011 h -1.69 c -0.045,-0.2816 -0.164,-0.5114 -0.356,-0.6893 -0.193,-0.1854 -0.456,-0.278 -0.79,-0.278 -0.289,0 -0.522,0.0778 -0.7,0.2335 -0.178,0.1482 -0.267,0.3669 -0.267,0.656 0,0.2298 0.067,0.4225 0.2,0.5782 0.141,0.1483 0.315,0.2706 0.523,0.3669 0.215,0.0964 0.504,0.2039 0.867,0.3225 0.504,0.1779 0.912,0.3447 1.223,0.5003 0.319,0.1557 0.589,0.3892 0.812,0.7005 0.222,0.3114 0.333,0.7191 0.333,1.2231 z m 6.948,-1.1675 c 0,0.1557 -0.018,0.3336 -0.055,0.5338 h -4.515 c 0.023,0.5485 0.171,0.9525 0.445,1.2119 0.274,0.2595 0.615,0.3892 1.023,0.3892 0.363,0 0.664,-0.0889 0.901,-0.2668 0.244,-0.178 0.4,-0.4189 0.467,-0.7228 h 1.656 c -0.081,0.4299 -0.255,0.8154 -0.522,1.1564 -0.267,0.341 -0.612,0.6078 -1.034,0.8006 -0.415,0.1927 -0.879,0.2891 -1.39,0.2891 -0.601,0 -1.134,-0.126 -1.601,-0.3781 -0.467,-0.2594 -0.83,-0.6264 -1.09,-1.1008 -0.259,-0.4744 -0.389,-1.034 -0.389,-1.679 0,-0.6449 0.13,-1.2045 0.389,-1.6789 0.26,-0.4819 0.623,-0.8488 1.09,-1.1008 0.467,-0.2521 1,-0.3781 1.601,-0.3781 0.608,0 1.138,0.126 1.59,0.3781 0.46,0.252 0.812,0.6004 1.056,1.0452 0.252,0.4373 0.378,0.9377 0.378,1.501 z m -1.579,-0.1556 c 0.023,-0.5041 -0.111,-0.8858 -0.4,-1.1453 -0.282,-0.2594 -0.63,-0.3892 -1.045,-0.3892 -0.423,0 -0.778,0.1298 -1.068,0.3892 -0.289,0.2595 -0.448,0.6412 -0.478,1.1453 z m 4.26,-4.759 v 8.2281 h -1.568 v -8.2281 z m 7.211,4.9146 c 0,0.1557 -0.018,0.3336 -0.055,0.5338 h -4.515 c 0.023,0.5485 0.171,0.9525 0.445,1.2119 0.274,0.2595 0.615,0.3892 1.023,0.3892 0.363,0 0.664,-0.0889 0.901,-0.2668 0.244,-0.178 0.4,-0.4189 0.467,-0.7228 h 1.657 c -0.082,0.4299 -0.256,0.8154 -0.523,1.1564 -0.267,0.341 -0.612,0.6078 -1.034,0.8006 -0.415,0.1927 -0.879,0.2891 -1.39,0.2891 -0.6,0 -1.134,-0.126 -1.601,-0.3781 -0.467,-0.2594 -0.83,-0.6264 -1.09,-1.1008 -0.259,-0.4744 -0.389,-1.034 -0.389,-1.679 0,-0.6449 0.13,-1.2045 0.389,-1.6789 0.26,-0.4819 0.623,-0.8488 1.09,-1.1008 0.467,-0.2521 1.001,-0.3781 1.601,-0.3781 0.608,0 1.138,0.126 1.59,0.3781 0.46,0.252 0.812,0.6004 1.056,1.0452 0.252,0.4373 0.378,0.9377 0.378,1.501 z m -1.579,-0.1556 c 0.023,-0.5041 -0.111,-0.8858 -0.4,-1.1453 -0.281,-0.2594 -0.63,-0.3892 -1.045,-0.3892 -0.423,0 -0.778,0.1298 -1.067,0.3892 -0.29,0.2595 -0.449,0.6412 -0.479,1.1453 z m 5.461,-2.7687 c 0.793,0 1.453,0.215 1.979,0.6449 0.534,0.43 0.867,1.0156 1.001,1.7568 h -1.657 c -0.067,-0.3261 -0.219,-0.5819 -0.456,-0.7672 -0.237,-0.1927 -0.537,-0.2891 -0.9,-0.2891 -0.415,0 -0.764,0.1557 -1.046,0.467 -0.274,0.304 -0.411,0.7524 -0.411,1.3454 0,0.5931 0.137,1.0452 0.411,1.3566 0.282,0.3039 0.631,0.4559 1.046,0.4559 0.363,0 0.663,-0.0927 0.9,-0.278 0.237,-0.1928 0.389,-0.4522 0.456,-0.7784 h 1.657 c -0.134,0.7413 -0.467,1.3269 -1.001,1.7569 -0.526,0.4299 -1.186,0.6449 -1.979,0.6449 -0.6,0 -1.134,-0.126 -1.601,-0.3781 -0.467,-0.2594 -0.83,-0.6264 -1.09,-1.1008 -0.259,-0.4744 -0.389,-1.034 -0.389,-1.679 0,-0.6449 0.13,-1.2045 0.389,-1.6789 0.26,-0.4819 0.623,-0.8488 1.09,-1.1008 0.467,-0.2521 1.001,-0.3781 1.601,-0.3781 z m 7.385,4.8924 v 1.3454 h -0.823 c -0.689,0 -1.219,-0.1667 -1.59,-0.5003 -0.363,-0.3336 -0.545,-0.8896 -0.545,-1.6679 v -2.6686 h -0.856 v -1.3231 h 0.856 v -1.5234 h 1.568 v 1.5234 h 1.379 v 1.3231 h -1.379 v 2.6908 c 0,0.2966 0.06,0.5041 0.178,0.6227 0.119,0.1186 0.319,0.1779 0.601,0.1779 z m 6.921,-1.9681 c 0,0.1557 -0.018,0.3336 -0.055,0.5338 h -4.515 c 0.023,0.5485 0.171,0.9525 0.445,1.2119 0.274,0.2595 0.615,0.3892 1.023,0.3892 0.363,0 0.664,-0.0889 0.901,-0.2668 0.244,-0.178 0.4,-0.4189 0.467,-0.7228 h 1.657 c -0.082,0.4299 -0.256,0.8154 -0.523,1.1564 -0.267,0.341 -0.612,0.6078 -1.034,0.8006 -0.415,0.1927 -0.879,0.2891 -1.39,0.2891 -0.6,0 -1.134,-0.126 -1.601,-0.3781 -0.467,-0.2594 -0.83,-0.6264 -1.09,-1.1008 -0.259,-0.4744 -0.389,-1.034 -0.389,-1.679 0,-0.6449 0.13,-1.2045 0.389,-1.6789 0.26,-0.4819 0.623,-0.8488 1.09,-1.1008 0.467,-0.2521 1.001,-0.3781 1.601,-0.3781 0.608,0 1.138,0.126 1.59,0.3781 0.46,0.252 0.812,0.6004 1.056,1.0452 0.252,0.4373 0.378,0.9377 0.378,1.501 z m -1.579,-0.1556 c 0.023,-0.5041 -0.111,-0.8858 -0.4,-1.1453 -0.281,-0.2594 -0.63,-0.3892 -1.045,-0.3892 -0.423,0 -0.778,0.1298 -1.067,0.3892 -0.29,0.2595 -0.449,0.6412 -0.479,1.1453 z m 8.485,0.1556 c 0,0.1557 -0.018,0.3336 -0.055,0.5338 h -4.515 c 0.023,0.5485 0.171,0.9525 0.445,1.2119 0.274,0.2595 0.615,0.3892 1.023,0.3892 0.363,0 0.664,-0.0889 0.901,-0.2668 0.244,-0.178 0.4,-0.4189 0.467,-0.7228 h 1.657 c -0.082,0.4299 -0.256,0.8154 -0.523,1.1564 -0.267,0.341 -0.612,0.6078 -1.034,0.8006 -0.415,0.1927 -0.879,0.2891 -1.39,0.2891 -0.6,0 -1.134,-0.126 -1.601,-0.3781 -0.467,-0.2594 -0.83,-0.6264 -1.09,-1.1008 -0.259,-0.4744 -0.389,-1.034 -0.389,-1.679 0,-0.6449 0.13,-1.2045 0.389,-1.6789 0.26,-0.4819 0.623,-0.8488 1.09,-1.1008 0.467,-0.2521 1.001,-0.3781 1.601,-0.3781 0.608,0 1.138,0.126 1.59,0.3781 0.46,0.252 0.812,0.6004 1.056,1.0452 0.252,0.4373 0.378,0.9377 0.378,1.501 z m -1.579,-0.1556 c 0.023,-0.5041 -0.111,-0.8858 -0.4,-1.1453 -0.281,-0.2594 -0.63,-0.3892 -1.045,-0.3892 -0.423,0 -0.778,0.1298 -1.067,0.3892 -0.29,0.2595 -0.449,0.6412 -0.479,1.1453 z m 4.26,-1.5122 c 0.23,-0.3929 0.534,-0.7005 0.912,-0.9229 0.378,-0.2298 0.8,-0.3447 1.267,-0.3447 v 1.679 h -0.455 c -1.149,0 -1.724,0.5337 -1.724,1.6011 v 2.9688 h -1.568 v -6.1599 h 1.568 z m 9.149,-1.2565 c 0.519,0 0.986,0.126 1.401,0.3781 0.415,0.252 0.738,0.6189 0.967,1.1008 0.238,0.4744 0.356,1.034 0.356,1.6789 0,0.645 -0.118,1.2083 -0.356,1.6901 -0.229,0.4745 -0.552,0.8377 -0.967,1.0897 -0.415,0.2521 -0.882,0.3781 -1.401,0.3781 -0.519,0 -0.964,-0.1223 -1.334,-0.367 -0.363,-0.252 -0.623,-0.5856 -0.779,-1.0007 v 1.2898 h -1.567 v -8.2281 h 1.567 v 3.3468 c 0.156,-0.4151 0.416,-0.7449 0.779,-0.9896 0.37,-0.2446 0.815,-0.3669 1.334,-0.3669 z m -0.489,1.3677 c -0.475,0 -0.867,0.163 -1.179,0.4892 -0.304,0.3188 -0.456,0.7524 -0.456,1.3009 0,0.5412 0.152,0.9748 0.456,1.301 0.312,0.3187 0.704,0.4781 1.179,0.4781 0.489,0 0.882,-0.1557 1.178,-0.467 0.297,-0.3187 0.445,-0.7561 0.445,-1.3121 0,-0.5559 -0.148,-0.9933 -0.445,-1.312 -0.296,-0.3188 -0.689,-0.4781 -1.178,-0.4781 z m 6.736,-1.3677 c 0.518,0 0.963,0.1223 1.334,0.3669 0.371,0.2447 0.634,0.5745 0.789,0.9896 v -1.2786 h 1.557 v 6.1599 h -1.557 v -1.2898 c -0.155,0.4151 -0.418,0.7487 -0.789,1.0007 -0.371,0.2447 -0.816,0.367 -1.334,0.367 -0.519,0 -0.986,-0.126 -1.401,-0.3781 -0.416,-0.252 -0.742,-0.6152 -0.979,-1.0897 -0.23,-0.4818 -0.345,-1.0451 -0.345,-1.6901 0,-0.6449 0.115,-1.2045 0.345,-1.6789 0.237,-0.4819 0.563,-0.8488 0.979,-1.1008 0.415,-0.2521 0.882,-0.3781 1.401,-0.3781 z m 0.489,1.3677 c -0.489,0 -0.882,0.1593 -1.179,0.4781 -0.296,0.3187 -0.445,0.7561 -0.445,1.312 0,0.556 0.149,0.9934 0.445,1.3121 0.297,0.3113 0.69,0.467 1.179,0.467 0.474,0 0.863,-0.1594 1.167,-0.4781 0.312,-0.3262 0.467,-0.7598 0.467,-1.301 0,-0.5485 -0.155,-0.9821 -0.467,-1.3009 -0.304,-0.3262 -0.693,-0.4892 -1.167,-0.4892 z m 8.281,-1.3788 c 0.712,0 1.279,0.2335 1.701,0.7005 0.423,0.467 0.634,1.123 0.634,1.9681 v 3.5803 h -1.557 V 80.039 c 0,-0.4893 -0.126,-0.8673 -0.378,-1.1342 -0.252,-0.2742 -0.596,-0.4114 -1.034,-0.4114 -0.444,0 -0.8,0.1446 -1.067,0.4337 -0.267,0.2891 -0.4,0.7042 -0.4,1.2453 v 3.269 h -1.568 v -6.1599 h 1.568 v 1.2342 c 0.163,-0.4151 0.43,-0.7376 0.8,-0.9674 0.378,-0.2372 0.812,-0.3558 1.301,-0.3558 z m 7.317,6.2489 -2.035,-2.6908 v 2.6908 h -1.567 v -8.2281 h 1.567 v 4.6255 l 2.024,-2.5573 h 1.857 l -2.591,3.0688 2.658,3.0911 z m 4.242,-4.9813 c 0.229,-0.3929 0.533,-0.7005 0.911,-0.9229 0.378,-0.2298 0.801,-0.3447 1.268,-0.3447 v 1.679 h -0.456 c -1.149,0 -1.723,0.5337 -1.723,1.6011 v 2.9688 h -1.568 v -6.1599 h 1.568 z m 8.84,1.6678 c 0,0.1557 -0.019,0.3336 -0.056,0.5338 H 221.3 c 0.022,0.5485 0.17,0.9525 0.445,1.2119 0.274,0.2595 0.615,0.3892 1.023,0.3892 0.363,0 0.663,-0.0889 0.9,-0.2668 0.245,-0.178 0.4,-0.4189 0.467,-0.7228 h 1.657 c -0.082,0.4299 -0.256,0.8154 -0.523,1.1564 -0.267,0.341 -0.611,0.6078 -1.034,0.8006 -0.415,0.1927 -0.878,0.2891 -1.39,0.2891 -0.6,0 -1.134,-0.126 -1.601,-0.3781 -0.467,-0.2594 -0.83,-0.6264 -1.089,-1.1008 -0.26,-0.4744 -0.39,-1.034 -0.39,-1.679 0,-0.6449 0.13,-1.2045 0.39,-1.6789 0.259,-0.4819 0.622,-0.8488 1.089,-1.1008 0.467,-0.2521 1.001,-0.3781 1.601,-0.3781 0.608,0 1.138,0.126 1.59,0.3781 0.46,0.252 0.812,0.6004 1.057,1.0452 0.252,0.4373 0.378,0.9377 0.378,1.501 z m -1.579,-0.1556 c 0.022,-0.5041 -0.111,-0.8858 -0.4,-1.1453 -0.282,-0.2594 -0.631,-0.3892 -1.046,-0.3892 -0.422,0 -0.778,0.1298 -1.067,0.3892 -0.289,0.2595 -0.449,0.6412 -0.478,1.1453 z m 6.294,3.4691 -2.035,-2.6908 v 2.6908 h -1.567 v -8.2281 h 1.567 v 4.6255 l 2.024,-2.5573 h 1.857 l -2.591,3.0688 2.658,3.0911 z m 8.467,-3.3135 c 0,0.1557 -0.019,0.3336 -0.056,0.5338 h -4.514 c 0.022,0.5485 0.171,0.9525 0.445,1.2119 0.274,0.2595 0.615,0.3892 1.023,0.3892 0.363,0 0.663,-0.0889 0.9,-0.2668 0.245,-0.178 0.401,-0.4189 0.467,-0.7228 h 1.657 c -0.081,0.4299 -0.256,0.8154 -0.522,1.1564 -0.267,0.341 -0.612,0.6078 -1.035,0.8006 -0.415,0.1927 -0.878,0.2891 -1.389,0.2891 -0.601,0 -1.135,-0.126 -1.602,-0.3781 -0.467,-0.2594 -0.83,-0.6264 -1.089,-1.1008 -0.26,-0.4744 -0.389,-1.034 -0.389,-1.679 0,-0.6449 0.129,-1.2045 0.389,-1.6789 0.259,-0.4819 0.622,-0.8488 1.089,-1.1008 0.467,-0.2521 1.001,-0.3781 1.602,-0.3781 0.607,0 1.137,0.126 1.59,0.3781 0.459,0.252 0.811,0.6004 1.056,1.0452 0.252,0.4373 0.378,0.9377 0.378,1.501 z m -1.579,-0.1556 c 0.022,-0.5041 -0.111,-0.8858 -0.4,-1.1453 -0.282,-0.2594 -0.63,-0.3892 -1.045,-0.3892 -0.423,0 -0.779,0.1298 -1.068,0.3892 -0.289,0.2595 -0.448,0.6412 -0.478,1.1453 z m 6.361,-2.7798 c 0.712,0 1.279,0.2335 1.701,0.7005 0.423,0.467 0.634,1.123 0.634,1.9681 v 3.5803 h -1.556 V 80.039 c 0,-0.4893 -0.126,-0.8673 -0.378,-1.1342 -0.253,-0.2742 -0.597,-0.4114 -1.035,-0.4114 -0.444,0 -0.8,0.1446 -1.067,0.4337 -0.267,0.2891 -0.4,0.7042 -0.4,1.2453 v 3.269 h -1.568 v -6.1599 h 1.568 v 1.2342 c 0.163,-0.4151 0.43,-0.7376 0.8,-0.9674 0.378,-0.2372 0.812,-0.3558 1.301,-0.3558 z m 3.537,-1.679 c 0,-0.252 0.089,-0.4559 0.267,-0.6115 0.178,-0.1631 0.411,-0.2447 0.7,-0.2447 0.289,0 0.523,0.0816 0.701,0.2447 0.178,0.1556 0.267,0.3595 0.267,0.6115 0,0.2446 -0.089,0.4485 -0.267,0.6116 -0.178,0.1556 -0.412,0.2335 -0.701,0.2335 -0.289,0 -0.522,-0.0779 -0.7,-0.2335 -0.178,-0.1631 -0.267,-0.367 -0.267,-0.6116 z m 1.745,1.768 v 6.1599 h -1.567 v -6.1599 z m 5.088,-0.089 c 0.712,0 1.279,0.2335 1.701,0.7005 0.423,0.467 0.634,1.123 0.634,1.9681 v 3.5803 h -1.557 V 80.039 c 0,-0.4893 -0.126,-0.8673 -0.378,-1.1342 -0.252,-0.2742 -0.596,-0.4114 -1.034,-0.4114 -0.444,0 -0.8,0.1446 -1.067,0.4337 -0.267,0.2891 -0.4,0.7042 -0.4,1.2453 v 3.269 h -1.568 v -6.1599 h 1.568 v 1.2342 c 0.163,-0.4151 0.43,-0.7376 0.8,-0.9674 0.378,-0.2372 0.812,-0.3558 1.301,-0.3558 z m 6.127,0.0111 c 0.519,0 0.964,0.1223 1.335,0.3669 0.37,0.2447 0.634,0.5745 0.789,0.9896 v -1.2786 h 1.557 v 6.1822 c 0,0.5708 -0.115,1.0822 -0.345,1.5344 -0.222,0.4596 -0.56,0.8191 -1.012,1.0786 -0.444,0.2594 -0.986,0.3891 -1.623,0.3891 -0.89,0 -1.609,-0.2112 -2.157,-0.6338 -0.549,-0.4225 -0.882,-0.997 -1.001,-1.7234 h 1.546 c 0.089,0.3113 0.259,0.5522 0.511,0.7227 0.26,0.1779 0.589,0.2669 0.99,0.2669 0.459,0 0.83,-0.1372 1.112,-0.4114 0.281,-0.2669 0.422,-0.6746 0.422,-1.2231 v -1.3121 c -0.155,0.4151 -0.419,0.7487 -0.789,1.0007 -0.371,0.2447 -0.816,0.367 -1.335,0.367 -0.518,0 -0.985,-0.126 -1.401,-0.3781 -0.415,-0.252 -0.741,-0.6152 -0.978,-1.0897 -0.23,-0.4818 -0.345,-1.0451 -0.345,-1.6901 0,-0.6449 0.115,-1.2045 0.345,-1.6789 0.237,-0.4819 0.563,-0.8488 0.978,-1.1008 0.416,-0.2521 0.883,-0.3781 1.401,-0.3781 z m 0.49,1.3677 c -0.49,0 -0.882,0.1593 -1.179,0.4781 -0.296,0.3187 -0.445,0.7561 -0.445,1.312 0,0.556 0.149,0.9934 0.445,1.3121 0.297,0.3113 0.689,0.467 1.179,0.467 0.474,0 0.863,-0.1594 1.167,-0.4781 0.312,-0.3262 0.467,-0.7598 0.467,-1.301 0,-0.5485 -0.155,-0.9821 -0.467,-1.3009 -0.304,-0.3262 -0.693,-0.4892 -1.167,-0.4892 z m 8.281,-1.3788 c 0.712,0 1.279,0.2335 1.701,0.7005 0.423,0.467 0.634,1.123 0.634,1.9681 v 3.5803 H 269.88 V 80.039 c 0,-0.4893 -0.126,-0.8673 -0.378,-1.1342 -0.252,-0.2742 -0.596,-0.4114 -1.034,-0.4114 -0.445,0 -0.8,0.1446 -1.067,0.4337 -0.267,0.2891 -0.401,0.7042 -0.401,1.2453 v 3.269 h -1.567 V 77.2815 H 267 v 1.2342 c 0.164,-0.4151 0.43,-0.7376 0.801,-0.9674 0.378,-0.2372 0.812,-0.3558 1.301,-0.3558 z m 9.608,0.089 v 6.1599 h -1.568 v -1.2453 c -0.163,0.4151 -0.434,0.7413 -0.812,0.9785 -0.371,0.2298 -0.8,0.3447 -1.29,0.3447 -0.711,0 -1.278,-0.2335 -1.701,-0.7005 -0.422,-0.467 -0.634,-1.1194 -0.634,-1.957 v -3.5803 h 1.557 v 3.4024 c 0,0.4892 0.126,0.871 0.378,1.1453 0.252,0.2668 0.593,0.4003 1.023,0.4003 0.452,0 0.812,-0.1446 1.078,-0.4337 0.267,-0.2891 0.401,-0.7042 0.401,-1.2453 v -3.269 z m 9.264,-0.089 c 0.749,0 1.338,0.2335 1.768,0.7005 0.437,0.4596 0.656,1.1156 0.656,1.9681 v 3.5803 h -1.557 V 80.039 c 0,-0.4744 -0.122,-0.8376 -0.367,-1.0897 -0.237,-0.2594 -0.567,-0.3892 -0.989,-0.3892 -0.438,0 -0.786,0.1372 -1.045,0.4115 -0.26,0.2742 -0.39,0.6745 -0.39,1.2008 v 3.269 h -1.556 V 80.039 c 0,-0.4744 -0.123,-0.8376 -0.367,-1.0897 -0.237,-0.2594 -0.567,-0.3892 -0.99,-0.3892 -0.437,0 -0.786,0.1372 -1.045,0.4115 -0.259,0.2742 -0.389,0.6745 -0.389,1.2008 v 3.269 h -1.568 v -6.1599 h 1.568 v 1.1675 c 0.163,-0.4003 0.419,-0.708 0.767,-0.9229 0.356,-0.2224 0.767,-0.3336 1.234,-0.3336 0.497,0 0.927,0.1186 1.29,0.3558 0.371,0.2372 0.649,0.5782 0.834,1.023 0.193,-0.4226 0.478,-0.7561 0.856,-1.0008 0.386,-0.252 0.816,-0.378 1.29,-0.378 z m 11.64,0 c 0.749,0 1.338,0.2335 1.768,0.7005 0.438,0.4596 0.656,1.1156 0.656,1.9681 v 3.5803 h -1.556 V 80.039 c 0,-0.4744 -0.123,-0.8376 -0.367,-1.0897 -0.237,-0.2594 -0.567,-0.3892 -0.99,-0.3892 -0.437,0 -0.786,0.1372 -1.045,0.4115 -0.26,0.2742 -0.389,0.6745 -0.389,1.2008 v 3.269 h -1.557 V 80.039 c 0,-0.4744 -0.122,-0.8376 -0.367,-1.0897 -0.237,-0.2594 -0.567,-0.3892 -0.989,-0.3892 -0.438,0 -0.786,0.1372 -1.046,0.4115 -0.259,0.2742 -0.389,0.6745 -0.389,1.2008 v 3.269 h -1.568 v -6.1599 h 1.568 v 1.1675 c 0.163,-0.4003 0.419,-0.708 0.767,-0.9229 0.356,-0.2224 0.768,-0.3336 1.235,-0.3336 0.496,0 0.926,0.1186 1.289,0.3558 0.371,0.2372 0.649,0.5782 0.834,1.023 0.193,-0.4226 0.478,-0.7561 0.857,-1.0008 0.385,-0.252 0.815,-0.378 1.289,-0.378 z m 9.595,2.9354 c 0,0.1557 -0.019,0.3336 -0.056,0.5338 h -4.514 c 0.022,0.5485 0.17,0.9525 0.445,1.2119 0.274,0.2595 0.615,0.3892 1.023,0.3892 0.363,0 0.663,-0.0889 0.9,-0.2668 0.245,-0.178 0.4,-0.4189 0.467,-0.7228 h 1.657 c -0.082,0.4299 -0.256,0.8154 -0.523,1.1564 -0.267,0.341 -0.611,0.6078 -1.034,0.8006 -0.415,0.1927 -0.878,0.2891 -1.39,0.2891 -0.6,0 -1.134,-0.126 -1.601,-0.3781 -0.467,-0.2594 -0.83,-0.6264 -1.089,-1.1008 -0.26,-0.4744 -0.39,-1.034 -0.39,-1.679 0,-0.6449 0.13,-1.2045 0.39,-1.6789 0.259,-0.4819 0.622,-0.8488 1.089,-1.1008 0.467,-0.2521 1.001,-0.3781 1.601,-0.3781 0.608,0 1.138,0.126 1.59,0.3781 0.46,0.252 0.812,0.6004 1.057,1.0452 0.252,0.4373 0.378,0.9377 0.378,1.501 z m -1.579,-0.1556 c 0.022,-0.5041 -0.111,-0.8858 -0.4,-1.1453 -0.282,-0.2594 -0.631,-0.3892 -1.046,-0.3892 -0.422,0 -0.778,0.1298 -1.067,0.3892 -0.289,0.2595 -0.449,0.6412 -0.478,1.1453 z m 4.26,-1.5122 c 0.229,-0.3929 0.533,-0.7005 0.911,-0.9229 0.378,-0.2298 0.801,-0.3447 1.268,-0.3447 v 1.679 h -0.456 c -1.149,0 -1.723,0.5337 -1.723,1.6011 v 2.9688 h -1.568 v -6.1599 h 1.568 z"
           fill="#2a2b2d"
           id="path14" />
      </g>
      <g
         filter="url(#filter2_i_2318_34146)"
         id="g50">
        <g
           filter="url(#filter3_bi_2318_34146)"
           id="g30">
          <rect
             width="232.575"
             height="62.549801"
             transform="translate(99.082,97.0466)"
             fill="#ffffff"
             fill-opacity="0.75"
             id="rect18"
             x="0"
             y="0" />
          <path
             d="m 112.155,108.431 v 6.735 h -1.345 v -6.735 z m 4.611,3.262 c 0.407,0.083 0.732,0.277 0.973,0.582 0.248,0.299 0.372,0.652 0.372,1.059 0,0.566 -0.19,1.015 -0.572,1.345 -0.375,0.325 -0.922,0.487 -1.641,0.487 h -2.89 v -6.735 h 2.833 c 0.68,0 1.202,0.149 1.564,0.448 0.369,0.299 0.554,0.719 0.554,1.259 0,0.42 -0.111,0.764 -0.334,1.031 -0.216,0.267 -0.503,0.442 -0.859,0.524 z m -2.413,-0.439 h 1.211 c 0.337,0 0.592,-0.073 0.764,-0.219 0.178,-0.153 0.267,-0.369 0.267,-0.649 0,-0.279 -0.086,-0.496 -0.258,-0.648 -0.172,-0.153 -0.436,-0.229 -0.792,-0.229 h -1.192 z m 1.278,2.815 c 0.356,0 0.63,-0.077 0.821,-0.229 0.19,-0.159 0.286,-0.388 0.286,-0.687 0,-0.299 -0.099,-0.528 -0.296,-0.687 -0.191,-0.165 -0.464,-0.248 -0.82,-0.248 h -1.269 v 1.851 z m 7.161,-0.258 h -2.7 l -0.477,1.355 h -1.421 l 2.48,-6.659 h 1.536 l 2.471,6.659 h -1.422 z m -0.363,-1.021 -0.992,-2.842 -0.992,2.842 z m 8.319,2.376 h -1.346 l -3.014,-4.579 v 4.579 h -1.345 v -6.735 h 1.345 l 3.014,4.617 v -4.617 h 1.346 z"
             fill="#7780a0"
             id="path20" />
          <rect
             x="110.199"
             y="120.725"
             width="210.336"
             height="27.7521"
             rx="4.3362598"
             fill="#ffffff"
             id="rect22" />
          <rect
             x="110.199"
             y="120.725"
             width="210.336"
             height="27.7521"
             rx="4.3362598"
             stroke="#e0e5f6"
             id="rect24" />
          <path
             d="m 124.88,136.482 c 0,0.391 -0.094,0.755 -0.282,1.093 -0.187,0.331 -0.473,0.598 -0.856,0.801 -0.384,0.203 -0.854,0.304 -1.41,0.304 -0.541,0 -1.026,-0.094 -1.454,-0.282 -0.429,-0.195 -0.77,-0.466 -1.026,-0.811 -0.256,-0.346 -0.402,-0.744 -0.44,-1.195 h 1.376 c 0.037,0.345 0.184,0.642 0.439,0.89 0.263,0.248 0.613,0.372 1.049,0.372 0.391,0 0.691,-0.105 0.902,-0.315 0.218,-0.211 0.327,-0.481 0.327,-0.812 0,-0.286 -0.079,-0.519 -0.237,-0.699 -0.158,-0.188 -0.353,-0.335 -0.586,-0.44 -0.233,-0.105 -0.553,-0.225 -0.959,-0.361 -0.496,-0.157 -0.901,-0.315 -1.217,-0.473 -0.308,-0.158 -0.571,-0.387 -0.789,-0.688 -0.218,-0.3 -0.327,-0.695 -0.327,-1.184 0,-0.428 0.105,-0.804 0.315,-1.127 0.211,-0.323 0.511,-0.571 0.902,-0.744 0.391,-0.181 0.842,-0.271 1.353,-0.271 0.812,0 1.455,0.196 1.928,0.586 0.481,0.391 0.756,0.902 0.823,1.534 h -1.387 c -0.052,-0.301 -0.195,-0.556 -0.428,-0.767 -0.225,-0.218 -0.537,-0.327 -0.936,-0.327 -0.361,0 -0.65,0.094 -0.868,0.282 -0.218,0.18 -0.327,0.444 -0.327,0.789 0,0.271 0.075,0.496 0.226,0.677 0.15,0.173 0.338,0.312 0.563,0.417 0.233,0.098 0.549,0.214 0.947,0.349 0.504,0.158 0.914,0.32 1.229,0.485 0.324,0.158 0.594,0.391 0.812,0.699 0.226,0.308 0.338,0.714 0.338,1.218 z m 6.695,-1.285 c 0,0.21 -0.015,0.394 -0.045,0.552 h -4.78 c 0.022,0.639 0.199,1.112 0.53,1.421 0.331,0.308 0.74,0.462 1.229,0.462 0.428,0 0.789,-0.109 1.082,-0.327 0.301,-0.218 0.485,-0.508 0.553,-0.868 h 1.375 c -0.083,0.436 -0.256,0.823 -0.519,1.161 -0.263,0.338 -0.605,0.605 -1.026,0.8 -0.421,0.188 -0.89,0.282 -1.409,0.282 -0.601,0 -1.135,-0.128 -1.601,-0.383 -0.458,-0.256 -0.819,-0.624 -1.082,-1.105 -0.263,-0.481 -0.395,-1.048 -0.395,-1.702 0,-0.647 0.132,-1.21 0.395,-1.691 0.263,-0.482 0.624,-0.85 1.082,-1.105 0.466,-0.256 1,-0.384 1.601,-0.384 0.609,0 1.139,0.128 1.59,0.384 0.458,0.248 0.808,0.593 1.048,1.037 0.248,0.436 0.372,0.924 0.372,1.466 z m -1.296,-0.034 c 0.015,-0.406 -0.057,-0.744 -0.214,-1.015 -0.151,-0.278 -0.361,-0.481 -0.632,-0.609 -0.263,-0.135 -0.552,-0.203 -0.868,-0.203 -0.503,0 -0.924,0.154 -1.263,0.463 -0.338,0.308 -0.522,0.762 -0.552,1.364 z m 3.459,-4.905 v 8.343 h -1.286 v -8.343 z m 6.963,4.939 c 0,0.21 -0.015,0.394 -0.045,0.552 h -4.78 c 0.022,0.639 0.199,1.112 0.53,1.421 0.33,0.308 0.74,0.462 1.229,0.462 0.428,0 0.789,-0.109 1.082,-0.327 0.301,-0.218 0.485,-0.508 0.552,-0.868 h 1.376 c -0.083,0.436 -0.256,0.823 -0.519,1.161 -0.263,0.338 -0.605,0.605 -1.026,0.8 -0.421,0.188 -0.89,0.282 -1.409,0.282 -0.601,0 -1.135,-0.128 -1.601,-0.383 -0.458,-0.256 -0.819,-0.624 -1.082,-1.105 -0.263,-0.481 -0.395,-1.048 -0.395,-1.702 0,-0.647 0.132,-1.21 0.395,-1.691 0.263,-0.482 0.624,-0.85 1.082,-1.105 0.466,-0.256 1,-0.384 1.601,-0.384 0.609,0 1.139,0.128 1.59,0.384 0.458,0.248 0.808,0.593 1.048,1.037 0.248,0.436 0.372,0.924 0.372,1.466 z m -1.296,-0.034 c 0.015,-0.406 -0.057,-0.744 -0.215,-1.015 -0.15,-0.278 -0.36,-0.481 -0.631,-0.609 -0.263,-0.135 -0.552,-0.203 -0.868,-0.203 -0.504,0 -0.925,0.154 -1.263,0.463 -0.338,0.308 -0.522,0.762 -0.552,1.364 z m 4.935,-2.853 c 0.805,0 1.47,0.215 1.996,0.643 0.526,0.421 0.853,0.996 0.981,1.725 h -1.364 c -0.076,-0.391 -0.26,-0.695 -0.553,-0.913 -0.285,-0.226 -0.646,-0.339 -1.082,-0.339 -0.496,0 -0.91,0.177 -1.24,0.53 -0.331,0.346 -0.496,0.857 -0.496,1.534 0,0.676 0.165,1.191 0.496,1.544 0.33,0.353 0.744,0.53 1.24,0.53 0.436,0 0.797,-0.113 1.082,-0.338 0.293,-0.226 0.477,-0.534 0.553,-0.925 h 1.364 c -0.128,0.729 -0.455,1.308 -0.981,1.737 -0.526,0.428 -1.191,0.642 -1.996,0.642 -0.601,0 -1.135,-0.128 -1.601,-0.383 -0.458,-0.256 -0.819,-0.624 -1.082,-1.105 -0.263,-0.481 -0.395,-1.048 -0.395,-1.702 0,-0.647 0.132,-1.21 0.395,-1.691 0.263,-0.482 0.624,-0.85 1.082,-1.105 0.466,-0.256 1,-0.384 1.601,-0.384 z m 6.977,5.175 v 1.116 h -0.789 c -0.661,0 -1.165,-0.157 -1.511,-0.473 -0.338,-0.323 -0.507,-0.857 -0.507,-1.601 v -3.044 h -0.891 v -1.094 h 0.891 v -1.544 h 1.297 v 1.544 h 1.499 v 1.094 h -1.499 v 3.066 c 0,0.354 0.064,0.598 0.191,0.733 0.136,0.136 0.369,0.203 0.699,0.203 z m 6.613,-2.288 c 0,0.21 -0.015,0.394 -0.045,0.552 h -4.781 c 0.023,0.639 0.2,1.112 0.53,1.421 0.331,0.308 0.741,0.462 1.229,0.462 0.429,0 0.789,-0.109 1.082,-0.327 0.301,-0.218 0.485,-0.508 0.553,-0.868 h 1.375 c -0.082,0.436 -0.255,0.823 -0.518,1.161 -0.263,0.338 -0.605,0.605 -1.026,0.8 -0.421,0.188 -0.891,0.282 -1.409,0.282 -0.602,0 -1.135,-0.128 -1.601,-0.383 -0.459,-0.256 -0.82,-0.624 -1.083,-1.105 -0.263,-0.481 -0.394,-1.048 -0.394,-1.702 0,-0.647 0.131,-1.21 0.394,-1.691 0.263,-0.482 0.624,-0.85 1.083,-1.105 0.466,-0.256 0.999,-0.384 1.601,-0.384 0.608,0 1.138,0.128 1.589,0.384 0.459,0.248 0.808,0.593 1.049,1.037 0.248,0.436 0.372,0.924 0.372,1.466 z m -1.297,-0.034 c 0.015,-0.406 -0.056,-0.744 -0.214,-1.015 -0.15,-0.278 -0.361,-0.481 -0.631,-0.609 -0.263,-0.135 -0.553,-0.203 -0.868,-0.203 -0.504,0 -0.925,0.154 -1.263,0.463 -0.338,0.308 -0.523,0.762 -0.553,1.364 z m 7.946,0.034 c 0,0.21 -0.015,0.394 -0.045,0.552 h -4.78 c 0.022,0.639 0.199,1.112 0.53,1.421 0.33,0.308 0.74,0.462 1.229,0.462 0.428,0 0.789,-0.109 1.082,-0.327 0.3,-0.218 0.485,-0.508 0.552,-0.868 h 1.376 c -0.083,0.436 -0.256,0.823 -0.519,1.161 -0.263,0.338 -0.605,0.605 -1.026,0.8 -0.421,0.188 -0.89,0.282 -1.409,0.282 -0.601,0 -1.135,-0.128 -1.601,-0.383 -0.459,-0.256 -0.819,-0.624 -1.082,-1.105 -0.263,-0.481 -0.395,-1.048 -0.395,-1.702 0,-0.647 0.132,-1.21 0.395,-1.691 0.263,-0.482 0.623,-0.85 1.082,-1.105 0.466,-0.256 1,-0.384 1.601,-0.384 0.609,0 1.139,0.128 1.59,0.384 0.458,0.248 0.808,0.593 1.048,1.037 0.248,0.436 0.372,0.924 0.372,1.466 z m -1.296,-0.034 c 0.015,-0.406 -0.057,-0.744 -0.215,-1.015 -0.15,-0.278 -0.36,-0.481 -0.631,-0.609 -0.263,-0.135 -0.552,-0.203 -0.868,-0.203 -0.504,0 -0.925,0.154 -1.263,0.463 -0.338,0.308 -0.522,0.762 -0.552,1.364 z m 3.458,-1.556 c 0.211,-0.406 0.511,-0.725 0.902,-0.958 0.391,-0.241 0.842,-0.361 1.353,-0.361 v 1.398 h -0.383 c -0.564,0 -1.019,0.139 -1.364,0.417 -0.339,0.27 -0.508,0.721 -0.508,1.353 v 3.145 h -1.285 v -6.212 h 1.285 z"
             fill="#7780a0"
             id="path26" />
          <path
             d="m 307.293,136.953 3.597,-4.165 c 0.068,-0.079 0.105,-0.169 0.107,-0.261 0.002,-0.092 -0.031,-0.183 -0.096,-0.263 -0.064,-0.08 -0.158,-0.147 -0.271,-0.193 -0.113,-0.047 -0.242,-0.071 -0.373,-0.071 h -7.193 c -0.131,0 -0.26,0.024 -0.373,0.07 -0.113,0.047 -0.207,0.114 -0.272,0.194 -0.064,0.08 -0.097,0.171 -0.095,0.263 0.002,0.092 0.039,0.182 0.107,0.261 l 3.597,4.165 c 0.066,0.076 0.159,0.139 0.269,0.183 0.111,0.044 0.236,0.067 0.364,0.067 0.127,0 0.252,-0.023 0.363,-0.067 0.111,-0.044 0.203,-0.107 0.269,-0.183 z"
             fill="#7780a0"
             id="path28" />
        </g>
        <g
           filter="url(#filter4_i_2318_34146)"
           id="g48">
          <rect
             width="232.575"
             height="52.210499"
             transform="translate(99.082,159.596)"
             fill="#f7f9fc"
             id="rect32"
             x="0"
             y="0" />
          <g
             filter="url(#filter5_d_2318_34146)"
             id="g38">
            <rect
               x="110.199"
               y="170.716"
               width="102.388"
               height="29.9723"
               rx="2.7797799"
               fill="#004d93"
               id="rect34" />
            <path
               d="m 135.987,185.154 c 0.474,0.097 0.853,0.323 1.134,0.679 0.289,0.348 0.434,0.759 0.434,1.234 0,0.66 -0.223,1.182 -0.667,1.568 -0.438,0.378 -1.075,0.567 -1.913,0.567 h -3.369 v -7.85 h 3.303 c 0.793,0 1.401,0.174 1.823,0.522 0.43,0.349 0.645,0.838 0.645,1.468 0,0.489 -0.13,0.889 -0.389,1.201 -0.252,0.311 -0.586,0.515 -1.001,0.611 z m -2.813,-0.511 h 1.412 c 0.393,0 0.689,-0.085 0.89,-0.256 0.207,-0.178 0.311,-0.43 0.311,-0.756 0,-0.326 -0.1,-0.578 -0.3,-0.756 -0.2,-0.178 -0.508,-0.267 -0.923,-0.267 h -1.39 z m 1.49,3.28 c 0.415,0 0.734,-0.089 0.956,-0.267 0.223,-0.185 0.334,-0.452 0.334,-0.8 0,-0.349 -0.115,-0.616 -0.345,-0.801 -0.222,-0.193 -0.541,-0.289 -0.956,-0.289 h -1.479 v 2.157 z m 9.552,-2.035 c 0,0.156 -0.019,0.334 -0.056,0.534 h -4.514 c 0.022,0.548 0.17,0.952 0.445,1.212 0.274,0.259 0.615,0.389 1.022,0.389 0.364,0 0.664,-0.089 0.901,-0.267 0.245,-0.178 0.4,-0.419 0.467,-0.723 h 1.657 c -0.082,0.43 -0.256,0.816 -0.523,1.157 -0.267,0.341 -0.611,0.608 -1.034,0.8 -0.415,0.193 -0.878,0.29 -1.39,0.29 -0.6,0 -1.134,-0.126 -1.601,-0.378 -0.467,-0.26 -0.83,-0.627 -1.09,-1.101 -0.259,-0.475 -0.389,-1.034 -0.389,-1.679 0,-0.645 0.13,-1.205 0.389,-1.679 0.26,-0.482 0.623,-0.849 1.09,-1.101 0.467,-0.252 1.001,-0.378 1.601,-0.378 0.608,0 1.138,0.126 1.59,0.378 0.46,0.252 0.812,0.6 1.057,1.045 0.252,0.437 0.378,0.938 0.378,1.501 z m -1.579,-0.155 c 0.022,-0.505 -0.111,-0.886 -0.401,-1.146 -0.281,-0.259 -0.63,-0.389 -1.045,-0.389 -0.422,0 -0.778,0.13 -1.067,0.389 -0.289,0.26 -0.449,0.641 -0.478,1.146 z m 5.141,1.901 1.556,-4.592 h 1.668 l -2.279,6.16 h -1.913 l -2.279,-6.16 h 1.679 z m 9.658,-1.746 c 0,0.156 -0.019,0.334 -0.056,0.534 h -4.514 c 0.022,0.548 0.171,0.952 0.445,1.212 0.274,0.259 0.615,0.389 1.023,0.389 0.363,0 0.663,-0.089 0.9,-0.267 0.245,-0.178 0.401,-0.419 0.467,-0.723 h 1.657 c -0.081,0.43 -0.256,0.816 -0.522,1.157 -0.267,0.341 -0.612,0.608 -1.034,0.8 -0.416,0.193 -0.879,0.29 -1.39,0.29 -0.601,0 -1.135,-0.126 -1.602,-0.378 -0.467,-0.26 -0.83,-0.627 -1.089,-1.101 -0.26,-0.475 -0.389,-1.034 -0.389,-1.679 0,-0.645 0.129,-1.205 0.389,-1.679 0.259,-0.482 0.622,-0.849 1.089,-1.101 0.467,-0.252 1.001,-0.378 1.602,-0.378 0.607,0 1.137,0.126 1.59,0.378 0.459,0.252 0.811,0.6 1.056,1.045 0.252,0.437 0.378,0.938 0.378,1.501 z m -1.579,-0.155 c 0.022,-0.505 -0.111,-0.886 -0.4,-1.146 -0.282,-0.259 -0.63,-0.389 -1.045,-0.389 -0.423,0 -0.779,0.13 -1.068,0.389 -0.289,0.26 -0.448,0.641 -0.478,1.146 z m 4.585,-2.769 c 0.749,0 1.349,0.189 1.801,0.567 0.453,0.378 0.734,0.882 0.845,1.512 h -1.467 c -0.06,-0.296 -0.193,-0.534 -0.401,-0.711 -0.207,-0.178 -0.478,-0.267 -0.811,-0.267 -0.267,0 -0.475,0.063 -0.623,0.189 -0.148,0.126 -0.222,0.296 -0.222,0.511 0,0.171 0.059,0.308 0.178,0.412 0.118,0.103 0.266,0.185 0.444,0.244 0.178,0.06 0.434,0.13 0.768,0.211 0.467,0.104 0.845,0.215 1.134,0.334 0.296,0.111 0.548,0.293 0.756,0.545 0.215,0.245 0.322,0.578 0.322,1.001 0,0.526 -0.207,0.952 -0.622,1.278 -0.408,0.326 -0.96,0.49 -1.657,0.49 -0.801,0 -1.442,-0.178 -1.924,-0.534 -0.482,-0.363 -0.774,-0.879 -0.878,-1.546 h 1.501 c 0.037,0.304 0.17,0.545 0.4,0.723 0.23,0.171 0.53,0.256 0.901,0.256 0.267,0 0.471,-0.063 0.611,-0.189 0.141,-0.134 0.212,-0.304 0.212,-0.512 0,-0.178 -0.063,-0.322 -0.189,-0.433 -0.119,-0.112 -0.271,-0.197 -0.456,-0.256 -0.178,-0.059 -0.434,-0.13 -0.768,-0.211 -0.459,-0.104 -0.833,-0.208 -1.123,-0.312 -0.281,-0.111 -0.526,-0.285 -0.733,-0.522 -0.201,-0.238 -0.301,-0.564 -0.301,-0.979 0,-0.534 0.204,-0.967 0.612,-1.301 0.408,-0.333 0.971,-0.5 1.69,-0.5 z m 6.952,4.892 v 1.346 h -0.822 c -0.69,0 -1.22,-0.167 -1.59,-0.501 -0.364,-0.333 -0.545,-0.889 -0.545,-1.668 v -2.668 h -0.856 v -1.323 h 0.856 v -1.524 h 1.568 v 1.524 h 1.378 v 1.323 h -1.378 v 2.691 c 0,0.296 0.059,0.504 0.177,0.622 0.119,0.119 0.319,0.178 0.601,0.178 z m 0.72,-6.582 c 0,-0.252 0.089,-0.456 0.267,-0.612 0.178,-0.163 0.411,-0.244 0.7,-0.244 0.289,0 0.523,0.081 0.701,0.244 0.178,0.156 0.267,0.36 0.267,0.612 0,0.244 -0.089,0.448 -0.267,0.611 -0.178,0.156 -0.412,0.234 -0.701,0.234 -0.289,0 -0.522,-0.078 -0.7,-0.234 -0.178,-0.163 -0.267,-0.367 -0.267,-0.611 z m 1.746,1.768 v 6.16 h -1.568 v -6.16 z m 3.6,-0.078 c 0.519,0 0.964,0.122 1.334,0.367 0.371,0.244 0.634,0.574 0.79,0.989 v -1.278 h 1.557 v 6.182 c 0,0.571 -0.115,1.082 -0.345,1.534 -0.222,0.46 -0.56,0.82 -1.012,1.079 -0.445,0.259 -0.986,0.389 -1.623,0.389 -0.89,0 -1.609,-0.211 -2.157,-0.634 -0.549,-0.422 -0.883,-0.997 -1.001,-1.723 h 1.545 c 0.089,0.311 0.26,0.552 0.512,0.723 0.259,0.178 0.589,0.266 0.989,0.266 0.46,0 0.831,-0.137 1.112,-0.411 0.282,-0.267 0.423,-0.674 0.423,-1.223 v -1.312 c -0.156,0.415 -0.419,0.749 -0.79,1.001 -0.37,0.244 -0.815,0.367 -1.334,0.367 -0.519,0 -0.986,-0.126 -1.401,-0.378 -0.415,-0.253 -0.741,-0.616 -0.978,-1.09 -0.23,-0.482 -0.345,-1.045 -0.345,-1.69 0,-0.645 0.115,-1.205 0.345,-1.679 0.237,-0.482 0.563,-0.849 0.978,-1.101 0.415,-0.252 0.882,-0.378 1.401,-0.378 z m 0.489,1.368 c -0.489,0 -0.882,0.159 -1.178,0.478 -0.297,0.318 -0.445,0.756 -0.445,1.312 0,0.556 0.148,0.993 0.445,1.312 0.296,0.311 0.689,0.467 1.178,0.467 0.475,0 0.864,-0.16 1.168,-0.478 0.311,-0.326 0.467,-0.76 0.467,-1.301 0,-0.549 -0.156,-0.982 -0.467,-1.301 -0.304,-0.326 -0.693,-0.489 -1.168,-0.489 z m 10.175,1.556 c 0,0.156 -0.019,0.334 -0.056,0.534 h -4.514 c 0.022,0.548 0.17,0.952 0.445,1.212 0.274,0.259 0.615,0.389 1.023,0.389 0.363,0 0.663,-0.089 0.9,-0.267 0.245,-0.178 0.4,-0.419 0.467,-0.723 h 1.657 c -0.082,0.43 -0.256,0.816 -0.523,1.157 -0.267,0.341 -0.611,0.608 -1.034,0.8 -0.415,0.193 -0.878,0.29 -1.39,0.29 -0.6,0 -1.134,-0.126 -1.601,-0.378 -0.467,-0.26 -0.83,-0.627 -1.089,-1.101 -0.26,-0.475 -0.39,-1.034 -0.39,-1.679 0,-0.645 0.13,-1.205 0.39,-1.679 0.259,-0.482 0.622,-0.849 1.089,-1.101 0.467,-0.252 1.001,-0.378 1.601,-0.378 0.608,0 1.138,0.126 1.59,0.378 0.46,0.252 0.812,0.6 1.057,1.045 0.252,0.437 0.378,0.938 0.378,1.501 z m -1.579,-0.155 c 0.022,-0.505 -0.111,-0.886 -0.4,-1.146 -0.282,-0.259 -0.63,-0.389 -1.046,-0.389 -0.422,0 -0.778,0.13 -1.067,0.389 -0.289,0.26 -0.449,0.641 -0.478,1.146 z m 6.13,-2.78 c 0.712,0 1.279,0.233 1.702,0.7 0.422,0.467 0.633,1.123 0.633,1.968 v 3.581 h -1.556 v -3.403 c 0,-0.489 -0.126,-0.867 -0.378,-1.134 -0.252,-0.274 -0.597,-0.411 -1.034,-0.411 -0.445,0 -0.801,0.144 -1.068,0.433 -0.267,0.289 -0.4,0.705 -0.4,1.246 v 3.269 h -1.568 v -6.16 h 1.568 v 1.234 c 0.163,-0.415 0.43,-0.738 0.8,-0.967 0.378,-0.238 0.812,-0.356 1.301,-0.356 z"
               fill="#ffffff"
               id="path36" />
          </g>
          <g
             filter="url(#filter6_d_2318_34146)"
             id="g46">
            <rect
               x="218.14799"
               y="170.716"
               width="102.388"
               height="29.9723"
               rx="2.7797799"
               fill="#ffffff"
               id="rect40" />
            <rect
               x="218.51801"
               y="171.08501"
               width="101.649"
               height="29.232901"
               rx="2.41008"
               stroke="#e3e4ea"
               stroke-width="0.739388"
               id="rect42" />
            <path
               d="m 246.337,187.623 h -3.147 l -0.556,1.579 h -1.657 l 2.891,-7.761 h 1.79 l 2.88,7.761 h -1.657 z m -0.423,-1.19 -1.156,-3.313 -1.157,3.313 z m 6.909,-3.48 c 0.712,0 1.279,0.233 1.701,0.7 0.423,0.467 0.634,1.123 0.634,1.968 v 3.581 h -1.557 v -3.403 c 0,-0.489 -0.126,-0.867 -0.378,-1.134 -0.252,-0.274 -0.596,-0.411 -1.034,-0.411 -0.445,0 -0.8,0.144 -1.067,0.433 -0.267,0.289 -0.401,0.705 -0.401,1.246 v 3.269 h -1.567 v -6.16 h 1.567 v 1.234 c 0.164,-0.415 0.43,-0.738 0.801,-0.967 0.378,-0.238 0.812,-0.356 1.301,-0.356 z m 7.153,0 c 0.712,0 1.279,0.233 1.701,0.7 0.423,0.467 0.634,1.123 0.634,1.968 v 3.581 h -1.557 v -3.403 c 0,-0.489 -0.126,-0.867 -0.378,-1.134 -0.252,-0.274 -0.596,-0.411 -1.034,-0.411 -0.444,0 -0.8,0.144 -1.067,0.433 -0.267,0.289 -0.4,0.705 -0.4,1.246 v 3.269 h -1.568 v -6.16 h 1.568 v 1.234 c 0.163,-0.415 0.429,-0.738 0.8,-0.967 0.378,-0.238 0.812,-0.356 1.301,-0.356 z m 9.377,0.089 v 6.16 h -1.568 v -1.246 c -0.163,0.415 -0.433,0.742 -0.812,0.979 -0.37,0.23 -0.8,0.345 -1.289,0.345 -0.712,0 -1.279,-0.234 -1.702,-0.701 -0.422,-0.467 -0.633,-1.119 -0.633,-1.957 v -3.58 h 1.556 v 3.402 c 0,0.489 0.126,0.871 0.378,1.145 0.252,0.267 0.593,0.401 1.023,0.401 0.453,0 0.812,-0.145 1.079,-0.434 0.267,-0.289 0.4,-0.704 0.4,-1.245 v -3.269 z m 2.763,-2.068 v 8.228 h -1.568 v -8.228 z m 6.98,4.914 c 0,0.156 -0.018,0.334 -0.055,0.534 h -4.515 c 0.023,0.548 0.171,0.952 0.445,1.212 0.274,0.259 0.615,0.389 1.023,0.389 0.363,0 0.663,-0.089 0.901,-0.267 0.244,-0.178 0.4,-0.419 0.467,-0.723 h 1.656 c -0.081,0.43 -0.255,0.816 -0.522,1.157 -0.267,0.341 -0.612,0.608 -1.034,0.8 -0.415,0.193 -0.879,0.29 -1.39,0.29 -0.601,0 -1.134,-0.126 -1.601,-0.378 -0.467,-0.26 -0.831,-0.627 -1.09,-1.101 -0.259,-0.475 -0.389,-1.034 -0.389,-1.679 0,-0.645 0.13,-1.205 0.389,-1.679 0.259,-0.482 0.623,-0.849 1.09,-1.101 0.467,-0.252 1,-0.378 1.601,-0.378 0.608,0 1.138,0.126 1.59,0.378 0.459,0.252 0.812,0.6 1.056,1.045 0.252,0.437 0.378,0.938 0.378,1.501 z m -1.579,-0.155 c 0.023,-0.505 -0.111,-0.886 -0.4,-1.146 -0.282,-0.259 -0.63,-0.389 -1.045,-0.389 -0.423,0 -0.778,0.13 -1.068,0.389 -0.289,0.26 -0.448,0.641 -0.478,1.146 z m 4.029,-1.513 c 0.23,-0.393 0.534,-0.7 0.912,-0.923 0.378,-0.229 0.801,-0.344 1.268,-0.344 v 1.679 h -0.456 c -1.149,0 -1.724,0.533 -1.724,1.601 v 2.969 h -1.567 v -6.16 h 1.567 z m 8.61,1.668 c 0,0.156 -0.019,0.334 -0.056,0.534 h -4.514 c 0.022,0.548 0.17,0.952 0.445,1.212 0.274,0.259 0.615,0.389 1.023,0.389 0.363,0 0.663,-0.089 0.9,-0.267 0.245,-0.178 0.4,-0.419 0.467,-0.723 h 1.657 c -0.082,0.43 -0.256,0.816 -0.523,1.157 -0.267,0.341 -0.611,0.608 -1.034,0.8 -0.415,0.193 -0.878,0.29 -1.39,0.29 -0.6,0 -1.134,-0.126 -1.601,-0.378 -0.467,-0.26 -0.83,-0.627 -1.089,-1.101 -0.26,-0.475 -0.39,-1.034 -0.39,-1.679 0,-0.645 0.13,-1.205 0.39,-1.679 0.259,-0.482 0.622,-0.849 1.089,-1.101 0.467,-0.252 1.001,-0.378 1.601,-0.378 0.608,0 1.138,0.126 1.59,0.378 0.46,0.252 0.812,0.6 1.057,1.045 0.252,0.437 0.378,0.938 0.378,1.501 z m -1.579,-0.155 c 0.022,-0.505 -0.111,-0.886 -0.4,-1.146 -0.282,-0.259 -0.631,-0.389 -1.046,-0.389 -0.422,0 -0.778,0.13 -1.067,0.389 -0.289,0.26 -0.449,0.641 -0.478,1.146 z m 6.13,-2.78 c 0.712,0 1.279,0.233 1.702,0.7 0.422,0.467 0.633,1.123 0.633,1.968 v 3.581 h -1.556 v -3.403 c 0,-0.489 -0.126,-0.867 -0.378,-1.134 -0.252,-0.274 -0.597,-0.411 -1.034,-0.411 -0.445,0 -0.801,0.144 -1.068,0.433 -0.267,0.289 -0.4,0.705 -0.4,1.246 v 3.269 h -1.568 v -6.16 h 1.568 v 1.234 c 0.163,-0.415 0.43,-0.738 0.8,-0.967 0.378,-0.238 0.812,-0.356 1.301,-0.356 z"
               fill="#2a2b2d"
               id="path44" />
          </g>
        </g>
      </g>
    </g>
    <rect
       x="99.082001"
       y="61.836201"
       width="232.575"
       height="149.97099"
       rx="8"
       stroke="#e1e2e8"
       id="rect54" />
  </g>
  <defs
     id="defs187">
    <filter
       id="filter0_dd_2318_34146"
       x="0.80425298"
       y="0.225071"
       width="429.13"
       height="346.526"
       filterUnits="userSpaceOnUse"
       color-interpolation-filters="sRGB">
      <feFlood
         flood-opacity="0"
         result="BackgroundImageFix"
         id="feFlood58" />
      <feColorMatrix
         in="SourceAlpha"
         type="matrix"
         values="0 0 0 0 0 0 0 0 0 0 0 0 0 0 0 0 0 0 127 0"
         result="hardAlpha"
         id="feColorMatrix60" />
      <feOffset
         dy="36.6667"
         id="feOffset62" />
      <feGaussianBlur
         stdDeviation="48.8889"
         id="feGaussianBlur64" />
      <feColorMatrix
         type="matrix"
         values="0 0 0 0 0.654046 0 0 0 0 0.683294 0 0 0 0 0.786637 0 0 0 0.1 0"
         id="feColorMatrix66" />
      <feBlend
         mode="multiply"
         in2="BackgroundImageFix"
         result="effect1_dropShadow_2318_34146"
         id="feBlend68" />
      <feColorMatrix
         in="SourceAlpha"
         type="matrix"
         values="0 0 0 0 0 0 0 0 0 0 0 0 0 0 0 0 0 0 127 0"
         result="hardAlpha"
         id="feColorMatrix70" />
      <feOffset
         dy="24.4444"
         id="feOffset72" />
      <feGaussianBlur
         stdDeviation="33.6111"
         id="feGaussianBlur74" />
      <feColorMatrix
         type="matrix"
         values="0 0 0 0 0.45098 0 0 0 0 0.469804 0 0 0 0 0.568627 0 0 0 0.18 0"
         id="feColorMatrix76" />
      <feBlend
         mode="normal"
         in2="effect1_dropShadow_2318_34146"
         result="effect2_dropShadow_2318_34146"
         id="feBlend78" />
      <feBlend
         mode="normal"
         in="SourceGraphic"
         in2="effect2_dropShadow_2318_34146"
         result="shape"
         id="feBlend80" />
    </filter>
    <filter
       id="filter1_bi_2318_34146"
       x="94.082001"
       y="56.836201"
       width="242.57401"
       height="45.210499"
       filterUnits="userSpaceOnUse"
       color-interpolation-filters="sRGB">
      <feFlood
         flood-opacity="0"
         result="BackgroundImageFix"
         id="feFlood83" />
      <feGaussianBlur
         in="BackgroundImageFix"
         stdDeviation="2.5"
         id="feGaussianBlur85" />
      <feComposite
         in2="SourceAlpha"
         operator="in"
         result="effect1_backgroundBlur_2318_34146"
         id="feComposite87" />
      <feBlend
         mode="normal"
         in="SourceGraphic"
         in2="effect1_backgroundBlur_2318_34146"
         result="shape"
         id="feBlend89" />
      <feColorMatrix
         in="SourceAlpha"
         type="matrix"
         values="0 0 0 0 0 0 0 0 0 0 0 0 0 0 0 0 0 0 127 0"
         result="hardAlpha"
         id="feColorMatrix91" />
      <feOffset
         dy="-0.926592"
         id="feOffset93" />
      <feComposite
         in2="hardAlpha"
         operator="arithmetic"
         k2="-1"
         k3="1"
         id="feComposite95"
         k1="0"
         k4="0" />
      <feColorMatrix
         type="matrix"
         values="0 0 0 0 0.831373 0 0 0 0 0.85098 0 0 0 0 0.866667 0 0 0 1 0"
         id="feColorMatrix97" />
      <feBlend
         mode="normal"
         in2="shape"
         result="effect2_innerShadow_2318_34146"
         id="feBlend99" />
    </filter>
    <filter
       id="filter2_i_2318_34146"
       x="99.082001"
       y="97.0466"
       width="232.57401"
       height="114.76"
       filterUnits="userSpaceOnUse"
       color-interpolation-filters="sRGB">
      <feFlood
         flood-opacity="0"
         result="BackgroundImageFix"
         id="feFlood102" />
      <feBlend
         mode="normal"
         in="SourceGraphic"
         in2="BackgroundImageFix"
         result="shape"
         id="feBlend104" />
      <feColorMatrix
         in="SourceAlpha"
         type="matrix"
         values="0 0 0 0 0 0 0 0 0 0 0 0 0 0 0 0 0 0 127 0"
         result="hardAlpha"
         id="feColorMatrix106" />
      <feOffset
         dy="-0.867252"
         id="feOffset108" />
      <feComposite
         in2="hardAlpha"
         operator="arithmetic"
         k2="-1"
         k3="1"
         id="feComposite110"
         k1="0"
         k4="0" />
      <feColorMatrix
         type="matrix"
         values="0 0 0 0 0.956863 0 0 0 0 0.956863 0 0 0 0 0.956863 0 0 0 1 0"
         id="feColorMatrix112" />
      <feBlend
         mode="normal"
         in2="shape"
         result="effect1_innerShadow_2318_34146"
         id="feBlend114" />
    </filter>
    <filter
       id="filter3_bi_2318_34146"
       x="94.082001"
       y="92.0466"
       width="242.57401"
       height="72.549896"
       filterUnits="userSpaceOnUse"
       color-interpolation-filters="sRGB">
      <feFlood
         flood-opacity="0"
         result="BackgroundImageFix"
         id="feFlood117" />
      <feGaussianBlur
         in="BackgroundImageFix"
         stdDeviation="2.5"
         id="feGaussianBlur119" />
      <feComposite
         in2="SourceAlpha"
         operator="in"
         result="effect1_backgroundBlur_2318_34146"
         id="feComposite121" />
      <feBlend
         mode="normal"
         in="SourceGraphic"
         in2="effect1_backgroundBlur_2318_34146"
         result="shape"
         id="feBlend123" />
      <feColorMatrix
         in="SourceAlpha"
         type="matrix"
         values="0 0 0 0 0 0 0 0 0 0 0 0 0 0 0 0 0 0 127 0"
         result="hardAlpha"
         id="feColorMatrix125" />
      <feOffset
         dy="-0.926592"
         id="feOffset127" />
      <feComposite
         in2="hardAlpha"
         operator="arithmetic"
         k2="-1"
         k3="1"
         id="feComposite129"
         k1="0"
         k4="0" />
      <feColorMatrix
         type="matrix"
         values="0 0 0 0 0.831373 0 0 0 0 0.85098 0 0 0 0 0.866667 0 0 0 1 0"
         id="feColorMatrix131" />
      <feBlend
         mode="normal"
         in2="shape"
         result="effect2_innerShadow_2318_34146"
         id="feBlend133" />
    </filter>
    <filter
       id="filter4_i_2318_34146"
       x="99.082001"
       y="159.59599"
       width="232.57401"
       height="52.210499"
       filterUnits="userSpaceOnUse"
       color-interpolation-filters="sRGB">
      <feFlood
         flood-opacity="0"
         result="BackgroundImageFix"
         id="feFlood136" />
      <feBlend
         mode="normal"
         in="SourceGraphic"
         in2="BackgroundImageFix"
         result="shape"
         id="feBlend138" />
      <feColorMatrix
         in="SourceAlpha"
         type="matrix"
         values="0 0 0 0 0 0 0 0 0 0 0 0 0 0 0 0 0 0 127 0"
         result="hardAlpha"
         id="feColorMatrix140" />
      <feOffset
         dy="-0.926592"
         id="feOffset142" />
      <feComposite
         in2="hardAlpha"
         operator="arithmetic"
         k2="-1"
         k3="1"
         id="feComposite144"
         k1="0"
         k4="0" />
      <feColorMatrix
         type="matrix"
         values="0 0 0 0 0.831373 0 0 0 0 0.85098 0 0 0 0 0.866667 0 0 0 1 0"
         id="feColorMatrix146" />
      <feBlend
         mode="normal"
         in2="shape"
         result="effect1_innerShadow_2318_34146"
         id="feBlend148" />
    </filter>
    <filter
       id="filter5_d_2318_34146"
       x="106.502"
       y="168.49699"
       width="109.781"
       height="37.366199"
       filterUnits="userSpaceOnUse"
       color-interpolation-filters="sRGB">
      <feFlood
         flood-opacity="0"
         result="BackgroundImageFix"
         id="feFlood151" />
      <feColorMatrix
         in="SourceAlpha"
         type="matrix"
         values="0 0 0 0 0 0 0 0 0 0 0 0 0 0 0 0 0 0 127 0"
         result="hardAlpha"
         id="feColorMatrix153" />
      <feOffset
         dy="1.47878"
         id="feOffset155" />
      <feGaussianBlur
         stdDeviation="1.84847"
         id="feGaussianBlur157" />
      <feColorMatrix
         type="matrix"
         values="0 0 0 0 0.0980392 0 0 0 0 0.152941 0 0 0 0 0.203922 0 0 0 0.11 0"
         id="feColorMatrix159" />
      <feBlend
         mode="normal"
         in2="BackgroundImageFix"
         result="effect1_dropShadow_2318_34146"
         id="feBlend161" />
      <feBlend
         mode="normal"
         in="SourceGraphic"
         in2="effect1_dropShadow_2318_34146"
         result="shape"
         id="feBlend163" />
    </filter>
    <filter
       id="filter6_d_2318_34146"
       x="214.451"
       y="168.49699"
       width="109.781"
       height="37.366199"
       filterUnits="userSpaceOnUse"
       color-interpolation-filters="sRGB">
      <feFlood
         flood-opacity="0"
         result="BackgroundImageFix"
         id="feFlood166" />
      <feColorMatrix
         in="SourceAlpha"
         type="matrix"
         values="0 0 0 0 0 0 0 0 0 0 0 0 0 0 0 0 0 0 127 0"
         result="hardAlpha"
         id="feColorMatrix168" />
      <feOffset
         dy="1.47878"
         id="feOffset170" />
      <feGaussianBlur
         stdDeviation="1.84847"
         id="feGaussianBlur172" />
      <feColorMatrix
         type="matrix"
         values="0 0 0 0 0.0980392 0 0 0 0 0.152941 0 0 0 0 0.203922 0 0 0 0.11 0"
         id="feColorMatrix174" />
      <feBlend
         mode="normal"
         in2="BackgroundImageFix"
         result="effect1_dropShadow_2318_34146"
         id="feBlend176" />
      <feBlend
         mode="normal"
         in="SourceGraphic"
         in2="effect1_dropShadow_2318_34146"
         result="shape"
         id="feBlend178" />
    </filter>
    <clipPath
       id="clip0_2318_34146">
      <rect
         x="99.082001"
         y="61.836201"
         width="232.575"
         height="149.97099"
         rx="8"
         fill="#ffffff"
         id="rect181" />
    </clipPath>
    <clipPath
       id="clip1_2318_34146">
      <rect
         width="12.9723"
         height="12.9723"
         fill="#ffffff"
         transform="translate(110.199,72.9553)"
         id="rect184"
         x="0"
         y="0" />
    </clipPath>
  </defs>
</svg>
