<svg width="291" height="239" viewBox="0 0 291 239" fill="none" xmlns="http://www.w3.org/2000/svg">
<g filter="url(#filter0_d_2321_26108)">
<g clip-path="url(#clip0_2321_26108)">
<g filter="url(#filter1_i_2321_26108)">
<rect width="210.318" height="26.0393" transform="translate(40.2812 17)" fill="white"/>
<path fill-rule="evenodd" clip-rule="evenodd" d="M48.041 30.0197C48.041 27.9465 49.7236 26.264 51.7967 26.264C53.8698 26.264 55.5524 27.9465 55.5524 30.0197C55.5524 32.0928 53.8698 33.7754 51.7967 33.7754C49.7236 33.7754 48.041 32.0928 48.041 30.0197ZM52.1723 30.3952H53.6745V29.6441H52.1723V28.1418H51.4211V29.6441H49.9189V30.3952H51.4211V31.8975H52.1723V30.3952Z" fill="#2A2B2D"/>
<path d="M64.2519 32.5197H63.199L60.8394 28.9354V32.5197H59.7865V27.2478H60.8394L63.199 30.8619V27.2478H64.2519V32.5197ZM65.0851 27.1955C65.0851 27.0263 65.1448 26.8894 65.2643 26.7849C65.3838 26.6753 65.5406 26.6206 65.7348 26.6206C65.9289 26.6206 66.0857 26.6753 66.2052 26.7849C66.3247 26.8894 66.3844 27.0263 66.3844 27.1955C66.3844 27.3598 66.3247 27.4967 66.2052 27.6062C66.0857 27.7108 65.9289 27.7631 65.7348 27.7631C65.5406 27.7631 65.3838 27.7108 65.2643 27.6062C65.1448 27.4967 65.0851 27.3598 65.0851 27.1955ZM66.2575 28.3828V32.5197H65.2046V28.3828H66.2575ZM71.1003 30.2944C71.1003 30.399 71.0879 30.5184 71.063 30.6529H68.0313C68.0463 31.0212 68.1458 31.2925 68.33 31.4668C68.5142 31.641 68.7432 31.7281 69.017 31.7281C69.2609 31.7281 69.4625 31.6684 69.6218 31.5489C69.7861 31.4294 69.8907 31.2677 69.9355 31.0636H71.0481C70.9933 31.3523 70.8763 31.6111 70.6971 31.8401C70.5179 32.0691 70.2864 32.2483 70.0027 32.3778C69.7239 32.5072 69.4128 32.5719 69.0693 32.5719C68.666 32.5719 68.3076 32.4873 67.994 32.318C67.6804 32.1438 67.4364 31.8974 67.2622 31.5788C67.088 31.2602 67.0008 30.8843 67.0008 30.4512C67.0008 30.0181 67.088 29.6423 67.2622 29.3237C67.4364 29.0001 67.6804 28.7537 67.994 28.5844C68.3076 28.4152 68.666 28.3306 69.0693 28.3306C69.4775 28.3306 69.8334 28.4152 70.1371 28.5844C70.4457 28.7537 70.6822 28.9877 70.8465 29.2864C71.0157 29.5801 71.1003 29.9161 71.1003 30.2944ZM70.04 30.1899C70.0549 29.8514 69.9653 29.595 69.7712 29.4208C69.582 29.2465 69.348 29.1594 69.0693 29.1594C68.7855 29.1594 68.5466 29.2465 68.3524 29.4208C68.1583 29.595 68.0512 29.8514 68.0313 30.1899H70.04ZM75.8054 28.3828V32.5197H74.7525V31.6833C74.643 31.9621 74.4613 32.1811 74.2074 32.3404C73.9585 32.4948 73.6697 32.5719 73.3412 32.5719C72.8633 32.5719 72.4825 32.4151 72.1987 32.1015C71.915 31.7879 71.7731 31.3498 71.7731 30.7873V28.3828H72.8185V30.6678C72.8185 30.9963 72.9031 31.2527 73.0724 31.4369C73.2416 31.6161 73.4706 31.7057 73.7594 31.7057C74.063 31.7057 74.3045 31.6087 74.4837 31.4145C74.6629 31.2204 74.7525 30.9416 74.7525 30.5782V28.3828H75.8054ZM82.6842 28.3828L81.5716 32.5197H80.4067L79.5181 29.5104L78.6071 32.5197H77.4422L76.3371 28.3828H77.3899L78.062 31.5788L78.9804 28.3828H80.093L81.019 31.5788L81.6985 28.3828H82.6842ZM87.0994 30.2944C87.0994 30.399 87.0869 30.5184 87.062 30.6529H84.0304C84.0453 31.0212 84.1449 31.2925 84.329 31.4668C84.5132 31.641 84.7422 31.7281 85.016 31.7281C85.26 31.7281 85.4616 31.6684 85.6209 31.5489C85.7851 31.4294 85.8897 31.2677 85.9345 31.0636H87.0471C86.9923 31.3523 86.8754 31.6111 86.6961 31.8401C86.5169 32.0691 86.2854 32.2483 86.0017 32.3778C85.7229 32.5072 85.4118 32.5719 85.0683 32.5719C84.6651 32.5719 84.3066 32.4873 83.993 32.318C83.6794 32.1438 83.4355 31.8974 83.2612 31.5788C83.087 31.2602 82.9999 30.8843 82.9999 30.4512C82.9999 30.0181 83.087 29.6423 83.2612 29.3237C83.4355 29.0001 83.6794 28.7537 83.993 28.5844C84.3066 28.4152 84.6651 28.3306 85.0683 28.3306C85.4765 28.3306 85.8324 28.4152 86.1361 28.5844C86.4447 28.7537 86.6812 28.9877 86.8455 29.2864C87.0147 29.5801 87.0994 29.9161 87.0994 30.2944ZM86.039 30.1899C86.054 29.8514 85.9644 29.595 85.7702 29.4208C85.581 29.2465 85.3471 29.1594 85.0683 29.1594C84.7845 29.1594 84.5456 29.2465 84.3514 29.4208C84.1573 29.595 84.0503 29.8514 84.0304 30.1899H86.039ZM91.2725 31.4668L92.3179 28.3828H93.438L91.9073 32.5197H90.6229L89.0921 28.3828H90.2197L91.2725 31.4668ZM95.9349 28.3306C96.3381 28.3306 96.699 28.4152 97.0176 28.5844C97.3412 28.7537 97.5951 29.0001 97.7793 29.3237C97.9635 29.6423 98.0555 30.0181 98.0555 30.4512C98.0555 30.8843 97.9635 31.2602 97.7793 31.5788C97.5951 31.8974 97.3412 32.1438 97.0176 32.318C96.699 32.4873 96.3381 32.5719 95.9349 32.5719C95.5316 32.5719 95.1682 32.4873 94.8447 32.318C94.5261 32.1438 94.2747 31.8974 94.0905 31.5788C93.9063 31.2602 93.8142 30.8843 93.8142 30.4512C93.8142 30.0181 93.9063 29.6423 94.0905 29.3237C94.2747 29.0001 94.5261 28.7537 94.8447 28.5844C95.1682 28.4152 95.5316 28.3306 95.9349 28.3306ZM95.9349 29.2416C95.6412 29.2416 95.3922 29.3461 95.1881 29.5552C94.984 29.7593 94.882 30.058 94.882 30.4512C94.882 30.8445 94.984 31.1457 95.1881 31.3548C95.3922 31.5589 95.6412 31.6609 95.9349 31.6609C96.2286 31.6609 96.4775 31.5589 96.6816 31.3548C96.8857 31.1457 96.9877 30.8445 96.9877 30.4512C96.9877 30.058 96.8857 29.7593 96.6816 29.5552C96.4775 29.3461 96.2286 29.2416 95.9349 29.2416ZM100.711 28.3306C101.114 28.3306 101.475 28.4152 101.794 28.5844C102.118 28.7537 102.371 29.0001 102.556 29.3237C102.74 29.6423 102.832 30.0181 102.832 30.4512C102.832 30.8843 102.74 31.2602 102.556 31.5788C102.371 31.8974 102.118 32.1438 101.794 32.318C101.475 32.4873 101.114 32.5719 100.711 32.5719C100.308 32.5719 99.9446 32.4873 99.621 32.318C99.3024 32.1438 99.051 31.8974 98.8668 31.5788C98.6827 31.2602 98.5906 30.8843 98.5906 30.4512C98.5906 30.0181 98.6827 29.6423 98.8668 29.3237C99.051 29.0001 99.3024 28.7537 99.621 28.5844C99.9446 28.4152 100.308 28.3306 100.711 28.3306ZM100.711 29.2416C100.418 29.2416 100.169 29.3461 99.9645 29.5552C99.7604 29.7593 99.6584 30.058 99.6584 30.4512C99.6584 30.8445 99.7604 31.1457 99.9645 31.3548C100.169 31.5589 100.418 31.6609 100.711 31.6609C101.005 31.6609 101.254 31.5589 101.458 31.3548C101.662 31.1457 101.764 30.8445 101.764 30.4512C101.764 30.058 101.662 29.7593 101.458 29.5552C101.254 29.3461 101.005 29.2416 100.711 29.2416ZM104.629 29.1744C104.783 28.9105 104.987 28.7039 105.241 28.5546C105.495 28.4003 105.779 28.3231 106.092 28.3231V29.4506H105.786C105.015 29.4506 104.629 29.8091 104.629 30.5259V32.5197H103.576V28.3828H104.629V29.1744ZM112.597 28.3828L111.484 32.5197H110.319L109.431 29.5104L108.52 32.5197H107.355L106.25 28.3828H107.302L107.974 31.5788L108.893 28.3828H110.006L110.931 31.5788L111.611 28.3828H112.597ZM114.742 28.3306C115.09 28.3306 115.389 28.4127 115.638 28.577C115.887 28.7413 116.064 28.9628 116.168 29.2416V28.3828H117.213V32.5197H116.168V31.6535C116.064 31.9322 115.887 32.1563 115.638 32.3255C115.389 32.4898 115.09 32.5719 114.742 32.5719C114.393 32.5719 114.08 32.4873 113.801 32.318C113.522 32.1488 113.303 31.9049 113.144 31.5863C112.99 31.2627 112.912 30.8843 112.912 30.4512C112.912 30.0181 112.99 29.6423 113.144 29.3237C113.303 29.0001 113.522 28.7537 113.801 28.5844C114.08 28.4152 114.393 28.3306 114.742 28.3306ZM115.07 29.249C114.742 29.249 114.478 29.3561 114.279 29.5701C114.08 29.7842 113.98 30.0779 113.98 30.4512C113.98 30.8246 114.08 31.1183 114.279 31.3324C114.478 31.5415 114.742 31.646 115.07 31.646C115.389 31.646 115.65 31.539 115.854 31.3249C116.064 31.1059 116.168 30.8146 116.168 30.4512C116.168 30.0829 116.064 29.7916 115.854 29.5776C115.65 29.3585 115.389 29.249 115.07 29.249ZM119.788 28.3306C120.137 28.3306 120.435 28.4127 120.684 28.577C120.933 28.7413 121.11 28.9628 121.214 29.2416V28.3828H122.26V32.5197H121.214V31.6535C121.11 31.9322 120.933 32.1563 120.684 32.3255C120.435 32.4898 120.137 32.5719 119.788 32.5719C119.44 32.5719 119.126 32.4873 118.847 32.318C118.568 32.1488 118.349 31.9049 118.19 31.5863C118.036 31.2627 117.959 30.8843 117.959 30.4512C117.959 30.0181 118.036 29.6423 118.19 29.3237C118.349 29.0001 118.568 28.7537 118.847 28.5844C119.126 28.4152 119.44 28.3306 119.788 28.3306ZM120.117 29.249C119.788 29.249 119.524 29.3561 119.325 29.5701C119.126 29.7842 119.026 30.0779 119.026 30.4512C119.026 30.8246 119.126 31.1183 119.325 31.3324C119.524 31.5415 119.788 31.646 120.117 31.646C120.435 31.646 120.697 31.539 120.901 31.3249C121.11 31.1059 121.214 30.8146 121.214 30.4512C121.214 30.0829 121.11 29.7916 120.901 29.5776C120.697 29.3585 120.435 29.249 120.117 29.249ZM124.267 29.1744C124.421 28.9105 124.625 28.7039 124.879 28.5546C125.133 28.4003 125.417 28.3231 125.73 28.3231V29.4506H125.424C124.653 29.4506 124.267 29.8091 124.267 30.5259V32.5197H123.214V28.3828H124.267V29.1744ZM127.933 28.3306C128.282 28.3306 128.578 28.4127 128.822 28.577C129.071 28.7413 129.25 28.9628 129.36 29.2416V26.9939H130.405V32.5197H129.36V31.6535C129.25 31.9322 129.071 32.1563 128.822 32.3255C128.578 32.4898 128.282 32.5719 127.933 32.5719C127.585 32.5719 127.271 32.4873 126.993 32.318C126.714 32.1488 126.495 31.9049 126.335 31.5863C126.181 31.2627 126.104 30.8843 126.104 30.4512C126.104 30.0181 126.181 29.6423 126.335 29.3237C126.495 29.0001 126.714 28.7537 126.993 28.5844C127.271 28.4152 127.585 28.3306 127.933 28.3306ZM128.262 29.249C127.933 29.249 127.67 29.3561 127.47 29.5701C127.271 29.7842 127.172 30.0779 127.172 30.4512C127.172 30.8246 127.271 31.1183 127.47 31.3324C127.67 31.5415 127.933 31.646 128.262 31.646C128.581 31.646 128.842 31.539 129.046 31.3249C129.255 31.1059 129.36 30.8146 129.36 30.4512C129.36 30.0829 129.255 29.7916 129.046 29.5776C128.842 29.3585 128.581 29.249 128.262 29.249ZM135.25 30.2944C135.25 30.399 135.237 30.5184 135.212 30.6529H132.181C132.196 31.0212 132.295 31.2925 132.479 31.4668C132.663 31.641 132.892 31.7281 133.166 31.7281C133.41 31.7281 133.612 31.6684 133.771 31.5489C133.935 31.4294 134.04 31.2677 134.085 31.0636H135.197C135.143 31.3523 135.026 31.6111 134.846 31.8401C134.667 32.0691 134.436 32.2483 134.152 32.3778C133.873 32.5072 133.562 32.5719 133.219 32.5719C132.815 32.5719 132.457 32.4873 132.143 32.318C131.83 32.1438 131.586 31.8974 131.411 31.5788C131.237 31.2602 131.15 30.8843 131.15 30.4512C131.15 30.0181 131.237 29.6423 131.411 29.3237C131.586 29.0001 131.83 28.7537 132.143 28.5844C132.457 28.4152 132.815 28.3306 133.219 28.3306C133.627 28.3306 133.983 28.4152 134.286 28.5844C134.595 28.7537 134.831 28.9877 134.996 29.2864C135.165 29.5801 135.25 29.9161 135.25 30.2944ZM134.189 30.1899C134.204 29.8514 134.115 29.595 133.92 29.4208C133.731 29.2465 133.497 29.1594 133.219 29.1594C132.935 29.1594 132.696 29.2465 132.502 29.4208C132.308 29.595 132.201 29.8514 132.181 30.1899H134.189Z" fill="#2A2B2D"/>
<g filter="url(#filter2_d_2321_26108)">
<path d="M199.154 25.2859C199.154 24.5816 199.725 24.0106 200.43 24.0106H210.264C210.969 24.0106 211.54 24.5816 211.54 25.2859V34.7535C211.54 35.4578 210.969 36.0287 210.264 36.0287H200.43C199.725 36.0287 199.154 35.4578 199.154 34.7535V25.2859Z" fill="#004D93"/>
<g clip-path="url(#clip1_2321_26108)">
<path d="M207.13 27.5785H203.562C203.338 27.5787 203.123 27.6678 202.965 27.8263C202.806 27.9847 202.717 28.1995 202.717 28.4235V30.6769C202.717 30.901 202.806 31.1158 202.965 31.2742C203.123 31.4326 203.338 31.5217 203.562 31.5219H203.843V32.2731C203.843 32.3088 203.854 32.3438 203.873 32.3739C203.892 32.404 203.919 32.4281 203.952 32.4432C203.984 32.4583 204.02 32.4639 204.055 32.4594C204.091 32.4548 204.124 32.4402 204.152 32.4173L205.225 31.5219H207.13C207.354 31.5217 207.569 31.4326 207.727 31.2742C207.885 31.1158 207.974 30.901 207.975 30.6769V28.4235C207.974 28.1995 207.885 27.9847 207.727 27.8263C207.569 27.6678 207.354 27.5787 207.13 27.5785ZM204.219 29.9258C204.145 29.9258 204.072 29.9038 204.01 29.8625C203.949 29.8212 203.901 29.7626 203.872 29.6939C203.844 29.6253 203.836 29.5498 203.851 29.477C203.865 29.4041 203.901 29.3372 203.954 29.2847C204.006 29.2321 204.073 29.1964 204.146 29.1819C204.219 29.1674 204.294 29.1748 204.363 29.2032C204.431 29.2317 204.49 29.2798 204.531 29.3416C204.573 29.4033 204.595 29.4759 204.595 29.5502C204.595 29.6498 204.555 29.7454 204.485 29.8158C204.414 29.8862 204.319 29.9258 204.219 29.9258ZM205.346 29.9258C205.271 29.9258 205.199 29.9038 205.137 29.8625C205.075 29.8212 205.027 29.7626 204.999 29.6939C204.97 29.6253 204.963 29.5498 204.977 29.477C204.992 29.4041 205.028 29.3372 205.08 29.2847C205.133 29.2321 205.2 29.1964 205.272 29.1819C205.345 29.1674 205.421 29.1748 205.489 29.2032C205.558 29.2317 205.617 29.2798 205.658 29.3416C205.699 29.4033 205.721 29.4759 205.721 29.5502C205.721 29.6498 205.682 29.7454 205.611 29.8158C205.541 29.8862 205.445 29.9258 205.346 29.9258ZM206.472 29.9258C206.398 29.9258 206.326 29.9038 206.264 29.8625C206.202 29.8212 206.154 29.7626 206.125 29.6939C206.097 29.6253 206.09 29.5498 206.104 29.477C206.119 29.4041 206.154 29.3372 206.207 29.2847C206.259 29.2321 206.326 29.1964 206.399 29.1819C206.472 29.1674 206.548 29.1748 206.616 29.2032C206.685 29.2317 206.743 29.2798 206.785 29.3416C206.826 29.4033 206.848 29.4759 206.848 29.5502C206.848 29.6498 206.808 29.7454 206.738 29.8158C206.668 29.8862 206.572 29.9258 206.472 29.9258Z" fill="white"/>
</g>
</g>
<g filter="url(#filter3_d_2321_26108)">
<rect x="215.545" y="24.0106" width="12.0182" height="12.0182" rx="1.27528" fill="white"/>
<rect x="215.545" y="24.0106" width="12.0182" height="12.0182" rx="1.27528" stroke="#ECEFF0" stroke-width="0.500757" stroke-linecap="round"/>
<path d="M222.019 30.0198L223.32 28.719C223.381 28.6574 223.416 28.5738 223.416 28.4865C223.416 28.3993 223.382 28.3156 223.32 28.2539C223.258 28.1921 223.175 28.1574 223.088 28.1573C223 28.1573 222.917 28.1918 222.855 28.2535L221.554 29.5543L220.253 28.2535C220.192 28.1917 220.108 28.157 220.021 28.157C219.933 28.157 219.85 28.1917 219.788 28.2535C219.726 28.3152 219.691 28.3989 219.691 28.4862C219.691 28.5735 219.726 28.6573 219.788 28.719L221.089 30.0198L219.788 31.3206C219.726 31.3823 219.691 31.4661 219.691 31.5534C219.691 31.6407 219.726 31.7244 219.788 31.7861C219.85 31.8479 219.933 31.8826 220.021 31.8826C220.108 31.8826 220.192 31.8479 220.253 31.7861L221.554 30.4853L222.855 31.7861C222.917 31.8479 223 31.8826 223.088 31.8826C223.175 31.8826 223.259 31.8479 223.321 31.7861C223.382 31.7244 223.417 31.6407 223.417 31.5534C223.417 31.4661 223.382 31.3823 223.321 31.3206L222.019 30.0198Z" fill="#273266"/>
</g>
<g filter="url(#filter4_d_2321_26108)">
<rect x="231.57" y="24.0106" width="12.0182" height="12.0182" rx="1.27528" fill="white"/>
<rect x="231.57" y="24.0106" width="12.0182" height="12.0182" rx="1.27528" stroke="#ECEFF0" stroke-width="0.500757" stroke-linecap="round"/>
<g clip-path="url(#clip2_2321_26108)">
<path d="M238.127 27.3908H237.031C237.017 27.3907 237.003 27.3934 236.989 27.3988C236.976 27.4043 236.964 27.4124 236.954 27.4226C236.943 27.4328 236.935 27.4449 236.93 27.4583C236.924 27.4716 236.922 27.486 236.922 27.5004V27.829H238.236V27.5004C238.237 27.486 238.234 27.4716 238.228 27.4583C238.223 27.4449 238.215 27.4328 238.205 27.4226C238.194 27.4124 238.182 27.4043 238.169 27.3988C238.156 27.3934 238.141 27.3907 238.127 27.3908Z" fill="#DB1E0B"/>
<path d="M239.99 27.829H238.676V27.5004C238.676 27.3551 238.618 27.2158 238.515 27.1131C238.412 27.0104 238.273 26.9527 238.128 26.9527H237.032C236.887 26.9527 236.748 27.0104 236.645 27.1131C236.542 27.2158 236.485 27.3551 236.485 27.5004V27.829H235.17C235.112 27.829 235.056 27.8521 235.015 27.8932C234.974 27.9343 234.951 27.99 234.951 28.0481C234.951 28.1062 234.974 28.1619 235.015 28.203C235.056 28.2441 235.112 28.2672 235.17 28.2672H235.403L235.663 32.4423C235.683 32.81 235.964 33.087 236.32 33.087H238.84C239.198 33.087 239.474 32.8161 239.497 32.4434L239.757 28.2672H239.99C240.048 28.2672 240.104 28.2441 240.145 28.203C240.186 28.1619 240.209 28.1062 240.209 28.0481C240.209 27.99 240.186 27.9343 240.145 27.8932C240.104 27.8521 240.048 27.829 239.99 27.829ZM236.712 32.2106H236.704C236.647 32.2107 236.592 32.1887 236.552 32.1493C236.511 32.1098 236.487 32.0561 236.485 31.9994L236.375 28.9322C236.373 28.8741 236.394 28.8176 236.434 28.775C236.473 28.7325 236.528 28.7074 236.586 28.7053C236.645 28.7033 236.701 28.7244 236.744 28.764C236.786 28.8036 236.811 28.8585 236.813 28.9166L236.923 31.9838C236.924 32.0125 236.919 32.0412 236.909 32.0682C236.899 32.0952 236.884 32.1199 236.864 32.141C236.845 32.1621 236.821 32.1791 236.795 32.191C236.769 32.203 236.74 32.2096 236.712 32.2106ZM237.799 31.9916C237.799 32.0497 237.776 32.1054 237.735 32.1465C237.694 32.1876 237.638 32.2106 237.58 32.2106C237.522 32.2106 237.466 32.1876 237.425 32.1465C237.384 32.1054 237.361 32.0497 237.361 31.9916V28.9244C237.361 28.8663 237.384 28.8106 237.425 28.7695C237.466 28.7284 237.522 28.7053 237.58 28.7053C237.638 28.7053 237.694 28.7284 237.735 28.7695C237.776 28.8106 237.799 28.8663 237.799 28.9244V31.9916ZM238.237 27.829H236.923V27.5004C236.923 27.486 236.925 27.4717 236.931 27.4583C236.936 27.4449 236.944 27.4328 236.955 27.4226C236.965 27.4124 236.977 27.4043 236.99 27.3989C237.004 27.3934 237.018 27.3907 237.032 27.3909H238.128C238.142 27.3907 238.157 27.3934 238.17 27.3989C238.183 27.4043 238.195 27.4124 238.206 27.4226C238.216 27.4328 238.224 27.4449 238.229 27.4583C238.235 27.4717 238.238 27.486 238.237 27.5004V27.829ZM238.676 31.9994C238.674 32.0561 238.65 32.1098 238.609 32.1493C238.568 32.1887 238.513 32.2107 238.456 32.2106H238.449C238.42 32.2096 238.391 32.2029 238.365 32.191C238.339 32.179 238.316 32.162 238.296 32.1409C238.276 32.1199 238.261 32.0952 238.251 32.0682C238.241 32.0412 238.236 32.0125 238.237 31.9838L238.347 28.9166C238.348 28.8879 238.355 28.8596 238.367 28.8334C238.379 28.8072 238.396 28.7836 238.417 28.764C238.438 28.7444 238.462 28.7291 238.489 28.719C238.516 28.709 238.545 28.7043 238.574 28.7053C238.603 28.7064 238.631 28.7131 238.657 28.725C238.683 28.737 238.707 28.754 238.726 28.775C238.746 28.7961 238.761 28.8208 238.771 28.8478C238.781 28.8748 238.786 28.9035 238.785 28.9322L238.676 31.9994Z" fill="#DB1E0B"/>
</g>
</g>
</g>
<g filter="url(#filter5_i_2321_26108)">
<rect width="210.318" height="92.1241" transform="translate(40.2812 43.0393)" fill="#F7F9FC"/>
<path d="M51.4882 54.0574V55.4505H53.1807V56.0234H51.4882V57.4491H53.376V58.0545H50.7461V53.4585H53.376V54.0574H51.4882ZM53.9922 53.426C53.9922 53.3001 54.0356 53.196 54.1224 53.1135C54.2092 53.0311 54.3242 52.9898 54.4674 52.9898C54.6106 52.9898 54.7256 53.0311 54.8124 53.1135C54.9036 53.196 54.9491 53.3001 54.9491 53.426C54.9491 53.5518 54.9036 53.6538 54.8124 53.7319C54.7256 53.8101 54.6106 53.8491 54.4674 53.8491C54.3242 53.8491 54.2092 53.8101 54.1224 53.7319C54.0356 53.6538 53.9922 53.5518 53.9922 53.426ZM54.8385 54.4676V58.0545H54.0963V54.4676H54.8385ZM57.1752 54.422C57.5007 54.422 57.7784 54.5023 58.0084 54.6628C58.2385 54.8234 58.4012 55.0361 58.4967 55.3008V54.4676H59.2388V58.0935C59.2388 58.4277 59.1694 58.7228 59.0305 58.9789C58.8959 59.2393 58.7006 59.4432 58.4446 59.5908C58.1885 59.7384 57.8847 59.8121 57.5332 59.8121C57.0298 59.8121 56.6218 59.6928 56.3094 59.4541C56.0012 59.2154 55.8081 58.8921 55.73 58.4841H56.4656C56.5264 58.6968 56.6435 58.8617 56.8171 58.9789C56.9907 59.1004 57.2121 59.1611 57.4811 59.1611C57.7763 59.1611 58.0193 59.07 58.2102 58.8877C58.4012 58.7055 58.4967 58.4407 58.4967 58.0935V57.2212C58.4012 57.4859 58.2385 57.6986 58.0084 57.8592C57.7784 58.0198 57.5007 58.1 57.1752 58.1C56.8627 58.1 56.5828 58.0263 56.3354 57.8787C56.0924 57.7312 55.9014 57.5185 55.7625 57.2407C55.6237 56.963 55.5542 56.6353 55.5542 56.2578C55.5542 55.8845 55.6237 55.559 55.7625 55.2813C55.9014 55.0035 56.0924 54.7909 56.3354 54.6433C56.5828 54.4958 56.8627 54.422 57.1752 54.422ZM57.403 55.073C57.0732 55.073 56.8085 55.1793 56.6088 55.392C56.4135 55.6003 56.3159 55.8889 56.3159 56.2578C56.3159 56.6266 56.4135 56.9174 56.6088 57.1301C56.8085 57.3384 57.0732 57.4425 57.403 57.4425C57.6113 57.4425 57.798 57.3948 57.9629 57.2993C58.1278 57.1995 58.258 57.0606 58.3535 56.8827C58.4489 56.7048 58.4967 56.4965 58.4967 56.2578C58.4967 56.0234 58.4489 55.8173 58.3535 55.6393C58.258 55.457 58.1278 55.3182 57.9629 55.2227C57.798 55.1229 57.6113 55.073 57.403 55.073ZM63.4624 56.0885C63.4624 56.21 63.4537 56.3163 63.4364 56.4075H60.6762C60.6892 56.7764 60.7912 57.0498 60.9822 57.2277C61.1731 57.4057 61.4096 57.4946 61.6917 57.4946C61.9391 57.4946 62.1474 57.4317 62.3167 57.3058C62.4903 57.18 62.5966 57.0129 62.6357 56.8046H63.4299C63.3821 57.0563 63.2823 57.2798 63.1304 57.4751C62.9785 57.6704 62.781 57.8245 62.538 57.9373C62.295 58.0458 62.0237 58.1 61.7243 58.1C61.3771 58.1 61.069 58.0263 60.7999 57.8787C60.5352 57.7312 60.3268 57.5185 60.1749 57.2407C60.023 56.963 59.9471 56.6353 59.9471 56.2578C59.9471 55.8845 60.023 55.559 60.1749 55.2813C60.3268 55.0035 60.5352 54.7909 60.7999 54.6433C61.069 54.4958 61.3771 54.422 61.7243 54.422C62.0758 54.422 62.3818 54.4958 62.6422 54.6433C62.9069 54.7865 63.1087 54.9862 63.2476 55.2422C63.3908 55.4939 63.4624 55.776 63.4624 56.0885ZM62.7138 56.069C62.7225 55.8346 62.6812 55.6393 62.5901 55.4831C62.5033 55.3225 62.3818 55.2053 62.2255 55.1316C62.0736 55.0534 61.9066 55.0144 61.7243 55.0144C61.4335 55.0144 61.1905 55.1033 60.9952 55.2813C60.7999 55.4592 60.6936 55.7218 60.6762 56.069H62.7138ZM66.184 54.409C66.6006 54.409 66.9348 54.5435 67.1865 54.8126C67.4382 55.0816 67.5641 55.4657 67.5641 55.9648V58.0545H66.8219V56.0429C66.8219 55.7218 66.7395 55.4744 66.5746 55.3008C66.4097 55.1229 66.184 55.0339 65.8975 55.0339C65.6024 55.0339 65.3659 55.1294 65.188 55.3203C65.01 55.507 64.9211 55.7825 64.9211 56.1471V58.0545H64.1789V54.4676H64.9211V55.2552C65.0165 54.9862 65.1771 54.7779 65.4028 54.6303C65.6285 54.4827 65.8889 54.409 66.184 54.409ZM69.6102 54.422C70.0312 54.422 70.3675 54.5305 70.6193 54.7475C70.8753 54.9601 71.0315 55.2466 71.088 55.6068H70.3849C70.3545 55.4115 70.2699 55.2552 70.131 55.1381C69.9965 55.0166 69.8164 54.9558 69.5907 54.9558C69.4041 54.9558 69.2587 55.0014 69.1545 55.0925C69.0547 55.1793 69.0048 55.2986 69.0048 55.4505C69.0048 55.5634 69.0417 55.6545 69.1155 55.724C69.1893 55.7934 69.2804 55.8476 69.3889 55.8867C69.5017 55.9258 69.6601 55.9692 69.8641 56.0169C70.1332 56.0777 70.3502 56.1406 70.5151 56.2057C70.6844 56.2708 70.8276 56.3749 70.9448 56.5182C71.0663 56.657 71.127 56.848 71.127 57.091C71.127 57.3905 71.012 57.6335 70.782 57.8201C70.5563 58.0067 70.2504 58.1 69.8641 58.1C69.4171 58.1 69.0547 57.9959 68.777 57.7876C68.5036 57.5793 68.3386 57.2885 68.2822 56.9153H69.0048C69.0265 57.1105 69.1133 57.269 69.2652 57.3905C69.4171 57.512 69.6167 57.5727 69.8641 57.5727C70.0421 57.5727 70.1809 57.5272 70.2807 57.436C70.3849 57.3406 70.437 57.2212 70.437 57.078C70.437 56.9521 70.3979 56.8523 70.3198 56.7785C70.2417 56.7048 70.144 56.6483 70.0269 56.6093C69.9097 56.5659 69.7491 56.5225 69.5451 56.4791C69.2847 56.4183 69.0721 56.3576 68.9072 56.2968C68.7466 56.2361 68.6077 56.1384 68.4905 56.0039C68.3777 55.865 68.3213 55.6784 68.3213 55.444C68.3213 55.1402 68.4341 54.895 68.6598 54.7084C68.8898 54.5175 69.2066 54.422 69.6102 54.422ZM73.4661 54.422C73.9305 54.422 74.3146 54.5457 74.6184 54.793C74.9222 55.0361 75.111 55.3681 75.1847 55.7891H74.397C74.3537 55.5634 74.2473 55.3876 74.0781 55.2618C73.9132 55.1316 73.7048 55.0665 73.4531 55.0665C73.1667 55.0665 72.928 55.1684 72.737 55.3724C72.5461 55.5721 72.4506 55.8672 72.4506 56.2578C72.4506 56.6483 72.5461 56.9456 72.737 57.1496C72.928 57.3536 73.1667 57.4556 73.4531 57.4556C73.7048 57.4556 73.9132 57.3905 74.0781 57.2603C74.2473 57.1301 74.3537 56.9521 74.397 56.7265H75.1847C75.111 57.1474 74.9222 57.4816 74.6184 57.729C74.3146 57.9764 73.9305 58.1 73.4661 58.1C73.119 58.1 72.8108 58.0263 72.5417 57.8787C72.277 57.7312 72.0687 57.5185 71.9168 57.2407C71.7649 56.963 71.689 56.6353 71.689 56.2578C71.689 55.8845 71.7649 55.559 71.9168 55.2813C72.0687 55.0035 72.277 54.7909 72.5417 54.6433C72.8108 54.4958 73.119 54.422 73.4661 54.422ZM77.9068 54.409C78.3234 54.409 78.6576 54.5435 78.9093 54.8126C79.161 55.0816 79.2869 55.4657 79.2869 55.9648V58.0545H78.5447V56.0429C78.5447 55.7218 78.4623 55.4744 78.2974 55.3008C78.1324 55.1229 77.9068 55.0339 77.6203 55.0339C77.3252 55.0339 77.0887 55.1294 76.9108 55.3203C76.7328 55.507 76.6439 55.7825 76.6439 56.1471V58.0545H75.9017V53.2372H76.6439V55.2552C76.7393 54.9862 76.8999 54.7779 77.1256 54.6303C77.3513 54.4827 77.6117 54.409 77.9068 54.409ZM81.5934 54.422C81.9189 54.422 82.1967 54.5023 82.4267 54.6628C82.6567 54.8234 82.8194 55.0361 82.9149 55.3008V54.4676H83.657V58.0545H82.9149V57.2212C82.8194 57.4859 82.6567 57.6986 82.4267 57.8592C82.1967 58.0198 81.9189 58.1 81.5934 58.1C81.2809 58.1 81.001 58.0263 80.7537 57.8787C80.5106 57.7312 80.3197 57.5185 80.1808 57.2407C80.0419 56.963 79.9725 56.6353 79.9725 56.2578C79.9725 55.8845 80.0419 55.559 80.1808 55.2813C80.3197 55.0035 80.5106 54.7909 80.7537 54.6433C81.001 54.4958 81.2809 54.422 81.5934 54.422ZM81.8213 55.073C81.4914 55.073 81.2267 55.1793 81.0271 55.392C80.8318 55.6003 80.7341 55.8889 80.7341 56.2578C80.7341 56.6266 80.8318 56.9174 81.0271 57.1301C81.2267 57.3384 81.4914 57.4425 81.8213 57.4425C82.0296 57.4425 82.2162 57.3948 82.3811 57.2993C82.546 57.1995 82.6762 57.0606 82.7717 56.8827C82.8672 56.7048 82.9149 56.4965 82.9149 56.2578C82.9149 56.0234 82.8672 55.8173 82.7717 55.6393C82.6762 55.457 82.546 55.3182 82.3811 55.2227C82.2162 55.1229 82.0296 55.073 81.8213 55.073ZM86.6047 54.422C86.9172 54.422 87.1949 54.4958 87.438 54.6433C87.6854 54.7909 87.8785 55.0035 88.0174 55.2813C88.1562 55.559 88.2257 55.8845 88.2257 56.2578C88.2257 56.6353 88.1562 56.963 88.0174 57.2407C87.8785 57.5185 87.6854 57.7312 87.438 57.8787C87.1949 58.0263 86.9172 58.1 86.6047 58.1C86.2792 58.1 86.0015 58.0198 85.7715 57.8592C85.5414 57.6986 85.3809 57.4859 85.2897 57.2212V59.7601H84.5476V54.4676H85.2897V55.3008C85.3809 55.0361 85.5414 54.8234 85.7715 54.6628C86.0015 54.5023 86.2792 54.422 86.6047 54.422ZM86.3769 55.073C86.1686 55.073 85.9819 55.1229 85.817 55.2227C85.6521 55.3182 85.5219 55.457 85.4264 55.6393C85.331 55.8173 85.2832 56.0234 85.2832 56.2578C85.2832 56.4965 85.331 56.7048 85.4264 56.8827C85.5219 57.0606 85.6521 57.1995 85.817 57.2993C85.9819 57.3948 86.1686 57.4425 86.3769 57.4425C86.7067 57.4425 86.9714 57.3384 87.1711 57.1301C87.3707 56.9174 87.4705 56.6266 87.4705 56.2578C87.4705 55.8932 87.3707 55.6046 87.1711 55.392C86.9714 55.1793 86.7067 55.073 86.3769 55.073Z" fill="#7780A0"/>
<rect x="50.2969" y="64.0635" width="190.288" height="20.0303" rx="2.50378" fill="white"/>
<rect x="50.2969" y="64.0635" width="190.288" height="20.0303" rx="2.50378" stroke="#E1E2E8" stroke-width="0.500757"/>
<path d="M60.4649 75.6125C60.4649 75.8795 60.4008 76.1279 60.2726 76.3576C60.1444 76.5873 59.9495 76.7742 59.6877 76.9184C59.426 77.0627 59.1029 77.1348 58.7183 77.1348C58.3444 77.1348 58.0105 77.068 57.7168 76.9345C57.4283 76.7956 57.196 76.6086 57.0197 76.3736C56.8488 76.1332 56.75 75.8608 56.7233 75.5564H57.5004C57.5165 75.7166 57.5699 75.8742 57.6607 76.0291C57.7568 76.1786 57.8904 76.3042 58.0613 76.4057C58.2376 76.5018 58.4485 76.5499 58.6942 76.5499C59.0147 76.5499 59.2604 76.4644 59.4314 76.2935C59.6023 76.1226 59.6877 75.9036 59.6877 75.6365C59.6877 75.4068 59.6263 75.2199 59.5035 75.0756C59.386 74.9314 59.2391 74.8193 59.0628 74.7391C58.8865 74.6537 58.6462 74.5629 58.3417 74.4667C57.9838 74.3492 57.6954 74.2397 57.4764 74.1382C57.2628 74.0314 57.0785 73.8738 56.9236 73.6655C56.774 73.4572 56.6992 73.1821 56.6992 72.8403C56.6992 72.5465 56.7687 72.2874 56.9075 72.0631C57.0518 71.8388 57.2547 71.6652 57.5165 71.5423C57.7835 71.4195 58.096 71.358 58.4539 71.358C59.0094 71.358 59.4501 71.4942 59.7759 71.7666C60.1017 72.0337 60.2913 72.3756 60.3447 72.7922H59.5596C59.5168 72.5679 59.402 72.3702 59.215 72.1993C59.0281 72.0284 58.7744 71.9429 58.4539 71.9429C58.1601 71.9429 57.9251 72.0204 57.7488 72.1753C57.5726 72.3248 57.4844 72.5385 57.4844 72.8162C57.4844 73.0352 57.5405 73.2142 57.6527 73.353C57.7702 73.4866 57.9144 73.5934 58.0853 73.6735C58.2563 73.7483 58.4913 73.8338 58.7904 73.9299C59.1536 74.0474 59.4447 74.1596 59.6637 74.2664C59.8881 74.3733 60.0777 74.5362 60.2326 74.7552C60.3875 74.9688 60.4649 75.2546 60.4649 75.6125ZM65.4914 74.635C65.4914 74.7899 65.4807 74.9234 65.4593 75.0356H61.942C61.9581 75.5377 62.0996 75.9142 62.3667 76.1653C62.6391 76.4163 62.9702 76.5419 63.3602 76.5419C63.7127 76.5419 64.0065 76.4537 64.2415 76.2775C64.4819 76.0959 64.6288 75.8555 64.6822 75.5564H65.4593C65.4059 75.8608 65.2857 76.1332 65.0988 76.3736C64.9172 76.614 64.6795 76.8009 64.3857 76.9345C64.0919 77.068 63.7608 77.1348 63.3922 77.1348C62.9702 77.1348 62.5964 77.044 62.2705 76.8623C61.9447 76.6807 61.6883 76.4217 61.5014 76.0852C61.3198 75.7433 61.229 75.3427 61.229 74.8834C61.229 74.424 61.3198 74.0234 61.5014 73.6815C61.6883 73.3397 61.9447 73.078 62.2705 72.8964C62.5964 72.7147 62.9702 72.6239 63.3922 72.6239C63.8195 72.6239 64.1908 72.7147 64.5059 72.8964C64.8264 73.078 65.0694 73.321 65.235 73.6255C65.4059 73.9299 65.4914 74.2664 65.4914 74.635ZM64.7543 74.6831C64.7703 74.3572 64.7169 74.0848 64.594 73.8658C64.4712 73.6468 64.3029 73.4839 64.0893 73.3771C63.8756 73.2703 63.6433 73.2168 63.3922 73.2168C62.9916 73.2168 62.6551 73.3424 62.3827 73.5934C62.1103 73.8391 61.9634 74.2023 61.942 74.6831H64.7543ZM67.1741 71.1497V77.0787H66.445V71.1497H67.1741ZM72.3924 74.635C72.3924 74.7899 72.3818 74.9234 72.3604 75.0356H68.8431C68.8591 75.5377 69.0007 75.9142 69.2677 76.1653C69.5401 76.4163 69.8713 76.5419 70.2612 76.5419C70.6138 76.5419 70.9075 76.4537 71.1426 76.2775C71.3829 76.0959 71.5298 75.8555 71.5832 75.5564H72.3604C72.307 75.8608 72.1868 76.1332 71.9999 76.3736C71.8182 76.614 71.5806 76.8009 71.2868 76.9345C70.993 77.068 70.6618 77.1348 70.2933 77.1348C69.8713 77.1348 69.4974 77.044 69.1716 76.8623C68.8458 76.6807 68.5894 76.4217 68.4024 76.0852C68.2208 75.7433 68.13 75.3427 68.13 74.8834C68.13 74.424 68.2208 74.0234 68.4024 73.6815C68.5894 73.3397 68.8458 73.078 69.1716 72.8964C69.4974 72.7147 69.8713 72.6239 70.2933 72.6239C70.7206 72.6239 71.0918 72.7147 71.407 72.8964C71.7274 73.078 71.9705 73.321 72.1361 73.6255C72.307 73.9299 72.3924 74.2664 72.3924 74.635ZM71.6553 74.6831C71.6714 74.3572 71.6179 74.0848 71.4951 73.8658C71.3722 73.6468 71.204 73.4839 70.9903 73.3771C70.7767 73.2703 70.5443 73.2168 70.2933 73.2168C69.8927 73.2168 69.5562 73.3424 69.2837 73.5934C69.0113 73.8391 68.8644 74.2023 68.8431 74.6831H71.6553ZM75.293 72.6239C75.8539 72.6239 76.3186 72.7735 76.6871 73.0726C77.0557 73.3717 77.2827 73.7723 77.3681 74.2744H76.599C76.5456 73.9593 76.3987 73.7136 76.1583 73.5373C75.9233 73.3557 75.6295 73.2649 75.277 73.2649C75.0206 73.2649 74.7856 73.3237 74.5719 73.4412C74.3636 73.5587 74.1954 73.7403 74.0672 73.986C73.939 74.2264 73.8749 74.5255 73.8749 74.8834C73.8749 75.2412 73.939 75.543 74.0672 75.7887C74.1954 76.0291 74.3636 76.208 74.5719 76.3255C74.7856 76.443 75.0206 76.5018 75.277 76.5018C75.6295 76.5018 75.9233 76.411 76.1583 76.2294C76.3987 76.0478 76.5456 75.7994 76.599 75.4843H77.3681C77.2827 75.9917 77.0557 76.395 76.6871 76.6941C76.3186 76.9879 75.8539 77.1348 75.293 77.1348C74.871 77.1348 74.4971 77.044 74.1713 76.8623C73.8455 76.6807 73.5891 76.4217 73.4022 76.0852C73.2205 75.7433 73.1297 75.3427 73.1297 74.8834C73.1297 74.424 73.2205 74.0234 73.4022 73.6815C73.5891 73.3397 73.8455 73.078 74.1713 72.8964C74.4971 72.7147 74.871 72.6239 75.293 72.6239ZM80.4215 76.4377V77.0787H79.8767C79.428 77.0787 79.0915 76.9718 78.8672 76.7582C78.6482 76.5445 78.5387 76.1867 78.5387 75.6846V73.313H77.8817V72.68H78.5387V71.5824H79.2758V72.68H80.4135V73.313H79.2758V75.7006C79.2758 75.9837 79.3265 76.1786 79.428 76.2855C79.5348 76.387 79.7164 76.4377 79.9728 76.4377H80.4215ZM85.3573 74.635C85.3573 74.7899 85.3467 74.9234 85.3253 75.0356H81.808C81.824 75.5377 81.9656 75.9142 82.2326 76.1653C82.505 76.4163 82.8362 76.5419 83.2261 76.5419C83.5787 76.5419 83.8724 76.4537 84.1075 76.2775C84.3478 76.0959 84.4947 75.8555 84.5481 75.5564H85.3253C85.2719 75.8608 85.1517 76.1332 84.9648 76.3736C84.7831 76.614 84.5455 76.8009 84.2517 76.9345C83.9579 77.068 83.6267 77.1348 83.2582 77.1348C82.8362 77.1348 82.4623 77.044 82.1365 76.8623C81.8107 76.6807 81.5543 76.4217 81.3673 76.0852C81.1857 75.7433 81.0949 75.3427 81.0949 74.8834C81.0949 74.424 81.1857 74.0234 81.3673 73.6815C81.5543 73.3397 81.8107 73.078 82.1365 72.8964C82.4623 72.7147 82.8362 72.6239 83.2582 72.6239C83.6855 72.6239 84.0567 72.7147 84.3719 72.8964C84.6923 73.078 84.9354 73.321 85.101 73.6255C85.2719 73.9299 85.3573 74.2664 85.3573 74.635ZM84.6202 74.6831C84.6363 74.3572 84.5828 74.0848 84.46 73.8658C84.3371 73.6468 84.1689 73.4839 83.9552 73.3771C83.7416 73.2703 83.5092 73.2168 83.2582 73.2168C82.8576 73.2168 82.5211 73.3424 82.2486 73.5934C81.9762 73.8391 81.8293 74.2023 81.808 74.6831H84.6202ZM90.3571 74.635C90.3571 74.7899 90.3464 74.9234 90.325 75.0356H86.8077C86.8237 75.5377 86.9653 75.9142 87.2324 76.1653C87.5048 76.4163 87.8359 76.5419 88.2259 76.5419C88.5784 76.5419 88.8722 76.4537 89.1072 76.2775C89.3476 76.0959 89.4944 75.8555 89.5479 75.5564H90.325C90.2716 75.8608 90.1514 76.1332 89.9645 76.3736C89.7829 76.614 89.5452 76.8009 89.2514 76.9345C88.9576 77.068 88.6265 77.1348 88.2579 77.1348C87.8359 77.1348 87.462 77.044 87.1362 76.8623C86.8104 76.6807 86.554 76.4217 86.3671 76.0852C86.1854 75.7433 86.0946 75.3427 86.0946 74.8834C86.0946 74.424 86.1854 74.0234 86.3671 73.6815C86.554 73.3397 86.8104 73.078 87.1362 72.8964C87.462 72.7147 87.8359 72.6239 88.2579 72.6239C88.6852 72.6239 89.0565 72.7147 89.3716 72.8964C89.6921 73.078 89.9351 73.321 90.1007 73.6255C90.2716 73.9299 90.3571 74.2664 90.3571 74.635ZM89.62 74.6831C89.636 74.3572 89.5826 74.0848 89.4597 73.8658C89.3369 73.6468 89.1686 73.4839 88.955 73.3771C88.7413 73.2703 88.509 73.2168 88.2579 73.2168C87.8573 73.2168 87.5208 73.3424 87.2484 73.5934C86.976 73.8391 86.8291 74.2023 86.8077 74.6831H89.62ZM92.0398 73.5694C92.184 73.2649 92.395 73.0299 92.6728 72.8643C92.9505 72.6934 93.2817 72.6079 93.6663 72.6079V73.4011H93.4419C93.0306 73.4011 92.6941 73.5079 92.4324 73.7216C92.1707 73.9299 92.0398 74.2771 92.0398 74.7632V77.0787H91.3107V72.68H92.0398V73.5694Z" fill="#7780A0"/>
<path d="M230.936 75.4364L233.012 73.0315C233.051 72.986 233.073 72.934 233.074 72.8809C233.075 72.8277 233.056 72.7753 233.019 72.729C232.982 72.6827 232.928 72.6442 232.862 72.6174C232.797 72.5905 232.723 72.5764 232.647 72.5764L228.494 72.5764C228.418 72.5764 228.343 72.5905 228.278 72.6173C228.213 72.6442 228.159 72.6827 228.121 72.7291C228.084 72.7754 228.065 72.8278 228.066 72.881C228.068 72.9342 228.089 72.9862 228.128 73.0316L230.205 75.4364C230.243 75.4805 230.297 75.517 230.361 75.5423C230.425 75.5677 230.497 75.581 230.57 75.581C230.644 75.581 230.716 75.5677 230.78 75.5423C230.844 75.517 230.898 75.4805 230.936 75.4364Z" fill="#7780A0"/>
<path d="M52.8683 94.4479C53.2979 94.4479 53.6863 94.5477 54.0335 94.7474C54.3851 94.947 54.6606 95.2269 54.8603 95.5871C55.0642 95.943 55.1662 96.3466 55.1662 96.798C55.1662 97.2493 55.0642 97.6551 54.8603 98.0153C54.6606 98.3755 54.3851 98.6554 54.0335 98.8551C53.6863 99.0547 53.2979 99.1545 52.8683 99.1545C52.4386 99.1545 52.048 99.0547 51.6965 98.8551C51.3493 98.6554 51.0737 98.3755 50.8697 98.0153C50.6701 97.6551 50.5703 97.2493 50.5703 96.798C50.5703 96.3466 50.6701 95.943 50.8697 95.5871C51.0737 95.2269 51.3493 94.947 51.6965 94.7474C52.048 94.5477 52.4386 94.4479 52.8683 94.4479ZM52.8683 95.2942C52.5992 95.2942 52.3627 95.3549 52.1587 95.4765C51.9547 95.598 51.7941 95.7737 51.677 96.0038C51.5641 96.2294 51.5077 96.4942 51.5077 96.798C51.5077 97.1017 51.5641 97.3687 51.677 97.5987C51.7941 97.8243 51.9547 97.9979 52.1587 98.1195C52.3627 98.241 52.5992 98.3017 52.8683 98.3017C53.1373 98.3017 53.3739 98.241 53.5778 98.1195C53.7818 97.9979 53.9402 97.8243 54.0531 97.5987C54.1702 97.3687 54.2288 97.1017 54.2288 96.798C54.2288 96.4942 54.1702 96.2294 54.0531 96.0038C53.9402 95.7737 53.7818 95.598 53.5778 95.4765C53.3739 95.3549 53.1373 95.2942 52.8683 95.2942ZM56.7744 96.1925C56.909 95.9625 57.0869 95.7824 57.3082 95.6522C57.5296 95.5177 57.7769 95.4504 58.0503 95.4504V96.4334H57.7834C57.1108 96.4334 56.7744 96.7459 56.7744 97.3708V99.1089H55.8565V95.5025H56.7744V96.1925ZM59.971 95.4569C60.2748 95.4569 60.5352 95.5285 60.7522 95.6718C60.9692 95.815 61.1232 96.0081 61.2144 96.2511V95.5025H62.1258V99.122C62.1258 99.4561 62.0585 99.7556 61.924 100.02C61.7938 100.289 61.5963 100.5 61.3316 100.652C61.0712 100.804 60.7543 100.88 60.3811 100.88C59.8603 100.88 59.4394 100.756 59.1182 100.509C58.7971 100.261 58.6018 99.9248 58.5323 99.4995H59.4372C59.4893 99.6818 59.5891 99.8229 59.7366 99.9227C59.8885 100.027 60.0817 100.079 60.316 100.079C60.5851 100.079 60.8021 99.9986 60.967 99.838C61.1319 99.6818 61.2144 99.4431 61.2144 99.122V98.3538C61.1232 98.5968 60.9692 98.7921 60.7522 98.9397C60.5352 99.0829 60.2748 99.1545 59.971 99.1545C59.6672 99.1545 59.3938 99.0807 59.1508 98.9332C58.9077 98.7856 58.7168 98.573 58.5779 98.2952C58.4434 98.0131 58.3761 97.6833 58.3761 97.3057C58.3761 96.9282 58.4434 96.6005 58.5779 96.3227C58.7168 96.0406 58.9077 95.8258 59.1508 95.6783C59.3938 95.5307 59.6672 95.4569 59.971 95.4569ZM60.2574 96.2576C59.971 96.2576 59.741 96.3509 59.5674 96.5376C59.3938 96.7242 59.307 96.9802 59.307 97.3057C59.307 97.6312 59.3938 97.8873 59.5674 98.0739C59.741 98.2562 59.971 98.3473 60.2574 98.3473C60.5352 98.3473 60.763 98.254 60.941 98.0674C61.1232 97.8764 61.2144 97.6225 61.2144 97.3057C61.2144 96.9846 61.1232 96.7307 60.941 96.5441C60.763 96.3531 60.5352 96.2576 60.2574 96.2576ZM64.3702 95.4569C64.674 95.4569 64.9344 95.5285 65.1514 95.6718C65.3684 95.815 65.5225 96.0081 65.6136 96.2511V95.5025H66.525V99.1089H65.6136V98.3538C65.5225 98.5968 65.3684 98.7921 65.1514 98.9397C64.9344 99.0829 64.674 99.1545 64.3702 99.1545C64.0664 99.1545 63.793 99.0807 63.55 98.9332C63.307 98.7856 63.116 98.573 62.9771 98.2952C62.8426 98.0131 62.7753 97.6833 62.7753 97.3057C62.7753 96.9282 62.8426 96.6005 62.9771 96.3227C63.116 96.0406 63.307 95.8258 63.55 95.6783C63.793 95.5307 64.0664 95.4569 64.3702 95.4569ZM64.6567 96.2576C64.3702 96.2576 64.1402 96.3509 63.9666 96.5376C63.793 96.7242 63.7062 96.9802 63.7062 97.3057C63.7062 97.6312 63.793 97.8873 63.9666 98.0739C64.1402 98.2562 64.3702 98.3473 64.6567 98.3473C64.9344 98.3473 65.1623 98.254 65.3402 98.0674C65.5225 97.8764 65.6136 97.6225 65.6136 97.3057C65.6136 96.9846 65.5225 96.7307 65.3402 96.5441C65.1623 96.3531 64.9344 96.2576 64.6567 96.2576ZM69.5051 95.4504C69.9217 95.4504 70.2537 95.5871 70.5011 95.8605C70.7484 96.134 70.8721 96.518 70.8721 97.0128V99.1089H69.9607V97.1169C69.9607 96.8305 69.887 96.6092 69.7394 96.4529C69.5919 96.2924 69.3901 96.2121 69.134 96.2121C68.8736 96.2121 68.6653 96.2967 68.5091 96.466C68.3528 96.6352 68.2747 96.8782 68.2747 97.1951V99.1089H67.3568V95.5025H68.2747V96.2251C68.3702 95.9821 68.5264 95.7933 68.7434 95.6587C68.9647 95.5199 69.2186 95.4504 69.5051 95.4504ZM71.5756 94.4674C71.5756 94.3199 71.6277 94.2005 71.7318 94.1094C71.836 94.0139 71.9727 93.9662 72.142 93.9662C72.3112 93.9662 72.4479 94.0139 72.5521 94.1094C72.6562 94.2005 72.7083 94.3199 72.7083 94.4674C72.7083 94.6107 72.6562 94.73 72.5521 94.8255C72.4479 94.9166 72.3112 94.9622 72.142 94.9622C71.9727 94.9622 71.836 94.9166 71.7318 94.8255C71.6277 94.73 71.5756 94.6107 71.5756 94.4674ZM72.5976 95.5025V99.1089H71.6798V95.5025H72.5976ZM74.6714 95.4569C75.1097 95.4569 75.4612 95.5676 75.726 95.7889C75.9907 96.0103 76.1556 96.3054 76.2207 96.6743H75.3614C75.3267 96.5007 75.2486 96.3618 75.1271 96.2576C75.0055 96.1535 74.8471 96.1014 74.6518 96.1014C74.4956 96.1014 74.3741 96.1383 74.2873 96.2121C74.2005 96.2858 74.1571 96.3857 74.1571 96.5115C74.1571 96.6113 74.1918 96.6916 74.2613 96.7524C74.3307 96.8131 74.4175 96.8609 74.5217 96.8956C74.6258 96.9303 74.7755 96.9716 74.9708 97.0193C75.2442 97.08 75.4656 97.1451 75.6348 97.2146C75.8084 97.2797 75.956 97.386 76.0775 97.5336C76.2034 97.6768 76.2663 97.8721 76.2663 98.1195C76.2663 98.4276 76.1448 98.6771 75.9017 98.8681C75.663 99.059 75.3397 99.1545 74.9318 99.1545C74.4631 99.1545 74.0877 99.0504 73.8056 98.842C73.5235 98.6294 73.3521 98.3278 73.2913 97.9372H74.1701C74.1918 98.1151 74.2699 98.2562 74.4045 98.3603C74.539 98.4601 74.7148 98.51 74.9318 98.51C75.088 98.51 75.2074 98.4732 75.2898 98.3994C75.3723 98.3213 75.4135 98.2214 75.4135 98.0999C75.4135 97.9958 75.3766 97.9111 75.3028 97.846C75.2334 97.7809 75.1444 97.731 75.0359 97.6963C74.9318 97.6616 74.782 97.6204 74.5868 97.5726C74.3177 97.5119 74.0985 97.4511 73.9293 97.3904C73.7643 97.3253 73.6211 97.2233 73.4996 97.0844C73.3824 96.9455 73.3238 96.7546 73.3238 96.5115C73.3238 96.1991 73.4432 95.9452 73.6819 95.7499C73.9206 95.5546 74.2504 95.4569 74.6714 95.4569ZM78.3626 95.4569C78.6663 95.4569 78.9267 95.5285 79.1437 95.6718C79.3607 95.815 79.5148 96.0081 79.6059 96.2511V95.5025H80.5173V99.1089H79.6059V98.3538C79.5148 98.5968 79.3607 98.7921 79.1437 98.9397C78.9267 99.0829 78.6663 99.1545 78.3626 99.1545C78.0588 99.1545 77.7854 99.0807 77.5423 98.9332C77.2993 98.7856 77.1083 98.573 76.9695 98.2952C76.8349 98.0131 76.7676 97.6833 76.7676 97.3057C76.7676 96.9282 76.8349 96.6005 76.9695 96.3227C77.1083 96.0406 77.2993 95.8258 77.5423 95.6783C77.7854 95.5307 78.0588 95.4569 78.3626 95.4569ZM78.649 96.2576C78.3626 96.2576 78.1325 96.3509 77.9589 96.5376C77.7854 96.7242 77.6986 96.9802 77.6986 97.3057C77.6986 97.6312 77.7854 97.8873 77.9589 98.0739C78.1325 98.2562 78.3626 98.3473 78.649 98.3473C78.9267 98.3473 79.1546 98.254 79.3325 98.0674C79.5148 97.8764 79.6059 97.6225 79.6059 97.3057C79.6059 96.9846 79.5148 96.7307 79.3325 96.5441C79.1546 96.3531 78.9267 96.2576 78.649 96.2576ZM83.2761 98.3213V99.1089H82.7943C82.3907 99.1089 82.0804 99.0113 81.8634 98.816C81.6508 98.6207 81.5444 98.2952 81.5444 97.8395V96.2772H81.0432V95.5025H81.5444V94.6107H82.4623V95.5025H83.2695V96.2772H82.4623V97.8525C82.4623 98.0261 82.497 98.1477 82.5665 98.2171C82.6359 98.2865 82.7531 98.3213 82.918 98.3213H83.2761ZM83.8324 94.4674C83.8324 94.3199 83.8845 94.2005 83.9886 94.1094C84.0928 94.0139 84.2295 93.9662 84.3988 93.9662C84.568 93.9662 84.7047 94.0139 84.8089 94.1094C84.913 94.2005 84.9651 94.3199 84.9651 94.4674C84.9651 94.6107 84.913 94.73 84.8089 94.8255C84.7047 94.9166 84.568 94.9622 84.3988 94.9622C84.2295 94.9622 84.0928 94.9166 83.9886 94.8255C83.8845 94.73 83.8324 94.6107 83.8324 94.4674ZM84.8544 95.5025V99.1089H83.9366V95.5025H84.8544ZM89.0764 97.169C89.0764 97.2602 89.0656 97.3643 89.0439 97.4815H86.4009C86.4139 97.8026 86.5007 98.0392 86.6613 98.1911C86.8219 98.343 87.0215 98.4189 87.2602 98.4189C87.4728 98.4189 87.6486 98.3668 87.7875 98.2627C87.9307 98.1585 88.0218 98.0175 88.0609 97.8395H89.0309C88.9831 98.0912 88.8811 98.3169 88.7249 98.5166C88.5687 98.7162 88.3669 98.8724 88.1195 98.9853C87.8764 99.0981 87.6052 99.1545 87.3057 99.1545C86.9542 99.1545 86.6417 99.0807 86.3683 98.9332C86.0949 98.7813 85.8823 98.5665 85.7304 98.2887C85.5785 98.011 85.5025 97.6833 85.5025 97.3057C85.5025 96.9282 85.5785 96.6005 85.7304 96.3227C85.8823 96.0406 86.0949 95.8258 86.3683 95.6783C86.6417 95.5307 86.9542 95.4569 87.3057 95.4569C87.6616 95.4569 87.9719 95.5307 88.2367 95.6783C88.5057 95.8258 88.7119 96.0298 88.8551 96.2902C89.0026 96.5462 89.0764 96.8392 89.0764 97.169ZM88.152 97.0779C88.165 96.7828 88.0869 96.5593 87.9177 96.4074C87.7528 96.2555 87.5488 96.1795 87.3057 96.1795C87.0584 96.1795 86.8501 96.2555 86.6808 96.4074C86.5115 96.5593 86.4182 96.7828 86.4009 97.0779H88.152ZM90.9714 95.4569C91.4097 95.4569 91.7613 95.5676 92.026 95.7889C92.2907 96.0103 92.4556 96.3054 92.5207 96.6743H91.6614C91.6267 96.5007 91.5486 96.3618 91.4271 96.2576C91.3056 96.1535 91.1472 96.1014 90.9519 96.1014C90.7956 96.1014 90.6741 96.1383 90.5873 96.2121C90.5005 96.2858 90.4571 96.3857 90.4571 96.5115C90.4571 96.6113 90.4918 96.6916 90.5613 96.7524C90.6307 96.8131 90.7175 96.8609 90.8217 96.8956C90.9258 96.9303 91.0756 96.9716 91.2708 97.0193C91.5443 97.08 91.7656 97.1451 91.9349 97.2146C92.1084 97.2797 92.256 97.386 92.3775 97.5336C92.5034 97.6768 92.5663 97.8721 92.5663 98.1195C92.5663 98.4276 92.4448 98.6771 92.2018 98.8681C91.9631 99.059 91.6397 99.1545 91.2318 99.1545C90.7631 99.1545 90.3877 99.0504 90.1056 98.842C89.8235 98.6294 89.6521 98.3278 89.5913 97.9372H90.4701C90.4918 98.1151 90.57 98.2562 90.7045 98.3603C90.839 98.4601 91.0148 98.51 91.2318 98.51C91.388 98.51 91.5074 98.4732 91.5898 98.3994C91.6723 98.3213 91.7135 98.2214 91.7135 98.0999C91.7135 97.9958 91.6766 97.9111 91.6028 97.846C91.5334 97.7809 91.4444 97.731 91.3359 97.6963C91.2318 97.6616 91.0821 97.6204 90.8868 97.5726C90.6177 97.5119 90.3985 97.4511 90.2293 97.3904C90.0644 97.3253 89.9211 97.2233 89.7996 97.0844C89.6824 96.9455 89.6239 96.7546 89.6239 96.5115C89.6239 96.1991 89.7432 95.9452 89.9819 95.7499C90.2206 95.5546 90.5504 95.4569 90.9714 95.4569ZM96.0802 95.4569C96.384 95.4569 96.6423 95.5285 96.8549 95.6718C97.0719 95.815 97.2281 96.0081 97.3236 96.2511V94.2917H98.235V99.1089H97.3236V98.3538C97.2281 98.5968 97.0719 98.7921 96.8549 98.9397C96.6423 99.0829 96.384 99.1545 96.0802 99.1545C95.7765 99.1545 95.503 99.0807 95.26 98.9332C95.017 98.7856 94.826 98.573 94.6871 98.2952C94.5526 98.0131 94.4853 97.6833 94.4853 97.3057C94.4853 96.9282 94.5526 96.6005 94.6871 96.3227C94.826 96.0406 95.017 95.8258 95.26 95.6783C95.503 95.5307 95.7765 95.4569 96.0802 95.4569ZM96.3667 96.2576C96.0802 96.2576 95.8502 96.3509 95.6766 96.5376C95.503 96.7242 95.4162 96.9802 95.4162 97.3057C95.4162 97.6312 95.503 97.8873 95.6766 98.0739C95.8502 98.2562 96.0802 98.3473 96.3667 98.3473C96.6444 98.3473 96.8723 98.254 97.0502 98.0674C97.2325 97.8764 97.3236 97.6225 97.3236 97.3057C97.3236 96.9846 97.2325 96.7307 97.0502 96.5441C96.8723 96.3531 96.6444 96.2576 96.3667 96.2576ZM98.9627 94.4674C98.9627 94.3199 99.0148 94.2005 99.1189 94.1094C99.2231 94.0139 99.3598 93.9662 99.529 93.9662C99.6983 93.9662 99.835 94.0139 99.9392 94.1094C100.043 94.2005 100.095 94.3199 100.095 94.4674C100.095 94.6107 100.043 94.73 99.9392 94.8255C99.835 94.9166 99.6983 94.9622 99.529 94.9622C99.3598 94.9622 99.2231 94.9166 99.1189 94.8255C99.0148 94.73 98.9627 94.6107 98.9627 94.4674ZM99.9847 95.5025V99.1089H99.0668V95.5025H99.9847ZM104.207 97.169C104.207 97.2602 104.196 97.3643 104.174 97.4815H101.531C101.544 97.8026 101.631 98.0392 101.792 98.1911C101.952 98.343 102.152 98.4189 102.39 98.4189C102.603 98.4189 102.779 98.3668 102.918 98.2627C103.061 98.1585 103.152 98.0175 103.191 97.8395H104.161C104.113 98.0912 104.011 98.3169 103.855 98.5166C103.699 98.7162 103.497 98.8724 103.25 98.9853C103.007 99.0981 102.735 99.1545 102.436 99.1545C102.085 99.1545 101.772 99.0807 101.499 98.9332C101.225 98.7813 101.013 98.5665 100.861 98.2887C100.709 98.011 100.633 97.6833 100.633 97.3057C100.633 96.9282 100.709 96.6005 100.861 96.3227C101.013 96.0406 101.225 95.8258 101.499 95.6783C101.772 95.5307 102.085 95.4569 102.436 95.4569C102.792 95.4569 103.102 95.5307 103.367 95.6783C103.636 95.8258 103.842 96.0298 103.985 96.2902C104.133 96.5462 104.207 96.8392 104.207 97.169ZM103.282 97.0779C103.295 96.7828 103.217 96.5593 103.048 96.4074C102.883 96.2555 102.679 96.1795 102.436 96.1795C102.189 96.1795 101.98 96.2555 101.811 96.4074C101.642 96.5593 101.549 96.7828 101.531 97.0779H103.282ZM110.865 95.4504C111.304 95.4504 111.649 95.5871 111.9 95.8605C112.157 96.1296 112.285 96.5137 112.285 97.0128V99.1089H111.373V97.1169C111.373 96.8392 111.302 96.6265 111.158 96.479C111.019 96.3271 110.826 96.2511 110.579 96.2511C110.323 96.2511 110.119 96.3314 109.967 96.492C109.815 96.6526 109.739 96.8869 109.739 97.1951V99.1089H108.828V97.1169C108.828 96.8392 108.756 96.6265 108.613 96.479C108.474 96.3271 108.281 96.2511 108.034 96.2511C107.778 96.2511 107.574 96.3314 107.422 96.492C107.27 96.6526 107.194 96.8869 107.194 97.1951V99.1089H106.276V95.5025H107.194V96.186C107.289 95.9517 107.439 95.7716 107.643 95.6457C107.851 95.5155 108.092 95.4504 108.366 95.4504C108.656 95.4504 108.908 95.5199 109.121 95.6587C109.338 95.7976 109.501 95.9972 109.609 96.2576C109.722 96.0103 109.889 95.815 110.11 95.6718C110.336 95.5242 110.588 95.4504 110.865 95.4504ZM114.757 95.4569C115.109 95.4569 115.424 95.5307 115.701 95.6783C115.983 95.8258 116.205 96.0406 116.365 96.3227C116.526 96.6005 116.606 96.9282 116.606 97.3057C116.606 97.6833 116.526 98.011 116.365 98.2887C116.205 98.5665 115.983 98.7813 115.701 98.9332C115.424 99.0807 115.109 99.1545 114.757 99.1545C114.406 99.1545 114.089 99.0807 113.807 98.9332C113.529 98.7813 113.31 98.5665 113.15 98.2887C112.989 98.011 112.909 97.6833 112.909 97.3057C112.909 96.9282 112.989 96.6005 113.15 96.3227C113.31 96.0406 113.529 95.8258 113.807 95.6783C114.089 95.5307 114.406 95.4569 114.757 95.4569ZM114.757 96.2511C114.501 96.2511 114.284 96.3423 114.106 96.5245C113.929 96.7025 113.84 96.9629 113.84 97.3057C113.84 97.6486 113.929 97.9111 114.106 98.0934C114.284 98.2713 114.501 98.3603 114.757 98.3603C115.014 98.3603 115.231 98.2713 115.408 98.0934C115.586 97.9111 115.675 97.6486 115.675 97.3057C115.675 96.9629 115.586 96.7025 115.408 96.5245C115.231 96.3423 115.014 96.2511 114.757 96.2511ZM118.668 95.4569C118.971 95.4569 119.232 95.5285 119.449 95.6718C119.666 95.815 119.82 96.0081 119.911 96.2511V95.5025H120.822V99.122C120.822 99.4561 120.755 99.7556 120.621 100.02C120.49 100.289 120.293 100.5 120.028 100.652C119.768 100.804 119.451 100.88 119.078 100.88C118.557 100.88 118.136 100.756 117.815 100.509C117.494 100.261 117.298 99.9248 117.229 99.4995H118.134C118.186 99.6818 118.286 99.8229 118.433 99.9227C118.585 100.027 118.778 100.079 119.013 100.079C119.282 100.079 119.499 99.9986 119.664 99.838C119.829 99.6818 119.911 99.4431 119.911 99.122V98.3538C119.82 98.5968 119.666 98.7921 119.449 98.9397C119.232 99.0829 118.971 99.1545 118.668 99.1545C118.364 99.1545 118.09 99.0807 117.847 98.9332C117.604 98.7856 117.413 98.573 117.274 98.2952C117.14 98.0131 117.073 97.6833 117.073 97.3057C117.073 96.9282 117.14 96.6005 117.274 96.3227C117.413 96.0406 117.604 95.8258 117.847 95.6783C118.09 95.5307 118.364 95.4569 118.668 95.4569ZM118.954 96.2576C118.668 96.2576 118.438 96.3509 118.264 96.5376C118.09 96.7242 118.004 96.9802 118.004 97.3057C118.004 97.6312 118.09 97.8873 118.264 98.0739C118.438 98.2562 118.668 98.3473 118.954 98.3473C119.232 98.3473 119.46 98.254 119.638 98.0674C119.82 97.8764 119.911 97.6225 119.911 97.3057C119.911 96.9846 119.82 96.7307 119.638 96.5441C119.46 96.3531 119.232 96.2576 118.954 96.2576ZM125.046 97.169C125.046 97.2602 125.035 97.3643 125.013 97.4815H122.37C122.383 97.8026 122.47 98.0392 122.631 98.1911C122.791 98.343 122.991 98.4189 123.23 98.4189C123.442 98.4189 123.618 98.3668 123.757 98.2627C123.9 98.1585 123.991 98.0175 124.03 97.8395H125C124.953 98.0912 124.851 98.3169 124.694 98.5166C124.538 98.7162 124.336 98.8724 124.089 98.9853C123.846 99.0981 123.575 99.1545 123.275 99.1545C122.924 99.1545 122.611 99.0807 122.338 98.9332C122.064 98.7813 121.852 98.5665 121.7 98.2887C121.548 98.011 121.472 97.6833 121.472 97.3057C121.472 96.9282 121.548 96.6005 121.7 96.3227C121.852 96.0406 122.064 95.8258 122.338 95.6783C122.611 95.5307 122.924 95.4569 123.275 95.4569C123.631 95.4569 123.941 95.5307 124.206 95.6783C124.475 95.8258 124.681 96.0298 124.824 96.2902C124.972 96.5462 125.046 96.8392 125.046 97.169ZM124.121 97.0779C124.134 96.7828 124.056 96.5593 123.887 96.4074C123.722 96.2555 123.518 96.1795 123.275 96.1795C123.028 96.1795 122.819 96.2555 122.65 96.4074C122.481 96.5593 122.388 96.7828 122.37 97.0779H124.121ZM127.846 95.4504C128.262 95.4504 128.594 95.5871 128.842 95.8605C129.089 96.134 129.213 96.518 129.213 97.0128V99.1089H128.301V97.1169C128.301 96.8305 128.228 96.6092 128.08 96.4529C127.932 96.2924 127.731 96.2121 127.475 96.2121C127.214 96.2121 127.006 96.2967 126.85 96.466C126.693 96.6352 126.615 96.8782 126.615 97.1951V99.1089H125.697V95.5025H126.615V96.2251C126.711 95.9821 126.867 95.7933 127.084 95.6587C127.305 95.5199 127.559 95.4504 127.846 95.4504ZM133.593 95.4569C133.897 95.4569 134.17 95.5307 134.413 95.6783C134.656 95.8258 134.845 96.0406 134.979 96.3227C135.118 96.6005 135.188 96.9282 135.188 97.3057C135.188 97.6833 135.118 98.0131 134.979 98.2952C134.845 98.573 134.656 98.7856 134.413 98.9332C134.17 99.0807 133.897 99.1545 133.593 99.1545C133.289 99.1545 133.029 99.0829 132.812 98.9397C132.599 98.7921 132.447 98.5968 132.356 98.3538V99.1089H131.438V94.2917H132.356V96.2511C132.447 96.0081 132.599 95.815 132.812 95.6718C133.029 95.5285 133.289 95.4569 133.593 95.4569ZM133.306 96.2576C133.029 96.2576 132.799 96.3531 132.616 96.5441C132.438 96.7307 132.349 96.9846 132.349 97.3057C132.349 97.6225 132.438 97.8764 132.616 98.0674C132.799 98.254 133.029 98.3473 133.306 98.3473C133.593 98.3473 133.823 98.2562 133.996 98.0739C134.17 97.8873 134.257 97.6312 134.257 97.3057C134.257 96.9802 134.17 96.7242 133.996 96.5376C133.823 96.3509 133.593 96.2576 133.306 96.2576ZM139.229 97.169C139.229 97.2602 139.218 97.3643 139.196 97.4815H136.553C136.566 97.8026 136.653 98.0392 136.814 98.1911C136.974 98.343 137.174 98.4189 137.413 98.4189C137.625 98.4189 137.801 98.3668 137.94 98.2627C138.083 98.1585 138.174 98.0175 138.213 97.8395H139.183C139.136 98.0912 139.034 98.3169 138.877 98.5166C138.721 98.7162 138.519 98.8724 138.272 98.9853C138.029 99.0981 137.758 99.1545 137.458 99.1545C137.107 99.1545 136.794 99.0807 136.521 98.9332C136.247 98.7813 136.035 98.5665 135.883 98.2887C135.731 98.011 135.655 97.6833 135.655 97.3057C135.655 96.9282 135.731 96.6005 135.883 96.3227C136.035 96.0406 136.247 95.8258 136.521 95.6783C136.794 95.5307 137.107 95.4569 137.458 95.4569C137.814 95.4569 138.124 95.5307 138.389 95.6783C138.658 95.8258 138.864 96.0298 139.008 96.2902C139.155 96.5462 139.229 96.8392 139.229 97.169ZM138.304 97.0779C138.317 96.7828 138.239 96.5593 138.07 96.4074C137.905 96.2555 137.701 96.1795 137.458 96.1795C137.211 96.1795 137.002 96.2555 136.833 96.4074C136.664 96.5593 136.571 96.7828 136.553 97.0779H138.304ZM141.547 95.4569C141.899 95.4569 142.213 95.5307 142.491 95.6783C142.773 95.8258 142.994 96.0406 143.155 96.3227C143.315 96.6005 143.396 96.9282 143.396 97.3057C143.396 97.6833 143.315 98.011 143.155 98.2887C142.994 98.5665 142.773 98.7813 142.491 98.9332C142.213 99.0807 141.899 99.1545 141.547 99.1545C141.195 99.1545 140.879 99.0807 140.597 98.9332C140.319 98.7813 140.1 98.5665 139.939 98.2887C139.778 98.011 139.698 97.6833 139.698 97.3057C139.698 96.9282 139.778 96.6005 139.939 96.3227C140.1 96.0406 140.319 95.8258 140.597 95.6783C140.879 95.5307 141.195 95.4569 141.547 95.4569ZM141.547 96.2511C141.291 96.2511 141.074 96.3423 140.896 96.5245C140.718 96.7025 140.629 96.9629 140.629 97.3057C140.629 97.6486 140.718 97.9111 140.896 98.0934C141.074 98.2713 141.291 98.3603 141.547 98.3603C141.803 98.3603 142.02 98.2713 142.198 98.0934C142.376 97.9111 142.465 97.6486 142.465 97.3057C142.465 96.9629 142.376 96.7025 142.198 96.5245C142.02 96.3423 141.803 96.2511 141.547 96.2511ZM145.711 95.4569C146.063 95.4569 146.377 95.5307 146.655 95.6783C146.937 95.8258 147.158 96.0406 147.319 96.3227C147.479 96.6005 147.56 96.9282 147.56 97.3057C147.56 97.6833 147.479 98.011 147.319 98.2887C147.158 98.5665 146.937 98.7813 146.655 98.9332C146.377 99.0807 146.063 99.1545 145.711 99.1545C145.359 99.1545 145.043 99.0807 144.761 98.9332C144.483 98.7813 144.264 98.5665 144.103 98.2887C143.942 98.011 143.862 97.6833 143.862 97.3057C143.862 96.9282 143.942 96.6005 144.103 96.3227C144.264 96.0406 144.483 95.8258 144.761 95.6783C145.043 95.5307 145.359 95.4569 145.711 95.4569ZM145.711 96.2511C145.455 96.2511 145.238 96.3423 145.06 96.5245C144.882 96.7025 144.793 96.9629 144.793 97.3057C144.793 97.6486 144.882 97.9111 145.06 98.0934C145.238 98.2713 145.455 98.3603 145.711 98.3603C145.967 98.3603 146.184 98.2713 146.362 98.0934C146.54 97.9111 146.629 97.6486 146.629 97.3057C146.629 96.9629 146.54 96.7025 146.362 96.5245C146.184 96.3423 145.967 96.2511 145.711 96.2511ZM149.126 96.1925C149.261 95.9625 149.439 95.7824 149.66 95.6522C149.881 95.5177 150.129 95.4504 150.402 95.4504V96.4334H150.135C149.463 96.4334 149.126 96.7459 149.126 97.3708V99.1089H148.208V95.5025H149.126V96.1925ZM152.323 95.4569C152.627 95.4569 152.885 95.5285 153.098 95.6718C153.315 95.815 153.471 96.0081 153.566 96.2511V94.2917H154.478V99.1089H153.566V98.3538C153.471 98.5968 153.315 98.7921 153.098 98.9397C152.885 99.0829 152.627 99.1545 152.323 99.1545C152.019 99.1545 151.746 99.0807 151.503 98.9332C151.26 98.7856 151.069 98.573 150.93 98.2952C150.795 98.0131 150.728 97.6833 150.728 97.3057C150.728 96.9282 150.795 96.6005 150.93 96.3227C151.069 96.0406 151.26 95.8258 151.503 95.6783C151.746 95.5307 152.019 95.4569 152.323 95.4569ZM152.609 96.2576C152.323 96.2576 152.093 96.3509 151.919 96.5376C151.746 96.7242 151.659 96.9802 151.659 97.3057C151.659 97.6312 151.746 97.8873 151.919 98.0739C152.093 98.2562 152.323 98.3473 152.609 98.3473C152.887 98.3473 153.115 98.254 153.293 98.0674C153.475 97.8764 153.566 97.6225 153.566 97.3057C153.566 96.9846 153.475 96.7307 153.293 96.5441C153.115 96.3531 152.887 96.2576 152.609 96.2576ZM158.701 97.169C158.701 97.2602 158.69 97.3643 158.669 97.4815H156.026C156.039 97.8026 156.125 98.0392 156.286 98.1911C156.447 98.343 156.646 98.4189 156.885 98.4189C157.098 98.4189 157.273 98.3668 157.412 98.2627C157.555 98.1585 157.647 98.0175 157.686 97.8395H158.656C158.608 98.0912 158.506 98.3169 158.35 98.5166C158.193 98.7162 157.992 98.8724 157.744 98.9853C157.501 99.0981 157.23 99.1545 156.93 99.1545C156.579 99.1545 156.266 99.0807 155.993 98.9332C155.72 98.7813 155.507 98.5665 155.355 98.2887C155.203 98.011 155.127 97.6833 155.127 97.3057C155.127 96.9282 155.203 96.6005 155.355 96.3227C155.507 96.0406 155.72 95.8258 155.993 95.6783C156.266 95.5307 156.579 95.4569 156.93 95.4569C157.286 95.4569 157.597 95.5307 157.861 95.6783C158.13 95.8258 158.337 96.0298 158.48 96.2902C158.627 96.5462 158.701 96.8392 158.701 97.169ZM157.777 97.0779C157.79 96.7828 157.712 96.5593 157.542 96.4074C157.377 96.2555 157.174 96.1795 156.93 96.1795C156.683 96.1795 156.475 96.2555 156.306 96.4074C156.136 96.5593 156.043 96.7828 156.026 97.0779H157.777ZM160.271 94.2917V99.1089H159.353V94.2917H160.271ZM164.493 97.169C164.493 97.2602 164.482 97.3643 164.46 97.4815H161.817C161.83 97.8026 161.917 98.0392 162.077 98.1911C162.238 98.343 162.438 98.4189 162.676 98.4189C162.889 98.4189 163.065 98.3668 163.204 98.2627C163.347 98.1585 163.438 98.0175 163.477 97.8395H164.447C164.399 98.0912 164.297 98.3169 164.141 98.5166C163.985 98.7162 163.783 98.8724 163.536 98.9853C163.293 99.0981 163.021 99.1545 162.722 99.1545C162.37 99.1545 162.058 99.0807 161.785 98.9332C161.511 98.7813 161.298 98.5665 161.147 98.2887C160.995 98.011 160.919 97.6833 160.919 97.3057C160.919 96.9282 160.995 96.6005 161.147 96.3227C161.298 96.0406 161.511 95.8258 161.785 95.6783C162.058 95.5307 162.37 95.4569 162.722 95.4569C163.078 95.4569 163.388 95.5307 163.653 95.6783C163.922 95.8258 164.128 96.0298 164.271 96.2902C164.419 96.5462 164.493 96.8392 164.493 97.169ZM163.568 97.0779C163.581 96.7828 163.503 96.5593 163.334 96.4074C163.169 96.2555 162.965 96.1795 162.722 96.1795C162.475 96.1795 162.266 96.2555 162.097 96.4074C161.928 96.5593 161.834 96.7828 161.817 97.0779H163.568ZM167.292 95.4504C167.709 95.4504 168.041 95.5871 168.288 95.8605C168.536 96.134 168.66 96.518 168.66 97.0128V99.1089H167.748V97.1169C167.748 96.8305 167.674 96.6092 167.527 96.4529C167.379 96.2924 167.177 96.2121 166.921 96.2121C166.661 96.2121 166.453 96.2967 166.296 96.466C166.14 96.6352 166.062 96.8782 166.062 97.1951V99.1089H165.144V95.5025H166.062V96.2251C166.158 95.9821 166.314 95.7933 166.531 95.6587C166.752 95.5199 167.006 95.4504 167.292 95.4504Z" fill="#7780A0"/>
<g filter="url(#filter6_d_2321_26108)">
<rect x="50.2969" y="105.118" width="190.288" height="20.0303" rx="2.34344" fill="#004D93"/>
<g clip-path="url(#clip3_2321_26108)">
<path d="M103.94 111.064C101.696 111.064 99.8711 112.89 99.8711 115.133C99.8711 117.377 101.696 119.202 103.94 119.202C106.183 119.202 108.008 117.377 108.008 115.133C108.008 112.89 106.183 111.064 103.94 111.064ZM105.818 115.446H104.253V117.011H103.627V115.446H102.062V114.82H103.627V113.255H104.253V114.82H105.818V115.446Z" fill="white"/>
</g>
<path d="M113.176 112.33L114.595 116.529L116.022 112.33H117.157L115.279 117.633H113.919L112.041 112.33H113.176ZM119.454 113.419C119.86 113.419 120.223 113.504 120.543 113.675C120.869 113.845 121.124 114.093 121.309 114.418C121.495 114.739 121.587 115.117 121.587 115.553C121.587 115.988 121.495 116.366 121.309 116.687C121.124 117.007 120.869 117.255 120.543 117.43C120.223 117.601 119.86 117.686 119.454 117.686C119.049 117.686 118.683 117.601 118.357 117.43C118.037 117.255 117.784 117.007 117.599 116.687C117.414 116.366 117.321 115.988 117.321 115.553C117.321 115.117 117.414 114.739 117.599 114.418C117.784 114.093 118.037 113.845 118.357 113.675C118.683 113.504 119.049 113.419 119.454 113.419ZM119.454 114.336C119.159 114.336 118.908 114.441 118.703 114.651C118.498 114.856 118.395 115.157 118.395 115.553C118.395 115.948 118.498 116.251 118.703 116.461C118.908 116.667 119.159 116.769 119.454 116.769C119.75 116.769 120 116.667 120.205 116.461C120.411 116.251 120.513 115.948 120.513 115.553C120.513 115.157 120.411 114.856 120.205 114.651C120 114.441 119.75 114.336 119.454 114.336ZM126.053 115.395C126.053 115.5 126.04 115.62 126.015 115.755H122.965C122.98 116.126 123.081 116.399 123.266 116.574C123.451 116.749 123.681 116.837 123.957 116.837C124.202 116.837 124.405 116.777 124.565 116.657C124.731 116.537 124.836 116.374 124.881 116.168H126C125.945 116.459 125.827 116.719 125.647 116.95C125.467 117.18 125.234 117.36 124.948 117.49C124.668 117.621 124.355 117.686 124.009 117.686C123.604 117.686 123.243 117.601 122.928 117.43C122.612 117.255 122.367 117.007 122.192 116.687C122.016 116.366 121.929 115.988 121.929 115.553C121.929 115.117 122.016 114.739 122.192 114.418C122.367 114.093 122.612 113.845 122.928 113.675C123.243 113.504 123.604 113.419 124.009 113.419C124.42 113.419 124.778 113.504 125.084 113.675C125.394 113.845 125.632 114.08 125.797 114.381C125.967 114.676 126.053 115.014 126.053 115.395ZM124.986 115.29C125.001 114.949 124.911 114.691 124.716 114.516C124.525 114.341 124.29 114.253 124.009 114.253C123.724 114.253 123.484 114.341 123.288 114.516C123.093 114.691 122.985 114.949 122.965 115.29H124.986ZM128.238 113.419C128.588 113.419 128.889 113.502 129.139 113.667C129.389 113.832 129.567 114.055 129.672 114.336V113.472H130.724V117.648C130.724 118.034 130.646 118.379 130.491 118.685C130.341 118.995 130.113 119.238 129.807 119.413C129.507 119.589 129.141 119.676 128.711 119.676C128.11 119.676 127.624 119.534 127.254 119.248C126.883 118.963 126.658 118.575 126.578 118.084H127.622C127.682 118.294 127.797 118.457 127.967 118.572C128.142 118.692 128.365 118.752 128.636 118.752C128.946 118.752 129.197 118.66 129.387 118.474C129.577 118.294 129.672 118.019 129.672 117.648V116.762C129.567 117.042 129.389 117.268 129.139 117.438C128.889 117.603 128.588 117.686 128.238 117.686C127.887 117.686 127.572 117.601 127.291 117.43C127.011 117.26 126.79 117.015 126.63 116.694C126.475 116.369 126.397 115.988 126.397 115.553C126.397 115.117 126.475 114.739 126.63 114.418C126.79 114.093 127.011 113.845 127.291 113.675C127.572 113.504 127.887 113.419 128.238 113.419ZM128.568 114.343C128.238 114.343 127.972 114.451 127.772 114.666C127.572 114.882 127.471 115.177 127.471 115.553C127.471 115.928 127.572 116.224 127.772 116.439C127.972 116.649 128.238 116.754 128.568 116.754C128.889 116.754 129.151 116.647 129.357 116.431C129.567 116.211 129.672 115.918 129.672 115.553C129.672 115.182 129.567 114.889 129.357 114.674C129.151 114.453 128.889 114.343 128.568 114.343ZM135.412 113.419C135.763 113.419 136.078 113.504 136.359 113.675C136.639 113.845 136.857 114.093 137.012 114.418C137.172 114.739 137.252 115.117 137.252 115.553C137.252 115.988 137.172 116.369 137.012 116.694C136.857 117.015 136.639 117.26 136.359 117.43C136.078 117.601 135.763 117.686 135.412 117.686C135.062 117.686 134.761 117.603 134.511 117.438C134.265 117.268 134.09 117.042 133.985 116.762V117.633H132.926V112.075H133.985V114.336C134.09 114.055 134.265 113.832 134.511 113.667C134.761 113.502 135.062 113.419 135.412 113.419ZM135.082 114.343C134.761 114.343 134.496 114.453 134.285 114.674C134.08 114.889 133.978 115.182 133.978 115.553C133.978 115.918 134.08 116.211 134.285 116.431C134.496 116.647 134.761 116.754 135.082 116.754C135.412 116.754 135.678 116.649 135.878 116.439C136.078 116.224 136.178 115.928 136.178 115.553C136.178 115.177 136.078 114.882 135.878 114.666C135.678 114.451 135.412 114.343 135.082 114.343ZM141.719 115.395C141.719 115.5 141.706 115.62 141.681 115.755H138.631C138.646 116.126 138.747 116.399 138.932 116.574C139.117 116.749 139.348 116.837 139.623 116.837C139.868 116.837 140.071 116.777 140.231 116.657C140.397 116.537 140.502 116.374 140.547 116.168H141.666C141.611 116.459 141.493 116.719 141.313 116.95C141.133 117.18 140.9 117.36 140.614 117.49C140.334 117.621 140.021 117.686 139.676 117.686C139.27 117.686 138.909 117.601 138.594 117.43C138.278 117.255 138.033 117.007 137.858 116.687C137.683 116.366 137.595 115.988 137.595 115.553C137.595 115.117 137.683 114.739 137.858 114.418C138.033 114.093 138.278 113.845 138.594 113.675C138.909 113.504 139.27 113.419 139.676 113.419C140.086 113.419 140.444 113.504 140.75 113.675C141.06 113.845 141.298 114.08 141.463 114.381C141.634 114.676 141.719 115.014 141.719 115.395ZM140.652 115.29C140.667 114.949 140.577 114.691 140.382 114.516C140.191 114.341 139.956 114.253 139.676 114.253C139.39 114.253 139.15 114.341 138.954 114.516C138.759 114.691 138.651 114.949 138.631 115.29H140.652ZM144.197 113.419C144.602 113.419 144.965 113.504 145.286 113.675C145.611 113.845 145.867 114.093 146.052 114.418C146.237 114.739 146.33 115.117 146.33 115.553C146.33 115.988 146.237 116.366 146.052 116.687C145.867 117.007 145.611 117.255 145.286 117.43C144.965 117.601 144.602 117.686 144.197 117.686C143.791 117.686 143.425 117.601 143.1 117.43C142.779 117.255 142.527 117.007 142.341 116.687C142.156 116.366 142.063 115.988 142.063 115.553C142.063 115.117 142.156 114.739 142.341 114.418C142.527 114.093 142.779 113.845 143.1 113.675C143.425 113.504 143.791 113.419 144.197 113.419ZM144.197 114.336C143.901 114.336 143.651 114.441 143.445 114.651C143.24 114.856 143.138 115.157 143.138 115.553C143.138 115.948 143.24 116.251 143.445 116.461C143.651 116.667 143.901 116.769 144.197 116.769C144.492 116.769 144.742 116.667 144.948 116.461C145.153 116.251 145.256 115.948 145.256 115.553C145.256 115.157 145.153 114.856 144.948 114.651C144.742 114.441 144.492 114.336 144.197 114.336ZM148.805 113.419C149.21 113.419 149.573 113.504 149.894 113.675C150.219 113.845 150.475 114.093 150.66 114.418C150.845 114.739 150.938 115.117 150.938 115.553C150.938 115.988 150.845 116.366 150.66 116.687C150.475 117.007 150.219 117.255 149.894 117.43C149.573 117.601 149.21 117.686 148.805 117.686C148.399 117.686 148.033 117.601 147.708 117.43C147.387 117.255 147.134 117.007 146.949 116.687C146.764 116.366 146.671 115.988 146.671 115.553C146.671 115.117 146.764 114.739 146.949 114.418C147.134 114.093 147.387 113.845 147.708 113.675C148.033 113.504 148.399 113.419 148.805 113.419ZM148.805 114.336C148.509 114.336 148.259 114.441 148.053 114.651C147.848 114.856 147.745 115.157 147.745 115.553C147.745 115.948 147.848 116.251 148.053 116.461C148.259 116.667 148.509 116.769 148.805 116.769C149.1 116.769 149.35 116.667 149.556 116.461C149.761 116.251 149.864 115.948 149.864 115.553C149.864 115.157 149.761 114.856 149.556 114.651C149.35 114.441 149.1 114.336 148.805 114.336ZM152.549 114.268C152.704 114.003 152.909 113.795 153.165 113.645C153.42 113.489 153.705 113.412 154.021 113.412V114.546H153.713C152.937 114.546 152.549 114.907 152.549 115.628V117.633H151.489V113.472H152.549V114.268ZM156.04 113.419C156.391 113.419 156.689 113.502 156.934 113.667C157.184 113.832 157.365 114.055 157.475 114.336V112.075H158.526V117.633H157.475V116.762C157.365 117.042 157.184 117.268 156.934 117.438C156.689 117.603 156.391 117.686 156.04 117.686C155.69 117.686 155.374 117.601 155.094 117.43C154.813 117.26 154.593 117.015 154.433 116.694C154.278 116.369 154.2 115.988 154.2 115.553C154.2 115.117 154.278 114.739 154.433 114.418C154.593 114.093 154.813 113.845 155.094 113.675C155.374 113.504 155.69 113.419 156.04 113.419ZM156.371 114.343C156.04 114.343 155.775 114.451 155.574 114.666C155.374 114.882 155.274 115.177 155.274 115.553C155.274 115.928 155.374 116.224 155.574 116.439C155.775 116.649 156.04 116.754 156.371 116.754C156.691 116.754 156.954 116.647 157.159 116.431C157.37 116.211 157.475 115.918 157.475 115.553C157.475 115.182 157.37 114.889 157.159 114.674C156.954 114.453 156.691 114.343 156.371 114.343ZM163.203 115.395C163.203 115.5 163.19 115.62 163.165 115.755H160.116C160.131 116.126 160.231 116.399 160.416 116.574C160.602 116.749 160.832 116.837 161.107 116.837C161.353 116.837 161.555 116.777 161.716 116.657C161.881 116.537 161.986 116.374 162.031 116.168H163.15C163.095 116.459 162.978 116.719 162.797 116.95C162.617 117.18 162.384 117.36 162.099 117.49C161.818 117.621 161.505 117.686 161.16 117.686C160.754 117.686 160.394 117.601 160.078 117.43C159.763 117.255 159.517 117.007 159.342 116.687C159.167 116.366 159.079 115.988 159.079 115.553C159.079 115.117 159.167 114.739 159.342 114.418C159.517 114.093 159.763 113.845 160.078 113.675C160.394 113.504 160.754 113.419 161.16 113.419C161.57 113.419 161.929 113.504 162.234 113.675C162.544 113.845 162.782 114.08 162.948 114.381C163.118 114.676 163.203 115.014 163.203 115.395ZM162.136 115.29C162.151 114.949 162.061 114.691 161.866 114.516C161.676 114.341 161.44 114.253 161.16 114.253C160.874 114.253 160.634 114.341 160.439 114.516C160.243 114.691 160.136 114.949 160.116 115.29H162.136ZM164.817 112.075V117.633H163.758V112.075H164.817ZM167.208 113.419C167.559 113.419 167.859 113.502 168.11 113.667C168.36 113.832 168.538 114.055 168.643 114.336V113.472H169.695V117.633H168.643V116.762C168.538 117.042 168.36 117.268 168.11 117.438C167.859 117.603 167.559 117.686 167.208 117.686C166.858 117.686 166.542 117.601 166.262 117.43C165.982 117.26 165.761 117.015 165.601 116.694C165.446 116.369 165.368 115.988 165.368 115.553C165.368 115.117 165.446 114.739 165.601 114.418C165.761 114.093 165.982 113.845 166.262 113.675C166.542 113.504 166.858 113.419 167.208 113.419ZM167.539 114.343C167.208 114.343 166.943 114.451 166.743 114.666C166.542 114.882 166.442 115.177 166.442 115.553C166.442 115.928 166.542 116.224 166.743 116.439C166.943 116.649 167.208 116.754 167.539 116.754C167.859 116.754 168.122 116.647 168.328 116.431C168.538 116.211 168.643 115.918 168.643 115.553C168.643 115.182 168.538 114.889 168.328 114.674C168.122 114.453 167.859 114.343 167.539 114.343ZM172.088 113.419C172.438 113.419 172.739 113.502 172.989 113.667C173.239 113.832 173.417 114.055 173.522 114.336V113.472H174.574V117.633H173.522V116.762C173.417 117.042 173.239 117.268 172.989 117.438C172.739 117.603 172.438 117.686 172.088 117.686C171.737 117.686 171.422 117.601 171.141 117.43C170.861 117.26 170.641 117.015 170.48 116.694C170.325 116.369 170.247 115.988 170.247 115.553C170.247 115.117 170.325 114.739 170.48 114.418C170.641 114.093 170.861 113.845 171.141 113.675C171.422 113.504 171.737 113.419 172.088 113.419ZM172.418 114.343C172.088 114.343 171.822 114.451 171.622 114.666C171.422 114.882 171.322 115.177 171.322 115.553C171.322 115.928 171.422 116.224 171.622 116.439C171.822 116.649 172.088 116.754 172.418 116.754C172.739 116.754 173.002 116.647 173.207 116.431C173.417 116.211 173.522 115.918 173.522 115.553C173.522 115.182 173.417 114.889 173.207 114.674C173.002 114.453 172.739 114.343 172.418 114.343ZM176.396 114.268C176.551 114.003 176.757 113.795 177.012 113.645C177.267 113.489 177.553 113.412 177.868 113.412V114.546H177.56C176.784 114.546 176.396 114.907 176.396 115.628V117.633H175.337V113.472H176.396V114.268ZM181.92 116.724V117.633H181.364C180.899 117.633 180.541 117.521 180.29 117.295C180.045 117.07 179.922 116.694 179.922 116.168V114.366H179.344V113.472H179.922V112.443H180.981V113.472H181.913V114.366H180.981V116.183C180.981 116.384 181.021 116.524 181.101 116.604C181.182 116.684 181.317 116.724 181.507 116.724H181.92ZM184.408 113.419C184.814 113.419 185.177 113.504 185.498 113.675C185.823 113.845 186.078 114.093 186.264 114.418C186.449 114.739 186.542 115.117 186.542 115.553C186.542 115.988 186.449 116.366 186.264 116.687C186.078 117.007 185.823 117.255 185.498 117.43C185.177 117.601 184.814 117.686 184.408 117.686C184.003 117.686 183.637 117.601 183.312 117.43C182.991 117.255 182.738 117.007 182.553 116.687C182.368 116.366 182.275 115.988 182.275 115.553C182.275 115.117 182.368 114.739 182.553 114.418C182.738 114.093 182.991 113.845 183.312 113.675C183.637 113.504 184.003 113.419 184.408 113.419ZM184.408 114.336C184.113 114.336 183.863 114.441 183.657 114.651C183.452 114.856 183.349 115.157 183.349 115.553C183.349 115.948 183.452 116.251 183.657 116.461C183.863 116.667 184.113 116.769 184.408 116.769C184.704 116.769 184.954 116.667 185.16 116.461C185.365 116.251 185.468 115.948 185.468 115.553C185.468 115.157 185.365 114.856 185.16 114.651C184.954 114.441 184.704 114.336 184.408 114.336ZM191.007 115.395C191.007 115.5 190.994 115.62 190.969 115.755H187.92C187.935 116.126 188.035 116.399 188.22 116.574C188.405 116.749 188.636 116.837 188.911 116.837C189.157 116.837 189.359 116.777 189.52 116.657C189.685 116.537 189.79 116.374 189.835 116.168H190.954C190.899 116.459 190.782 116.719 190.601 116.95C190.421 117.18 190.188 117.36 189.903 117.49C189.622 117.621 189.309 117.686 188.964 117.686C188.558 117.686 188.198 117.601 187.882 117.43C187.567 117.255 187.321 117.007 187.146 116.687C186.971 116.366 186.883 115.988 186.883 115.553C186.883 115.117 186.971 114.739 187.146 114.418C187.321 114.093 187.567 113.845 187.882 113.675C188.198 113.504 188.558 113.419 188.964 113.419C189.374 113.419 189.732 113.504 190.038 113.675C190.348 113.845 190.586 114.08 190.751 114.381C190.922 114.676 191.007 115.014 191.007 115.395ZM189.94 115.29C189.955 114.949 189.865 114.691 189.67 114.516C189.48 114.341 189.244 114.253 188.964 114.253C188.678 114.253 188.438 114.341 188.243 114.516C188.047 114.691 187.94 114.949 187.92 115.29H189.94Z" fill="white"/>
</g>
</g>
<g filter="url(#filter7_i_2321_26108)">
<rect width="210.318" height="40.0605" transform="translate(40.2812 135.163)" fill="white"/>
<g filter="url(#filter8_d_2321_26108)">
<rect x="50.2969" y="145.179" width="92.64" height="20.0303" rx="1.50227" fill="#004D93"/>
<path d="M79.0574 154.96C79.3779 155.025 79.6333 155.177 79.8235 155.418C80.0188 155.653 80.1165 155.931 80.1165 156.252C80.1165 156.697 79.9663 157.05 79.6658 157.311C79.3704 157.566 78.9397 157.694 78.3739 157.694H76.0979V152.391H78.3288C78.8646 152.391 79.2752 152.508 79.5606 152.744C79.8511 152.979 79.9963 153.31 79.9963 153.735C79.9963 154.066 79.9087 154.336 79.7334 154.546C79.5631 154.757 79.3378 154.894 79.0574 154.96ZM77.157 154.614H78.111C78.3764 154.614 78.5767 154.556 78.7119 154.441C78.8521 154.321 78.9222 154.151 78.9222 153.931C78.9222 153.71 78.8546 153.54 78.7194 153.42C78.5842 153.3 78.3764 153.239 78.0959 153.239H77.157V154.614ZM78.1635 156.83C78.444 156.83 78.6593 156.77 78.8095 156.65C78.9597 156.524 79.0349 156.344 79.0349 156.109C79.0349 155.873 78.9572 155.693 78.802 155.568C78.6518 155.438 78.4364 155.373 78.156 155.373H77.157V156.83H78.1635ZM84.6473 155.455C84.6473 155.56 84.6347 155.681 84.6097 155.816H81.5601C81.5751 156.186 81.6753 156.459 81.8606 156.635C82.0458 156.81 82.2762 156.897 82.5516 156.897C82.797 156.897 82.9998 156.837 83.16 156.717C83.3253 156.597 83.4304 156.434 83.4755 156.229H84.5947C84.5396 156.519 84.4219 156.78 84.2417 157.01C84.0614 157.241 83.8285 157.421 83.5431 157.551C83.2627 157.681 82.9497 157.746 82.6042 157.746C82.1986 157.746 81.838 157.661 81.5225 157.491C81.2071 157.316 80.9617 157.068 80.7864 156.747C80.6112 156.427 80.5235 156.049 80.5235 155.613C80.5235 155.177 80.6112 154.799 80.7864 154.479C80.9617 154.153 81.2071 153.905 81.5225 153.735C81.838 153.565 82.1986 153.48 82.6042 153.48C83.0148 153.48 83.3728 153.565 83.6783 153.735C83.9888 153.905 84.2266 154.141 84.3919 154.441C84.5621 154.737 84.6473 155.075 84.6473 155.455ZM83.5807 155.35C83.5957 155.01 83.5055 154.752 83.3102 154.576C83.12 154.401 82.8846 154.314 82.6042 154.314C82.3187 154.314 82.0784 154.401 81.8831 154.576C81.6878 154.752 81.5801 155.01 81.5601 155.35H83.5807ZM87.0847 156.635L88.1363 153.532H89.263L87.7231 157.694H86.4312L84.8914 153.532H86.0256L87.0847 156.635ZM93.6404 155.455C93.6404 155.56 93.6279 155.681 93.6028 155.816H90.5532C90.5683 156.186 90.6684 156.459 90.8537 156.635C91.039 156.81 91.2693 156.897 91.5447 156.897C91.7901 156.897 91.9929 156.837 92.1532 156.717C92.3184 156.597 92.4236 156.434 92.4686 156.229H93.5878C93.5327 156.519 93.4151 156.78 93.2348 157.01C93.0545 157.241 92.8217 157.421 92.5362 157.551C92.2558 157.681 91.9428 157.746 91.5973 157.746C91.1917 157.746 90.8312 157.661 90.5157 157.491C90.2002 157.316 89.9548 157.068 89.7796 156.747C89.6043 156.427 89.5167 156.049 89.5167 155.613C89.5167 155.177 89.6043 154.799 89.7796 154.479C89.9548 154.153 90.2002 153.905 90.5157 153.735C90.8312 153.565 91.1917 153.48 91.5973 153.48C92.0079 153.48 92.366 153.565 92.6714 153.735C92.9819 153.905 93.2198 154.141 93.385 154.441C93.5553 154.737 93.6404 155.075 93.6404 155.455ZM92.5738 155.35C92.5888 155.01 92.4987 154.752 92.3034 154.576C92.1131 154.401 91.8777 154.314 91.5973 154.314C91.3119 154.314 91.0715 154.401 90.8762 154.576C90.6809 154.752 90.5733 155.01 90.5532 155.35H92.5738ZM95.7022 153.48C96.208 153.48 96.6136 153.608 96.9191 153.863C97.2245 154.118 97.4148 154.459 97.4899 154.884H96.4984C96.4584 154.684 96.3682 154.524 96.228 154.404C96.0878 154.284 95.905 154.223 95.6797 154.223C95.4994 154.223 95.3592 154.266 95.2591 154.351C95.1589 154.436 95.1088 154.551 95.1088 154.697C95.1088 154.812 95.1489 154.904 95.229 154.975C95.3091 155.045 95.4093 155.1 95.5295 155.14C95.6497 155.18 95.8224 155.227 96.0478 155.283C96.3632 155.353 96.6186 155.428 96.8139 155.508C97.0142 155.583 97.1845 155.706 97.3247 155.876C97.4699 156.041 97.5425 156.267 97.5425 156.552C97.5425 156.908 97.4023 157.195 97.1219 157.416C96.8465 157.636 96.4734 157.746 96.0027 157.746C95.4619 157.746 95.0287 157.626 94.7032 157.386C94.3777 157.14 94.1799 156.792 94.1098 156.342H95.1239C95.1489 156.547 95.239 156.71 95.3943 156.83C95.5495 156.945 95.7523 157.003 96.0027 157.003C96.183 157.003 96.3207 156.96 96.4158 156.875C96.511 156.785 96.5585 156.67 96.5585 156.529C96.5585 156.409 96.516 156.312 96.4308 156.236C96.3507 156.161 96.2481 156.104 96.1229 156.064C96.0027 156.024 95.8299 155.976 95.6046 155.921C95.2941 155.851 95.0412 155.781 94.8459 155.711C94.6557 155.636 94.4904 155.518 94.3502 155.358C94.215 155.197 94.1474 154.977 94.1474 154.697C94.1474 154.336 94.2851 154.043 94.5605 153.818C94.8359 153.592 95.2165 153.48 95.7022 153.48ZM100.43 156.785V157.694H99.8742C99.4085 157.694 99.0504 157.581 98.8001 157.356C98.5547 157.13 98.432 156.755 98.432 156.229V154.426H97.8536V153.532H98.432V152.503H99.4911V153.532H100.423V154.426H99.4911V156.244C99.4911 156.444 99.5312 156.585 99.6113 156.665C99.6914 156.745 99.8266 156.785 100.017 156.785H100.43ZM100.947 152.338C100.947 152.168 101.007 152.03 101.128 151.925C101.248 151.815 101.405 151.76 101.601 151.76C101.796 151.76 101.954 151.815 102.074 151.925C102.194 152.03 102.254 152.168 102.254 152.338C102.254 152.503 102.194 152.641 102.074 152.751C101.954 152.856 101.796 152.909 101.601 152.909C101.405 152.909 101.248 152.856 101.128 152.751C101.007 152.641 100.947 152.503 100.947 152.338ZM102.127 153.532V157.694H101.067V153.532H102.127ZM104.59 153.48C104.94 153.48 105.241 153.562 105.491 153.728C105.742 153.893 105.919 154.116 106.025 154.396V153.532H107.076V157.709C107.076 158.094 106.999 158.44 106.843 158.745C106.693 159.056 106.465 159.299 106.16 159.474C105.859 159.649 105.494 159.737 105.063 159.737C104.462 159.737 103.977 159.594 103.606 159.309C103.235 159.023 103.01 158.635 102.93 158.144H103.974C104.034 158.355 104.149 158.517 104.32 158.633C104.495 158.753 104.718 158.813 104.988 158.813C105.299 158.813 105.549 158.72 105.739 158.535C105.929 158.355 106.025 158.079 106.025 157.709V156.822C105.919 157.103 105.742 157.328 105.491 157.498C105.241 157.664 104.94 157.746 104.59 157.746C104.239 157.746 103.924 157.661 103.644 157.491C103.363 157.321 103.143 157.075 102.983 156.755C102.827 156.429 102.75 156.049 102.75 155.613C102.75 155.177 102.827 154.799 102.983 154.479C103.143 154.153 103.363 153.905 103.644 153.735C103.924 153.565 104.239 153.48 104.59 153.48ZM104.92 154.404C104.59 154.404 104.325 154.511 104.124 154.727C103.924 154.942 103.824 155.237 103.824 155.613C103.824 155.989 103.924 156.284 104.124 156.499C104.325 156.71 104.59 156.815 104.92 156.815C105.241 156.815 105.504 156.707 105.709 156.492C105.919 156.272 106.025 155.979 106.025 155.613C106.025 155.242 105.919 154.95 105.709 154.734C105.504 154.514 105.241 154.404 104.92 154.404ZM111.825 155.455C111.825 155.56 111.812 155.681 111.787 155.816H108.738C108.753 156.186 108.853 156.459 109.038 156.635C109.223 156.81 109.454 156.897 109.729 156.897C109.974 156.897 110.177 156.837 110.338 156.717C110.503 156.597 110.608 156.434 110.653 156.229H111.772C111.717 156.519 111.599 156.78 111.419 157.01C111.239 157.241 111.006 157.421 110.721 157.551C110.44 157.681 110.127 157.746 109.782 157.746C109.376 157.746 109.016 157.661 108.7 157.491C108.385 157.316 108.139 157.068 107.964 156.747C107.789 156.427 107.701 156.049 107.701 155.613C107.701 155.177 107.789 154.799 107.964 154.479C108.139 154.153 108.385 153.905 108.7 153.735C109.016 153.565 109.376 153.48 109.782 153.48C110.192 153.48 110.55 153.565 110.856 153.735C111.166 153.905 111.404 154.141 111.569 154.441C111.74 154.737 111.825 155.075 111.825 155.455ZM110.758 155.35C110.773 155.01 110.683 154.752 110.488 154.576C110.297 154.401 110.062 154.314 109.782 154.314C109.496 154.314 109.256 154.401 109.061 154.576C108.865 154.752 108.758 155.01 108.738 155.35H110.758ZM114.931 153.472C115.411 153.472 115.794 153.63 116.08 153.946C116.365 154.261 116.508 154.704 116.508 155.275V157.694H115.456V155.395C115.456 155.065 115.371 154.809 115.201 154.629C115.031 154.444 114.798 154.351 114.503 154.351C114.202 154.351 113.962 154.449 113.781 154.644C113.601 154.839 113.511 155.12 113.511 155.485V157.694H112.452V153.532H113.511V154.366C113.621 154.086 113.801 153.868 114.052 153.713C114.307 153.552 114.6 153.472 114.931 153.472Z" fill="white"/>
</g>
<g filter="url(#filter9_d_2321_26108)">
<rect x="147.943" y="145.179" width="92.64" height="20.0303" rx="1.50227" fill="white"/>
<rect x="148.143" y="145.378" width="92.2404" height="19.6307" rx="1.30248" stroke="#E3E4EA" stroke-width="0.399586"/>
<path d="M178.474 156.627H176.349L175.973 157.694H174.854L176.807 152.451H178.016L179.962 157.694H178.842L178.474 156.627ZM178.189 155.823L177.408 153.585L176.626 155.823H178.189ZM182.887 153.472C183.368 153.472 183.751 153.63 184.036 153.946C184.322 154.261 184.465 154.704 184.465 155.275V157.694H183.413V155.395C183.413 155.065 183.328 154.809 183.158 154.629C182.987 154.444 182.755 154.351 182.459 154.351C182.159 154.351 181.918 154.449 181.738 154.644C181.558 154.839 181.468 155.12 181.468 155.485V157.694H180.408V153.532H181.468V154.366C181.578 154.086 181.758 153.868 182.008 153.713C182.264 153.552 182.557 153.472 182.887 153.472ZM187.751 153.472C188.231 153.472 188.614 153.63 188.9 153.946C189.185 154.261 189.328 154.704 189.328 155.275V157.694H188.276V155.395C188.276 155.065 188.191 154.809 188.021 154.629C187.851 154.444 187.618 154.351 187.322 154.351C187.022 154.351 186.782 154.449 186.601 154.644C186.421 154.839 186.331 155.12 186.331 155.485V157.694H185.272V153.532H186.331V154.366C186.441 154.086 186.621 153.868 186.872 153.713C187.127 153.552 187.42 153.472 187.751 153.472ZM194.116 153.532V157.694H193.057V156.852C192.947 157.133 192.764 157.353 192.509 157.513C192.258 157.669 191.968 157.746 191.637 157.746C191.157 157.746 190.774 157.589 190.488 157.273C190.203 156.958 190.06 156.517 190.06 155.951V153.532H191.112V155.831C191.112 156.161 191.197 156.419 191.367 156.605C191.537 156.785 191.768 156.875 192.058 156.875C192.364 156.875 192.606 156.777 192.787 156.582C192.967 156.387 193.057 156.106 193.057 155.741V153.532H194.116ZM196.014 152.135V157.694H194.954V152.135H196.014ZM200.76 155.455C200.76 155.56 200.748 155.681 200.723 155.816H197.673C197.688 156.186 197.788 156.459 197.974 156.635C198.159 156.81 198.389 156.897 198.665 156.897C198.91 156.897 199.113 156.837 199.273 156.717C199.438 156.597 199.544 156.434 199.589 156.229H200.708C200.653 156.519 200.535 156.78 200.355 157.01C200.175 157.241 199.942 157.421 199.656 157.551C199.376 157.681 199.063 157.746 198.717 157.746C198.312 157.746 197.951 157.661 197.636 157.491C197.32 157.316 197.075 157.068 196.9 156.747C196.724 156.427 196.637 156.049 196.637 155.613C196.637 155.177 196.724 154.799 196.9 154.479C197.075 154.153 197.32 153.905 197.636 153.735C197.951 153.565 198.312 153.48 198.717 153.48C199.128 153.48 199.486 153.565 199.791 153.735C200.102 153.905 200.34 154.141 200.505 154.441C200.675 154.737 200.76 155.075 200.76 155.455ZM199.694 155.35C199.709 155.01 199.619 154.752 199.423 154.576C199.233 154.401 198.998 154.314 198.717 154.314C198.432 154.314 198.192 154.401 197.996 154.576C197.801 154.752 197.693 155.01 197.673 155.35H199.694ZM202.447 154.329C202.602 154.063 202.807 153.855 203.063 153.705C203.318 153.55 203.603 153.472 203.919 153.472V154.607H203.611C202.835 154.607 202.447 154.967 202.447 155.688V157.694H201.388V153.532H202.447V154.329ZM208.294 155.455C208.294 155.56 208.281 155.681 208.256 155.816H205.207C205.222 156.186 205.322 156.459 205.507 156.635C205.692 156.81 205.923 156.897 206.198 156.897C206.444 156.897 206.646 156.837 206.807 156.717C206.972 156.597 207.077 156.434 207.122 156.229H208.241C208.186 156.519 208.068 156.78 207.888 157.01C207.708 157.241 207.475 157.421 207.19 157.551C206.909 157.681 206.596 157.746 206.251 157.746C205.845 157.746 205.485 157.661 205.169 157.491C204.854 157.316 204.608 157.068 204.433 156.747C204.258 156.427 204.17 156.049 204.17 155.613C204.17 155.177 204.258 154.799 204.433 154.479C204.608 154.153 204.854 153.905 205.169 153.735C205.485 153.565 205.845 153.48 206.251 153.48C206.661 153.48 207.019 153.565 207.325 153.735C207.635 153.905 207.873 154.141 208.038 154.441C208.209 154.737 208.294 155.075 208.294 155.455ZM207.227 155.35C207.242 155.01 207.152 154.752 206.957 154.576C206.767 154.401 206.531 154.314 206.251 154.314C205.965 154.314 205.725 154.401 205.53 154.576C205.334 154.752 205.227 155.01 205.207 155.35H207.227ZM211.4 153.472C211.88 153.472 212.264 153.63 212.549 153.946C212.834 154.261 212.977 154.704 212.977 155.275V157.694H211.926V155.395C211.926 155.065 211.84 154.809 211.67 154.629C211.5 154.444 211.267 154.351 210.972 154.351C210.671 154.351 210.431 154.449 210.251 154.644C210.07 154.839 209.98 155.12 209.98 155.485V157.694H208.921V153.532H209.98V154.366C210.09 154.086 210.271 153.868 210.521 153.713C210.776 153.552 211.069 153.472 211.4 153.472Z" fill="#2A2B2D"/>
</g>
</g>
</g>
<rect x="40.2812" y="17" width="210.318" height="158.224" rx="5.48503" stroke="#DCDCE0" stroke-width="1.09701"/>
</g>
<defs>
<filter id="filter0_d_2321_26108" x="0.671741" y="0.827236" width="289.537" height="237.442" filterUnits="userSpaceOnUse" color-interpolation-filters="sRGB">
<feFlood flood-opacity="0" result="BackgroundImageFix"/>
<feColorMatrix in="SourceAlpha" type="matrix" values="0 0 0 0 0 0 0 0 0 0 0 0 0 0 0 0 0 0 127 0" result="hardAlpha"/>
<feOffset dy="23.4364"/>
<feGaussianBlur stdDeviation="19.5303"/>
<feColorMatrix type="matrix" values="0 0 0 0 0.882353 0 0 0 0 0.886275 0 0 0 0 0.909804 0 0 0 1 0"/>
<feBlend mode="multiply" in2="BackgroundImageFix" result="effect1_dropShadow_2321_26108"/>
<feBlend mode="normal" in="SourceGraphic" in2="effect1_dropShadow_2321_26108" result="shape"/>
</filter>
<filter id="filter1_i_2321_26108" x="40.2812" y="17" width="210.318" height="26.0393" filterUnits="userSpaceOnUse" color-interpolation-filters="sRGB">
<feFlood flood-opacity="0" result="BackgroundImageFix"/>
<feBlend mode="normal" in="SourceGraphic" in2="BackgroundImageFix" result="shape"/>
<feColorMatrix in="SourceAlpha" type="matrix" values="0 0 0 0 0 0 0 0 0 0 0 0 0 0 0 0 0 0 127 0" result="hardAlpha"/>
<feOffset dy="-0.622266"/>
<feComposite in2="hardAlpha" operator="arithmetic" k2="-1" k3="1"/>
<feColorMatrix type="matrix" values="0 0 0 0 0.831373 0 0 0 0 0.85098 0 0 0 0 0.866667 0 0 0 1 0"/>
<feBlend mode="normal" in2="shape" result="effect1_innerShadow_2321_26108"/>
</filter>
<filter id="filter2_d_2321_26108" x="197.662" y="23.1154" width="15.3688" height="15.0022" filterUnits="userSpaceOnUse" color-interpolation-filters="sRGB">
<feFlood flood-opacity="0" result="BackgroundImageFix"/>
<feColorMatrix in="SourceAlpha" type="matrix" values="0 0 0 0 0 0 0 0 0 0 0 0 0 0 0 0 0 0 127 0" result="hardAlpha"/>
<feOffset dy="0.596804"/>
<feGaussianBlur stdDeviation="0.746005"/>
<feColorMatrix type="matrix" values="0 0 0 0 0.882353 0 0 0 0 0.886275 0 0 0 0 0.909804 0 0 0 1 0"/>
<feBlend mode="multiply" in2="BackgroundImageFix" result="effect1_dropShadow_2321_26108"/>
<feBlend mode="normal" in="SourceGraphic" in2="effect1_dropShadow_2321_26108" result="shape"/>
</filter>
<filter id="filter3_d_2321_26108" x="213.803" y="22.865" width="15.5016" height="15.5029" filterUnits="userSpaceOnUse" color-interpolation-filters="sRGB">
<feFlood flood-opacity="0" result="BackgroundImageFix"/>
<feColorMatrix in="SourceAlpha" type="matrix" values="0 0 0 0 0 0 0 0 0 0 0 0 0 0 0 0 0 0 127 0" result="hardAlpha"/>
<feOffset dy="0.596804"/>
<feGaussianBlur stdDeviation="0.746005"/>
<feColorMatrix type="matrix" values="0 0 0 0 0.882353 0 0 0 0 0.886275 0 0 0 0 0.909804 0 0 0 1 0"/>
<feBlend mode="multiply" in2="BackgroundImageFix" result="effect1_dropShadow_2321_26108"/>
<feBlend mode="normal" in="SourceGraphic" in2="effect1_dropShadow_2321_26108" result="shape"/>
</filter>
<filter id="filter4_d_2321_26108" x="229.828" y="22.865" width="15.5016" height="15.5029" filterUnits="userSpaceOnUse" color-interpolation-filters="sRGB">
<feFlood flood-opacity="0" result="BackgroundImageFix"/>
<feColorMatrix in="SourceAlpha" type="matrix" values="0 0 0 0 0 0 0 0 0 0 0 0 0 0 0 0 0 0 127 0" result="hardAlpha"/>
<feOffset dy="0.596804"/>
<feGaussianBlur stdDeviation="0.746005"/>
<feColorMatrix type="matrix" values="0 0 0 0 0.882353 0 0 0 0 0.886275 0 0 0 0 0.909804 0 0 0 1 0"/>
<feBlend mode="multiply" in2="BackgroundImageFix" result="effect1_dropShadow_2321_26108"/>
<feBlend mode="normal" in="SourceGraphic" in2="effect1_dropShadow_2321_26108" result="shape"/>
</filter>
<filter id="filter5_i_2321_26108" x="40.2812" y="43.0393" width="210.318" height="92.1241" filterUnits="userSpaceOnUse" color-interpolation-filters="sRGB">
<feFlood flood-opacity="0" result="BackgroundImageFix"/>
<feBlend mode="normal" in="SourceGraphic" in2="BackgroundImageFix" result="shape"/>
<feColorMatrix in="SourceAlpha" type="matrix" values="0 0 0 0 0 0 0 0 0 0 0 0 0 0 0 0 0 0 127 0" result="hardAlpha"/>
<feOffset dy="-0.500757"/>
<feComposite in2="hardAlpha" operator="arithmetic" k2="-1" k3="1"/>
<feColorMatrix type="matrix" values="0 0 0 0 0.831373 0 0 0 0 0.85098 0 0 0 0 0.866667 0 0 0 1 0"/>
<feBlend mode="normal" in2="shape" result="effect1_innerShadow_2321_26108"/>
</filter>
<filter id="filter6_d_2321_26108" x="47.9534" y="103.712" width="194.974" height="24.7171" filterUnits="userSpaceOnUse" color-interpolation-filters="sRGB">
<feFlood flood-opacity="0" result="BackgroundImageFix"/>
<feColorMatrix in="SourceAlpha" type="matrix" values="0 0 0 0 0 0 0 0 0 0 0 0 0 0 0 0 0 0 127 0" result="hardAlpha"/>
<feOffset dy="0.937375"/>
<feGaussianBlur stdDeviation="1.17172"/>
<feColorMatrix type="matrix" values="0 0 0 0 0.882353 0 0 0 0 0.886275 0 0 0 0 0.909804 0 0 0 1 0"/>
<feBlend mode="multiply" in2="BackgroundImageFix" result="effect1_dropShadow_2321_26108"/>
<feBlend mode="normal" in="SourceGraphic" in2="effect1_dropShadow_2321_26108" result="shape"/>
</filter>
<filter id="filter7_i_2321_26108" x="40.2812" y="135.163" width="210.318" height="40.0605" filterUnits="userSpaceOnUse" color-interpolation-filters="sRGB">
<feFlood flood-opacity="0" result="BackgroundImageFix"/>
<feBlend mode="normal" in="SourceGraphic" in2="BackgroundImageFix" result="shape"/>
<feColorMatrix in="SourceAlpha" type="matrix" values="0 0 0 0 0 0 0 0 0 0 0 0 0 0 0 0 0 0 127 0" result="hardAlpha"/>
<feOffset dy="-0.500757"/>
<feComposite in2="hardAlpha" operator="arithmetic" k2="-1" k3="1"/>
<feColorMatrix type="matrix" values="0 0 0 0 0.831373 0 0 0 0 0.85098 0 0 0 0 0.866667 0 0 0 1 0"/>
<feBlend mode="normal" in2="shape" result="effect1_innerShadow_2321_26108"/>
</filter>
<filter id="filter8_d_2321_26108" x="48.2989" y="143.98" width="96.6365" height="24.0261" filterUnits="userSpaceOnUse" color-interpolation-filters="sRGB">
<feFlood flood-opacity="0" result="BackgroundImageFix"/>
<feColorMatrix in="SourceAlpha" type="matrix" values="0 0 0 0 0 0 0 0 0 0 0 0 0 0 0 0 0 0 127 0" result="hardAlpha"/>
<feOffset dy="0.799173"/>
<feGaussianBlur stdDeviation="0.998966"/>
<feColorMatrix type="matrix" values="0 0 0 0 0.0980392 0 0 0 0 0.152941 0 0 0 0 0.203922 0 0 0 0.11 0"/>
<feBlend mode="normal" in2="BackgroundImageFix" result="effect1_dropShadow_2321_26108"/>
<feBlend mode="normal" in="SourceGraphic" in2="effect1_dropShadow_2321_26108" result="shape"/>
</filter>
<filter id="filter9_d_2321_26108" x="145.945" y="143.98" width="96.6365" height="24.0261" filterUnits="userSpaceOnUse" color-interpolation-filters="sRGB">
<feFlood flood-opacity="0" result="BackgroundImageFix"/>
<feColorMatrix in="SourceAlpha" type="matrix" values="0 0 0 0 0 0 0 0 0 0 0 0 0 0 0 0 0 0 127 0" result="hardAlpha"/>
<feOffset dy="0.799173"/>
<feGaussianBlur stdDeviation="0.998966"/>
<feColorMatrix type="matrix" values="0 0 0 0 0.0980392 0 0 0 0 0.152941 0 0 0 0 0.203922 0 0 0 0.11 0"/>
<feBlend mode="normal" in2="BackgroundImageFix" result="effect1_dropShadow_2321_26108"/>
<feBlend mode="normal" in="SourceGraphic" in2="effect1_dropShadow_2321_26108" result="shape"/>
</filter>
<clipPath id="clip0_2321_26108">
<rect x="40.2812" y="17" width="210.318" height="158.224" rx="5.48503" fill="white"/>
</clipPath>
<clipPath id="clip1_2321_26108">
<rect width="6.00908" height="6.00908" fill="white" transform="translate(202.342 27.0151)"/>
</clipPath>
<clipPath id="clip2_2321_26108">
<rect width="7.01059" height="7.01059" fill="white" transform="translate(234.074 26.5145)"/>
</clipPath>
<clipPath id="clip3_2321_26108">
<rect width="10.0151" height="10.0151" fill="white" transform="translate(98.9316 110.126)"/>
</clipPath>
</defs>
</svg>
