<?xml version="1.0" encoding="UTF-8" standalone="no"?>
<svg
   width="464"
   height="128.88901"
   viewBox="0 0 464 128.88901"
   fill="none"
   version="1.1"
   id="svg147"
   sodipodi:docname="aspects-3-2.svg"
   inkscape:version="1.1.2 (0a00cf5339, 2022-02-04)"
   xmlns:inkscape="http://www.inkscape.org/namespaces/inkscape"
   xmlns:sodipodi="http://sodipodi.sourceforge.net/DTD/sodipodi-0.dtd"
   xmlns="http://www.w3.org/2000/svg"
   xmlns:svg="http://www.w3.org/2000/svg">
  <sodipodi:namedview
     id="namedview149"
     pagecolor="#ffffff"
     bordercolor="#666666"
     borderopacity="1.0"
     inkscape:pageshadow="2"
     inkscape:pageopacity="0.0"
     inkscape:pagecheckerboard="0"
     showgrid="false"
     fit-margin-top="0"
     fit-margin-left="0"
     fit-margin-right="0"
     fit-margin-bottom="0"
     inkscape:zoom="0.80457612"
     inkscape:cx="84.516552"
     inkscape:cy="192.02658"
     inkscape:window-width="1920"
     inkscape:window-height="1017"
     inkscape:window-x="0"
     inkscape:window-y="0"
     inkscape:window-maximized="1"
     inkscape:current-layer="g82" />
  <g
     filter="url(#filter0_bd_2318_32341)"
     id="g86"
     transform="translate(-60,-35)">
    <g
       clip-path="url(#clip0_2318_32341)"
       id="g82">
      <rect
         x="60"
         y="35"
         width="464"
         height="128.88901"
         rx="15.4667"
         fill="#ffffff"
         fill-opacity="0.75"
         id="rect2" />
      <rect
         width="128.88901"
         height="128.88901"
         transform="translate(60,35)"
         fill="url(#paint0_linear_2318_32341)"
         id="rect4"
         x="0"
         y="0"
         style="fill:url(#paint0_linear_2318_32341)" />
      <rect
         width="128.88901"
         height="128.88901"
         transform="translate(60,35)"
         fill="#ffffff"
         fill-opacity="0.75"
         id="rect6"
         x="0"
         y="0" />
      <rect
         x="72.888702"
         y="47.888901"
         width="103.111"
         height="103.111"
         rx="7.7333298"
         fill="url(#paint1_linear_2318_32341)"
         id="rect8"
         style="fill:url(#paint1_linear_2318_32341)" />
      <path
         d="m 107.727,90.9409 24.221,-13.5206 c 0.716,-0.3996 1.561,-0.4985 2.35,-0.2748 0.789,0.2237 1.456,0.7515 1.856,1.4674 l 2.338,4.1887 c 0.174,0.3048 0.238,0.6605 0.18,1.0068 -0.058,0.3463 -0.234,0.6619 -0.498,0.8931 -0.881,0.7506 -1.534,1.7332 -1.884,2.8361 -0.351,1.1029 -0.385,2.2819 -0.099,3.4033 l -0.155,2.3188 h -28.598 z"
         fill="#ed133c"
         id="path10" />
      <path
         d="m 140.675,106.4 c 0,1.431 0.496,2.818 1.403,3.924 0.908,1.107 2.171,1.864 3.574,2.144 0.344,0.072 0.652,0.261 0.871,0.534 0.22,0.274 0.339,0.615 0.335,0.966 v 4.8 c 0,0.82 -0.326,1.606 -0.905,2.186 -0.58,0.58 -1.367,0.906 -2.187,0.906 h -38.647 c -0.82,0 -1.606,-0.326 -2.186,-0.906 -0.58,-0.58 -0.906,-1.366 -0.906,-2.186 V 94.033 c 0,-0.82 0.326,-1.6064 0.906,-2.1862 0.58,-0.5799 1.366,-0.9056 2.186,-0.9056 h 38.647 c 0.82,0 1.607,0.3257 2.187,0.9056 0.579,0.5798 0.905,1.3662 0.905,2.1862 v 4.8001 c 0.004,0.3508 -0.115,0.692 -0.335,0.9654 -0.219,0.2735 -0.527,0.4625 -0.871,0.5345 -1.403,0.279 -2.666,1.037 -3.574,2.143 -0.907,1.107 -1.403,2.493 -1.403,3.924 z"
         fill="#e0eeff"
         id="path12" />
      <path
         d="m 135.265,119.541 v 2.319 h -1.546 v -2.319 c 0,-0.205 0.081,-0.401 0.226,-0.546 0.145,-0.145 0.342,-0.227 0.547,-0.227 0.205,0 0.401,0.082 0.546,0.227 0.145,0.145 0.227,0.341 0.227,0.546 z"
         fill="#3367aa"
         id="path14" />
      <path
         d="m 134.492,114.13 c -0.205,0 -0.402,0.082 -0.547,0.227 -0.145,0.145 -0.226,0.341 -0.226,0.546 v 1.546 c 0,0.205 0.081,0.402 0.226,0.547 0.145,0.145 0.342,0.226 0.547,0.226 0.205,0 0.401,-0.081 0.546,-0.226 0.145,-0.145 0.227,-0.342 0.227,-0.547 v -1.546 c 0,-0.205 -0.082,-0.401 -0.227,-0.546 -0.145,-0.145 -0.341,-0.227 -0.546,-0.227 z"
         fill="#3367aa"
         id="path16" />
      <path
         d="m 134.492,109.493 c -0.205,0 -0.402,0.081 -0.547,0.226 -0.145,0.145 -0.226,0.342 -0.226,0.547 v 1.546 c 0,0.205 0.081,0.401 0.226,0.546 0.145,0.145 0.342,0.227 0.547,0.227 0.205,0 0.401,-0.082 0.546,-0.227 0.145,-0.145 0.227,-0.341 0.227,-0.546 v -1.546 c 0,-0.205 -0.082,-0.402 -0.227,-0.547 -0.145,-0.145 -0.341,-0.226 -0.546,-0.226 z"
         fill="#3367aa"
         id="path18" />
      <path
         d="m 134.492,104.855 c -0.205,0 -0.402,0.081 -0.547,0.226 -0.145,0.145 -0.226,0.342 -0.226,0.547 v 1.546 c 0,0.205 0.081,0.401 0.226,0.546 0.145,0.145 0.342,0.227 0.547,0.227 0.205,0 0.401,-0.082 0.546,-0.227 0.145,-0.145 0.227,-0.341 0.227,-0.546 v -1.546 c 0,-0.205 -0.082,-0.402 -0.227,-0.547 -0.145,-0.145 -0.341,-0.226 -0.546,-0.226 z"
         fill="#3367aa"
         id="path20" />
      <path
         d="m 134.492,100.217 c -0.205,0 -0.402,0.082 -0.547,0.227 -0.145,0.145 -0.226,0.341 -0.226,0.546 v 1.546 c 0,0.205 0.081,0.402 0.226,0.547 0.145,0.145 0.342,0.226 0.547,0.226 0.205,0 0.401,-0.081 0.546,-0.226 0.145,-0.145 0.227,-0.342 0.227,-0.547 v -1.546 c 0,-0.205 -0.082,-0.401 -0.227,-0.546 -0.145,-0.145 -0.341,-0.227 -0.546,-0.227 z"
         fill="#3367aa"
         id="path22" />
      <path
         d="m 134.492,95.5792 c -0.205,0 -0.402,0.0814 -0.547,0.2264 -0.145,0.1449 -0.226,0.3415 -0.226,0.5465 v 1.5459 c 0,0.205 0.081,0.4016 0.226,0.5466 0.145,0.145 0.342,0.2264 0.547,0.2264 0.205,0 0.401,-0.0814 0.546,-0.2264 0.145,-0.145 0.227,-0.3416 0.227,-0.5466 v -1.5459 c 0,-0.205 -0.082,-0.4016 -0.227,-0.5465 -0.145,-0.145 -0.341,-0.2264 -0.546,-0.2264 z"
         fill="#3367aa"
         id="path24" />
      <path
         d="m 135.265,90.9416 v 2.3188 c 0,0.205 -0.082,0.4016 -0.227,0.5466 -0.145,0.145 -0.341,0.2264 -0.546,0.2264 -0.205,0 -0.402,-0.0814 -0.547,-0.2264 -0.145,-0.145 -0.226,-0.3416 -0.226,-0.5466 v -2.3188 z"
         fill="#3367aa"
         id="path26" />
      <path
         fill-rule="evenodd"
         clip-rule="evenodd"
         d="m 109.658,98.8742 c 0,-0.4869 0.395,-0.8816 0.882,-0.8816 h 6.171 c 0.487,0 0.882,0.3947 0.882,0.8816 v 6.1718 c 0,0.487 -0.395,0.881 -0.882,0.881 h -6.171 c -0.487,0 -0.882,-0.394 -0.882,-0.881 z m 2.645,2.6448 c 0,-0.487 0.395,-0.881 0.882,-0.881 h 0.881 c 0.487,0 0.882,0.394 0.882,0.881 v 0.882 c 0,0.487 -0.395,0.882 -0.882,0.882 h -0.881 c -0.487,0 -0.882,-0.395 -0.882,-0.882 z"
         fill="#004195"
         id="path28" />
      <path
         fill-rule="evenodd"
         clip-rule="evenodd"
         d="m 109.658,108.572 c 0,-0.487 0.395,-0.881 0.882,-0.881 h 6.171 c 0.487,0 0.882,0.394 0.882,0.881 v 6.172 c 0,0.487 -0.395,0.882 -0.882,0.882 h -6.171 c -0.487,0 -0.882,-0.395 -0.882,-0.882 z m 3.527,1.764 c -0.487,0 -0.882,0.394 -0.882,0.881 v 0.882 c 0,0.487 0.395,0.882 0.882,0.882 h 0.881 c 0.487,0 0.882,-0.395 0.882,-0.882 v -0.882 c 0,-0.487 -0.395,-0.881 -0.882,-0.881 z"
         fill="#004195"
         id="path30" />
      <path
         fill-rule="evenodd"
         clip-rule="evenodd"
         d="m 120.239,97.9926 c -0.487,0 -0.882,0.3947 -0.882,0.8816 v 6.1718 c 0,0.487 0.395,0.881 0.882,0.881 h 6.172 c 0.486,0 0.881,-0.394 0.881,-0.881 v -6.1718 c 0,-0.4869 -0.395,-0.8816 -0.881,-0.8816 z m 1.763,3.5264 c 0,-0.487 0.395,-0.881 0.882,-0.881 h 0.882 c 0.487,0 0.881,0.394 0.881,0.881 v 0.882 c 0,0.487 -0.394,0.881 -0.881,0.881 h -0.882 c -0.487,0 -0.882,-0.394 -0.882,-0.881 z"
         fill="#004195"
         id="path32" />
      <path
         d="m 120.239,107.691 c -0.487,0 -0.882,0.394 -0.882,0.881 v 0.882 c 0,0.487 0.395,0.882 0.882,0.882 h 0.882 v 1.763 c 0,0.487 0.394,0.882 0.881,0.882 h 0.882 c 0.487,0 0.882,-0.395 0.882,-0.882 v -1.763 c 0,-0.487 -0.395,-0.882 -0.882,-0.882 h -0.882 v -0.882 c 0,-0.487 -0.394,-0.881 -0.881,-0.881 z"
         fill="#004195"
         id="path34" />
      <path
         d="m 120.239,112.981 c -0.487,0 -0.882,0.395 -0.882,0.882 v 0.881 c 0,0.487 0.395,0.882 0.882,0.882 h 0.882 c 0.487,0 0.881,-0.395 0.881,-0.882 v -0.881 c 0,-0.487 -0.394,-0.882 -0.881,-0.882 z"
         fill="#004195"
         id="path36" />
      <path
         d="m 123.766,108.572 c 0,-0.487 0.394,-0.882 0.881,-0.882 h 0.882 c 0.487,0 0.882,0.395 0.882,0.882 v 0.882 c 0,0.487 -0.395,0.881 -0.882,0.881 h -0.882 c -0.487,0 -0.881,-0.394 -0.881,-0.881 z"
         fill="#004195"
         id="path38" />
      <path
         d="m 124.647,112.981 c -0.487,0 -0.881,0.395 -0.881,0.882 v 0.881 c 0,0.487 0.394,0.882 0.881,0.882 h 0.882 c 0.487,0 0.882,-0.395 0.882,-0.882 v -0.881 c 0,-0.487 -0.395,-0.882 -0.882,-0.882 z"
         fill="#004195"
         id="path40" />
      <path
         d="m 213.086,60.0431 h 6.434 v 2.8458 H 209.167 V 60.208 l 6.331,-9.0737 H 209.25 V 48.309 h 10.228 v 2.6809 z m 25.422,-8.6614 -2.949,11.5072 h -3.939 l -2.083,-7.7127 -2.104,7.7127 h -3.938 l -2.949,-11.5072 h 3.526 l 1.526,8.2902 2.145,-8.2902 h 3.753 l 2.207,8.3108 1.526,-8.3108 z m 12.207,5.4443 c 0,0.2887 -0.035,0.6049 -0.104,0.9486 h -7.98 c 0.041,0.8661 0.261,1.4917 0.66,1.8766 0.398,0.3712 0.907,0.5568 1.526,0.5568 0.522,0 0.955,-0.1306 1.299,-0.3918 0.343,-0.2612 0.57,-0.598 0.68,-1.0105 h 3.733 c -0.151,0.8112 -0.481,1.5398 -0.99,2.186 -0.509,0.6324 -1.155,1.1342 -1.938,1.5054 -0.784,0.3574 -1.657,0.5362 -2.619,0.5362 -1.128,0 -2.131,-0.2337 -3.011,-0.7012 -0.866,-0.4812 -1.547,-1.1686 -2.042,-2.0622 -0.495,-0.8936 -0.742,-1.9385 -0.742,-3.1346 0,-1.2098 0.24,-2.2547 0.721,-3.1346 0.495,-0.8936 1.183,-1.5741 2.063,-2.0416 0.88,-0.4811 1.883,-0.7217 3.011,-0.7217 1.141,0 2.144,0.2337 3.01,0.7011 0.867,0.4675 1.533,1.1274 2.001,1.9798 0.481,0.8386 0.722,1.8078 0.722,2.9077 z m -3.568,-0.5362 c 0.014,-0.7561 -0.193,-1.3198 -0.619,-1.691 -0.412,-0.385 -0.928,-0.5774 -1.546,-0.5774 -0.647,0 -1.183,0.1924 -1.609,0.5774 -0.426,0.3849 -0.667,0.9486 -0.722,1.691 z m 20.316,-5.0318 c 1.416,0 2.529,0.4399 3.34,1.3198 0.812,0.8661 1.217,2.076 1.217,3.6295 v 6.6816 h -3.506 v -6.2691 c 0,-0.7287 -0.199,-1.2924 -0.598,-1.6911 -0.385,-0.4124 -0.914,-0.6186 -1.588,-0.6186 -0.701,0 -1.258,0.2199 -1.67,0.6599 -0.399,0.4262 -0.598,1.0311 -0.598,1.8147 v 6.1042 h -3.526 v -6.2691 c 0,-0.7287 -0.193,-1.2924 -0.578,-1.6911 -0.385,-0.4124 -0.914,-0.6186 -1.588,-0.6186 -0.701,0 -1.258,0.2131 -1.67,0.6393 -0.413,0.4262 -0.619,1.0379 -0.619,1.8353 v 6.1042 h -3.526 V 51.3817 h 3.526 v 1.9591 c 0.303,-0.6461 0.763,-1.1548 1.382,-1.526 0.632,-0.3712 1.368,-0.5568 2.206,-0.5568 0.88,0 1.657,0.2062 2.331,0.6187 0.673,0.3986 1.182,0.9761 1.526,1.7322 0.399,-0.7149 0.942,-1.2854 1.629,-1.7116 0.701,-0.4262 1.471,-0.6393 2.31,-0.6393 z m 10.427,-3.6295 v 15.2604 h -3.527 V 47.6285 Z m 13.364,9.1975 c 0,0.2887 -0.034,0.6049 -0.103,0.9486 h -7.981 c 0.041,0.8661 0.261,1.4917 0.66,1.8766 0.399,0.3712 0.907,0.5568 1.526,0.5568 0.523,0 0.956,-0.1306 1.299,-0.3918 0.344,-0.2612 0.571,-0.598 0.681,-1.0105 h 3.732 c -0.151,0.8112 -0.481,1.5398 -0.989,2.186 -0.509,0.6324 -1.155,1.1342 -1.939,1.5054 -0.784,0.3574 -1.657,0.5362 -2.619,0.5362 -1.127,0 -2.131,-0.2337 -3.011,-0.7012 -0.866,-0.4812 -1.546,-1.1686 -2.041,-2.0622 -0.495,-0.8936 -0.743,-1.9385 -0.743,-3.1346 0,-1.2098 0.241,-2.2547 0.722,-3.1346 0.495,-0.8936 1.182,-1.5741 2.062,-2.0416 0.88,-0.4811 1.884,-0.7217 3.011,-0.7217 1.141,0 2.145,0.2337 3.011,0.7011 0.866,0.4675 1.533,1.1274 2,1.9798 0.482,0.8386 0.722,1.8078 0.722,2.9077 z m -3.568,-0.5362 c 0.014,-0.7561 -0.192,-1.3198 -0.618,-1.691 -0.413,-0.385 -0.928,-0.5774 -1.547,-0.5774 -0.646,0 -1.182,0.1924 -1.608,0.5774 -0.427,0.3849 -0.667,0.9486 -0.722,1.691 z m 9.593,-5.0524 c 1.457,0 2.619,0.3643 3.485,1.0929 0.88,0.7287 1.43,1.6911 1.65,2.8872 h -3.3 c -0.096,-0.4675 -0.316,-0.8318 -0.66,-1.093 -0.33,-0.275 -0.749,-0.4125 -1.258,-0.4125 -0.399,0 -0.701,0.0894 -0.907,0.2681 -0.206,0.165 -0.31,0.4056 -0.31,0.7218 0,0.3574 0.186,0.6255 0.557,0.8043 0.385,0.1787 0.983,0.3574 1.794,0.5361 0.88,0.2063 1.602,0.4194 2.166,0.6393 0.563,0.2063 1.051,0.55 1.464,1.0311 0.412,0.4812 0.619,1.1274 0.619,1.9385 0,0.6599 -0.179,1.2442 -0.537,1.7529 -0.357,0.5087 -0.873,0.9074 -1.546,1.1961 -0.674,0.2887 -1.471,0.4331 -2.392,0.4331 -1.554,0 -2.798,-0.3437 -3.733,-1.0311 -0.935,-0.6874 -1.505,-1.6704 -1.712,-2.949 h 3.403 c 0.055,0.4949 0.261,0.873 0.619,1.1342 0.371,0.2612 0.845,0.3918 1.423,0.3918 0.398,0 0.701,-0.0893 0.907,-0.2681 0.206,-0.1924 0.309,-0.4399 0.309,-0.7424 0,-0.3987 -0.192,-0.6805 -0.577,-0.8455 -0.371,-0.1787 -0.983,-0.3643 -1.836,-0.5568 -0.852,-0.1787 -1.553,-0.3712 -2.103,-0.5774 -0.55,-0.2062 -1.024,-0.5362 -1.423,-0.9899 -0.399,-0.4674 -0.598,-1.0998 -0.598,-1.8972 0,-1.0311 0.392,-1.8629 1.176,-2.4953 0.783,-0.6462 1.89,-0.9692 3.32,-0.9692 z m 11.439,0 c 1.457,0 2.619,0.3643 3.485,1.0929 0.88,0.7287 1.43,1.6911 1.65,2.8872 h -3.3 c -0.096,-0.4675 -0.316,-0.8318 -0.66,-1.093 -0.33,-0.275 -0.749,-0.4125 -1.258,-0.4125 -0.399,0 -0.701,0.0894 -0.907,0.2681 -0.207,0.165 -0.31,0.4056 -0.31,0.7218 0,0.3574 0.186,0.6255 0.557,0.8043 0.385,0.1787 0.983,0.3574 1.794,0.5361 0.88,0.2063 1.602,0.4194 2.166,0.6393 0.563,0.2063 1.051,0.55 1.464,1.0311 0.412,0.4812 0.618,1.1274 0.618,1.9385 0,0.6599 -0.178,1.2442 -0.536,1.7529 -0.357,0.5087 -0.873,0.9074 -1.546,1.1961 -0.674,0.2887 -1.471,0.4331 -2.393,0.4331 -1.553,0 -2.797,-0.3437 -3.732,-1.0311 -0.935,-0.6874 -1.506,-1.6704 -1.712,-2.949 h 3.403 c 0.055,0.4949 0.261,0.873 0.619,1.1342 0.371,0.2612 0.845,0.3918 1.422,0.3918 0.399,0 0.702,-0.0893 0.908,-0.2681 0.206,-0.1924 0.309,-0.4399 0.309,-0.7424 0,-0.3987 -0.192,-0.6805 -0.577,-0.8455 -0.371,-0.1787 -0.983,-0.3643 -1.836,-0.5568 -0.852,-0.1787 -1.553,-0.3712 -2.103,-0.5774 -0.55,-0.2062 -1.024,-0.5362 -1.423,-0.9899 -0.399,-0.4674 -0.598,-1.0998 -0.598,-1.8972 0,-1.0311 0.392,-1.8629 1.175,-2.4953 0.784,-0.6462 1.891,-0.9692 3.321,-0.9692 z M 326.9,56.826 c 0,0.2887 -0.034,0.6049 -0.103,0.9486 h -7.981 c 0.041,0.8661 0.261,1.4917 0.66,1.8766 0.399,0.3712 0.907,0.5568 1.526,0.5568 0.522,0 0.955,-0.1306 1.299,-0.3918 0.344,-0.2612 0.571,-0.598 0.681,-1.0105 h 3.732 c -0.151,0.8112 -0.481,1.5398 -0.99,2.186 -0.508,0.6324 -1.154,1.1342 -1.938,1.5054 -0.784,0.3574 -1.657,0.5362 -2.619,0.5362 -1.127,0 -2.131,-0.2337 -3.011,-0.7012 -0.866,-0.4812 -1.547,-1.1686 -2.042,-2.0622 -0.494,-0.8936 -0.742,-1.9385 -0.742,-3.1346 0,-1.2098 0.241,-2.2547 0.722,-3.1346 0.495,-0.8936 1.182,-1.5741 2.062,-2.0416 0.88,-0.4811 1.884,-0.7217 3.011,-0.7217 1.141,0 2.145,0.2337 3.011,0.7011 0.866,0.4675 1.533,1.1274 2,1.9798 0.481,0.8386 0.722,1.8078 0.722,2.9077 z m -3.568,-0.5362 c 0.014,-0.7561 -0.192,-1.3198 -0.618,-1.691 -0.413,-0.385 -0.928,-0.5774 -1.547,-0.5774 -0.646,0 -1.182,0.1924 -1.609,0.5774 -0.426,0.3849 -0.666,0.9486 -0.721,1.691 z m 12.706,-5.0318 c 1.32,0 2.365,0.4399 3.135,1.3198 0.784,0.8799 1.176,2.0897 1.176,3.6295 v 6.6816 h -3.527 v -6.2691 c 0,-0.7699 -0.206,-1.368 -0.619,-1.7942 -0.398,-0.4399 -0.934,-0.6599 -1.608,-0.6599 -0.715,0 -1.286,0.2269 -1.712,0.6806 -0.412,0.4536 -0.618,1.0998 -0.618,1.9384 v 6.1042 h -3.527 V 51.3817 h 3.527 v 2.1035 c 0.33,-0.6874 0.818,-1.2305 1.464,-1.6292 0.66,-0.3987 1.43,-0.598 2.309,-0.598 z"
         fill="#2a2b2d"
         id="path42" />
      <path
         d="m 213.226,74.1527 c -0.144,-0.2646 -0.343,-0.4661 -0.595,-0.6045 -0.253,-0.1383 -0.548,-0.2075 -0.885,-0.2075 -0.372,0 -0.703,0.0842 -0.992,0.2527 -0.289,0.1684 -0.514,0.409 -0.677,0.7217 -0.162,0.3128 -0.243,0.6737 -0.243,1.0827 0,0.421 0.081,0.7879 0.243,1.1007 0.169,0.3128 0.4,0.5534 0.695,0.7218 0.295,0.1684 0.638,0.2526 1.029,0.2526 0.481,0 0.875,-0.1263 1.181,-0.3789 0.307,-0.2587 0.509,-0.6165 0.605,-1.0737 h -2.165 V 75.055 h 3.41 v 1.1007 c -0.084,0.439 -0.265,0.845 -0.541,1.218 -0.277,0.3729 -0.635,0.6736 -1.074,0.9022 -0.433,0.2225 -0.92,0.3338 -1.462,0.3338 -0.607,0 -1.157,-0.1353 -1.651,-0.406 -0.487,-0.2767 -0.872,-0.6586 -1.154,-1.1458 -0.277,-0.4872 -0.415,-1.0406 -0.415,-1.6601 0,-0.6195 0.138,-1.1729 0.415,-1.6601 0.282,-0.4932 0.667,-0.8751 1.154,-1.1458 0.494,-0.2767 1.041,-0.415 1.642,-0.415 0.71,0 1.327,0.1744 1.85,0.5233 0.523,0.3428 0.884,0.827 1.083,1.4525 z m 7.187,1.7955 c 0,0.1804 -0.012,0.3428 -0.036,0.4872 h -3.654 c 0.03,0.3608 0.156,0.6435 0.379,0.848 0.222,0.2045 0.496,0.3068 0.821,0.3068 0.469,0 0.803,-0.2015 1.001,-0.6045 h 1.363 c -0.145,0.4812 -0.421,0.8782 -0.83,1.1909 -0.409,0.3068 -0.912,0.4602 -1.507,0.4602 -0.481,0 -0.914,-0.1053 -1.299,-0.3158 -0.379,-0.2165 -0.677,-0.5203 -0.893,-0.9112 -0.211,-0.391 -0.316,-0.8421 -0.316,-1.3534 0,-0.5173 0.105,-0.9714 0.316,-1.3623 0.21,-0.391 0.505,-0.6917 0.884,-0.9023 0.379,-0.2105 0.815,-0.3157 1.308,-0.3157 0.475,0 0.899,0.1022 1.272,0.3067 0.379,0.2045 0.671,0.4962 0.875,0.8752 0.211,0.3729 0.316,0.803 0.316,1.2902 z m -1.308,-0.3609 c -0.006,-0.3248 -0.124,-0.5835 -0.352,-0.7759 -0.229,-0.1985 -0.508,-0.2978 -0.839,-0.2978 -0.313,0 -0.578,0.0963 -0.794,0.2887 -0.211,0.1865 -0.34,0.4481 -0.388,0.785 z m 8.437,-2.1022 c 0.614,0 1.107,0.1895 1.48,0.5684 0.379,0.3729 0.568,0.8962 0.568,1.5699 v 2.9322 h -1.263 v -2.7608 c 0,-0.391 -0.099,-0.6887 -0.298,-0.8932 -0.198,-0.2105 -0.469,-0.3158 -0.812,-0.3158 -0.342,0 -0.616,0.1053 -0.821,0.3158 -0.198,0.2045 -0.297,0.5022 -0.297,0.8932 v 2.7608 h -1.263 v -2.7608 c 0,-0.391 -0.1,-0.6887 -0.298,-0.8932 -0.199,-0.2105 -0.469,-0.3158 -0.812,-0.3158 -0.349,0 -0.626,0.1053 -0.83,0.3158 -0.199,0.2045 -0.298,0.5022 -0.298,0.8932 v 2.7608 h -1.263 v -4.9983 h 1.263 v 0.6045 c 0.162,-0.2106 0.37,-0.376 0.623,-0.4963 0.258,-0.1203 0.541,-0.1804 0.848,-0.1804 0.391,0 0.739,0.0842 1.046,0.2526 0.307,0.1624 0.545,0.397 0.713,0.7037 0.162,-0.2887 0.397,-0.5202 0.704,-0.6947 0.313,-0.1744 0.649,-0.2616 1.01,-0.2616 z m 7.893,2.4631 c 0,0.1804 -0.012,0.3428 -0.036,0.4872 h -3.654 c 0.03,0.3608 0.157,0.6435 0.379,0.848 0.223,0.2045 0.496,0.3068 0.821,0.3068 0.469,0 0.803,-0.2015 1.002,-0.6045 h 1.362 c -0.144,0.4812 -0.421,0.8782 -0.83,1.1909 -0.409,0.3068 -0.911,0.4602 -1.507,0.4602 -0.481,0 -0.914,-0.1053 -1.299,-0.3158 -0.379,-0.2165 -0.677,-0.5203 -0.893,-0.9112 -0.211,-0.391 -0.316,-0.8421 -0.316,-1.3534 0,-0.5173 0.105,-0.9714 0.316,-1.3623 0.21,-0.391 0.505,-0.6917 0.884,-0.9023 0.379,-0.2105 0.815,-0.3157 1.308,-0.3157 0.475,0 0.899,0.1022 1.272,0.3067 0.379,0.2045 0.671,0.4962 0.876,0.8752 0.21,0.3729 0.315,0.803 0.315,1.2902 z m -1.308,-0.3609 c -0.006,-0.3248 -0.123,-0.5835 -0.352,-0.7759 -0.228,-0.1985 -0.508,-0.2978 -0.839,-0.2978 -0.313,0 -0.577,0.0963 -0.794,0.2887 -0.21,0.1865 -0.34,0.4481 -0.388,0.785 z m 6.877,0.3609 c 0,0.1804 -0.012,0.3428 -0.036,0.4872 h -3.654 c 0.03,0.3608 0.156,0.6435 0.379,0.848 0.222,0.2045 0.496,0.3068 0.821,0.3068 0.469,0 0.803,-0.2015 1.001,-0.6045 h 1.362 c -0.144,0.4812 -0.421,0.8782 -0.83,1.1909 -0.409,0.3068 -0.911,0.4602 -1.506,0.4602 -0.482,0 -0.915,-0.1053 -1.3,-0.3158 -0.378,-0.2165 -0.676,-0.5203 -0.893,-0.9112 -0.21,-0.391 -0.316,-0.8421 -0.316,-1.3534 0,-0.5173 0.106,-0.9714 0.316,-1.3623 0.211,-0.391 0.506,-0.6917 0.884,-0.9023 0.379,-0.2105 0.815,-0.3157 1.309,-0.3157 0.475,0 0.899,0.1022 1.272,0.3067 0.379,0.2045 0.67,0.4962 0.875,0.8752 0.21,0.3729 0.316,0.803 0.316,1.2902 z m -1.308,-0.3609 c -0.007,-0.3248 -0.124,-0.5835 -0.352,-0.7759 -0.229,-0.1985 -0.509,-0.2978 -0.839,-0.2978 -0.313,0 -0.578,0.0963 -0.794,0.2887 -0.211,0.1865 -0.34,0.4481 -0.388,0.785 z m 5,-2.1022 c 0.595,0 1.076,0.1895 1.443,0.5684 0.367,0.3729 0.55,0.8962 0.55,1.5699 v 2.9322 h -1.263 v -2.7608 c 0,-0.397 -0.099,-0.7008 -0.297,-0.9113 -0.199,-0.2165 -0.47,-0.3248 -0.812,-0.3248 -0.349,0 -0.626,0.1083 -0.83,0.3248 -0.199,0.2105 -0.298,0.5143 -0.298,0.9113 v 2.7608 h -1.263 v -4.9983 h 1.263 v 0.6225 c 0.168,-0.2165 0.382,-0.385 0.64,-0.5052 0.265,-0.1264 0.554,-0.1895 0.867,-0.1895 z m 4.665,1.1097 v 2.418 c 0,0.1684 0.039,0.2917 0.117,0.3699 0.085,0.0722 0.223,0.1083 0.416,0.1083 h 0.586 v 1.0646 h -0.794 c -1.065,0 -1.597,-0.5173 -1.597,-1.5518 v -2.409 h -0.595 v -1.0375 h 0.595 v -1.2361 h 1.272 v 1.2361 h 1.119 v 1.0375 z m 6.674,1.3534 c 0,0.1804 -0.012,0.3428 -0.036,0.4872 h -3.654 c 0.03,0.3608 0.156,0.6435 0.379,0.848 0.222,0.2045 0.496,0.3068 0.821,0.3068 0.469,0 0.803,-0.2015 1.001,-0.6045 h 1.363 c -0.145,0.4812 -0.421,0.8782 -0.83,1.1909 -0.409,0.3068 -0.912,0.4602 -1.507,0.4602 -0.481,0 -0.914,-0.1053 -1.299,-0.3158 -0.379,-0.2165 -0.677,-0.5203 -0.894,-0.9112 -0.21,-0.391 -0.315,-0.8421 -0.315,-1.3534 0,-0.5173 0.105,-0.9714 0.315,-1.3623 0.211,-0.391 0.506,-0.6917 0.885,-0.9023 0.379,-0.2105 0.815,-0.3157 1.308,-0.3157 0.475,0 0.899,0.1022 1.272,0.3067 0.379,0.2045 0.671,0.4962 0.875,0.8752 0.211,0.3729 0.316,0.803 0.316,1.2902 z m -1.308,-0.3609 c -0.006,-0.3248 -0.124,-0.5835 -0.352,-0.7759 -0.229,-0.1985 -0.508,-0.2978 -0.839,-0.2978 -0.313,0 -0.578,0.0963 -0.794,0.2887 -0.211,0.1865 -0.34,0.4481 -0.388,0.785 z m 12.797,-3.3292 -1.759,6.2975 h -1.489 l -1.182,-4.4841 -1.236,4.4841 -1.479,0.009 -1.696,-6.3065 h 1.353 l 1.11,4.89 1.281,-4.89 h 1.407 l 1.209,4.8629 1.119,-4.8629 z m 0.5,3.7803 c 0,-0.5053 0.1,-0.9534 0.298,-1.3443 0.205,-0.391 0.478,-0.6917 0.821,-0.9023 0.349,-0.2105 0.737,-0.3157 1.164,-0.3157 0.373,0 0.698,0.0751 0.974,0.2255 0.283,0.1504 0.509,0.3399 0.677,0.5684 v -0.7127 h 1.272 v 4.9983 h -1.272 v -0.7308 c -0.162,0.2346 -0.388,0.43 -0.677,0.5864 -0.282,0.1504 -0.61,0.2256 -0.983,0.2256 -0.421,0 -0.806,-0.1083 -1.155,-0.3248 -0.343,-0.2166 -0.616,-0.5203 -0.821,-0.9113 -0.198,-0.3969 -0.298,-0.8511 -0.298,-1.3623 z m 3.934,0.018 c 0,-0.3067 -0.06,-0.5684 -0.18,-0.7849 -0.121,-0.2226 -0.283,-0.391 -0.488,-0.5053 -0.204,-0.1203 -0.424,-0.1804 -0.658,-0.1804 -0.235,0 -0.451,0.0571 -0.65,0.1714 -0.198,0.1143 -0.361,0.2827 -0.487,0.5053 -0.12,0.2165 -0.18,0.4751 -0.18,0.7759 0,0.3007 0.06,0.5654 0.18,0.7939 0.126,0.2226 0.289,0.394 0.487,0.5143 0.205,0.1203 0.421,0.1804 0.65,0.1804 0.234,0 0.454,-0.0571 0.658,-0.1714 0.205,-0.1203 0.367,-0.2887 0.488,-0.5052 0.12,-0.2226 0.18,-0.4872 0.18,-0.794 z m 2.181,-0.018 c 0,-0.5053 0.099,-0.9534 0.298,-1.3443 0.204,-0.391 0.481,-0.6917 0.83,-0.9023 0.349,-0.2105 0.737,-0.3157 1.164,-0.3157 0.324,0 0.634,0.0721 0.929,0.2165 0.295,0.1383 0.529,0.3248 0.704,0.5594 v -2.3729 h 1.281 v 6.6765 h -1.281 v -0.7398 c -0.157,0.2466 -0.376,0.445 -0.659,0.5954 -0.283,0.1504 -0.61,0.2256 -0.983,0.2256 -0.421,0 -0.806,-0.1083 -1.155,-0.3248 -0.349,-0.2166 -0.626,-0.5203 -0.83,-0.9113 -0.199,-0.3969 -0.298,-0.8511 -0.298,-1.3623 z m 3.934,0.018 c 0,-0.3067 -0.06,-0.5684 -0.181,-0.7849 -0.12,-0.2226 -0.282,-0.391 -0.487,-0.5053 -0.204,-0.1203 -0.424,-0.1804 -0.659,-0.1804 -0.234,0 -0.451,0.0571 -0.649,0.1714 -0.199,0.1143 -0.361,0.2827 -0.487,0.5053 -0.121,0.2165 -0.181,0.4751 -0.181,0.7759 0,0.3007 0.06,0.5654 0.181,0.7939 0.126,0.2226 0.288,0.394 0.487,0.5143 0.204,0.1203 0.421,0.1804 0.649,0.1804 0.235,0 0.455,-0.0571 0.659,-0.1714 0.205,-0.1203 0.367,-0.2887 0.487,-0.5052 0.121,-0.2226 0.181,-0.4872 0.181,-0.794 z m 9.302,-0.1082 c 0,0.1804 -0.012,0.3428 -0.036,0.4872 h -3.654 c 0.03,0.3608 0.156,0.6435 0.379,0.848 0.222,0.2045 0.496,0.3068 0.821,0.3068 0.469,0 0.803,-0.2015 1.001,-0.6045 h 1.362 c -0.144,0.4812 -0.421,0.8782 -0.83,1.1909 -0.409,0.3068 -0.911,0.4602 -1.506,0.4602 -0.481,0 -0.915,-0.1053 -1.3,-0.3158 -0.378,-0.2165 -0.676,-0.5203 -0.893,-0.9112 -0.21,-0.391 -0.315,-0.8421 -0.315,-1.3534 0,-0.5173 0.105,-0.9714 0.315,-1.3623 0.211,-0.391 0.506,-0.6917 0.884,-0.9023 0.379,-0.2105 0.815,-0.3157 1.309,-0.3157 0.475,0 0.899,0.1022 1.272,0.3067 0.379,0.2045 0.67,0.4962 0.875,0.8752 0.21,0.3729 0.316,0.803 0.316,1.2902 z m -1.308,-0.3609 c -0.006,-0.3248 -0.124,-0.5835 -0.352,-0.7759 -0.229,-0.1985 -0.509,-0.2978 -0.839,-0.2978 -0.313,0 -0.578,0.0963 -0.794,0.2887 -0.211,0.1865 -0.34,0.4481 -0.388,0.785 z m 5,-2.1022 c 0.595,0 1.076,0.1895 1.443,0.5684 0.367,0.3729 0.55,0.8962 0.55,1.5699 v 2.9322 h -1.263 v -2.7608 c 0,-0.397 -0.099,-0.7008 -0.297,-0.9113 -0.199,-0.2165 -0.47,-0.3248 -0.812,-0.3248 -0.349,0 -0.626,0.1083 -0.83,0.3248 -0.199,0.2105 -0.298,0.5143 -0.298,0.9113 v 2.7608 h -1.263 v -4.9983 h 1.263 v 0.6225 c 0.168,-0.2165 0.382,-0.385 0.64,-0.5052 0.265,-0.1264 0.554,-0.1895 0.867,-0.1895 z m 10.568,-1.227 v 6.2975 h -1.263 V 75.876 h -2.697 v 2.6796 h -1.264 v -6.2975 h 1.264 v 2.5893 h 2.697 v -2.5893 z m 5.89,3.6901 c 0,0.1804 -0.012,0.3428 -0.036,0.4872 h -3.654 c 0.03,0.3608 0.156,0.6435 0.379,0.848 0.222,0.2045 0.496,0.3068 0.821,0.3068 0.469,0 0.803,-0.2015 1.001,-0.6045 h 1.363 c -0.145,0.4812 -0.421,0.8782 -0.83,1.1909 -0.409,0.3068 -0.912,0.4602 -1.507,0.4602 -0.481,0 -0.914,-0.1053 -1.299,-0.3158 -0.379,-0.2165 -0.677,-0.5203 -0.894,-0.9112 -0.21,-0.391 -0.315,-0.8421 -0.315,-1.3534 0,-0.5173 0.105,-0.9714 0.315,-1.3623 0.211,-0.391 0.506,-0.6917 0.885,-0.9023 0.379,-0.2105 0.815,-0.3157 1.308,-0.3157 0.475,0 0.899,0.1022 1.272,0.3067 0.379,0.2045 0.671,0.4962 0.875,0.8752 0.211,0.3729 0.316,0.803 0.316,1.2902 z m -1.308,-0.3609 c -0.006,-0.3248 -0.124,-0.5835 -0.352,-0.7759 -0.229,-0.1985 -0.508,-0.2978 -0.839,-0.2978 -0.313,0 -0.578,0.0963 -0.794,0.2887 -0.211,0.1865 -0.34,0.4481 -0.388,0.785 z m 6.949,-2.03 v 4.9983 h -1.273 V 77.924 c -0.162,0.2166 -0.376,0.388 -0.64,0.5143 -0.259,0.1203 -0.542,0.1804 -0.848,0.1804 -0.391,0 -0.737,-0.0812 -1.038,-0.2436 -0.301,-0.1684 -0.538,-0.412 -0.713,-0.7308 -0.168,-0.3248 -0.252,-0.7097 -0.252,-1.1548 v -2.9322 h 1.263 v 2.7517 c 0,0.397 0.099,0.7038 0.298,0.9203 0.198,0.2105 0.469,0.3158 0.812,0.3158 0.349,0 0.622,-0.1053 0.821,-0.3158 0.198,-0.2165 0.297,-0.5233 0.297,-0.9203 v -2.7517 z m 3.33,3.8344 1.263,-3.8344 h 1.344 l -1.849,4.9983 h -1.534 l -1.841,-4.9983 h 1.354 z m 7.963,-1.4435 c 0,0.1804 -0.012,0.3428 -0.036,0.4872 h -3.654 c 0.03,0.3608 0.157,0.6435 0.379,0.848 0.223,0.2045 0.496,0.3068 0.821,0.3068 0.469,0 0.803,-0.2015 1.002,-0.6045 h 1.362 c -0.144,0.4812 -0.421,0.8782 -0.83,1.1909 -0.409,0.3068 -0.911,0.4602 -1.507,0.4602 -0.481,0 -0.914,-0.1053 -1.299,-0.3158 -0.379,-0.2165 -0.677,-0.5203 -0.893,-0.9112 -0.211,-0.391 -0.316,-0.8421 -0.316,-1.3534 0,-0.5173 0.105,-0.9714 0.316,-1.3623 0.21,-0.391 0.505,-0.6917 0.884,-0.9023 0.379,-0.2105 0.815,-0.3157 1.308,-0.3157 0.475,0 0.899,0.1022 1.272,0.3067 0.379,0.2045 0.671,0.4962 0.875,0.8752 0.211,0.3729 0.316,0.803 0.316,1.2902 z m -1.308,-0.3609 c -0.006,-0.3248 -0.123,-0.5835 -0.352,-0.7759 -0.228,-0.1985 -0.508,-0.2978 -0.839,-0.2978 -0.313,0 -0.577,0.0963 -0.794,0.2887 -0.21,0.1865 -0.34,0.4481 -0.388,0.785 z m 3.493,-3.7082 v 6.6765 h -1.263 v -6.6765 z"
         fill="#273266"
         id="path44" />
      <path
         d="m 215.87,101.684 c 0.685,0 1.275,-0.169 1.768,-0.506 0.505,-0.336 0.878,-0.794 1.119,-1.371 h 3.248 c -0.301,1.444 -0.987,2.598 -2.057,3.465 -1.071,0.854 -2.412,1.281 -4.024,1.281 -1.54,0 -2.839,-0.409 -3.898,-1.227 -1.046,-0.818 -1.744,-1.925 -2.093,-3.32 h -1.426 V 98.58 h 1.209 c -0.012,-0.1203 -0.018,-0.2947 -0.018,-0.5233 0,-0.2285 0.006,-0.397 0.018,-0.5052 h -1.209 V 96.126 h 1.426 c 0.349,-1.4075 1.047,-2.5202 2.093,-3.3382 1.059,-0.8181 2.358,-1.2271 3.898,-1.2271 1.612,0 2.953,0.4271 4.024,1.2812 1.07,0.8541 1.756,2.0089 2.057,3.4645 h -3.248 c -0.241,-0.5894 -0.614,-1.0526 -1.119,-1.3894 -0.493,-0.3368 -1.083,-0.5052 -1.768,-0.5052 -0.59,0 -1.119,0.1503 -1.588,0.4511 -0.457,0.3007 -0.812,0.7217 -1.065,1.2631 h 3.176 v 1.4255 h -3.537 c -0.012,0.1082 -0.018,0.2767 -0.018,0.5052 0,0.2406 0.006,0.415 0.018,0.5233 h 3.537 v 1.426 h -3.158 c 0.253,0.529 0.608,0.944 1.065,1.245 0.457,0.288 0.98,0.433 1.57,0.433 z m 10.627,-7.1098 V 91.687 h 5.161 v 12.757 h -3.248 v -9.8698 z m 8.2,8.1018 c -0.806,-1.167 -1.209,-2.7487 -1.209,-4.7456 0,-1.9849 0.403,-3.5547 1.209,-4.7096 0.806,-1.1669 2.093,-1.7503 3.862,-1.7503 1.756,0 3.037,0.5834 3.843,1.7503 0.818,1.1549 1.227,2.7247 1.227,4.7096 0,1.9969 -0.409,3.5786 -1.227,4.7456 -0.806,1.167 -2.087,1.75 -3.843,1.75 -1.769,0 -3.056,-0.583 -3.862,-1.75 z m 5.45,-2.093 c 0.276,-0.6256 0.415,-1.5098 0.415,-2.6526 0,-1.1428 -0.139,-2.0149 -0.415,-2.6164 -0.265,-0.6135 -0.794,-0.9203 -1.588,-0.9203 -0.806,0 -1.348,0.3068 -1.624,0.9203 -0.277,0.6135 -0.415,1.4856 -0.415,2.6164 0,1.1428 0.138,2.027 0.415,2.6526 0.276,0.613 0.818,0.92 1.624,0.92 0.794,0 1.323,-0.307 1.588,-0.92 z m 6.163,2.093 c -0.806,-1.167 -1.209,-2.7487 -1.209,-4.7456 0,-1.9849 0.403,-3.5547 1.209,-4.7096 0.806,-1.1669 2.093,-1.7503 3.861,-1.7503 1.757,0 3.038,0.5834 3.844,1.7503 0.818,1.1549 1.227,2.7247 1.227,4.7096 0,1.9969 -0.409,3.5786 -1.227,4.7456 -0.806,1.167 -2.087,1.75 -3.844,1.75 -1.768,0 -3.055,-0.583 -3.861,-1.75 z m 5.449,-2.093 c 0.277,-0.6256 0.415,-1.5098 0.415,-2.6526 0,-1.1428 -0.138,-2.0149 -0.415,-2.6164 -0.265,-0.6135 -0.794,-0.9203 -1.588,-0.9203 -0.806,0 -1.347,0.3068 -1.624,0.9203 -0.276,0.6135 -0.415,1.4856 -0.415,2.6164 0,1.1428 0.139,2.027 0.415,2.6526 0.277,0.613 0.818,0.92 1.624,0.92 0.794,0 1.323,-0.307 1.588,-0.92 z"
         fill="#2a2b2d"
         id="path46" />
      <rect
         x="208.21899"
         y="126.511"
         width="24.488899"
         height="24.488899"
         rx="12.2444"
         fill="#ffffff"
         id="rect48" />
      <g
         clip-path="url(#clip1_2318_32341)"
         id="g52">
        <path
           d="m 220.464,132.848 c -3.261,0 -5.907,2.647 -5.907,5.908 0,3.26 2.646,5.907 5.907,5.907 3.261,0 5.907,-2.647 5.907,-5.907 0,-3.261 -2.646,-5.908 -5.907,-5.908 z m 0,2.363 c 1.14,0 2.068,0.928 2.068,2.068 0,1.14 -0.928,2.067 -2.068,2.067 -1.14,0 -2.068,-0.927 -2.068,-2.067 0,-1.14 0.928,-2.068 2.068,-2.068 z m 0,8.271 c -1.199,0 -2.617,-0.485 -3.627,-1.702 0.998,-0.78 2.257,-1.252 3.627,-1.252 1.371,0 2.629,0.472 3.627,1.252 -1.01,1.217 -2.428,1.702 -3.627,1.702 z"
           fill="#273266"
           id="path50" />
      </g>
      <rect
         x="248.82001"
         y="126.511"
         width="24.488899"
         height="24.488899"
         rx="12.2444"
         fill="#ffffff"
         id="rect54" />
      <path
         fill-rule="evenodd"
         clip-rule="evenodd"
         d="m 266.973,135.211 c 0,-0.65 -0.532,-1.181 -1.181,-1.181 h -9.452 c -0.65,0 -1.182,0.531 -1.182,1.181 v 7.089 c 0,0.65 0.532,1.181 1.182,1.181 h 9.452 c 0.649,0 1.181,-0.531 1.181,-1.181 z m -1.181,0 -4.726,2.948 -4.726,-2.948 z m -4.726,4.135 -4.726,-2.953 v 5.907 h 9.452 v -5.907 z"
         fill="#273266"
         id="path56" />
      <rect
         x="289.42001"
         y="126.511"
         width="24.488899"
         height="24.488899"
         rx="12.2444"
         fill="#ffffff"
         id="rect58" />
      <path
         fill-rule="evenodd"
         clip-rule="evenodd"
         d="m 305.8,136.393 h -0.59 v -2.954 h -7.089 v 2.954 h -0.591 c -0.981,0 -1.772,0.791 -1.772,1.772 v 3.544 h 2.363 v 2.363 h 7.089 v -2.363 h 2.363 v -3.544 c 0,-0.981 -0.792,-1.772 -1.773,-1.772 z m -6.498,-1.773 h 4.726 v 1.773 h -4.726 z m 4.726,8.271 v -1.182 -1.181 h -4.726 v 2.363 z m 1.182,-2.363 v -1.182 h -7.089 v 1.182 h -1.181 v -2.363 c 0,-0.325 0.266,-0.591 0.59,-0.591 h 8.271 c 0.325,0 0.591,0.266 0.591,0.591 v 2.363 z m -0.591,-2.068 c 0,-0.326 0.264,-0.591 0.591,-0.591 0.326,0 0.59,0.265 0.59,0.591 0,0.326 -0.264,0.591 -0.59,0.591 -0.327,0 -0.591,-0.265 -0.591,-0.591 z"
         fill="#273266"
         id="path60" />
      <rect
         x="330.021"
         y="126.511"
         width="24.488899"
         height="24.488899"
         rx="12.2444"
         fill="#ffffff"
         id="rect62" />
      <path
         fill-rule="evenodd"
         clip-rule="evenodd"
         d="m 338.133,133.439 h 8.27 c 0.65,0 1.182,0.532 1.182,1.181 v 8.271 c 0,0.65 -0.532,1.181 -1.182,1.181 h -8.27 c -0.656,0 -1.182,-0.531 -1.182,-1.181 v -2.363 h 1.182 v 2.363 h 8.27 v -8.271 h -8.27 v 2.363 h -1.182 v -2.363 c 0,-0.649 0.526,-1.181 1.182,-1.181 z m 3.839,8.27 -0.832,-0.833 1.524,-1.53 h -5.713 v -1.181 h 5.713 l -1.524,-1.53 0.832,-0.833 2.954,2.954 z"
         fill="#273266"
         id="path64" />
      <rect
         x="370.62299"
         y="126.511"
         width="24.488899"
         height="24.488899"
         rx="12.2444"
         fill="#ffffff"
         id="rect66" />
      <path
         fill-rule="evenodd"
         clip-rule="evenodd"
         d="m 385.256,141.644 c 0.307,-0.277 0.709,-0.455 1.158,-0.455 0.951,0 1.725,0.774 1.725,1.725 0,0.951 -0.774,1.725 -1.725,1.725 -0.951,0 -1.725,-0.774 -1.725,-1.725 0,-0.13 0.018,-0.26 0.047,-0.384 l -4.206,-2.457 c -0.319,0.295 -0.738,0.478 -1.205,0.478 -0.981,0 -1.772,-0.791 -1.772,-1.772 0,-0.98 0.791,-1.772 1.772,-1.772 0.467,0 0.886,0.183 1.205,0.478 l 4.165,-2.427 c -0.03,-0.136 -0.053,-0.272 -0.053,-0.414 0,-0.981 0.791,-1.772 1.772,-1.772 0.98,0 1.772,0.791 1.772,1.772 0,0.981 -0.792,1.772 -1.772,1.772 -0.467,0 -0.886,-0.183 -1.205,-0.478 l -4.165,2.428 c 0.03,0.136 0.053,0.271 0.053,0.413 0,0.142 -0.023,0.278 -0.053,0.414 z m 1.749,-7 c 0,-0.325 -0.266,-0.591 -0.591,-0.591 -0.325,0 -0.59,0.266 -0.59,0.591 0,0.325 0.265,0.591 0.59,0.591 0.325,0 0.591,-0.266 0.591,-0.591 z m -7.68,4.726 c -0.325,0 -0.59,-0.266 -0.59,-0.591 0,-0.325 0.265,-0.591 0.59,-0.591 0.325,0 0.591,0.266 0.591,0.591 0,0.325 -0.266,0.591 -0.591,0.591 z m 6.499,3.556 c 0,0.325 0.265,0.591 0.59,0.591 0.325,0 0.591,-0.266 0.591,-0.591 0,-0.325 -0.266,-0.591 -0.591,-0.591 -0.325,0 -0.59,0.266 -0.59,0.591 z"
         fill="#273266"
         id="path68" />
      <rect
         width="109.556"
         height="128.88901"
         transform="translate(414.445,35.0002)"
         fill="url(#paint2_linear_2318_32341)"
         id="rect70"
         x="0"
         y="0"
         style="fill:url(#paint2_linear_2318_32341)" />
      <rect
         width="109.556"
         height="128.88901"
         transform="translate(414.445,35.0002)"
         fill="#ffffff"
         fill-opacity="0.75"
         id="rect72"
         x="0"
         y="0" />
      <g
         filter="url(#filter1_d_2318_32341)"
         id="g78">
        <rect
           width="70.888901"
           height="70.888901"
           transform="translate(433.779,53.2779)"
           fill="#ffffff"
           id="rect74"
           x="0"
           y="0" />
        <path
           fill-rule="evenodd"
           clip-rule="evenodd"
           d="m 437.717,57.2175 h 1.907 v 1.9097 h -1.907 z m 1.907,0 h 1.911 v 1.9097 h -1.911 z m 1.911,0 h 1.908 v 1.9097 h -1.908 z m 1.908,0 h 1.907 v 1.9097 h -1.907 z m 1.907,0 h 1.911 v 1.9097 h -1.911 z m 1.911,0 h 1.907 v 1.9097 h -1.907 z m 1.907,0 h 1.912 v 1.9097 h -1.912 z m 5.726,0 h 1.911 v 1.9097 h -1.911 z m 3.819,0 h 1.911 v 1.9097 h -1.911 z m 11.455,0 h 1.907 v 1.9097 h -1.907 z m 1.907,0 h 1.907 v 1.9097 h -1.907 z m 1.907,0 h 1.912 v 1.9097 h -1.912 z m 1.912,0 h 1.907 v 1.9097 h -1.907 z m 5.726,0 h 1.907 v 1.9097 h -1.907 z m 5.725,0 h 1.907 v 1.9097 h -1.907 z m 1.907,0 h 1.912 v 1.9097 h -1.912 z m 1.912,0 h 1.907 v 1.9097 h -1.907 z m 1.907,0 h 1.911 v 1.9097 h -1.911 z m 1.911,0 h 1.908 v 1.9097 h -1.908 z m 1.908,0 h 1.907 v 1.9097 h -1.907 z m 1.907,0 h 1.911 v 1.9097 h -1.911 z m -61.08,1.9097 h 1.907 v 1.9088 h -1.907 z m 11.451,0 h 1.912 v 1.9088 h -1.912 z m 3.819,0 h 1.907 v 1.9088 h -1.907 z m 1.907,0 h 1.911 v 1.9088 h -1.911 z m 1.911,0 h 1.908 v 1.9088 h -1.908 z m 5.726,0 h 1.907 v 1.9088 h -1.907 z m 1.907,0 h 1.912 v 1.9088 h -1.912 z m 1.912,0 h 1.907 v 1.9088 h -1.907 z m 1.907,0 h 1.911 v 1.9088 h -1.911 z m 7.637,0 h 1.907 v 1.9088 h -1.907 z m 1.907,0 h 1.907 v 1.9088 h -1.907 z m 9.544,0 h 1.907 v 1.9088 h -1.907 z m 11.452,0 h 1.911 v 1.9088 h -1.911 z m -61.08,1.9088 h 1.907 v 1.9097 h -1.907 z m 3.818,0 h 1.908 v 1.9097 h -1.908 z m 1.908,0 h 1.907 v 1.9097 h -1.907 z m 1.907,0 h 1.911 v 1.9097 h -1.911 z m 3.818,0 h 1.912 v 1.9097 h -1.912 z m 5.726,0 h 1.911 v 1.9097 h -1.911 z m 1.911,0 h 1.908 v 1.9097 h -1.908 z m 1.908,0 h 1.911 v 1.9097 h -1.911 z m 1.911,0 h 1.907 v 1.9097 h -1.907 z m 17.177,0 h 1.907 v 1.9097 h -1.907 z m 1.907,0 h 1.912 v 1.9097 h -1.912 z m 1.912,0 h 1.907 v 1.9097 h -1.907 z m 1.907,0 h 1.911 v 1.9097 h -1.911 z m 3.818,0 h 1.907 v 1.9097 h -1.907 z m 3.819,0 h 1.907 v 1.9097 h -1.907 z m 1.907,0 h 1.911 v 1.9097 h -1.911 z m 1.911,0 h 1.908 v 1.9097 h -1.908 z m 3.815,0 h 1.911 v 1.9097 h -1.911 z m -61.08,1.9097 h 1.907 v 1.9097 h -1.907 z m 3.818,0 h 1.908 v 1.9097 h -1.908 z m 1.908,0 h 1.907 v 1.9097 h -1.907 z m 1.907,0 h 1.911 v 1.9097 h -1.911 z m 3.818,0 h 1.912 v 1.9097 h -1.912 z m 3.819,0 h 1.907 v 1.9097 h -1.907 z m 3.818,0 h 1.908 v 1.9097 h -1.908 z m 1.908,0 h 1.911 v 1.9097 h -1.911 z m 1.911,0 h 1.907 v 1.9097 h -1.907 z m 1.907,0 h 1.907 v 1.9097 h -1.907 z m 1.907,0 h 1.912 v 1.9097 h -1.912 z m 1.912,0 h 1.907 v 1.9097 h -1.907 z m 1.907,0 h 1.911 v 1.9097 h -1.911 z m 1.911,0 h 1.907 v 1.9097 h -1.907 z m 9.54,0 h 1.912 v 1.9097 h -1.912 z m 1.912,0 h 1.907 v 1.9097 h -1.907 z m 1.907,0 h 1.911 v 1.9097 h -1.911 z m 3.818,0 h 1.907 v 1.9097 h -1.907 z m 3.819,0 h 1.907 v 1.9097 h -1.907 z m 1.907,0 h 1.911 v 1.9097 h -1.911 z m 1.911,0 h 1.908 v 1.9097 h -1.908 z m 3.815,0 h 1.911 v 1.9097 h -1.911 z m -61.08,1.9097 h 1.907 v 1.9093 h -1.907 z m 3.818,0 h 1.908 v 1.9093 h -1.908 z m 1.908,0 h 1.907 v 1.9093 h -1.907 z m 1.907,0 h 1.911 v 1.9093 h -1.911 z m 3.818,0 h 1.912 v 1.9093 h -1.912 z m 5.726,0 h 1.911 v 1.9093 h -1.911 z m 1.911,0 h 1.908 v 1.9093 h -1.908 z m 1.908,0 h 1.911 v 1.9093 h -1.911 z m 5.725,0 h 1.912 v 1.9093 h -1.912 z m 3.819,0 h 1.911 v 1.9093 h -1.911 z m 5.725,0 h 1.912 v 1.9093 h -1.912 z m 1.912,0 h 1.907 v 1.9093 h -1.907 z m 5.726,0 h 1.907 v 1.9093 h -1.907 z m 5.725,0 h 1.907 v 1.9093 h -1.907 z m 3.819,0 h 1.907 v 1.9093 h -1.907 z m 1.907,0 h 1.911 v 1.9093 h -1.911 z m 1.911,0 h 1.908 v 1.9093 h -1.908 z m 3.815,0 h 1.911 v 1.9093 h -1.911 z m -61.08,1.9093 h 1.907 v 1.9093 h -1.907 z m 11.451,0 h 1.912 v 1.9093 h -1.912 z m 3.819,0 h 1.907 v 1.9093 h -1.907 z m 1.907,0 h 1.911 v 1.9093 h -1.911 z m 1.911,0 h 1.908 v 1.9093 h -1.908 z m 9.545,0 h 1.907 v 1.9093 h -1.907 z m 5.725,0 h 1.907 v 1.9093 h -1.907 z m 3.819,0 h 1.907 v 1.9093 h -1.907 z m 3.814,0 h 1.912 v 1.9093 h -1.912 z m 7.637,0 h 1.907 v 1.9093 h -1.907 z m 11.452,0 h 1.911 v 1.9093 h -1.911 z m -61.08,1.9093 h 1.907 v 1.9097 h -1.907 z m 1.907,0 h 1.911 v 1.9097 h -1.911 z m 1.911,0 h 1.908 v 1.9097 h -1.908 z m 1.908,0 h 1.907 v 1.9097 h -1.907 z m 1.907,0 h 1.911 v 1.9097 h -1.911 z m 1.911,0 h 1.907 v 1.9097 h -1.907 z m 1.907,0 h 1.912 v 1.9097 h -1.912 z m 3.819,0 h 1.907 v 1.9097 h -1.907 z m 3.818,0 h 1.908 v 1.9097 h -1.908 z m 3.819,0 h 1.907 v 1.9097 h -1.907 z m 3.814,0 h 1.912 v 1.9097 h -1.912 z m 3.819,0 h 1.911 v 1.9097 h -1.911 z m 3.818,0 h 1.907 v 1.9097 h -1.907 z m 3.819,0 h 1.907 v 1.9097 h -1.907 z m 3.814,0 h 1.912 v 1.9097 h -1.912 z m 3.819,0 h 1.911 v 1.9097 h -1.911 z m 3.818,0 h 1.907 v 1.9097 h -1.907 z m 1.907,0 h 1.912 v 1.9097 h -1.912 z m 1.912,0 h 1.907 v 1.9097 h -1.907 z m 1.907,0 h 1.911 v 1.9097 h -1.911 z m 1.911,0 h 1.908 v 1.9097 h -1.908 z m 1.908,0 h 1.907 v 1.9097 h -1.907 z m 1.907,0 h 1.911 v 1.9097 h -1.911 z m -43.903,1.9097 h 1.911 v 1.9093 h -1.911 z m 3.819,0 h 1.911 v 1.9093 h -1.911 z m 1.911,0 h 1.907 v 1.9093 h -1.907 z m 5.726,0 h 1.907 v 1.9093 h -1.907 z m 1.907,0 h 1.911 v 1.9093 h -1.911 z m 3.818,0 h 1.907 v 1.9093 h -1.907 z m 1.907,0 h 1.912 v 1.9093 h -1.912 z m 3.819,0 h 1.907 v 1.9093 h -1.907 z m 3.819,0 h 1.907 v 1.9093 h -1.907 z m -43.903,1.9093 h 1.907 v 1.9092 h -1.907 z m 1.907,0 h 1.911 v 1.9092 h -1.911 z m 1.911,0 h 1.908 v 1.9092 h -1.908 z m 1.908,0 h 1.907 v 1.9092 h -1.907 z m 1.907,0 h 1.911 v 1.9092 h -1.911 z m 3.818,0 h 1.912 v 1.9092 h -1.912 z m 1.912,0 h 1.907 v 1.9092 h -1.907 z m 1.907,0 h 1.907 v 1.9092 h -1.907 z m 1.907,0 h 1.911 v 1.9092 h -1.911 z m 3.819,0 h 1.911 v 1.9092 h -1.911 z m 1.911,0 h 1.907 v 1.9092 h -1.907 z m 1.907,0 h 1.907 v 1.9092 h -1.907 z m 1.907,0 h 1.912 v 1.9092 h -1.912 z m 1.912,0 h 1.907 v 1.9092 h -1.907 z m 1.907,0 h 1.911 v 1.9092 h -1.911 z m 1.911,0 h 1.907 v 1.9092 h -1.907 z m 9.54,0 h 1.912 v 1.9092 h -1.912 z m 1.912,0 h 1.907 v 1.9092 h -1.907 z m 1.907,0 h 1.911 v 1.9092 h -1.911 z m 1.911,0 h 1.907 v 1.9092 h -1.907 z m 3.814,0 h 1.912 v 1.9092 h -1.912 z m 3.819,0 h 1.911 v 1.9092 h -1.911 z m 3.819,0 h 1.907 v 1.9092 h -1.907 z m -59.173,1.9092 h 1.907 v 1.9097 h -1.907 z m 3.818,0 h 1.908 v 1.9097 h -1.908 z m 1.908,0 h 1.907 v 1.9097 h -1.907 z m 1.907,0 h 1.911 v 1.9097 h -1.911 z m 1.911,0 h 1.907 v 1.9097 h -1.907 z m 5.726,0 h 1.907 v 1.9097 h -1.907 z m 5.726,0 h 1.911 v 1.9097 h -1.911 z m 3.818,0 h 1.907 v 1.9097 h -1.907 z m 5.726,0 h 1.911 v 1.9097 h -1.911 z m 3.818,0 h 1.907 v 1.9097 h -1.907 z m 1.907,0 h 1.912 v 1.9097 h -1.912 z m 1.912,0 h 1.907 v 1.9097 h -1.907 z m 1.907,0 h 1.907 v 1.9097 h -1.907 z m 3.819,0 h 1.907 v 1.9097 h -1.907 z m 1.907,0 h 1.911 v 1.9097 h -1.911 z m 3.818,0 h 1.907 v 1.9097 h -1.907 z m 7.637,0 h 1.908 v 1.9097 h -1.908 z m 1.908,0 h 1.907 v 1.9097 h -1.907 z m 1.907,0 h 1.911 v 1.9097 h -1.911 z m -61.08,1.9097 h 1.907 v 1.9097 h -1.907 v -1.9093 z m 1.907,0 h 1.911 v 1.9097 h -1.911 v -1.9093 z m 5.726,0 h 1.911 v 1.9097 h -1.911 v -1.9093 z m 3.818,0 h 1.912 v 1.9097 h -1.912 v -1.9093 z m 7.637,0 h 1.908 v 1.9097 h -1.908 v -1.9093 z m 5.726,0 h 1.907 v 1.9097 h -1.907 v -1.9093 z m 3.819,0 h 1.907 v 1.9097 h -1.907 v -1.9093 z m 1.907,0 h 1.911 v 1.9097 h -1.911 v -1.9093 z m 3.818,0 h 1.907 v 1.9097 h -1.907 v -1.9093 z m 3.819,0 h 1.907 v 1.9097 h -1.907 v -1.9093 z m 1.907,0 h 1.907 v 1.9097 h -1.907 v -1.9093 z m 1.907,0 h 1.912 v 1.9097 h -1.912 v -1.9093 z m 5.73,0 h 1.907 v 1.9097 h -1.907 v -1.9093 z m 1.907,0 h 1.907 v 1.9097 h -1.907 v -1.9093 z m 1.907,0 h 1.912 v 1.9097 h -1.912 v -1.9093 z m 1.912,0 h 1.907 v 1.9097 h -1.907 v -1.9093 z m 1.907,0 h 1.911 v 1.9097 h -1.911 v -1.9093 z m 3.819,0 h 1.907 v 1.9097 h -1.907 v -1.9093 z m -55.355,1.9097 h 1.908 v 1.9097 h -1.908 z m 1.908,0 h 1.907 v 1.9097 h -1.907 z m 3.818,0 h 1.907 v 1.9097 h -1.907 z m 3.819,0 h 1.907 v 1.9097 h -1.907 z m 1.907,0 h 1.907 v 1.9097 h -1.907 z m 7.637,0 h 1.907 v 1.9097 h -1.907 z m 3.814,0 h 1.912 v 1.9097 h -1.912 z m 9.544,0 h 1.912 v 1.9097 h -1.912 z m 1.912,0 h 1.907 v 1.9097 h -1.907 z m 1.907,0 h 1.907 v 1.9097 h -1.907 z m 3.819,0 h 1.907 v 1.9097 h -1.907 z m 5.725,0 h 1.907 v 1.9097 h -1.907 z m 1.907,0 h 1.912 v 1.9097 h -1.912 z m 5.73,0 h 1.908 v 1.9097 h -1.908 z m -57.265,1.9097 h 1.907 v 1.9093 h -1.907 z m 1.907,0 h 1.911 v 1.9093 h -1.911 z m 1.911,0 h 1.908 v 1.9093 h -1.908 z m 7.633,0 h 1.912 v 1.9093 h -1.912 z m 1.912,0 h 1.907 v 1.9093 h -1.907 z m 1.907,0 h 1.907 v 1.9093 h -1.907 z m 1.907,0 h 1.911 v 1.9093 h -1.911 z m 1.911,0 h 1.908 v 1.9093 h -1.908 z m 3.819,0 h 1.907 v 1.9093 h -1.907 z m 3.814,0 h 1.912 v 1.9093 h -1.912 z m 1.912,0 h 1.907 v 1.9093 h -1.907 z m 3.818,0 h 1.907 v 1.9093 h -1.907 z m 3.814,0 h 1.912 v 1.9093 h -1.912 z m 1.912,0 h 1.907 v 1.9093 h -1.907 z m 3.814,0 h 1.912 v 1.9093 h -1.912 z m 1.912,0 h 1.907 v 1.9093 h -1.907 z m 1.907,0 h 1.911 v 1.9093 h -1.911 z m 7.637,0 h 1.907 v 1.9093 h -1.907 z m 1.907,0 h 1.911 v 1.9093 h -1.911 z m -53.447,1.9093 h 1.911 v 1.9092 h -1.911 v -1.9096 z m 1.911,0 h 1.908 v 1.9092 h -1.908 v -1.9096 z m 3.815,0 h 1.911 v 1.9092 h -1.911 v -1.9096 z m 9.544,0 h 1.911 v 1.9092 h -1.911 v -1.9096 z m 3.819,0 h 1.911 v 1.9092 h -1.911 v -1.9096 z m 3.818,0 h 1.907 v 1.9092 h -1.907 v -1.9096 z m 1.907,0 h 1.912 v 1.9092 h -1.912 v -1.9096 z m 3.819,0 h 1.911 v 1.9092 h -1.911 v -1.9096 z m 1.911,0 h 1.907 v 1.9092 h -1.907 v -1.9096 z m 1.907,0 h 1.907 v 1.9092 h -1.907 v -1.9096 z m 3.819,0 h 1.907 v 1.9092 h -1.907 v -1.9096 z m 1.907,0 h 1.907 v 1.9092 h -1.907 v -1.9096 z m 1.907,0 h 1.912 v 1.9092 h -1.912 v -1.9096 z m 1.912,0 h 1.907 v 1.9092 h -1.907 v -1.9096 z m 5.725,0 h 1.907 v 1.9092 h -1.907 v -1.9096 z m 9.545,0 h 1.907 v 1.9092 h -1.907 v -1.9096 z m 1.907,0 h 1.911 v 1.9092 h -1.911 v -1.9096 z m -51.536,1.9092 h 1.907 v 1.9098 h -1.907 z m 1.907,0 h 1.912 v 1.9098 h -1.912 z m 1.912,0 h 1.907 v 1.9098 h -1.907 z m 1.907,0 h 1.907 v 1.9098 h -1.907 z m 1.907,0 h 1.911 v 1.9098 h -1.911 z m 5.73,0 h 1.907 v 1.9098 h -1.907 z m 1.907,0 h 1.907 v 1.9098 h -1.907 z m 1.907,0 h 1.912 v 1.9098 h -1.912 z m 1.912,0 h 1.907 v 1.9098 h -1.907 z m 1.907,0 h 1.911 v 1.9098 h -1.911 z m 3.818,0 h 1.907 v 1.9098 h -1.907 z m 3.819,0 h 1.907 v 1.9098 h -1.907 z m 1.907,0 h 1.907 v 1.9098 h -1.907 z m 7.637,0 h 1.907 v 1.9098 h -1.907 z m 1.907,0 h 1.907 v 1.9098 h -1.907 z m 3.819,0 h 1.907 v 1.9098 h -1.907 z m 5.726,0 h 1.907 v 1.9098 h -1.907 z m -59.173,1.9098 h 1.907 v 1.9092 h -1.907 z m 3.818,0 h 1.908 v 1.9092 h -1.908 z m 1.908,0 h 1.907 v 1.9092 h -1.907 z m 7.637,0 h 1.907 v 1.9092 h -1.907 z m 9.544,0 h 1.907 v 1.9092 h -1.907 z m 3.814,0 h 1.912 v 1.9092 h -1.912 z m 1.912,0 h 1.907 v 1.9092 h -1.907 z m 1.907,0 h 1.911 v 1.9092 h -1.911 z m 5.725,0 h 1.912 v 1.9092 h -1.912 z m 3.819,0 h 1.907 v 1.9092 h -1.907 z m 5.726,0 h 1.911 v 1.9092 h -1.911 z m 3.818,0 h 1.907 v 1.9092 h -1.907 z m 3.819,0 h 1.907 v 1.9092 h -1.907 z m 3.818,0 h 1.908 v 1.9092 h -1.908 z m -53.447,1.9092 h 1.908 v 1.9097 h -1.908 z m 3.815,0 h 1.911 v 1.9097 h -1.911 z m 1.911,0 h 1.907 v 1.9097 h -1.907 z m 1.907,0 h 1.912 v 1.9097 h -1.912 z m 1.912,0 h 1.907 v 1.9097 h -1.907 z m 1.907,0 h 1.907 v 1.9097 h -1.907 z m 9.544,0 h 1.907 v 1.9097 h -1.907 z m 1.907,0 h 1.912 v 1.9097 h -1.912 z m 1.912,0 h 1.907 v 1.9097 h -1.907 z m 3.818,0 h 1.907 v 1.9097 h -1.907 z m 3.814,0 h 1.912 v 1.9097 h -1.912 z m 5.726,0 h 1.912 v 1.9097 h -1.912 z m 1.912,0 h 1.907 v 1.9097 h -1.907 z m 1.907,0 h 1.911 v 1.9097 h -1.911 z m 1.911,0 h 1.907 v 1.9097 h -1.907 z m 3.814,0 h 1.912 v 1.9097 h -1.912 z m 1.912,0 h 1.907 v 1.9097 h -1.907 z m 5.726,0 h 1.907 v 1.9097 h -1.907 z m -59.173,1.9097 h 1.907 v 1.9093 h -1.907 z m 7.633,0 h 1.911 v 1.9093 h -1.911 z m 5.73,0 h 1.907 v 1.9093 h -1.907 z m 1.907,0 h 1.907 v 1.9093 h -1.907 z m 3.818,0 h 1.908 v 1.9093 h -1.908 z m 1.908,0 h 1.911 v 1.9093 h -1.911 z m 3.818,0 h 1.907 v 1.9093 h -1.907 z m 5.726,0 h 1.911 v 1.9093 h -1.911 z m 3.818,0 h 1.907 v 1.9093 h -1.907 z m 1.907,0 h 1.912 v 1.9093 h -1.912 z m 1.912,0 h 1.907 v 1.9093 h -1.907 z m 1.907,0 h 1.907 v 1.9093 h -1.907 z m 3.819,0 h 1.907 v 1.9093 h -1.907 z m 5.725,0 h 1.907 v 1.9093 h -1.907 z m 5.726,0 h 1.911 v 1.9093 h -1.911 z m 3.819,0 h 1.907 v 1.9093 h -1.907 z m 1.907,0 h 1.911 v 1.9093 h -1.911 z m -57.262,1.9093 h 1.908 v 1.9097 h -1.908 z m 1.908,0 h 1.907 v 1.9097 h -1.907 z m 1.907,0 h 1.911 v 1.9097 h -1.911 z m 1.911,0 h 1.907 v 1.9097 h -1.907 z m 1.907,0 h 1.912 v 1.9097 h -1.912 z m 5.726,0 h 1.911 v 1.9097 h -1.911 z m 1.911,0 h 1.908 v 1.9097 h -1.908 z m 3.819,0 h 1.907 v 1.9097 h -1.907 z m 1.907,0 h 1.907 v 1.9097 h -1.907 z m 3.819,0 h 1.907 v 1.9097 h -1.907 z m 3.818,0 h 1.907 v 1.9097 h -1.907 z m 7.633,0 h 1.907 v 1.9097 h -1.907 z m 5.726,0 h 1.911 v 1.9097 h -1.911 z m 1.911,0 h 1.907 v 1.9097 h -1.907 z m 3.814,0 h 1.912 v 1.9097 h -1.912 z m 3.819,0 h 1.911 v 1.9097 h -1.911 z m 3.819,0 h 1.907 v 1.9097 h -1.907 z m -59.173,1.9097 h 1.907 v 1.9093 h -1.907 z m 1.907,0 h 1.911 v 1.9093 h -1.911 z m 1.911,0 h 1.908 v 1.9093 h -1.908 z m 5.726,0 h 1.907 v 1.9093 h -1.907 z m 3.819,0 h 1.907 v 1.9093 h -1.907 z m 1.907,0 h 1.907 v 1.9093 h -1.907 z m 1.907,0 h 1.911 v 1.9093 h -1.911 z m 9.544,0 h 1.912 v 1.9093 h -1.912 z m 13.363,0 h 1.907 v 1.9093 h -1.907 z m 1.907,0 h 1.912 v 1.9093 h -1.912 z m 1.912,0 h 1.907 v 1.9093 h -1.907 z m 5.725,0 h 1.907 v 1.9093 h -1.907 z m 1.907,0 h 1.912 v 1.9093 h -1.912 z m 1.912,0 h 1.907 v 1.9093 h -1.907 z m 3.818,0 h 1.908 v 1.9093 h -1.908 z m -57.265,1.9093 h 1.907 v 1.9096 h -1.907 z m 7.633,0 h 1.911 v 1.9096 h -1.911 z m 1.911,0 h 1.907 v 1.9096 h -1.907 z m 1.907,0 h 1.912 v 1.9096 h -1.912 z m 5.726,0 h 1.911 v 1.9096 h -1.911 z m 1.911,0 h 1.908 v 1.9096 h -1.908 z m 3.819,0 h 1.907 v 1.9096 h -1.907 z m 1.907,0 h 1.907 v 1.9096 h -1.907 z m 1.907,0 h 1.912 v 1.9096 h -1.912 z m 1.912,0 h 1.907 v 1.9096 h -1.907 z m 1.907,0 h 1.911 v 1.9096 h -1.911 z m 1.911,0 h 1.907 v 1.9096 h -1.907 z m 5.726,0 h 1.907 v 1.9096 h -1.907 z m 3.814,0 h 1.912 v 1.9096 h -1.912 z m 1.912,0 h 1.907 v 1.9096 h -1.907 z m 1.907,0 h 1.911 v 1.9096 h -1.911 z m 1.911,0 h 1.907 v 1.9096 h -1.907 z m 3.814,0 h 1.912 v 1.9096 h -1.912 z m 1.912,0 h 1.907 v 1.9096 h -1.907 z m 5.726,0 h 1.907 v 1.9096 h -1.907 z m -59.173,1.9096 h 1.907 v 1.9093 h -1.907 z m 1.907,0 h 1.911 v 1.9093 h -1.911 z m 3.819,0 h 1.907 v 1.9093 h -1.907 z m 1.907,0 h 1.911 v 1.9093 h -1.911 z m 1.911,0 h 1.907 v 1.9093 h -1.907 z m 7.633,0 h 1.911 v 1.9093 h -1.911 z m 3.819,0 h 1.911 v 1.9093 h -1.911 z m 5.725,0 h 1.912 v 1.9093 h -1.912 z m 3.819,0 h 1.911 v 1.9093 h -1.911 z m 1.911,0 h 1.907 v 1.9093 h -1.907 z m 1.907,0 h 1.907 v 1.9093 h -1.907 z m 1.907,0 h 1.912 v 1.9093 h -1.912 z m 1.912,0 h 1.907 v 1.9093 h -1.907 z m 5.726,0 h 1.907 v 1.9093 h -1.907 z m 1.907,0 h 1.911 v 1.9093 h -1.911 z m 3.818,0 h 1.907 v 1.9093 h -1.907 z m 5.726,0 h 1.911 v 1.9093 h -1.911 z m 3.819,0 h 1.907 v 1.9093 h -1.907 z m 1.907,0 h 1.911 v 1.9093 h -1.911 z m -61.08,1.9093 h 1.907 v 1.9093 h -1.907 z m 3.818,0 h 1.908 v 1.9093 h -1.908 z m 5.726,0 h 1.907 v 1.9093 h -1.907 z m 1.907,0 h 1.912 v 1.9093 h -1.912 z m 1.912,0 h 1.907 v 1.9093 h -1.907 z m 5.725,0 h 1.908 v 1.9093 h -1.908 z m 3.819,0 h 1.907 v 1.9093 h -1.907 z m 1.907,0 h 1.907 v 1.9093 h -1.907 z m 1.907,0 h 1.912 v 1.9093 h -1.912 z m 1.912,0 h 1.907 v 1.9093 h -1.907 z m 1.907,0 h 1.911 v 1.9093 h -1.911 z m 1.911,0 h 1.907 v 1.9093 h -1.907 z m 5.726,0 h 1.907 v 1.9093 h -1.907 z m 9.544,0 h 1.907 v 1.9093 h -1.907 z m 1.907,0 h 1.907 v 1.9093 h -1.907 z m 1.907,0 h 1.912 v 1.9093 h -1.912 z m 3.819,0 h 1.911 v 1.9093 h -1.911 z m 3.819,0 h 1.907 v 1.9093 h -1.907 z m -59.173,1.9093 h 1.907 v 1.91 h -1.907 z m 9.544,0 h 1.907 v 1.91 h -1.907 z m 3.819,0 h 1.907 v 1.91 h -1.907 z m 1.907,0 h 1.907 v 1.91 h -1.907 z m 5.726,0 h 1.911 v 1.91 h -1.911 z m 5.725,0 h 1.912 v 1.91 h -1.912 z m 1.912,0 h 1.907 v 1.91 h -1.907 z m 5.725,0 h 1.907 v 1.91 h -1.907 z m 1.907,0 h 1.912 v 1.91 h -1.912 z m 1.912,0 h 1.907 v 1.91 h -1.907 z m 1.907,0 h 1.907 v 1.91 h -1.907 z m 1.907,0 h 1.912 v 1.91 h -1.912 z m 1.912,0 h 1.907 v 1.91 h -1.907 z m 1.907,0 h 1.911 v 1.91 h -1.911 z m 1.911,0 h 1.907 v 1.91 h -1.907 z m 1.907,0 h 1.907 v 1.91 h -1.907 z m 5.726,0 h 1.911 v 1.91 h -1.911 z m 1.911,0 h 1.908 v 1.91 h -1.908 z m -57.265,1.91 h 1.907 v 1.909 h -1.907 v -1.91 z m 3.818,0 h 1.908 v 1.909 h -1.908 v -1.91 z m 1.908,0 h 1.907 v 1.909 h -1.907 v -1.91 z m 3.818,0 h 1.907 v 1.909 h -1.907 v -1.91 z m 1.907,0 h 1.912 v 1.909 h -1.912 v -1.91 z m 5.726,0 h 1.911 v 1.909 h -1.911 v -1.91 z m 3.819,0 h 1.911 v 1.909 h -1.911 v -1.91 z m 1.911,0 h 1.907 v 1.909 h -1.907 v -1.91 z m 1.907,0 h 1.907 v 1.909 h -1.907 v -1.91 z m 1.907,0 h 1.912 v 1.909 h -1.912 v -1.91 z m 5.73,0 h 1.907 v 1.909 h -1.907 v -1.91 z m 1.907,0 h 1.907 v 1.909 h -1.907 v -1.91 z m 1.907,0 h 1.912 v 1.909 h -1.912 v -1.91 z m 1.912,0 h 1.907 v 1.909 h -1.907 v -1.91 z m 3.814,0 h 1.912 v 1.909 h -1.912 v -1.91 z m 3.819,0 h 1.911 v 1.909 h -1.911 v -1.91 z m 1.911,0 h 1.907 v 1.909 h -1.907 v -1.91 z m 1.907,0 h 1.907 v 1.909 h -1.907 v -1.91 z m 1.907,0 h 1.912 v 1.909 h -1.912 v -1.91 z m 1.912,0 h 1.907 v 1.909 h -1.907 v -1.91 z m 1.907,0 h 1.911 v 1.909 h -1.911 v -1.91 z m 5.726,0 h 1.911 v 1.909 h -1.911 v -1.91 z m -45.81,1.909 h 1.907 v 1.909 h -1.907 z m 5.726,0 h 1.911 v 1.909 h -1.911 z m 9.544,0 h 1.911 v 1.909 h -1.911 z m 1.911,0 h 1.907 v 1.909 h -1.907 z m 3.814,0 h 1.912 v 1.909 h -1.912 z m 7.638,0 h 1.907 v 1.909 h -1.907 z m 1.907,0 h 1.911 v 1.909 h -1.911 z m 7.637,0 h 1.907 v 1.909 h -1.907 z m 7.633,0 h 1.911 v 1.909 h -1.911 z m -61.08,1.909 h 1.907 v 1.91 h -1.907 z m 1.907,0 h 1.911 v 1.91 h -1.911 z m 1.911,0 h 1.908 v 1.91 h -1.908 z m 1.908,0 h 1.907 v 1.91 h -1.907 z m 1.907,0 h 1.911 v 1.91 h -1.911 z m 1.911,0 h 1.907 v 1.91 h -1.907 z m 1.907,0 h 1.912 v 1.91 h -1.912 z m 3.819,0 h 1.907 v 1.91 h -1.907 z m 3.818,0 h 1.908 v 1.91 h -1.908 z m 7.633,0 h 1.912 v 1.91 h -1.912 z m 1.912,0 h 1.907 v 1.91 h -1.907 z m 9.544,0 h 1.907 v 1.91 h -1.907 z m 5.726,0 h 1.907 v 1.91 h -1.907 z m 1.907,0 h 1.911 v 1.91 h -1.911 z m 3.818,0 h 1.907 v 1.91 h -1.907 z m 3.819,0 h 1.907 v 1.91 h -1.907 z m 5.726,0 h 1.907 v 1.91 h -1.907 z m -59.173,1.91 h 1.907 v 1.91 h -1.907 z m 11.451,0 h 1.912 v 1.91 h -1.912 z m 7.637,0 h 1.908 v 1.91 h -1.908 z m 3.819,0 h 1.907 v 1.91 h -1.907 z m 5.726,0 h 1.907 v 1.91 h -1.907 z m 1.907,0 h 1.911 v 1.91 h -1.911 z m 5.725,0 h 1.912 v 1.91 h -1.912 z m 1.912,0 h 1.907 v 1.91 h -1.907 z m 1.907,0 h 1.907 v 1.91 h -1.907 z m 1.907,0 h 1.912 v 1.91 h -1.912 z m 1.912,0 h 1.907 v 1.91 h -1.907 z m 1.907,0 h 1.911 v 1.91 h -1.911 z m 7.637,0 h 1.907 v 1.91 h -1.907 z m 1.907,0 h 1.911 v 1.91 h -1.911 z m 1.911,0 h 1.908 v 1.91 h -1.908 z m 1.908,0 h 1.907 v 1.91 h -1.907 z m -59.173,1.91 h 1.907 v 1.909 h -1.907 z m 3.818,0 h 1.908 v 1.909 h -1.908 z m 1.908,0 h 1.907 v 1.909 h -1.907 z m 1.907,0 h 1.911 v 1.909 h -1.911 z m 3.818,0 h 1.912 v 1.909 h -1.912 z m 3.819,0 h 1.907 v 1.909 h -1.907 z m 1.907,0 h 1.911 v 1.909 h -1.911 z m 1.911,0 h 1.908 v 1.909 h -1.908 z m 1.908,0 h 1.911 v 1.909 h -1.911 z m 1.911,0 h 1.907 v 1.909 h -1.907 z m 1.907,0 h 1.907 v 1.909 h -1.907 z m 3.819,0 h 1.907 v 1.909 h -1.907 z m 7.632,0 h 1.912 v 1.909 h -1.912 z m 5.726,0 h 1.912 v 1.909 h -1.912 z m 3.819,0 h 1.911 v 1.909 h -1.911 z m 1.911,0 h 1.907 v 1.909 h -1.907 z m 1.907,0 h 1.907 v 1.909 h -1.907 z m 1.907,0 h 1.912 v 1.909 h -1.912 z m 1.912,0 h 1.907 v 1.909 h -1.907 z m 1.907,0 h 1.911 v 1.909 h -1.911 z m 3.819,0 h 1.907 v 1.909 h -1.907 z m 1.907,0 h 1.911 v 1.909 h -1.911 z m -61.08,1.909 h 1.907 v 1.909 h -1.907 z m 3.818,0 h 1.908 v 1.909 h -1.908 z m 1.908,0 h 1.907 v 1.909 h -1.907 z m 1.907,0 h 1.911 v 1.909 h -1.911 z m 3.818,0 h 1.912 v 1.909 h -1.912 z m 3.819,0 h 1.907 v 1.909 h -1.907 z m 1.907,0 h 1.911 v 1.909 h -1.911 z m 3.819,0 h 1.911 v 1.909 h -1.911 z m 3.818,0 h 1.907 v 1.909 h -1.907 z m 1.907,0 h 1.912 v 1.909 h -1.912 z m 3.819,0 h 1.911 v 1.909 h -1.911 z m 5.725,0 h 1.912 v 1.909 h -1.912 z m 3.819,0 h 1.907 v 1.909 h -1.907 z m 3.819,0 h 1.907 v 1.909 h -1.907 z m 1.907,0 h 1.911 v 1.909 h -1.911 z m 1.911,0 h 1.907 v 1.909 h -1.907 z m 3.814,0 h 1.912 v 1.909 h -1.912 z m 1.912,0 h 1.907 v 1.909 h -1.907 z m 1.907,0 h 1.911 v 1.909 h -1.911 z m 1.911,0 h 1.908 v 1.909 h -1.908 z m -57.265,1.909 h 1.907 v 1.91 h -1.907 z m 3.818,0 h 1.908 v 1.91 h -1.908 z m 1.908,0 h 1.907 v 1.91 h -1.907 z m 1.907,0 h 1.911 v 1.91 h -1.911 z m 3.818,0 h 1.912 v 1.91 h -1.912 z m 3.819,0 h 1.907 v 1.91 h -1.907 z m 1.907,0 h 1.911 v 1.91 h -1.911 z m 9.544,0 h 1.912 v 1.91 h -1.912 z m 1.912,0 h 1.907 v 1.91 h -1.907 z m 1.907,0 h 1.911 v 1.91 h -1.911 z m 1.911,0 h 1.907 v 1.91 h -1.907 z m 1.907,0 h 1.907 v 1.91 h -1.907 z m 5.726,0 h 1.907 v 1.91 h -1.907 z m 1.907,0 h 1.912 v 1.91 h -1.912 z m 1.912,0 h 1.907 v 1.91 h -1.907 z m 1.907,0 h 1.911 v 1.91 h -1.911 z m 1.911,0 h 1.907 v 1.91 h -1.907 z m 1.907,0 h 1.907 v 1.91 h -1.907 z m 5.726,0 h 1.911 v 1.91 h -1.911 z m 1.911,0 h 1.908 v 1.91 h -1.908 z m 1.908,0 h 1.907 v 1.91 h -1.907 z m -59.173,1.91 h 1.907 v 1.909 h -1.907 z m 11.451,0 h 1.912 v 1.909 h -1.912 z m 3.819,0 h 1.907 v 1.909 h -1.907 z m 3.818,0 h 1.908 v 1.909 h -1.908 z m 1.908,0 h 1.911 v 1.909 h -1.911 z m 1.911,0 h 1.907 v 1.909 h -1.907 z m 3.814,0 h 1.912 v 1.909 h -1.912 z m 1.912,0 h 1.907 v 1.909 h -1.907 z m 1.907,0 h 1.911 v 1.909 h -1.911 z m 3.818,0 h 1.907 v 1.909 h -1.907 z m 3.819,0 h 1.907 v 1.909 h -1.907 z m 1.907,0 h 1.907 v 1.909 h -1.907 z m 1.907,0 h 1.912 v 1.909 h -1.912 z m 1.912,0 h 1.907 v 1.909 h -1.907 z m 11.451,0 h 1.911 v 1.909 h -1.911 z m 1.911,0 h 1.908 v 1.909 h -1.908 z m -57.265,1.909 h 1.907 v 1.91 h -1.907 z m 1.907,0 h 1.911 v 1.91 h -1.911 z m 1.911,0 h 1.908 v 1.91 h -1.908 z m 1.908,0 h 1.907 v 1.91 h -1.907 z m 1.907,0 h 1.911 v 1.91 h -1.911 z m 1.911,0 h 1.907 v 1.91 h -1.907 z m 1.907,0 h 1.912 v 1.91 h -1.912 z m 3.819,0 h 1.907 v 1.91 h -1.907 z m 5.726,0 h 1.911 v 1.91 h -1.911 z m 1.911,0 h 1.907 v 1.91 h -1.907 z m 1.907,0 h 1.907 v 1.91 h -1.907 z m 1.907,0 h 1.912 v 1.91 h -1.912 z m 1.912,0 h 1.907 v 1.91 h -1.907 z m 3.818,0 h 1.907 v 1.91 h -1.907 z m 5.726,0 h 1.907 v 1.91 h -1.907 z m 3.814,0 h 1.912 v 1.91 h -1.912 z m 1.912,0 h 1.907 v 1.91 h -1.907 z m 1.907,0 h 1.911 v 1.91 h -1.911 z m 3.818,0 h 1.907 v 1.91 h -1.907 z m 1.907,0 h 1.912 v 1.91 h -1.912 z m 1.912,0 h 1.907 v 1.91 h -1.907 z m 5.726,0 h 1.907 v 1.91 h -1.907 z"
           fill="#000000"
           id="path76" />
      </g>
      <path
         d="m 442.66,130.557 c 0.61,0 1.116,0.151 1.517,0.454 0.402,0.297 0.66,0.701 0.773,1.212 h -1.049 c -0.099,-0.227 -0.258,-0.407 -0.475,-0.539 -0.213,-0.137 -0.466,-0.206 -0.759,-0.206 -0.288,0 -0.543,0.067 -0.765,0.199 -0.222,0.132 -0.395,0.321 -0.518,0.567 -0.122,0.246 -0.184,0.534 -0.184,0.865 0,0.524 0.139,0.933 0.418,1.226 0.284,0.293 0.669,0.44 1.156,0.44 0.359,0 0.666,-0.107 0.921,-0.319 0.26,-0.213 0.428,-0.508 0.504,-0.886 h -1.695 v -0.716 h 2.531 v 0.964 c -0.071,0.331 -0.21,0.635 -0.418,0.914 -0.203,0.279 -0.473,0.504 -0.808,0.674 -0.331,0.165 -0.711,0.248 -1.142,0.248 -0.491,0 -0.926,-0.107 -1.304,-0.319 -0.373,-0.218 -0.664,-0.518 -0.872,-0.9 -0.203,-0.388 -0.305,-0.83 -0.305,-1.326 0,-0.496 0.102,-0.936 0.305,-1.319 0.208,-0.387 0.499,-0.69 0.872,-0.907 0.373,-0.217 0.806,-0.326 1.297,-0.326 z m 6.817,2.942 c 0,0.099 -0.012,0.212 -0.036,0.34 h -2.878 c 0.015,0.35 0.109,0.607 0.284,0.773 0.175,0.165 0.392,0.248 0.652,0.248 0.232,0 0.423,-0.057 0.574,-0.17 0.156,-0.114 0.256,-0.267 0.298,-0.461 h 1.056 c -0.052,0.274 -0.163,0.52 -0.333,0.737 -0.17,0.218 -0.39,0.388 -0.659,0.511 -0.265,0.122 -0.56,0.184 -0.886,0.184 -0.383,0 -0.723,-0.08 -1.021,-0.241 -0.298,-0.166 -0.529,-0.399 -0.695,-0.702 -0.165,-0.302 -0.248,-0.659 -0.248,-1.07 0,-0.412 0.083,-0.768 0.248,-1.071 0.166,-0.307 0.397,-0.541 0.695,-0.702 0.298,-0.16 0.638,-0.241 1.021,-0.241 0.387,0 0.725,0.081 1.013,0.241 0.293,0.161 0.518,0.383 0.674,0.667 0.161,0.279 0.241,0.598 0.241,0.957 z M 448.47,133.4 c 0.014,-0.322 -0.071,-0.565 -0.255,-0.731 -0.179,-0.165 -0.402,-0.248 -0.666,-0.248 -0.27,0 -0.496,0.083 -0.681,0.248 -0.184,0.166 -0.286,0.409 -0.305,0.731 z m 2.716,-3.035 v 5.246 h -1 v -5.246 z m 2.443,1.269 c 0.33,0 0.612,0.078 0.843,0.234 0.236,0.156 0.407,0.367 0.51,0.631 v -2.134 h 0.993 v 5.246 h -0.993 v -0.822 c -0.103,0.265 -0.274,0.477 -0.51,0.638 -0.231,0.156 -0.513,0.234 -0.843,0.234 -0.331,0 -0.629,-0.08 -0.894,-0.241 -0.264,-0.161 -0.472,-0.392 -0.624,-0.695 -0.146,-0.307 -0.219,-0.666 -0.219,-1.077 0,-0.412 0.073,-0.768 0.219,-1.071 0.152,-0.307 0.36,-0.541 0.624,-0.702 0.265,-0.16 0.563,-0.241 0.894,-0.241 z m 0.311,0.872 c -0.311,0 -0.562,0.102 -0.751,0.305 -0.189,0.203 -0.284,0.482 -0.284,0.837 0,0.354 0.095,0.633 0.284,0.836 0.189,0.199 0.44,0.298 0.751,0.298 0.303,0 0.551,-0.102 0.745,-0.305 0.198,-0.208 0.297,-0.484 0.297,-0.829 0,-0.35 -0.099,-0.627 -0.297,-0.83 -0.194,-0.208 -0.442,-0.312 -0.745,-0.312 z m 2.827,-1.949 c 0,-0.161 0.057,-0.291 0.17,-0.39 0.114,-0.104 0.263,-0.156 0.447,-0.156 0.184,0 0.333,0.052 0.447,0.156 0.113,0.099 0.17,0.229 0.17,0.39 0,0.156 -0.057,0.286 -0.17,0.39 -0.114,0.099 -0.263,0.149 -0.447,0.149 -0.184,0 -0.333,-0.05 -0.447,-0.149 -0.113,-0.104 -0.17,-0.234 -0.17,-0.39 z m 1.113,1.127 v 3.927 h -0.999 v -3.927 z m 2.443,-0.05 c 0.331,0 0.614,0.078 0.85,0.234 0.237,0.156 0.405,0.367 0.504,0.631 v -0.815 h 0.992 v 3.941 c 0,0.364 -0.073,0.69 -0.22,0.979 -0.141,0.293 -0.356,0.522 -0.645,0.687 -0.283,0.166 -0.628,0.248 -1.035,0.248 -0.567,0 -1.025,-0.134 -1.375,-0.404 -0.35,-0.269 -0.562,-0.635 -0.638,-1.098 h 0.986 c 0.056,0.198 0.165,0.352 0.326,0.46 0.165,0.114 0.375,0.171 0.631,0.171 0.293,0 0.529,-0.088 0.708,-0.263 0.18,-0.17 0.27,-0.43 0.27,-0.78 v -0.836 c -0.099,0.265 -0.267,0.477 -0.504,0.638 -0.236,0.156 -0.519,0.234 -0.85,0.234 -0.331,0 -0.629,-0.08 -0.893,-0.241 -0.265,-0.161 -0.473,-0.392 -0.624,-0.695 -0.147,-0.307 -0.22,-0.666 -0.22,-1.077 0,-0.412 0.073,-0.768 0.22,-1.071 0.151,-0.307 0.359,-0.541 0.624,-0.702 0.264,-0.16 0.562,-0.241 0.893,-0.241 z m 0.312,0.872 c -0.312,0 -0.563,0.102 -0.752,0.305 -0.189,0.203 -0.283,0.482 -0.283,0.837 0,0.354 0.094,0.633 0.283,0.836 0.189,0.199 0.44,0.298 0.752,0.298 0.302,0 0.55,-0.102 0.744,-0.305 0.199,-0.208 0.298,-0.484 0.298,-0.829 0,-0.35 -0.099,-0.627 -0.298,-0.83 -0.194,-0.208 -0.442,-0.312 -0.744,-0.312 z m 6.582,2.248 v 0.857 h -0.524 c -0.44,0 -0.778,-0.106 -1.014,-0.319 -0.232,-0.212 -0.348,-0.567 -0.348,-1.063 v -1.701 h -0.545 v -0.844 h 0.545 v -0.971 h 1 v 0.971 h 0.879 v 0.844 h -0.879 v 1.715 c 0,0.189 0.038,0.321 0.113,0.397 0.076,0.076 0.204,0.114 0.383,0.114 z m 3.08,-5.856 -1.921,7.996 h -0.964 l 1.921,-7.996 z m 5.351,2.729 c 0.477,0 0.853,0.149 1.127,0.447 0.279,0.293 0.418,0.711 0.418,1.255 v 2.282 h -0.992 v -2.169 c 0,-0.302 -0.078,-0.534 -0.234,-0.695 -0.151,-0.165 -0.362,-0.248 -0.631,-0.248 -0.279,0 -0.501,0.088 -0.667,0.263 -0.165,0.174 -0.248,0.43 -0.248,0.765 v 2.084 h -0.992 v -2.169 c 0,-0.302 -0.078,-0.534 -0.234,-0.695 -0.151,-0.165 -0.362,-0.248 -0.631,-0.248 -0.279,0 -0.501,0.088 -0.666,0.263 -0.166,0.174 -0.248,0.43 -0.248,0.765 v 2.084 h -1 v -3.927 h 1 v 0.744 c 0.104,-0.255 0.267,-0.451 0.489,-0.588 0.227,-0.142 0.489,-0.213 0.787,-0.213 0.316,0 0.59,0.076 0.822,0.227 0.236,0.151 0.413,0.369 0.532,0.652 0.122,-0.269 0.304,-0.482 0.545,-0.638 0.246,-0.16 0.52,-0.241 0.823,-0.241 z m 3.598,-0.085 v -0.935 h 1.801 v 5.004 h -1.049 v -4.069 z m 8.492,4.069 h -1 l -2.24,-3.402 v 3.402 h -0.999 v -5.004 h 0.999 l 2.24,3.431 v -3.431 h 1 z m 2.719,-3.977 c 0.383,0 0.725,0.081 1.028,0.241 0.307,0.161 0.548,0.395 0.723,0.702 0.175,0.303 0.262,0.659 0.262,1.071 0,0.411 -0.087,0.768 -0.262,1.07 -0.175,0.303 -0.416,0.536 -0.723,0.702 -0.303,0.161 -0.645,0.241 -1.028,0.241 -0.383,0 -0.728,-0.08 -1.035,-0.241 -0.302,-0.166 -0.541,-0.399 -0.716,-0.702 -0.175,-0.302 -0.262,-0.659 -0.262,-1.07 0,-0.412 0.087,-0.768 0.262,-1.071 0.175,-0.307 0.414,-0.541 0.716,-0.702 0.307,-0.16 0.652,-0.241 1.035,-0.241 z m 0,0.865 c -0.279,0 -0.515,0.099 -0.709,0.298 -0.194,0.194 -0.29,0.477 -0.29,0.851 0,0.373 0.096,0.659 0.29,0.857 0.194,0.194 0.43,0.291 0.709,0.291 0.279,0 0.515,-0.097 0.709,-0.291 0.194,-0.198 0.291,-0.484 0.291,-0.857 0,-0.374 -0.097,-0.657 -0.291,-0.851 -0.194,-0.199 -0.43,-0.298 -0.709,-0.298 z m 4.428,2.113 0.993,-2.928 h 1.063 l -1.453,3.927 h -1.22 l -1.453,-3.927 h 1.071 z m 3.242,0.354 c 0.114,0.255 0.171,0.513 0.171,0.773 0,0.293 -0.078,0.534 -0.234,0.723 -0.152,0.189 -0.388,0.283 -0.709,0.283 v -0.382 c 0.123,0 0.212,-0.031 0.269,-0.092 0.057,-0.057 0.085,-0.161 0.085,-0.312 v -0.071 h -0.454 v -0.922 z m -37.208,9.858 c 1.602,-1.11 2.403,-2.032 2.403,-2.764 0,-0.222 -0.054,-0.397 -0.163,-0.525 -0.104,-0.127 -0.269,-0.191 -0.496,-0.191 -0.468,0 -0.716,0.319 -0.744,0.957 h -0.971 c 0.028,-0.591 0.207,-1.038 0.538,-1.34 0.331,-0.307 0.749,-0.461 1.255,-0.461 0.515,0 0.91,0.135 1.184,0.404 0.279,0.265 0.418,0.619 0.418,1.064 0,0.349 -0.104,0.701 -0.312,1.056 -0.203,0.35 -0.463,0.673 -0.78,0.971 -0.316,0.293 -0.649,0.546 -0.999,0.759 h 2.19 v 0.815 h -3.523 z m 6,0.787 c -1.276,0 -1.914,-0.848 -1.914,-2.545 0,-1.692 0.638,-2.537 1.914,-2.537 0.676,0 1.163,0.226 1.461,0.68 0.297,0.454 0.446,1.073 0.446,1.857 0,0.79 -0.149,1.411 -0.446,1.865 -0.298,0.453 -0.785,0.68 -1.461,0.68 z m 0.73,-1.354 c 0.128,-0.279 0.192,-0.676 0.192,-1.191 0,-0.51 -0.064,-0.902 -0.192,-1.176 -0.122,-0.279 -0.366,-0.419 -0.73,-0.419 -0.368,0 -0.617,0.14 -0.744,0.419 -0.123,0.274 -0.184,0.666 -0.184,1.176 0,0.515 0.061,0.912 0.184,1.191 0.127,0.274 0.376,0.411 0.744,0.411 0.364,0 0.608,-0.137 0.73,-0.411 z m 1.764,0.567 c 1.602,-1.11 2.403,-2.032 2.403,-2.764 0,-0.222 -0.054,-0.397 -0.163,-0.525 -0.104,-0.127 -0.269,-0.191 -0.496,-0.191 -0.468,0 -0.716,0.319 -0.744,0.957 h -0.971 c 0.028,-0.591 0.208,-1.038 0.538,-1.34 0.331,-0.307 0.75,-0.461 1.255,-0.461 0.515,0 0.91,0.135 1.184,0.404 0.279,0.265 0.418,0.619 0.418,1.064 0,0.349 -0.104,0.701 -0.312,1.056 -0.203,0.35 -0.463,0.673 -0.779,0.971 -0.317,0.293 -0.65,0.546 -1,0.759 h 2.191 v 0.815 h -3.524 z m 4.03,-0.219 v -0.83 l 2.396,-3.225 h 1.07 v 3.19 h 0.652 v 0.865 h -0.652 v 1.006 h -1.006 v -1.006 z m 2.538,-2.886 -1.517,2.021 h 1.517 z"
         fill="#2a2b2d"
         id="path80" />
    </g>
    <rect
       x="60.322201"
       y="35.322201"
       width="463.35599"
       height="128.244"
       rx="15.1444"
       stroke="#e5e5e5"
       stroke-width="0.644444"
       id="rect84" />
  </g>
  <defs
     id="defs145">
    <filter
       id="filter0_bd_2318_32341"
       x="0.32299399"
       y="0.671211"
       width="583.354"
       height="248.243"
       filterUnits="userSpaceOnUse"
       color-interpolation-filters="sRGB">
      <feFlood
         flood-opacity="0"
         result="BackgroundImageFix"
         id="feFlood88" />
      <feGaussianBlur
         in="BackgroundImageFix"
         stdDeviation="7.83784"
         id="feGaussianBlur90" />
      <feComposite
         in2="SourceAlpha"
         operator="in"
         result="effect1_backgroundBlur_2318_32341"
         id="feComposite92" />
      <feColorMatrix
         in="SourceAlpha"
         type="matrix"
         values="0 0 0 0 0 0 0 0 0 0 0 0 0 0 0 0 0 0 127 0"
         result="hardAlpha"
         id="feColorMatrix94" />
      <feMorphology
         radius="1.18112"
         operator="dilate"
         in="SourceAlpha"
         result="effect2_dropShadow_2318_32341"
         id="feMorphology96" />
      <feOffset
         dy="25.3482"
         id="feOffset98" />
      <feGaussianBlur
         stdDeviation="29.2479"
         id="feGaussianBlur100" />
      <feColorMatrix
         type="matrix"
         values="0 0 0 0 0.313049 0 0 0 0 0.336131 0 0 0 0 0.416073 0 0 0 0.1 0"
         id="feColorMatrix102" />
      <feBlend
         mode="normal"
         in2="effect1_backgroundBlur_2318_32341"
         result="effect2_dropShadow_2318_32341"
         id="feBlend104" />
      <feBlend
         mode="normal"
         in="SourceGraphic"
         in2="effect2_dropShadow_2318_32341"
         result="shape"
         id="feBlend106" />
    </filter>
    <filter
       id="filter1_d_2318_32341"
       x="430.55701"
       y="50.055698"
       width="77.333099"
       height="77.333298"
       filterUnits="userSpaceOnUse"
       color-interpolation-filters="sRGB">
      <feFlood
         flood-opacity="0"
         result="BackgroundImageFix"
         id="feFlood109" />
      <feColorMatrix
         in="SourceAlpha"
         type="matrix"
         values="0 0 0 0 0 0 0 0 0 0 0 0 0 0 0 0 0 0 127 0"
         result="hardAlpha"
         id="feColorMatrix111" />
      <feOffset
         id="feOffset113" />
      <feGaussianBlur
         stdDeviation="1.61111"
         id="feGaussianBlur115" />
      <feColorMatrix
         type="matrix"
         values="0 0 0 0 0.0980392 0 0 0 0 0.152941 0 0 0 0 0.203922 0 0 0 0.22 0"
         id="feColorMatrix117" />
      <feBlend
         mode="normal"
         in2="BackgroundImageFix"
         result="effect1_dropShadow_2318_32341"
         id="feBlend119" />
      <feBlend
         mode="normal"
         in="SourceGraphic"
         in2="effect1_dropShadow_2318_32341"
         result="shape"
         id="feBlend121" />
    </filter>
    <linearGradient
       id="paint0_linear_2318_32341"
       x1="0"
       y1="0"
       x2="91.116302"
       y2="151.593"
       gradientUnits="userSpaceOnUse">
      <stop
         offset="0.433962"
         stop-color="#F1F2F4"
         id="stop124" />
      <stop
         offset="1"
         stop-color="#F1F2F4"
         stop-opacity="0"
         id="stop126" />
    </linearGradient>
    <linearGradient
       id="paint1_linear_2318_32341"
       x1="72.888702"
       y1="47.888901"
       x2="145.782"
       y2="169.16299"
       gradientUnits="userSpaceOnUse">
      <stop
         offset="0.433962"
         stop-color="#F1F2F4"
         id="stop129" />
      <stop
         offset="1"
         stop-color="#F1F2F4"
         stop-opacity="0"
         id="stop131" />
    </linearGradient>
    <linearGradient
       id="paint2_linear_2318_32341"
       x1="0"
       y1="0"
       x2="97.279602"
       y2="137.57001"
       gradientUnits="userSpaceOnUse">
      <stop
         offset="0.433962"
         stop-color="#F1F2F4"
         id="stop134" />
      <stop
         offset="1"
         stop-color="#F1F2F4"
         stop-opacity="0"
         id="stop136" />
    </linearGradient>
    <clipPath
       id="clip0_2318_32341">
      <rect
         x="60"
         y="35"
         width="464"
         height="128.88901"
         rx="15.4667"
         fill="#ffffff"
         id="rect139" />
    </clipPath>
    <clipPath
       id="clip1_2318_32341">
      <rect
         width="14.1778"
         height="14.1778"
         fill="#ffffff"
         transform="translate(213.375,131.667)"
         id="rect142"
         x="0"
         y="0" />
    </clipPath>
  </defs>
</svg>
