<?xml version="1.0" encoding="UTF-8" standalone="no"?>
<svg
   width="159.63673"
   height="183.98073"
   viewBox="0 0 159.63673 183.98073"
   fill="none"
   version="1.1"
   id="svg199"
   sodipodi:docname="aspects-6-4.svg"
   inkscape:version="1.1.2 (0a00cf5339, 2022-02-04)"
   xmlns:inkscape="http://www.inkscape.org/namespaces/inkscape"
   xmlns:sodipodi="http://sodipodi.sourceforge.net/DTD/sodipodi-0.dtd"
   xmlns="http://www.w3.org/2000/svg"
   xmlns:svg="http://www.w3.org/2000/svg">
  <sodipodi:namedview
     id="namedview201"
     pagecolor="#ffffff"
     bordercolor="#666666"
     borderopacity="1.0"
     inkscape:pageshadow="2"
     inkscape:pageopacity="0.0"
     inkscape:pagecheckerboard="0"
     showgrid="false"
     fit-margin-top="0"
     fit-margin-left="0"
     fit-margin-right="0"
     fit-margin-bottom="0"
     inkscape:zoom="2.3542166"
     inkscape:cx="45.450363"
     inkscape:cy="105.13051"
     inkscape:window-width="1920"
     inkscape:window-height="1017"
     inkscape:window-x="0"
     inkscape:window-y="0"
     inkscape:window-maximized="1"
     inkscape:current-layer="g74" />
  <g
     filter="url(#filter0_d_2318_22879)"
     id="g74"
     transform="translate(-34.000028,-14.00003)">
    <rect
       x="34"
       y="14"
       width="159.63699"
       height="183.98"
       rx="6.62992"
       fill="#ffffff"
       id="rect2" />
    <rect
       x="34.414398"
       y="14.4144"
       width="158.808"
       height="183.15199"
       rx="6.2155499"
       stroke="#dcdce0"
       stroke-width="0.82874"
       id="rect4" />
    <rect
       width="144.00301"
       height="108.002"
       transform="translate(41.8184,21.8173)"
       fill="#0047ff"
       id="rect6"
       x="0"
       y="0" />
    <rect
       width="144.00301"
       height="108.002"
       transform="translate(41.8184,21.8173)"
       fill="url(#paint0_linear_2318_22879)"
       id="rect8"
       x="0"
       y="0"
       style="fill:url(#paint0_linear_2318_22879)" />
    <rect
       width="144.00301"
       height="108.002"
       transform="translate(41.8184,21.8173)"
       fill="url(#paint1_linear_2318_22879)"
       id="rect10"
       x="0"
       y="0"
       style="fill:url(#paint1_linear_2318_22879)" />
    <g
       filter="url(#filter1_d_2318_22879)"
       id="g16">
      <rect
         x="180.164"
         y="20.273899"
         width="7.20012"
         height="7.20013"
         rx="3.60006"
         fill="#0e08ff"
         id="rect12" />
      <rect
         x="179.13499"
         y="19.2453"
         width="9.2573004"
         height="9.2573004"
         rx="4.6286502"
         stroke="#ffffff"
         stroke-width="2.05718"
         id="rect14" />
    </g>
    <path
       d="m 41.8164,140.446 c 0,-1.136 0.921,-2.057 2.0572,-2.057 H 172.447 c 1.136,0 2.057,0.921 2.057,2.057 0,1.137 -0.921,2.058 -2.057,2.058 H 43.8736 c -1.1362,0 -2.0572,-0.921 -2.0572,-2.058 z"
       fill="url(#paint2_linear_2318_22879)"
       id="path18"
       style="fill:url(#paint2_linear_2318_22879)" />
    <g
       filter="url(#filter2_d_2318_22879)"
       id="g24">
      <rect
         x="142.619"
         y="136.33299"
         width="8.0498304"
         height="8.2287102"
         rx="4.02492"
         fill="#1708ff"
         id="rect20" />
      <rect
         x="143.64799"
         y="137.362"
         width="5.99265"
         height="6.1715398"
         rx="2.99633"
         stroke="#ffffff"
         stroke-width="2.05718"
         id="rect22" />
    </g>
    <path
       fill-rule="evenodd"
       clip-rule="evenodd"
       d="m 184.458,139.692 c 0.389,-0.388 0.256,-1.132 -0.305,-1.692 -0.559,-0.56 -1.303,-0.694 -1.691,-0.305 -0.262,0.262 -0.306,0.774 -0.219,1.199 l -0.102,0.073 -0.35,-0.351 c -0.081,-0.08 -0.211,-0.08 -0.291,0 -0.08,0.08 -0.08,0.211 0,0.291 l 0.341,0.341 -1.471,1.471 -0.067,0.067 -0.968,0.968 c -0.08,0.08 -0.08,0.21 0,0.29 l 0.091,0.092 -0.317,0.318 c -0.08,0.08 -0.08,0.211 0,0.291 l 0.002,0.001 -0.322,0.322 c -0.081,0.08 -0.081,0.211 0,0.291 0.04,0.04 0.093,0.06 0.145,0.06 0.053,0 0.105,-0.02 0.145,-0.06 l 0.322,-0.322 0.009,0.009 c 0.04,0.04 0.093,0.06 0.146,0.06 0.052,0 0.105,-0.02 0.145,-0.06 l 0.318,-0.317 0.089,0.089 c 0.038,0.039 0.091,0.06 0.145,0.06 0.055,0 0.107,-0.021 0.146,-0.06 l 1.035,-1.035 c 0,0 0,0 0,0 l 1.471,-1.471 0.377,0.377 c 0.04,0.04 0.093,0.06 0.145,0.06 0.053,0 0.105,-0.02 0.145,-0.06 0.081,-0.08 0.081,-0.211 0,-0.291 l -0.385,-0.385 0.073,-0.102 c 0.425,0.087 0.937,0.043 1.198,-0.219 z m -3.17,1.655 -0.483,-0.482 1.327,-1.327 0.482,0.483 z m 1.718,-1.789 -0.114,0.16 -0.456,-0.456 0.16,-0.114 c 0.071,-0.051 0.102,-0.141 0.078,-0.225 -0.115,-0.392 -0.051,-0.808 0.078,-0.937 0.215,-0.214 0.733,-0.072 1.111,0.305 0.376,0.377 0.519,0.896 0.305,1.111 -0.13,0.128 -0.546,0.193 -0.937,0.078 -0.084,-0.023 -0.174,0.007 -0.225,0.078 z"
       fill="#646f79"
       id="path26" />
    <path
       d="m 49.5639,157.845 v 3.96 h -0.7354 v -1.697 h -2.0479 v 1.697 h -0.7355 v -3.96 h 0.7355 v 1.635 h 2.0479 v -1.635 z m 3.7741,3.344 v 0.616 h -2.9701 v -3.96 h 2.8909 v 0.617 h -2.1554 v 1.03 h 1.9121 v 0.605 h -1.9121 v 1.092 z m 3.0133,0.616 -1.0749,-1.504 -1.0635,1.504 h -0.8373 l 1.4709,-2.019 -1.3917,-1.941 h 0.8316 l 1.0127,1.409 1.0013,-1.409 h 0.7977 l -1.386,1.912 1.4878,2.048 z"
       fill="#134478"
       id="path28" />
    <g
       clip-path="url(#clip0_2318_22879)"
       id="g36">
      <rect
         x="63.417999"
         y="151.077"
         width="51.429501"
         height="16.457399"
         rx="1.5428801"
         fill="#ffffff"
         id="rect30" />
      <rect
         x="69.589798"
         y="155.705"
         width="7.20012"
         height="7.20013"
         rx="3.60006"
         fill="#0e08ff"
         id="rect32" />
      <path
         d="m 83.4118,158.317 -0.1605,1.297 h 0.9294 v 0.488 h -0.9895 l -0.1471,1.203 h -0.4747 l 0.1471,-1.203 h -1.2636 l -0.1471,1.203 h -0.4747 l 0.1471,-1.203 h -0.9227 v -0.488 h 0.9828 l 0.1672,-1.297 h -0.936 v -0.488 h 0.9962 l 0.147,-1.204 h 0.4747 l -0.1471,1.204 h 1.257 l 0.1471,-1.204 h 0.4747 l -0.1471,1.204 h 0.9226 v 0.488 z m -0.4747,0 h -1.2569 l -0.1672,1.297 h 1.2637 z m 3.2049,-1.692 v 4.68 h -0.6619 v -4.098 h -1.0564 v -0.582 z m 4.2278,0 v 0.455 l -1.8921,4.225 H 87.769 l 1.852,-4.098 h -2.1395 v 0.836 h -0.6418 v -1.418 z m 2.1619,4.734 c -0.37,0 -0.6998,-0.094 -0.9895,-0.281 -0.2853,-0.192 -0.5104,-0.468 -0.6753,-0.829 -0.1649,-0.361 -0.2474,-0.789 -0.2474,-1.284 0,-0.494 0.0825,-0.922 0.2474,-1.283 0.1649,-0.361 0.39,-0.636 0.6753,-0.823 0.2897,-0.191 0.6195,-0.287 0.9895,-0.287 0.3655,0 0.6908,0.096 0.9761,0.287 0.2897,0.187 0.517,0.462 0.682,0.823 0.1649,0.361 0.2473,0.789 0.2473,1.283 0,0.495 -0.0824,0.923 -0.2473,1.284 -0.165,0.361 -0.3923,0.637 -0.682,0.829 -0.2853,0.187 -0.6106,0.281 -0.9761,0.281 z m 0,-0.595 c 0.3744,0 0.673,-0.154 0.8959,-0.462 0.2273,-0.307 0.341,-0.753 0.341,-1.337 0,-0.584 -0.1137,-1.029 -0.341,-1.337 -0.2229,-0.307 -0.5215,-0.461 -0.8959,-0.461 -0.3789,0 -0.682,0.154 -0.9093,0.461 -0.2229,0.308 -0.3343,0.753 -0.3343,1.337 0,0.584 0.1114,1.03 0.3343,1.337 0.2273,0.308 0.5304,0.462 0.9093,0.462 z m 5.203,-1.912 c 0.2675,0.102 0.4725,0.249 0.6151,0.441 0.1427,0.192 0.214,0.421 0.214,0.689 0,0.28 -0.0758,0.526 -0.2273,0.735 -0.1516,0.205 -0.3678,0.363 -0.6486,0.475 -0.2808,0.111 -0.6106,0.167 -0.9895,0.167 -0.3744,0 -0.702,-0.056 -0.9828,-0.167 -0.2763,-0.112 -0.4903,-0.27 -0.6418,-0.475 -0.1516,-0.209 -0.2273,-0.455 -0.2273,-0.735 0,-0.268 0.069,-0.497 0.2072,-0.689 0.1427,-0.192 0.3477,-0.339 0.6151,-0.441 -0.2139,-0.103 -0.3766,-0.239 -0.488,-0.408 -0.1115,-0.17 -0.1672,-0.37 -0.1672,-0.602 0,-0.258 0.0691,-0.484 0.2073,-0.675 0.1426,-0.192 0.3409,-0.339 0.595,-0.441 0.2541,-0.103 0.5482,-0.154 0.8825,-0.154 0.3388,0 0.6352,0.051 0.8893,0.154 0.2585,0.102 0.4568,0.249 0.595,0.441 0.1426,0.191 0.2139,0.417 0.2139,0.675 0,0.227 -0.0579,0.428 -0.1738,0.602 -0.1114,0.169 -0.2741,0.305 -0.4881,0.408 z m -1.0363,-1.739 c -0.3164,0 -0.566,0.069 -0.7488,0.208 -0.1827,0.133 -0.2741,0.316 -0.2741,0.548 0,0.232 0.0891,0.414 0.2674,0.548 0.1828,0.134 0.4346,0.201 0.7555,0.201 0.3254,0 0.5795,-0.067 0.7622,-0.201 0.1872,-0.134 0.2808,-0.316 0.2808,-0.548 0,-0.232 -0.0958,-0.415 -0.2875,-0.548 -0.1872,-0.139 -0.439,-0.208 -0.7555,-0.208 z m 0,3.704 c 0.37,0 0.6619,-0.075 0.8759,-0.227 0.2139,-0.156 0.3209,-0.366 0.3209,-0.629 0,-0.258 -0.107,-0.461 -0.3209,-0.608 -0.214,-0.151 -0.5059,-0.227 -0.8759,-0.227 -0.3699,0 -0.6596,0.076 -0.8691,0.227 -0.2095,0.147 -0.3143,0.35 -0.3143,0.608 0,0.263 0.1048,0.473 0.3143,0.629 0.2095,0.152 0.4992,0.227 0.8691,0.227 z m 3.3216,-3.61 v 1.631 h 2.347 v 0.575 h -2.347 v 1.892 h -0.6687 v -4.68 h 3.3027 v 0.582 z m 4.038,0 v 1.631 h 2.347 v 0.575 h -2.347 v 1.892 h -0.669 v -4.68 h 3.303 v 0.582 z"
         fill="#151b26"
         id="path34" />
    </g>
    <rect
       x="63.675098"
       y="151.334"
       width="50.915199"
       height="15.9431"
       rx="1.28574"
       stroke="#8fa2a5"
       stroke-width="0.514295"
       id="rect38" />
    <path
       d="m 48.0726,184.434 -0.809,-1.159 c -0.0339,0.003 -0.0848,0.005 -0.1527,0.005 h -0.8938 v 1.154 h -0.7355 v -3.96 h 1.6293 c 0.3432,0 0.6412,0.057 0.8938,0.17 0.2565,0.113 0.4526,0.275 0.5884,0.486 0.1358,0.212 0.2037,0.462 0.2037,0.753 0,0.298 -0.0736,0.554 -0.2207,0.769 -0.1433,0.215 -0.3507,0.376 -0.6223,0.481 l 0.9108,1.301 z m -0.0169,-2.551 c 0,-0.253 -0.083,-0.447 -0.249,-0.583 -0.1659,-0.136 -0.4092,-0.203 -0.7297,-0.203 h -0.8599 v 1.578 h 0.8599 c 0.3205,0 0.5638,-0.068 0.7297,-0.204 0.166,-0.139 0.249,-0.335 0.249,-0.588 z m 4.0109,0.526 h 0.6958 v 1.578 c -0.2036,0.163 -0.4412,0.287 -0.7128,0.374 -0.2715,0.087 -0.5506,0.13 -0.8373,0.13 -0.4035,0 -0.7675,-0.087 -1.0918,-0.26 -0.3243,-0.178 -0.5789,-0.421 -0.7637,-0.73 -0.1848,-0.309 -0.2772,-0.658 -0.2772,-1.047 0,-0.388 0.0924,-0.737 0.2772,-1.046 0.1848,-0.31 0.4394,-0.551 0.7637,-0.724 0.3281,-0.178 0.6958,-0.266 1.1032,-0.266 0.3319,0 0.6336,0.054 0.9051,0.164 0.2716,0.109 0.4997,0.269 0.6845,0.481 l -0.4638,0.452 c -0.3018,-0.302 -0.6657,-0.452 -1.0919,-0.452 -0.2791,0 -0.528,0.058 -0.7468,0.175 -0.2149,0.117 -0.3846,0.281 -0.5091,0.492 -0.1207,0.211 -0.181,0.453 -0.181,0.724 0,0.264 0.0603,0.502 0.181,0.713 0.1245,0.211 0.2942,0.377 0.5091,0.498 0.2188,0.121 0.4658,0.181 0.7411,0.181 0.3093,0 0.5809,-0.068 0.8147,-0.204 z m 4.2147,-0.034 c 0.2187,0.072 0.3922,0.192 0.5204,0.362 0.1283,0.166 0.1924,0.374 0.1924,0.622 0,0.344 -0.132,0.61 -0.396,0.798 -0.264,0.185 -0.6487,0.277 -1.1541,0.277 h -1.9687 v -3.96 h 1.8556 c 0.4676,0 0.8278,0.093 1.0805,0.277 0.2527,0.181 0.379,0.432 0.379,0.753 0,0.196 -0.0452,0.369 -0.1358,0.52 -0.0905,0.151 -0.2149,0.268 -0.3733,0.351 z m -2.0706,-1.324 v 1.092 h 1.041 c 0.2564,0 0.4525,-0.045 0.5883,-0.136 0.1396,-0.094 0.2093,-0.23 0.2093,-0.407 0,-0.181 -0.0697,-0.317 -0.2093,-0.407 -0.1358,-0.095 -0.3319,-0.142 -0.5883,-0.142 z m 1.188,2.806 c 0.5695,0 0.8543,-0.19 0.8543,-0.571 0,-0.381 -0.2848,-0.571 -0.8543,-0.571 h -1.188 v 1.142 z"
       fill="#134478"
       id="path40" />
    <g
       clip-path="url(#clip1_2318_22879)"
       id="g46">
      <rect
         x="63.417999"
         y="173.70599"
         width="29.0576"
         height="16.457399"
         rx="1.5428801"
         fill="#ffffff"
         id="rect42" />
      <path
         d="m 73.2002,183.353 v 0.581 h -3.363 v -0.454 l 1.9055,-1.839 c 0.2318,-0.223 0.3878,-0.414 0.468,-0.575 0.0802,-0.165 0.1203,-0.33 0.1203,-0.495 0,-0.245 -0.0869,-0.434 -0.2607,-0.568 -0.1694,-0.138 -0.4145,-0.207 -0.7355,-0.207 -0.517,0 -0.9159,0.169 -1.1967,0.508 l -0.4547,-0.395 c 0.1828,-0.222 0.4213,-0.396 0.7154,-0.521 0.2987,-0.125 0.6307,-0.187 0.9962,-0.187 0.4903,0 0.8803,0.118 1.17,0.354 0.2898,0.232 0.4346,0.548 0.4346,0.949 0,0.25 -0.0535,0.486 -0.1604,0.709 -0.107,0.223 -0.3098,0.477 -0.6085,0.762 L 70.8,183.353 Z m 2.1358,-2.133 c 0.4591,0.044 0.809,0.187 1.0497,0.428 0.2406,0.236 0.361,0.539 0.361,0.909 0,0.267 -0.0669,0.51 -0.2006,0.729 -0.1337,0.214 -0.3343,0.385 -0.6017,0.515 -0.263,0.124 -0.5861,0.187 -0.9695,0.187 -0.3342,0 -0.6552,-0.049 -0.9627,-0.147 -0.3076,-0.103 -0.5594,-0.243 -0.7555,-0.421 l 0.3075,-0.529 c 0.1605,0.152 0.3655,0.274 0.6151,0.368 0.2496,0.089 0.5148,0.134 0.7956,0.134 0.3477,0 0.6174,-0.074 0.809,-0.221 0.1961,-0.147 0.2942,-0.35 0.2942,-0.608 0,-0.259 -0.0958,-0.459 -0.2875,-0.602 -0.1916,-0.143 -0.4814,-0.214 -0.8691,-0.214 H 74.547 v -0.468 l 1.1768,-1.444 h -2.2532 v -0.582 h 3.0889 v 0.455 z"
         fill="#151b26"
         id="path44" />
    </g>
    <rect
       x="63.675098"
       y="173.963"
       width="28.5434"
       height="15.9431"
       rx="1.28574"
       stroke="#8fa2a5"
       stroke-width="0.514295"
       id="rect48" />
    <g
       clip-path="url(#clip2_2318_22879)"
       id="g54">
      <rect
         x="94.533203"
         y="173.70599"
         width="29.0576"
         height="16.457399"
         rx="1.5428801"
         fill="#ffffff"
         id="rect50" />
      <path
         d="m 104.315,183.353 v 0.581 h -3.363 v -0.454 l 1.906,-1.839 c 0.232,-0.223 0.388,-0.414 0.468,-0.575 0.08,-0.165 0.12,-0.33 0.12,-0.495 0,-0.245 -0.087,-0.434 -0.26,-0.568 -0.17,-0.138 -0.415,-0.207 -0.736,-0.207 -0.517,0 -0.916,0.169 -1.197,0.508 l -0.454,-0.395 c 0.182,-0.222 0.421,-0.396 0.715,-0.521 0.299,-0.125 0.631,-0.187 0.996,-0.187 0.491,0 0.881,0.118 1.17,0.354 0.29,0.232 0.435,0.548 0.435,0.949 0,0.25 -0.054,0.486 -0.161,0.709 -0.107,0.223 -0.309,0.477 -0.608,0.762 l -1.431,1.378 z m 2.136,-2.133 c 0.459,0.044 0.809,0.187 1.05,0.428 0.241,0.236 0.361,0.539 0.361,0.909 0,0.267 -0.067,0.51 -0.201,0.729 -0.133,0.214 -0.334,0.385 -0.601,0.515 -0.263,0.124 -0.587,0.187 -0.97,0.187 -0.334,0 -0.655,-0.049 -0.963,-0.147 -0.307,-0.103 -0.559,-0.243 -0.755,-0.421 l 0.307,-0.529 c 0.161,0.152 0.366,0.274 0.616,0.368 0.249,0.089 0.514,0.134 0.795,0.134 0.348,0 0.618,-0.074 0.809,-0.221 0.196,-0.147 0.294,-0.35 0.294,-0.608 0,-0.259 -0.095,-0.459 -0.287,-0.602 -0.192,-0.143 -0.482,-0.214 -0.869,-0.214 h -0.375 v -0.468 l 1.177,-1.444 h -2.253 v -0.582 h 3.089 v 0.455 z"
         fill="#151b26"
         id="path52" />
    </g>
    <rect
       x="94.790398"
       y="173.963"
       width="28.5434"
       height="15.9431"
       rx="1.28574"
       stroke="#8fa2a5"
       stroke-width="0.514295"
       id="rect56" />
    <g
       clip-path="url(#clip3_2318_22879)"
       id="g62">
      <rect
         x="125.648"
         y="173.70599"
         width="29.0576"
         height="16.457399"
         rx="1.5428801"
         fill="#ffffff"
         id="rect58" />
      <path
         d="m 135.431,183.353 v 0.581 h -3.363 v -0.454 l 1.905,-1.839 c 0.232,-0.223 0.388,-0.414 0.468,-0.575 0.08,-0.165 0.121,-0.33 0.121,-0.495 0,-0.245 -0.087,-0.434 -0.261,-0.568 -0.17,-0.138 -0.415,-0.207 -0.736,-0.207 -0.517,0 -0.916,0.169 -1.196,0.508 l -0.455,-0.395 c 0.183,-0.222 0.421,-0.396 0.715,-0.521 0.299,-0.125 0.631,-0.187 0.996,-0.187 0.491,0 0.881,0.118 1.171,0.354 0.289,0.232 0.434,0.548 0.434,0.949 0,0.25 -0.053,0.486 -0.16,0.709 -0.107,0.223 -0.31,0.477 -0.609,0.762 l -1.431,1.378 z m 2.135,-2.133 c 0.46,0.044 0.809,0.187 1.05,0.428 0.241,0.236 0.361,0.539 0.361,0.909 0,0.267 -0.067,0.51 -0.2,0.729 -0.134,0.214 -0.335,0.385 -0.602,0.515 -0.263,0.124 -0.586,0.187 -0.97,0.187 -0.334,0 -0.655,-0.049 -0.962,-0.147 -0.308,-0.103 -0.56,-0.243 -0.756,-0.421 l 0.308,-0.529 c 0.16,0.152 0.365,0.274 0.615,0.368 0.249,0.089 0.515,0.134 0.795,0.134 0.348,0 0.618,-0.074 0.809,-0.221 0.197,-0.147 0.295,-0.35 0.295,-0.608 0,-0.259 -0.096,-0.459 -0.288,-0.602 -0.192,-0.143 -0.481,-0.214 -0.869,-0.214 h -0.374 v -0.468 l 1.176,-1.444 h -2.253 v -0.582 h 3.089 v 0.455 z"
         fill="#151b26"
         id="path60" />
    </g>
    <rect
       x="125.906"
       y="173.963"
       width="28.5434"
       height="15.9431"
       rx="1.28574"
       stroke="#8fa2a5"
       stroke-width="0.514295"
       id="rect64" />
    <g
       clip-path="url(#clip4_2318_22879)"
       id="g70">
      <rect
         x="156.76199"
         y="173.70599"
         width="29.0576"
         height="16.457399"
         rx="1.5428801"
         fill="#ffffff"
         id="rect66" />
      <path
         d="m 164.705,179.254 v 4.68 h -0.662 v -4.098 h -1.056 v -0.582 z m 2.73,4.734 c -0.369,0 -0.699,-0.094 -0.989,-0.281 -0.285,-0.192 -0.51,-0.468 -0.675,-0.829 -0.165,-0.361 -0.248,-0.789 -0.248,-1.284 0,-0.494 0.083,-0.922 0.248,-1.283 0.165,-0.361 0.39,-0.636 0.675,-0.823 0.29,-0.191 0.62,-0.287 0.989,-0.287 0.366,0 0.691,0.096 0.977,0.287 0.289,0.187 0.517,0.462 0.682,0.823 0.164,0.361 0.247,0.789 0.247,1.283 0,0.495 -0.083,0.923 -0.247,1.284 -0.165,0.361 -0.393,0.637 -0.682,0.829 -0.286,0.187 -0.611,0.281 -0.977,0.281 z m 0,-0.595 c 0.375,0 0.674,-0.154 0.896,-0.462 0.228,-0.307 0.341,-0.753 0.341,-1.337 0,-0.584 -0.113,-1.029 -0.341,-1.337 -0.222,-0.307 -0.521,-0.461 -0.896,-0.461 -0.378,0 -0.681,0.154 -0.909,0.461 -0.223,0.308 -0.334,0.753 -0.334,1.337 0,0.584 0.111,1.03 0.334,1.337 0.228,0.308 0.531,0.462 0.909,0.462 z m 4.254,0.595 c -0.37,0 -0.7,-0.094 -0.989,-0.281 -0.286,-0.192 -0.511,-0.468 -0.676,-0.829 -0.165,-0.361 -0.247,-0.789 -0.247,-1.284 0,-0.494 0.082,-0.922 0.247,-1.283 0.165,-0.361 0.39,-0.636 0.676,-0.823 0.289,-0.191 0.619,-0.287 0.989,-0.287 0.366,0 0.691,0.096 0.976,0.287 0.29,0.187 0.517,0.462 0.682,0.823 0.165,0.361 0.248,0.789 0.248,1.283 0,0.495 -0.083,0.923 -0.248,1.284 -0.165,0.361 -0.392,0.637 -0.682,0.829 -0.285,0.187 -0.61,0.281 -0.976,0.281 z m 0,-0.595 c 0.375,0 0.673,-0.154 0.896,-0.462 0.227,-0.307 0.341,-0.753 0.341,-1.337 0,-0.584 -0.114,-1.029 -0.341,-1.337 -0.223,-0.307 -0.521,-0.461 -0.896,-0.461 -0.379,0 -0.682,0.154 -0.909,0.461 -0.223,0.308 -0.334,0.753 -0.334,1.337 0,0.584 0.111,1.03 0.334,1.337 0.227,0.308 0.53,0.462 0.909,0.462 z m 3.358,-1.625 c -0.325,0 -0.588,-0.118 -0.789,-0.354 -0.201,-0.236 -0.301,-0.544 -0.301,-0.923 0,-0.379 0.1,-0.686 0.301,-0.923 0.201,-0.236 0.464,-0.354 0.789,-0.354 0.325,0 0.586,0.118 0.782,0.354 0.201,0.232 0.301,0.54 0.301,0.923 0,0.383 -0.1,0.693 -0.301,0.929 -0.196,0.232 -0.457,0.348 -0.782,0.348 z m 2.821,-2.514 h 0.515 l -3.196,4.68 h -0.514 z m -2.821,2.133 c 0.205,0 0.365,-0.078 0.481,-0.234 0.116,-0.16 0.174,-0.381 0.174,-0.662 0,-0.281 -0.058,-0.499 -0.174,-0.655 -0.116,-0.161 -0.276,-0.241 -0.481,-0.241 -0.201,0 -0.361,0.08 -0.481,0.241 -0.116,0.16 -0.174,0.379 -0.174,0.655 0,0.276 0.058,0.495 0.174,0.655 0.12,0.161 0.28,0.241 0.481,0.241 z m 2.962,2.587 c -0.326,0 -0.589,-0.115 -0.789,-0.347 -0.196,-0.236 -0.294,-0.546 -0.294,-0.93 0,-0.383 0.098,-0.69 0.294,-0.922 0.2,-0.236 0.463,-0.355 0.789,-0.355 0.325,0 0.588,0.119 0.789,0.355 0.2,0.236 0.301,0.544 0.301,0.922 0,0.379 -0.101,0.687 -0.301,0.923 -0.201,0.236 -0.464,0.354 -0.789,0.354 z m 0,-0.381 c 0.2,0 0.359,-0.08 0.474,-0.24 0.121,-0.161 0.181,-0.379 0.181,-0.656 0,-0.276 -0.06,-0.494 -0.181,-0.655 -0.115,-0.16 -0.274,-0.24 -0.474,-0.24 -0.205,0 -0.366,0.08 -0.482,0.24 -0.116,0.156 -0.173,0.375 -0.173,0.655 0,0.281 0.057,0.502 0.173,0.662 0.116,0.156 0.277,0.234 0.482,0.234 z"
         fill="#151b26"
         id="path68" />
    </g>
    <rect
       x="157.019"
       y="173.963"
       width="28.5434"
       height="15.9431"
       rx="1.28574"
       stroke="#8fa2a5"
       stroke-width="0.514295"
       id="rect72" />
  </g>
  <defs
     id="defs197">
    <filter
       id="filter0_d_2318_22879"
       x="0.85039502"
       y="0.74015802"
       width="225.936"
       height="250.28"
       filterUnits="userSpaceOnUse"
       color-interpolation-filters="sRGB">
      <feFlood
         flood-opacity="0"
         result="BackgroundImageFix"
         id="feFlood76" />
      <feColorMatrix
         in="SourceAlpha"
         type="matrix"
         values="0 0 0 0 0 0 0 0 0 0 0 0 0 0 0 0 0 0 127 0"
         result="hardAlpha"
         id="feColorMatrix78" />
      <feOffset
         dy="19.8898"
         id="feOffset80" />
      <feGaussianBlur
         stdDeviation="16.5748"
         id="feGaussianBlur82" />
      <feColorMatrix
         type="matrix"
         values="0 0 0 0 0.882353 0 0 0 0 0.886275 0 0 0 0 0.909804 0 0 0 1 0"
         id="feColorMatrix84" />
      <feBlend
         mode="multiply"
         in2="BackgroundImageFix"
         result="effect1_dropShadow_2318_22879"
         id="feBlend86" />
      <feBlend
         mode="normal"
         in="SourceGraphic"
         in2="effect1_dropShadow_2318_22879"
         result="shape"
         id="feBlend88" />
    </filter>
    <filter
       id="filter1_d_2318_22879"
       x="175.536"
       y="16.6738"
       width="16.457399"
       height="16.457399"
       filterUnits="userSpaceOnUse"
       color-interpolation-filters="sRGB">
      <feFlood
         flood-opacity="0"
         result="BackgroundImageFix"
         id="feFlood91" />
      <feColorMatrix
         in="SourceAlpha"
         type="matrix"
         values="0 0 0 0 0 0 0 0 0 0 0 0 0 0 0 0 0 0 127 0"
         result="hardAlpha"
         id="feColorMatrix93" />
      <feOffset
         dy="1.02859"
         id="feOffset95" />
      <feGaussianBlur
         stdDeviation="1.28574"
         id="feGaussianBlur97" />
      <feColorMatrix
         type="matrix"
         values="0 0 0 0 0.0980392 0 0 0 0 0.152941 0 0 0 0 0.203922 0 0 0 0.11 0"
         id="feColorMatrix99" />
      <feBlend
         mode="normal"
         in2="BackgroundImageFix"
         result="effect1_dropShadow_2318_22879"
         id="feBlend101" />
      <feBlend
         mode="normal"
         in="SourceGraphic"
         in2="effect1_dropShadow_2318_22879"
         result="shape"
         id="feBlend103" />
    </filter>
    <filter
       id="filter2_d_2318_22879"
       x="141.591"
       y="135.819"
       width="10.108"
       height="10.2859"
       filterUnits="userSpaceOnUse"
       color-interpolation-filters="sRGB">
      <feFlood
         flood-opacity="0"
         result="BackgroundImageFix"
         id="feFlood106" />
      <feColorMatrix
         in="SourceAlpha"
         type="matrix"
         values="0 0 0 0 0 0 0 0 0 0 0 0 0 0 0 0 0 0 127 0"
         result="hardAlpha"
         id="feColorMatrix108" />
      <feOffset
         dy="0.514295"
         id="feOffset110" />
      <feGaussianBlur
         stdDeviation="0.514295"
         id="feGaussianBlur112" />
      <feColorMatrix
         type="matrix"
         values="0 0 0 0 0 0 0 0 0 0 0 0 0 0 0 0 0 0 0.15 0"
         id="feColorMatrix114" />
      <feBlend
         mode="normal"
         in2="BackgroundImageFix"
         result="effect1_dropShadow_2318_22879"
         id="feBlend116" />
      <feBlend
         mode="normal"
         in="SourceGraphic"
         in2="effect1_dropShadow_2318_22879"
         result="shape"
         id="feBlend118" />
    </filter>
    <linearGradient
       id="paint0_linear_2318_22879"
       x1="144.00301"
       y1="54.0009"
       x2="0"
       y2="54.0009"
       gradientUnits="userSpaceOnUse">
      <stop
         stop-color="white"
         stop-opacity="0"
         id="stop121" />
      <stop
         offset="1"
         stop-color="white"
         id="stop123" />
    </linearGradient>
    <linearGradient
       id="paint1_linear_2318_22879"
       x1="72.001297"
       y1="108.002"
       x2="72.001297"
       y2="-1.02381e-06"
       gradientUnits="userSpaceOnUse">
      <stop
         id="stop126" />
      <stop
         offset="1"
         stop-opacity="0"
         id="stop128" />
    </linearGradient>
    <linearGradient
       id="paint2_linear_2318_22879"
       x1="174.504"
       y1="142.504"
       x2="41.816399"
       y2="142.504"
       gradientUnits="userSpaceOnUse">
      <stop
         stop-color="#F00000"
         id="stop131" />
      <stop
         offset="0.046875"
         stop-color="#FF005E"
         id="stop133" />
      <stop
         offset="0.046975"
         stop-color="#FC0072"
         id="stop135" />
      <stop
         offset="0.0885417"
         stop-color="#EA00FA"
         id="stop137" />
      <stop
         offset="0.0886417"
         stop-color="#E000FB"
         id="stop139" />
      <stop
         offset="0.130208"
         stop-color="#9A00FF"
         id="stop141" />
      <stop
         offset="0.182292"
         stop-color="#3100FF"
         id="stop143" />
      <stop
         offset="0.182392"
         stop-color="#2D01FF"
         id="stop145" />
      <stop
         offset="0.234375"
         stop-color="#060CFF"
         id="stop147" />
      <stop
         offset="0.234475"
         stop-color="#0431FF"
         id="stop149" />
      <stop
         offset="0.28125"
         stop-color="#007CFF"
         id="stop151" />
      <stop
         offset="0.333333"
         stop-color="#008EFF"
         id="stop153" />
      <stop
         offset="0.385417"
         stop-color="#228BDE"
         id="stop155" />
      <stop
         offset="0.432292"
         stop-color="#00DBFF"
         id="stop157" />
      <stop
         offset="0.479167"
         stop-color="#00F5FF"
         id="stop159" />
      <stop
         offset="0.536458"
         stop-color="#00FFB5"
         id="stop161" />
      <stop
         offset="0.583333"
         stop-color="#00FF68"
         id="stop163" />
      <stop
         offset="0.640625"
         stop-color="#00FF22"
         id="stop165" />
      <stop
         offset="0.692708"
         stop-color="#2AFF00"
         id="stop167" />
      <stop
         offset="0.739583"
         stop-color="#ACFF00"
         id="stop169" />
      <stop
         offset="0.786458"
         stop-color="#F0F600"
         id="stop171" />
      <stop
         offset="0.833333"
         stop-color="#FFC300"
         id="stop173" />
      <stop
         offset="0.885417"
         stop-color="#FF8100"
         id="stop175" />
      <stop
         offset="0.947917"
         stop-color="#FF4F00"
         id="stop177" />
      <stop
         offset="1"
         stop-color="#FF0000"
         id="stop179" />
    </linearGradient>
    <clipPath
       id="clip0_2318_22879">
      <rect
         x="63.417999"
         y="151.077"
         width="51.429501"
         height="16.457399"
         rx="1.5428801"
         fill="#ffffff"
         id="rect182" />
    </clipPath>
    <clipPath
       id="clip1_2318_22879">
      <rect
         x="63.417999"
         y="173.70599"
         width="29.0576"
         height="16.457399"
         rx="1.5428801"
         fill="#ffffff"
         id="rect185" />
    </clipPath>
    <clipPath
       id="clip2_2318_22879">
      <rect
         x="94.533203"
         y="173.70599"
         width="29.0576"
         height="16.457399"
         rx="1.5428801"
         fill="#ffffff"
         id="rect188" />
    </clipPath>
    <clipPath
       id="clip3_2318_22879">
      <rect
         x="125.648"
         y="173.70599"
         width="29.0576"
         height="16.457399"
         rx="1.5428801"
         fill="#ffffff"
         id="rect191" />
    </clipPath>
    <clipPath
       id="clip4_2318_22879">
      <rect
         x="156.76199"
         y="173.70599"
         width="29.0576"
         height="16.457399"
         rx="1.5428801"
         fill="#ffffff"
         id="rect194" />
    </clipPath>
  </defs>
</svg>
