<svg xmlns="http://www.w3.org/2000/svg" width="24" height="24" viewBox="9 4 25 24" fill="none"><g filter="url(#prefix__filter0_d_2046_157316)"><path d="M21.5 6c-6.416 0-11.666 4.177-11.666 9.333a8.421 8.421 0 003.208 6.417c0 .7-.49 2.532-3.208 5.25a12.873 12.873 0 007.548-2.917c1.33.385 2.73.584 4.118.584 6.417 0 11.667-4.177 11.667-9.334C33.167 10.177 27.917 6 21.5 6zm0 16.333c-5.157 0-9.333-3.138-9.333-7 0-3.861 4.176-7 9.333-7s9.334 3.139 9.334 7c0 3.862-4.177 7-9.334 7zm5.834-5.833v-2.333H25V16.5h2.334zm-4.667 0v-2.333h-2.334V16.5h2.334zM18 16.5v-2.333h-2.333V16.5H18z" fill="#282B39"/></g><defs><filter id="prefix__filter0_d_2046_157316" x="-1.5" y="-3.5" width="46" height="46" filterUnits="userSpaceOnUse" color-interpolation-filters="sRGB"><feFlood flood-opacity="0" result="BackgroundImageFix"/><feColorMatrix in="SourceAlpha" values="0 0 0 0 0 0 0 0 0 0 0 0 0 0 0 0 0 0 127 0" result="hardAlpha"/><feOffset dy="3"/><feGaussianBlur stdDeviation="4.5"/><feColorMatrix values="0 0 0 0 0 0 0 0 0 0 0 0 0 0 0 0 0 0 0.07 0"/><feBlend in2="BackgroundImageFix" result="effect1_dropShadow_2046_157316"/><feBlend in="SourceGraphic" in2="effect1_dropShadow_2046_157316" result="shape"/></filter></defs></svg>