<svg xmlns="http://www.w3.org/2000/svg" width="24" height="24" viewBox="7 4 25 24" fill="none"><g filter="url(#prefix__filter0_d_2046_157322)"><path fill-rule="evenodd" clip-rule="evenodd" d="M10.167 6h4.083a1.17 1.17 0 011.167 1.167c0 1.458.233 2.858.665 4.165a1.17 1.17 0 01-.292 1.19l-2.567 2.566a17.674 17.674 0 007.689 7.689l2.566-2.567c.234-.222.525-.338.829-.338.116 0 .245.011.361.058 1.307.432 2.719.665 4.165.665A1.17 1.17 0 0130 21.762v4.071A1.17 1.17 0 0128.833 27C17.878 27 9 18.122 9 7.167A1.17 1.17 0 0110.167 6zm2.963 2.333c.07 1.039.245 2.054.525 3.022l-1.4 1.4a17.298 17.298 0 01-.886-4.422h1.761zm11.503 14.024c.992.28 2.007.455 3.034.525v1.738a17.997 17.997 0 01-4.434-.875l1.4-1.388z" fill="#282B39"/></g><defs><filter id="prefix__filter0_d_2046_157322" x="-3.5" y="-3.5" width="46" height="46" filterUnits="userSpaceOnUse" color-interpolation-filters="sRGB"><feFlood flood-opacity="0" result="BackgroundImageFix"/><feColorMatrix in="SourceAlpha" values="0 0 0 0 0 0 0 0 0 0 0 0 0 0 0 0 0 0 127 0" result="hardAlpha"/><feOffset dy="3"/><feGaussianBlur stdDeviation="4.5"/><feColorMatrix values="0 0 0 0 0 0 0 0 0 0 0 0 0 0 0 0 0 0 0.07 0"/><feBlend in2="BackgroundImageFix" result="effect1_dropShadow_2046_157322"/><feBlend in="SourceGraphic" in2="effect1_dropShadow_2046_157322" result="shape"/></filter></defs></svg>