<svg width="59" height="58" fill="none" xmlns="http://www.w3.org/2000/svg"><rect x=".5" width="58" height="58" rx="8" fill="#F7F9FC"/><path d="M28.018 39.331a10.304 10.304 0 10-10.304-10.304 10.32 10.32 0 0010.304 10.304zm-1.145-13.738a1.145 1.145 0 012.29 0v2.954l2.095 2.095a1.15 1.15 0 01-1.625 1.625l-2.428-2.427a1.192 1.192 0 01-.332-.813v-3.434z" fill="#305DFC"/><path d="M28.017 13a1.144 1.144 0 100 2.29 13.795 13.795 0 11-9.517 3.863l-.078.592a1.145 1.145 0 002.27.298l.447-3.406a1.193 1.193 0 00-.988-1.283l-3.405-.445a1.145 1.145 0 10-.297 2.27l.713.093A16 16 0 1028.017 13z" fill="#64666F"/></svg>