<svg width="18" height="18" fill="none" xmlns="http://www.w3.org/2000/svg"><path d="M16.663 13.497a.188.188 0 0 1-.165-.187V9.957a.75.75 0 1 0-1.5 0v3.315a.187.187 0 0 1-.187.188h-3.188a.375.375 0 0 0-.375.375c0 .532-.922 1.125-2.25 1.125-1.327 0-2.25-.593-2.25-1.125a.375.375 0 0 0-.375-.375H3.186a.188.188 0 0 1-.188-.188v-3.187a.75.75 0 1 0-1.5 0v3.195a.188.188 0 0 1-.157.187 1.147 1.147 0 0 0-.825.57 1.11 1.11 0 0 0 0 1.14 4.312 4.312 0 0 0 3.697 2.07h9.57a4.305 4.305 0 0 0 3.668-2.025 1.125 1.125 0 0 0-.788-1.725ZM18 4.739v-.045l-1.32-3.195a1.133 1.133 0 0 0-1.02-.75h-2.062a.18.18 0 0 0-.143.075.187.187 0 0 0-.037.165l.997 3.66c.008.05.008.1 0 .15v2.7a.188.188 0 0 0 .12.18 2.512 2.512 0 0 0 1.95-.038 2.468 2.468 0 0 0 1.5-2.19v-.705L18 4.74ZM13.313 4.905a.11.11 0 0 0 0-.053L12.225.93a.195.195 0 0 0-.18-.143H9.75a.188.188 0 0 0-.187.188v7.02a.18.18 0 0 0 .105.172c.575.281 1.215.4 1.852.345a3.675 3.675 0 0 0 1.785-.63v-3l.008.023ZM3.563 4.8a1.02 1.02 0 0 1 0-.15l1.012-3.623a.18.18 0 0 0 0-.165.195.195 0 0 0-.15-.075H2.34a1.132 1.132 0 0 0-1.02.713L0 4.597V5.325a2.445 2.445 0 0 0 1.5 2.19 2.512 2.512 0 0 0 1.95.037.202.202 0 0 0 .112-.052V4.8ZM8.439.975a.188.188 0 0 0-.188-.188H5.956A.195.195 0 0 0 5.77.93c-.068.277-.308 1.14-1.073 3.922a.113.113 0 0 0 0 .053V7.77a.195.195 0 0 0 .083.157 3.75 3.75 0 0 0 1.717.585h.3c.536 0 1.065-.124 1.545-.36a.195.195 0 0 0 .105-.165L8.44.975Z" fill="#7780A0"/></svg>