<svg width="18" height="18" fill="none" xmlns="http://www.w3.org/2000/svg"><path d="M17.064 1.5a1.5 1.5 0 0 0-1.5-1.5H2.438a1.5 1.5 0 0 0-1.5 1.5v13.102a1.5 1.5 0 0 0 1.5 1.5h1.5a.75.75 0 1 0 0-1.5H2.806a.375.375 0 0 1-.368-.375V1.875a.375.375 0 0 1 .375-.375h12.375a.375.375 0 0 1 .375.375V14.25a.375.375 0 0 1-.375.375h-.75a.75.75 0 1 0 0 1.5h1.125a1.5 1.5 0 0 0 1.5-1.5V1.5Z" fill="#7780A0"/><path d="M13.689 5.251a.75.75 0 1 0 0-1.5H4.554a.75.75 0 0 0 0 1.5h9.135ZM4.688 8.626h5.625a.75.75 0 1 0 0-1.5H4.686a.75.75 0 0 0 0 1.5ZM9.19 11.25a3.375 3.375 0 1 0 3.375 3.375 3.383 3.383 0 0 0-3.376-3.375Zm1.672 2.055a.563.563 0 0 1 .113.787l-1.448 1.935a.951.951 0 0 1-.683.375h-.067a.915.915 0 0 1-.668-.277l-.75-.75a.562.562 0 1 1 .795-.795l.45.443a.18.18 0 0 0 .143.06.187.187 0 0 0 .135-.075l1.193-1.59a.561.561 0 0 1 .787-.113Z" fill="#7780A0"/></svg>