<svg width="62" height="62" viewBox="0 0 62 62" fill="none" xmlns="http://www.w3.org/2000/svg">
<rect width="62" height="62" fill="white"/>
<path d="M6.91749 6.71863C1.46648 12.288 -0.437044 25.6958 0.0820995 35.8032C0.370513 41.461 1.66837 51.6568 7.09054 56.1065C11.8782 60.0846 21.5112 62 31 62C40.4888 62 50.1218 60.0257 54.9095 56.1065C60.3316 51.6568 61.6295 41.3726 61.9179 35.8032C62.437 25.6958 60.5335 12.2291 55.0825 6.71863C46.3147 -2.23954 15.6853 -2.23954 6.91749 6.71863Z" fill="#315EFD"/>
<g clip-path="url(#clip0_970_19031)">
<path d="M42.8258 29.0779C43.4251 28.3387 43.7851 27.398 43.7851 26.3745C43.7851 24.0033 41.856 22.0742 39.4848 22.0742C37.1137 22.0742 35.1846 24.0033 35.1846 26.3745C35.1846 27.3986 35.5451 28.3398 36.1451 29.0792C35.5771 29.2603 35.0378 29.5256 34.5464 29.866C33.7707 28.7367 32.4706 27.9943 31 27.9943C29.5294 27.9943 28.2294 28.7367 27.4536 29.866C26.9622 29.5256 26.4229 29.2603 25.8549 29.0792C26.4549 28.3398 26.8154 27.3986 26.8154 26.3745C26.8154 24.0033 24.8863 22.0742 22.5152 22.0742C20.144 22.0742 18.2149 24.0033 18.2149 26.3745C18.2149 27.398 18.5749 28.3386 19.1742 29.0779C16.7562 29.8491 15 32.1168 15 34.7872V40.1103C15 40.6291 15.4206 41.0496 15.9394 41.0496H23.485V46.0302C23.485 46.549 23.9056 46.9696 24.4244 46.9696H37.5756C38.0944 46.9696 38.515 46.549 38.515 46.0302V41.0496H46.0606C46.5794 41.0496 47 40.6291 47 40.1103V34.7872C47 32.1168 45.2438 29.8491 42.8258 29.0779ZM39.4849 23.953C40.8201 23.953 41.9064 25.0392 41.9064 26.3745C41.9064 27.7088 40.8214 28.7945 39.4873 28.7959H39.4825C38.1484 28.7945 37.0635 27.7088 37.0635 26.3745C37.0635 25.0392 38.1497 23.953 39.4849 23.953ZM31 29.873C32.3444 29.873 33.4397 30.9758 33.4206 32.3301C33.4011 33.6538 32.3187 34.716 31 34.716C29.6605 34.716 28.5785 33.6232 28.5785 32.2945C28.5785 30.9771 29.6487 29.873 31 29.873ZM22.5152 23.953C23.8503 23.953 24.9366 25.0392 24.9366 26.3745C24.9366 27.7088 23.8516 28.7945 22.5176 28.7959H22.5128C21.1786 28.7945 20.0937 27.7088 20.0937 26.3745C20.0936 25.0392 21.1799 23.953 22.5152 23.953ZM16.8787 34.7872C16.8787 32.5195 18.7236 30.6746 20.9913 30.6746H24.0393C25.0351 30.6746 25.9975 31.0396 26.7423 31.6885C26.5741 32.875 26.9121 34.0776 27.6563 34.998C25.7097 35.6184 24.2048 37.2039 23.6845 39.1709H20.8861V35.6553C20.8861 35.1365 20.4655 34.716 19.9467 34.716C19.4279 34.716 19.0074 35.1365 19.0074 35.6553V39.1709H16.8787V34.7872ZM36.6362 45.0908H34.7575V42.3145C34.7575 41.7957 34.3369 41.3751 33.8181 41.3751C33.2993 41.3751 32.8787 41.7957 32.8787 42.3145V45.0908H29.1213V42.3145C29.1213 41.7957 28.7007 41.3751 28.1819 41.3751C27.6631 41.3751 27.2425 41.7957 27.2425 42.3145V45.0908H25.3638V40.7071C25.3638 38.4485 27.2011 36.5947 29.4762 36.5947H32.5238C34.7959 36.5947 36.6362 38.4451 36.6362 40.7071V45.0908ZM45.1213 39.1709H42.9926V35.6553C42.9926 35.1365 42.5721 34.716 42.0533 34.716C41.5345 34.716 41.1139 35.1365 41.1139 35.6553V39.1709H38.3155C37.7987 37.2168 36.303 35.6225 34.3437 34.998C35.0619 34.1097 35.4316 32.9154 35.2577 31.6885C36.0026 31.0396 36.9649 30.6746 37.9607 30.6746H41.0087C43.2764 30.6746 45.1213 32.5195 45.1213 34.7872V39.1709Z" fill="white"/>
<path d="M25.9268 19.7909C26.1414 20.2631 26.6983 20.4721 27.1707 20.2573C27.643 20.0426 27.8518 19.4858 27.6371 19.0134L26.3846 16.2579C26.1698 15.7856 25.6129 15.5767 25.1407 15.7915C24.6684 16.0062 24.4596 16.5631 24.6743 17.0354L25.9268 19.7909Z" fill="white"/>
<path d="M34.8282 20.2573C35.3011 20.4721 35.8577 20.2626 36.0721 19.7908L37.3246 17.0353C37.5393 16.563 37.3305 16.0061 36.8582 15.7915C36.3858 15.5768 35.8289 15.7856 35.6143 16.2579L34.3618 19.0134C34.1471 19.4857 34.3559 20.0426 34.8282 20.2573Z" fill="white"/>
<path d="M31.0019 19.654C31.5207 19.654 31.9412 19.2335 31.9412 18.7147V15.9696C31.9412 15.4509 31.5207 15.0303 31.0019 15.0303C30.4831 15.0303 30.0625 15.4509 30.0625 15.9696V18.7147C30.0625 19.2335 30.4831 19.654 31.0019 19.654Z" fill="white"/>
</g>
<defs>
<clipPath id="clip0_970_19031">
<rect width="32" height="32" fill="white" transform="translate(15 15)"/>
</clipPath>
</defs>
</svg>
