<svg width="62" height="62" viewBox="0 0 62 62" fill="none" xmlns="http://www.w3.org/2000/svg">
<rect width="62" height="62" fill="white"/>
<path d="M6.91749 6.71863C1.46648 12.288 -0.437044 25.6958 0.0820995 35.8032C0.370513 41.461 1.66837 51.6568 7.09054 56.1065C11.8782 60.0846 21.5112 62 31 62C40.4888 62 50.1218 60.0257 54.9095 56.1065C60.3316 51.6568 61.6295 41.3726 61.9179 35.8032C62.437 25.6958 60.5335 12.2291 55.0825 6.71863C46.3147 -2.23954 15.6853 -2.23954 6.91749 6.71863Z" fill="#009EF4"/>
<g clip-path="url(#clip0_970_18995)">
<path d="M28.75 45.75V43.0431L28.5499 43.0023C27.0279 42.6921 25.5833 42.0887 24.2561 41.2091L24.0857 41.0961L22.1613 43.0207L18.9792 39.8388L20.9037 37.9142L20.7908 37.7439C19.9114 36.4171 19.3081 34.9724 18.9978 33.4501L18.9569 33.25H16.25V28.75H18.9569L18.9976 28.5499C19.3079 27.0276 19.9113 25.583 20.7909 24.2561L20.9038 24.0857L18.9791 22.1613L22.1612 18.9792L24.0857 20.9039L24.2561 20.7909C25.5829 19.9114 27.0276 19.308 28.5499 18.9977L28.75 18.9569V16.25H33.25V18.9569L33.4501 18.9976C34.9724 19.3079 36.417 19.9113 37.7439 20.7909L37.9142 20.9038L39.8388 18.9791L43.0208 22.1612L41.0961 24.0857L41.2091 24.2561C42.0886 25.5829 42.692 27.0276 43.0023 28.5499L43.0431 28.75H45.75V33.25H43.0431L43.0023 33.4501C42.6919 34.9724 42.0887 36.4171 41.2092 37.7439L41.0963 37.9142L43.0209 39.8388L39.8388 43.0207L37.9143 41.0961L37.7439 41.2091C36.4168 42.0887 34.9722 42.6921 33.4501 43.0023L33.25 43.0431V45.75H28.75Z" stroke="white" stroke-width="2.5" stroke-miterlimit="10" stroke-linecap="round" stroke-linejoin="round"/>
<path d="M31 36L33.5 31.6699" stroke="white" stroke-width="2.5" stroke-miterlimit="10" stroke-linecap="round" stroke-linejoin="round"/>
<path d="M36.5536 36C37.7508 34.6709 38.5 32.9296 38.5 31C38.5 26.8579 35.1421 23.5 31 23.5C26.8579 23.5 23.5 26.8579 23.5 31C23.5 32.9296 24.2492 34.6709 25.4464 36H36.5536Z" stroke="white" stroke-width="2.5" stroke-miterlimit="10" stroke-linecap="round" stroke-linejoin="round"/>
</g>
<defs>
<clipPath id="clip0_970_18995">
<rect width="32" height="32" fill="white" transform="translate(15 15)"/>
</clipPath>
</defs>
</svg>
