<svg width="62" height="62" viewBox="0 0 62 62" fill="none" xmlns="http://www.w3.org/2000/svg">
<rect width="62" height="62" fill="white"/>
<path d="M6.91749 6.71863C1.46648 12.288 -0.437044 25.6958 0.0820995 35.8032C0.370513 41.461 1.66837 51.6568 7.09054 56.1065C11.8782 60.0846 21.5112 62 31 62C40.4888 62 50.1218 60.0257 54.9095 56.1065C60.3316 51.6568 61.6295 41.3726 61.9179 35.8032C62.437 25.6958 60.5335 12.2291 55.0825 6.71863C46.3147 -2.23954 15.6853 -2.23954 6.91749 6.71863Z" fill="#8055F9"/>
<g clip-path="url(#clip0_970_19050)">
<path d="M30.819 20.335C25.2403 20.427 20.5403 25.0363 20.3416 30.6083C20.2243 33.8457 21.5603 36.919 24.0083 39.043C25.063 39.959 25.667 41.367 25.667 43.0003C25.667 45.2057 27.4616 47.0003 29.667 47.0003H32.3336C34.539 47.0003 36.3336 45.2057 36.3336 43.0003V42.5003C36.3336 41.2123 36.9403 39.9697 38.0429 38.999C40.347 36.975 41.667 34.0603 41.667 31.0003C41.667 28.119 40.535 25.4177 38.4803 23.3963C36.4256 21.375 33.703 20.2697 30.819 20.335ZM33.667 43.0003C33.667 43.7363 33.0696 44.3337 32.3336 44.3337H29.667C28.931 44.3337 28.3336 43.7363 28.3336 42.9083C28.3336 42.487 28.2923 42.0737 28.231 41.667H33.7216C33.6883 41.9417 33.667 42.2203 33.667 42.5003V43.0003ZM36.283 36.9963C35.6016 37.595 35.0523 38.2723 34.6296 39.0003H32.3336V33.4217C33.8816 32.8697 35.0003 31.403 35.0003 29.667C35.0003 28.9297 34.4043 28.3337 33.667 28.3337C32.9296 28.3337 32.3336 28.9297 32.3336 29.667C32.3336 30.4043 31.7363 31.0003 31.0003 31.0003C30.2643 31.0003 29.667 30.403 29.667 29.667C29.667 28.931 29.071 28.3337 28.3336 28.3337C27.5963 28.3337 27.0003 28.9297 27.0003 29.667C27.0003 31.403 28.119 32.8697 29.667 33.4217V39.0003H27.339C26.9256 38.2563 26.3963 37.587 25.755 37.0297C23.9203 35.4363 22.9176 33.131 23.0056 30.7043C23.155 26.5257 26.6803 23.0697 30.8643 23.0017C30.9096 23.0017 30.9536 23.0017 31.0003 23.0017C33.115 23.0017 35.103 23.8137 36.611 25.299C38.1523 26.815 39.0016 28.8403 39.0016 31.0017C39.0016 33.295 38.011 35.479 36.2843 36.9977L36.283 36.9963ZM37.3803 18.299L39.027 15.619C39.411 14.9897 40.2323 14.7937 40.8603 15.1817C41.4883 15.567 41.6843 16.387 41.2976 17.015L39.651 19.695C39.4003 20.1057 38.9616 20.331 38.5136 20.331C38.275 20.331 38.035 20.267 37.8176 20.1337C37.1896 19.7483 36.9936 18.927 37.3803 18.299ZM46.2176 23.8297L43.6403 24.9923C43.4629 25.0737 43.2763 25.111 43.0936 25.111C42.5843 25.111 42.1003 24.819 41.8776 24.3257C41.5736 23.655 41.8723 22.8643 42.5443 22.563L45.1216 21.4003C45.7963 21.095 46.5829 21.3963 46.8843 22.067C47.1883 22.7377 46.8896 23.5283 46.2176 23.8297ZM20.5923 17.0137C20.207 16.3857 20.4043 15.5643 21.0323 15.1803C21.663 14.7963 22.4816 14.9937 22.8656 15.6203L24.5083 18.3017C24.8936 18.9297 24.6963 19.751 24.0683 20.135C23.851 20.2683 23.6096 20.331 23.3736 20.331C22.9243 20.331 22.487 20.1043 22.235 19.6937L20.5923 17.0123V17.0137ZM19.9483 24.415C19.7203 24.8937 19.243 25.1723 18.7456 25.1723C18.5523 25.1723 18.3563 25.131 18.171 25.0403L15.7736 23.8923C15.1096 23.575 14.8283 22.779 15.147 22.115C15.463 21.4497 16.263 21.1657 16.9243 21.4883L19.3216 22.6363C19.9856 22.9537 20.267 23.751 19.9483 24.415Z" fill="white"/>
</g>
<defs>
<clipPath id="clip0_970_19050">
<rect width="32" height="32" fill="white" transform="translate(15 15)"/>
</clipPath>
</defs>
</svg>
