<svg width="62" height="62" viewBox="0 0 62 62" fill="none" xmlns="http://www.w3.org/2000/svg">
<path d="M6.91749 6.71863C1.46648 12.288 -0.437044 25.6958 0.0820995 35.8032C0.370513 41.461 1.66837 51.6568 7.09054 56.1065C11.8782 60.0846 21.5112 62 31 62C40.4888 62 50.1218 60.0257 54.9095 56.1065C60.3316 51.6568 61.6295 41.3726 61.9179 35.8032C62.437 25.6958 60.5335 12.2291 55.0825 6.71863C46.3147 -2.23954 15.6853 -2.23954 6.91749 6.71863Z" fill="#FFA336"/>
<g clip-path="url(#clip0_970_18950)">
<path d="M22.835 30.458C16.3124 24.1793 18.9655 16.7787 23.5881 16.02C28.4957 15.2143 30.6039 20.6093 30.6039 20.6093C30.6039 20.6093 32.712 15.2143 37.6196 16.02C40.8315 16.5475 43.0928 20.2824 41.984 24.6186" stroke="white" stroke-width="2" stroke-miterlimit="10" stroke-linecap="round" stroke-linejoin="round"/>
<path d="M40.9106 27.2456L40.9102 27.2461" stroke="white" stroke-width="2" stroke-miterlimit="10" stroke-linecap="round" stroke-linejoin="round"/>
<path d="M33.7717 34.3847L41.5293 26.6273C42.2541 25.9024 42.2947 24.7216 41.5872 23.9804C40.8595 23.2175 39.648 23.2056 38.9045 23.9486L37.5897 25.2635C38.3145 24.5387 38.3551 23.3579 37.6475 22.6167C36.9199 21.8538 35.7083 21.8418 34.9649 22.5849L26.6563 30.8934L26.4552 27.0313C26.411 25.9971 25.5368 25.1937 24.5022 25.2374C24.0138 25.2582 23.5768 25.4637 23.2563 25.7841C22.898 26.1425 22.6853 26.6441 22.7083 27.1904L22.8418 29.4673C22.955 32.1313 22.0052 34.7453 20.157 36.6678C20.1119 36.7146 20.066 36.7614 20.0195 36.8078L29.2744 46.0625C30.689 44.6479 32.1457 44.0221 33.259 43.7521C34.7753 43.3839 36.16 42.603 37.263 41.4999L42.4948 36.2683C43.217 35.5461 43.2612 34.3688 42.5589 33.6268C41.8297 32.8569 40.6152 32.8445 39.8705 33.5892L36.4233 37.0363" stroke="white" stroke-width="2" stroke-miterlimit="10" stroke-linecap="round" stroke-linejoin="round"/>
<path d="M37.5618 35.8994L42.0882 31.3732C42.8204 30.6409 42.8204 29.4537 42.0882 28.7215C41.356 27.9893 40.1687 27.9893 39.4365 28.7215L34.9102 33.2478" stroke="white" stroke-width="2" stroke-miterlimit="10" stroke-linecap="round" stroke-linejoin="round"/>
<path d="M37.5909 25.264L31.1211 31.7334" stroke="white" stroke-width="2" stroke-miterlimit="10" stroke-linecap="round" stroke-linejoin="round"/>
</g>
<defs>
<clipPath id="clip0_970_18950">
<rect width="32" height="32" fill="white" transform="translate(15 15)"/>
</clipPath>
</defs>
</svg>
