<svg width="62" height="62" viewBox="0 0 62 62" fill="none" xmlns="http://www.w3.org/2000/svg">
<rect width="62" height="62" fill="white"/>
<path d="M6.91749 6.71863C1.46648 12.288 -0.437044 25.6958 0.0820995 35.8032C0.370513 41.461 1.66837 51.6568 7.09054 56.1065C11.8782 60.0846 21.5112 62 31 62C40.4888 62 50.1218 60.0257 54.9095 56.1065C60.3316 51.6568 61.6295 41.3726 61.9179 35.8032C62.437 25.6958 60.5335 12.2291 55.0825 6.71863C46.3147 -2.23954 15.6853 -2.23954 6.91749 6.71863Z" fill="#7DC97E"/>
<g clip-path="url(#clip0_970_18976)">
<path d="M30.932 47.0117L30.46 46.8024C29.9346 46.5717 17.668 41.0317 17.668 30.9997V22.3011C17.6684 21.4639 17.933 20.6483 18.424 19.9703C18.915 19.2924 19.6074 18.7866 20.4026 18.5251L31.0013 15.0117L41.6 18.5251C42.3952 18.7866 43.0876 19.2924 43.5786 19.9703C44.0696 20.6483 44.3342 21.4639 44.3346 22.3011V30.9997C44.3346 42.4357 31.9506 46.673 31.4226 46.8491L30.932 47.0117ZM31.0013 17.8077L21.2466 21.0424C20.9812 21.1291 20.7501 21.2975 20.5862 21.5236C20.4224 21.7497 20.3343 22.0218 20.3346 22.3011V30.9997C20.3346 38.3251 28.9213 43.0771 31.064 44.1477C33.2026 43.2877 41.668 39.3504 41.668 30.9997V22.3011C41.6683 22.0218 41.5802 21.7497 41.4164 21.5236C41.2525 21.2975 41.0214 21.1291 40.756 21.0424L31.0013 17.8077Z" fill="white"/>
<path d="M29.8143 34.3895H29.7703C29.4329 34.3843 29.0999 34.3107 28.7917 34.1732C28.4835 34.0357 28.2063 33.8371 27.977 33.5895L24.9023 30.3895L26.8237 28.5468L29.8157 31.6668L36.7237 24.7588L38.609 26.6441L31.5943 33.6588C31.3607 33.8922 31.0831 34.077 30.7775 34.2024C30.472 34.3279 30.1446 34.3914 29.8143 34.3895Z" fill="white"/>
</g>
<defs>
<clipPath id="clip0_970_18976">
<rect width="32" height="32" fill="white" transform="translate(15 15)"/>
</clipPath>
</defs>
</svg>
