<svg width="62" height="62" viewBox="0 0 62 62" fill="none" xmlns="http://www.w3.org/2000/svg">
<rect width="62" height="62" fill="white"/>
<path d="M6.91749 6.71863C1.46648 12.288 -0.437044 25.6958 0.0820995 35.8032C0.370513 41.461 1.66837 51.6568 7.09054 56.1065C11.8782 60.0846 21.5112 62 31 62C40.4888 62 50.1218 60.0257 54.9095 56.1065C60.3316 51.6568 61.6295 41.3726 61.9179 35.8032C62.437 25.6958 60.5335 12.2291 55.0825 6.71863C46.3147 -2.23954 15.6853 -2.23954 6.91749 6.71863Z" fill="#EA2424"/>
<g clip-path="url(#clip0_970_19014)">
<path d="M35 28.892V28.9027C34.3547 29.184 33.7413 29.572 33.1867 30.068L31.768 31.3733C31.3333 31.7733 30.6653 31.7733 30.2307 31.3733L28.7733 30.032C28.232 29.5467 27.632 29.168 27 28.892C27 27.1107 28.444 25.6667 30.2253 25.6667H31.7733C33.5547 25.6667 34.9987 27.1107 34.9987 28.892H35ZM25.6667 20.3333C27.14 20.3333 28.3333 19.14 28.3333 17.6667C28.3333 16.1933 27.14 15 25.6667 15C24.1933 15 23 16.1933 23 17.6667C23 19.14 24.1933 20.3333 25.6667 20.3333ZM31 24.3333C32.4733 24.3333 33.6667 23.14 33.6667 21.6667C33.6667 20.1933 32.4733 19 31 19C29.5267 19 28.3333 20.1933 28.3333 21.6667C28.3333 23.14 29.5267 24.3333 31 24.3333ZM36.3333 20.3333C37.8067 20.3333 39 19.14 39 17.6667C39 16.1933 37.8067 15 36.3333 15C34.86 15 33.6667 16.1933 33.6667 17.6667C33.6667 19.14 34.86 20.3333 36.3333 20.3333ZM43 20.3333C41.408 20.3333 40.0413 21.2747 39.3987 22.624C38.8147 22.0333 38.004 21.6667 37.108 21.6667H36.3333C36.3333 22.4907 36.1373 23.264 35.7987 23.956C36.8133 24.724 37.4933 25.8893 37.6213 27.2227V28.3453C38.084 28.3413 38.5453 28.3853 39 28.476V31.248C37.6667 30.78 36.1267 31.016 34.9933 32.0307L30.9827 35.7213C30.8733 35.6093 30.7693 35.492 30.6533 35.3853L26.9947 32.0187C25.8707 31.0107 24.3333 30.7773 23 31.2467V28.4693C23.4533 28.3773 23.9147 28.3333 24.376 28.336V27.2493C24.4973 25.904 25.18 24.728 26.2013 23.9547C25.864 23.2627 25.6667 22.4893 25.6667 21.6653H24.892C23.996 21.6653 23.1853 22.032 22.6013 22.6227C21.9573 21.2733 20.592 20.332 19 20.332C16.7947 20.332 15 22.1267 15 24.332V37.8C15 40.6493 16.1093 43.328 18.124 45.3427L19.3907 46.6093C19.6507 46.8693 19.992 47 20.3333 47C20.6747 47 21.016 46.8693 21.276 46.6093C21.7973 46.088 21.7973 45.2453 21.276 44.724L20.0093 43.4573C18.4987 41.9467 17.6667 39.9373 17.6667 37.8V24.3333C17.6667 23.5987 18.2653 23 19 23C19.7347 23 20.3333 23.5987 20.3333 24.3333C20.3333 24.3333 20.3267 35.1027 20.3333 35.1573C20.3733 36.0293 20.7147 36.9013 21.3293 37.6293L24.8173 41.2573C25.3293 41.7893 26.172 41.8053 26.7027 41.2947C27.2333 40.784 27.2507 39.94 26.74 39.4093L23.3133 35.848C22.8907 35.3453 22.9027 34.5973 23.3413 34.108C23.8307 33.5613 24.6733 33.5173 25.204 33.9933L28.8493 37.348C30.2173 38.6067 31.0027 40.3947 31.0027 42.2547V45.6667C31.0027 46.4027 31.6 47 32.336 47C33.072 47 33.6693 46.4027 33.6693 45.6667V42.2547C33.6693 40.7187 33.2773 39.2213 32.5707 37.8867L36.788 34.0053C37.3333 33.5173 38.1747 33.5627 38.6627 34.108C38.876 34.3467 39.2947 35.2387 38.7507 35.7813C38.2067 36.324 35.3733 39.2933 35.3733 39.2933C34.8627 39.824 34.8787 40.668 35.4107 41.1787C35.6693 41.428 36.0013 41.5507 36.3347 41.5507C36.684 41.5507 37.0333 41.4133 37.296 41.1413L40.7333 37.5627C41.332 36.8493 41.668 36.4013 41.668 35V24.3333C41.668 23.5987 42.2667 23 43.0013 23C43.736 23 44.3347 23.5987 44.3347 24.3333V37.8013C44.3347 39.9387 43.5027 41.9467 41.992 43.4587L40.7253 44.7253C40.204 45.2467 40.204 46.0893 40.7253 46.6107C40.9853 46.8707 41.3267 47.0013 41.668 47.0013C42.0093 47.0013 42.3507 46.8707 42.6107 46.6107L43.8773 45.344C45.892 43.3293 47.0013 40.6507 47.0013 37.8013V24.3333C47.0013 22.128 45.2053 20.3333 43 20.3333Z" fill="white"/>
</g>
<defs>
<clipPath id="clip0_970_19014">
<rect width="32" height="32" fill="white" transform="translate(15 15)"/>
</clipPath>
</defs>
</svg>
